<?xml version="1.0" encoding="UTF-8"?>
<svg width="77px" height="25px" viewBox="0 0 77 25" version="1.1" xmlns="http://www.w3.org/2000/svg" xmlns:xlink="http://www.w3.org/1999/xlink">
    <g id="Page-1" stroke="none" stroke-width="1" fill="none" fill-rule="evenodd">
        <path d="M74.7044037,0.574470049 C68.0547874,2.58190138 61.5306356,5.09119055 54.6300904,6.47129959 C53.5009102,6.72222851 53.5009102,8.60419538 54.6300904,8.8551243 C57.6412374,9.35698213 60.5269199,10.2352333 63.4126025,10.7370912 C59.2722753,13.9991671 55.633806,16.8848496 50.4897632,18.892281 C44.4674692,21.1506412 38.0687819,22.0288924 31.6700945,21.7779635 C18.119933,21.4015701 6.20080945,14.250096 2.56234016,0.825398965 C2.31141124,-0.052852243 0.805837741,0.0726122153 0.9313022,1.07632788 C2.4368757,15.0028828 14.7323926,22.9071436 27.7806963,24.4127171 C38.9470331,25.6673617 56.5120572,23.4090015 64.7927115,13.8737026 C65.0436404,16.5084563 65.9218916,19.0177454 67.4274651,21.2761057 C68.0547874,22.1543569 69.0585031,22.1543569 69.6858254,21.2761057 C73.5752236,15.630205 74.4534748,8.60419538 76.2099772,2.20550801 C76.5863706,1.20179234 75.7081194,0.323541132 74.7044037,0.574470049 L74.7044037,0.574470049 Z M67.3020007,11.4898779 C67.3020007,11.238949 67.1765362,10.9880201 67.0510717,10.7370912 C67.678394,9.48244659 66.1728205,8.60419538 65.1691049,9.35698213 L65.0436404,9.48244659 C65.0436404,9.48244659 65.0436404,9.48244659 64.918176,9.48244659 C63.1616735,8.98058876 61.4051711,8.35326647 59.6486687,7.85140863 C64.1653892,6.72222851 68.6821097,5.09119055 73.1988302,3.71108151 C71.9441856,8.60419538 71.0659344,13.6227737 68.5566452,18.0140298 C67.8038585,16.0065984 67.4274651,13.8737026 67.3020007,11.4898779 L67.3020007,11.4898779 Z" id="arrow-" fill="#4F565E" transform="translate(38.611408, 12.484013) scale(1, -1) translate(-38.611408, -12.484013) "></path>
    </g>
</svg>
