<?xml version="1.0" encoding="utf-8"?>
<!-- Generator: Adobe Illustrator 22.1.0, SVG Export Plug-In . SVG Version: 6.00 Build 0)  -->
<svg version="1.1" id="Livello_1" xmlns="http://www.w3.org/2000/svg" xmlns:xlink="http://www.w3.org/1999/xlink" x="0px" y="0px"
	 viewBox="0 0 452.7 368.8" style="enable-background:new 0 0 452.7 368.8;" xml:space="preserve">
<style type="text/css">
	.st0{fill:none;stroke:#03A5E8;stroke-width:8;stroke-miterlimit:10;}
</style>
<g>
	<path class="st0" d="M385.6,14.2H73.3c-27.5,0-59.1,24.4-59.1,47.9v189.3c0,21.7,26.8,37.3,52.5,39.7L50,354.6l107.2-63h228.5
		c27.5,0,52.8-16.7,52.8-40.2V98.3V62.1C438.5,38.6,413.1,14.2,385.6,14.2z"/>
	<path class="st0" d="M328.8,194.1c3.8,3.8,3.8,10.1,0,13.9L296,240.8c-6.1,6.1-16.8,1.8-16.8-7v-16.4h-24.1c-1.4,0-2.7-0.6-3.6-1.6
		l-28.9-31l21.8-23.4l21.6,23.2h13.1v-16.4c0-8.8,10.6-13.1,16.8-7L328.8,194.1z M126.8,119.1h34.4l21.6,23.2l21.8-23.4l-28.9-31
		c-0.9-1-2.2-1.6-3.6-1.6h-45.4c-2.7,0-4.9,2.2-4.9,4.9v22.9C121.9,116.9,124.1,119.1,126.8,119.1z M279.2,119.1v16.4
		c0,8.8,10.6,13.1,16.8,7l32.8-32.8c3.8-3.8,3.8-10.1,0-13.9L296,63c-6.2-6.2-16.8-1.8-16.8,7v16.4h-24.1c-1.4,0-2.7,0.6-3.6,1.6
		l-90.3,96.7h-34.4c-2.7,0-4.9,2.2-4.9,4.9v22.9c0,2.7,2.2,4.9,4.9,4.9h45.4c1.4,0,2.7-0.6,3.6-1.6l90.3-96.7L279.2,119.1
		L279.2,119.1z"/>
</g>
</svg>
