<?xml version="1.0" encoding="utf-8"?>
<!-- Generator: Adobe Illustrator 28.4.1, SVG Export Plug-In . SVG Version: 6.00 Build 0)  -->
<svg version="1.1" id="Layer_1" xmlns="http://www.w3.org/2000/svg" xmlns:xlink="http://www.w3.org/1999/xlink" x="0px" y="0px"
	 viewBox="0 0 104 104" style="enable-background:new 0 0 104 104;" xml:space="preserve">
<style type="text/css">
	.st0{fill:none;}
	.st1{fill:#A7A9AC;}
</style>
<rect x="0.1" y="1.5" class="st0" width="104" height="102.5"/>
<path class="st1" d="M51.7,86.9c-3.2,0-6-1.1-8.2-3.4c-2.2-2.2-3.4-5-3.4-8.2c0-2.8,0.9-5.2,2.6-7.3c1.7-2.1,3.9-3.4,6.5-4v-7.9
	H29.8V43.4h-8.2V21.8h21.5v21.5h-8.2v7.7h33.6v-8c-2.6-0.6-4.8-1.9-6.5-4c-1.7-2.1-2.6-4.5-2.6-7.3c0-3.2,1.1-6,3.4-8.2
	c2.2-2.2,5-3.4,8.2-3.4c3.2,0,6,1.1,8.2,3.4c2.2,2.2,3.4,5,3.4,8.2c0,2.8-0.9,5.2-2.6,7.3c-1.7,2.1-3.9,3.4-6.5,4v13.1H54.2V64
	c2.6,0.6,4.8,1.9,6.5,4c1.7,2.1,2.6,4.5,2.6,7.3c0,3.2-1.1,6-3.4,8.2C57.7,85.8,54.9,86.9,51.7,86.9z M71,38.3
	c1.8,0,3.4-0.6,4.6-1.9s1.9-2.8,1.9-4.6c0-1.8-0.6-3.4-1.9-4.6c-1.3-1.3-2.8-1.9-4.6-1.9s-3.4,0.6-4.6,1.9c-1.3,1.3-1.9,2.8-1.9,4.6
	c0,1.8,0.6,3.4,1.9,4.6C67.6,37.7,69.2,38.3,71,38.3z M26.6,38.3h11.4V26.9H26.6C26.6,26.9,26.6,38.3,26.6,38.3z M51.7,81.9
	c1.8,0,3.4-0.6,4.6-1.9c1.3-1.3,1.9-2.8,1.9-4.6c0-1.8-0.6-3.4-1.9-4.6c-1.3-1.3-2.8-1.9-4.6-1.9s-3.4,0.6-4.6,1.9
	c-1.3,1.3-1.9,2.8-1.9,4.6c0,1.8,0.6,3.4,1.9,4.6C48.3,81.2,49.9,81.9,51.7,81.9z"/>
</svg>
