<svg xmlns="http://www.w3.org/2000/svg" viewBox="0 0 104 104"><defs><style>.cls-1{fill:#a7a9ac;}.cls-2{fill:none;}</style></defs><title>ic_widget_bot_gray_03</title><g id="Livello_1" data-name="Livello 1"><circle class="cls-1" cx="41.6" cy="41.9" r="3"/><circle class="cls-1" cx="61.9" cy="41.9" r="3"/><path class="cls-1" d="M61.5,87.5H42.4a9.8,9.8,0,0,0,9,7.2h1.1A9.8,9.8,0,0,0,61.5,87.5Z"/><path class="cls-1" d="M55.9,13.2a4,4,0,0,0-4-3.9A3.9,3.9,0,0,0,48,13.2a4.2,4.2,0,0,0,1.9,3.5v4.4h4V16.7A4,4,0,0,0,55.9,13.2Z"/><path class="cls-1" d="M81.8,77.9V59.2a6,6,0,0,0-6-5.9h-.1V45.9h0a23.8,23.8,0,0,0-47.5,0h0v7.4a6,6,0,0,0-6,5.9V77.9A4,4,0,0,0,20.3,82a4,4,0,0,0,3.4,3.3,4.1,4.1,0,0,0,4.5-4,4,4,0,0,0-2-3.4V66H27a1.2,1.2,0,0,1,1.2,1.1v5.3A13.4,13.4,0,0,0,41.5,85.8H62.3A13.4,13.4,0,0,0,75.7,72.4V67.1A1.1,1.1,0,0,1,76.8,66h1V77.9A4,4,0,0,0,75.9,82a4,4,0,0,0,3.4,3.3,4.1,4.1,0,0,0,4.5-4A4,4,0,0,0,81.8,77.9ZM56.6,62a2,2,0,1,1,2-2A2,2,0,0,1,56.6,62Zm4.9,0a2,2,0,1,1,2-2A2,2,0,0,1,61.5,62ZM39.9,49a4.1,4.1,0,0,1-4.1-4.1V43.8A13.9,13.9,0,0,1,49.6,29.9h4.6A14,14,0,0,1,68.1,43.8v1.1A4.2,4.2,0,0,1,64,49ZM66.3,62a2,2,0,1,1,2-2A2,2,0,0,1,66.3,62Z"/><rect class="cls-2" width="104" height="104"/></g></svg>