<?xml version="1.0" encoding="utf-8"?>
<!-- Generator: Adobe Illustrator 28.4.1, SVG Export Plug-In . SVG Version: 6.00 Build 0)  -->
<svg version="1.1" id="Layer_1" xmlns="http://www.w3.org/2000/svg" xmlns:xlink="http://www.w3.org/1999/xlink" x="0px" y="0px"
	 viewBox="0 0 104 104" style="enable-background:new 0 0 104 104;" xml:space="preserve">
<style type="text/css">
	.st0{fill:none;}
	.st1{fill-rule:evenodd;clip-rule:evenodd;fill:#A7A9AC;}
</style>
<rect y="0" class="st0" width="104" height="104"/>
<g id="layer1" transform="translate(-25.414562,-111.28127)">
	<path id="rect6094-5-9" class="st1" d="M77.4,131.9c-7.9,0-15.9,2.7-22.4,8.2c-3.9,3.2-6.9,7.3-9,11.6c-0.3,0-0.5-0.1-0.9-0.1
		c-5.2,0-9.4,4.2-9.4,9.4v11.6c0,5.2,4.2,9.4,9.4,9.4c0.3,0,0.5,0,0.9-0.1c0.4,0.8,0.8,1.6,1.2,2.3c1.7,3,6.2,0.4,4.5-2.6
		c-7.1-12.5-4.4-28.3,6.6-37.6c11.1-9.2,27-9.2,38.1,0s13.8,25.1,6.6,37.6l-0.1,0.1v0.1c0,0-3.5,7.8-10.4,7.8l-8.7-0.1
		c-0.8-1.2-2.1-2.1-3.6-2.1h-5.6c-2.5,0-4.6,2.1-4.6,4.5c0,1.6,1,2.7,3.2,2.7h19.4c10.3,0,14.8-10.1,14.9-10.7l0,0
		c0.4-0.8,0.8-1.6,1.2-2.3c0.3,0,0.7,0.1,0.9,0.1c5.2,0,9.4-4.2,9.4-9.4v-11.6c0-5.2-4.2-9.4-9.4-9.4c-0.3,0-0.5,0-0.9,0.1
		c-2.1-4.4-5.1-8.3-9-11.6C93.4,134.6,85.3,131.9,77.4,131.9L77.4,131.9z M66.1,148.4c-2.1-0.1-3.9,0.3-5.5,1.9
		c-4.3,4.6-7,10.7-7,17.3c0,5.5,1.8,11.4,4.8,11.7c4.3,0.3,11.2-2.6,19-2.6c8.2,0,15.3,3.2,19.6,2.5c2.6-0.5,4.2-6.6,4.2-11.6
		c0-6.6-2.7-12.7-7-17.3c-4.3-4.6-10.3,0-16.8,0C73.4,150.3,69.5,148.6,66.1,148.4z M65,159.6c2.3,0,4.3,1.9,4.3,4.3
		c0,2.3-1.9,4.3-4.3,4.3s-4.3-1.9-4.3-4.3C60.7,161.5,62.7,159.6,65,159.6z M89.7,159.6c2.3,0,4.3,1.9,4.3,4.3c0,2.3-2,4.3-4.3,4.3
		s-4.3-1.9-4.3-4.3C85.3,161.5,87.3,159.6,89.7,159.6z"/>
</g>
</svg>
