<?xml version="1.0" encoding="utf-8"?>
<!-- Generator: Adobe Illustrator 22.1.0, SVG Export Plug-In . SVG Version: 6.00 Build 0)  -->
<svg version="1.1" id="Livello_1" xmlns="http://www.w3.org/2000/svg" xmlns:xlink="http://www.w3.org/1999/xlink" x="0px" y="0px"
	 viewBox="0 0 104 104" style="enable-background:new 0 0 104 104;" xml:space="preserve">
<style type="text/css">
	.st0{fill:#FFFFFF;}
	.st1{fill:none;}
</style>
<title>ic_widget_bot_gray_03</title>
<circle class="st0" cx="41.6" cy="41.9" r="3"/>
<circle class="st0" cx="61.9" cy="41.9" r="3"/>
<path class="st0" d="M61.5,87.5H42.4c1.1,4.1,4.8,7,9,7.2h1.1C56.7,94.5,60.4,91.6,61.5,87.5z"/>
<path class="st0" d="M55.9,13.2c-0.1-2.2-1.8-3.9-4-3.9c-2.2,0-3.9,1.7-3.9,3.9c0,0,0,0,0,0c0,1.4,0.7,2.7,1.9,3.5v4.4h4v-4.4
	C55.1,16,55.9,14.6,55.9,13.2z"/>
<path class="st0" d="M81.8,77.9V59.2c-0.1-3.3-2.7-5.9-6-5.9h-0.1v-7.4l0,0c-0.9-13.1-12.2-23.1-25.3-22.2
	C38.5,24.5,29,34,28.2,45.9l0,0v7.4c-3.3,0-5.9,2.6-6,5.9v18.7c-1.4,0.8-2.2,2.5-1.9,4.1c0.3,1.7,1.7,3.1,3.4,3.3
	c2.3,0.2,4.3-1.4,4.5-3.7c0-0.1,0-0.2,0-0.3c0-1.4-0.8-2.7-2-3.4V66H27c0.6,0,1.1,0.5,1.2,1.1v5.3c0,7.4,5.9,13.3,13.3,13.4h20.8
	c7.4,0,13.4-6,13.4-13.4l0,0v-5.3c0-0.6,0.5-1.1,1.1-1.1c0,0,0,0,0,0h1v11.9c-1.4,0.8-2.2,2.5-1.9,4.1c0.3,1.7,1.7,3.1,3.4,3.3
	c2.3,0.2,4.3-1.4,4.5-3.7c0-0.1,0-0.2,0-0.3C83.8,79.9,83,78.6,81.8,77.9z M56.6,62c-1.1,0-2-0.9-2-2s0.9-2,2-2s2,0.9,2,2
	S57.7,62,56.6,62z M61.5,62c-1.1,0-2-0.9-2-2s0.9-2,2-2s2,0.9,2,2S62.6,62,61.5,62z M39.9,49c-2.3,0-4.1-1.8-4.1-4.1v-1.1
	c0-7.6,6.2-13.8,13.8-13.9h4.6C61.9,30,68,36.1,68.1,43.8v1.1c-0.1,2.2-1.9,4-4.1,4.1H39.9z M66.3,62c-1.1,0-2-0.9-2-2s0.9-2,2-2
	s2,0.9,2,2S67.4,62,66.3,62z"/>
<rect y="0" class="st1" width="104" height="104"/>
</svg>
