<?xml version="1.0" encoding="utf-8"?>
<!-- Generator: Adobe Illustrator 22.1.0, SVG Export Plug-In . SVG Version: 6.00 Build 0)  -->
<svg version="1.1" id="Livello_1" xmlns="http://www.w3.org/2000/svg" xmlns:xlink="http://www.w3.org/1999/xlink" x="0px" y="0px"
	 viewBox="0 0 104 104" style="enable-background:new 0 0 104 104;" xml:space="preserve">
<style type="text/css">
	.st0{fill:#A7A9AC;}
	.st1{fill:none;stroke:#A7A9AC;stroke-miterlimit:10;}
	.st2{fill:none;}
	.st3{fill:#03A5E8;}
</style>
<title>ic_widget_bot_gray_03</title>
<g>
	<circle class="st0" cx="40" cy="40.3" r="3.5"/>
	<circle class="st0" cx="63.4" cy="40.3" r="3.5"/>
	<path class="st1" d="M63,93h-22c1.3,4.7,5.5,8.1,10.4,8.3h1.3C57.5,101.1,61.7,97.7,63,93z"/>
	<path class="st1" d="M56.5,7.2c-0.1-2.5-2.1-4.5-4.6-4.5c-2.5,0-4.5,2-4.5,4.5c0,0,0,0,0,0c0,1.6,0.8,3.1,2.2,4v5.1h4.6v-5.1
		C55.6,10.4,56.5,8.9,56.5,7.2z"/>
	<path class="st1" d="M86.4,81.9V60.3c-0.1-3.8-3.1-6.8-6.9-6.8h-0.1V45l0,0c-1-15.1-14.1-26.6-29.2-25.6
		C36.4,20.2,25.4,31.2,24.5,45l0,0v8.5c-3.8,0-6.9,3-6.9,6.8v21.6c-1.6,1-2.5,2.9-2.2,4.7c0.3,2,1.9,3.5,3.9,3.8
		c2.6,0.3,4.9-1.6,5.2-4.2c0-0.1,0-0.2,0-0.4c0-1.6-0.9-3.1-2.3-3.9V68.2h0.9c0.7,0,1.3,0.6,1.4,1.3v6.1C24.5,84,31.4,91,39.9,91h24
		c8.5,0,15.5-6.9,15.5-15.5l0,0v-6.1c0-0.7,0.6-1.3,1.3-1.3c0,0,0,0,0,0h1.2v13.7c-1.6,1-2.5,2.9-2.2,4.7c0.3,2,1.9,3.5,3.9,3.8
		c2.6,0.3,4.9-1.6,5.2-4.2c0-0.1,0-0.2,0-0.4C88.7,84.2,87.8,82.7,86.4,81.9z"/>
	<path class="st1" d="M38,48.5c-2.6,0-4.7-2.1-4.7-4.7v-1.3c0-8.8,7.1-16,15.9-16h5.3c8.8,0.1,16,7.2,16,16v1.3
		c-0.1,2.6-2.1,4.7-4.7,4.7H38z"/>
	<rect x="12" y="12" class="st2" width="80" height="80"/>
</g>
<path class="st2" d="M35.5,59h24v24h-24V59z"/>
<path class="st2" d="M41,42h24v24H41V42z"/>
<g>
	<path class="st3" d="M56.4,64.8c3.7,3.6,3.7,9.4,0,12.9c0,0,0,0,0,0l-4.2,4c-3.7,3.6-9.7,3.6-13.4,0c-3.7-3.6-3.7-9.4,0-12.9
		l2.3-2.2c0.6-0.6,1.7-0.2,1.7,0.6c0,1.1,0.2,2.1,0.6,3.2c0.1,0.3,0,0.7-0.2,1l-0.8,0.8c-1.8,1.7-1.8,4.4-0.1,6.1
		c1.8,1.7,4.6,1.7,6.4,0l4.2-4c1.8-1.7,1.8-4.4,0-6.1c-0.2-0.2-0.5-0.4-0.6-0.5c-0.3-0.2-0.4-0.5-0.4-0.8c0-0.6,0.2-1.3,0.7-1.8
		l1.3-1.3c0.3-0.3,0.9-0.4,1.3-0.1C55.6,64,56,64.4,56.4,64.8L56.4,64.8z"/>
	<path class="st3" d="M65.2,56.3c-3.7-3.6-9.7-3.6-13.4,0l-4.2,4c0,0,0,0,0,0c-3.7,3.5-3.7,9.3,0,12.9c0.4,0.4,0.8,0.7,1.3,1
		c0.4,0.3,0.9,0.2,1.3-0.1l1.3-1.3c0.5-0.5,0.8-1.2,0.7-1.8c0-0.3-0.2-0.6-0.4-0.8c-0.2-0.1-0.4-0.3-0.6-0.5c-1.8-1.7-1.8-4.4,0-6.1
		l4.2-4c1.8-1.7,4.6-1.7,6.4,0c1.7,1.7,1.7,4.4-0.1,6.1l-0.8,0.8c-0.3,0.3-0.4,0.6-0.2,1c0.4,1,0.6,2.1,0.6,3.2
		c0,0.8,1.1,1.2,1.7,0.6l2.3-2.2C68.9,65.6,68.9,59.9,65.2,56.3L65.2,56.3z"/>
</g>
</svg>
