<?xml version="1.0" encoding="utf-8"?>
<!-- Generator: Adobe Illustrator 22.1.0, SVG Export Plug-In . SVG Version: 6.00 Build 0)  -->
<svg version="1.1" id="Livello_1" xmlns="http://www.w3.org/2000/svg" xmlns:xlink="http://www.w3.org/1999/xlink" x="0px" y="0px"
	 viewBox="0 0 104 104" style="enable-background:new 0 0 104 104;" xml:space="preserve">
<style type="text/css">
	.st0{fill:#7695A5;}
	.st1{fill:none;}
</style>
<title>ic_widget_bot_gray_03</title>
<g>
	<path class="st0" d="M35.4,31.3L17.3,16.6c-0.9-0.8-2.3-0.6-3,0.4l-2.6,3.5c-0.7,1-0.6,2.4,0.4,3.1l78.6,63.7
		c0.9,0.8,2.3,0.6,3-0.4l2.6-3.5c0.7-1,0.5-2.4-0.4-3.1l0,0L63.3,53.9"/>
	<g>
		<path class="st1" d="M76.9,66c-0.6,0-1.1,0.5-1.1,1.1v5.3c0,0.4,0,0.7-0.1,1.1l2.2,1.7V66H76.9z"/>
		<path class="st1" d="M56.7,58C56.7,58,56.7,58,56.7,58l2,1.7C58.5,58.7,57.7,58,56.7,58z"/>
		<path class="st1" d="M63.6,60c0-1.1-0.9-2-2-2s-2,0.9-2,2c0,0.2,0,0.3,0.1,0.5l1.7,1.4l0.2,0.1c0,0,0,0,0.1,0
			C62.7,62,63.6,61.1,63.6,60z"/>
		<path class="st1" d="M68.2,44.9v-1.1C68.1,36.1,62,30,54.3,29.9h-4.6c-6.8,0.1-12.4,5-13.6,11.5l9.4,7.6c6.5,0,18.6,0,18.6,0
			C66.3,48.9,68.1,47.1,68.2,44.9z M41.7,44.9c-1.7,0-3-1.3-3-3s1.3-3,3-3c1.7,0,3,1.3,3,3S43.4,44.9,41.7,44.9z M59,41.9
			c0-1.7,1.3-3,3-3s3,1.3,3,3s-1.3,3-3,3S59,43.6,59,41.9z"/>
		<circle class="st1" cx="66.4" cy="60" r="2"/>
		<circle class="st0" cx="41.7" cy="41.9" r="3"/>
		<circle class="st0" cx="62" cy="41.9" r="3"/>
		<path class="st0" d="M51.5,94.7h1.1c4.2-0.2,7.9-3.1,9-7.2H42.5C43.6,91.6,47.3,94.5,51.5,94.7z"/>
		<path class="st0" d="M50,16.7v4.4h4v-4.4c1.2-0.7,2-2.1,2-3.5c-0.1-2.2-1.8-3.9-4-3.9c-2.2,0-3.9,1.7-3.9,3.9
			C48.1,14.6,48.8,15.9,50,16.7z"/>
		<path class="st0" d="M28.3,53.3c-3.3,0-5.9,2.6-6,5.9v18.7c-1.4,0.8-2.2,2.5-1.9,4.1c0.3,1.7,1.7,3.1,3.4,3.3
			c2.3,0.2,4.3-1.4,4.5-3.7c0-0.1,0-0.2,0-0.3c0-1.4-0.8-2.7-2-3.4V66h0.8c0.6,0,1.1,0.5,1.2,1.1v5.3c0,7.4,5.9,13.3,13.3,13.4h20.8
			c3.8,0,7.1-1.6,9.6-4L28.3,46.4V53.3z"/>
		<path class="st0" d="M36.1,41.4c1.1-6.5,6.8-11.4,13.6-11.5h4.6C62,30,68.1,36.1,68.2,43.8v1.1c-0.1,2.2-1.9,4-4.1,4.1
			c0,0-12.1,0-18.6,0l11.1,9c0,0,0.1,0,0.1,0c1,0,1.8,0.7,2,1.7l1,0.8c0-0.2-0.1-0.3-0.1-0.5c0-1.1,0.9-2,2-2s2,0.9,2,2
			c0,1.1-0.9,2-2,2c0,0,0,0-0.1,0l14.2,11.5c0-0.4,0.1-0.7,0.1-1.1v-5.3c0-0.6,0.5-1.1,1.1-1.1h1v9.2l5.7,4.6
			c-0.3-0.8-0.9-1.5-1.7-2V59.2c-0.1-3.3-2.7-5.9-6-5.9h-0.1v-7.4c-0.9-13.1-12.2-23.1-25.3-22.2c-8.7,0.6-16.1,5.9-19.8,13.3
			l2.8,2.3L36.1,41.4z M66.4,62c-1.1,0-2-0.9-2-2c0-1.1,0.9-2,2-2c1.1,0,2,0.9,2,2C68.4,61.1,67.5,62,66.4,62z"/>
	</g>
</g>
</svg>
