<?xml version="1.0" encoding="utf-8"?>
<!-- Generator: Adobe Illustrator 28.4.1, SVG Export Plug-In . SVG Version: 6.00 Build 0)  -->
<svg version="1.1" id="Layer_1" xmlns="http://www.w3.org/2000/svg" xmlns:xlink="http://www.w3.org/1999/xlink" x="0px" y="0px"
	 viewBox="0 0 490 375" style="enable-background:new 0 0 490 375;" xml:space="preserve">
<style type="text/css">
	.st0{fill:none;}
	.st1{fill:#E0E3F1;}
	.st2{fill:#F5F6FB;stroke:#FFFFFF;stroke-miterlimit:10;}
	.st3{fill:#FFFFFF;}
	.st4{fill:#506493;}
	.st5{font-family:'Poppins-SemiBold';}
	.st6{font-size:8.235px;}
	.st7{fill:#0C0C0C;}
	.st8{font-size:6.405px;}
	.st9{fill:#FFFFFF;stroke:#3EA9F5;stroke-miterlimit:10;}
	.st10{fill:#3EA9F5;}
	.st11{fill:#A8A8AE;stroke:#FFFFFF;stroke-miterlimit:10;}
	.st12{fill:none;stroke:#97A6BE;stroke-miterlimit:10;}
	.st13{clip-path:url(#SVGID_00000088116560469792817950000004260689901729389230_);}
	.st14{clip-path:url(#SVGID_00000083085949423914738670000014510841553337923216_);}
	.st15{fill:#F8F9FC;}
	.st16{filter:url(#Adobe_OpacityMaskFilter);}
	.st17{mask:url(#c3efd5557f_00000101822704033361649320000011766289701605674112_);}
	.st18{fill:#FF9F06;}
</style>
<g>
	<g transform="translate(271.985503, 315.581109)">
	</g>
</g>
<g>
	<g transform="translate(300.017918, 315.581109)">
	</g>
</g>
<g>
	<g transform="translate(363.378001, 315.581109)">
	</g>
</g>
<g>
	<g transform="translate(417.883288, 315.581109)">
	</g>
</g>
<g>
	<g transform="translate(288.672384, 338.081107)">
	</g>
</g>
<g>
	<g transform="translate(311.64595, 360.581106)">
	</g>
</g>
<g>
	<g transform="translate(342.615445, 360.581106)">
	</g>
</g>
<g>
	<g transform="translate(396.366978, 360.581106)">
	</g>
</g>
<g>
	<g transform="translate(287.590333, 383.081104)">
	</g>
</g>
<g>
	<g transform="translate(323.199412, 383.081104)">
	</g>
</g>
<g>
	<g transform="translate(362.681308, 383.081104)">
	</g>
</g>
<image style="overflow:visible;" width="800" height="600" xlink:href="../Downloads/Proactive Bot.png"  transform="matrix(0.75 0 0 0.75 519.0526 294.516)">
</image>
<g>
	<rect x="180.7" y="65.3" class="st0" width="270.6" height="137.1"/>
	<g>
		<g>
			<g>
				<path class="st1" d="M169.8,311.8H27.6c-2.6,0-4.6-2.1-4.6-4.6v-241c0-2.6,2.1-4.6,4.6-4.6h142.1c2.6,0,4.6,2.1,4.6,4.6v241
					C174.4,309.7,172.3,311.8,169.8,311.8z"/>
				<path class="st2" d="M165,305.6H32.4c-2.6,0-4.6-2.1-4.6-4.6V90.4c0-2.6,2.1-4.6,4.6-4.6H165c2.6,0,4.6,2.1,4.6,4.6v210.6
					C169.6,303.5,167.6,305.6,165,305.6z"/>
				<path class="st3" d="M158.2,211.4H39.2c-2.3,0-4.2-1.9-4.2-4.2v-85.5c0-2.3,1.9-4.2,4.2-4.2h119.1c2.3,0,4.2,1.9,4.2,4.2v85.5
					C162.4,209.5,160.6,211.4,158.2,211.4z"/>
				
					<image style="overflow:visible;" width="486" height="433" xlink:href="../Downloads/photo_2024-07-19 12.50.48.jpeg"  transform="matrix(0.183 0 0 0.183 54.2434 130.4513)">
				</image>
				<text transform="matrix(1 0 0 1 36.4748 76.0013)" class="st4 st5 st6">welcome</text>
			</g>
			<text transform="matrix(1 0 0 1 37.6731 225.3573)" class="st7 st5 st8">In need of some help?</text>
			<g>
				<g>
					<path class="st9" d="M151.3,253.3H51c-4.2,0-7.6-3.4-7.6-7.6v-0.2c0-4.2,3.4-7.6,7.6-7.6h100.3c4.2,0,7.6,3.4,7.6,7.6v0.2
						C158.9,249.9,155.5,253.3,151.3,253.3z"/>
					<g>
						<path class="st10" d="M77.3,243.4l-1.1,3.8h-0.9l-0.7-2.7l-0.8,2.7l-0.9,0l-1-3.8h0.8l0.7,3l0.8-3h0.9l0.7,3l0.7-3H77.3z"/>
						<path class="st10" d="M77.8,244.9c0.1-0.2,0.3-0.4,0.5-0.5c0.2-0.1,0.4-0.2,0.7-0.2c0.2,0,0.4,0,0.6,0.1
							c0.2,0.1,0.3,0.2,0.4,0.3v-0.4h0.8v3H80v-0.4c-0.1,0.1-0.2,0.3-0.4,0.4c-0.2,0.1-0.4,0.1-0.6,0.1c-0.3,0-0.5-0.1-0.7-0.2
							c-0.2-0.1-0.4-0.3-0.5-0.6c-0.1-0.2-0.2-0.5-0.2-0.8C77.6,245.4,77.7,245.1,77.8,244.9z M79.9,245.2c-0.1-0.1-0.2-0.2-0.3-0.3
							c-0.1-0.1-0.3-0.1-0.4-0.1c-0.1,0-0.3,0-0.4,0.1c-0.1,0.1-0.2,0.2-0.3,0.3c-0.1,0.1-0.1,0.3-0.1,0.5s0,0.3,0.1,0.5
							c0.1,0.1,0.2,0.2,0.3,0.3c0.1,0.1,0.3,0.1,0.4,0.1c0.1,0,0.3,0,0.4-0.1c0.1-0.1,0.2-0.2,0.3-0.3c0.1-0.1,0.1-0.3,0.1-0.5
							S80,245.4,79.9,245.2z"/>
						<path class="st10" d="M84.1,244.5c0.2,0.2,0.3,0.5,0.3,1v1.8h-0.8v-1.7c0-0.2-0.1-0.4-0.2-0.6c-0.1-0.1-0.3-0.2-0.5-0.2
							c-0.2,0-0.4,0.1-0.5,0.2c-0.1,0.1-0.2,0.3-0.2,0.6v1.7h-0.8v-3h0.8v0.4c0.1-0.1,0.2-0.2,0.4-0.3c0.2-0.1,0.3-0.1,0.5-0.1
							C83.6,244.2,83.9,244.3,84.1,244.5z"/>
						<path class="st10" d="M87.7,244.5c0.2,0.2,0.3,0.5,0.3,1v1.8h-0.8v-1.7c0-0.2-0.1-0.4-0.2-0.6c-0.1-0.1-0.3-0.2-0.5-0.2
							c-0.2,0-0.4,0.1-0.5,0.2c-0.1,0.1-0.2,0.3-0.2,0.6v1.7h-0.8v-3h0.8v0.4c0.1-0.1,0.2-0.2,0.4-0.3c0.2-0.1,0.3-0.1,0.5-0.1
							C87.2,244.2,87.5,244.3,87.7,244.5z"/>
						<path class="st10" d="M88.8,244.9c0.1-0.2,0.3-0.4,0.5-0.5c0.2-0.1,0.4-0.2,0.7-0.2c0.2,0,0.4,0,0.6,0.1
							c0.2,0.1,0.3,0.2,0.4,0.3v-0.4h0.8v3H91v-0.4c-0.1,0.1-0.2,0.3-0.4,0.4c-0.2,0.1-0.4,0.1-0.6,0.1c-0.3,0-0.5-0.1-0.7-0.2
							c-0.2-0.1-0.4-0.3-0.5-0.6c-0.1-0.2-0.2-0.5-0.2-0.8C88.6,245.4,88.7,245.1,88.8,244.9z M90.9,245.2c-0.1-0.1-0.2-0.2-0.3-0.3
							c-0.1-0.1-0.3-0.1-0.4-0.1s-0.3,0-0.4,0.1c-0.1,0.1-0.2,0.2-0.3,0.3c-0.1,0.1-0.1,0.3-0.1,0.5s0,0.3,0.1,0.5
							c0.1,0.1,0.2,0.2,0.3,0.3c0.1,0.1,0.3,0.1,0.4,0.1c0.1,0,0.3,0,0.4-0.1c0.1-0.1,0.2-0.2,0.3-0.3c0.1-0.1,0.1-0.3,0.1-0.5
							S91,245.4,90.9,245.2z"/>
						<path class="st10" d="M95.2,244.3c0.2-0.1,0.4-0.1,0.6-0.1c0.3,0,0.5,0.1,0.7,0.2c0.2,0.1,0.4,0.3,0.5,0.5
							c0.1,0.2,0.2,0.5,0.2,0.8s-0.1,0.6-0.2,0.8c-0.1,0.2-0.3,0.4-0.5,0.6c-0.2,0.1-0.4,0.2-0.7,0.2c-0.2,0-0.4,0-0.6-0.1
							c-0.2-0.1-0.3-0.2-0.4-0.3v0.4H94v-4.1h0.8v1.5C94.9,244.5,95,244.4,95.2,244.3z M96.3,245.2c-0.1-0.1-0.2-0.2-0.3-0.3
							c-0.1-0.1-0.3-0.1-0.4-0.1c-0.1,0-0.3,0-0.4,0.1c-0.1,0.1-0.2,0.2-0.3,0.3c-0.1,0.1-0.1,0.3-0.1,0.5s0,0.3,0.1,0.5
							c0.1,0.1,0.2,0.2,0.3,0.3c0.1,0.1,0.3,0.1,0.4,0.1c0.1,0,0.3,0,0.4-0.1c0.1-0.1,0.2-0.2,0.3-0.3c0.1-0.1,0.1-0.3,0.1-0.5
							C96.4,245.5,96.3,245.4,96.3,245.2z"/>
						<path class="st10" d="M98.3,247.1c-0.2-0.1-0.4-0.3-0.6-0.6c-0.1-0.2-0.2-0.5-0.2-0.8s0.1-0.6,0.2-0.8
							c0.1-0.2,0.3-0.4,0.6-0.6c0.2-0.1,0.5-0.2,0.8-0.2c0.3,0,0.6,0.1,0.8,0.2s0.4,0.3,0.6,0.6c0.1,0.2,0.2,0.5,0.2,0.8
							s-0.1,0.6-0.2,0.8c-0.1,0.2-0.3,0.4-0.6,0.6c-0.2,0.1-0.5,0.2-0.8,0.2C98.8,247.3,98.5,247.2,98.3,247.1z M99.5,246.5
							c0.1-0.1,0.2-0.2,0.3-0.3c0.1-0.1,0.1-0.3,0.1-0.5s0-0.4-0.1-0.5c-0.1-0.1-0.2-0.2-0.3-0.3c-0.1-0.1-0.2-0.1-0.4-0.1
							c-0.2,0-0.4,0.1-0.5,0.2c-0.2,0.2-0.2,0.4-0.2,0.7c0,0.3,0.1,0.5,0.2,0.7c0.1,0.2,0.3,0.2,0.5,0.2
							C99.2,246.6,99.3,246.6,99.5,246.5z"/>
						<path class="st10" d="M101.8,247.1c-0.2-0.1-0.4-0.3-0.6-0.6c-0.1-0.2-0.2-0.5-0.2-0.8s0.1-0.6,0.2-0.8
							c0.1-0.2,0.3-0.4,0.6-0.6c0.2-0.1,0.5-0.2,0.8-0.2c0.3,0,0.6,0.1,0.8,0.2c0.2,0.1,0.4,0.3,0.6,0.6c0.1,0.2,0.2,0.5,0.2,0.8
							s-0.1,0.6-0.2,0.8c-0.1,0.2-0.3,0.4-0.6,0.6c-0.2,0.1-0.5,0.2-0.8,0.2C102.3,247.3,102,247.2,101.8,247.1z M103,246.5
							c0.1-0.1,0.2-0.2,0.3-0.3c0.1-0.1,0.1-0.3,0.1-0.5s0-0.4-0.1-0.5c-0.1-0.1-0.2-0.2-0.3-0.3c-0.1-0.1-0.2-0.1-0.4-0.1
							c-0.2,0-0.4,0.1-0.5,0.2c-0.2,0.2-0.2,0.4-0.2,0.7c0,0.3,0.1,0.5,0.2,0.7c0.1,0.2,0.3,0.2,0.5,0.2
							C102.7,246.6,102.8,246.6,103,246.5z"/>
						<path class="st10" d="M106.5,247.2l-1-1.3v1.3h-0.8v-4.1h0.8v2.3l1-1.3h1l-1.3,1.5l1.4,1.5H106.5z"/>
						<path class="st10" d="M109.4,244.9c0.1-0.2,0.3-0.4,0.5-0.5c0.2-0.1,0.4-0.2,0.7-0.2c0.2,0,0.4,0,0.6,0.1
							c0.2,0.1,0.3,0.2,0.4,0.3v-0.4h0.8v3h-0.8v-0.4c-0.1,0.1-0.2,0.3-0.4,0.4c-0.2,0.1-0.4,0.1-0.6,0.1c-0.3,0-0.5-0.1-0.7-0.2
							c-0.2-0.1-0.4-0.3-0.5-0.6c-0.1-0.2-0.2-0.5-0.2-0.8C109.2,245.4,109.3,245.1,109.4,244.9z M111.5,245.2
							c-0.1-0.1-0.2-0.2-0.3-0.3c-0.1-0.1-0.3-0.1-0.4-0.1c-0.1,0-0.3,0-0.4,0.1c-0.1,0.1-0.2,0.2-0.3,0.3c-0.1,0.1-0.1,0.3-0.1,0.5
							s0,0.3,0.1,0.5c0.1,0.1,0.2,0.2,0.3,0.3c0.1,0.1,0.3,0.1,0.4,0.1c0.1,0,0.3,0,0.4-0.1s0.2-0.2,0.3-0.3
							c0.1-0.1,0.1-0.3,0.1-0.5S111.6,245.4,111.5,245.2z"/>
						<path class="st10" d="M114.6,244.9c0.1-0.2,0.3-0.4,0.5-0.5c0.2-0.1,0.4-0.2,0.7-0.2c0.2,0,0.4,0,0.6,0.1
							c0.2,0.1,0.3,0.2,0.4,0.3v-1.4h0.8v4.1h-0.8v-0.5c-0.1,0.2-0.2,0.3-0.4,0.4c-0.2,0.1-0.4,0.1-0.6,0.1c-0.3,0-0.5-0.1-0.7-0.2
							c-0.2-0.1-0.4-0.3-0.5-0.6c-0.1-0.2-0.2-0.5-0.2-0.8C114.4,245.4,114.5,245.1,114.6,244.9z M116.7,245.2
							c-0.1-0.1-0.2-0.2-0.3-0.3c-0.1-0.1-0.3-0.1-0.4-0.1s-0.3,0-0.4,0.1c-0.1,0.1-0.2,0.2-0.3,0.3c-0.1,0.1-0.1,0.3-0.1,0.5
							s0,0.3,0.1,0.5c0.1,0.1,0.2,0.2,0.3,0.3c0.1,0.1,0.3,0.1,0.4,0.1c0.1,0,0.3,0,0.4-0.1c0.1-0.1,0.2-0.2,0.3-0.3
							c0.1-0.1,0.1-0.3,0.1-0.5S116.7,245.4,116.7,245.2z"/>
						<path class="st10" d="M121.1,245.9h-2.2c0,0.2,0.1,0.4,0.2,0.5c0.1,0.1,0.3,0.2,0.5,0.2c0.3,0,0.5-0.1,0.6-0.4h0.8
							c-0.1,0.3-0.3,0.5-0.5,0.7c-0.2,0.2-0.6,0.3-0.9,0.3c-0.3,0-0.6-0.1-0.8-0.2c-0.2-0.1-0.4-0.3-0.5-0.6
							c-0.1-0.2-0.2-0.5-0.2-0.8c0-0.3,0.1-0.6,0.2-0.8c0.1-0.2,0.3-0.4,0.5-0.5c0.2-0.1,0.5-0.2,0.8-0.2c0.3,0,0.5,0.1,0.8,0.2
							s0.4,0.3,0.5,0.5c0.1,0.2,0.2,0.5,0.2,0.8C121.1,245.8,121.1,245.8,121.1,245.9z M120.3,245.5c0-0.2-0.1-0.4-0.2-0.5
							c-0.1-0.1-0.3-0.2-0.5-0.2c-0.2,0-0.4,0.1-0.5,0.2c-0.1,0.1-0.2,0.3-0.2,0.5H120.3z"/>
						<path class="st10" d="M126.4,244.5c0.2,0.2,0.3,0.5,0.3,1v1.8H126v-1.7c0-0.2-0.1-0.4-0.2-0.5c-0.1-0.1-0.3-0.2-0.5-0.2
							c-0.2,0-0.4,0.1-0.5,0.2c-0.1,0.1-0.2,0.3-0.2,0.5v1.7h-0.8v-1.7c0-0.2-0.1-0.4-0.2-0.5c-0.1-0.1-0.3-0.2-0.5-0.2
							c-0.2,0-0.4,0.1-0.5,0.2c-0.1,0.1-0.2,0.3-0.2,0.5v1.7h-0.8v-3h0.8v0.4c0.1-0.1,0.2-0.2,0.4-0.3c0.2-0.1,0.3-0.1,0.5-0.1
							c0.2,0,0.5,0.1,0.6,0.2s0.3,0.2,0.4,0.4c0.1-0.2,0.2-0.3,0.4-0.4s0.4-0.2,0.6-0.2C125.8,244.2,126.1,244.3,126.4,244.5z"/>
						<path class="st10" d="M128,247.1c-0.2-0.1-0.4-0.3-0.6-0.6c-0.1-0.2-0.2-0.5-0.2-0.8s0.1-0.6,0.2-0.8c0.1-0.2,0.3-0.4,0.6-0.6
							c0.2-0.1,0.5-0.2,0.8-0.2c0.3,0,0.6,0.1,0.8,0.2c0.2,0.1,0.4,0.3,0.6,0.6c0.1,0.2,0.2,0.5,0.2,0.8s-0.1,0.6-0.2,0.8
							c-0.1,0.2-0.3,0.4-0.6,0.6c-0.2,0.1-0.5,0.2-0.8,0.2C128.5,247.3,128.2,247.2,128,247.1z M129.2,246.5
							c0.1-0.1,0.2-0.2,0.3-0.3c0.1-0.1,0.1-0.3,0.1-0.5s0-0.4-0.1-0.5c-0.1-0.1-0.2-0.2-0.3-0.3c-0.1-0.1-0.2-0.1-0.4-0.1
							c-0.2,0-0.4,0.1-0.5,0.2c-0.2,0.2-0.2,0.4-0.2,0.7c0,0.3,0.1,0.5,0.2,0.7c0.1,0.2,0.3,0.2,0.5,0.2
							C128.9,246.6,129.1,246.6,129.2,246.5z"/>
					</g>
				</g>
				<g>
					<path class="st9" d="M151.3,271.8H51c-4.2,0-7.6-3.4-7.6-7.6v-0.2c0-4.2,3.4-7.6,7.6-7.6h100.3c4.2,0,7.6,3.4,7.6,7.6v0.2
						C158.9,268.4,155.5,271.8,151.3,271.8z"/>
					<g>
						<path class="st10" d="M72.6,261.9l-1.1,3.8h-0.9L70,263l-0.8,2.7l-0.9,0l-1-3.8h0.8l0.7,3l0.8-3h0.9l0.7,3l0.7-3H72.6z"/>
						<path class="st10" d="M75.5,262.8c0.2,0.1,0.3,0.2,0.4,0.4c0.1,0.2,0.2,0.4,0.2,0.7v1.8h-0.8V264c0-0.2-0.1-0.4-0.2-0.6
							c-0.1-0.1-0.3-0.2-0.5-0.2c-0.2,0-0.4,0.1-0.5,0.2c-0.1,0.1-0.2,0.3-0.2,0.6v1.7h-0.8v-4.1h0.8v1.4c0.1-0.1,0.2-0.2,0.4-0.3
							c0.2-0.1,0.3-0.1,0.5-0.1C75.1,262.6,75.3,262.7,75.5,262.8z"/>
						<path class="st10" d="M76.8,263.4c0.1-0.2,0.3-0.4,0.5-0.5c0.2-0.1,0.4-0.2,0.7-0.2c0.2,0,0.4,0,0.6,0.1
							c0.2,0.1,0.3,0.2,0.4,0.3v-0.4h0.8v3H79v-0.4c-0.1,0.1-0.2,0.3-0.4,0.4c-0.2,0.1-0.4,0.1-0.6,0.1c-0.3,0-0.5-0.1-0.7-0.2
							c-0.2-0.1-0.4-0.3-0.5-0.6c-0.1-0.2-0.2-0.5-0.2-0.8C76.6,263.9,76.6,263.6,76.8,263.4z M78.9,263.7c-0.1-0.1-0.2-0.2-0.3-0.3
							c-0.1-0.1-0.3-0.1-0.4-0.1c-0.1,0-0.3,0-0.4,0.1c-0.1,0.1-0.2,0.2-0.3,0.3c-0.1,0.1-0.1,0.3-0.1,0.5c0,0.2,0,0.3,0.1,0.5
							c0.1,0.1,0.2,0.2,0.3,0.3c0.1,0.1,0.3,0.1,0.4,0.1c0.1,0,0.3,0,0.4-0.1c0.1-0.1,0.2-0.2,0.3-0.3c0.1-0.1,0.1-0.3,0.1-0.5
							C79,264,78.9,263.8,78.9,263.7z"/>
						<path class="st10" d="M81.4,263.3v1.5c0,0.1,0,0.2,0.1,0.2c0,0,0.1,0.1,0.3,0.1h0.4v0.6h-0.5c-0.6,0-1-0.3-1-0.9v-1.5h-0.4
							v-0.6h0.4v-0.8h0.8v0.8h0.7v0.6H81.4z"/>
						<path class="st10" d="M82.8,261.9h0.8l-0.6,1.4h-0.5L82.8,261.9z"/>
						<path class="st10" d="M84.6,265.6c-0.2-0.1-0.4-0.2-0.5-0.4c-0.1-0.2-0.2-0.3-0.2-0.5h0.8c0,0.1,0.1,0.2,0.2,0.3
							c0.1,0.1,0.2,0.1,0.4,0.1c0.1,0,0.3,0,0.3-0.1c0.1-0.1,0.1-0.1,0.1-0.2c0-0.1-0.1-0.2-0.2-0.2c-0.1-0.1-0.3-0.1-0.5-0.2
							c-0.2-0.1-0.4-0.1-0.5-0.2c-0.1-0.1-0.3-0.1-0.4-0.3c-0.1-0.1-0.2-0.3-0.2-0.5c0-0.2,0-0.3,0.1-0.5c0.1-0.1,0.2-0.3,0.4-0.3
							c0.2-0.1,0.4-0.1,0.6-0.1c0.4,0,0.7,0.1,0.9,0.3s0.3,0.4,0.4,0.7h-0.7c0-0.1-0.1-0.2-0.2-0.3s-0.2-0.1-0.4-0.1
							c-0.1,0-0.2,0-0.3,0.1c-0.1,0.1-0.1,0.1-0.1,0.2c0,0.1,0.1,0.2,0.2,0.2c0.1,0.1,0.3,0.1,0.5,0.2c0.2,0.1,0.4,0.1,0.5,0.2
							c0.1,0.1,0.3,0.1,0.4,0.3c0.1,0.1,0.2,0.3,0.2,0.5c0,0.2,0,0.3-0.1,0.5c-0.1,0.1-0.2,0.3-0.4,0.3c-0.2,0.1-0.4,0.1-0.6,0.1
							C85,265.8,84.8,265.7,84.6,265.6z"/>
						<path class="st10" d="M89.5,263.3v1.5c0,0.1,0,0.2,0.1,0.2c0,0,0.1,0.1,0.2,0.1h0.4v0.6h-0.5c-0.6,0-1-0.3-1-0.9v-1.5h-0.4
							v-0.6h0.4v-0.8h0.8v0.8h0.7v0.6H89.5z"/>
						<path class="st10" d="M93.1,262.8c0.2,0.1,0.3,0.2,0.4,0.4c0.1,0.2,0.2,0.4,0.2,0.7v1.8h-0.8V264c0-0.2-0.1-0.4-0.2-0.6
							c-0.1-0.1-0.3-0.2-0.5-0.2c-0.2,0-0.4,0.1-0.5,0.2c-0.1,0.1-0.2,0.3-0.2,0.6v1.7h-0.8v-4.1h0.8v1.4c0.1-0.1,0.2-0.2,0.4-0.3
							c0.2-0.1,0.3-0.1,0.5-0.1C92.7,262.6,92.9,262.7,93.1,262.8z"/>
						<path class="st10" d="M97.2,264.4h-2.2c0,0.2,0.1,0.4,0.2,0.5c0.1,0.1,0.3,0.2,0.5,0.2c0.3,0,0.5-0.1,0.6-0.4h0.8
							c-0.1,0.3-0.3,0.5-0.5,0.7c-0.2,0.2-0.6,0.3-0.9,0.3c-0.3,0-0.6-0.1-0.8-0.2c-0.2-0.1-0.4-0.3-0.5-0.6
							c-0.1-0.2-0.2-0.5-0.2-0.8c0-0.3,0.1-0.6,0.2-0.8c0.1-0.2,0.3-0.4,0.5-0.5c0.2-0.1,0.5-0.2,0.8-0.2c0.3,0,0.5,0.1,0.8,0.2
							c0.2,0.1,0.4,0.3,0.5,0.5c0.1,0.2,0.2,0.5,0.2,0.8C97.2,264.2,97.2,264.3,97.2,264.4z M96.4,263.9c0-0.2-0.1-0.4-0.2-0.5
							c-0.1-0.1-0.3-0.2-0.5-0.2c-0.2,0-0.4,0.1-0.5,0.2c-0.1,0.1-0.2,0.3-0.2,0.5H96.4z"/>
						<path class="st10" d="M100.4,262.8c0.2-0.1,0.4-0.1,0.6-0.1c0.3,0,0.5,0.1,0.7,0.2c0.2,0.1,0.4,0.3,0.5,0.5
							c0.1,0.2,0.2,0.5,0.2,0.8c0,0.3-0.1,0.6-0.2,0.8c-0.1,0.2-0.3,0.4-0.5,0.6c-0.2,0.1-0.4,0.2-0.7,0.2c-0.2,0-0.4,0-0.6-0.1
							c-0.2-0.1-0.3-0.2-0.4-0.3v1.9h-0.8v-4.5h0.8v0.4C100.1,263,100.2,262.8,100.4,262.8z M101.5,263.7c-0.1-0.1-0.2-0.2-0.3-0.3
							c-0.1-0.1-0.3-0.1-0.4-0.1c-0.1,0-0.3,0-0.4,0.1c-0.1,0.1-0.2,0.2-0.3,0.3c-0.1,0.1-0.1,0.3-0.1,0.5s0,0.3,0.1,0.5
							c0.1,0.1,0.2,0.2,0.3,0.3c0.1,0.1,0.3,0.1,0.4,0.1c0.1,0,0.3,0,0.4-0.1c0.1-0.1,0.2-0.2,0.3-0.3c0.1-0.1,0.1-0.3,0.1-0.5
							C101.6,264,101.6,263.8,101.5,263.7z"/>
						<path class="st10" d="M104.1,262.8c0.2-0.1,0.3-0.2,0.5-0.2v0.8h-0.2c-0.2,0-0.4,0.1-0.5,0.2c-0.1,0.1-0.2,0.3-0.2,0.6v1.5
							h-0.8v-3h0.8v0.5C103.8,263,103.9,262.9,104.1,262.8z"/>
						<path class="st10" d="M105.2,262.2c-0.1-0.1-0.1-0.2-0.1-0.3s0-0.2,0.1-0.3c0.1-0.1,0.2-0.1,0.3-0.1c0.1,0,0.2,0,0.3,0.1
							c0.1,0.1,0.1,0.2,0.1,0.3s0,0.2-0.1,0.3c-0.1,0.1-0.2,0.1-0.3,0.1C105.4,262.3,105.3,262.3,105.2,262.2z M105.9,262.7v3h-0.8
							v-3H105.9z"/>
						<path class="st10" d="M106.7,263.4c0.1-0.2,0.3-0.4,0.5-0.5c0.2-0.1,0.5-0.2,0.8-0.2c0.4,0,0.7,0.1,0.9,0.3
							c0.2,0.2,0.4,0.5,0.5,0.8h-0.8c0-0.1-0.1-0.2-0.2-0.3c-0.1-0.1-0.2-0.1-0.4-0.1c-0.2,0-0.4,0.1-0.5,0.2
							c-0.1,0.2-0.2,0.4-0.2,0.7c0,0.3,0.1,0.5,0.2,0.7c0.1,0.2,0.3,0.2,0.5,0.2c0.3,0,0.5-0.1,0.6-0.4h0.8
							c-0.1,0.3-0.3,0.6-0.5,0.8c-0.2,0.2-0.6,0.3-0.9,0.3c-0.3,0-0.6-0.1-0.8-0.2c-0.2-0.1-0.4-0.3-0.5-0.5
							c-0.1-0.2-0.2-0.5-0.2-0.8C106.5,263.9,106.6,263.6,106.7,263.4z"/>
						<path class="st10" d="M112.8,264.4h-2.2c0,0.2,0.1,0.4,0.2,0.5c0.1,0.1,0.3,0.2,0.5,0.2c0.3,0,0.5-0.1,0.6-0.4h0.8
							c-0.1,0.3-0.3,0.5-0.5,0.7c-0.2,0.2-0.6,0.3-0.9,0.3c-0.3,0-0.6-0.1-0.8-0.2c-0.2-0.1-0.4-0.3-0.5-0.6
							c-0.1-0.2-0.2-0.5-0.2-0.8c0-0.3,0.1-0.6,0.2-0.8c0.1-0.2,0.3-0.4,0.5-0.5s0.5-0.2,0.8-0.2c0.3,0,0.5,0.1,0.8,0.2
							c0.2,0.1,0.4,0.3,0.5,0.5s0.2,0.5,0.2,0.8C112.8,264.2,112.8,264.3,112.8,264.4z M112,263.9c0-0.2-0.1-0.4-0.2-0.5
							c-0.1-0.1-0.3-0.2-0.5-0.2c-0.2,0-0.4,0.1-0.5,0.2c-0.1,0.1-0.2,0.3-0.2,0.5H112z"/>
						<path class="st10" d="M115.7,263.3v1.5c0,0.1,0,0.2,0.1,0.2c0,0,0.1,0.1,0.2,0.1h0.4v0.6h-0.5c-0.6,0-1-0.3-1-0.9v-1.5h-0.4
							v-0.6h0.4v-0.8h0.8v0.8h0.7v0.6H115.7z"/>
						<path class="st10" d="M117.5,265.6c-0.2-0.1-0.4-0.3-0.6-0.6c-0.1-0.2-0.2-0.5-0.2-0.8c0-0.3,0.1-0.6,0.2-0.8
							c0.1-0.2,0.3-0.4,0.6-0.6s0.5-0.2,0.8-0.2c0.3,0,0.6,0.1,0.8,0.2c0.2,0.1,0.4,0.3,0.6,0.6c0.1,0.2,0.2,0.5,0.2,0.8
							c0,0.3-0.1,0.6-0.2,0.8c-0.1,0.2-0.3,0.4-0.6,0.6c-0.2,0.1-0.5,0.2-0.8,0.2C118,265.8,117.8,265.7,117.5,265.6z M118.7,265
							c0.1-0.1,0.2-0.2,0.3-0.3c0.1-0.1,0.1-0.3,0.1-0.5s0-0.4-0.1-0.5s-0.2-0.2-0.3-0.3c-0.1-0.1-0.2-0.1-0.4-0.1
							c-0.2,0-0.4,0.1-0.5,0.2c-0.2,0.2-0.2,0.4-0.2,0.7c0,0.3,0.1,0.5,0.2,0.7s0.3,0.2,0.5,0.2C118.5,265.1,118.6,265.1,118.7,265z
							"/>
						<path class="st10" d="M123.1,262.8c0.2-0.1,0.4-0.1,0.6-0.1c0.3,0,0.5,0.1,0.7,0.2c0.2,0.1,0.4,0.3,0.5,0.5
							c0.1,0.2,0.2,0.5,0.2,0.8c0,0.3-0.1,0.6-0.2,0.8c-0.1,0.2-0.3,0.4-0.5,0.6c-0.2,0.1-0.4,0.2-0.7,0.2c-0.2,0-0.4,0-0.6-0.1
							c-0.2-0.1-0.3-0.2-0.4-0.3v1.9H122v-4.5h0.8v0.4C122.8,263,123,262.8,123.1,262.8z M124.2,263.7c-0.1-0.1-0.2-0.2-0.3-0.3
							c-0.1-0.1-0.3-0.1-0.4-0.1c-0.1,0-0.3,0-0.4,0.1c-0.1,0.1-0.2,0.2-0.3,0.3c-0.1,0.1-0.1,0.3-0.1,0.5s0,0.3,0.1,0.5
							c0.1,0.1,0.2,0.2,0.3,0.3c0.1,0.1,0.3,0.1,0.4,0.1c0.1,0,0.3,0,0.4-0.1c0.1-0.1,0.2-0.2,0.3-0.3c0.1-0.1,0.1-0.3,0.1-0.5
							C124.3,264,124.3,263.8,124.2,263.7z"/>
						<path class="st10" d="M125.7,263.4c0.1-0.2,0.3-0.4,0.5-0.5c0.2-0.1,0.4-0.2,0.7-0.2c0.2,0,0.4,0,0.6,0.1
							c0.2,0.1,0.3,0.2,0.4,0.3v-0.4h0.8v3h-0.8v-0.4c-0.1,0.1-0.2,0.3-0.4,0.4c-0.2,0.1-0.4,0.1-0.6,0.1c-0.3,0-0.5-0.1-0.7-0.2
							c-0.2-0.1-0.4-0.3-0.5-0.6c-0.1-0.2-0.2-0.5-0.2-0.8C125.5,263.9,125.5,263.6,125.7,263.4z M127.8,263.7
							c-0.1-0.1-0.2-0.2-0.3-0.3c-0.1-0.1-0.3-0.1-0.4-0.1s-0.3,0-0.4,0.1c-0.1,0.1-0.2,0.2-0.3,0.3c-0.1,0.1-0.1,0.3-0.1,0.5
							c0,0.2,0,0.3,0.1,0.5c0.1,0.1,0.2,0.2,0.3,0.3c0.1,0.1,0.3,0.1,0.4,0.1c0.1,0,0.3,0,0.4-0.1c0.1-0.1,0.2-0.2,0.3-0.3
							c0.1-0.1,0.1-0.3,0.1-0.5C127.9,264,127.8,263.8,127.8,263.7z"/>
						<path class="st10" d="M129.9,262.7l0.8,2.1l0.8-2.1h0.8l-1.9,4.5h-0.8l0.7-1.5l-1.2-3H129.9z"/>
						<path class="st10" d="M134.7,262.1c0.2,0.2,0.3,0.5,0.3,0.9c0,0.4-0.1,0.6-0.3,0.8s-0.5,0.3-0.9,0.3l0,0.4h-0.7l0-0.9h0.2
							c0.3,0,0.6,0,0.7-0.1c0.2-0.1,0.3-0.2,0.3-0.5c0-0.2,0-0.3-0.1-0.4c-0.1-0.1-0.2-0.1-0.4-0.1c-0.2,0-0.3,0-0.4,0.1
							c-0.1,0.1-0.1,0.2-0.1,0.4h-0.7c0-0.2,0-0.4,0.1-0.6c0.1-0.2,0.2-0.3,0.4-0.4s0.4-0.1,0.7-0.1
							C134.2,261.7,134.5,261.8,134.7,262.1z M133.1,265.6c-0.1-0.1-0.1-0.2-0.1-0.3c0-0.1,0-0.2,0.1-0.3c0.1-0.1,0.2-0.1,0.3-0.1
							c0.1,0,0.2,0,0.3,0.1s0.1,0.2,0.1,0.3c0,0.1,0,0.2-0.1,0.3c-0.1,0.1-0.2,0.1-0.3,0.1C133.3,265.7,133.2,265.7,133.1,265.6z"/>
					</g>
				</g>
				<g>
					<path class="st9" d="M151.3,290.5H51c-4.2,0-7.6-3.4-7.6-7.6v-0.2c0-4.2,3.4-7.6,7.6-7.6h100.3c4.2,0,7.6,3.4,7.6,7.6v0.2
						C158.9,287.1,155.5,290.5,151.3,290.5z"/>
					<g>
						<path class="st10" d="M58.3,284h1.3v0.6h-2v-3.8h0.8V284z"/>
						<path class="st10" d="M62.9,283.2h-2.2c0,0.2,0.1,0.4,0.2,0.5c0.1,0.1,0.3,0.2,0.5,0.2c0.3,0,0.5-0.1,0.6-0.4h0.8
							c-0.1,0.3-0.3,0.5-0.5,0.7c-0.2,0.2-0.6,0.3-0.9,0.3c-0.3,0-0.6-0.1-0.8-0.2c-0.2-0.1-0.4-0.3-0.5-0.6
							c-0.1-0.2-0.2-0.5-0.2-0.8c0-0.3,0.1-0.6,0.2-0.8c0.1-0.2,0.3-0.4,0.5-0.5s0.5-0.2,0.8-0.2c0.3,0,0.5,0.1,0.8,0.2
							c0.2,0.1,0.4,0.3,0.5,0.5c0.1,0.2,0.2,0.5,0.2,0.8C62.9,283.1,62.9,283.2,62.9,283.2z M62.1,282.8c0-0.2-0.1-0.4-0.2-0.5
							c-0.1-0.1-0.3-0.2-0.5-0.2c-0.2,0-0.4,0.1-0.5,0.2c-0.1,0.1-0.2,0.3-0.2,0.5H62.1z"/>
						<path class="st10" d="M63.4,282.2c0.1-0.2,0.3-0.4,0.5-0.5s0.4-0.2,0.7-0.2c0.2,0,0.4,0,0.6,0.1c0.2,0.1,0.3,0.2,0.4,0.3v-0.4
							h0.8v3h-0.8v-0.4c-0.1,0.1-0.2,0.3-0.4,0.4c-0.2,0.1-0.4,0.1-0.6,0.1c-0.3,0-0.5-0.1-0.7-0.2c-0.2-0.1-0.4-0.3-0.5-0.6
							c-0.1-0.2-0.2-0.5-0.2-0.8C63.2,282.7,63.3,282.4,63.4,282.2z M65.5,282.5c-0.1-0.1-0.2-0.2-0.3-0.3c-0.1-0.1-0.3-0.1-0.4-0.1
							c-0.1,0-0.3,0-0.4,0.1c-0.1,0.1-0.2,0.2-0.3,0.3c-0.1,0.1-0.1,0.3-0.1,0.5c0,0.2,0,0.3,0.1,0.5c0.1,0.1,0.2,0.2,0.3,0.3
							c0.1,0.1,0.3,0.1,0.4,0.1c0.1,0,0.3,0,0.4-0.1c0.1-0.1,0.2-0.2,0.3-0.3c0.1-0.1,0.1-0.3,0.1-0.5
							C65.6,282.8,65.6,282.7,65.5,282.5z"/>
						<path class="st10" d="M68.3,281.6c0.2-0.1,0.3-0.2,0.5-0.2v0.8h-0.2c-0.2,0-0.4,0.1-0.5,0.2c-0.1,0.1-0.2,0.3-0.2,0.6v1.5
							h-0.8v-3h0.8v0.5C68,281.9,68.2,281.7,68.3,281.6z"/>
						<path class="st10" d="M71.9,281.8c0.2,0.2,0.3,0.5,0.3,1v1.8h-0.8v-1.7c0-0.2-0.1-0.4-0.2-0.6c-0.1-0.1-0.3-0.2-0.5-0.2
							c-0.2,0-0.4,0.1-0.5,0.2c-0.1,0.1-0.2,0.3-0.2,0.6v1.7h-0.8v-3h0.8v0.4c0.1-0.1,0.2-0.2,0.4-0.3c0.2-0.1,0.3-0.1,0.5-0.1
							C71.4,281.5,71.7,281.6,71.9,281.8z"/>
						<path class="st10" d="M79.2,281.8c0.2,0.2,0.3,0.5,0.3,1v1.8h-0.8v-1.7c0-0.2-0.1-0.4-0.2-0.5c-0.1-0.1-0.3-0.2-0.5-0.2
							c-0.2,0-0.4,0.1-0.5,0.2c-0.1,0.1-0.2,0.3-0.2,0.5v1.7h-0.8v-1.7c0-0.2-0.1-0.4-0.2-0.5c-0.1-0.1-0.3-0.2-0.5-0.2
							c-0.2,0-0.4,0.1-0.5,0.2c-0.1,0.1-0.2,0.3-0.2,0.5v1.7h-0.8v-3h0.8v0.4c0.1-0.1,0.2-0.2,0.4-0.3c0.2-0.1,0.3-0.1,0.5-0.1
							c0.2,0,0.5,0.1,0.6,0.2c0.2,0.1,0.3,0.2,0.4,0.4c0.1-0.2,0.2-0.3,0.4-0.4c0.2-0.1,0.4-0.2,0.6-0.2
							C78.6,281.5,78.9,281.6,79.2,281.8z"/>
						<path class="st10" d="M80.8,284.4c-0.2-0.1-0.4-0.3-0.6-0.6c-0.1-0.2-0.2-0.5-0.2-0.8c0-0.3,0.1-0.6,0.2-0.8
							c0.1-0.2,0.3-0.4,0.6-0.6c0.2-0.1,0.5-0.2,0.8-0.2c0.3,0,0.6,0.1,0.8,0.2c0.2,0.1,0.4,0.3,0.6,0.6c0.1,0.2,0.2,0.5,0.2,0.8
							c0,0.3-0.1,0.6-0.2,0.8c-0.1,0.2-0.3,0.4-0.6,0.6c-0.2,0.1-0.5,0.2-0.8,0.2C81.3,284.6,81,284.5,80.8,284.4z M82,283.8
							c0.1-0.1,0.2-0.2,0.3-0.3c0.1-0.1,0.1-0.3,0.1-0.5s0-0.4-0.1-0.5c-0.1-0.1-0.2-0.2-0.3-0.3c-0.1-0.1-0.2-0.1-0.4-0.1
							c-0.2,0-0.4,0.1-0.5,0.2c-0.2,0.2-0.2,0.4-0.2,0.7c0,0.3,0.1,0.5,0.2,0.7s0.3,0.2,0.5,0.2C81.7,283.9,81.8,283.9,82,283.8z"/>
						<path class="st10" d="M84.9,281.6c0.2-0.1,0.3-0.2,0.5-0.2v0.8h-0.2c-0.2,0-0.4,0.1-0.5,0.2c-0.1,0.1-0.2,0.3-0.2,0.6v1.5
							h-0.8v-3h0.8v0.5C84.6,281.9,84.7,281.7,84.9,281.6z"/>
						<path class="st10" d="M88.8,283.2h-2.2c0,0.2,0.1,0.4,0.2,0.5c0.1,0.1,0.3,0.2,0.5,0.2c0.3,0,0.5-0.1,0.6-0.4h0.8
							c-0.1,0.3-0.3,0.5-0.5,0.7c-0.2,0.2-0.6,0.3-0.9,0.3c-0.3,0-0.6-0.1-0.8-0.2c-0.2-0.1-0.4-0.3-0.5-0.6
							c-0.1-0.2-0.2-0.5-0.2-0.8c0-0.3,0.1-0.6,0.2-0.8c0.1-0.2,0.3-0.4,0.5-0.5s0.5-0.2,0.8-0.2c0.3,0,0.5,0.1,0.8,0.2
							c0.2,0.1,0.4,0.3,0.5,0.5s0.2,0.5,0.2,0.8C88.8,283.1,88.8,283.2,88.8,283.2z M88,282.8c0-0.2-0.1-0.4-0.2-0.5
							c-0.1-0.1-0.3-0.2-0.5-0.2c-0.2,0-0.4,0.1-0.5,0.2c-0.1,0.1-0.2,0.3-0.2,0.5H88z"/>
						<path class="st10" d="M90.8,282.2c0.1-0.2,0.3-0.4,0.5-0.5c0.2-0.1,0.4-0.2,0.7-0.2c0.2,0,0.4,0,0.6,0.1
							c0.2,0.1,0.3,0.2,0.4,0.3v-0.4h0.8v3H93v-0.4c-0.1,0.1-0.2,0.3-0.4,0.4c-0.2,0.1-0.4,0.1-0.6,0.1c-0.3,0-0.5-0.1-0.7-0.2
							c-0.2-0.1-0.4-0.3-0.5-0.6c-0.1-0.2-0.2-0.5-0.2-0.8C90.6,282.7,90.7,282.4,90.8,282.2z M92.9,282.5c-0.1-0.1-0.2-0.2-0.3-0.3
							c-0.1-0.1-0.3-0.1-0.4-0.1c-0.1,0-0.3,0-0.4,0.1c-0.1,0.1-0.2,0.2-0.3,0.3c-0.1,0.1-0.1,0.3-0.1,0.5c0,0.2,0,0.3,0.1,0.5
							c0.1,0.1,0.2,0.2,0.3,0.3c0.1,0.1,0.3,0.1,0.4,0.1c0.1,0,0.3,0,0.4-0.1c0.1-0.1,0.2-0.2,0.3-0.3c0.1-0.1,0.1-0.3,0.1-0.5
							C93,282.8,93,282.7,92.9,282.5z"/>
						<path class="st10" d="M95.7,281.6c0.2-0.1,0.4-0.1,0.6-0.1c0.3,0,0.5,0.1,0.7,0.2c0.2,0.1,0.4,0.3,0.5,0.5
							c0.1,0.2,0.2,0.5,0.2,0.8c0,0.3-0.1,0.6-0.2,0.8c-0.1,0.2-0.3,0.4-0.5,0.6c-0.2,0.1-0.4,0.2-0.7,0.2c-0.2,0-0.4,0-0.6-0.1
							c-0.2-0.1-0.3-0.2-0.4-0.3v0.4h-0.8v-4.1h0.8v1.5C95.4,281.8,95.5,281.7,95.7,281.6z M96.8,282.5c-0.1-0.1-0.2-0.2-0.3-0.3
							c-0.1-0.1-0.3-0.1-0.4-0.1c-0.1,0-0.3,0-0.4,0.1c-0.1,0.1-0.2,0.2-0.3,0.3c-0.1,0.1-0.1,0.3-0.1,0.5c0,0.2,0,0.3,0.1,0.5
							c0.1,0.1,0.2,0.2,0.3,0.3c0.1,0.1,0.3,0.1,0.4,0.1c0.1,0,0.3,0,0.4-0.1c0.1-0.1,0.2-0.2,0.3-0.3c0.1-0.1,0.1-0.3,0.1-0.5
							C96.9,282.8,96.9,282.7,96.8,282.5z"/>
						<path class="st10" d="M98.8,284.4c-0.2-0.1-0.4-0.3-0.6-0.6c-0.1-0.2-0.2-0.5-0.2-0.8c0-0.3,0.1-0.6,0.2-0.8
							c0.1-0.2,0.3-0.4,0.6-0.6c0.2-0.1,0.5-0.2,0.8-0.2c0.3,0,0.6,0.1,0.8,0.2c0.2,0.1,0.4,0.3,0.6,0.6c0.1,0.2,0.2,0.5,0.2,0.8
							c0,0.3-0.1,0.6-0.2,0.8c-0.1,0.2-0.3,0.4-0.6,0.6c-0.2,0.1-0.5,0.2-0.8,0.2C99.3,284.6,99,284.5,98.8,284.4z M100,283.8
							c0.1-0.1,0.2-0.2,0.3-0.3c0.1-0.1,0.1-0.3,0.1-0.5s0-0.4-0.1-0.5c-0.1-0.1-0.2-0.2-0.3-0.3s-0.2-0.1-0.4-0.1
							c-0.2,0-0.4,0.1-0.5,0.2c-0.2,0.2-0.2,0.4-0.2,0.7c0,0.3,0.1,0.5,0.2,0.7c0.1,0.2,0.3,0.2,0.5,0.2
							C99.7,283.9,99.9,283.9,100,283.8z"/>
						<path class="st10" d="M104.6,281.5v3h-0.8v-0.4c-0.1,0.1-0.2,0.2-0.4,0.3c-0.2,0.1-0.3,0.1-0.5,0.1c-0.2,0-0.4-0.1-0.6-0.2
							c-0.2-0.1-0.3-0.2-0.4-0.4c-0.1-0.2-0.2-0.4-0.2-0.7v-1.8h0.8v1.7c0,0.2,0.1,0.4,0.2,0.6c0.1,0.1,0.3,0.2,0.5,0.2
							c0.2,0,0.4-0.1,0.5-0.2c0.1-0.1,0.2-0.3,0.2-0.6v-1.7H104.6z"/>
						<path class="st10" d="M106.3,282.1v1.5c0,0.1,0,0.2,0.1,0.2c0,0,0.1,0.1,0.2,0.1h0.4v0.6h-0.5c-0.6,0-1-0.3-1-0.9v-1.5h-0.4
							v-0.6h0.4v-0.8h0.8v0.8h0.7v0.6H106.3z"/>
						<path class="st10" d="M109.5,281.5l0.8,2.1l0.8-2.1h0.8L110,286h-0.8l0.7-1.5l-1.2-3H109.5z"/>
						<path class="st10" d="M112.9,284.4c-0.2-0.1-0.4-0.3-0.6-0.6c-0.1-0.2-0.2-0.5-0.2-0.8c0-0.3,0.1-0.6,0.2-0.8
							c0.1-0.2,0.3-0.4,0.6-0.6c0.2-0.1,0.5-0.2,0.8-0.2c0.3,0,0.6,0.1,0.8,0.2c0.2,0.1,0.4,0.3,0.6,0.6c0.1,0.2,0.2,0.5,0.2,0.8
							c0,0.3-0.1,0.6-0.2,0.8c-0.1,0.2-0.3,0.4-0.6,0.6c-0.2,0.1-0.5,0.2-0.8,0.2C113.4,284.6,113.1,284.5,112.9,284.4z M114,283.8
							c0.1-0.1,0.2-0.2,0.3-0.3c0.1-0.1,0.1-0.3,0.1-0.5s0-0.4-0.1-0.5c-0.1-0.1-0.2-0.2-0.3-0.3c-0.1-0.1-0.2-0.1-0.4-0.1
							c-0.2,0-0.4,0.1-0.5,0.2c-0.2,0.2-0.2,0.4-0.2,0.7c0,0.3,0.1,0.5,0.2,0.7s0.3,0.2,0.5,0.2C113.8,283.9,113.9,283.9,114,283.8z
							"/>
						<path class="st10" d="M118.7,281.5v3h-0.8v-0.4c-0.1,0.1-0.2,0.2-0.4,0.3c-0.2,0.1-0.3,0.1-0.5,0.1c-0.2,0-0.4-0.1-0.6-0.2
							c-0.2-0.1-0.3-0.2-0.4-0.4c-0.1-0.2-0.2-0.4-0.2-0.7v-1.8h0.8v1.7c0,0.2,0.1,0.4,0.2,0.6c0.1,0.1,0.3,0.2,0.5,0.2
							c0.2,0,0.4-0.1,0.5-0.2c0.1-0.1,0.2-0.3,0.2-0.6v-1.7H118.7z"/>
						<path class="st10" d="M120.6,281.6c0.2-0.1,0.3-0.2,0.5-0.2v0.8h-0.2c-0.2,0-0.4,0.1-0.5,0.2c-0.1,0.1-0.2,0.3-0.2,0.6v1.5
							h-0.8v-3h0.8v0.5C120.3,281.9,120.4,281.7,120.6,281.6z"/>
						<path class="st10" d="M124.3,281.6c0.2-0.1,0.4-0.1,0.6-0.1c0.3,0,0.5,0.1,0.7,0.2c0.2,0.1,0.4,0.3,0.5,0.5
							c0.1,0.2,0.2,0.5,0.2,0.8c0,0.3-0.1,0.6-0.2,0.8c-0.1,0.2-0.3,0.4-0.5,0.6c-0.2,0.1-0.4,0.2-0.7,0.2c-0.2,0-0.4,0-0.6-0.1
							c-0.2-0.1-0.3-0.2-0.4-0.3v1.9h-0.8v-4.5h0.8v0.4C124,281.8,124.1,281.7,124.3,281.6z M125.4,282.5c-0.1-0.1-0.2-0.2-0.3-0.3
							c-0.1-0.1-0.3-0.1-0.4-0.1c-0.1,0-0.3,0-0.4,0.1c-0.1,0.1-0.2,0.2-0.3,0.3c-0.1,0.1-0.1,0.3-0.1,0.5c0,0.2,0,0.3,0.1,0.5
							c0.1,0.1,0.2,0.2,0.3,0.3c0.1,0.1,0.3,0.1,0.4,0.1c0.1,0,0.3,0,0.4-0.1s0.2-0.2,0.3-0.3c0.1-0.1,0.1-0.3,0.1-0.5
							C125.5,282.8,125.5,282.7,125.4,282.5z"/>
						<path class="st10" d="M128,281.6c0.2-0.1,0.3-0.2,0.5-0.2v0.8h-0.2c-0.2,0-0.4,0.1-0.5,0.2c-0.1,0.1-0.2,0.3-0.2,0.6v1.5h-0.8
							v-3h0.8v0.5C127.7,281.9,127.8,281.7,128,281.6z"/>
						<path class="st10" d="M129.6,284.4c-0.2-0.1-0.4-0.3-0.6-0.6c-0.1-0.2-0.2-0.5-0.2-0.8c0-0.3,0.1-0.6,0.2-0.8
							c0.1-0.2,0.3-0.4,0.6-0.6c0.2-0.1,0.5-0.2,0.8-0.2c0.3,0,0.6,0.1,0.8,0.2c0.2,0.1,0.4,0.3,0.6,0.6c0.1,0.2,0.2,0.5,0.2,0.8
							c0,0.3-0.1,0.6-0.2,0.8c-0.1,0.2-0.3,0.4-0.6,0.6c-0.2,0.1-0.5,0.2-0.8,0.2C130.1,284.6,129.9,284.5,129.6,284.4z
							 M130.8,283.8c0.1-0.1,0.2-0.2,0.3-0.3c0.1-0.1,0.1-0.3,0.1-0.5s0-0.4-0.1-0.5c-0.1-0.1-0.2-0.2-0.3-0.3
							c-0.1-0.1-0.2-0.1-0.4-0.1c-0.2,0-0.4,0.1-0.5,0.2c-0.2,0.2-0.2,0.4-0.2,0.7c0,0.3,0.1,0.5,0.2,0.7c0.1,0.2,0.3,0.2,0.5,0.2
							C130.6,283.9,130.7,283.9,130.8,283.8z"/>
						<path class="st10" d="M132.6,282.2c0.1-0.2,0.3-0.4,0.5-0.5c0.2-0.1,0.4-0.2,0.7-0.2c0.2,0,0.4,0,0.6,0.1
							c0.2,0.1,0.3,0.2,0.4,0.3v-1.4h0.8v4.1h-0.8v-0.5c-0.1,0.2-0.2,0.3-0.4,0.4c-0.2,0.1-0.4,0.1-0.6,0.1c-0.3,0-0.5-0.1-0.7-0.2
							c-0.2-0.1-0.4-0.3-0.5-0.6c-0.1-0.2-0.2-0.5-0.2-0.8C132.4,282.7,132.4,282.4,132.6,282.2z M134.7,282.5
							c-0.1-0.1-0.2-0.2-0.3-0.3c-0.1-0.1-0.3-0.1-0.4-0.1c-0.1,0-0.3,0-0.4,0.1c-0.1,0.1-0.2,0.2-0.3,0.3c-0.1,0.1-0.1,0.3-0.1,0.5
							c0,0.2,0,0.3,0.1,0.5c0.1,0.1,0.2,0.2,0.3,0.3c0.1,0.1,0.3,0.1,0.4,0.1c0.1,0,0.3,0,0.4-0.1c0.1-0.1,0.2-0.2,0.3-0.3
							c0.1-0.1,0.1-0.3,0.1-0.5C134.8,282.8,134.7,282.7,134.7,282.5z"/>
						<path class="st10" d="M139.2,281.5v3h-0.8v-0.4c-0.1,0.1-0.2,0.2-0.4,0.3c-0.2,0.1-0.3,0.1-0.5,0.1c-0.2,0-0.4-0.1-0.6-0.2
							c-0.2-0.1-0.3-0.2-0.4-0.4c-0.1-0.2-0.2-0.4-0.2-0.7v-1.8h0.8v1.7c0,0.2,0.1,0.4,0.2,0.6c0.1,0.1,0.3,0.2,0.5,0.2
							c0.2,0,0.4-0.1,0.5-0.2c0.1-0.1,0.2-0.3,0.2-0.6v-1.7H139.2z"/>
						<path class="st10" d="M139.9,282.2c0.1-0.2,0.3-0.4,0.5-0.5c0.2-0.1,0.5-0.2,0.8-0.2c0.4,0,0.7,0.1,0.9,0.3
							c0.2,0.2,0.4,0.5,0.5,0.8h-0.8c0-0.1-0.1-0.2-0.2-0.3c-0.1-0.1-0.2-0.1-0.4-0.1c-0.2,0-0.4,0.1-0.5,0.2
							c-0.1,0.2-0.2,0.4-0.2,0.7c0,0.3,0.1,0.5,0.2,0.7c0.1,0.2,0.3,0.2,0.5,0.2c0.3,0,0.5-0.1,0.6-0.4h0.8
							c-0.1,0.3-0.3,0.6-0.5,0.8c-0.2,0.2-0.6,0.3-0.9,0.3c-0.3,0-0.6-0.1-0.8-0.2c-0.2-0.1-0.4-0.3-0.5-0.5s-0.2-0.5-0.2-0.8
							C139.7,282.7,139.8,282.4,139.9,282.2z"/>
						<path class="st10" d="M144.1,282.1v1.5c0,0.1,0,0.2,0.1,0.2c0,0,0.1,0.1,0.2,0.1h0.4v0.6h-0.5c-0.6,0-1-0.3-1-0.9v-1.5H143
							v-0.6h0.4v-0.8h0.8v0.8h0.7v0.6H144.1z"/>
					</g>
				</g>
				<circle class="st11" cx="173.3" cy="245.7" r="3.7"/>
				<circle class="st11" cx="173.3" cy="264.2" r="3.7"/>
				<circle class="st11" cx="173.3" cy="282.9" r="3.7"/>
			</g>
		</g>
		<path class="st4" d="M43.5,103.9l5.4-10l-11,3l2.2,2.7l6.5-3.8l-5.2,5.4L43.5,103.9z"/>
	</g>
	<g>
		<g transform="translate(485.26764, 315.581109)">
			<g>
				<path d="M-86.8-102.4v-0.4c0.2-0.1,0.4-0.2,0.5-0.3c0.1-0.2,0.2-0.4,0.2-0.7h-0.4v-1.2h0.9v0.9c0,0.5-0.1,0.8-0.3,1.1
					C-86.2-102.6-86.5-102.5-86.8-102.4z"/>
			</g>
		</g>
	</g>
	<path class="st12" d="M177.3,245.4c5.7,2.4,15.3-7.9,21.6-23"/>
	<path class="st12" d="M177.3,283.2c5.7-2.4,15.3,7.9,21.6,23"/>
	<line class="st12" x1="176.6" y1="264.3" x2="194.7" y2="264.3"/>
	<g>
		<g>
			<defs>
				<rect id="SVGID_1_" x="194.6" y="175.3" width="271.1" height="159.9"/>
			</defs>
			<use xlink:href="#SVGID_1_"  style="overflow:visible;fill:#F8F9FC;"/>
			<clipPath id="SVGID_00000057850656373749176540000001345902510079200656_">
				<use xlink:href="#SVGID_1_"  style="overflow:visible;"/>
			</clipPath>
			<g style="clip-path:url(#SVGID_00000057850656373749176540000001345902510079200656_);">
				<g>
					<defs>
						<path id="SVGID_00000108998332787623988420000015245206115691646106_" d="M204.3,175.3h251.4c5.4,0,9.8,4.4,9.8,9.8v140.4
							c0,5.4-4.4,9.8-9.8,9.8H204.3c-5.4,0-9.8-4.4-9.8-9.8V185.1C194.6,179.7,198.9,175.3,204.3,175.3z"/>
					</defs>
					<use xlink:href="#SVGID_00000108998332787623988420000015245206115691646106_"  style="overflow:visible;fill:#F8F9FC;"/>
					<clipPath id="SVGID_00000060752284797336493970000011067865613703971220_">
						<use xlink:href="#SVGID_00000108998332787623988420000015245206115691646106_"  style="overflow:visible;"/>
					</clipPath>
					<g style="clip-path:url(#SVGID_00000060752284797336493970000011067865613703971220_);">
						<path class="st15" d="M194.6,175.3h271.1v159.9H194.6V175.3z"/>
					</g>
				</g>
			</g>
		</g>
		<defs>
			<filter id="Adobe_OpacityMaskFilter" filterUnits="userSpaceOnUse" x="194.7" y="38.1" width="270.8" height="137.3">
				<feColorMatrix  type="matrix" values="1 0 0 0 0  0 1 0 0 0  0 0 1 0 0  0 0 0 1 0"/>
			</filter>
		</defs>
		
			<mask maskUnits="userSpaceOnUse" x="194.7" y="38.1" width="270.8" height="137.3" id="c3efd5557f_00000101822704033361649320000011766289701605674112_">
			<g class="st16">
				<g transform="matrix(0.247768, 0, 0, 0.248162, 215.695278, 87.420608)">
					
						<image style="overflow:visible;enable-background:new    ;" width="1344" height="680" xlink:href="72DD34F49088E4AF.jpg"  transform="matrix(0.8133 0 0 0.8133 -84.7749 -198.7836)">
					</image>
				</g>
			</g>
		</mask>
		<g class="st17">
			<g transform="matrix(0.247768, 0, 0, 0.248162, 215.695278, 87.420608)">
				<g style="enable-background:new    ;">
					
						<image style="overflow:visible;" width="1344" height="680" xlink:href="72DD34F49088E4AA.jpg"  transform="matrix(0.8133 0 0 0.8133 -84.7749 -198.7836)">
					</image>
				</g>
			</g>
		</g>
		<g>
			<path d="M221.5,260.8c0,0.2,0,0.5-0.1,0.7c-0.1,0.2-0.2,0.4-0.4,0.6c-0.2,0.2-0.4,0.3-0.6,0.4c-0.2,0.1-0.5,0.1-0.7,0.1
				c-0.2,0-0.5,0-0.7-0.1c-0.2-0.1-0.4-0.2-0.6-0.4c-0.2-0.2-0.3-0.4-0.4-0.6c-0.1-0.2-0.1-0.5-0.1-0.7c0-0.2,0-0.5,0.1-0.7
				c0.1-0.2,0.2-0.4,0.4-0.6c0.2-0.2,0.4-0.3,0.6-0.4c0.2-0.1,0.5-0.1,0.7-0.1c0.2,0,0.5,0,0.7,0.1c0.2,0.1,0.4,0.2,0.6,0.4
				c0.2,0.2,0.3,0.4,0.4,0.6C221.4,260.3,221.5,260.5,221.5,260.8z"/>
			<path d="M221.5,279.1c0,0.2,0,0.5-0.1,0.7c-0.1,0.2-0.2,0.4-0.4,0.6c-0.2,0.2-0.4,0.3-0.6,0.4c-0.2,0.1-0.5,0.1-0.7,0.1
				c-0.2,0-0.5,0-0.7-0.1c-0.2-0.1-0.4-0.2-0.6-0.4c-0.2-0.2-0.3-0.4-0.4-0.6c-0.1-0.2-0.1-0.5-0.1-0.7c0-0.2,0-0.5,0.1-0.7
				c0.1-0.2,0.2-0.4,0.4-0.6c0.2-0.2,0.4-0.3,0.6-0.4c0.2-0.1,0.5-0.1,0.7-0.1c0.2,0,0.5,0,0.7,0.1c0.2,0.1,0.4,0.2,0.6,0.4
				c0.2,0.2,0.3,0.4,0.4,0.6C221.4,278.6,221.5,278.8,221.5,279.1z"/>
			<g>
				<path d="M221.6,226.8c-0.4-0.2-0.7-0.4-1-0.8c-0.2-0.3-0.4-0.7-0.4-1.2h1.3c0,0.3,0.2,0.6,0.4,0.8c0.2,0.2,0.6,0.3,1,0.3
					c0.4,0,0.8-0.1,1-0.3c0.2-0.2,0.4-0.5,0.4-0.8c0-0.3-0.1-0.5-0.2-0.6c-0.2-0.2-0.3-0.3-0.6-0.4c-0.2-0.1-0.5-0.2-0.9-0.3
					c-0.5-0.1-0.9-0.3-1.2-0.4c-0.3-0.1-0.6-0.3-0.8-0.6s-0.3-0.7-0.3-1.1c0-0.4,0.1-0.8,0.3-1.2s0.5-0.6,0.9-0.8
					c0.4-0.2,0.9-0.3,1.4-0.3c0.7,0,1.3,0.2,1.8,0.6c0.5,0.4,0.7,0.9,0.8,1.5h-1.4c0-0.3-0.2-0.6-0.4-0.8c-0.2-0.2-0.6-0.3-1-0.3
					c-0.4,0-0.7,0.1-0.9,0.3c-0.2,0.2-0.3,0.5-0.3,0.8c0,0.2,0.1,0.4,0.2,0.6c0.1,0.2,0.3,0.3,0.5,0.4c0.2,0.1,0.5,0.2,0.9,0.3
					c0.5,0.1,0.9,0.3,1.2,0.4c0.3,0.1,0.6,0.4,0.8,0.6c0.2,0.3,0.3,0.7,0.3,1.2c0,0.4-0.1,0.8-0.3,1.1c-0.2,0.3-0.5,0.6-0.9,0.8
					c-0.4,0.2-0.9,0.3-1.4,0.3C222.5,227,222,226.9,221.6,226.8z"/>
				<path d="M228.6,221.9v3.3c0,0.2,0.1,0.4,0.2,0.5c0.1,0.1,0.3,0.1,0.5,0.1h0.8v1h-1c-0.6,0-1-0.1-1.3-0.4
					c-0.3-0.3-0.5-0.7-0.5-1.3v-3.3h-0.7v-1h0.7v-1.5h1.3v1.5h1.5v1H228.6z"/>
				<path d="M231.1,222.3c0.3-0.5,0.6-0.8,1-1.1c0.4-0.3,0.9-0.4,1.4-0.4c0.5,0,0.9,0.1,1.2,0.3c0.4,0.2,0.6,0.4,0.9,0.7v-0.9h1.3v6
					h-1.3V226c-0.2,0.3-0.5,0.5-0.9,0.7c-0.4,0.2-0.8,0.3-1.3,0.3c-0.5,0-1-0.1-1.4-0.4s-0.8-0.6-1-1.1s-0.4-1-0.4-1.6
					C230.8,223.3,230.9,222.7,231.1,222.3z M235.5,222.8c-0.2-0.3-0.4-0.5-0.7-0.7c-0.3-0.2-0.6-0.2-0.9-0.2c-0.3,0-0.6,0.1-0.9,0.2
					c-0.3,0.2-0.5,0.4-0.7,0.7c-0.2,0.3-0.3,0.7-0.3,1.1c0,0.4,0.1,0.8,0.3,1.1c0.2,0.3,0.4,0.6,0.7,0.7c0.3,0.2,0.6,0.2,0.9,0.2
					c0.3,0,0.6-0.1,0.9-0.2c0.3-0.2,0.5-0.4,0.7-0.7c0.2-0.3,0.3-0.7,0.3-1.1C235.7,223.5,235.6,223.1,235.5,222.8z"/>
				<path d="M240.6,221.1c0.3-0.2,0.7-0.3,1.1-0.3v1.3h-0.3c-0.5,0-0.9,0.1-1.1,0.4c-0.3,0.2-0.4,0.7-0.4,1.3v3.2h-1.3v-6h1.3v1.1
					C240.1,221.6,240.3,221.3,240.6,221.1z"/>
				<path d="M244.3,221.9v3.3c0,0.2,0.1,0.4,0.2,0.5c0.1,0.1,0.3,0.1,0.5,0.1h0.8v1h-1c-0.6,0-1-0.1-1.3-0.4
					c-0.3-0.3-0.5-0.7-0.5-1.3v-3.3h-0.7v-1h0.7v-1.5h1.3v1.5h1.5v1H244.3z"/>
				<path d="M258.3,220.9l-1.9,6h-1.3l-1.2-4.5l-1.2,4.5h-1.3l-1.9-6h1.3l1.3,4.9l1.3-4.9h1.3l1.2,4.8l1.3-4.8H258.3z"/>
				<path d="M259.3,219.9c-0.2-0.2-0.2-0.3-0.2-0.6c0-0.2,0.1-0.4,0.2-0.6c0.2-0.2,0.3-0.2,0.6-0.2c0.2,0,0.4,0.1,0.6,0.2
					c0.2,0.2,0.2,0.3,0.2,0.6c0,0.2-0.1,0.4-0.2,0.6c-0.2,0.2-0.3,0.2-0.6,0.2C259.7,220.1,259.5,220,259.3,219.9z M260.5,220.9v6
					h-1.3v-6H260.5z"/>
				<path d="M263.6,221.9v3.3c0,0.2,0.1,0.4,0.2,0.5c0.1,0.1,0.3,0.1,0.5,0.1h0.8v1h-1c-0.6,0-1-0.1-1.3-0.4
					c-0.3-0.3-0.5-0.7-0.5-1.3v-3.3h-0.7v-1h0.7v-1.5h1.3v1.5h1.5v1H263.6z"/>
				<path d="M270.6,221.1c0.4,0.2,0.6,0.5,0.9,0.9c0.2,0.4,0.3,0.9,0.3,1.4v3.6h-1.2v-3.4c0-0.5-0.1-1-0.4-1.2
					c-0.3-0.3-0.6-0.4-1.1-0.4c-0.5,0-0.8,0.1-1.1,0.4c-0.3,0.3-0.4,0.7-0.4,1.2v3.4h-1.3v-8.1h1.3v2.8c0.2-0.3,0.5-0.5,0.8-0.6
					c0.3-0.1,0.7-0.2,1.1-0.2C269.8,220.8,270.3,220.9,270.6,221.1z"/>
				<path d="M282.1,222.9c-0.2,0.4-0.5,0.7-0.9,0.9c-0.4,0.2-1,0.3-1.6,0.3h-1.2v2.8h-1.9v-7.7h3c0.6,0,1.1,0.1,1.6,0.3
					c0.4,0.2,0.7,0.5,1,0.9c0.2,0.4,0.3,0.8,0.3,1.3C282.4,222.2,282.3,222.6,282.1,222.9z M280.2,222.4c0.2-0.2,0.3-0.4,0.3-0.7
					c0-0.3-0.1-0.5-0.3-0.7c-0.2-0.2-0.4-0.3-0.8-0.3h-1v2h1C279.8,222.7,280.1,222.6,280.2,222.4z"/>
				<path d="M286.1,221.1c0.3-0.2,0.7-0.3,1.1-0.3v2h-0.5c-0.5,0-0.8,0.1-1.1,0.3c-0.2,0.2-0.4,0.6-0.4,1.1v2.8h-1.9v-6.1h1.9v1.1
					C285.5,221.6,285.8,221.3,286.1,221.1z"/>
				<path d="M289.3,226.6c-0.5-0.3-0.9-0.6-1.1-1.1c-0.3-0.5-0.4-1-0.4-1.7c0-0.6,0.1-1.2,0.4-1.7c0.3-0.5,0.7-0.8,1.1-1.1
					c0.5-0.3,1-0.4,1.6-0.4c0.6,0,1.1,0.1,1.6,0.4c0.5,0.3,0.9,0.6,1.1,1.1s0.4,1,0.4,1.7c0,0.6-0.1,1.2-0.4,1.7
					c-0.3,0.5-0.7,0.8-1.2,1.1c-0.5,0.3-1,0.4-1.6,0.4C290.3,227,289.7,226.9,289.3,226.6z M291.8,225c0.3-0.3,0.4-0.6,0.4-1.1
					c0-0.5-0.1-0.9-0.4-1.1c-0.2-0.3-0.5-0.4-0.9-0.4c-0.4,0-0.7,0.1-0.9,0.4c-0.2,0.3-0.4,0.6-0.4,1.1c0,0.5,0.1,0.9,0.4,1.1
					c0.2,0.3,0.5,0.4,0.9,0.4C291.2,225.4,291.5,225.3,291.8,225z"/>
				<path d="M295.1,222.2c0.2-0.5,0.6-0.8,1-1.1c0.4-0.3,0.9-0.4,1.4-0.4c0.4,0,0.8,0.1,1.1,0.3c0.3,0.2,0.6,0.4,0.8,0.7v-0.9h1.9
					v6.1h-1.9v-0.9c-0.2,0.3-0.4,0.5-0.8,0.7c-0.3,0.2-0.7,0.3-1.1,0.3c-0.5,0-1-0.1-1.4-0.4c-0.4-0.3-0.7-0.6-1-1.1
					c-0.2-0.5-0.4-1-0.4-1.7S294.8,222.7,295.1,222.2z M298.9,222.8c-0.3-0.3-0.6-0.4-0.9-0.4s-0.7,0.1-0.9,0.4
					c-0.3,0.3-0.4,0.6-0.4,1.1s0.1,0.8,0.4,1.1c0.3,0.3,0.6,0.4,0.9,0.4s0.7-0.1,0.9-0.4c0.3-0.3,0.4-0.6,0.4-1.1
					C299.3,223.4,299.2,223,298.9,222.8z"/>
				<path d="M302.5,222.2c0.3-0.5,0.6-0.8,1.1-1.1c0.5-0.3,1-0.4,1.6-0.4c0.8,0,1.4,0.2,1.9,0.6c0.5,0.4,0.9,1,1,1.7h-2
					c-0.2-0.5-0.5-0.7-1-0.7c-0.3,0-0.6,0.1-0.8,0.4c-0.2,0.3-0.3,0.6-0.3,1.1c0,0.5,0.1,0.9,0.3,1.1c0.2,0.3,0.5,0.4,0.8,0.4
					c0.5,0,0.8-0.2,1-0.7h2c-0.2,0.7-0.5,1.3-1,1.7c-0.5,0.4-1.2,0.6-1.9,0.6c-0.6,0-1.1-0.1-1.6-0.4c-0.5-0.3-0.8-0.6-1.1-1.1
					c-0.3-0.5-0.4-1-0.4-1.7C302.2,223.2,302.3,222.7,302.5,222.2z"/>
				<path d="M312.6,225.4v1.6h-1c-0.7,0-1.2-0.2-1.6-0.5c-0.4-0.3-0.6-0.9-0.6-1.6v-2.4h-0.7v-1.6h0.7v-1.5h1.9v1.5h1.2v1.6h-1.2
					v2.5c0,0.2,0,0.3,0.1,0.4c0.1,0.1,0.2,0.1,0.4,0.1H312.6z"/>
				<path d="M313.8,219.9c-0.2-0.2-0.3-0.4-0.3-0.7c0-0.3,0.1-0.5,0.3-0.7c0.2-0.2,0.5-0.3,0.8-0.3c0.3,0,0.6,0.1,0.8,0.3
					c0.2,0.2,0.3,0.4,0.3,0.7c0,0.3-0.1,0.5-0.3,0.7c-0.2,0.2-0.5,0.3-0.8,0.3C314.2,220.2,314,220.1,313.8,219.9z M315.5,220.8v6.1
					h-1.9v-6.1H315.5z"/>
				<path d="M319.6,225.2l1.3-4.4h2l-2.2,6.1h-2.3l-2.2-6.1h2L319.6,225.2z"/>
				<path d="M329.5,224.3h-4.2c0,0.4,0.1,0.7,0.4,0.9c0.2,0.2,0.5,0.3,0.8,0.3c0.5,0,0.8-0.2,1-0.6h2c-0.1,0.4-0.3,0.8-0.6,1.1
					c-0.3,0.3-0.6,0.6-1,0.8c-0.4,0.2-0.9,0.3-1.4,0.3c-0.6,0-1.1-0.1-1.6-0.4c-0.5-0.3-0.8-0.6-1.1-1.1c-0.3-0.5-0.4-1-0.4-1.7
					c0-0.6,0.1-1.2,0.4-1.7c0.3-0.5,0.6-0.8,1.1-1.1c0.5-0.3,1-0.4,1.6-0.4c0.6,0,1.1,0.1,1.6,0.4c0.5,0.2,0.8,0.6,1.1,1.1
					c0.3,0.5,0.4,1,0.4,1.6C329.5,223.9,329.5,224.1,329.5,224.3z M327.6,223.4c0-0.4-0.1-0.6-0.3-0.8c-0.2-0.2-0.5-0.3-0.8-0.3
					c-0.3,0-0.6,0.1-0.8,0.3c-0.2,0.2-0.3,0.5-0.4,0.8H327.6z"/>
				<path d="M333.3,221.1c0.3-0.6,0.8-1.1,1.4-1.4c0.6-0.3,1.2-0.5,2-0.5c0.8,0,1.5,0.2,2.2,0.6c0.6,0.4,1.1,1,1.4,1.7h-1.5
					c-0.2-0.4-0.5-0.7-0.8-0.9c-0.4-0.2-0.8-0.3-1.2-0.3c-0.5,0-1,0.1-1.4,0.3c-0.4,0.2-0.7,0.5-0.9,1c-0.2,0.4-0.3,0.9-0.3,1.4
					s0.1,1,0.3,1.5c0.2,0.4,0.5,0.7,0.9,1c0.4,0.2,0.8,0.3,1.4,0.3c0.5,0,0.9-0.1,1.2-0.3c0.4-0.2,0.6-0.5,0.8-0.9h1.5
					c-0.3,0.7-0.7,1.3-1.4,1.7c-0.6,0.4-1.4,0.6-2.2,0.6c-0.7,0-1.4-0.2-2-0.5c-0.6-0.3-1.1-0.8-1.4-1.4c-0.3-0.6-0.5-1.3-0.5-2
					S332.9,221.7,333.3,221.1z"/>
				<path d="M346,221.1c0.4,0.2,0.6,0.5,0.9,0.9c0.2,0.4,0.3,0.9,0.3,1.4v3.6H346v-3.4c0-0.5-0.1-1-0.4-1.2
					c-0.3-0.3-0.6-0.4-1.1-0.4c-0.5,0-0.8,0.1-1.1,0.4c-0.3,0.3-0.4,0.7-0.4,1.2v3.4h-1.3v-8.1h1.3v2.8c0.2-0.3,0.5-0.5,0.8-0.6
					c0.3-0.1,0.7-0.2,1.1-0.2C345.3,220.8,345.7,220.9,346,221.1z"/>
				<path d="M348.8,222.3c0.3-0.5,0.6-0.8,1-1.1c0.4-0.3,0.9-0.4,1.4-0.4c0.5,0,0.9,0.1,1.2,0.3c0.4,0.2,0.6,0.4,0.9,0.7v-0.9h1.3v6
					h-1.3V226c-0.2,0.3-0.5,0.5-0.9,0.7c-0.4,0.2-0.8,0.3-1.3,0.3c-0.5,0-1-0.1-1.4-0.4s-0.8-0.6-1-1.1c-0.3-0.5-0.4-1-0.4-1.6
					C348.4,223.3,348.5,222.7,348.8,222.3z M353.1,222.8c-0.2-0.3-0.4-0.5-0.7-0.7c-0.3-0.2-0.6-0.2-0.9-0.2c-0.3,0-0.6,0.1-0.9,0.2
					c-0.3,0.2-0.5,0.4-0.7,0.7c-0.2,0.3-0.3,0.7-0.3,1.1c0,0.4,0.1,0.8,0.3,1.1c0.2,0.3,0.4,0.6,0.7,0.7c0.3,0.2,0.6,0.2,0.9,0.2
					c0.3,0,0.6-0.1,0.9-0.2c0.3-0.2,0.5-0.4,0.7-0.7c0.2-0.3,0.3-0.7,0.3-1.1C353.3,223.5,353.3,223.1,353.1,222.8z"/>
				<path d="M357.7,221.9v3.3c0,0.2,0.1,0.4,0.2,0.5c0.1,0.1,0.3,0.1,0.5,0.1h0.8v1h-1c-0.6,0-1-0.1-1.3-0.4
					c-0.3-0.3-0.5-0.7-0.5-1.3v-3.3h-0.7v-1h0.7v-1.5h1.3v1.5h1.5v1H357.7z"/>
				<path d="M362.5,221.1c0.4-0.2,0.8-0.3,1.2-0.3c0.5,0,1,0.1,1.4,0.4c0.4,0.3,0.8,0.6,1,1.1c0.2,0.5,0.4,1,0.4,1.6
					c0,0.6-0.1,1.2-0.4,1.6c-0.2,0.5-0.6,0.9-1,1.1s-0.9,0.4-1.4,0.4c-0.5,0-0.9-0.1-1.2-0.3c-0.4-0.2-0.6-0.4-0.9-0.7v0.9h-1.3
					v-8.1h1.3v3C361.8,221.5,362.1,221.3,362.5,221.1z M365,222.8c-0.2-0.3-0.4-0.5-0.7-0.7c-0.3-0.2-0.6-0.2-0.9-0.2
					c-0.3,0-0.6,0.1-0.9,0.2c-0.3,0.2-0.5,0.4-0.7,0.7c-0.2,0.3-0.3,0.7-0.3,1.1c0,0.4,0.1,0.8,0.3,1.1c0.2,0.3,0.4,0.5,0.7,0.7
					c0.3,0.2,0.6,0.2,0.9,0.2c0.3,0,0.6-0.1,0.9-0.2c0.3-0.2,0.5-0.4,0.7-0.7s0.3-0.7,0.3-1.1C365.3,223.5,365.2,223.1,365,222.8z"
					/>
				<path d="M368.9,226.7c-0.5-0.3-0.8-0.6-1.1-1.1c-0.3-0.5-0.4-1-0.4-1.6c0-0.6,0.1-1.2,0.4-1.6c0.3-0.5,0.6-0.8,1.1-1.1
					c0.5-0.3,1-0.4,1.6-0.4c0.6,0,1.1,0.1,1.6,0.4c0.5,0.3,0.8,0.6,1.1,1.1c0.3,0.5,0.4,1,0.4,1.6c0,0.6-0.1,1.2-0.4,1.6
					c-0.3,0.5-0.7,0.8-1.1,1.1c-0.5,0.3-1,0.4-1.6,0.4C369.8,227,369.3,226.9,368.9,226.7z M371.3,225.7c0.3-0.2,0.5-0.4,0.7-0.7
					c0.2-0.3,0.3-0.7,0.3-1.1c0-0.4-0.1-0.8-0.3-1.1c-0.2-0.3-0.4-0.5-0.7-0.7c-0.3-0.2-0.6-0.2-0.9-0.2s-0.6,0.1-0.9,0.2
					c-0.3,0.2-0.5,0.4-0.7,0.7c-0.2,0.3-0.2,0.7-0.2,1.1c0,0.4,0.1,0.8,0.2,1.1c0.2,0.3,0.4,0.6,0.6,0.7c0.3,0.2,0.6,0.2,0.9,0.2
					C370.7,226,371,225.9,371.3,225.7z"/>
				<path d="M376.2,221.9v3.3c0,0.2,0.1,0.4,0.2,0.5c0.1,0.1,0.3,0.1,0.5,0.1h0.8v1h-1c-0.6,0-1-0.1-1.3-0.4
					c-0.3-0.3-0.5-0.7-0.5-1.3v-3.3h-0.7v-1h0.7v-1.5h1.3v1.5h1.5v1H376.2z"/>
				<path d="M387.1,219.3v1h-2v6.7h-1.3v-6.7h-2v-1H387.1z"/>
				<path d="M393.9,224.3h-4.6c0,0.5,0.2,0.9,0.5,1.2c0.3,0.3,0.7,0.4,1.2,0.4c0.7,0,1.1-0.3,1.4-0.8h1.4c-0.2,0.6-0.5,1-1,1.4
					s-1.1,0.5-1.8,0.5c-0.6,0-1.1-0.1-1.6-0.4c-0.5-0.3-0.8-0.6-1.1-1.1c-0.3-0.5-0.4-1-0.4-1.6c0-0.6,0.1-1.2,0.4-1.6
					c0.3-0.5,0.6-0.8,1.1-1.1c0.5-0.3,1-0.4,1.6-0.4c0.6,0,1.1,0.1,1.5,0.4c0.4,0.2,0.8,0.6,1,1c0.2,0.4,0.4,1,0.4,1.5
					C393.9,224,393.9,224.2,393.9,224.3z M392.6,223.4c0-0.5-0.2-0.9-0.5-1.2c-0.3-0.3-0.7-0.4-1.2-0.4c-0.4,0-0.8,0.1-1.1,0.4
					s-0.5,0.7-0.5,1.2H392.6z"/>
				<path d="M403.7,221.1c0.4,0.2,0.7,0.5,0.9,0.9c0.2,0.4,0.3,0.9,0.3,1.4v3.6h-1.2v-3.4c0-0.5-0.1-1-0.4-1.2
					c-0.3-0.3-0.6-0.4-1.1-0.4c-0.5,0-0.8,0.1-1.1,0.4c-0.3,0.3-0.4,0.7-0.4,1.2v3.4h-1.2v-3.4c0-0.5-0.1-1-0.4-1.2
					c-0.3-0.3-0.6-0.4-1.1-0.4c-0.5,0-0.8,0.1-1.1,0.4c-0.3,0.3-0.4,0.7-0.4,1.2v3.4h-1.3v-6h1.3v0.7c0.2-0.2,0.5-0.4,0.8-0.6
					c0.3-0.1,0.7-0.2,1-0.2c0.5,0,0.9,0.1,1.3,0.3s0.7,0.5,0.9,0.9c0.2-0.4,0.5-0.7,0.9-0.9c0.4-0.2,0.8-0.3,1.3-0.3
					C402.9,220.8,403.4,220.9,403.7,221.1z"/>
				<path d="M408.7,221.1c0.4-0.2,0.8-0.3,1.2-0.3c0.5,0,1,0.1,1.4,0.4c0.4,0.3,0.8,0.6,1,1.1c0.2,0.5,0.4,1,0.4,1.6
					c0,0.6-0.1,1.2-0.4,1.6c-0.2,0.5-0.6,0.9-1,1.1s-0.9,0.4-1.4,0.4c-0.5,0-0.9-0.1-1.2-0.3c-0.4-0.2-0.7-0.4-0.9-0.7v3.8h-1.3
					v-8.9h1.3v0.9C408,221.5,408.3,221.3,408.7,221.1z M411.2,222.8c-0.2-0.3-0.4-0.5-0.7-0.7c-0.3-0.2-0.6-0.2-0.9-0.2
					c-0.3,0-0.6,0.1-0.9,0.2c-0.3,0.2-0.5,0.4-0.7,0.7c-0.2,0.3-0.3,0.7-0.3,1.1c0,0.4,0.1,0.8,0.3,1.1c0.2,0.3,0.4,0.5,0.7,0.7
					c0.3,0.2,0.6,0.2,0.9,0.2c0.3,0,0.6-0.1,0.9-0.2c0.3-0.2,0.5-0.4,0.7-0.7s0.3-0.7,0.3-1.1C411.5,223.5,411.4,223.1,411.2,222.8z
					"/>
				<path d="M415.2,218.8v8.1H414v-8.1H415.2z"/>
				<path d="M416.8,222.3c0.3-0.5,0.6-0.8,1-1.1c0.4-0.3,0.9-0.4,1.4-0.4c0.5,0,0.9,0.1,1.2,0.3c0.4,0.2,0.6,0.4,0.9,0.7v-0.9h1.3v6
					h-1.3V226c-0.2,0.3-0.5,0.5-0.9,0.7c-0.4,0.2-0.8,0.3-1.3,0.3c-0.5,0-1-0.1-1.4-0.4s-0.8-0.6-1-1.1c-0.3-0.5-0.4-1-0.4-1.6
					C416.5,223.3,416.6,222.7,416.8,222.3z M421.2,222.8c-0.2-0.3-0.4-0.5-0.7-0.7c-0.3-0.2-0.6-0.2-0.9-0.2c-0.3,0-0.6,0.1-0.9,0.2
					c-0.3,0.2-0.5,0.4-0.7,0.7c-0.2,0.3-0.3,0.7-0.3,1.1c0,0.4,0.1,0.8,0.3,1.1c0.2,0.3,0.4,0.6,0.7,0.7c0.3,0.2,0.6,0.2,0.9,0.2
					c0.3,0,0.6-0.1,0.9-0.2c0.3-0.2,0.5-0.4,0.7-0.7c0.2-0.3,0.3-0.7,0.3-1.1C421.4,223.5,421.3,223.1,421.2,222.8z"/>
				<path d="M425.8,221.9v3.3c0,0.2,0.1,0.4,0.2,0.5c0.1,0.1,0.3,0.1,0.5,0.1h0.8v1h-1c-0.6,0-1-0.1-1.3-0.4
					c-0.3-0.3-0.5-0.7-0.5-1.3v-3.3h-0.7v-1h0.7v-1.5h1.3v1.5h1.5v1H425.8z"/>
				<path d="M433.9,224.3h-4.6c0,0.5,0.2,0.9,0.5,1.2c0.3,0.3,0.7,0.4,1.2,0.4c0.7,0,1.1-0.3,1.4-0.8h1.4c-0.2,0.6-0.5,1-1,1.4
					c-0.5,0.4-1.1,0.5-1.8,0.5c-0.6,0-1.1-0.1-1.6-0.4c-0.5-0.3-0.8-0.6-1.1-1.1c-0.3-0.5-0.4-1-0.4-1.6c0-0.6,0.1-1.2,0.4-1.6
					c0.3-0.5,0.6-0.8,1.1-1.1c0.5-0.3,1-0.4,1.6-0.4c0.6,0,1.1,0.1,1.5,0.4c0.4,0.2,0.8,0.6,1,1c0.2,0.4,0.4,1,0.4,1.5
					C434,224,433.9,224.2,433.9,224.3z M432.6,223.4c0-0.5-0.2-0.9-0.5-1.2c-0.3-0.3-0.7-0.4-1.2-0.4c-0.4,0-0.8,0.1-1.1,0.4
					c-0.3,0.3-0.5,0.7-0.5,1.2H432.6z"/>
				<path d="M436.1,226.8c-0.4-0.2-0.7-0.4-0.9-0.7c-0.2-0.3-0.3-0.6-0.4-1h1.3c0,0.3,0.1,0.5,0.4,0.7c0.2,0.2,0.5,0.3,0.8,0.3
					c0.4,0,0.6-0.1,0.8-0.2c0.2-0.1,0.3-0.3,0.3-0.6c0-0.2-0.1-0.4-0.3-0.5c-0.2-0.1-0.6-0.2-1-0.4c-0.4-0.1-0.8-0.2-1.1-0.4
					c-0.3-0.1-0.5-0.3-0.7-0.5c-0.2-0.2-0.3-0.5-0.3-0.9c0-0.3,0.1-0.6,0.3-0.9c0.2-0.3,0.4-0.5,0.8-0.7c0.3-0.2,0.8-0.2,1.2-0.2
					c0.7,0,1.2,0.2,1.7,0.5c0.4,0.3,0.6,0.8,0.7,1.4h-1.3c0-0.3-0.1-0.5-0.3-0.7c-0.2-0.2-0.5-0.3-0.8-0.3c-0.3,0-0.6,0.1-0.8,0.2
					c-0.2,0.1-0.3,0.3-0.3,0.5c0,0.2,0.1,0.3,0.2,0.4c0.1,0.1,0.3,0.2,0.4,0.3c0.2,0.1,0.4,0.1,0.7,0.2c0.4,0.1,0.8,0.2,1.1,0.4
					s0.5,0.3,0.7,0.5s0.3,0.5,0.3,0.9c0,0.3-0.1,0.7-0.3,0.9c-0.2,0.3-0.4,0.5-0.8,0.6c-0.3,0.2-0.8,0.2-1.2,0.2
					C436.9,227,436.5,227,436.1,226.8z"/>
				<path d="M442.4,225.4l-1.3,3h-0.8l0.8-3H442.4z"/>
				<path d="M222.6,235.7c0.4-0.2,0.8-0.3,1.2-0.3c0.5,0,1,0.1,1.4,0.4c0.4,0.3,0.8,0.6,1,1.1c0.2,0.5,0.4,1,0.4,1.6
					c0,0.6-0.1,1.2-0.4,1.6c-0.2,0.5-0.6,0.9-1,1.1c-0.4,0.3-0.9,0.4-1.4,0.4c-0.5,0-0.9-0.1-1.2-0.3c-0.4-0.2-0.7-0.4-0.9-0.7v3.8
					h-1.3v-8.9h1.3v0.9C221.9,236.1,222.2,235.9,222.6,235.7z M225.1,237.4c-0.2-0.3-0.4-0.5-0.7-0.7c-0.3-0.2-0.6-0.2-0.9-0.2
					c-0.3,0-0.6,0.1-0.9,0.2c-0.3,0.2-0.5,0.4-0.7,0.7c-0.2,0.3-0.3,0.7-0.3,1.1c0,0.4,0.1,0.8,0.3,1.1c0.2,0.3,0.4,0.5,0.7,0.7
					c0.3,0.2,0.6,0.2,0.9,0.2c0.3,0,0.6-0.1,0.9-0.2c0.3-0.2,0.5-0.4,0.7-0.7c0.2-0.3,0.3-0.7,0.3-1.1
					C225.4,238.1,225.3,237.8,225.1,237.4z"/>
				<path d="M233.4,239h-4.6c0,0.5,0.2,0.9,0.5,1.2c0.3,0.3,0.7,0.4,1.2,0.4c0.7,0,1.1-0.3,1.4-0.8h1.4c-0.2,0.6-0.5,1-1,1.4
					c-0.5,0.4-1.1,0.5-1.8,0.5c-0.6,0-1.1-0.1-1.6-0.4c-0.5-0.3-0.8-0.6-1.1-1.1c-0.3-0.5-0.4-1-0.4-1.6c0-0.6,0.1-1.2,0.4-1.6
					c0.3-0.5,0.6-0.8,1.1-1.1c0.5-0.3,1-0.4,1.6-0.4c0.6,0,1.1,0.1,1.5,0.4c0.4,0.2,0.8,0.6,1,1c0.2,0.4,0.4,1,0.4,1.5
					C233.4,238.6,233.4,238.8,233.4,239z M232.1,238.1c0-0.5-0.2-0.9-0.5-1.2c-0.3-0.3-0.7-0.4-1.2-0.4c-0.4,0-0.8,0.1-1.1,0.4
					c-0.3,0.3-0.5,0.7-0.5,1.2H232.1z"/>
				<path d="M236.7,235.7c0.3-0.2,0.7-0.3,1.1-0.3v1.3h-0.3c-0.5,0-0.9,0.1-1.1,0.4c-0.3,0.2-0.4,0.7-0.4,1.3v3.2h-1.3v-6h1.3v1.1
					C236.1,236.2,236.4,235.9,236.7,235.7z"/>
				<path d="M241.4,236.6h-1.1v5H239v-5h-0.7v-1h0.7v-0.4c0-0.7,0.2-1.2,0.6-1.5c0.4-0.3,1-0.5,1.7-0.5v1c-0.4,0-0.6,0.1-0.8,0.2
					c-0.2,0.1-0.2,0.4-0.2,0.7v0.4h1.1V236.6z"/>
				<path d="M248,239h-4.6c0,0.5,0.2,0.9,0.5,1.2c0.3,0.3,0.7,0.4,1.2,0.4c0.7,0,1.1-0.3,1.4-0.8h1.4c-0.2,0.6-0.5,1-1,1.4
					s-1.1,0.5-1.8,0.5c-0.6,0-1.1-0.1-1.6-0.4c-0.5-0.3-0.8-0.6-1.1-1.1c-0.3-0.5-0.4-1-0.4-1.6c0-0.6,0.1-1.2,0.4-1.6
					c0.3-0.5,0.6-0.8,1.1-1.1c0.5-0.3,1-0.4,1.6-0.4c0.6,0,1.1,0.1,1.5,0.4c0.4,0.2,0.8,0.6,1,1c0.2,0.4,0.4,1,0.4,1.5
					C248.1,238.6,248.1,238.8,248,239z M246.8,238.1c0-0.5-0.2-0.9-0.5-1.2c-0.3-0.3-0.7-0.4-1.2-0.4c-0.4,0-0.8,0.1-1.1,0.4
					c-0.3,0.3-0.5,0.7-0.5,1.2H246.8z"/>
				<path d="M249.3,236.9c0.3-0.5,0.6-0.8,1-1.1c0.4-0.3,1-0.4,1.5-0.4c0.7,0,1.3,0.2,1.8,0.5c0.5,0.3,0.8,0.8,1,1.5h-1.4
					c-0.1-0.3-0.3-0.5-0.5-0.7c-0.2-0.2-0.5-0.3-0.9-0.3c-0.5,0-0.9,0.2-1.2,0.5c-0.3,0.4-0.5,0.9-0.5,1.5s0.2,1.2,0.5,1.5
					c0.3,0.4,0.7,0.5,1.2,0.5c0.7,0,1.2-0.3,1.4-1h1.4c-0.2,0.6-0.5,1.1-1,1.5c-0.5,0.4-1.1,0.5-1.8,0.5c-0.6,0-1.1-0.1-1.5-0.4
					c-0.4-0.3-0.8-0.6-1-1.1c-0.3-0.5-0.4-1-0.4-1.6C248.9,237.9,249,237.4,249.3,236.9z"/>
				<path d="M257.4,236.6v3.3c0,0.2,0.1,0.4,0.2,0.5c0.1,0.1,0.3,0.1,0.5,0.1h0.8v1h-1c-0.6,0-1-0.1-1.3-0.4
					c-0.3-0.3-0.5-0.7-0.5-1.3v-3.3h-0.7v-1h0.7V234h1.3v1.5h1.5v1H257.4z"/>
				<path d="M265.8,236.6h-1.1v5h-1.3v-5h-0.7v-1h0.7v-0.4c0-0.7,0.2-1.2,0.6-1.5c0.4-0.3,1-0.5,1.7-0.5v1c-0.4,0-0.6,0.1-0.8,0.2
					c-0.2,0.1-0.2,0.4-0.2,0.7v0.4h1.1V236.6z"/>
				<path d="M268,241.3c-0.5-0.3-0.8-0.6-1.1-1.1c-0.3-0.5-0.4-1-0.4-1.6c0-0.6,0.1-1.2,0.4-1.6c0.3-0.5,0.6-0.8,1.1-1.1
					c0.5-0.3,1-0.4,1.6-0.4c0.6,0,1.1,0.1,1.6,0.4c0.5,0.3,0.8,0.6,1.1,1.1c0.3,0.5,0.4,1,0.4,1.6s-0.1,1.2-0.4,1.6
					c-0.3,0.5-0.7,0.8-1.1,1.1c-0.5,0.3-1,0.4-1.6,0.4C269,241.7,268.5,241.6,268,241.3z M270.5,240.4c0.3-0.2,0.5-0.4,0.7-0.7
					c0.2-0.3,0.3-0.7,0.3-1.1c0-0.4-0.1-0.8-0.3-1.1c-0.2-0.3-0.4-0.5-0.7-0.7c-0.3-0.2-0.6-0.2-0.9-0.2c-0.3,0-0.6,0.1-0.9,0.2
					c-0.3,0.2-0.5,0.4-0.7,0.7c-0.2,0.3-0.2,0.7-0.2,1.1c0,0.4,0.1,0.8,0.2,1.1c0.2,0.3,0.4,0.6,0.6,0.7c0.3,0.2,0.6,0.2,0.9,0.2
					C269.9,240.6,270.2,240.5,270.5,240.4z"/>
				<path d="M275.9,235.7c0.3-0.2,0.7-0.3,1.1-0.3v1.3h-0.3c-0.5,0-0.9,0.1-1.1,0.4c-0.3,0.2-0.4,0.7-0.4,1.3v3.2h-1.3v-6h1.3v1.1
					C275.4,236.2,275.6,235.9,275.9,235.7z"/>
				<path d="M278.1,236.8c-0.2-0.2-0.2-0.3-0.2-0.6s0.1-0.4,0.2-0.6c0.2-0.2,0.3-0.2,0.6-0.2c0.2,0,0.4,0.1,0.6,0.2
					c0.2,0.2,0.2,0.3,0.2,0.6s-0.1,0.4-0.2,0.6c-0.2,0.2-0.3,0.2-0.6,0.2C278.4,237,278.2,237,278.1,236.8z M278.1,241.4
					c-0.2-0.2-0.2-0.3-0.2-0.6c0-0.2,0.1-0.4,0.2-0.6c0.2-0.2,0.3-0.2,0.6-0.2c0.2,0,0.4,0.1,0.6,0.2c0.2,0.2,0.2,0.3,0.2,0.6
					c0,0.2-0.1,0.4-0.2,0.6c-0.2,0.2-0.3,0.2-0.6,0.2C278.4,241.7,278.2,241.6,278.1,241.4z"/>
			</g>
			<g>
				<g>
					<path d="M232.8,257.9v1.6h2.5v1.4h-2.5v1.7h2.8v1.5h-4.7v-7.7h4.7v1.5H232.8z"/>
					<path d="M242.3,258.6c0.4,0.5,0.6,1.1,0.6,1.9v3.6h-1.9v-3.3c0-0.4-0.1-0.7-0.3-1c-0.2-0.2-0.5-0.3-0.9-0.3s-0.6,0.1-0.9,0.3
						c-0.2,0.2-0.3,0.5-0.3,1v3.3h-1.9V258h1.9v0.8c0.2-0.3,0.4-0.5,0.8-0.6c0.3-0.2,0.7-0.2,1.1-0.2
						C241.3,257.9,241.8,258.2,242.3,258.6z"/>
					<path d="M247.7,258.2c0.3,0.2,0.6,0.4,0.8,0.7V258h1.9v6.1c0,0.6-0.1,1.1-0.3,1.5c-0.2,0.5-0.6,0.8-1,1.1
						c-0.5,0.3-1,0.4-1.7,0.4c-0.9,0-1.6-0.2-2.2-0.6c-0.6-0.4-0.9-1-1-1.7h1.9c0.1,0.2,0.2,0.4,0.4,0.6c0.2,0.1,0.5,0.2,0.8,0.2
						c0.4,0,0.7-0.1,0.9-0.3c0.2-0.2,0.3-0.6,0.3-1.1v-0.9c-0.2,0.3-0.4,0.5-0.8,0.7c-0.3,0.2-0.7,0.3-1.1,0.3c-0.5,0-1-0.1-1.4-0.4
						c-0.4-0.3-0.7-0.6-1-1.1c-0.2-0.5-0.4-1-0.4-1.7c0-0.6,0.1-1.2,0.4-1.7c0.2-0.5,0.6-0.8,1-1.1c0.4-0.3,0.9-0.4,1.4-0.4
						C247,257.9,247.4,258,247.7,258.2z M248.1,260c-0.3-0.3-0.6-0.4-0.9-0.4s-0.7,0.1-0.9,0.4c-0.3,0.3-0.4,0.6-0.4,1.1
						c0,0.5,0.1,0.8,0.4,1.1c0.3,0.3,0.6,0.4,0.9,0.4s0.7-0.1,0.9-0.4c0.3-0.3,0.4-0.6,0.4-1.1C248.4,260.6,248.3,260.2,248.1,260z"
						/>
					<path d="M251.7,259.4c0.2-0.5,0.6-0.8,1-1.1c0.4-0.3,0.9-0.4,1.4-0.4c0.4,0,0.8,0.1,1.1,0.3c0.3,0.2,0.6,0.4,0.8,0.7V258h1.9
						v6.1h-1.9v-0.9c-0.2,0.3-0.4,0.5-0.8,0.7c-0.3,0.2-0.7,0.3-1.1,0.3c-0.5,0-1-0.1-1.4-0.4c-0.4-0.3-0.7-0.6-1-1.1
						c-0.2-0.5-0.4-1-0.4-1.7C251.3,260.4,251.4,259.9,251.7,259.4z M255.5,260c-0.3-0.3-0.6-0.4-0.9-0.4s-0.7,0.1-0.9,0.4
						c-0.3,0.3-0.4,0.6-0.4,1.1c0,0.5,0.1,0.8,0.4,1.1c0.3,0.3,0.6,0.4,0.9,0.4s0.7-0.1,0.9-0.4c0.3-0.3,0.4-0.6,0.4-1.1
						C255.9,260.6,255.8,260.2,255.5,260z"/>
					<path d="M262.6,258.2c0.3,0.2,0.6,0.4,0.8,0.7V258h1.9v6.1c0,0.6-0.1,1.1-0.3,1.5c-0.2,0.5-0.6,0.8-1,1.1
						c-0.5,0.3-1,0.4-1.7,0.4c-0.9,0-1.6-0.2-2.2-0.6c-0.6-0.4-0.9-1-1-1.7h1.9c0.1,0.2,0.2,0.4,0.4,0.6c0.2,0.1,0.5,0.2,0.8,0.2
						c0.4,0,0.7-0.1,0.9-0.3c0.2-0.2,0.3-0.6,0.3-1.1v-0.9c-0.2,0.3-0.4,0.5-0.8,0.7c-0.3,0.2-0.7,0.3-1.1,0.3c-0.5,0-1-0.1-1.4-0.4
						c-0.4-0.3-0.7-0.6-1-1.1c-0.2-0.5-0.4-1-0.4-1.7c0-0.6,0.1-1.2,0.4-1.7c0.2-0.5,0.6-0.8,1-1.1c0.4-0.3,0.9-0.4,1.4-0.4
						C261.9,257.9,262.3,258,262.6,258.2z M263,260c-0.3-0.3-0.6-0.4-0.9-0.4s-0.7,0.1-0.9,0.4c-0.3,0.3-0.4,0.6-0.4,1.1
						c0,0.5,0.1,0.8,0.4,1.1c0.3,0.3,0.6,0.4,0.9,0.4s0.7-0.1,0.9-0.4c0.3-0.3,0.4-0.6,0.4-1.1C263.4,260.6,263.2,260.2,263,260z"/>
					<path d="M272.3,261.5h-4.2c0,0.4,0.1,0.7,0.4,0.9c0.2,0.2,0.5,0.3,0.8,0.3c0.5,0,0.8-0.2,1-0.6h2c-0.1,0.4-0.3,0.8-0.6,1.1
						c-0.3,0.3-0.6,0.6-1,0.8c-0.4,0.2-0.9,0.3-1.4,0.3c-0.6,0-1.1-0.1-1.6-0.4c-0.5-0.3-0.8-0.6-1.1-1.1c-0.3-0.5-0.4-1-0.4-1.7
						s0.1-1.2,0.4-1.7c0.3-0.5,0.6-0.8,1.1-1.1c0.5-0.3,1-0.4,1.6-0.4c0.6,0,1.1,0.1,1.6,0.4c0.5,0.2,0.8,0.6,1.1,1.1
						c0.3,0.5,0.4,1,0.4,1.6C272.4,261.1,272.4,261.3,272.3,261.5z M270.4,260.5c0-0.4-0.1-0.6-0.3-0.8c-0.2-0.2-0.5-0.3-0.8-0.3
						c-0.3,0-0.6,0.1-0.8,0.3c-0.2,0.2-0.3,0.5-0.4,0.8H270.4z"/>
					<path d="M277.3,258l1.4,3.8l1.4-3.8h2l-3.8,9h-2l1.4-3.1l-2.5-5.9H277.3z"/>
					<path d="M284,263.8c-0.5-0.3-0.9-0.6-1.1-1.1c-0.3-0.5-0.4-1-0.4-1.7c0-0.6,0.1-1.2,0.4-1.7c0.3-0.5,0.7-0.8,1.1-1.1
						c0.5-0.3,1-0.4,1.6-0.4c0.6,0,1.1,0.1,1.6,0.4c0.5,0.3,0.9,0.6,1.1,1.1c0.3,0.5,0.4,1,0.4,1.7c0,0.6-0.1,1.2-0.4,1.7
						c-0.3,0.5-0.7,0.8-1.2,1.1c-0.5,0.3-1,0.4-1.6,0.4C285,264.2,284.5,264.1,284,263.8z M286.5,262.2c0.3-0.3,0.4-0.6,0.4-1.1
						s-0.1-0.9-0.4-1.1c-0.2-0.3-0.5-0.4-0.9-0.4c-0.4,0-0.7,0.1-0.9,0.4c-0.2,0.3-0.4,0.6-0.4,1.1c0,0.5,0.1,0.9,0.4,1.1
						c0.2,0.3,0.5,0.4,0.9,0.4C286,262.6,286.3,262.5,286.5,262.2z"/>
					<path d="M295.9,258v6.1H294v-0.8c-0.2,0.3-0.4,0.5-0.8,0.7c-0.3,0.2-0.7,0.2-1.1,0.2c-0.5,0-0.9-0.1-1.2-0.3
						c-0.4-0.2-0.6-0.5-0.8-0.9c-0.2-0.4-0.3-0.9-0.3-1.4V258h1.9v3.3c0,0.4,0.1,0.7,0.3,1c0.2,0.2,0.5,0.3,0.9,0.3
						c0.4,0,0.7-0.1,0.9-0.3c0.2-0.2,0.3-0.5,0.3-1V258H295.9z"/>
					<path d="M299.9,258.3c0.3-0.2,0.7-0.3,1.1-0.3v2h-0.5c-0.5,0-0.8,0.1-1.1,0.3c-0.2,0.2-0.4,0.6-0.4,1.1v2.8h-1.9V258h1.9v1.1
						C299.3,258.8,299.6,258.5,299.9,258.3z"/>
					<path d="M313.3,258l-1.7,6.1h-2.1l-1-4l-1,4h-2.1l-1.7-6.1h1.9l0.9,4.4l1-4.4h2l1,4.4l0.9-4.4H313.3z"/>
					<path d="M319.7,261.5h-4.2c0,0.4,0.1,0.7,0.4,0.9c0.2,0.2,0.5,0.3,0.8,0.3c0.5,0,0.8-0.2,1-0.6h2c-0.1,0.4-0.3,0.8-0.6,1.1
						c-0.3,0.3-0.6,0.6-1,0.8c-0.4,0.2-0.9,0.3-1.4,0.3c-0.6,0-1.1-0.1-1.6-0.4c-0.5-0.3-0.8-0.6-1.1-1.1c-0.3-0.5-0.4-1-0.4-1.7
						s0.1-1.2,0.4-1.7c0.3-0.5,0.6-0.8,1.1-1.1c0.5-0.3,1-0.4,1.6-0.4c0.6,0,1.1,0.1,1.6,0.4c0.5,0.2,0.8,0.6,1.1,1.1
						c0.3,0.5,0.4,1,0.4,1.6C319.7,261.1,319.7,261.3,319.7,261.5z M317.8,260.5c0-0.4-0.1-0.6-0.3-0.8c-0.2-0.2-0.5-0.3-0.8-0.3
						c-0.3,0-0.6,0.1-0.8,0.3c-0.2,0.2-0.3,0.5-0.4,0.8H317.8z"/>
					<path d="M323.4,258.2c0.3-0.2,0.7-0.3,1.1-0.3c0.5,0,1,0.1,1.4,0.4c0.4,0.3,0.7,0.6,1,1.1c0.2,0.5,0.4,1,0.4,1.7
						c0,0.6-0.1,1.2-0.4,1.7c-0.2,0.5-0.6,0.8-1,1.1c-0.4,0.3-0.9,0.4-1.4,0.4c-0.4,0-0.8-0.1-1.1-0.3c-0.3-0.2-0.6-0.4-0.8-0.7v0.9
						h-1.9V256h1.9v2.9C322.8,258.6,323,258.4,323.4,258.2z M324.9,260c-0.3-0.3-0.6-0.4-1-0.4c-0.4,0-0.7,0.1-0.9,0.4
						c-0.3,0.3-0.4,0.6-0.4,1.1c0,0.5,0.1,0.8,0.4,1.1c0.3,0.3,0.6,0.4,0.9,0.4s0.7-0.1,1-0.4c0.3-0.3,0.4-0.6,0.4-1.1
						C325.3,260.6,325.2,260.2,324.9,260z"/>
					<path d="M329.3,264c-0.4-0.2-0.7-0.4-1-0.8c-0.2-0.3-0.4-0.7-0.4-1.1h1.9c0,0.2,0.1,0.4,0.3,0.5c0.2,0.1,0.4,0.2,0.7,0.2
						c0.2,0,0.4,0,0.5-0.1s0.2-0.2,0.2-0.4c0-0.2-0.1-0.3-0.3-0.4c-0.2-0.1-0.5-0.2-0.9-0.3c-0.4-0.1-0.8-0.2-1.1-0.3
						c-0.3-0.1-0.5-0.3-0.7-0.5c-0.2-0.2-0.3-0.6-0.3-1c0-0.4,0.1-0.7,0.3-1c0.2-0.3,0.5-0.5,0.9-0.7s0.8-0.3,1.3-0.3
						c0.8,0,1.4,0.2,1.8,0.6c0.4,0.4,0.7,0.9,0.8,1.5h-1.7c0-0.2-0.1-0.4-0.3-0.5c-0.2-0.1-0.4-0.2-0.6-0.2c-0.2,0-0.4,0-0.5,0.1
						c-0.1,0.1-0.2,0.2-0.2,0.4c0,0.2,0.1,0.3,0.3,0.4c0.2,0.1,0.5,0.2,0.9,0.3c0.4,0.1,0.8,0.2,1.1,0.3c0.3,0.1,0.5,0.3,0.8,0.5
						c0.2,0.3,0.3,0.6,0.3,1c0,0.4-0.1,0.7-0.3,1c-0.2,0.3-0.5,0.5-0.9,0.7c-0.4,0.2-0.8,0.2-1.3,0.2
						C330.1,264.2,329.7,264.1,329.3,264z"/>
					<path d="M334.5,257.1c-0.2-0.2-0.3-0.4-0.3-0.7c0-0.3,0.1-0.5,0.3-0.7c0.2-0.2,0.5-0.3,0.8-0.3c0.3,0,0.6,0.1,0.8,0.3
						c0.2,0.2,0.3,0.4,0.3,0.7c0,0.3-0.1,0.5-0.3,0.7c-0.2,0.2-0.5,0.3-0.8,0.3C334.9,257.4,334.7,257.3,334.5,257.1z M336.2,258
						v6.1h-1.9V258H336.2z"/>
					<path d="M341,262.5v1.6h-1c-0.7,0-1.2-0.2-1.6-0.5c-0.4-0.3-0.6-0.9-0.6-1.6v-2.4h-0.7V258h0.7v-1.5h1.9v1.5h1.2v1.6h-1.2v2.5
						c0,0.2,0,0.3,0.1,0.4c0.1,0.1,0.2,0.1,0.4,0.1H341z"/>
					<path d="M347.8,261.5h-4.2c0,0.4,0.1,0.7,0.4,0.9c0.2,0.2,0.5,0.3,0.8,0.3c0.5,0,0.8-0.2,1-0.6h2c-0.1,0.4-0.3,0.8-0.6,1.1
						c-0.3,0.3-0.6,0.6-1,0.8c-0.4,0.2-0.9,0.3-1.4,0.3c-0.6,0-1.1-0.1-1.6-0.4c-0.5-0.3-0.8-0.6-1.1-1.1c-0.3-0.5-0.4-1-0.4-1.7
						s0.1-1.2,0.4-1.7c0.3-0.5,0.6-0.8,1.1-1.1c0.5-0.3,1-0.4,1.6-0.4c0.6,0,1.1,0.1,1.6,0.4c0.5,0.2,0.8,0.6,1.1,1.1
						c0.3,0.5,0.4,1,0.4,1.6C347.8,261.1,347.8,261.3,347.8,261.5z M345.9,260.5c0-0.4-0.1-0.6-0.3-0.8c-0.2-0.2-0.5-0.3-0.8-0.3
						c-0.3,0-0.6,0.1-0.8,0.3c-0.2,0.2-0.3,0.5-0.4,0.8H345.9z"/>
					<path d="M354.1,262.4l1.3-4.4h2l-2.2,6.1h-2.3l-2.2-6.1h2L354.1,262.4z"/>
					<path d="M358.3,257.1c-0.2-0.2-0.3-0.4-0.3-0.7c0-0.3,0.1-0.5,0.3-0.7c0.2-0.2,0.5-0.3,0.8-0.3c0.3,0,0.6,0.1,0.8,0.3
						c0.2,0.2,0.3,0.4,0.3,0.7c0,0.3-0.1,0.5-0.3,0.7c-0.2,0.2-0.5,0.3-0.8,0.3C358.8,257.4,358.5,257.3,358.3,257.1z M360.1,258
						v6.1h-1.9V258H360.1z"/>
					<path d="M362.5,264c-0.4-0.2-0.7-0.4-1-0.8c-0.2-0.3-0.4-0.7-0.4-1.1h1.9c0,0.2,0.1,0.4,0.3,0.5c0.2,0.1,0.4,0.2,0.7,0.2
						c0.2,0,0.4,0,0.5-0.1c0.1-0.1,0.2-0.2,0.2-0.4c0-0.2-0.1-0.3-0.3-0.4c-0.2-0.1-0.5-0.2-0.9-0.3c-0.4-0.1-0.8-0.2-1.1-0.3
						c-0.3-0.1-0.5-0.3-0.7-0.5c-0.2-0.2-0.3-0.6-0.3-1c0-0.4,0.1-0.7,0.3-1c0.2-0.3,0.5-0.5,0.9-0.7s0.8-0.3,1.3-0.3
						c0.8,0,1.4,0.2,1.8,0.6c0.4,0.4,0.7,0.9,0.8,1.5h-1.7c0-0.2-0.1-0.4-0.3-0.5s-0.4-0.2-0.6-0.2c-0.2,0-0.4,0-0.5,0.1
						c-0.1,0.1-0.2,0.2-0.2,0.4c0,0.2,0.1,0.3,0.3,0.4c0.2,0.1,0.5,0.2,0.9,0.3c0.4,0.1,0.8,0.2,1.1,0.3c0.3,0.1,0.5,0.3,0.8,0.5
						c0.2,0.3,0.3,0.6,0.3,1c0,0.4-0.1,0.7-0.3,1c-0.2,0.3-0.5,0.5-0.9,0.7c-0.4,0.2-0.8,0.2-1.3,0.2
						C363.4,264.2,362.9,264.1,362.5,264z"/>
					<path d="M367.7,257.1c-0.2-0.2-0.3-0.4-0.3-0.7c0-0.3,0.1-0.5,0.3-0.7c0.2-0.2,0.5-0.3,0.8-0.3c0.3,0,0.6,0.1,0.8,0.3
						c0.2,0.2,0.3,0.4,0.3,0.7c0,0.3-0.1,0.5-0.3,0.7c-0.2,0.2-0.5,0.3-0.8,0.3C368.2,257.4,367.9,257.3,367.7,257.1z M369.4,258
						v6.1h-1.9V258H369.4z"/>
					<path d="M374.2,262.5v1.6h-1c-0.7,0-1.2-0.2-1.6-0.5c-0.4-0.3-0.6-0.9-0.6-1.6v-2.4h-0.7V258h0.7v-1.5h1.9v1.5h1.2v1.6H373v2.5
						c0,0.2,0,0.3,0.1,0.4c0.1,0.1,0.2,0.1,0.4,0.1H374.2z"/>
					<path d="M376.4,263.8c-0.5-0.3-0.9-0.6-1.1-1.1c-0.3-0.5-0.4-1-0.4-1.7c0-0.6,0.1-1.2,0.4-1.7c0.3-0.5,0.7-0.8,1.1-1.1
						c0.5-0.3,1-0.4,1.6-0.4c0.6,0,1.1,0.1,1.6,0.4c0.5,0.3,0.9,0.6,1.1,1.1c0.3,0.5,0.4,1,0.4,1.7c0,0.6-0.1,1.2-0.4,1.7
						c-0.3,0.5-0.7,0.8-1.2,1.1c-0.5,0.3-1,0.4-1.6,0.4C377.4,264.2,376.9,264.1,376.4,263.8z M379,262.2c0.3-0.3,0.4-0.6,0.4-1.1
						s-0.1-0.9-0.4-1.1c-0.2-0.3-0.5-0.4-0.9-0.4c-0.4,0-0.7,0.1-0.9,0.4c-0.2,0.3-0.4,0.6-0.4,1.1c0,0.5,0.1,0.9,0.4,1.1
						c0.2,0.3,0.5,0.4,0.9,0.4C378.4,262.6,378.7,262.5,379,262.2z"/>
					<path d="M384.9,258.3c0.3-0.2,0.7-0.3,1.1-0.3v2h-0.5c-0.5,0-0.8,0.1-1.1,0.3c-0.2,0.2-0.4,0.6-0.4,1.1v2.8h-1.9V258h1.9v1.1
						C384.3,258.8,384.6,258.5,384.9,258.3z"/>
					<path d="M388,264c-0.4-0.2-0.7-0.4-1-0.8c-0.2-0.3-0.4-0.7-0.4-1.1h1.9c0,0.2,0.1,0.4,0.3,0.5c0.2,0.1,0.4,0.2,0.7,0.2
						c0.2,0,0.4,0,0.5-0.1c0.1-0.1,0.2-0.2,0.2-0.4c0-0.2-0.1-0.3-0.3-0.4c-0.2-0.1-0.5-0.2-0.9-0.3c-0.4-0.1-0.8-0.2-1.1-0.3
						c-0.3-0.1-0.5-0.3-0.7-0.5c-0.2-0.2-0.3-0.6-0.3-1c0-0.4,0.1-0.7,0.3-1c0.2-0.3,0.5-0.5,0.9-0.7s0.8-0.3,1.3-0.3
						c0.8,0,1.4,0.2,1.8,0.6c0.4,0.4,0.7,0.9,0.8,1.5h-1.7c0-0.2-0.1-0.4-0.3-0.5s-0.4-0.2-0.6-0.2c-0.2,0-0.4,0-0.5,0.1
						c-0.1,0.1-0.2,0.2-0.2,0.4c0,0.2,0.1,0.3,0.3,0.4c0.2,0.1,0.5,0.2,0.9,0.3c0.4,0.1,0.8,0.2,1.1,0.3c0.3,0.1,0.5,0.3,0.8,0.5
						c0.2,0.3,0.3,0.6,0.3,1c0,0.4-0.1,0.7-0.3,1c-0.2,0.3-0.5,0.5-0.9,0.7c-0.4,0.2-0.8,0.2-1.3,0.2
						C388.9,264.2,388.4,264.1,388,264z"/>
				</g>
			</g>
			<g>
				<g>
					<path d="M231.1,277.7c0.3-0.6,0.8-1.1,1.4-1.4c0.6-0.3,1.3-0.5,2-0.5c0.9,0,1.7,0.2,2.3,0.7c0.6,0.4,1.1,1.1,1.3,1.9H236
						c-0.1-0.3-0.3-0.5-0.6-0.6c-0.3-0.1-0.6-0.2-0.9-0.2c-0.6,0-1.1,0.2-1.5,0.6c-0.4,0.4-0.5,0.9-0.5,1.6c0,0.7,0.2,1.3,0.6,1.7
						c0.4,0.4,0.9,0.6,1.6,0.6c0.5,0,0.9-0.1,1.2-0.4c0.3-0.2,0.6-0.6,0.7-1h-2.4v-1.4h4.1v1.7c-0.1,0.5-0.4,0.9-0.7,1.3
						c-0.3,0.4-0.8,0.7-1.3,1c-0.5,0.2-1.1,0.4-1.7,0.4c-0.8,0-1.4-0.2-2-0.5c-0.6-0.3-1.1-0.8-1.4-1.4c-0.3-0.6-0.5-1.3-0.5-2
						C230.6,278.9,230.7,278.3,231.1,277.7z"/>
					<path d="M245,280.9h-4.2c0,0.4,0.1,0.7,0.4,0.9c0.2,0.2,0.5,0.3,0.8,0.3c0.5,0,0.8-0.2,1-0.6h2c-0.1,0.4-0.3,0.8-0.6,1.1
						c-0.3,0.3-0.6,0.6-1,0.8c-0.4,0.2-0.9,0.3-1.4,0.3c-0.6,0-1.1-0.1-1.6-0.4c-0.5-0.3-0.8-0.6-1.1-1.1c-0.3-0.5-0.4-1-0.4-1.7
						s0.1-1.2,0.4-1.7c0.3-0.5,0.6-0.8,1.1-1.1c0.5-0.3,1-0.4,1.6-0.4c0.6,0,1.1,0.1,1.6,0.4c0.5,0.2,0.8,0.6,1.1,1.1
						c0.3,0.5,0.4,1,0.4,1.6C245,280.6,245,280.7,245,280.9z M243.1,280c0-0.4-0.1-0.6-0.3-0.8c-0.2-0.2-0.5-0.3-0.8-0.3
						c-0.3,0-0.6,0.1-0.8,0.3c-0.2,0.2-0.3,0.5-0.4,0.8H243.1z"/>
					<path d="M249.4,282v1.6h-1c-0.7,0-1.2-0.2-1.6-0.5c-0.4-0.3-0.6-0.9-0.6-1.6V279h-0.7v-1.6h0.7v-1.5h1.9v1.5h1.2v1.6h-1.2v2.5
						c0,0.2,0,0.3,0.1,0.4c0.1,0.1,0.2,0.1,0.4,0.1H249.4z"/>
					<path d="M262.6,278.1c0.5,0.5,0.7,1.1,0.7,1.9v3.6h-1.9v-3.3c0-0.4-0.1-0.7-0.3-0.9c-0.2-0.2-0.5-0.3-0.9-0.3
						c-0.4,0-0.7,0.1-0.9,0.3c-0.2,0.2-0.3,0.5-0.3,0.9v3.3h-1.9v-3.3c0-0.4-0.1-0.7-0.3-0.9c-0.2-0.2-0.5-0.3-0.9-0.3
						c-0.4,0-0.7,0.1-0.9,0.3c-0.2,0.2-0.3,0.5-0.3,0.9v3.3H253v-6.1h1.9v0.8c0.2-0.3,0.4-0.5,0.7-0.6c0.3-0.1,0.7-0.2,1-0.2
						c0.5,0,0.9,0.1,1.2,0.3c0.4,0.2,0.6,0.5,0.9,0.8c0.2-0.3,0.5-0.6,0.9-0.8c0.4-0.2,0.8-0.3,1.2-0.3
						C261.6,277.4,262.2,277.6,262.6,278.1z"/>
					<path d="M265.8,283.3c-0.5-0.3-0.9-0.6-1.1-1.1c-0.3-0.5-0.4-1-0.4-1.7c0-0.6,0.1-1.2,0.4-1.7c0.3-0.5,0.7-0.8,1.1-1.1
						c0.5-0.3,1-0.4,1.6-0.4c0.6,0,1.1,0.1,1.6,0.4c0.5,0.3,0.9,0.6,1.1,1.1c0.3,0.5,0.4,1,0.4,1.7s-0.1,1.2-0.4,1.7
						s-0.7,0.8-1.2,1.1c-0.5,0.3-1,0.4-1.6,0.4C266.8,283.6,266.3,283.5,265.8,283.3z M268.3,281.6c0.3-0.3,0.4-0.6,0.4-1.1
						s-0.1-0.9-0.4-1.1c-0.2-0.3-0.5-0.4-0.9-0.4c-0.4,0-0.7,0.1-0.9,0.4c-0.2,0.3-0.4,0.6-0.4,1.1c0,0.5,0.1,0.9,0.4,1.1
						c0.2,0.3,0.5,0.4,0.9,0.4C267.8,282,268.1,281.9,268.3,281.6z"/>
					<path d="M274.3,277.7c0.3-0.2,0.7-0.3,1.1-0.3v2h-0.5c-0.5,0-0.8,0.1-1.1,0.3c-0.2,0.2-0.4,0.6-0.4,1.1v2.8h-1.9v-6.1h1.9v1.1
						C273.7,278.2,274,277.9,274.3,277.7z"/>
					<path d="M282.1,280.9h-4.2c0,0.4,0.1,0.7,0.4,0.9c0.2,0.2,0.5,0.3,0.8,0.3c0.5,0,0.8-0.2,1-0.6h2c-0.1,0.4-0.3,0.8-0.6,1.1
						c-0.3,0.3-0.6,0.6-1,0.8c-0.4,0.2-0.9,0.3-1.4,0.3c-0.6,0-1.1-0.1-1.6-0.4c-0.5-0.3-0.8-0.6-1.1-1.1c-0.3-0.5-0.4-1-0.4-1.7
						s0.1-1.2,0.4-1.7c0.3-0.5,0.6-0.8,1.1-1.1c0.5-0.3,1-0.4,1.6-0.4c0.6,0,1.1,0.1,1.6,0.4c0.5,0.2,0.8,0.6,1.1,1.1
						c0.3,0.5,0.4,1,0.4,1.6C282.1,280.6,282.1,280.7,282.1,280.9z M280.2,280c0-0.4-0.1-0.6-0.3-0.8c-0.2-0.2-0.5-0.3-0.8-0.3
						c-0.3,0-0.6,0.1-0.8,0.3c-0.2,0.2-0.3,0.5-0.4,0.8H280.2z"/>
					<path d="M285.6,278.8c0.2-0.5,0.6-0.8,1-1.1c0.4-0.3,0.9-0.4,1.4-0.4c0.4,0,0.8,0.1,1.1,0.3c0.3,0.2,0.6,0.4,0.8,0.7v-2.8h1.9
						v8.1h-1.9v-0.9c-0.2,0.3-0.4,0.5-0.8,0.7c-0.3,0.2-0.7,0.3-1.1,0.3c-0.5,0-1-0.1-1.4-0.4c-0.4-0.3-0.7-0.6-1-1.1
						c-0.2-0.5-0.4-1-0.4-1.7C285.3,279.9,285.4,279.3,285.6,278.8z M289.5,279.4c-0.3-0.3-0.6-0.4-0.9-0.4s-0.7,0.1-0.9,0.4
						c-0.3,0.3-0.4,0.6-0.4,1.1c0,0.5,0.1,0.8,0.4,1.1c0.3,0.3,0.6,0.4,0.9,0.4s0.7-0.1,0.9-0.4c0.3-0.3,0.4-0.6,0.4-1.1
						C289.8,280,289.7,279.7,289.5,279.4z"/>
					<path d="M298.8,280.9h-4.2c0,0.4,0.1,0.7,0.4,0.9c0.2,0.2,0.5,0.3,0.8,0.3c0.5,0,0.8-0.2,1-0.6h2c-0.1,0.4-0.3,0.8-0.6,1.1
						c-0.3,0.3-0.6,0.6-1,0.8c-0.4,0.2-0.9,0.3-1.4,0.3c-0.6,0-1.1-0.1-1.6-0.4c-0.5-0.3-0.8-0.6-1.1-1.1c-0.3-0.5-0.4-1-0.4-1.7
						s0.1-1.2,0.4-1.7c0.3-0.5,0.6-0.8,1.1-1.1c0.5-0.3,1-0.4,1.6-0.4c0.6,0,1.1,0.1,1.6,0.4c0.5,0.2,0.8,0.6,1.1,1.1
						c0.3,0.5,0.4,1,0.4,1.6C298.9,280.6,298.9,280.7,298.8,280.9z M296.9,280c0-0.4-0.1-0.6-0.3-0.8c-0.2-0.2-0.5-0.3-0.8-0.3
						c-0.3,0-0.6,0.1-0.8,0.3c-0.2,0.2-0.3,0.5-0.4,0.8H296.9z"/>
					<path d="M309.5,278.1c0.5,0.5,0.7,1.1,0.7,1.9v3.6h-1.9v-3.3c0-0.4-0.1-0.7-0.3-0.9c-0.2-0.2-0.5-0.3-0.9-0.3
						c-0.4,0-0.7,0.1-0.9,0.3c-0.2,0.2-0.3,0.5-0.3,0.9v3.3h-1.9v-3.3c0-0.4-0.1-0.7-0.3-0.9c-0.2-0.2-0.5-0.3-0.9-0.3
						c-0.4,0-0.7,0.1-0.9,0.3c-0.2,0.2-0.3,0.5-0.3,0.9v3.3h-1.9v-6.1h1.9v0.8c0.2-0.3,0.4-0.5,0.7-0.6c0.3-0.1,0.7-0.2,1-0.2
						c0.5,0,0.9,0.1,1.2,0.3c0.4,0.2,0.6,0.5,0.9,0.8c0.2-0.3,0.5-0.6,0.9-0.8c0.4-0.2,0.8-0.3,1.2-0.3
						C308.4,277.4,309,277.6,309.5,278.1z"/>
					<path d="M312.6,283.3c-0.5-0.3-0.9-0.6-1.1-1.1c-0.3-0.5-0.4-1-0.4-1.7c0-0.6,0.1-1.2,0.4-1.7c0.3-0.5,0.7-0.8,1.1-1.1
						c0.5-0.3,1-0.4,1.6-0.4c0.6,0,1.1,0.1,1.6,0.4c0.5,0.3,0.9,0.6,1.1,1.1c0.3,0.5,0.4,1,0.4,1.7s-0.1,1.2-0.4,1.7
						s-0.7,0.8-1.2,1.1c-0.5,0.3-1,0.4-1.6,0.4C313.7,283.6,313.1,283.5,312.6,283.3z M315.2,281.6c0.3-0.3,0.4-0.6,0.4-1.1
						s-0.1-0.9-0.4-1.1c-0.2-0.3-0.5-0.4-0.9-0.4c-0.4,0-0.7,0.1-0.9,0.4c-0.2,0.3-0.4,0.6-0.4,1.1c0,0.5,0.1,0.9,0.4,1.1
						c0.2,0.3,0.5,0.4,0.9,0.4C314.6,282,314.9,281.9,315.2,281.6z"/>
					<path d="M323.7,277.7c0.3-0.2,0.7-0.3,1.1-0.3v2h-0.5c-0.5,0-0.8,0.1-1.1,0.3c-0.2,0.2-0.4,0.6-0.4,1.1v2.8H321v-6.1h1.9v1.1
						C323.1,278.2,323.4,277.9,323.7,277.7z"/>
					<path d="M331.5,280.9h-4.2c0,0.4,0.1,0.7,0.4,0.9c0.2,0.2,0.5,0.3,0.8,0.3c0.5,0,0.8-0.2,1-0.6h2c-0.1,0.4-0.3,0.8-0.6,1.1
						c-0.3,0.3-0.6,0.6-1,0.8c-0.4,0.2-0.9,0.3-1.4,0.3c-0.6,0-1.1-0.1-1.6-0.4c-0.5-0.3-0.8-0.6-1.1-1.1c-0.3-0.5-0.4-1-0.4-1.7
						s0.1-1.2,0.4-1.7c0.3-0.5,0.6-0.8,1.1-1.1c0.5-0.3,1-0.4,1.6-0.4c0.6,0,1.1,0.1,1.6,0.4c0.5,0.2,0.8,0.6,1.1,1.1
						c0.3,0.5,0.4,1,0.4,1.6C331.5,280.6,331.5,280.7,331.5,280.9z M329.6,280c0-0.4-0.1-0.6-0.3-0.8c-0.2-0.2-0.5-0.3-0.8-0.3
						c-0.3,0-0.6,0.1-0.8,0.3c-0.2,0.2-0.3,0.5-0.4,0.8H329.6z"/>
					<path d="M332.5,278.9c0.3-0.5,0.6-0.8,1-1.1c0.4-0.3,0.9-0.4,1.4-0.4c0.4,0,0.7,0.1,1,0.2c0.3,0.1,0.6,0.3,0.7,0.6v-0.7h1.9v9
						h-1.9v-3.7c-0.2,0.3-0.5,0.5-0.8,0.6s-0.6,0.2-1,0.2c-0.5,0-1-0.1-1.4-0.4c-0.4-0.3-0.8-0.6-1-1.1c-0.3-0.5-0.4-1-0.4-1.6
						C332.1,279.9,332.2,279.4,332.5,278.9z M336.5,279.7c-0.1-0.2-0.3-0.4-0.5-0.5c-0.2-0.1-0.4-0.2-0.6-0.2
						c-0.2,0-0.4,0.1-0.6,0.2c-0.2,0.1-0.4,0.3-0.5,0.5c-0.1,0.2-0.2,0.5-0.2,0.8c0,0.3,0.1,0.6,0.2,0.8s0.3,0.4,0.5,0.5
						c0.2,0.1,0.4,0.2,0.6,0.2s0.4-0.1,0.6-0.2c0.2-0.1,0.4-0.3,0.5-0.5c0.1-0.2,0.2-0.5,0.2-0.8
						C336.7,280.2,336.6,279.9,336.5,279.7z"/>
					<path d="M346,277.4v6.1h-1.9v-0.8c-0.2,0.3-0.4,0.5-0.8,0.7c-0.3,0.2-0.7,0.2-1.1,0.2c-0.5,0-0.9-0.1-1.2-0.3
						c-0.4-0.2-0.6-0.5-0.8-0.9c-0.2-0.4-0.3-0.9-0.3-1.4v-3.6h1.9v3.3c0,0.4,0.1,0.7,0.3,1c0.2,0.2,0.5,0.3,0.9,0.3
						c0.4,0,0.7-0.1,0.9-0.3c0.2-0.2,0.3-0.5,0.3-1v-3.3H346z"/>
					<path d="M353.1,280.9h-4.2c0,0.4,0.1,0.7,0.4,0.9c0.2,0.2,0.5,0.3,0.8,0.3c0.5,0,0.8-0.2,1-0.6h2c-0.1,0.4-0.3,0.8-0.6,1.1
						c-0.3,0.3-0.6,0.6-1,0.8c-0.4,0.2-0.9,0.3-1.4,0.3c-0.6,0-1.1-0.1-1.6-0.4c-0.5-0.3-0.8-0.6-1.1-1.1c-0.3-0.5-0.4-1-0.4-1.7
						s0.1-1.2,0.4-1.7c0.3-0.5,0.6-0.8,1.1-1.1c0.5-0.3,1-0.4,1.6-0.4c0.6,0,1.1,0.1,1.6,0.4c0.5,0.2,0.8,0.6,1.1,1.1
						c0.3,0.5,0.4,1,0.4,1.6C353.1,280.6,353.1,280.7,353.1,280.9z M351.2,280c0-0.4-0.1-0.6-0.3-0.8c-0.2-0.2-0.5-0.3-0.8-0.3
						c-0.3,0-0.6,0.1-0.8,0.3c-0.2,0.2-0.3,0.5-0.4,0.8H351.2z"/>
					<path d="M355.2,283.4c-0.4-0.2-0.7-0.4-1-0.8c-0.2-0.3-0.4-0.7-0.4-1.1h1.9c0,0.2,0.1,0.4,0.3,0.5c0.2,0.1,0.4,0.2,0.7,0.2
						c0.2,0,0.4,0,0.5-0.1s0.2-0.2,0.2-0.4c0-0.2-0.1-0.3-0.3-0.4c-0.2-0.1-0.5-0.2-0.9-0.3c-0.4-0.1-0.8-0.2-1.1-0.3
						c-0.3-0.1-0.5-0.3-0.7-0.5c-0.2-0.2-0.3-0.6-0.3-1c0-0.4,0.1-0.7,0.3-1c0.2-0.3,0.5-0.5,0.9-0.7c0.4-0.2,0.8-0.3,1.3-0.3
						c0.8,0,1.4,0.2,1.8,0.6c0.4,0.4,0.7,0.9,0.8,1.5h-1.7c0-0.2-0.1-0.4-0.3-0.5c-0.2-0.1-0.4-0.2-0.6-0.2c-0.2,0-0.4,0-0.5,0.1
						c-0.1,0.1-0.2,0.2-0.2,0.4c0,0.2,0.1,0.3,0.3,0.4c0.2,0.1,0.5,0.2,0.9,0.3c0.4,0.1,0.8,0.2,1.1,0.3c0.3,0.1,0.5,0.3,0.8,0.5
						c0.2,0.3,0.3,0.6,0.3,1c0,0.4-0.1,0.7-0.3,1c-0.2,0.3-0.5,0.5-0.9,0.7c-0.4,0.2-0.8,0.2-1.3,0.2
						C356,283.6,355.6,283.6,355.2,283.4z"/>
					<path d="M363.6,282v1.6h-1c-0.7,0-1.2-0.2-1.6-0.5s-0.6-0.9-0.6-1.6V279h-0.7v-1.6h0.7v-1.5h1.9v1.5h1.2v1.6h-1.2v2.5
						c0,0.2,0,0.3,0.1,0.4c0.1,0.1,0.2,0.1,0.4,0.1H363.6z"/>
					<path d="M365.7,283.4c-0.4-0.2-0.7-0.4-1-0.8c-0.2-0.3-0.4-0.7-0.4-1.1h1.9c0,0.2,0.1,0.4,0.3,0.5c0.2,0.1,0.4,0.2,0.7,0.2
						c0.2,0,0.4,0,0.5-0.1c0.1-0.1,0.2-0.2,0.2-0.4c0-0.2-0.1-0.3-0.3-0.4c-0.2-0.1-0.5-0.2-0.9-0.3c-0.4-0.1-0.8-0.2-1.1-0.3
						c-0.3-0.1-0.5-0.3-0.7-0.5c-0.2-0.2-0.3-0.6-0.3-1c0-0.4,0.1-0.7,0.3-1c0.2-0.3,0.5-0.5,0.9-0.7c0.4-0.2,0.8-0.3,1.3-0.3
						c0.8,0,1.4,0.2,1.8,0.6c0.4,0.4,0.7,0.9,0.8,1.5h-1.7c0-0.2-0.1-0.4-0.3-0.5c-0.2-0.1-0.4-0.2-0.6-0.2c-0.2,0-0.4,0-0.5,0.1
						c-0.1,0.1-0.2,0.2-0.2,0.4c0,0.2,0.1,0.3,0.3,0.4c0.2,0.1,0.5,0.2,0.9,0.3c0.4,0.1,0.8,0.2,1.1,0.3c0.3,0.1,0.5,0.3,0.8,0.5
						c0.2,0.3,0.3,0.6,0.3,1c0,0.4-0.1,0.7-0.3,1c-0.2,0.3-0.5,0.5-0.9,0.7c-0.4,0.2-0.8,0.2-1.3,0.2
						C366.6,283.6,366.2,283.6,365.7,283.4z"/>
				</g>
			</g>
		</g>
	</g>
	<g>
		<path class="st18" d="M32.8,40.4c-7.9,1.7-9.3,3.1-11,11c-1.7-7.9-3.1-9.3-11-11c7.9-1.7,9.3-3.1,11-11
			C23.6,37.2,24.9,38.6,32.8,40.4z"/>
		<path class="st18" d="M54.2,37.2c-4.1,1-4.8,1.7-5.7,6.2c-0.9-4.4-1.6-5.2-5.7-6.2c4.1-1,4.8-1.7,5.7-6.2
			C49.4,35.4,50.1,36.2,54.2,37.2z"/>
		<path class="st18" d="M17.8,61.6c-2.5,0.6-2.9,1.1-3.5,3.7c-0.5-2.7-1-3.2-3.5-3.7c2.5-0.6,2.9-1.1,3.5-3.7
			C14.8,60.5,15.3,61,17.8,61.6z"/>
	</g>
</g>
</svg>
