<?xml version="1.0" encoding="utf-8"?>
<!-- Generator: Adobe Illustrator 28.4.1, SVG Export Plug-In . SVG Version: 6.00 Build 0)  -->
<svg version="1.1" id="Layer_1" xmlns="http://www.w3.org/2000/svg" xmlns:xlink="http://www.w3.org/1999/xlink" x="0px" y="0px"
	 viewBox="0 0 490 375" style="enable-background:new 0 0 490 375;" xml:space="preserve">
<style type="text/css">
	.st0{fill:#EEF7FF;}
	.st1{fill:#DCE9FF;}
	.st2{fill:#F08577;}
	.st3{fill:#FFFFFF;}
	.st4{fill:#0866FF;}
	.st5{fill:#FF9F06;}
	.st6{fill:#3EA9F5;}
	.st7{font-family:'Poppins-SemiBold';}
	.st8{font-size:28px;}
</style>
<g>
	<g>
		<path class="st0" d="M744-14.3v227.8c0,2.6-2.6,4.8-5.7,4.8H610.1c-3.2,0-5.7-2.1-5.7-4.8V-14.3c0-2.6,2.6-4.8,5.7-4.8h128.2
			C741.4-19,744-16.9,744-14.3z"/>
	</g>
</g>
<g>
	<path class="st1" d="M716.8,138.7h-70.2c-3.8,0-6.9,2.9-6.9,6.5v3v3v6.5h6.9h5.3h64.9c3.8,0,6.9-2.9,6.9-6.5v-5.9
		C723.8,141.6,720.7,138.7,716.8,138.7z"/>
	<g>
		<ellipse class="st2" cx="623.9" cy="148.1" rx="11.9" ry="11.2"/>
		<g>
			<path class="st3" d="M630.4,148.5v4.8c0,0.4-0.3,0.8-0.8,0.8h-7c-0.2,0-0.3,0.1-0.5,0.2l-0.6,0.6l-0.5,0.5
				c-0.2,0.2-0.5,0.2-0.6,0l-0.5-0.5l-0.6-0.6c-0.1-0.1-0.3-0.2-0.5-0.2h-0.6c-0.4,0-0.8-0.3-0.8-0.8v-5.5v-5.5
				c0-0.4,0.3-0.8,0.8-0.8h4.9c0.4,0,0.8,0.3,0.8,0.8v4.8c0,0.4,0.3,0.8,0.8,0.8h4.9C630.1,147.8,630.4,148.1,630.4,148.5z"/>
			<path class="st3" d="M625.5,146.7h4.5c0.3,0,0.5-0.2,0.5-0.5v-4.4c0-0.3-0.2-0.5-0.5-0.5h-4.5c-0.3,0-0.5,0.2-0.5,0.5v4.4
				C625,146.5,625.2,146.7,625.5,146.7z"/>
		</g>
	</g>
</g>
<path class="st4" d="M658.5,168.2h70.2c3.8,0,6.9,4.1,6.9,9.2v4.2v4.2v9.2h-6.9h-5.3h-64.9c-3.8,0-6.9-4.1-6.9-9.2v-8.4
	C651.6,172.3,654.7,168.2,658.5,168.2z"/>
<path class="st1" d="M715.3,132.7h-67.2c-4.6,0-8.4-3.8-8.4-8.4V108c0-4.6,3.8-8.4,8.4-8.4h67.2c4.6,0,8.4,3.8,8.4,8.4v16.2
	C723.8,128.9,720,132.7,715.3,132.7z"/>
<g>
	<path class="st1" d="M547.5-92.4h-70.2c-3.8,0-6.9,2.9-6.9,6.5v3v3v6.5h6.9h5.3h64.9c3.8,0,6.9-2.9,6.9-6.5v-5.9
		C554.4-89.5,551.3-92.4,547.5-92.4z"/>
	<g>
		<ellipse class="st2" cx="454.6" cy="-83" rx="11.9" ry="11.2"/>
		<g>
			<path class="st3" d="M461-82.6v4.8c0,0.4-0.3,0.8-0.8,0.8h-7c-0.2,0-0.3,0.1-0.5,0.2l-0.6,0.6l-0.5,0.5c-0.2,0.2-0.5,0.2-0.6,0
				l-0.5-0.5l-0.6-0.6c-0.1-0.1-0.3-0.2-0.5-0.2h-0.6c-0.4,0-0.8-0.3-0.8-0.8v-5.5v-5.5c0-0.4,0.3-0.8,0.8-0.8h4.9
				c0.4,0,0.8,0.3,0.8,0.8v4.8c0,0.4,0.3,0.8,0.8,0.8h4.9C460.7-83.3,461-83,461-82.6z"/>
			<path class="st3" d="M456.1-84.4h4.5c0.3,0,0.5-0.2,0.5-0.5v-4.4c0-0.3-0.2-0.5-0.5-0.5h-4.5c-0.3,0-0.5,0.2-0.5,0.5v4.4
				C455.6-84.6,455.8-84.4,456.1-84.4z"/>
		</g>
	</g>
</g>
<g>
	<g>
		<g>
			<path class="st0" d="M702.8,159.1v227.8c0,2.6-2.6,4.8-5.7,4.8H568.9c-3.2,0-5.7-2.1-5.7-4.8V159.1c0-2.6,2.6-4.8,5.7-4.8h128.2
				C700.3,154.3,702.8,156.4,702.8,159.1z"/>
		</g>
	</g>
	<g>
		<path class="st1" d="M675.7,312h-70.2c-3.8,0-6.9,2.9-6.9,6.5v3v3v6.5h6.9h5.3h64.9c3.8,0,6.9-2.9,6.9-6.5v-5.9
			C682.6,314.9,679.5,312,675.7,312z"/>
		<g>
			<ellipse class="st2" cx="582.8" cy="321.5" rx="11.9" ry="11.2"/>
			<g>
				<path class="st3" d="M589.3,321.9v4.8c0,0.4-0.3,0.8-0.8,0.8h-7c-0.2,0-0.3,0.1-0.5,0.2l-0.6,0.6l-0.5,0.5
					c-0.2,0.2-0.5,0.2-0.6,0l-0.5-0.5l-0.6-0.6c-0.1-0.1-0.3-0.2-0.5-0.2h-0.6c-0.4,0-0.8-0.3-0.8-0.8v-5.5v-5.5
					c0-0.4,0.3-0.8,0.8-0.8h4.9c0.4,0,0.8,0.3,0.8,0.8v4.8c0,0.4,0.3,0.8,0.8,0.8h4.9C588.9,321.1,589.3,321.4,589.3,321.9z"/>
				<path class="st3" d="M584.3,320.1h4.5c0.3,0,0.5-0.2,0.5-0.5v-4.4c0-0.3-0.2-0.5-0.5-0.5h-4.5c-0.3,0-0.5,0.2-0.5,0.5v4.4
					C583.8,319.9,584.1,320.1,584.3,320.1z"/>
			</g>
		</g>
	</g>
	<path class="st4" d="M617.3,341.5h70.2c3.8,0,6.9,4.1,6.9,9.2v4.2v4.2v9.2h-6.9h-5.3h-64.9c-3.8,0-6.9-4.1-6.9-9.2v-8.4
		C610.4,345.6,613.5,341.5,617.3,341.5z"/>
	<path class="st1" d="M674.2,306H607c-4.6,0-8.4-3.8-8.4-8.4v-16.2c0-4.6,3.8-8.4,8.4-8.4h67.2c4.6,0,8.4,3.8,8.4,8.4v16.2
		C682.6,302.3,678.8,306,674.2,306z"/>
	<path class="st4" d="M617.3,212.8h70.2c3.8,0,6.9,4.1,6.9,9.2v4.2v4.2v9.2h-6.9h-5.3h-64.9c-3.8,0-6.9-4.1-6.9-9.2V222
		C610.4,216.9,613.5,212.8,617.3,212.8z"/>
	<g>
		<path class="st1" d="M675.7,176.2h-70.2c-3.8,0-6.9,2.9-6.9,6.5v3v3v6.5h6.9h5.3h64.9c3.8,0,6.9-2.9,6.9-6.5v-5.9
			C682.6,179.1,679.5,176.2,675.7,176.2z"/>
		<g>
			<ellipse class="st2" cx="582.8" cy="185.6" rx="11.9" ry="11.2"/>
			<g>
				<path class="st3" d="M589.3,186v4.8c0,0.4-0.3,0.8-0.8,0.8h-7c-0.2,0-0.3,0.1-0.5,0.2l-0.6,0.6l-0.5,0.5c-0.2,0.2-0.5,0.2-0.6,0
					l-0.5-0.5l-0.6-0.6c-0.1-0.1-0.3-0.2-0.5-0.2h-0.6c-0.4,0-0.8-0.3-0.8-0.8v-5.5v-5.5c0-0.4,0.3-0.8,0.8-0.8h4.9
					c0.4,0,0.8,0.3,0.8,0.8v4.8c0,0.4,0.3,0.8,0.8,0.8h4.9C588.9,185.3,589.3,185.6,589.3,186z"/>
				<path class="st3" d="M584.3,184.2h4.5c0.3,0,0.5-0.2,0.5-0.5v-4.4c0-0.3-0.2-0.5-0.5-0.5h-4.5c-0.3,0-0.5,0.2-0.5,0.5v4.4
					C583.8,184,584.1,184.2,584.3,184.2z"/>
			</g>
		</g>
	</g>
</g>
<g>
	<path class="st5" d="M444.4,89.5c7.9,1.7,9.3,3.1,11,11c1.7-7.9,3.1-9.3,11-11c-7.9-1.7-9.3-3.1-11-11
		C453.7,86.4,452.3,87.8,444.4,89.5z"/>
	<path class="st5" d="M423,86.4c4.1,1,4.8,1.7,5.7,6.2c0.9-4.4,1.6-5.2,5.7-6.2c-4.1-1-4.8-1.7-5.7-6.2
		C427.9,84.6,427.1,85.4,423,86.4z"/>
	<path class="st5" d="M459.5,110.7c2.5,0.6,2.9,1.1,3.5,3.7c0.5-2.7,1-3.2,3.5-3.7c-2.5-0.6-2.9-1.1-3.5-3.7
		C462.4,109.7,462,110.2,459.5,110.7z"/>
</g>
<g id="DLnsjU.tif">
	
		<image style="overflow:visible;" width="489" height="230" id="Layer_0_00000057141490689895664420000010699512684569519023_" xlink:href="72CC5EDB1C6C3C16.png"  transform="matrix(1 0 0 1 -62.1399 476.3062)">
	</image>
</g>
<g>
	<path class="st6" d="M63.5,22.4h177c9.6,0,17.4,7.7,17.4,17.2v7.8v7.8v17.2h-17.4h-13.5H63.5c-9.6,0-17.4-7.7-17.4-17.2V39.6
		C46,30.1,53.8,22.4,63.5,22.4z"/>
	<text transform="matrix(1 0 0 1 113.7575 56.6703)" class="st3 st7 st8">Sales</text>
</g>
<g>
	<path class="st6" d="M253.7,95h177c9.6,0,17.4,7.7,17.4,17.2v7.8v7.8v17.2h-17.4h-13.5H253.7c-9.6,0-17.4-7.7-17.4-17.2v-15.6
		C236.3,102.7,244.1,95,253.7,95z"/>
	<text transform="matrix(1 0 0 1 274.1577 129.0492)" class="st3 st7 st8">Marketing</text>
</g>
<g>
	<path class="st6" d="M63.5,167.4h177c9.6,0,17.4,7.7,17.4,17.2v7.8v7.8v17.2h-17.4h-13.5H63.5c-9.6,0-17.4-7.7-17.4-17.2v-15.6
		C46,175.1,53.8,167.4,63.5,167.4z"/>
	<text transform="matrix(1 0 0 1 84.5686 201.5022)" class="st3 st7 st8">Proactive</text>
</g>
<g>
	<path class="st5" d="M50.9,17.4c-7.9,1.7-9.3,3.1-11,11c-1.7-7.9-3.1-9.3-11-11c7.9-1.7,9.3-3.1,11-11C41.6,14.3,43,15.7,50.9,17.4
		z"/>
	<path class="st5" d="M72.3,14.3c-4.1,1-4.8,1.7-5.7,6.2c-0.9-4.4-1.6-5.2-5.7-6.2c4.1-1,4.8-1.7,5.7-6.2
		C67.5,12.5,68.2,13.3,72.3,14.3z"/>
	<path class="st5" d="M35.9,38.6c-2.5,0.6-2.9,1.1-3.5,3.7c-0.5-2.7-1-3.2-3.5-3.7c2.5-0.6,2.9-1.1,3.5-3.7
		C32.9,37.6,33.4,38.1,35.9,38.6z"/>
</g>
<g>
	<path class="st5" d="M50.9,166.6c-7.9,1.7-9.3,3.1-11,11c-1.7-7.9-3.1-9.3-11-11c7.9-1.7,9.3-3.1,11-11
		C41.6,163.5,43,164.9,50.9,166.6z"/>
	<path class="st5" d="M72.3,163.4c-4.1,1-4.8,1.7-5.7,6.2c-0.9-4.4-1.6-5.2-5.7-6.2c4.1-1,4.8-1.7,5.7-6.2
		C67.5,161.7,68.2,162.5,72.3,163.4z"/>
	<path class="st5" d="M35.9,187.8c-2.5,0.6-2.9,1.1-3.5,3.7c-0.5-2.7-1-3.2-3.5-3.7c2.5-0.6,2.9-1.1,3.5-3.7
		C32.9,186.8,33.4,187.2,35.9,187.8z"/>
</g>
<g>
	<path class="st6" d="M253.7,239.1h177c9.6,0,17.4,7.7,17.4,17.2v7.8v7.8V289h-17.4h-13.5H253.7c-9.6,0-17.4-7.7-17.4-17.2v-15.6
		C236.3,246.8,244.1,239.1,253.7,239.1z"/>
	<text transform="matrix(1 0 0 1 270.7915 274.7568)" class="st3 st7 st8">Sentiment</text>
</g>
<g>
	<path class="st5" d="M444.1,233.8c7.9,1.7,9.3,3.1,11,11c1.7-7.9,3.1-9.3,11-11c-7.9-1.7-9.3-3.1-11-11
		C453.4,230.7,452,232.1,444.1,233.8z"/>
	<path class="st5" d="M422.7,230.6c4.1,1,4.8,1.7,5.7,6.2c0.9-4.4,1.6-5.2,5.7-6.2c-4.1-1-4.8-1.7-5.7-6.2
		C427.6,228.9,426.8,229.6,422.7,230.6z"/>
	<path class="st5" d="M459.2,255c2.5,0.6,2.9,1.1,3.5,3.7c0.5-2.7,1-3.2,3.5-3.7c-2.5-0.6-2.9-1.1-3.5-3.7
		C462.1,253.9,461.7,254.4,459.2,255z"/>
</g>
<g>
	<path class="st6" d="M63.5,312.7h177c9.6,0,17.4,7.7,17.4,17.2v7.8v7.8v17.2h-17.4h-13.5H63.5c-9.6,0-17.4-7.7-17.4-17.2v-15.6
		C46,320.4,53.8,312.7,63.5,312.7z"/>
	<text transform="matrix(1 0 0 1 99.3661 345.5076)" class="st3 st7 st8">... more</text>
</g>
</svg>
