<?xml version="1.0" encoding="utf-8"?>
<!-- Generator: Adobe Illustrator 28.4.1, SVG Export Plug-In . SVG Version: 6.00 Build 0)  -->
<svg version="1.1" id="Layer_1" xmlns="http://www.w3.org/2000/svg" xmlns:xlink="http://www.w3.org/1999/xlink" x="0px" y="0px"
	 viewBox="0 0 490 375" style="enable-background:new 0 0 490 375;" xml:space="preserve">
<style type="text/css">
	.st0{fill:#789BC9;}
	.st1{fill:#779BC9;}
	.st2{fill:#EEF7FF;}
	.st3{fill:#DCE9FF;}
	.st4{fill:#F08577;}
	.st5{fill:#FFFFFF;}
	.st6{fill:#0866FF;}
	.st7{fill:url(#XMLID_00000018220774270384338270000002171987625554499512_);}
	.st8{fill:#C8DAEA;}
	.st9{fill:#A9C9DD;}
	.st10{fill:url(#XMLID_00000064336814781657553210000013705337827877576094_);}
	.st11{fill:#25D366;}
	.st12{fill:#7289C0;}
</style>
<g>
	<path class="st0" d="M245.3,256.8h-0.5c-0.9,0-1.7,0.7-1.7,1.6v4c0,0.9,0.7,1.6,1.7,1.6h0.5c0.9,0,1.7-0.7,1.7-1.6v-4
		C246.9,257.5,246.2,256.8,245.3,256.8z"/>
	<path class="st0" d="M245.3,269.6h-0.5c-0.9,0-1.7,0.7-1.7,1.6v11.6c0,0.9,0.7,1.6,1.7,1.6h0.5c0.9,0,1.7-0.7,1.7-1.6v-11.6
		C246.9,270.4,246.2,269.6,245.3,269.6z"/>
	<path class="st0" d="M245.3,290.2h-0.5c-0.9,0-1.7,0.7-1.7,1.6v12c0,0.9,0.7,1.6,1.7,1.6h0.5c0.9,0,1.7-0.7,1.7-1.6v-12
		C246.9,290.9,246.2,290.2,245.3,290.2z"/>
	<path class="st0" d="M245.3,311.1h-0.5c-0.9,0-1.7,0.7-1.7,1.6v5.9c0,0.9,0.7,1.6,1.7,1.6h0.5c0.9,0,1.7-0.7,1.7-1.6v-5.9
		C246.9,311.8,246.2,311.1,245.3,311.1z"/>
</g>
<g>
	<g>
		<path class="st1" d="M169.7,263.5v0.5c0,0.9,0.7,1.7,1.6,1.7h7.2c0.9,0,1.6-0.7,1.6-1.7v-0.5c0-0.9-0.7-1.7-1.6-1.7h-7.2
			C170.5,261.8,169.7,262.6,169.7,263.5z"/>
		<path class="st1" d="M147.4,263.5v0.5c0,0.9,0.7,1.7,1.6,1.7h11.7c0.9,0,1.6-0.7,1.6-1.7v-0.5c0-0.9-0.7-1.7-1.6-1.7H149
			C148.2,261.8,147.4,262.6,147.4,263.5z"/>
		<g>
			<path class="st1" d="M127.5,263.5v0.5c0,0.9,0.7,1.7,1.6,1.7h9.3c0.9,0,1.6-0.7,1.6-1.7v-0.5c0-0.9-0.7-1.7-1.6-1.7h-9.3
				C128.3,261.8,127.5,262.6,127.5,263.5z"/>
			<path class="st1" d="M125,270.7l0.5,0.3c0.8,0.5,1.7,0.2,2.1-0.6l2.9-5.3c0.4-0.8,0.2-1.8-0.6-2.3l-0.5-0.3
				c-0.8-0.5-1.7-0.2-2.1,0.6l-2.9,5.3C124,269.3,124.2,270.3,125,270.7z"/>
			<path class="st1" d="M125.6,276.9h0.2c1,0,1.8-0.8,1.8-1.9v-5c0-1-0.8-1.9-1.8-1.9h-0.2c-1,0-1.8,0.8-1.8,1.9v5
				C123.8,276.1,124.6,276.9,125.6,276.9z"/>
		</g>
		<path class="st1" d="M125.9,281.3h-0.5c-0.9,0-1.6,0.7-1.6,1.7v8.6c0,0.9,0.7,1.7,1.6,1.7h0.5c0.9,0,1.6-0.7,1.6-1.7V283
			C127.5,282,126.8,281.3,125.9,281.3z"/>
		<g>
			<path class="st1" d="M123.8,310.7v-0.5c0-0.9-0.7-1.7-1.6-1.7h-9.3c-0.9,0-1.6,0.7-1.6,1.7v0.5c0,0.9,0.7,1.7,1.6,1.7h9.3
				C123.1,312.4,123.8,311.6,123.8,310.7z"/>
			<path class="st1" d="M126.3,303.5l-0.5-0.3c-0.8-0.5-1.7-0.2-2.1,0.6l-2.9,5.3c-0.4,0.8-0.2,1.8,0.6,2.3l0.5,0.3
				c0.8,0.5,1.7,0.2,2.1-0.6l2.9-5.3C127.3,304.9,127,303.9,126.3,303.5z"/>
			<path class="st1" d="M125.7,297.3h-0.2c-1,0-1.8,0.8-1.8,1.9v5c0,1,0.8,1.9,1.8,1.9h0.2c1,0,1.8-0.8,1.8-1.9v-5
				C127.5,298.1,126.7,297.3,125.7,297.3z"/>
		</g>
		<path class="st1" d="M85.7,310.1v0.5c0,0.9,0.7,1.7,1.6,1.7h13.2c0.9,0,1.6-0.7,1.6-1.7v-0.5c0-0.9-0.7-1.7-1.6-1.7H87.3
			C86.4,308.4,85.7,309.2,85.7,310.1z"/>
		<g>
			<path class="st1" d="M66.8,309.8l-0.4-0.4c-0.6-0.6-1.6-0.6-2.2,0.1l-6,6.8c-0.6,0.7-0.6,1.7,0.1,2.3l0.4,0.4
				c0.6,0.6,1.6,0.6,2.2-0.1l6-6.8C67.5,311.5,67.4,310.4,66.8,309.8z"/>
			<path class="st1" d="M76.1,310.4v-0.5c0-0.9-0.8-1.7-1.7-1.6l-8.8,0.3c-0.9,0-1.6,0.8-1.5,1.7v0.5c0,0.9,0.8,1.7,1.7,1.6l8.8-0.3
				C75.4,312.2,76.1,311.4,76.1,310.4z"/>
		</g>
		<path class="st1" d="M49.3,330l0.4,0.4c0.7,0.5,1.7,0.5,2.2-0.3l4.5-5.9c0.5-0.7,0.4-1.7-0.3-2.3l-0.4-0.4
			c-0.7-0.5-1.7-0.5-2.2,0.3l-4.5,5.9C48.5,328.4,48.6,329.5,49.3,330z"/>
	</g>
	<g>
		<path class="st1" d="M171.7,120.1v-0.5c0-0.9,0.7-1.7,1.6-1.7h7.2c0.9,0,1.6,0.7,1.6,1.7v0.5c0,0.9-0.7,1.7-1.6,1.7h-7.2
			C172.5,121.8,171.7,121.1,171.7,120.1z"/>
		<path class="st1" d="M149.4,120.1v-0.5c0-0.9,0.7-1.7,1.6-1.7h11.7c0.9,0,1.6,0.7,1.6,1.7v0.5c0,0.9-0.7,1.7-1.6,1.7H151
			C150.2,121.8,149.4,121.1,149.4,120.1z"/>
		<g>
			<path class="st1" d="M129.5,120.1v-0.5c0-0.9,0.7-1.7,1.6-1.7h9.3c0.9,0,1.6,0.7,1.6,1.7v0.5c0,0.9-0.7,1.7-1.6,1.7h-9.3
				C130.3,121.8,129.5,121.1,129.5,120.1z"/>
			<path class="st1" d="M127,113l0.5-0.3c0.8-0.5,1.7-0.2,2.1,0.6l2.9,5.3c0.4,0.8,0.2,1.8-0.6,2.3l-0.5,0.3
				c-0.8,0.5-1.7,0.2-2.1-0.6l-2.9-5.3C126,114.4,126.2,113.4,127,113z"/>
			<path class="st1" d="M127.6,106.7h0.2c1,0,1.8,0.8,1.8,1.9v5c0,1-0.8,1.9-1.8,1.9h-0.2c-1,0-1.8-0.8-1.8-1.9v-5
				C125.8,107.6,126.6,106.7,127.6,106.7z"/>
		</g>
		<path class="st1" d="M127.9,102.3h-0.5c-0.9,0-1.6-0.7-1.6-1.7v-8.6c0-0.9,0.7-1.7,1.6-1.7h0.5c0.9,0,1.6,0.7,1.6,1.7v8.6
			C129.5,101.6,128.8,102.3,127.9,102.3z"/>
		<g>
			<path class="st1" d="M125.8,72.9v0.5c0,0.9-0.7,1.7-1.6,1.7h-9.3c-0.9,0-1.6-0.7-1.6-1.7v-0.5c0-0.9,0.7-1.7,1.6-1.7h9.3
				C125.1,71.3,125.8,72.1,125.8,72.9z"/>
			<path class="st1" d="M128.3,80.2l-0.5,0.3c-0.8,0.5-1.7,0.2-2.1-0.6l-2.9-5.3c-0.4-0.8-0.2-1.8,0.6-2.3l0.5-0.3
				c0.8-0.5,1.7-0.2,2.1,0.6l2.9,5.3C129.3,78.7,129,79.7,128.3,80.2z"/>
			<path class="st1" d="M127.7,86.4h-0.2c-1,0-1.8-0.8-1.8-1.9v-5c0-1,0.8-1.9,1.8-1.9h0.2c1,0,1.8,0.8,1.8,1.9v5
				C129.5,85.6,128.7,86.4,127.7,86.4z"/>
		</g>
		<path class="st1" d="M87.7,73.5V73c0-0.9,0.7-1.7,1.6-1.7h13.2c0.9,0,1.6,0.7,1.6,1.7v0.5c0,0.9-0.7,1.7-1.6,1.7H89.3
			C88.4,75.2,87.7,74.5,87.7,73.5z"/>
		<g>
			<path class="st1" d="M68.8,73.8l-0.4,0.4c-0.6,0.6-1.6,0.6-2.2-0.1l-6-6.8c-0.6-0.7-0.6-1.7,0.1-2.3l0.4-0.4
				c0.6-0.6,1.6-0.6,2.2,0.1l6,6.8C69.5,72.2,69.4,73.2,68.8,73.8z"/>
			<path class="st1" d="M78.1,73.2v0.5c0,0.9-0.8,1.7-1.7,1.6L67.6,75c-0.9,0-1.6-0.8-1.5-1.7v-0.5c0-0.9,0.8-1.7,1.7-1.6l8.8,0.3
				C77.4,71.5,78.1,72.3,78.1,73.2z"/>
		</g>
		<path class="st1" d="M51.3,53.6l0.4-0.4c0.7-0.5,1.7-0.5,2.2,0.3l4.5,5.9c0.5,0.7,0.4,1.7-0.3,2.3l-0.4,0.3
			c-0.7,0.5-1.7,0.5-2.2-0.3l-4.5-5.9C50.5,55.2,50.6,54.2,51.3,53.6z"/>
	</g>
	<g>
		<path class="st0" d="M117.6,191.6v-0.5c0-0.9,0.7-1.7,1.6-1.7h4c0.9,0,1.6,0.7,1.6,1.7v0.5c0,0.9-0.7,1.7-1.6,1.7h-4
			C118.3,193.3,117.6,192.5,117.6,191.6z"/>
		<path class="st0" d="M130.4,191.6v-0.5c0-0.9,0.7-1.7,1.6-1.7h11.6c0.9,0,1.6,0.7,1.6,1.7v0.5c0,0.9-0.7,1.7-1.6,1.7H132
			C131.1,193.3,130.4,192.5,130.4,191.6z"/>
		<path class="st0" d="M151,191.6v-0.5c0-0.9,0.7-1.7,1.6-1.7h12c0.9,0,1.6,0.7,1.6,1.7v0.5c0,0.9-0.7,1.7-1.6,1.7h-12
			C151.7,193.3,151,192.5,151,191.6z"/>
		<path class="st0" d="M171.8,191.6v-0.5c0-0.9,0.7-1.7,1.6-1.7h5.9c0.9,0,1.6,0.7,1.6,1.7v0.5c0,0.9-0.7,1.7-1.6,1.7h-5.9
			C172.5,193.3,171.8,192.5,171.8,191.6z"/>
	</g>
</g>
<g>
	<g>
		<path class="st1" d="M319.5,261.8h-7.2c-0.9,0-1.6,0.7-1.6,1.7v0.5c0,0.9,0.7,1.7,1.6,1.7h7.2c0.9,0,1.6-0.7,1.6-1.7v-0.5
			C321.1,262.6,320.3,261.8,319.5,261.8z"/>
		<path class="st1" d="M341.7,261.8H330c-0.9,0-1.6,0.7-1.6,1.7v0.5c0,0.9,0.7,1.7,1.6,1.7h11.7c0.9,0,1.6-0.7,1.6-1.7v-0.5
			C343.3,262.6,342.6,261.8,341.7,261.8z"/>
		<g>
			<path class="st1" d="M361.7,261.8h-9.3c-0.9,0-1.6,0.7-1.6,1.7v0.5c0,0.9,0.7,1.7,1.6,1.7h9.3c0.9,0,1.6-0.7,1.6-1.7v-0.5
				C363.3,262.6,362.5,261.8,361.7,261.8z"/>
			<path class="st1" d="M366.3,268.4l-2.9-5.3c-0.4-0.8-1.3-1.1-2.1-0.6l-0.5,0.3c-0.8,0.5-1,1.5-0.6,2.3l2.9,5.3
				c0.4,0.8,1.3,1.1,2.1,0.6l0.5-0.3C366.5,270.3,366.8,269.3,366.3,268.4z"/>
			<path class="st1" d="M367,275.1v-5c0-1.1-0.8-1.9-1.8-1.9H365c-1,0-1.8,0.9-1.8,1.9v5c0,1.1,0.8,1.9,1.8,1.9h0.2
				C366.1,276.9,367,276.1,367,275.1z"/>
		</g>
		<path class="st1" d="M363.3,283v8.6c0,0.9,0.7,1.7,1.6,1.7h0.5c0.9,0,1.6-0.7,1.6-1.7V283c0-0.9-0.7-1.7-1.6-1.7h-0.5
			C364,281.3,363.3,282,363.3,283z"/>
		<g>
			<path class="st1" d="M368.6,312.4h9.3c0.9,0,1.6-0.7,1.6-1.7v-0.5c0-0.9-0.7-1.7-1.6-1.7h-9.3c-0.9,0-1.6,0.7-1.6,1.7v0.5
				C367,311.6,367.7,312.4,368.6,312.4z"/>
			<path class="st1" d="M363.9,305.8l2.9,5.3c0.4,0.8,1.3,1.1,2.1,0.6l0.5-0.3c0.8-0.5,1-1.5,0.6-2.3l-2.9-5.3
				c-0.4-0.8-1.3-1.1-2.1-0.6l-0.5,0.3C363.7,303.9,363.5,304.9,363.9,305.8z"/>
			<path class="st1" d="M363.3,299.1v5c0,1.1,0.8,1.9,1.8,1.9h0.2c1,0,1.8-0.9,1.8-1.9v-5c0-1.1-0.8-1.9-1.8-1.9h-0.2
				C364,297.3,363.3,298.1,363.3,299.1z"/>
		</g>
		<path class="st1" d="M403.4,308.4h-13.2c-0.9,0-1.6,0.7-1.6,1.7v0.5c0,0.9,0.7,1.7,1.6,1.7h13.2c0.9,0,1.6-0.7,1.6-1.7v-0.5
			C405,309.2,404.3,308.4,403.4,308.4z"/>
		<g>
			<path class="st1" d="M423.9,312.2l6,6.8c0.6,0.7,1.6,0.7,2.2,0.1l0.4-0.4c0.6-0.7,0.6-1.7,0.1-2.3l-6-6.8
				c-0.6-0.7-1.6-0.7-2.2-0.1l-0.4,0.4C423.3,310.4,423.3,311.5,423.9,312.2z"/>
			<path class="st1" d="M416.2,312.1l8.8,0.3c0.9,0.1,1.7-0.7,1.7-1.6v-0.5c0.1-0.9-0.6-1.7-1.5-1.7l-8.8-0.3
				c-0.9-0.1-1.7,0.7-1.7,1.6v0.5C414.7,311.4,415.4,312.2,416.2,312.1z"/>
		</g>
		<path class="st1" d="M441.8,327.7l-4.5-5.9c-0.5-0.7-1.5-0.8-2.2-0.3l-0.4,0.4c-0.7,0.6-0.8,1.6-0.3,2.3l4.5,5.9
			c0.5,0.7,1.5,0.8,2.2,0.3l0.4-0.4C442.1,329.5,442.3,328.4,441.8,327.7z"/>
	</g>
	<g>
		<path class="st1" d="M317.5,121.8h-7.2c-0.9,0-1.6-0.7-1.6-1.7v-0.5c0-0.9,0.7-1.7,1.6-1.7h7.2c0.9,0,1.6,0.7,1.6,1.7v0.5
			C319.1,121.1,318.3,121.8,317.5,121.8z"/>
		<path class="st1" d="M339.7,121.8H328c-0.9,0-1.6-0.7-1.6-1.7v-0.5c0-0.9,0.7-1.7,1.6-1.7h11.7c0.9,0,1.6,0.7,1.6,1.7v0.5
			C341.3,121.1,340.6,121.8,339.7,121.8z"/>
		<g>
			<path class="st1" d="M359.7,121.8h-9.3c-0.9,0-1.6-0.7-1.6-1.7v-0.5c0-0.9,0.7-1.7,1.6-1.7h9.3c0.9,0,1.6,0.7,1.6,1.7v0.5
				C361.3,121.1,360.5,121.8,359.7,121.8z"/>
			<path class="st1" d="M364.3,115.2l-2.9,5.3c-0.4,0.8-1.3,1.1-2.1,0.6l-0.5-0.3c-0.8-0.5-1-1.5-0.6-2.3l2.9-5.3
				c0.4-0.8,1.3-1.1,2.1-0.6l0.5,0.3C364.5,113.4,364.8,114.4,364.3,115.2z"/>
			<path class="st1" d="M365,108.6v5c0,1.1-0.8,1.9-1.8,1.9H363c-1,0-1.8-0.9-1.8-1.9v-5c0-1.1,0.8-1.9,1.8-1.9h0.2
				C364.1,106.7,365,107.6,365,108.6z"/>
		</g>
		<path class="st1" d="M361.3,100.7v-8.6c0-0.9,0.7-1.7,1.6-1.7h0.5c0.9,0,1.6,0.7,1.6,1.7v8.6c0,0.9-0.7,1.7-1.6,1.7h-0.5
			C362,102.3,361.3,101.6,361.3,100.7z"/>
		<g>
			<path class="st1" d="M366.6,71.3h9.3c0.9,0,1.6,0.7,1.6,1.7v0.5c0,0.9-0.7,1.7-1.6,1.7h-9.3c-0.9,0-1.6-0.7-1.6-1.7v-0.5
				C365,72.1,365.7,71.3,366.6,71.3z"/>
			<path class="st1" d="M361.9,77.9l2.9-5.3c0.4-0.8,1.3-1.1,2.1-0.6l0.5,0.3c0.8,0.5,1,1.5,0.6,2.3l-2.9,5.3
				c-0.4,0.8-1.3,1.1-2.1,0.6l-0.5-0.3C361.7,79.7,361.5,78.7,361.9,77.9z"/>
			<path class="st1" d="M361.3,84.5v-5c0-1.1,0.8-1.9,1.8-1.9h0.2c1,0,1.8,0.9,1.8,1.9v5c0,1.1-0.8,1.9-1.8,1.9h-0.2
				C362,86.4,361.3,85.6,361.3,84.5z"/>
		</g>
		<path class="st1" d="M401.4,75.2h-13.2c-0.9,0-1.6-0.7-1.6-1.7V73c0-0.9,0.7-1.7,1.6-1.7h13.2c0.9,0,1.6,0.7,1.6,1.7v0.5
			C403,74.5,402.3,75.2,401.4,75.2z"/>
		<g>
			<path class="st1" d="M421.9,71.5l6-6.8c0.6-0.7,1.6-0.7,2.2-0.1l0.4,0.4c0.6,0.7,0.6,1.7,0.1,2.3l-6,6.8
				c-0.6,0.7-1.6,0.7-2.2,0.1l-0.4-0.4C421.3,73.2,421.3,72.2,421.9,71.5z"/>
			<path class="st1" d="M414.2,71.5l8.8-0.3c0.9-0.1,1.7,0.7,1.7,1.6v0.5c0.1,0.9-0.6,1.7-1.5,1.7l-8.8,0.3
				c-0.9,0.1-1.7-0.7-1.7-1.6v-0.5C412.7,72.3,413.4,71.5,414.2,71.5z"/>
		</g>
		<path class="st1" d="M439.7,55.9l-4.5,5.9c-0.5,0.7-1.5,0.8-2.2,0.3l-0.4-0.3c-0.7-0.6-0.8-1.6-0.3-2.3l4.5-5.9
			c0.5-0.7,1.5-0.8,2.2-0.3l0.4,0.4C440.1,54.2,440.3,55.2,439.7,55.9z"/>
	</g>
	<g>
		<path class="st0" d="M371.6,193.3h-4c-0.9,0-1.6-0.7-1.6-1.7v-0.5c0-0.9,0.7-1.7,1.6-1.7h4c0.9,0,1.6,0.7,1.6,1.7v0.5
			C373.2,192.5,372.5,193.3,371.6,193.3z"/>
		<path class="st0" d="M358.8,193.3h-11.6c-0.9,0-1.6-0.7-1.6-1.7v-0.5c0-0.9,0.7-1.7,1.6-1.7h11.6c0.9,0,1.6,0.7,1.6,1.7v0.5
			C360.4,192.5,359.7,193.3,358.8,193.3z"/>
		<path class="st0" d="M338.2,193.3h-12c-0.9,0-1.6-0.7-1.6-1.7v-0.5c0-0.9,0.7-1.7,1.6-1.7h12c0.9,0,1.6,0.7,1.6,1.7v0.5
			C339.8,192.5,339.1,193.3,338.2,193.3z"/>
		<path class="st0" d="M317.3,193.3h-5.9c-0.9,0-1.6-0.7-1.6-1.7v-0.5c0-0.9,0.7-1.7,1.6-1.7h5.9c0.9,0,1.6,0.7,1.6,1.7v0.5
			C318.9,192.5,318.2,193.3,317.3,193.3z"/>
	</g>
</g>
<g>
	<path class="st0" d="M245.3,56.9h-0.5c-0.9,0-1.7,0.7-1.7,1.6v4c0,0.9,0.7,1.6,1.7,1.6h0.5c0.9,0,1.7-0.7,1.7-1.6v-4
		C246.9,57.6,246.2,56.9,245.3,56.9z"/>
	<path class="st0" d="M245.3,69.7h-0.5c-0.9,0-1.7,0.7-1.7,1.6v11.6c0,0.9,0.7,1.6,1.7,1.6h0.5c0.9,0,1.7-0.7,1.7-1.6V71.3
		C246.9,70.4,246.2,69.7,245.3,69.7z"/>
	<path class="st0" d="M245.3,90.3h-0.5c-0.9,0-1.7,0.7-1.7,1.6v12c0,0.9,0.7,1.6,1.7,1.6h0.5c0.9,0,1.7-0.7,1.7-1.6v-12
		C246.9,91,246.2,90.3,245.3,90.3z"/>
	<path class="st0" d="M245.3,111.1h-0.5c-0.9,0-1.7,0.7-1.7,1.6v5.9c0,0.9,0.7,1.6,1.7,1.6h0.5c0.9,0,1.7-0.7,1.7-1.6v-5.9
		C246.9,111.8,246.2,111.1,245.3,111.1z"/>
</g>
<image style="overflow:visible;" width="500" height="500" xlink:href="../Progetti/tiledesk-dashboard/src/assets/img/int/make-icon.png"  transform="matrix(9.000000e-02 0 0 9.000000e-02 4.1871 16.1279)">
</image>
<image style="overflow:visible;" width="128" height="128" xlink:href="../Progetti/tiledesk-dashboard/src/assets/img/int/customerio-icon_new.png"  transform="matrix(0.3906 0 0 0.3906 66.7227 166.3174)">
</image>
<image style="overflow:visible;" width="512" height="512" xlink:href="../Progetti/tiledesk-dashboard/src/assets/img/int/hubspot-icon.png"  transform="matrix(9.765625e-02 0 0 9.765625e-02 5.2265 316.752)">
</image>
<g>
	<g>
		<g>
			<path class="st2" d="M314.8,78.6v227.8c0,2.6-2.6,4.8-5.7,4.8H180.9c-3.2,0-5.7-2.1-5.7-4.8V78.6c0-2.6,2.6-4.8,5.7-4.8h128.2
				C312.3,73.8,314.8,75.9,314.8,78.6z"/>
		</g>
	</g>
	<g>
		<path class="st3" d="M287.7,231.5h-70.2c-3.8,0-6.9,2.9-6.9,6.5v3v3v6.5h6.9h5.3h64.9c3.8,0,6.9-2.9,6.9-6.5v-5.9
			C294.6,234.5,291.5,231.5,287.7,231.5z"/>
		<g>
			<ellipse class="st4" cx="194.8" cy="241" rx="11.9" ry="11.2"/>
			<g>
				<path class="st5" d="M201.3,241.4v4.8c0,0.4-0.3,0.8-0.8,0.8h-7c-0.2,0-0.3,0.1-0.5,0.2l-0.6,0.6l-0.5,0.5
					c-0.2,0.2-0.5,0.2-0.6,0l-0.5-0.5l-0.6-0.6c-0.1-0.1-0.3-0.2-0.5-0.2h-0.6c-0.4,0-0.8-0.3-0.8-0.8v-5.5v-5.5
					c0-0.4,0.3-0.8,0.8-0.8h4.9c0.4,0,0.8,0.3,0.8,0.8v4.8c0,0.4,0.3,0.8,0.8,0.8h4.9C200.9,240.6,201.3,241,201.3,241.4z"/>
				<path class="st5" d="M196.3,239.6h4.5c0.3,0,0.5-0.2,0.5-0.5v-4.4c0-0.3-0.2-0.5-0.5-0.5h-4.5c-0.3,0-0.5,0.2-0.5,0.5v4.4
					C195.8,239.4,196.1,239.6,196.3,239.6z"/>
			</g>
		</g>
	</g>
	<path class="st6" d="M229.3,261h70.2c3.8,0,6.9,4.1,6.9,9.2v4.2v4.2v9.2h-6.9h-5.3h-64.9c-3.8,0-6.9-4.1-6.9-9.2v-8.4
		C222.4,265.2,225.5,261,229.3,261z"/>
	<path class="st3" d="M286.2,225.6H219c-4.6,0-8.4-3.8-8.4-8.4v-16.2c0-4.6,3.8-8.4,8.4-8.4h67.2c4.6,0,8.4,3.8,8.4,8.4v16.2
		C294.6,221.8,290.8,225.6,286.2,225.6z"/>
	<path class="st6" d="M229.3,132.3h70.2c3.8,0,6.9,4.1,6.9,9.2v4.2v4.2v9.2h-6.9h-5.3h-64.9c-3.8,0-6.9-4.1-6.9-9.2v-8.4
		C222.4,136.5,225.5,132.3,229.3,132.3z"/>
	<g>
		<path class="st3" d="M287.7,95.7h-70.2c-3.8,0-6.9,2.9-6.9,6.5v3v3v6.5h6.9h5.3h64.9c3.8,0,6.9-2.9,6.9-6.5v-5.9
			C294.6,98.6,291.5,95.7,287.7,95.7z"/>
		<g>
			<ellipse class="st4" cx="194.8" cy="105.2" rx="11.9" ry="11.2"/>
			<g>
				<path class="st5" d="M201.3,105.5v4.8c0,0.4-0.3,0.8-0.8,0.8h-7c-0.2,0-0.3,0.1-0.5,0.2l-0.6,0.6l-0.5,0.5
					c-0.2,0.2-0.5,0.2-0.6,0l-0.5-0.5l-0.6-0.6c-0.1-0.1-0.3-0.2-0.5-0.2h-0.6c-0.4,0-0.8-0.3-0.8-0.8v-5.5v-5.5
					c0-0.4,0.3-0.8,0.8-0.8h4.9c0.4,0,0.8,0.3,0.8,0.8v4.8c0,0.4,0.3,0.8,0.8,0.8h4.9C200.9,104.8,201.3,105.1,201.3,105.5z"/>
				<path class="st5" d="M196.3,103.8h4.5c0.3,0,0.5-0.2,0.5-0.5v-4.4c0-0.3-0.2-0.5-0.5-0.5h-4.5c-0.3,0-0.5,0.2-0.5,0.5v4.4
					C195.8,103.6,196.1,103.8,196.3,103.8z"/>
			</g>
		</g>
	</g>
</g>
<image style="overflow:visible;" width="2048" height="2048" xlink:href="../Progetti/tiledesk-dashboard/src/assets/img/int/messenger-icon.png"  transform="matrix(2.197266e-02 0 0 2.197266e-02 438.0359 16.1279)">
</image>
<path d="M427.7,185.7c1-3.1,0.7-6.4-1-9.2c-2.5-4.3-7.5-6.5-12.4-5.4c-2.2-2.4-5.3-3.8-8.6-3.8c-5,0-9.4,3.2-11,7.8
	c-3.2,0.7-6,2.6-7.6,5.4c-2.5,4.3-1.9,9.6,1.4,13.3c-1,3.1-0.7,6.4,1,9.2c2.5,4.3,7.5,6.5,12.4,5.5c2.2,2.4,5.3,3.8,8.6,3.8
	c5,0,9.4-3.2,11-7.8c3.2-0.7,6-2.6,7.6-5.4C431.7,194.8,431.1,189.4,427.7,185.7L427.7,185.7z M424.2,178c1,1.7,1.4,3.7,1,5.6
	c-0.1,0-0.2-0.1-0.3-0.2l-9.1-5.2c-0.5-0.3-1-0.3-1.5,0l-10.6,6.1v-4.4l8.8-5C416.6,172.6,421.8,174,424.2,178L424.2,178z
	 M403.7,187.3l4.5-2.6l4.5,2.6v5.1l-4.5,2.6l-4.5-2.6V187.3z M405.8,170.3c2,0,3.9,0.7,5.5,2c-0.1,0-0.2,0.1-0.3,0.2l-9.1,5.2
	c-0.5,0.3-0.7,0.7-0.7,1.3v12.1l-3.9-2.2v-10C397.3,174,401.1,170.3,405.8,170.3L405.8,170.3L405.8,170.3z M389.8,182.1
	c1-1.7,2.6-3,4.4-3.7V189c0,0.5,0.3,1,0.7,1.3l10.6,6l-3.9,2.2l-8.8-5C388.9,191.3,387.5,186.1,389.8,182.1L389.8,182.1z
	 M392.2,201.6c-1-1.7-1.4-3.7-1-5.6c0.1,0,0.2,0.1,0.3,0.2l9.1,5.2c0.5,0.3,1,0.3,1.5,0l10.6-6.1v4.4l-8.8,5
	C399.8,207,394.6,205.7,392.2,201.6L392.2,201.6L392.2,201.6z M410.6,209.4c-2,0-3.9-0.7-5.5-2c0.1,0,0.2-0.1,0.3-0.2l9.1-5.2
	c0.5-0.3,0.8-0.7,0.7-1.3v-12.1l3.9,2.2v10C419.1,205.6,415.3,209.4,410.6,209.4L410.6,209.4L410.6,209.4z M426.6,197.6
	c-1,1.7-2.6,3-4.4,3.7v-10.7c0-0.5-0.3-1-0.7-1.3l-10.6-6.1l3.9-2.2l8.8,5C427.5,188.4,428.9,193.5,426.6,197.6L426.6,197.6
	L426.6,197.6z"/>
<g id="XMLID_1_">
	
		<linearGradient id="XMLID_00000100374927140167688520000004197710078771200144_" gradientUnits="userSpaceOnUse" x1="-116.5461" y1="679.6871" x2="-116.3586" y2="679.6871" gradientTransform="matrix(-60 139.992 139.992 60 -101673.5469 -24139.3418)">
		<stop  offset="0" style="stop-color:#37AEE2"/>
		<stop  offset="1" style="stop-color:#1E96C8"/>
	</linearGradient>
	
		<circle id="XMLID_3_" style="fill:url(#XMLID_00000100374927140167688520000004197710078771200144_);" cx="463.4" cy="341.8" r="22.5"/>
	<path id="XMLID_4_" class="st8" d="M459.3,352.1c-0.7,0-0.6-0.3-0.9-1l-2.1-7.1l16.5-9.8"/>
	<path id="XMLID_5_" class="st9" d="M459.3,352.1c0.6,0,0.8-0.3,1.1-0.6l3-2.9l-3.7-2.3"/>
	
		<linearGradient id="XMLID_00000116227859240962442460000015763991785924698555_" gradientUnits="userSpaceOnUse" x1="-103.5612" y1="680.7778" x2="-103.3737" y2="680.7778" gradientTransform="matrix(24.9894 40.0038 47.6951 -20.9596 -29416.8672 18753.9668)">
		<stop  offset="0" style="stop-color:#EFF7FC"/>
		<stop  offset="1" style="stop-color:#FFFFFF"/>
	</linearGradient>
	<path id="XMLID_6_" style="fill:url(#XMLID_00000116227859240962442460000015763991785924698555_);" d="M459.6,346.3l9.1,6.7
		c1,0.6,1.8,0.3,2-1l3.7-17.4c0.4-1.5-0.6-2.2-1.6-1.8l-21.6,8.4c-1.5,0.6-1.5,1.4-0.3,1.8l5.6,1.7l12.9-8.1
		c0.6-0.4,1.2-0.2,0.7,0.2"/>
</g>
<path class="st11" d="M260.8,15.4c-4.2-4.2-9.8-6.5-15.8-6.5c-12.3,0-22.3,10-22.3,22.3c0,3.9,1,7.8,3,11.1l-3.2,11.6l11.8-3.1
	c3.3,1.8,6.9,2.7,10.7,2.7h0c12.3,0,22.5-10,22.5-22.3C267.5,25.2,265,19.6,260.8,15.4z M245,49.7c-3.3,0-6.6-0.9-9.4-2.6l-0.7-0.4
	l-7,1.8l1.9-6.8l-0.4-0.7c-1.9-3-2.8-6.4-2.8-9.9c0-10.2,8.3-18.5,18.5-18.5c5,0,9.6,1.9,13.1,5.4c3.5,3.5,5.6,8.2,5.6,13.1
	C263.7,41.4,255.2,49.7,245,49.7z M255.2,35.9c-0.6-0.3-3.3-1.6-3.8-1.8c-0.5-0.2-0.9-0.3-1.3,0.3s-1.4,1.8-1.8,2.2
	c-0.3,0.4-0.7,0.4-1.2,0.1c-3.3-1.6-5.4-2.9-7.6-6.6c-0.6-1,0.6-0.9,1.6-3c0.2-0.4,0.1-0.7-0.1-1c-0.1-0.3-1.3-3-1.7-4.1
	c-0.5-1.1-0.9-0.9-1.3-1c-0.3,0-0.7,0-1.1,0c-0.4,0-1,0.1-1.5,0.7c-0.5,0.6-1.9,1.9-1.9,4.7s2,5.4,2.3,5.8c0.3,0.4,3.9,6,9.5,8.4
	c3.5,1.5,4.9,1.7,6.7,1.4c1.1-0.2,3.3-1.3,3.8-2.7c0.5-1.3,0.5-2.4,0.3-2.7C256.1,36.3,255.7,36.1,255.2,35.9z"/>
<g>
	<circle class="st12" cx="245" cy="346.6" r="22.5"/>
	<path class="st5" d="M242,341.5v1.3c0,0.4-0.3,0.7-0.7,0.7c-0.4,0-0.7-0.3-0.7-0.7v-1.3c0-0.7,0.6-1.3,1.3-1.3
		c0.7,0,1.3-0.6,1.3-1.3c0-0.7-0.6-1.3-1.3-1.3h-1.3c-0.4,0-0.7,0.3-0.7,0.7c0,0.4-0.3,0.7-0.7,0.7c-0.4,0-0.7-0.3-0.7-0.7
		c0-1.1,0.9-2,2-2h1.3c1.5,0,2.7,1.2,2.7,2.7C244.7,340.3,243.5,341.5,242,341.5z M241.9,345.2c0,0.1-0.1,0.2-0.1,0.2
		c-0.1,0.1-0.3,0.2-0.5,0.2s-0.3-0.1-0.5-0.2c-0.1-0.1-0.1-0.1-0.1-0.2c0-0.1-0.1-0.2-0.1-0.3c0-0.2,0.1-0.3,0.2-0.5
		c0.2-0.2,0.5-0.2,0.7-0.1c0.1,0,0.2,0.1,0.2,0.1c0.1,0.1,0.2,0.3,0.2,0.5C242,345,242,345.1,241.9,345.2z M250.7,343.6v-5.4
		c0-2.2-1.8-4-4-4h-10.1c-2.2,0-4,1.8-4,4v5.4c0,0.9-0.1,3.4-0.6,4.4l-0.7,1.3c-0.1,0.2-0.1,0.5,0,0.7c0.1,0.2,0.3,0.3,0.6,0.3
		c0.1,0,2.3,0,3.8-1.5l1.1-1.1h9.8C248.9,347.6,250.7,345.8,250.7,343.6L250.7,343.6L250.7,343.6z"/>
	<path class="st5" d="M252,350.3h-8.7c-0.4,0-0.7-0.3-0.7-0.7c0-0.4,0.3-0.7,0.7-0.7h8.7c0.4,0,0.7,0.3,0.7,0.7
		C252.7,350,252.4,350.3,252,350.3z M252,353h-8.7c-0.4,0-0.7-0.3-0.7-0.7c0-0.4,0.3-0.7,0.7-0.7h8.7c0.4,0,0.7,0.3,0.7,0.7
		C252.7,352.7,252.4,353,252,353z M258,358l-0.7-1.3c-0.5-1-0.6-3.5-0.6-4.4v-5.4c0-2.2-1.8-4-4-4h-1.3v0.7c0,2.6-2.1,4.7-4.7,4.7
		h-8.1v4c0,2.2,1.8,4,4,4h9.8l1.1,1.1c1.5,1.5,3.7,1.5,3.8,1.5c0.2,0,0.5-0.1,0.6-0.3C258.1,358.5,258.1,358.2,258,358L258,358z"/>
</g>
</svg>
