<?xml version="1.0" encoding="utf-8"?>
<!-- Generator: Adobe Illustrator 22.1.0, SVG Export Plug-In . SVG Version: 6.00 Build 0)  -->
<svg version="1.1" id="Livello_1" focusable="false"
	 xmlns="http://www.w3.org/2000/svg" xmlns:xlink="http://www.w3.org/1999/xlink" x="0px" y="0px" viewBox="0 0 512 512"
	 style="enable-background:new 0 0 512 512;" xml:space="preserve">
<style type="text/css">
	.st0{fill:#7695A5;}
</style>
<path class="st0" d="M256,32C114.6,32,0,125.1,0,240c0,49.6,21.4,95,57,130.7C44.5,421.1,2.7,466,2.2,466.5c-3,3.2-2.9,8.3,0.3,11.3
	C4,479.2,6,480,8,480c66.3,0,116-31.8,140.6-51.4C182.9,441.5,219.3,448,256,448c141.4,0,256-93.1,256-208S397.4,32,256,32z
	 M202.7,156.6c3-3.2,8.1-3.3,11.3-0.3l40.7,38.5l38.5-40.7c3-3.2,8.1-3.3,11.3-0.3l34.9,33c3.2,3,3.3,8.1,0.3,11.3l-38.5,40.7
	l40.7,38.5c3.2,3,3.3,8.1,0.3,11.3l-33,34.9c-3,3.2-8.1,3.3-11.3,0.3l-40.7-38.5l-38.5,40.7c-3,3.2-8.1,3.3-11.3,0.3l-34.9-33
	c-3.2-3-3.3-8.1-0.3-11.3l38.5-40.7l-40.7-38.5c-3.2-3-3.3-8.1-0.3-11.3L202.7,156.6z"/>
</svg>
