<svg xmlns="http://www.w3.org/2000/svg" xmlns:xlink="http://www.w3.org/1999/xlink" x="0px" y="0px"
	 viewBox="0 0 24 24" style="enable-background:new 0 0 24 24;" xml:space="preserve">
    <path fill="#5865F2" d="M19.6,4.9c-1.4-0.7-2.9-1.1-4.5-1.4c-0.2,0.4-0.4,0.8-0.6,1.2c-1.7-0.3-3.4-0.3-5,0C9.3,4.3,9.1,3.9,8.9,3.5
        C7.3,3.8,5.8,4.3,4.4,4.9c-2.9,4.3-3.6,8.5-3.2,12.7c1.9,1.4,3.7,2.3,5.5,2.8c0.4-0.6,0.8-1.3,1.2-2C7.2,18.3,6.6,18,6,17.6
        c0.2-0.1,0.3-0.2,0.5-0.4c3.6,1.7,7.5,1.7,11.1,0c0.1,0.1,0.3,0.2,0.5,0.4c-0.6,0.4-1.2,0.7-1.9,0.9c0.3,0.7,0.7,1.3,1.2,2
        c1.8-0.6,3.6-1.4,5.5-2.8C23.3,12.8,22.1,8.6,19.6,4.9z M8.4,15.1c-1.1,0-2-1-2-2.2s0.9-2.2,2-2.2c1.1,0,2,1,2,2.2
        C10.3,14.1,9.5,15.1,8.4,15.1z M15.6,15.1c-1.1,0-2-1-2-2.2s0.9-2.2,2-2.2c1.1,0,2,1,2,2.2C17.6,14.1,16.7,15.1,15.6,15.1z"/>
</svg>
