<svg xmlns="http://www.w3.org/2000/svg" viewBox="0 0 658.67 586.12"><title>disconnected from social media</title><g id="backgrouind"><g id="bg"><path d="M18.92,413.07c35.93,2.5,72.22,5.09,107.07,14.75A241.13,241.13,0,0,1,150.41,436q4.05,1.62,8,3.39l3.25,1.49c.62.75.38,1.36-.73,1.85-1.58,2.81-3.76,5.09-5.05,8.17a30,30,0,0,0-2.1,8c-.36,3-.33,3.85-2.72,5.79-1.71,1.38-3.81,2.44-5.61,3.72a104.74,104.74,0,0,0-17.58,15.94.76.76,0,0,0,.53,1.28q103.8,1.71,207.25,11.21l-.53-1.28a16.29,16.29,0,0,0-5,6.69.77.77,0,0,0,.65,1.13A88.64,88.64,0,0,1,349,504a47.86,47.86,0,0,1,8.9,1.76c.79.28,2,.14,2.1,1.21.06.46-2.66,3.56-3,4s.14,1.1.65,1.13l212.26,11.69c1,.06,1-1.44,0-1.5L357.67,510.56l.65,1.13,3.94-5.29a.75.75,0,0,0-.45-1.1,90.89,90.89,0,0,0-31-3.48l.64,1.12a16.08,16.08,0,0,1,4.79-6.38c.56-.46.05-1.23-.53-1.28q-103.37-9.51-207.25-11.21l.53,1.28a104.13,104.13,0,0,1,25.78-21.14.78.78,0,0,0,.38-.65,29.47,29.47,0,0,1,9.09-22.05.75.75,0,0,0-.15-1.17C118.78,418.84,68.21,415,18.92,411.57c-1-.07-1,1.43,0,1.5Z" transform="translate(30.04 -15.02)" fill="#e8e8e8"/><path d="M19.1,411.19Q34.25,451.87,47,493.39q6.21,20.3,11.84,40.76c1.08,3.94,2.79,8.2,3,12.3.2,3.46-1.25,6.38-2.4,9.52a47.82,47.82,0,0,0-2.82,19.51c.06,1,1.56,1,1.5,0A50.71,50.71,0,0,1,61.85,554c2.29-6,1.11-10.5-.54-16.54Q55.49,516.07,49,494.84q-13-42.45-28.48-84c-.33-.9-1.78-.51-1.44.4Z" transform="translate(30.04 -15.02)" fill="#e8e8e8"/><path d="M130.08,486c1.73,8.18,3.74,16.35,5.19,24.59,1.49,8.46-.75,16.73-2.33,25-1.46,7.64-2.72,15.36-4.42,23-1.74,7.78-5.34,14.4-9.5,21.12-.51.82.79,1.58,1.3.76,3.91-6.33,7.48-12.57,9.27-19.86,2.14-8.7,3.48-17.68,5.16-26.49,1.4-7.32,3.33-14.69,2.26-22.19-1.27-8.82-3.64-17.61-5.49-26.32-.2-.95-1.64-.55-1.44.4Z" transform="translate(30.04 -15.02)" fill="#e8e8e8"/><path d="M329.39,502.4a224.06,224.06,0,0,0,8.42,23.67q2.52,6,5.39,11.76c1.62,3.28,7.68,11.22,6.24,14.92-.35.9,1.1,1.29,1.45.4,1.05-2.69-.39-4.71-1.68-7.08-2.51-4.59-4.91-9.24-7.11-14A218.77,218.77,0,0,1,330.84,502a.75.75,0,0,0-1.45.4Z" transform="translate(30.04 -15.02)" fill="#e8e8e8"/><path d="M342.77,540.06a89.16,89.16,0,0,1-8.84,16.26c-2.8,4-6.53,7.58-8.92,11.9-2,3.65-1.83,7.26-2.11,11.31-.49,7.23-3.32,13.9-6.18,20.46-.38.88.91,1.64,1.3.76,2.2-5.07,4.46-10.2,5.61-15.63,1.24-5.86,0-12.17,3.43-17.39,2.93-4.44,6.67-8.3,9.58-12.78a91.19,91.19,0,0,0,7.58-14.49c.37-.89-1.08-1.27-1.45-.4Z" transform="translate(30.04 -15.02)" fill="#e8e8e8"/><path d="M469,522.91a175.81,175.81,0,0,1,36.29,54.86c.37.88,1.82.49,1.45-.4a177.9,177.9,0,0,0-36.68-55.52c-.68-.7-1.74.37-1.06,1.06Z" transform="translate(30.04 -15.02)" fill="#e8e8e8"/><path d="M19.42,410.26Q96.85,387.94,176,372.33c.77-.15.66-1.24,0-1.45-2.41-.3-3.52-1.56-3.31-3.79,1.24-.31,2.49-.6,3.74-.89,1.88-.44,3.75-.86,5.64-1.27q6.58-1.43,13.21-2.61,14.13-2.51,28.4-3.92c1-.09,1-1.59,0-1.5a382.86,382.86,0,0,0-53.26,9.2.77.77,0,0,0-.53.93,8.63,8.63,0,0,0,5.71,5.3v-1.45Q96.53,386.48,19,408.81a.75.75,0,0,0,.4,1.45Z" transform="translate(30.04 -15.02)" fill="#e8e8e8"/><path d="M213,356.19c-5.82-1.41-12.69-3.11-15.8-8.79-2.93-5.34.23-12,6.86-11.26,1.4.16,2.74.87,4.16.8a3.26,3.26,0,0,0,3.34-2.06c.2-.37,0-1.19.07-1.59.66-3.64.15-5.45,3.37-7.35,3-1.8,7.07-1.36,10.43-1.09a.75.75,0,0,0,.73-1c-6.37-16,9.65-29,23.18-33.44s29.36-1.17,36.45,12c.46.85,1.76.09,1.3-.76-11.77-21.92-43.38-16.72-57.65-.31a24.34,24.34,0,0,0-6.18,14c-.07,1,1,7.33.56,7.82s-6.89.26-8.23.79a9.59,9.59,0,0,0-4.22,3.19c-1.28,1.74-.66,3.35-1.43,5-2.19,4.59-4.72,2-8.11,2.22a7.5,7.5,0,0,0-4.63,2.22c-3.44,3.31-3.35,8.26-.93,12.13,3.54,5.64,10.26,7.42,16.33,8.9.93.23,1.33-1.22.4-1.45Z" transform="translate(30.04 -15.02)" fill="#e8e8e8"/><path d="M287.43,301.29c-.2-7.57,5.93-13.78,13.69-12.32,3.5.65,6.9,4.13,10.68,3.45s5.21-4.7,7.53-7.17c5.25-5.6,13.5-4.34,19.59-1,18.46,10,27.31,33.26,22.78,53.25-.22.94,1.23,1.34,1.44.4,4.82-21.26-5.33-47.93-26.61-56.44-4.66-1.86-10.08-2.33-14.66,0a14.2,14.2,0,0,0-4.94,4.43c-2,2.63-3.37,5.7-7.77,4.82-1.68-.33-3.27-1.72-4.84-2.38-9.31-3.89-18.66,3.13-18.39,13,0,1,1.53,1,1.5,0Z" transform="translate(30.04 -15.02)" fill="#e8e8e8"/><path d="M362.62,322.12c1-3,2-6.16,4.24-8.48,3-3.16,9-4.79,11.28.4.33.76,1.33.26,1.39-.38.75-7,6.61-13.19,13.89-13.28s13.28,6,14.18,13c.07.57.81,1.08,1.28.53,4.1-4.79,10.69-14.43,18.07-10.07,7.92,4.68,4.84,15.27,2.5,22.14-.31.92,1.14,1.31,1.45.4,2.56-7.53,5.38-18.83-3.19-23.84-8.27-4.83-15.27,4.9-19.89,10.31l1.28.53c-1-7.77-7.5-14.57-15.68-14.46s-14.55,6.94-15.39,14.78l1.4-.38c-1.65-3.83-6.08-5-9.85-3.52-4.88,1.9-6.84,7.43-8.4,12-.32.91,1.13,1.3,1.44.39Z" transform="translate(30.04 -15.02)" fill="#e8e8e8"/><path d="M470.21,353.32c-4.42-1.81-6.75-7.95-3.25-11.78,3-3.25,8.2-2.73,11.09.19a.75.75,0,0,0,1.18-.91A19.44,19.44,0,0,1,500,312.26a.76.76,0,0,0,.84-1.1c-6.57-12.64,9.31-27.32,19-33.35,10.28-6.42,27.79-6.83,31.74,7.42a.76.76,0,0,0,1.45,0,31.07,31.07,0,0,1,13.52-18.37c8.15-5,21.29-6.27,25.46,4.48.35.89,1.8.5,1.45-.4-3.75-9.67-14.78-11.14-23.5-7.5a32.27,32.27,0,0,0-18.38,21.39H553c-4-14.34-21.49-15.42-32.57-9.14s-28.15,22.25-20.88,36.22l.85-1.1a21,21,0,0,0-22.48,30.76l1.17-.91c-3.8-3.83-10.85-4-14,.86s-.24,11.21,4.74,13.24c.9.37,1.28-1.08.4-1.44Z" transform="translate(30.04 -15.02)" fill="#e8e8e8"/><path d="M548.53,349.91a24.43,24.43,0,0,1,3.16-18c3.67-5.7,15.28-14,19.46-3.74a.76.76,0,0,0,1.45,0c1.62-5.61,4.31-11,9.13-14.51,5.45-4,13-4.46,18.3,0a.77.77,0,0,0,1.18-.15,14.34,14.34,0,0,1,26,6.18c.16.95,1.61.55,1.45-.4a16.23,16.23,0,0,0-12-13.31,15.69,15.69,0,0,0-9.33.79,15.94,15.94,0,0,0-4.37,2.58c-.72.6-1.68,2.2-2.58,2.32s-2.09-1.09-3-1.47a14.86,14.86,0,0,0-4.24-1.13,17.48,17.48,0,0,0-9.24,1.52c-6.91,3.17-10.77,10.2-12.8,17.2h1.45c-3-7.37-11.57-6.82-17-2.49-7.45,5.91-10.26,15.86-8.49,25,.18.94,1.63.54,1.45-.4Z" transform="translate(30.04 -15.02)" fill="#e8e8e8"/><path d="M413,301.92c-5.5-7.63,1.27-17.35,10.32-14.53a.75.75,0,0,0,.95-.72A16.62,16.62,0,0,1,441.1,270.3a.78.78,0,0,0,.73-.55c3.07-8.42,8.72-17.41,17.95-19.83,8.21-2.15,18.48,2.55,19.52,11.58a.76.76,0,0,0,1.48.2c2.66-8.22,12.59-11.1,20.16-8.17,8,3.08,12.76,10.86,15.79,18.45.35.89,1.8.5,1.44-.4-3.52-8.84-9.7-18.45-19.78-20.37-7.85-1.51-16.51,2.21-19.06,10.09l1.47.2c-1-8.8-9.72-14.18-18.21-13.57-4.82.34-9.27,2.82-12.76,6.07a32.72,32.72,0,0,0-5.61,7.06c-1.21,2-2.09,6-3.91,7.31-1.49,1.06-4.44.91-6.26,1.67a18.68,18.68,0,0,0-6.32,4.37,18.38,18.38,0,0,0-3.62,5.42c-.79,1.85-.74,5.1-2.28,5.62-1.87.63-4.07-.16-6.15.74a10.53,10.53,0,0,0-4.44,3.48c-2.87,4-2.3,9.18.46,13,.56.78,1.87,0,1.3-.76Z" transform="translate(30.04 -15.02)" fill="#e8e8e8"/><path d="M408,345.54a45.12,45.12,0,0,1,25-4.24.75.75,0,0,0,.65-1.13c-2.68-3.57-1.06-8.06,2.53-10.21,3.35-2,6.93-1.75,10.64-.88a.77.77,0,0,0,.95-.73c.65-8,9.23-11.41,15.23-6.14a.77.77,0,0,0,1.18-.15c2.4-3.43,9.18-7.86,11.59-1.16.32.9,1.77.52,1.45-.4-1.8-5-7.54-5.6-11.45-2.5-1,.82-1.54,2.17-2.85,2.15-1,0-2.89-1.6-4.11-1.86a10.25,10.25,0,0,0-8.58,2,10.42,10.42,0,0,0-2.17,2.37c-.62.92-1,3.63-1.67,4.2-.84.77-2.91.06-4.08,0a14,14,0,0,0-5.55.93c-5.18,2.08-8,8.38-4.41,13.11l.65-1.12a46.38,46.38,0,0,0-25.76,4.45c-.87.42-.11,1.71.76,1.29Z" transform="translate(30.04 -15.02)" fill="#e8e8e8"/><path d="M19.39,170c28.53-16.17,59.28,4.07,84.78,16.47,26.61,12.95,55.8,17,85.16,14.91,63.42-4.56,121.32-35.09,184.4-41.8a304.73,304.73,0,0,1,105.78,7.06c.94.23,1.34-1.22.4-1.45a303.94,303.94,0,0,0-93.1-8.23C355,159,324.48,166.64,294.1,175.81c-61.58,18.58-128.48,39.21-190,9-25.75-12.65-56.72-32.36-85.47-16.07a.75.75,0,0,0,.75,1.3Z" transform="translate(30.04 -15.02)" fill="#e8e8e8"/><path d="M260,145.68c42.94-2,80.88-24.94,122.83-31.71,48.72-7.86,94.54,13.16,140.94,24.21,24.63,5.87,50.13,9,75.17,3.83.95-.19.55-1.64-.4-1.45-48.11,9.87-94.59-10.65-140.38-22.25-21.85-5.53-44.48-9.28-67.05-6.94-20.65,2.14-40.41,8.81-59.92,15.54-23.15,8-46.51,16.14-71.19,17.27-1,0-1,1.55,0,1.5Z" transform="translate(30.04 -15.02)" fill="#e8e8e8"/><path d="M110.23,238.39a173.19,173.19,0,0,1,81.64-11.73c28.18,2.82,54.54,14.16,82.83,16.64,28,2.44,56.2-.6,83.74-5.79,28.31-5.32,55.9-13.69,84.13-19.3,30.81-6.12,64-7.6,92.62,7.47.85.45,1.61-.84.75-1.29-50.72-26.73-109.36-3-160.9,8.21-29.19,6.37-59,11-89,9.9a213.13,213.13,0,0,1-45.56-6.7c-14-3.61-27.82-7.89-42.19-9.87a174.11,174.11,0,0,0-88.48,11c-.89.35-.5,1.8.4,1.44Z" transform="translate(30.04 -15.02)" fill="#e8e8e8"/><path d="M135.34,107c52.18,2.41,101.48-16.72,150-33.21,24.06-8.16,48.38-15.63,73.47-19.87A309.33,309.33,0,0,1,433,50.24a260.8,260.8,0,0,1,81.25,19.07c.89.37,1.28-1.08.4-1.45C469.68,49.13,420,44.38,371.84,50.5,320.72,57,273.72,77.93,224.69,92.4c-29,8.56-59,14.52-89.35,13.12-1,0-1,1.45,0,1.5Z" transform="translate(30.04 -15.02)" fill="#e8e8e8"/><path d="M56.7,39.58c53.84,27.29,112.64-11.09,168.5-3.84,1,.12,1-1.38,0-1.5-55.58-7.22-114.29,31.14-167.74,4-.86-.44-1.62.86-.76,1.29Z" transform="translate(30.04 -15.02)" fill="#e8e8e8"/></g><g id="details"><circle cx="144.44" cy="123.28" r="10.14" fill="#ec615b"/><circle cx="206.83" cy="233.23" r="4.81" fill="#ec615b"/><circle cx="359.6" cy="14.38" r="5.75" fill="#ec615b"/><circle cx="485.16" cy="89.33" r="8.64" fill="#461eb8"/><circle cx="243.42" cy="154" r="7.54" fill="#461eb8"/><circle cx="454" cy="4.32" r="4.32" fill="#461eb8"/><circle cx="493.34" cy="176.45" r="4.48" fill="#ec615b"/></g><g id="phone"><path d="M376.13,438.88c-.35,1.46-.7,2.92-1.06,4.38l23.36,13.55,31.25-18.53-.69-3-22.31-9.4Z" transform="translate(30.04 -15.02)" fill="#fff"/><path d="M374.69,443.9l23.37,13.55a.75.75,0,0,0,.75-1.29l-23.36-13.55a.75.75,0,0,0-.76,1.29Z" transform="translate(30.04 -15.02)"/><path d="M375.67,442.73l.69-3.13c.2-.94-1.24-1.34-1.45-.4l-.69,3.13c-.21.94,1.24,1.34,1.45.4Z" transform="translate(30.04 -15.02)"/><path d="M375.75,439.53,399,454.28c.82.52,1.57-.78.76-1.29l-23.25-14.76c-.82-.52-1.57.78-.76,1.3Z" transform="translate(30.04 -15.02)"/><path d="M398.77,453.33l-.39,2.82a.77.77,0,0,0,.52.92.75.75,0,0,0,.92-.52l.39-2.82a.77.77,0,0,0-.52-.92.75.75,0,0,0-.92.52Z" transform="translate(30.04 -15.02)"/><path d="M400.52,454q14.53-8.07,28.52-17.07c.81-.52.06-1.82-.76-1.3q-14,9-28.51,17.08c-.85.47-.09,1.76.75,1.29Z" transform="translate(30.04 -15.02)"/><path d="M399.53,457.35l30.53-18.43a.75.75,0,0,0-.76-1.29l-30.52,18.43a.75.75,0,0,0,.75,1.29Z" transform="translate(30.04 -15.02)"/><path d="M428.64,436.63a2.17,2.17,0,0,1,.22,1.3.79.79,0,0,0,.53.93.76.76,0,0,0,.92-.53,3.88,3.88,0,0,0-.37-2.46c-.44-.86-1.73-.1-1.3.76Z" transform="translate(30.04 -15.02)"/><path d="M376.83,439.45Q392,433.3,407,426.77c.89-.39.12-1.68-.75-1.3q-14.83,6.45-29.83,12.53c-.88.36-.5,1.81.4,1.45Z" transform="translate(30.04 -15.02)"/><path d="M406.48,426.6,428.79,436c.89.37,1.28-1.08.4-1.45l-22.31-9.39c-.89-.37-1.28,1.08-.4,1.45Z" transform="translate(30.04 -15.02)"/><path d="M399.78,443.2a3,3,0,0,1-3.15-3.72,6.08,6.08,0,0,1,2.57-3.57c2.11-1.48,5.36-2,7.34,0,4.55,4.62-4.55,10.24-8.15,6.46-.66-.7-1.72.36-1.06,1.06,2.71,2.85,7.57,1.59,10.22-.77A5.45,5.45,0,0,0,406.5,434c-3.47-2.09-8.27-.26-10.37,2.95s-.74,8.23,3.65,7.77c1-.1,1-1.6,0-1.5Z" transform="translate(30.04 -15.02)"/><path d="M402.78,433.85l-1.57,9.74c-.15.94,1.29,1.35,1.44.39l1.58-9.73c.15-.95-1.3-1.35-1.45-.4Z" transform="translate(30.04 -15.02)"/><path d="M381.62,437.39l21.94,13.86c.82.52,1.57-.78.76-1.3l-21.95-13.86c-.81-.51-1.57.78-.75,1.3Z" transform="translate(30.04 -15.02)"/><path d="M390.62,445.53a.75.75,0,0,0,0-1.5.75.75,0,0,0,0,1.5Z" transform="translate(30.04 -15.02)"/></g></g><g id="charatcer"><g id="leg_right" data-name="leg right"><path d="M311,385.91q8.31-4.32,16.61-8.65c4.64-7.59,8.23-9.13,10.73-9,4,.23,4.7,4.77,10,6.23,5.17,1.42,6.92-2.2,14.85-2.55,6.72-.29,14.46,1.91,14.91,5,.32,2.13-2.9,4.25-4.84,5.53-6.18,4.07-12.1,4.37-19.38,5.19-4.72.54-11.47,1.45-19.73,3.12l-23.53,9.69Z" transform="translate(30.04 -15.02)"/><path d="M305.7,307.45c-5.69,3.74-13.45,9-22.49,15.47-26.13,18.79-40.47,32.08-44.09,35.42a181.92,181.92,0,0,0-19.29,20.43c-10.12,12.64-13.16,20.1-14,22.36-3.24,8.35-5.69,13.39-4.31,20.05,2.17,10.44,11.35,15.9,13,16.82,5.93,3.38,11.49,3.52,17.21,3.59,7.94.1,14.3-1.32,26.5-5.12,12-3.74,20.47-6.37,32.46-11.5a284,284,0,0,0,31.13-15.65c-.15-1.9-.42-4.66-.91-7.95-1.09-7.2-1.67-10.87-3.92-14.36a20.38,20.38,0,0,0-7-6.53A84.46,84.46,0,0,0,321.64,370,68,68,0,0,0,335,350.34c3.25-7.57,7-16.39,4.28-24.64C335.74,315,322.08,307.9,305.7,307.45Z" transform="translate(30.04 -15.02)" fill="#fff"/><path d="M338.24,318.71a458.45,458.45,0,0,1-30.89,38.72c-41.08,46.16-74.32,64.65-70.91,71.78,2,4.22,16.91,4.5,77.49-15.49l7.82-4.4a36,36,0,0,0-4.84-21,34.18,34.18,0,0,0-7-8.23A77.52,77.52,0,0,0,321.64,370a69.42,69.42,0,0,0,12.05-16.79C340.37,339.45,339.32,325.68,338.24,318.71Z" transform="translate(30.04 -15.02)" fill="#9e9e9e" opacity="0.22"/><path d="M300,310.26c-17.2,11.11-33.5,24-49.29,37-14.23,11.74-27.87,24.6-38.06,40.1-8.36,12.71-18.79,32-6.29,45.53,13,14,33.94,9.31,50.05,4.83A281.4,281.4,0,0,0,322.13,410a.75.75,0,0,0-.76-1.29,279.9,279.9,0,0,1-52.21,23.61c-16.87,5.61-39.82,14.28-56.4,3.89-19.53-12.23-7.4-35.56,2.56-50.05,9.5-13.82,21.77-25.5,34.58-36.21C266.13,336.35,283,323,300.79,311.56c.8-.52,0-1.82-.76-1.3Z" transform="translate(30.04 -15.02)"/><path d="M338.23,323.35c4.44,29.37-19.55,50.88-41.34,65.88-.79.55,0,1.85.76,1.3,22.44-15.46,46.58-37.45,42-67.58-.14-.95-1.59-.55-1.45.4Z" transform="translate(30.04 -15.02)"/><path d="M309,381.2c9.39,3.19,11.41,18.79,11.46,27.14a.75.75,0,0,0,1.5,0c-.05-9.27-2.25-25.08-12.56-28.58-.92-.31-1.31,1.13-.4,1.44Z" transform="translate(30.04 -15.02)"/></g><g id="leg_left" data-name="leg left"><path d="M371,386.1l14.69-3.26,11.9-13.14A17.81,17.81,0,0,1,409,368.58c4.26,1.18,5.16,3.57,9.35,4.42.94.19,3.69.64,12-2.41,10.36-3.81,12.5-6.85,15.07-5.57,3.37,1.66,4.53,9.24,1.59,13.86-2.63,4.13-7.44,4.05-15.45,5.95-8.8,2.07-6.68,3-30.51,12.67-5.39,2.19-13.23,5.27-22.92,8.74Q374.57,396.17,371,386.1Z" transform="translate(30.04 -15.02)"/><path d="M341.75,312.68c-9.12,4.55-13.3,8.65-26,19.59-21.9,18.91-54.43,45.54-73.84,68.74a50.57,50.57,0,0,0-10.14,19.16c-1.27,4.71-2.71,10.36-.67,17,2.82,9.1,10.31,13.72,12.88,15.12,3.3,1.79,7.93,3.41,18.27,3.19A97.86,97.86,0,0,0,292,450.11a513.85,513.85,0,0,0,58.53-24.18c8.23-4.17,19.61-10.2,32.94-18.12a25.64,25.64,0,0,0,1-8.26,28.17,28.17,0,0,0-7.27-17.35c1-1.94,2.44-4.85,4.36-8.34,4.76-8.65,6.59-10.63,8.09-14.72,1.88-5.15,1.75-9.58,1.35-15.46-1.1-16.09-3.43-31.58-4.92-40.57C375.21,302.93,358.72,304.21,341.75,312.68Z" transform="translate(30.04 -15.02)" fill="#fff"/><path d="M386.49,307.8a118.2,118.2,0,0,1-11.44,32.05c-33.13,62.09-112.85,71.9-110.4,94.69.5,4.62,4.51,10.94,21.4,17.31,8.94-2.79,16.18-5.36,21.1-7.18a456.68,456.68,0,0,0,59.9-27.45c7.14-3.9,12.86-7.26,16.44-9.41a25.67,25.67,0,0,0,1-8.26c-.4-10-6.63-16.68-8.72-18.76a86.67,86.67,0,0,0,7.52-10c3.08-4.78,5.85-9.06,7.22-14.87a35.36,35.36,0,0,0,.51-12.27C389.63,329.15,387.65,315.41,386.49,307.8Z" transform="translate(30.04 -15.02)" fill="#9e9e9e" opacity="0.27"/><path d="M385.77,308a292.39,292.39,0,0,1,4.6,36.72c.67,13.1-4.66,23.1-12.7,33a124,124,0,0,1-47.14,35.61c-.88.39-.12,1.68.76,1.3a125,125,0,0,0,49.54-38.51c6.86-9,11.42-18.06,11.13-29.56-.33-13-2.45-26.2-4.75-39-.17-1-1.61-.55-1.44.4Z" transform="translate(30.04 -15.02)"/><path d="M319.75,328.44a515.5,515.5,0,0,0-51.61,42.83c-14.41,13.66-31.77,29.7-37.3,49.51-2.25,8-1.88,17.34,3.1,24.34,4.46,6.27,11.82,9.38,19.22,10.51,21.34,3.25,43.29-5.59,62.55-13.66,23.35-9.78,46.89-19.62,68.16-33.51.81-.52.05-1.82-.76-1.29-17.08,11.15-35.62,19.64-54.34,27.64-19.23,8.23-39,17.51-60,19.52-9.15.87-19.33.65-27.39-4.34-9.29-5.75-11.83-17.11-9.45-27.23,4.56-19.43,21.46-35.24,35.33-48.54a512.59,512.59,0,0,1,53.3-44.49c.77-.56,0-1.86-.76-1.29Z" transform="translate(30.04 -15.02)"/><path d="M376.73,382.73a25.79,25.79,0,0,1,6.13,24.33.75.75,0,0,0,1.45.4,27.38,27.38,0,0,0-6.52-25.79c-.66-.71-1.72.35-1.06,1.06Z" transform="translate(30.04 -15.02)"/></g><g id="hand_right" data-name="hand right"><path d="M285.2,179.62c-1.33,2.57-3.14,6.22-5.1,10.67-2.74,6.23-7.05,16.91-11.81,35.9-5.41,21.63-7.06,36.72-9.17,56-.86,7.85-1.52,15.54.34,25.24a79.57,79.57,0,0,0,6.47,19.15,103.54,103.54,0,0,0,14.76,23.35c.84,4.24,1.85,9.15,3,14.61,3,14,4.59,19.28,8.9,24.32a29,29,0,0,0,3.76,3.67c-3.06-8.7-3.47-11.27-3-11.49,1-.45,4.48,9.32,12.59,11.44a13.33,13.33,0,0,0,5.1.29,37.86,37.86,0,0,0-2.69-23.87l12.68,14.58a34.24,34.24,0,0,0-2.33-13.15,35.14,35.14,0,0,0-13.57-16.43c7.95.21,9.84-.78,10.08-1.73.68-2.72-11.39-8.42-12.58-9-2-.93-3.66-1.6-4.81-2a99.64,99.64,0,0,1-14.47-48.31c.67-7.49,1.55-13.41,2.14-17,3.15-19.39,6.78-26.35,10.07-47.53,1.19-7.62,1.78-11.51,1.64-15.41C296.74,198.15,290.22,186.65,285.2,179.62Z" transform="translate(30.04 -15.02)" fill="#fff"/><path d="M296.41,205.11c-1.37-.23-4.05,13.5-10.05,35-5.47,19.64-10.91,35.68-15,46.94a165.61,165.61,0,0,0,6.12,21.09c8.73,24.06,17.9,32.05,24.49,51.36a108.35,108.35,0,0,1,5.64,34.09,11.92,11.92,0,0,0,2.86-3.14c5.14-8.21-2.11-19.91-2.63-20.73,9.11,12.18,12.18,14.3,13.21,13.72,1.83-1-1.19-11.55-6.77-19.93A47.41,47.41,0,0,0,304.73,353q9.94,1,10.54-.91.86-2.76-18-11.68c-1.05-2.32-2.64-6-4.43-10.54-5.41-13.85-9.26-23.69-9.52-35.71-.09-4.16.62-8.56,2-17.35.87-5.36,1.66-8.92,6.16-28.74,3-13.09,3-13.1,3.11-13.82C297.16,220.32,297.84,205.34,296.41,205.11Z" transform="translate(30.04 -15.02)" fill="#9e9e9e" opacity="0.23"/><path d="M284.19,180.9c-5.31,8.12-8.3,17.86-11.3,27a307,307,0,0,0-8.26,30.38,311.12,311.12,0,0,0-7,60.83.75.75,0,0,0,1.5,0,309.41,309.41,0,0,1,6.92-60.43q3.15-14.49,7.68-28.62c3.09-9.63,6.15-19.89,11.72-28.41.53-.81-.77-1.56-1.29-.76Z" transform="translate(30.04 -15.02)"/><path d="M296.59,208.37c-.09,28.49-12.3,55.17-13.44,83.55,0,1,1.46,1,1.5,0,1.14-28.38,13.35-55.05,13.44-83.55a.75.75,0,0,0-1.5,0Z" transform="translate(30.04 -15.02)"/><path d="M275.73,287.05c6.66,1.9,7.46,8.93,8.28,14.74a117.84,117.84,0,0,0,11.91,38.08c.43.86,1.73.11,1.29-.76A119.55,119.55,0,0,1,286,305.16c-1.22-7.33-1.25-17.09-9.89-19.55a.75.75,0,0,0-.4,1.44Z" transform="translate(30.04 -15.02)"/><path d="M258,301c1.13,19.2,11.93,35.16,22.77,50.34.55.78,1.85,0,1.29-.76-10.66-14.94-21.45-30.66-22.56-49.58-.06-1-1.56-1-1.5,0Z" transform="translate(30.04 -15.02)"/><path d="M295.65,341.32a49.58,49.58,0,0,1,12.9,5.07c.78.45,1.54.92,2.29,1.4.94.62,3.31,2.84,2.33,4.26-.4.58-5.64,0-6.47,0a.75.75,0,0,0,0,1.5c2.14,0,12.8,1.13,8.64-4.18-1.8-2.29-5.29-3.92-7.8-5.22a51.71,51.71,0,0,0-11.49-4.26c-.94-.23-1.34,1.22-.4,1.45Z" transform="translate(30.04 -15.02)"/><path d="M280,350.09c1.69,8.74,3.38,17.52,6.25,26,1.94,5.73,4.26,13.87,9.79,17.08a.76.76,0,0,0,1.13-.65,20.75,20.75,0,0,0-3.35-11.85c-.52-.81-1.82-.06-1.3.76a19.24,19.24,0,0,1,3.15,11.09l1.13-.65c-6.34-3.68-8.8-14.68-10.68-21.27-2-6.86-3.32-13.88-4.68-20.87-.18-.95-1.62-.55-1.44.39Z" transform="translate(30.04 -15.02)"/><path d="M305.3,355.12a38.31,38.31,0,0,1,14.56,24l.37,2.83a3.5,3.5,0,0,1-3-2c-3-2.71-5.46-6.51-8.05-9.59-.62-.74-1.68.33-1.06,1.06,2.68,3.2,5.33,6.43,8.05,9.59,1.52,1.77,2.48,3.23,4.92,3.23a.76.76,0,0,0,.75-.75,40.46,40.46,0,0,0-15.48-29.38c-.75-.59-1.82.47-1.06,1.06Z" transform="translate(30.04 -15.02)"/><path d="M293,381.57a73.47,73.47,0,0,0,12.12,11.19c1.71,1.24,3.88,3.29,5.88,1.51,2.38-2.11,1.38-8.65,1.26-11.31a27.44,27.44,0,0,0-3.78-13.62c-.5-.82-1.8-.07-1.29.76a24.59,24.59,0,0,1,3.48,11.28c.2,2.54.69,6.26,0,8.7-1.64,5.88-7-.16-9.36-2.24a73.88,73.88,0,0,1-7.26-7.33c-.64-.72-1.7.34-1.06,1.06Z" transform="translate(30.04 -15.02)"/><path d="M297.31,370a110.56,110.56,0,0,0,11,23.76c.5.83,1.8.07,1.29-.75a109.73,109.73,0,0,1-10.81-23.41c-.29-.91-1.74-.52-1.44.4Z" transform="translate(30.04 -15.02)"/></g><g id="torso"><path d="M310.58,158.73a53.23,53.23,0,0,0-20.2,19.3c-9.49,16.23-6.93,33.79-5.39,44.44,2.31,15.83,6,14.18,9.43,34.55,1.15,6.84,1.14,9.49,3.59,32.32,1,9.16,1.83,16.66,2.4,21.57,5.23,2.62,24.39,11.39,47.61,5.21a66.56,66.56,0,0,0,29-16.53A604.34,604.34,0,0,0,386,220.22c.9-19.67.78-38.14,0-55.2C382.6,163.06,342.68,140.68,310.58,158.73Z" transform="translate(30.04 -15.02)" fill="#ec615b"/></g><g id="hand_left" data-name="hand left"><path d="M373.7,179.48a80,80,0,0,0-12.09,25.68A82.06,82.06,0,0,0,359,227.21c-.08,18.12-.08,38.23.15,60.45-2.21,2.84-5.65,7.21-9.94,12.5-5.07,6.24-9.1,11-9.78,11.79-10.22,11.95-32.81,27.38-41.69,33.29A43,43,0,0,0,285,341.15c-.64-.09-11.43-1.69-12.31,1-.39,1.16,1.23,2.8,2.14,3.51,2.41,1.88,4.49.81,6.85,2.46a7.45,7.45,0,0,1,2.75,3.94,140.09,140.09,0,0,1-17.11,11.91c-9.66,5.7-16.87,8.39-16.43,10.54.21,1,2.13,2,9.45,2.15l4.74,2.34,7.12,2.44a4.4,4.4,0,0,0,.46,3.67c2.6,3.26,12.78-.57,18.52-3.91a40.63,40.63,0,0,0,15-15.65q12.42-7.15,25.44-15.72a487.31,487.31,0,0,0,51.66-39.36c1.28-5.94,2.76-13.35,4.2-21.93.58-3.49,2-12.38,4.37-32.89,0,0,1.88-16.52,2.5-50.88.08-4.47.1-10.17-3.48-15.44C386.13,182.24,377.81,180.18,373.7,179.48Z" transform="translate(30.04 -15.02)" fill="#fff"/><path d="M385.34,183.84c.28,7.27.5,18,.08,31.08-1.22,37.91-1.83,56.87-11.49,76.68-8.47,17.4-20,27.68-37.74,43.49a235.77,235.77,0,0,1-41.67,29.55,238.18,238.18,0,0,1-27.87,13.3,11.35,11.35,0,0,0,6,7.12c3,1.34,5.72.58,10-.64A39.8,39.8,0,0,0,299,375.78a40.26,40.26,0,0,0,8.3-10.27c9.07-5.89,16.2-10.5,20.33-13.16,24-15.49,30.59-19.61,39.68-27.14a200.41,200.41,0,0,0,16-14.79c1.12-5.19,2.53-12.12,3.94-20.34,3.05-17.87,2.6-21.37,5.53-45.35,3.61-29.51,5.83-36.69,1.2-47.62A46.2,46.2,0,0,0,385.34,183.84Z" transform="translate(30.04 -15.02)" fill="#9e9e9e" opacity="0.24"/><path d="M358,222.07q1.68,32.77.4,65.59c0,1,1.46,1,1.5,0q1.27-32.81-.4-65.59c0-1-1.55-1-1.5,0Z" transform="translate(30.04 -15.02)"/><path d="M359.76,287.05c-5,3.18-7.9,8.4-11.4,13a167.2,167.2,0,0,1-15.3,17.48,169.65,169.65,0,0,1-35.68,27,.75.75,0,0,0,.76,1.3A170.64,170.64,0,0,0,331.73,321a168.7,168.7,0,0,0,14.71-16c4.42-5.49,8.05-12.77,14.08-16.6.81-.52.06-1.82-.76-1.3Z" transform="translate(30.04 -15.02)"/><path d="M297.83,343.66c-4.88-.57-9.32-2.88-14.21-3.46-2.79-.34-8.7-1.22-11,1-1.28,1.25-.94,2.6.22,3.87,3.12,3.37,8.15,3.13,10.95,7.32.54.8,1.84.05,1.3-.75a12.52,12.52,0,0,0-3.9-3.8c-2-1.23-10.42-3.93-3.76-6.3,3.25-1.15,8.76.48,11.89,1.44a48.1,48.1,0,0,0,8.49,2.18c1,.11.95-1.39,0-1.5Z" transform="translate(30.04 -15.02)"/><path d="M281.67,353.5c-6,4.39-12,8.67-18.75,11.73-3,1.34-12.52,4.52-12.68,8.94-.31,8.07,22.54-2.55,25.44-3.92.88-.41.12-1.7-.75-1.29-4.67,2.19-9.4,4.45-14.44,5.64-1.42.34-3.49,1-4.9.81-1.25-.2-3.35-.43-2.66-2.69.51-1.71,4.7-3.44,6.19-4.16a142.68,142.68,0,0,0,23.3-13.77c.77-.57,0-1.87-.75-1.29Z" transform="translate(30.04 -15.02)"/><path d="M260.17,377.34a21,21,0,0,0,17-1c.87-.44.11-1.73-.75-1.3a19.51,19.51,0,0,1-15.81.88c-.9-.33-1.3,1.12-.4,1.45Z" transform="translate(30.04 -15.02)"/><path d="M264.58,379.49c3.83,4.39,11.7,2.6,16.66,1.64.95-.19.55-1.63-.4-1.45-4.29.83-11.87,2.57-15.2-1.26-.64-.72-1.7.34-1.06,1.07Z" transform="translate(30.04 -15.02)"/><path d="M269.44,382.23c2.36,7.3,14,3.11,18.87,1.11A40.81,40.81,0,0,0,308,365.89a.75.75,0,0,0-1.3-.76,39.46,39.46,0,0,1-13.84,14.25c-3.55,2.14-19.61,9.72-21.95,2.45-.3-.91-1.74-.52-1.45.4Z" transform="translate(30.04 -15.02)"/><path d="M306.59,366.15q21.81-12.91,42.75-27.25c12.06-8.28,25.76-16.46,34.45-28.52.56-.78-.74-1.53-1.3-.76-9.19,12.77-24.18,21.4-37,30.11s-26.18,17.15-39.65,25.12a.75.75,0,0,0,.76,1.3Z" transform="translate(30.04 -15.02)"/><path d="M375.63,182.54c14.21-3.75,18,14.26,18,24.33,0,11.29-.7,22.62-1.47,33.88a480.86,480.86,0,0,1-9.6,69.47c-.2.95,1.24,1.35,1.45.4,5.85-26.79,8.93-54.07,10.34-81.43.59-11.4,2.71-24.77-.89-35.86-2.53-7.79-9.61-14.52-18.25-12.24a.75.75,0,0,0,.4,1.45Z" transform="translate(30.04 -15.02)"/></g><g id="head"><path d="M283.17,99.37c-.81,1.52-.87,5-1,11.89-.14,8.18-.24,13.5.87,20.26,1.07,6.5,2.42,14.7,8.07,23.19a47.54,47.54,0,0,0,14.08,13.71l12.74-3.7a19.53,19.53,0,0,0,10.76,15.22,18.11,18.11,0,0,0,8.45-1.89c6.79-3.42,9-10.12,9.42-11.55a53.65,53.65,0,0,1-4.7-27.55c0-1.8.21-4.46,2-6.18,2.23-2.12,4.61-.69,7.47-2.6,3.26-2.19,4.92-7.27,3.64-11.46a9.7,9.7,0,0,0-2.67-4.24c-4-3.65-9.52-2.42-10.13-2.27A37.61,37.61,0,0,0,331,98.41C314.86,86.45,288.75,88.94,283.17,99.37Z" transform="translate(30.04 -15.02)" fill="#fff"/><path d="M326.53,108.52A50.63,50.63,0,0,1,328.64,121c1,24.32-16.3,42.07-21.57,47.1,2.37-.64,4.84-1.26,7.42-1.82,1.48-.33,2.94-.63,4.37-.89q.79,3.14,1.61,6.27a25.33,25.33,0,0,0,12.38-5.75,26.39,26.39,0,0,0,8.69-17.54c3.2-6.17,6.13-11.21,8.39-14.93,6.31-10.4,9.27-13.57,8.64-18.77-.73-6.09-5.77-9.73-6.32-10.12C345.59,99.86,334.87,101.17,326.53,108.52Z" transform="translate(30.04 -15.02)" fill="#9e9e9e" opacity="0.18"/><path d="M318.86,165.35a35.12,35.12,0,0,0,15.83,4.34A34.65,34.65,0,0,0,346,168.14a97.29,97.29,0,0,1-4-15.7,98.33,98.33,0,0,1-1.25-11.86,59.5,59.5,0,0,1-21.86,24.77Z" transform="translate(30.04 -15.02)" fill="#9e9e9e" opacity="0.17"/><path d="M302.06,87.23a29.93,29.93,0,0,0,4.41,13c10.26,16.11,33,15.09,34.55,15a7.06,7.06,0,0,1,3-2.26c3.51-1.36,8,.51,10.12,3.78,2.73,4.16.63,8.92.32,9.58a11,11,0,0,1-3.09,3.86,12.26,12.26,0,0,1-7.47,2.6,34.82,34.82,0,0,0-2.13,14.68,40.8,40.8,0,0,0,8.85,20.76C364,184.55,393.73,190.7,402,180.15c5.77-7.36-.08-21.35-3.38-28,10.92-2.3,18.38-10.28,18.69-18.69a17.52,17.52,0,0,0-8.3-15.31c-11.92-6.92-24.79,8.45-34.78,3.11-12.19-6.5.24-32.91-14.54-45.94-10.27-9.06-28.65-7.21-40.49-1.82A45.52,45.52,0,0,0,302.06,87.23Z" transform="translate(30.04 -15.02)" fill="#461eb8"/><path d="M318.41,81a57.89,57.89,0,0,1-20,18.17,56.8,56.8,0,0,1-15.65,5.73,96,96,0,0,0-.78,14.51c.15,6.77.47,17,5.37,28.44a42.86,42.86,0,0,0,7.23,12.07,40.51,40.51,0,0,0,9.71,8.14c2.29-.37,4.74-.86,7.33-1.51,2.25-.57,4.35-1.19,6.3-1.83,1.38,1.5,4.41,5.22,3.8,9.46-1.11,7.74-13.38,10.48-15.26,10.91-10.87,2.43-24.49-1.46-31.41-10.91-3.79-5.18-4.29-12.34-5.19-26.73-.64-10.21-1.27-21.37,1.56-35.82,2.36-12.11,3.54-18.17,8.05-24.12,11.56-15.3,35.69-19.74,39.71-14C320.06,74.7,320.32,76.89,318.41,81Z" transform="translate(30.04 -15.02)" fill="#461eb8"/><path d="M282.37,102.22c-1.76,12.85-1.68,26.08,2,38.62,3.21,10.94,9.39,23.52,20.45,28.23.87.37,1.64-.92.75-1.29-11.15-4.75-17.23-17.84-20.19-28.9-3.17-11.82-3.21-24.21-1.55-36.27.13-.94-1.32-1.35-1.45-.39Z" transform="translate(30.04 -15.02)"/><path d="M305.64,168.94c17.41-1.63,28.68-15.44,36.87-29.61a.75.75,0,0,0-1.29-.76c-7.9,13.66-18.73,27.3-35.58,28.87-1,.09-1,1.59,0,1.5Z" transform="translate(30.04 -15.02)"/><path d="M318.11,165.35a24,24,0,0,0,7.43,14.76c.7.66,1.76-.4,1.06-1.06a22.37,22.37,0,0,1-7-13.7c-.12-.95-1.62-1-1.5,0Z" transform="translate(30.04 -15.02)"/><path d="M340.23,140.8a71.91,71.91,0,0,0,5.61,25.9c.37.88,1.82.49,1.45-.4a70.55,70.55,0,0,1-5.56-25.5.75.75,0,0,0-1.5,0Z" transform="translate(30.04 -15.02)"/><path d="M328.49,180.66c3.83,1.33,8.4-1.27,11.37-3.53a22.89,22.89,0,0,0,7.29-9.58c.37-.89-1.08-1.28-1.45-.4a21.16,21.16,0,0,1-6.28,8.42c-2.68,2.15-7,4.86-10.53,3.64-.91-.31-1.3,1.14-.4,1.45Z" transform="translate(30.04 -15.02)"/><path d="M297.72,108.79a204.21,204.21,0,0,0,1.06,33.08c.07.66,1,1.12,1.4.38l4.21-8.65c.42-.86-.87-1.62-1.29-.75l-4.22,8.64,1.4.38a204.21,204.21,0,0,1-1.06-33.08c0-1-1.46-1-1.5,0Z" transform="translate(30.04 -15.02)"/><path d="M286.27,113.92a7.33,7.33,0,0,1,7.1-3.45c1,.1.95-1.4,0-1.5a8.8,8.8,0,0,0-8.4,4.19.75.75,0,0,0,1.3.76Z" transform="translate(30.04 -15.02)"/><path d="M305.11,106.43a9.42,9.42,0,0,1,11.08-.48c.81.53,1.57-.77.76-1.3a10.9,10.9,0,0,0-12.6.48c-.75.58,0,1.89.76,1.3Z" transform="translate(30.04 -15.02)"/><path d="M285.82,123.21a4.49,4.49,0,0,0,4.72,4.51c2.85-.11,4.78-2.82,5.23-5.41.17-.94-1.28-1.35-1.45-.4a5,5,0,0,1-3.08,4.17,3,3,0,0,1-3.92-2.87c.05-1-1.45-1-1.5,0Z" transform="translate(30.04 -15.02)"/><path d="M307.27,118.65a5.42,5.42,0,0,0,6.88,3.49c3.31-1,5.13-4.44,5.28-7.72,0-1-1.46-1-1.5,0a6.93,6.93,0,0,1-3.24,5.84c-2.21,1.28-5.17.58-6-2-.29-.92-1.74-.52-1.45.4Z" transform="translate(30.04 -15.02)"/><path d="M312.15,128.33h.31a.75.75,0,0,0,0-1.5h-.31a.75.75,0,0,0,0,1.5Z" transform="translate(30.04 -15.02)"/><path d="M319.54,122.89v.31a.75.75,0,0,0,1.5,0v-.31a.75.75,0,0,0-1.5,0Z" transform="translate(30.04 -15.02)"/><path d="M318.41,131.15a.75.75,0,0,0,0-1.5.75.75,0,0,0,0,1.5Z" transform="translate(30.04 -15.02)"/><path d="M299.72,152.78a44.83,44.83,0,0,1,10.16.08c1,.12.95-1.38,0-1.5a44.83,44.83,0,0,0-10.16-.08c-1,.1-1,1.6,0,1.5Z" transform="translate(30.04 -15.02)"/><path d="M341.55,115.74c5.38-5.81,13.58-.5,13,6.63A10.54,10.54,0,0,1,343.87,132c-1-.05-1,1.45,0,1.5,7.27.37,13.51-6.82,12.07-14s-10.21-10.49-15.45-4.83c-.66.71.4,1.77,1.06,1.06Z" transform="translate(30.04 -15.02)"/><path d="M348.34,115.59a8.66,8.66,0,0,0-5.36,10.7c.3.92,1.75.53,1.45-.39a7.13,7.13,0,0,1,4.31-8.86c.9-.32.51-1.77-.4-1.45Z" transform="translate(30.04 -15.02)"/><path d="M344.49,121.54a4.09,4.09,0,0,1,3,4.59c-.17.94,1.27,1.35,1.45.4a5.61,5.61,0,0,0-4-6.43.75.75,0,0,0-.4,1.44Z" transform="translate(30.04 -15.02)"/><path d="M-28.59,361.41a1.5,1.5,0,0,0,0-3,1.5,1.5,0,0,0,0,3Z" transform="translate(30.04 -15.02)" fill="#9e9e9e"/></g></g></svg>