<svg xmlns="http://www.w3.org/2000/svg" viewBox="0 0 24 24"><defs><style>.cls-1{fill:none;}</style></defs><title>ic-attached-flipped-black</title><g id="Livello_2" data-name="Livello 2"><g id="Livello_2-2" data-name="Livello 2"><path d="M19.7,10.9,11.57,19a4,4,0,0,1-5.66-5.66l8.84-8.84a2.5,2.5,0,1,1,3.54,3.54l-7.42,7.42a1,1,0,0,1-1.41-1.41l6.72-6.72L15.1,6.3,8.39,13a2.5,2.5,0,0,0,3.54,3.54l7.42-7.42a4,4,0,0,0-5.66-5.66L4.85,12.31a5.5,5.5,0,0,0,7.78,7.78L20.76,12Z"/><path class="cls-1" d="M0,0H24V24H0Z"/></g></g></svg>