<?xml version="1.0" encoding="utf-8"?>
<!-- Generator: Adobe Illustrator 28.4.1, SVG Export Plug-In . SVG Version: 6.00 Build 0)  -->
<svg version="1.1" id="Layer_1" xmlns="http://www.w3.org/2000/svg" xmlns:xlink="http://www.w3.org/1999/xlink" x="0px" y="0px"
	 viewBox="0 0 490 375" style="enable-background:new 0 0 490 375;" xml:space="preserve">
<style type="text/css">
	.st0{opacity:0.79;fill:#396AB3;}
	.st1{opacity:0.51;fill:#2259A6;}
	.st2{fill:#4069B3;}
	.st3{fill:#6C96CE;}
	.st4{fill:#6590CB;}
	.st5{fill:#8BB2DE;}
	.st6{fill:#A5C5E8;}
	.st7{fill:#789BC9;}
	.st8{fill:#184275;}
	.st9{fill:#4E7BBE;}
	.st10{fill:#779BC9;}
</style>
<path class="st0" d="M325.2,179.5c-3.4-19.5-6.1-33-18.2-40.4c-20.5-12.4-37.3-17.3-72.3-22.5c-15.6-2.3-14.8,2.3-26.9,1.3
	c-21.4-1.8-38.9,20.8-40.4,22.8c-9.2,11.8-12.3,26.2-8.6,39.9c2.4,8.9,4.1,18.1,3.6,27.3c-0.8,15.9-0.3,30.8,17.1,40.3
	c15.5,8.5,35.2,16,53.9,17.3c12.7,0.9,26.9-0.5,39.2-3.5C334.9,247,329.8,206.3,325.2,179.5z"/>
<path class="st1" d="M304.4,182.7c-2.6-16-4.7-27.1-14-33.1c-15.7-10.2-28.7-14.2-55.7-18.5c-12-1.9-11.4,1.9-20.7,1
	c-16.5-1.5-30,17.1-31.2,18.7c-7.1,9.7-9.5,21.5-6.6,32.7c1.9,7.3,3.1,14.9,2.8,22.4c-0.6,13.1-0.3,25.3,13.2,33.1
	c12,6.9,27.1,13.1,41.4,14.2c9.8,0.7,20.7-0.5,30.2-2.9C311.9,238.1,308,204.7,304.4,182.7z"/>
<g>
	<path class="st2" d="M423.4,233.5c-10.7,0-21.5,0-32.2,0c-4,0-4.9-1.2-4.9-6.3c0-8.8,0.1-17.6-0.1-26.3c-0.1-3.5,0.6-4.9,3.6-4.9
		c20.8,0.1,41.6,0.1,62.4,0.1c2,0,4.1,0.5,6.1,0.7c1.5,0.2,1.9,1.4,1.9,3.1c0,10,0,19.9,0,29.9c0,3.3-1.7,3.7-3.8,3.7
		C445.4,233.5,434.4,233.5,423.4,233.5z M423,205.6c9.6,0,19.3,0,28.8-0.1c0.9,0,2.4,0.7,2.4-1.3c0-1.7-1.4-1.1-2.2-1.1
		c-19.3,0-38.4,0-57.7,0c-0.8,0-2.2-0.6-2.3,1.1c-0.1,2,1.5,1.3,2.4,1.3C404,205.6,413.5,205.6,423,205.6z M423,216
		c9.6,0,19.3,0,28.8-0.1c0.9,0,2.4,0.7,2.4-1.3c0-1.7-1.4-1.1-2.3-1.1c-19.3,0-38.5,0-57.7,0c-0.8,0-2.2-0.5-2.3,1.1
		c0,2,1.5,1.3,2.4,1.3C404,216,413.5,216,423,216z M423,226.4c9.3,0,18.6,0,28,0c0.8,0,1.7,0,2.5-0.1c0.6-0.1,1-0.4,1-1.3
		c-0.1-0.6-0.4-0.9-0.8-1c-0.6-0.1-1.2-0.1-1.9-0.1c-19.1,0-38.1,0-57.1,0c-0.9,0-2.6-0.7-2.6,1.1c0,2.1,1.8,1.3,2.8,1.3
		C404.2,226.4,413.6,226.4,423,226.4z M423.4,208.7c-9.3,0-18.6,0-28,0c-0.7,0-1.5,0-2.2,0c-0.5,0.1-1.2-0.1-1.2,0.9
		c-0.1,1,0.6,1.3,1.2,1.5c0.5,0.1,1,0.1,1.5,0.1c18.9,0,37.9,0,56.8,0c1,0,2.6,0.3,2.6-1.3c0-1.9-1.7-1.1-2.5-1.1
		C442.2,208.7,432.8,208.7,423.4,208.7z M423.4,219.1c-9.7,0-19.4,0-29.2,0c-0.7,0-2-0.5-2,0.9c-0.1,1.7,1.2,1.5,2.1,1.5
		c19.3,0,38.5,0,57.8,0c0.9,0,2.2,0.1,2.2-1.3c-0.1-1.7-1.5-1-2.2-1C442.4,219.1,432.9,219.1,423.4,219.1z"/>
	<path class="st3" d="M423,205.6c-9.5,0-19,0-28.5,0c-0.9,0-2.4,0.7-2.4-1.3c0-1.7,1.5-1.1,2.3-1.1c19.3-0.1,38.4-0.1,57.7,0
		c0.8,0,2.3-0.5,2.2,1.1c0,2-1.5,1.3-2.4,1.3C442.2,205.6,432.6,205.6,423,205.6z"/>
	<path class="st4" d="M423,216c-9.5,0-19.1,0-28.5-0.1c-0.9,0-2.4,0.7-2.4-1.3c0-1.6,1.5-1.1,2.3-1.1c19.3,0,38.5,0,57.7,0
		c0.8,0,2.2-0.5,2.3,1.1c0,2-1.5,1.3-2.4,1.3C442.2,216,432.6,216,423,216z"/>
	<path class="st4" d="M423,226.4c-9.4,0-18.8,0-28.3-0.1c-1,0-2.8,0.9-2.8-1.3c0-1.8,1.7-1.1,2.6-1.1c19.1-0.1,38.1,0,57.1,0
		c0.6,0,1.2,0.1,1.9,0.1c0.4,0.1,0.8,0.4,0.8,1c0.1,0.8-0.4,1.2-1,1.3c-0.8,0.1-1.7,0.1-2.5,0.1C441.7,226.4,432.3,226.4,423,226.4z
		"/>
	<path class="st4" d="M423.4,208.7c9.4,0,18.9,0,28.3,0.1c0.9,0,2.5-0.8,2.5,1.1c0,1.6-1.5,1.3-2.6,1.3c-18.9,0-37.9,0-56.8,0
		c-0.5,0-1,0-1.5-0.1c-0.6-0.1-1.3-0.5-1.2-1.5c0.1-0.9,0.7-0.8,1.2-0.9c0.7-0.1,1.5,0,2.2,0C404.8,208.7,414.1,208.7,423.4,208.7z"
		/>
	<path class="st4" d="M423.4,219.1c9.5,0,19.1,0,28.6,0c0.8,0,2.2-0.7,2.2,1c0,1.5-1.3,1.3-2.2,1.3c-19.3,0-38.5,0-57.8,0
		c-0.9,0-2.2,0.2-2.1-1.5c0.1-1.5,1.3-0.9,2-0.9C403.9,219.1,413.6,219.1,423.4,219.1z"/>
</g>
<g>
	<path class="st5" d="M430.8,126.2c8.5,0,17,0.1,25.5-0.1c2.3-0.1,3.1,0.7,3,3.1c-0.2,3.2-0.1,6.5-0.1,9.8c0,2.3-1,3.4-3.1,3.4
		c-17.4,0-34.7,0-52.1,0c-2.2,0-3.1-1.2-3.1-3.5c0.1-2.7,0-5.4,0-8.2c0-4,0.6-4.6,4.5-4.6C413.9,126.2,422.3,126.2,430.8,126.2z
		 M430.3,133.2c6.7,0,13.4,0,20.1,0c0.5,0,1,0.1,1.5,0c1.2-0.1,3.1,0.5,3.1-1.2c0-2-2-1.1-3.2-1.4c-0.1,0-0.2,0-0.3,0
		c-14.4,0-28.8,0-43.2,0c-0.6,0-1.2,0-1.9,0c-0.6,0-1.3,0.2-1.3,1.1c0,0.7,0.5,1.3,1.1,1.3c0.8,0.1,1.7,0.1,2.5,0.1
		C416.1,133.2,423.2,133.2,430.3,133.2z M423,135.2c-5.1,0-10.1,0-15.2,0c-0.9,0-2.5-0.6-2.4,1c0.1,1.5,1.7,0.9,2.6,0.9
		c4.7,0.1,9.5,0,14.2,0c5.1,0,10.1,0,15.2,0c1,0,2.8,0.5,2.8-1.1c0-1.5-1.7-0.7-2.6-0.8C432.8,135.2,427.9,135.2,423,135.2z"/>
	<path class="st6" d="M430.3,133.2c-7.2,0-14.3,0-21.4,0c-0.8,0-1.7,0-2.5-0.1c-0.6-0.1-1.1-0.6-1.1-1.3c0-0.9,0.6-1.1,1.3-1.1
		c0.6,0,1.2,0,1.9,0c14.4,0,28.8,0,43.2,0c0.1,0,0.2,0,0.3,0c1.2,0.2,3.2-0.7,3.2,1.4c0,1.7-1.9,1.1-3.1,1.2c-0.5,0.1-1,0-1.5,0
		C443.8,133.2,437,133.2,430.3,133.2z"/>
	<path class="st6" d="M423,135.2c4.9,0,9.7-0.1,14.5,0.1c0.9,0,2.6-0.7,2.6,0.8c0,1.5-1.7,1.1-2.8,1.1c-5.1,0.1-10.1,0-15.2,0
		c-4.7,0-9.5,0-14.2,0c-0.9,0-2.5,0.6-2.6-0.9c-0.1-1.6,1.5-1,2.4-1C412.9,135.2,418,135.2,423,135.2z"/>
</g>
<g>
	<path class="st7" d="M220.7,157c3.3-2.6,7.6-4.1,11.9-4.1c2.5,0,4.5,0.9,6,2.3c0.6,0.5,1.1,1.1,1.5,1.7c0.4-0.6,0.9-1.2,1.5-1.7
		c1.5-1.4,3.5-2.3,6-2.3c4.3,0,8.6,1.5,11.9,4.1c2.6,2.1,4.7,5,5.4,8.5c1.7,0.1,3.1,0.8,4.4,1.9c1.9,1.6,3.3,3.9,4.2,6.5
		c1.3,3.9,1.7,8.9,0.3,13.2c0.4,0.2,0.7,0.4,1.1,0.6c1.4,0.9,2.4,2.3,3.2,3.9c1.5,3.1,2.2,7.4,2.2,12.7c0,5.8-2.2,9.8-4.9,12.2
		c-1.7,1.5-3.6,2.4-5.3,2.9c-0.5,2.9-1.9,6.1-4.1,9c-2.9,3.7-7.3,6.7-13.2,6.7c-4.7,0-8.4-2.7-10.9-5.3c-0.6-0.7-1.2-1.3-1.7-2
		c-0.4,0.7-1,1.3-1.7,2c-2.4,2.6-6.2,5.3-10.9,5.3c-5.9,0-10.4-3.1-13.2-6.7c-2.2-2.8-3.6-6.1-4.1-9c-1.7-0.5-3.6-1.3-5.3-2.9
		c-2.8-2.4-4.9-6.3-4.9-12.2c0-5.3,0.6-9.6,2.2-12.7c0.8-1.6,1.9-2.9,3.2-3.9c0.3-0.2,0.7-0.5,1.1-0.6c-1.4-4.3-1-9.2,0.3-13.2
		c0.9-2.5,2.3-4.9,4.2-6.5c1.3-1.1,2.8-1.7,4.4-1.9C216,162,218,159.1,220.7,157z M237.6,165.7L237.6,165.7c0-0.1,0-0.2,0-0.3
		c0-0.2-0.1-0.6-0.1-1c-0.1-0.9-0.3-1.9-0.7-2.9c-0.4-1.1-0.9-1.9-1.5-2.5c-0.6-0.5-1.4-0.9-2.7-0.9c-3.3,0-6.5,1.1-8.8,3
		c-2.3,1.9-3.7,4.3-3.7,7.3c0,0.8-0.4,1.6-1,2.1c-0.6,0.5-1.5,0.6-2.2,0.3c-1-0.3-1.8-0.1-2.7,0.6c-1,0.8-1.9,2.3-2.6,4.2
		c-1.4,4-1.3,8.9,0.6,11.8c0.3,0.4,0.4,0.9,0.4,1.4h3.8c6.3,0,11.3,5.1,11.3,11.5v1.7c2.9,1.1,5,3.9,5,7.2c0,4.3-3.4,7.7-7.5,7.7
		c-4.2,0-7.5-3.4-7.5-7.7c0-3.3,2.1-6.2,5-7.2v-1.7c0-3.5-2.8-6.4-6.3-6.4h-8.8c-0.3,0-0.6-0.1-0.9-0.1l0,0c-1,2-1.6,5.4-1.6,10.4
		c0,4.4,1.6,6.9,3.2,8.3c1.7,1.5,3.6,1.9,4.3,1.9c1.4,0,2.5,1.1,2.5,2.5c0,1.9,1,5.2,3.2,8c2.2,2.7,5.2,4.8,9.3,4.8
		c2.8,0,5.3-1.6,7.3-3.7c1-1,1.7-2.1,2.2-2.9c0.3-0.5,0.4-0.8,0.5-1.1c0-0.1,0.1-0.1,0.1-0.1v-40.8h-5.4c-1,3-3.8,5.1-7.1,5.1
		c-4.2,0-7.5-3.4-7.5-7.7c0-4.3,3.4-7.7,7.5-7.7c3.3,0,6.1,2.1,7.1,5.1h5.4L237.6,165.7L237.6,165.7z M242.6,217v4.9
		c0,0.1,0,0.1,0.1,0.1c0.1,0.3,0.3,0.6,0.5,1.1c0.5,0.9,1.2,1.9,2.2,2.9c1.9,2.1,4.5,3.7,7.3,3.7c4.1,0,7.2-2.1,9.3-4.8
		c2.2-2.8,3.2-6.1,3.2-8c0-1.4,1.2-2.5,2.5-2.5c0.6,0,2.6-0.4,4.3-1.9c1.6-1.4,3.2-3.9,3.2-8.3c0-5-0.6-8.4-1.6-10.4
		c-0.4-1-1-1.5-1.5-1.9c-0.5-0.3-1.1-0.5-1.9-0.5c-0.9,0-1.8-0.5-2.2-1.3c-0.4-0.8-0.4-1.9,0.1-2.6c1.9-2.9,2-7.8,0.6-11.8
		c-0.7-1.9-1.7-3.4-2.6-4.2c-0.9-0.7-1.7-0.9-2.7-0.6c-0.8,0.3-1.6,0.1-2.2-0.3c-0.6-0.5-1-1.3-1-2.1c0-2.9-1.4-5.4-3.7-7.3
		c-2.4-1.9-5.6-3-8.8-3c-1.3,0-2.1,0.4-2.7,0.9c-0.6,0.6-1.2,1.5-1.5,2.5c-0.4,1-0.6,2.1-0.7,2.9c-0.1,0.4-0.1,0.7-0.1,1
		c0,0.1,0,0.2,0,0.3v0.1v46.1h3.8c3.5,0,6.3-2.9,6.3-6.4V196c-2.9-1.1-5-3.9-5-7.2c0-4.3,3.4-7.7,7.5-7.7c4.2,0,7.5,3.4,7.5,7.7
		c0,3.3-2.1,6.2-5,7.2v9.4c0,6.3-5.1,11.5-11.3,11.5L242.6,217L242.6,217z M222.6,178.5c0,1.4,1.2,2.5,2.5,2.5s2.5-1.1,2.5-2.5
		s-1.2-2.5-2.5-2.5S222.6,177.1,222.6,178.5z M255.2,191.3c1.4,0,2.5-1.1,2.5-2.5s-1.2-2.5-2.5-2.5c-1.4,0-2.5,1.1-2.5,2.5
		C252.6,190.2,253.8,191.3,255.2,191.3z M225.1,206.7c-1.4,0-2.5,1.1-2.5,2.5s1.2,2.5,2.5,2.5s2.5-1.1,2.5-2.5
		C227.6,207.9,226.5,206.7,225.1,206.7z"/>
	<g>
		<g>
			<path class="st8" d="M271,245.4h-0.5c-0.9,0-1.6-0.7-1.6-1.7v-7.5c0-0.9,0.7-1.7,1.6-1.7h0.5c0.9,0,1.6,0.7,1.6,1.7v7.5
				C272.6,244.7,271.9,245.4,271,245.4z"/>
			<g>
				<path class="st8" d="M271,267.4h-0.5c-0.9,0-1.6-0.7-1.6-1.7v-9.2c0-0.9,0.7-1.7,1.6-1.7h0.5c0.9,0,1.6,0.7,1.6,1.7v9.2
					C272.6,266.7,271.9,267.4,271,267.4z"/>
				<path class="st8" d="M278.2,273.5l-0.4,0.5c-0.6,0.7-1.6,0.7-2.2,0l-6.3-6.5c-0.6-0.7-0.6-1.7,0-2.3l0.4-0.5
					c0.6-0.7,1.6-0.7,2.2,0l6.3,6.5C278.8,271.9,278.8,272.9,278.2,273.5z"/>
			</g>
			<g>
				<path class="st8" d="M291.8,288.2l-0.4,0.5c-0.6,0.7-1.6,0.7-2.2,0l-5.8-6.1c-0.6-0.7-0.6-1.7,0-2.3l0.4-0.5
					c0.6-0.7,1.6-0.7,2.2,0l5.8,6.1C292.5,286.6,292.5,287.6,291.8,288.2z"/>
				<path class="st8" d="M300.5,287.3v0.5c0,0.9-0.7,1.7-1.6,1.7h-8.2c-0.9,0-1.6-0.7-1.6-1.7v-0.5c0-0.9,0.7-1.7,1.6-1.7h8.2
					C299.8,285.6,300.5,286.4,300.5,287.3z"/>
			</g>
			<g>
				<path class="st8" d="M317.2,287.8v-0.5c0-0.9-0.8-1.7-1.7-1.7l-8.2,0.1c-0.9,0-1.6,0.8-1.6,1.7v0.5c0,0.9,0.8,1.7,1.7,1.7
					l8.2-0.1C316.5,289.5,317.2,288.8,317.2,287.8z"/>
				<path class="st8" d="M322.7,294.9l0.4-0.5c0.6-0.7,0.6-1.7-0.1-2.3l-5.9-6c-0.6-0.6-1.6-0.6-2.2,0.1l-0.4,0.5
					c-0.6,0.7-0.6,1.7,0.1,2.3l5.9,6C321.1,295.6,322.2,295.5,322.7,294.9z"/>
			</g>
			<path class="st8" d="M333,305.3l0.4-0.5c0.6-0.7,0.6-1.7-0.1-2.3l-3-3c-0.6-0.6-1.6-0.6-2.2,0.1l-0.4,0.5
				c-0.6,0.7-0.6,1.7,0.1,2.3l3,3C331.4,305.9,332.3,305.9,333,305.3z"/>
			<g>
				<g>
					<ellipse class="st7" cx="338.2" cy="312.4" rx="9.5" ry="10"/>
				</g>
				<ellipse class="st9" cx="338.2" cy="312.4" rx="5.7" ry="6"/>
			</g>
		</g>
		<g>
			<path class="st8" d="M240.9,301.2h-0.5c-0.9,0-1.6-0.7-1.6-1.7v-4.2c0-0.9,0.7-1.7,1.6-1.7h0.5c0.9,0,1.6,0.7,1.6,1.7v4.2
				C242.5,300.5,241.8,301.2,240.9,301.2z"/>
			<path class="st8" d="M240.9,287.7h-0.5c-0.9,0-1.6-0.7-1.6-1.7v-12.2c0-0.9,0.7-1.7,1.6-1.7h0.5c0.9,0,1.6,0.7,1.6,1.7V286
				C242.5,287,241.8,287.7,240.9,287.7z"/>
			<path class="st8" d="M240.9,266.1h-0.5c-0.9,0-1.6-0.7-1.6-1.7v-12.6c0-0.9,0.7-1.7,1.6-1.7h0.5c0.9,0,1.6,0.7,1.6,1.7v12.6
				C242.5,265.3,241.8,266.1,240.9,266.1z"/>
			<path class="st8" d="M240.9,244.1h-0.5c-0.9,0-1.6-0.7-1.6-1.7v-6.3c0-0.9,0.7-1.7,1.6-1.7h0.5c0.9,0,1.6,0.7,1.6,1.7v6.3
				C242.5,243.4,241.8,244.1,240.9,244.1z"/>
			<g>
				<g>
					<ellipse class="st7" cx="240.7" cy="310.6" rx="9.5" ry="10"/>
				</g>
				<ellipse class="st9" cx="240.7" cy="310.6" rx="5.7" ry="6"/>
			</g>
		</g>
		<g>
			<path class="st8" d="M209.7,245.4h0.5c0.9,0,1.6-0.7,1.6-1.7v-7.5c0-0.9-0.7-1.7-1.6-1.7h-0.5c-0.9,0-1.6,0.7-1.6,1.7v7.5
				C208.1,244.7,208.8,245.4,209.7,245.4z"/>
			<g>
				<path class="st8" d="M209.7,267.4h0.5c0.9,0,1.6-0.7,1.6-1.7v-9.2c0-0.9-0.7-1.7-1.6-1.7h-0.5c-0.9,0-1.6,0.7-1.6,1.7v9.2
					C208.1,266.7,208.8,267.4,209.7,267.4z"/>
				<path class="st8" d="M202.4,273.5l0.4,0.5c0.6,0.7,1.6,0.7,2.2,0l6.3-6.5c0.6-0.7,0.6-1.7,0-2.3l-0.4-0.5
					c-0.6-0.7-1.6-0.7-2.2,0l-6.3,6.5C201.8,271.9,201.8,272.9,202.4,273.5z"/>
			</g>
			<g>
				<path class="st8" d="M188.8,288.2l0.4,0.5c0.6,0.7,1.6,0.7,2.2,0l5.8-6.1c0.6-0.7,0.6-1.7,0-2.3l-0.4-0.5
					c-0.6-0.7-1.6-0.7-2.2,0l-5.8,6.1C188.2,286.6,188.2,287.6,188.8,288.2z"/>
				<path class="st8" d="M180.2,287.3v0.5c0,0.9,0.7,1.7,1.6,1.7h8.2c0.9,0,1.6-0.7,1.6-1.7v-0.5c0-0.9-0.7-1.7-1.6-1.7h-8.2
					C180.9,285.6,180.2,286.4,180.2,287.3z"/>
			</g>
			<g>
				<path class="st8" d="M163.4,287.8v-0.5c0-0.9,0.8-1.7,1.7-1.7l8.2,0.1c0.9,0,1.6,0.8,1.6,1.7v0.5c0,0.9-0.8,1.7-1.7,1.7
					l-8.2-0.1C164.1,289.5,163.4,288.8,163.4,287.8z"/>
				<path class="st8" d="M157.9,294.9l-0.4-0.5c-0.6-0.7-0.6-1.7,0.1-2.3l5.9-6c0.6-0.6,1.6-0.6,2.2,0.1l0.4,0.5
					c0.6,0.7,0.6,1.7-0.1,2.3l-5.9,6C159.4,295.6,158.5,295.5,157.9,294.9z"/>
			</g>
			<path class="st8" d="M147.7,305.3l-0.4-0.5c-0.6-0.7-0.6-1.7,0.1-2.3l3-3c0.6-0.6,1.6-0.6,2.2,0.1l0.4,0.5
				c0.6,0.7,0.6,1.7-0.1,2.3l-3,3C149.3,305.9,148.2,305.9,147.7,305.3z"/>
			<g>
				<g>
					<ellipse class="st7" cx="142.4" cy="312.4" rx="9.5" ry="10"/>
				</g>
				<ellipse class="st9" cx="142.4" cy="312.4" rx="5.7" ry="6"/>
			</g>
		</g>
	</g>
	<g>
		<g>
			<path class="st8" d="M209.7,139.1h0.5c0.9,0,1.6,0.7,1.6,1.7v7.5c0,0.9-0.7,1.7-1.6,1.7h-0.5c-0.9,0-1.6-0.7-1.6-1.7v-7.5
				C208.1,139.8,208.8,139.1,209.7,139.1z"/>
			<g>
				<path class="st8" d="M209.7,117.1h0.5c0.9,0,1.6,0.7,1.6,1.7v9.2c0,0.9-0.7,1.7-1.6,1.7h-0.5c-0.9,0-1.6-0.7-1.6-1.7v-9.2
					C208.1,117.8,208.8,117.1,209.7,117.1z"/>
				<path class="st8" d="M202.4,110.9l0.4-0.5c0.6-0.7,1.6-0.7,2.2,0l6.3,6.5c0.6,0.7,0.6,1.7,0,2.3l-0.4,0.5
					c-0.6,0.7-1.6,0.7-2.2,0l-6.3-6.5C201.8,112.6,201.8,111.6,202.4,110.9z"/>
			</g>
			<g>
				<path class="st8" d="M188.8,96.3l0.4-0.5c0.6-0.7,1.6-0.7,2.2,0l5.8,6.1c0.6,0.7,0.6,1.7,0,2.3l-0.4,0.5c-0.6,0.7-1.6,0.7-2.2,0
					l-5.8-6.1C188.2,98,188.2,96.9,188.8,96.3z"/>
				<path class="st8" d="M180.2,97.2v-0.5c0-0.9,0.7-1.7,1.6-1.7h8.2c0.9,0,1.6,0.7,1.6,1.7v0.5c0,0.9-0.7,1.7-1.6,1.7h-8.2
					C180.9,98.9,180.2,98.2,180.2,97.2z"/>
			</g>
			<g>
				<path class="st8" d="M163.4,96.6v0.5c0,0.9,0.8,1.7,1.7,1.7l8.2-0.1c0.9,0,1.6-0.8,1.6-1.7v-0.5c0-0.9-0.8-1.7-1.7-1.7l-8.2,0.1
					C164.1,95,163.4,95.7,163.4,96.6z"/>
				<path class="st8" d="M157.9,89.6l-0.4,0.5c-0.6,0.7-0.6,1.7,0.1,2.3l5.9,6c0.6,0.6,1.6,0.6,2.2-0.1l0.4-0.5
					c0.6-0.7,0.6-1.7-0.1-2.3l-5.9-6C159.4,88.9,158.5,88.9,157.9,89.6z"/>
			</g>
			<path class="st8" d="M147.7,79.3l-0.4,0.5c-0.6,0.7-0.6,1.7,0.1,2.3l3,3c0.6,0.6,1.6,0.6,2.2-0.1l0.4-0.5
				c0.6-0.7,0.6-1.7-0.1-2.3l-3-3C149.3,78.6,148.2,78.6,147.7,79.3z"/>
			<g>
				<g>
					<ellipse class="st7" cx="142.4" cy="72" rx="9.5" ry="10"/>
				</g>
				<ellipse class="st9" cx="142.4" cy="72" rx="5.7" ry="6"/>
			</g>
		</g>
		<g>
			<path class="st8" d="M271,139.1h-0.5c-0.9,0-1.6,0.7-1.6,1.7v7.5c0,0.9,0.7,1.7,1.6,1.7h0.5c0.9,0,1.6-0.7,1.6-1.7v-7.5
				C272.6,139.8,271.9,139.1,271,139.1z"/>
			<g>
				<path class="st8" d="M271,117.1h-0.5c-0.9,0-1.6,0.7-1.6,1.7v9.2c0,0.9,0.7,1.7,1.6,1.7h0.5c0.9,0,1.6-0.7,1.6-1.7v-9.2
					C272.6,117.8,271.9,117.1,271,117.1z"/>
				<path class="st8" d="M278.2,110.9l-0.4-0.5c-0.6-0.7-1.6-0.7-2.2,0l-6.3,6.5c-0.6,0.7-0.6,1.7,0,2.3l0.4,0.5
					c0.6,0.7,1.6,0.7,2.2,0l6.3-6.5C278.8,112.6,278.8,111.6,278.2,110.9z"/>
			</g>
			<g>
				<path class="st8" d="M291.8,96.3l-0.4-0.5c-0.6-0.7-1.6-0.7-2.2,0l-5.8,6.1c-0.6,0.7-0.6,1.7,0,2.3l0.4,0.5
					c0.6,0.7,1.6,0.7,2.2,0l5.8-6.1C292.5,98,292.5,96.9,291.8,96.3z"/>
				<path class="st8" d="M300.5,97.2v-0.5c0-0.9-0.7-1.7-1.6-1.7h-8.2c-0.9,0-1.6,0.7-1.6,1.7v0.5c0,0.9,0.7,1.7,1.6,1.7h8.2
					C299.8,98.9,300.5,98.2,300.5,97.2z"/>
			</g>
			<g>
				<path class="st8" d="M317.2,96.6v0.5c0,0.9-0.8,1.7-1.7,1.7l-8.2-0.1c-0.9,0-1.6-0.8-1.6-1.7v-0.5c0-0.9,0.8-1.7,1.7-1.7
					l8.2,0.1C316.5,95,317.2,95.7,317.2,96.6z"/>
				<path class="st8" d="M322.7,89.6l0.4,0.5c0.6,0.7,0.6,1.7-0.1,2.3l-5.9,6c-0.6,0.6-1.6,0.6-2.2-0.1l-0.4-0.5
					c-0.6-0.7-0.6-1.7,0.1-2.3l5.9-6C321.1,88.9,322.2,88.9,322.7,89.6z"/>
			</g>
			<path class="st8" d="M333,79.3l0.4,0.5c0.6,0.7,0.6,1.7-0.1,2.3l-3,3c-0.6,0.6-1.6,0.6-2.2-0.1l-0.4-0.5
				c-0.6-0.7-0.6-1.7,0.1-2.3l3-3C331.4,78.6,332.3,78.6,333,79.3z"/>
			<g>
				<g>
					<path class="st7" d="M347.8,72c0-5.5-4.3-10-9.5-10s-9.5,4.5-9.5,10s4.3,10,9.5,10S347.8,77.7,347.8,72z"/>
				</g>
				<ellipse class="st9" cx="338.2" cy="72" rx="5.7" ry="6"/>
			</g>
		</g>
		<g>
			<path class="st8" d="M240.5,83.2H240c-0.9,0-1.6,0.7-1.6,1.7v4.2c0,0.9,0.7,1.7,1.6,1.7h0.5c0.9,0,1.6-0.7,1.6-1.7v-4.2
				C242.2,83.9,241.4,83.2,240.5,83.2z"/>
			<path class="st8" d="M240.5,96.6H240c-0.9,0-1.6,0.7-1.6,1.7v12.2c0,0.9,0.7,1.7,1.6,1.7h0.5c0.9,0,1.6-0.7,1.6-1.7V98.3
				C242.2,97.4,241.4,96.6,240.5,96.6z"/>
			<path class="st8" d="M240.5,118.3H240c-0.9,0-1.6,0.7-1.6,1.7v12.6c0,0.9,0.7,1.7,1.6,1.7h0.5c0.9,0,1.6-0.7,1.6-1.7v-12.6
				C242.2,119,241.4,118.3,240.5,118.3z"/>
			<path class="st8" d="M240.5,140.2H240c-0.9,0-1.6,0.7-1.6,1.7v6.3c0,0.9,0.7,1.7,1.6,1.7h0.5c0.9,0,1.6-0.7,1.6-1.7v-6.3
				C242.2,141,241.4,140.2,240.5,140.2z"/>
			<g>
				<g>
					<ellipse class="st7" cx="240.3" cy="73.8" rx="9.5" ry="10"/>
				</g>
				<ellipse class="st9" cx="240.3" cy="73.8" rx="5.7" ry="6"/>
			</g>
		</g>
	</g>
	<g>
		<g>
			<path class="st10" d="M186,221.2v0.5c0,0.9,0.7,1.7,1.6,1.7h7.2c0.9,0,1.6-0.7,1.6-1.7v-0.5c0-0.9-0.7-1.7-1.6-1.7h-7.2
				C186.8,219.5,186,220.2,186,221.2z"/>
			<path class="st10" d="M163.7,221.2v0.5c0,0.9,0.7,1.7,1.6,1.7H177c0.9,0,1.6-0.7,1.6-1.7v-0.5c0-0.9-0.7-1.7-1.6-1.7h-11.7
				C164.4,219.5,163.7,220.2,163.7,221.2z"/>
			<g>
				<path class="st10" d="M143.8,221.2v0.5c0,0.9,0.7,1.7,1.6,1.7h9.3c0.9,0,1.6-0.7,1.6-1.7v-0.5c0-0.9-0.7-1.7-1.6-1.7h-9.3
					C144.5,219.5,143.8,220.2,143.8,221.2z"/>
				<path class="st10" d="M141.3,228.3l0.5,0.3c0.8,0.5,1.7,0.2,2.1-0.6l2.9-5.3c0.4-0.8,0.2-1.8-0.6-2.3l-0.5-0.3
					c-0.8-0.5-1.7-0.2-2.1,0.6l-2.9,5.3C140.3,226.9,140.5,227.9,141.3,228.3z"/>
				<path class="st10" d="M141.8,234.6h0.2c1,0,1.8-0.8,1.8-1.9v-5c0-1-0.8-1.9-1.8-1.9h-0.2c-1,0-1.8,0.8-1.8,1.9v5
					C140.1,233.7,140.9,234.6,141.8,234.6z"/>
			</g>
			<path class="st10" d="M142.2,238.9h-0.5c-0.9,0-1.6,0.7-1.6,1.7v8.6c0,0.9,0.7,1.7,1.6,1.7h0.5c0.9,0,1.6-0.7,1.6-1.7v-8.6
				C143.8,239.7,143.1,238.9,142.2,238.9z"/>
			<g>
				<path class="st10" d="M140.1,268.3v-0.5c0-0.9-0.7-1.7-1.6-1.7h-9.3c-0.9,0-1.6,0.7-1.6,1.7v0.5c0,0.9,0.7,1.7,1.6,1.7h9.3
					C139.4,270,140.1,269.3,140.1,268.3z"/>
				<path class="st10" d="M142.6,261.2l-0.5-0.3c-0.8-0.5-1.7-0.2-2.1,0.6l-2.9,5.3c-0.4,0.8-0.2,1.8,0.6,2.3l0.5,0.3
					c0.8,0.5,1.7,0.2,2.1-0.6l2.9-5.3C143.6,262.6,143.3,261.6,142.6,261.2z"/>
				<path class="st10" d="M142,254.9h-0.2c-1,0-1.8,0.8-1.8,1.9v5c0,1,0.8,1.9,1.8,1.9h0.2c1,0,1.8-0.8,1.8-1.9v-5
					C143.8,255.8,143,254.9,142,254.9z"/>
			</g>
			<path class="st10" d="M102,267.7v0.5c0,0.9,0.7,1.7,1.6,1.7h13.2c0.9,0,1.6-0.7,1.6-1.7v-0.5c0-0.9-0.7-1.7-1.6-1.7h-13.2
				C102.7,266.1,102,266.8,102,267.7z"/>
			<g>
				<path class="st10" d="M83.1,267.5l-0.4-0.4c-0.6-0.6-1.6-0.6-2.2,0.1l-6,6.8c-0.6,0.7-0.6,1.7,0.1,2.3l0.4,0.4
					c0.6,0.6,1.6,0.6,2.2-0.1l6-6.8C83.8,269.1,83.7,268.1,83.1,267.5z"/>
				<path class="st10" d="M92.3,268.1v-0.5c0-0.9-0.8-1.7-1.7-1.6l-8.8,0.3c-0.9,0-1.6,0.8-1.5,1.7v0.5c0,0.9,0.8,1.7,1.7,1.6
					l8.8-0.3C91.6,269.8,92.3,269,92.3,268.1z"/>
			</g>
			<path class="st10" d="M65.5,287.6L66,288c0.7,0.5,1.7,0.5,2.2-0.3l4.5-5.9c0.5-0.7,0.4-1.7-0.3-2.3l-0.4-0.4
				c-0.7-0.5-1.7-0.5-2.2,0.3l-4.5,5.9C64.8,286,64.9,287.1,65.5,287.6z"/>
			<g>
				<g>
					<ellipse class="st7" cx="62" cy="292.9" rx="9.5" ry="10"/>
				</g>
				<ellipse class="st9" cx="62" cy="292.9" rx="5.7" ry="6"/>
			</g>
		</g>
		<g>
			<path class="st10" d="M186,158.8v-0.5c0-0.9,0.7-1.7,1.6-1.7h7.2c0.9,0,1.6,0.7,1.6,1.7v0.5c0,0.9-0.7,1.7-1.6,1.7h-7.2
				C186.8,160.4,186,159.7,186,158.8z"/>
			<path class="st10" d="M163.7,158.8v-0.5c0-0.9,0.7-1.7,1.6-1.7H177c0.9,0,1.6,0.7,1.6,1.7v0.5c0,0.9-0.7,1.7-1.6,1.7h-11.7
				C164.4,160.4,163.7,159.7,163.7,158.8z"/>
			<g>
				<path class="st10" d="M143.8,158.8v-0.5c0-0.9,0.7-1.7,1.6-1.7h9.3c0.9,0,1.6,0.7,1.6,1.7v0.5c0,0.9-0.7,1.7-1.6,1.7h-9.3
					C144.5,160.4,143.8,159.7,143.8,158.8z"/>
				<path class="st10" d="M141.3,151.6l0.5-0.3c0.8-0.5,1.7-0.2,2.1,0.6l2.9,5.3c0.4,0.8,0.2,1.8-0.6,2.3l-0.5,0.3
					c-0.8,0.5-1.7,0.2-2.1-0.6l-2.9-5.3C140.3,153.1,140.5,152.1,141.3,151.6z"/>
				<path class="st10" d="M141.8,145.3h0.2c1,0,1.8,0.8,1.8,1.9v5c0,1-0.8,1.9-1.8,1.9h-0.2c-1,0-1.8-0.8-1.8-1.9v-5
					C140.1,146.2,140.9,145.3,141.8,145.3z"/>
			</g>
			<path class="st10" d="M142.2,141h-0.5c-0.9,0-1.6-0.7-1.6-1.7v-8.6c0-0.9,0.7-1.7,1.6-1.7h0.5c0.9,0,1.6,0.7,1.6,1.7v8.6
				C143.8,140.3,143.1,141,142.2,141z"/>
			<g>
				<path class="st10" d="M140.1,111.6v0.5c0,0.9-0.7,1.7-1.6,1.7h-9.3c-0.9,0-1.6-0.7-1.6-1.7v-0.5c0-0.9,0.7-1.7,1.6-1.7h9.3
					C139.4,109.9,140.1,110.7,140.1,111.6z"/>
				<path class="st10" d="M142.6,118.8l-0.5,0.3c-0.8,0.5-1.7,0.2-2.1-0.6l-2.9-5.3c-0.4-0.8-0.2-1.8,0.6-2.3l0.5-0.3
					c0.8-0.5,1.7-0.2,2.1,0.6l2.9,5.3C143.6,117.3,143.3,118.3,142.6,118.8z"/>
				<path class="st10" d="M142,125h-0.2c-1,0-1.8-0.8-1.8-1.9v-5c0-1,0.8-1.9,1.8-1.9h0.2c1,0,1.8,0.8,1.8,1.9v5
					C143.8,124.2,143,125,142,125z"/>
			</g>
			<path class="st10" d="M102,112.2v-0.5c0-0.9,0.7-1.7,1.6-1.7h13.2c0.9,0,1.6,0.7,1.6,1.7v0.5c0,0.9-0.7,1.7-1.6,1.7h-13.2
				C102.7,113.9,102,113.1,102,112.2z"/>
			<g>
				<path class="st10" d="M83.1,112.5l-0.4,0.4c-0.6,0.6-1.6,0.6-2.2-0.1l-6-6.8c-0.6-0.7-0.6-1.7,0.1-2.3l0.4-0.4
					c0.6-0.6,1.6-0.6,2.2,0.1l6,6.8C83.8,110.9,83.7,111.9,83.1,112.5z"/>
				<path class="st10" d="M92.3,111.9v0.5c0,0.9-0.8,1.7-1.7,1.6l-8.8-0.3c-0.9,0-1.6-0.8-1.5-1.7v-0.5c0-0.9,0.8-1.7,1.7-1.6
					l8.8,0.3C91.6,110.2,92.3,110.9,92.3,111.9z"/>
			</g>
			<path class="st10" d="M65.5,92.3l0.4-0.4c0.7-0.5,1.7-0.5,2.2,0.3l4.5,5.9c0.5,0.7,0.4,1.7-0.3,2.3l-0.4,0.3
				c-0.7,0.5-1.7,0.5-2.2-0.3l-4.5-5.9C64.8,93.9,64.9,92.8,65.5,92.3z"/>
			<g>
				<g>
					<ellipse class="st7" cx="62" cy="87.1" rx="9.5" ry="10"/>
				</g>
				<ellipse class="st9" cx="62" cy="87.1" rx="5.7" ry="6"/>
			</g>
		</g>
		<g>
			<path class="st7" d="M133.9,190.2v-0.5c0-0.9,0.7-1.7,1.6-1.7h4c0.9,0,1.6,0.7,1.6,1.7v0.5c0,0.9-0.7,1.7-1.6,1.7h-4
				C134.6,191.9,133.9,191.2,133.9,190.2z"/>
			<path class="st7" d="M146.6,190.2v-0.5c0-0.9,0.7-1.7,1.6-1.7h11.6c0.9,0,1.6,0.7,1.6,1.7v0.5c0,0.9-0.7,1.7-1.6,1.7h-11.6
				C147.4,191.9,146.6,191.2,146.6,190.2z"/>
			<path class="st7" d="M167.2,190.2v-0.5c0-0.9,0.7-1.7,1.6-1.7h12c0.9,0,1.6,0.7,1.6,1.7v0.5c0,0.9-0.7,1.7-1.6,1.7h-12
				C167.9,191.9,167.2,191.2,167.2,190.2z"/>
			<path class="st7" d="M188.1,190.2v-0.5c0-0.9,0.7-1.7,1.6-1.7h5.9c0.9,0,1.6,0.7,1.6,1.7v0.5c0,0.9-0.7,1.7-1.6,1.7h-5.9
				C188.8,191.9,188.1,191.2,188.1,190.2z"/>
			<g>
				<g>
					<ellipse class="st7" cx="124.9" cy="190" rx="9.5" ry="10"/>
				</g>
				<ellipse class="st9" cx="124.9" cy="190" rx="5.7" ry="6"/>
			</g>
		</g>
	</g>
	<g>
		<g>
			<path class="st10" d="M293.6,221.2v0.5c0,0.9-0.7,1.7-1.6,1.7h-7.2c-0.9,0-1.6-0.7-1.6-1.7v-0.5c0-0.9,0.7-1.7,1.6-1.7h7.2
				C292.9,219.5,293.6,220.2,293.6,221.2z"/>
			<path class="st10" d="M315.9,221.2v0.5c0,0.9-0.7,1.7-1.6,1.7h-11.7c-0.9,0-1.6-0.7-1.6-1.7v-0.5c0-0.9,0.7-1.7,1.6-1.7h11.7
				C315.1,219.5,315.9,220.2,315.9,221.2z"/>
			<g>
				<path class="st10" d="M335.8,221.2v0.5c0,0.9-0.7,1.7-1.6,1.7h-9.3c-0.9,0-1.6-0.7-1.6-1.7v-0.5c0-0.9,0.7-1.7,1.6-1.7h9.3
					C335.1,219.5,335.8,220.2,335.8,221.2z"/>
				<path class="st10" d="M338.4,228.3l-0.5,0.3c-0.8,0.5-1.7,0.2-2.1-0.6l-2.9-5.3c-0.4-0.8-0.2-1.8,0.6-2.3l0.5-0.3
					c0.8-0.5,1.7-0.2,2.1,0.6l2.9,5.3C339.4,226.9,339.1,227.9,338.4,228.3z"/>
				<path class="st10" d="M337.8,234.6h-0.2c-1,0-1.8-0.8-1.8-1.9v-5c0-1,0.8-1.9,1.8-1.9h0.2c1,0,1.8,0.8,1.8,1.9v5
					C339.6,233.7,338.7,234.6,337.8,234.6z"/>
			</g>
			<path class="st10" d="M337.5,238.9h0.5c0.9,0,1.6,0.7,1.6,1.7v8.6c0,0.9-0.7,1.7-1.6,1.7h-0.5c-0.9,0-1.6-0.7-1.6-1.7v-8.6
				C335.8,239.7,336.6,238.9,337.5,238.9z"/>
			<g>
				<path class="st10" d="M339.6,268.3v-0.5c0-0.9,0.7-1.7,1.6-1.7h9.3c0.9,0,1.6,0.7,1.6,1.7v0.5c0,0.9-0.7,1.7-1.6,1.7h-9.3
					C340.3,270,339.6,269.3,339.6,268.3z"/>
				<path class="st10" d="M337,261.2l0.5-0.3c0.8-0.5,1.7-0.2,2.1,0.6l2.9,5.3c0.4,0.8,0.2,1.8-0.6,2.3l-0.5,0.3
					c-0.8,0.5-1.7,0.2-2.1-0.6l-2.9-5.3C336,262.6,336.3,261.6,337,261.2z"/>
				<path class="st10" d="M337.6,254.9h0.2c1,0,1.8,0.8,1.8,1.9v5c0,1-0.8,1.9-1.8,1.9h-0.2c-1,0-1.8-0.8-1.8-1.9v-5
					C335.8,255.8,336.6,254.9,337.6,254.9z"/>
			</g>
			<path class="st10" d="M377.6,267.7v0.5c0,0.9-0.7,1.7-1.6,1.7h-13.2c-0.9,0-1.6-0.7-1.6-1.7v-0.5c0-0.9,0.7-1.7,1.6-1.7H376
				C376.9,266.1,377.6,266.8,377.6,267.7z"/>
			<g>
				<path class="st10" d="M396.6,267.5l0.4-0.4c0.6-0.6,1.6-0.6,2.2,0.1l6,6.8c0.6,0.7,0.6,1.7-0.1,2.3l-0.4,0.4
					c-0.6,0.6-1.6,0.6-2.2-0.1l-6-6.8C395.9,269.1,395.9,268.1,396.6,267.5z"/>
				<path class="st10" d="M387.3,268.1v-0.5c0-0.9,0.8-1.7,1.7-1.6l8.8,0.3c0.9,0,1.6,0.8,1.5,1.7v0.5c0,0.9-0.8,1.7-1.7,1.6
					l-8.8-0.3C388,269.8,387.3,269,387.3,268.1z"/>
			</g>
			<path class="st10" d="M414,287.6l-0.4,0.4c-0.7,0.5-1.7,0.5-2.2-0.3l-4.5-5.9c-0.5-0.7-0.4-1.7,0.3-2.3l0.4-0.4
				c0.7-0.5,1.7-0.5,2.2,0.3l4.5,5.9C414.9,286,414.7,287.1,414,287.6z"/>
			<g>
				<g>
					<ellipse class="st7" cx="417.6" cy="292.9" rx="9.5" ry="10"/>
				</g>
				<ellipse class="st9" cx="417.6" cy="292.9" rx="5.7" ry="6"/>
			</g>
		</g>
		<g>
			<path class="st10" d="M293.6,158.8v-0.5c0-0.9-0.7-1.7-1.6-1.7h-7.2c-0.9,0-1.6,0.7-1.6,1.7v0.5c0,0.9,0.7,1.7,1.6,1.7h7.2
				C292.9,160.4,293.6,159.7,293.6,158.8z"/>
			<path class="st10" d="M315.9,158.8v-0.5c0-0.9-0.7-1.7-1.6-1.7h-11.7c-0.9,0-1.6,0.7-1.6,1.7v0.5c0,0.9,0.7,1.7,1.6,1.7h11.7
				C315.1,160.4,315.9,159.7,315.9,158.8z"/>
			<g>
				<path class="st10" d="M335.8,158.8v-0.5c0-0.9-0.7-1.7-1.6-1.7h-9.3c-0.9,0-1.6,0.7-1.6,1.7v0.5c0,0.9,0.7,1.7,1.6,1.7h9.3
					C335.1,160.4,335.8,159.7,335.8,158.8z"/>
				<path class="st10" d="M338.4,151.6l-0.5-0.3c-0.8-0.5-1.7-0.2-2.1,0.6l-2.9,5.3c-0.4,0.8-0.2,1.8,0.6,2.3l0.5,0.3
					c0.8,0.5,1.7,0.2,2.1-0.6l2.9-5.3C339.4,153.1,339.1,152.1,338.4,151.6z"/>
				<path class="st10" d="M337.8,145.3h-0.2c-1,0-1.8,0.8-1.8,1.9v5c0,1,0.8,1.9,1.8,1.9h0.2c1,0,1.8-0.8,1.8-1.9v-5
					C339.6,146.2,338.7,145.3,337.8,145.3z"/>
			</g>
			<path class="st10" d="M337.5,141h0.5c0.9,0,1.6-0.7,1.6-1.7v-8.6c0-0.9-0.7-1.7-1.6-1.7h-0.5c-0.9,0-1.6,0.7-1.6,1.7v8.6
				C335.8,140.3,336.6,141,337.5,141z"/>
			<g>
				<path class="st10" d="M339.6,111.6v0.5c0,0.9,0.7,1.7,1.6,1.7h9.3c0.9,0,1.6-0.7,1.6-1.7v-0.5c0-0.9-0.7-1.7-1.6-1.7h-9.3
					C340.3,109.9,339.6,110.7,339.6,111.6z"/>
				<path class="st10" d="M337,118.8l0.5,0.3c0.8,0.5,1.7,0.2,2.1-0.6l2.9-5.3c0.4-0.8,0.2-1.8-0.6-2.3l-0.5-0.3
					c-0.8-0.5-1.7-0.2-2.1,0.6l-2.9,5.3C336,117.3,336.3,118.3,337,118.8z"/>
				<path class="st10" d="M337.6,125h0.2c1,0,1.8-0.8,1.8-1.9v-5c0-1-0.8-1.9-1.8-1.9h-0.2c-1,0-1.8,0.8-1.8,1.9v5
					C335.8,124.2,336.6,125,337.6,125z"/>
			</g>
			<path class="st10" d="M377.6,112.2v-0.5c0-0.9-0.7-1.7-1.6-1.7h-13.2c-0.9,0-1.6,0.7-1.6,1.7v0.5c0,0.9,0.7,1.7,1.6,1.7H376
				C376.9,113.9,377.6,113.1,377.6,112.2z"/>
			<g>
				<path class="st10" d="M396.6,112.5l0.4,0.4c0.6,0.6,1.6,0.6,2.2-0.1l6-6.8c0.6-0.7,0.6-1.7-0.1-2.3l-0.4-0.4
					c-0.6-0.6-1.6-0.6-2.2,0.1l-6,6.8C395.9,110.9,395.9,111.9,396.6,112.5z"/>
				<path class="st10" d="M387.3,111.9v0.5c0,0.9,0.8,1.7,1.7,1.6l8.8-0.3c0.9,0,1.6-0.8,1.5-1.7v-0.5c0-0.9-0.8-1.7-1.7-1.6
					l-8.8,0.3C388,110.2,387.3,110.9,387.3,111.9z"/>
			</g>
			<path class="st10" d="M414,92.3l-0.4-0.4c-0.7-0.5-1.7-0.5-2.2,0.3l-4.5,5.9c-0.5,0.7-0.4,1.7,0.3,2.3l0.4,0.4
				c0.7,0.5,1.7,0.5,2.2-0.3l4.5-5.9C414.9,93.9,414.7,92.8,414,92.3z"/>
			<g>
				<g>
					<ellipse class="st7" cx="417.6" cy="87.1" rx="9.5" ry="10"/>
				</g>
				<ellipse class="st9" cx="417.6" cy="87.1" rx="5.7" ry="6"/>
			</g>
		</g>
		<g>
			<path class="st7" d="M345.8,190.2v-0.5c0-0.9-0.7-1.7-1.6-1.7h-4c-0.9,0-1.6,0.7-1.6,1.7v0.5c0,0.9,0.7,1.7,1.6,1.7h4
				C345.1,191.9,345.8,191.2,345.8,190.2z"/>
			<path class="st7" d="M333,190.2v-0.5c0-0.9-0.7-1.7-1.6-1.7h-11.6c-0.9,0-1.6,0.7-1.6,1.7v0.5c0,0.9,0.7,1.7,1.6,1.7h11.6
				C332.2,191.9,333,191.2,333,190.2z"/>
			<path class="st7" d="M312.4,190.2v-0.5c0-0.9-0.7-1.7-1.6-1.7h-12c-0.9,0-1.6,0.7-1.6,1.7v0.5c0,0.9,0.7,1.7,1.6,1.7h12
				C311.7,191.9,312.4,191.2,312.4,190.2z"/>
			<path class="st7" d="M291.5,190.2v-0.5c0-0.9-0.7-1.7-1.6-1.7H284c-0.9,0-1.6,0.7-1.6,1.7v0.5c0,0.9,0.7,1.7,1.6,1.7h5.9
				C290.8,191.9,291.5,191.2,291.5,190.2z"/>
			<g>
				<g>
					<ellipse class="st7" cx="354.7" cy="190" rx="9.5" ry="10"/>
				</g>
				<ellipse class="st9" cx="354.7" cy="190" rx="5.7" ry="6"/>
			</g>
		</g>
	</g>
</g>
<g>
	<path class="st2" d="M72.3,231.9c8.5,0,17,0.1,25.5-0.1c2.3-0.1,3.1,0.7,3,3.1c-0.2,3.2-0.1,6.5-0.1,9.8c0,2.3-1,3.4-3.1,3.4
		c-17.4,0-34.7,0-52.1,0c-2.2,0-3.1-1.2-3.1-3.5c0.1-2.7,0-5.4,0-8.2c0-4,0.6-4.6,4.5-4.6C55.4,231.9,63.9,231.9,72.3,231.9z
		 M71.8,239c6.7,0,13.4,0,20.1,0c0.5,0,1,0.1,1.5,0c1.2-0.1,3.1,0.5,3.1-1.2c0-2-2-1.1-3.2-1.4c-0.1,0-0.2,0-0.3,0
		c-14.4,0-28.8,0-43.2,0c-0.6,0-1.2,0-1.9,0c-0.6,0-1.3,0.2-1.3,1.1c0,0.7,0.5,1.3,1.1,1.3c0.8,0.1,1.7,0.1,2.5,0.1
		C57.5,239,64.7,239,71.8,239z M64.6,240.9c-5.1,0-10.1,0-15.2,0c-0.9,0-2.5-0.6-2.4,1c0.1,1.5,1.7,0.9,2.6,0.9
		c4.7,0.1,9.5,0,14.2,0c5.1,0,10.1,0,15.2,0c1,0,2.8,0.5,2.8-1.1c0-1.5-1.7-0.7-2.6-0.8C74.2,240.9,69.4,240.9,64.6,240.9z"/>
	<path class="st6" d="M71.8,239c-7.2,0-14.3,0-21.4,0c-0.8,0-1.7,0-2.5-0.1c-0.6-0.1-1.1-0.6-1.1-1.3c0-0.9,0.6-1.1,1.3-1.1
		c0.6,0,1.2,0,1.9,0c14.4,0,28.8,0,43.2,0c0.1,0,0.2,0,0.3,0c1.2,0.2,3.2-0.7,3.2,1.4c0,1.7-1.9,1.1-3.1,1.2c-0.5,0.1-1,0-1.5,0
		C85.3,239,78.6,239,71.8,239z"/>
	<path class="st6" d="M64.6,240.9c4.9,0,9.7-0.1,14.5,0.1c0.9,0,2.6-0.7,2.6,0.8c0,1.5-1.7,1.1-2.8,1.1c-5.1,0.1-10.1,0-15.2,0
		c-4.7,0-9.5,0-14.2,0c-0.9,0-2.5,0.6-2.6-0.9c-0.1-1.6,1.5-1,2.4-1C54.5,240.9,59.5,240.9,64.6,240.9z"/>
</g>
<g>
	<path class="st2" d="M65.2,168.5c-10.7,0-21.5,0-32.2,0c-4,0-4.9-1.2-4.9-6.3c0-8.8,0.1-17.6-0.1-26.3c-0.1-3.5,0.6-4.9,3.6-4.9
		C52.4,131,73.2,131,94,131c2,0,4.1,0.5,6.1,0.7c1.5,0.2,1.9,1.4,1.9,3.1c0,10,0,19.9,0,29.9c0,3.3-1.7,3.7-3.8,3.7
		C87.1,168.5,76.2,168.5,65.2,168.5z M64.8,140.5c9.6,0,19.3,0,28.8-0.1c0.9,0,2.4,0.7,2.4-1.3c0-1.7-1.4-1.1-2.2-1.1
		c-19.3,0-38.4,0-57.7,0c-0.8,0-2.2-0.6-2.3,1.1c-0.1,2,1.5,1.3,2.4,1.3C45.8,140.5,55.3,140.5,64.8,140.5z M64.8,150.9
		c9.6,0,19.3,0,28.8-0.1c0.9,0,2.4,0.7,2.4-1.3c0-1.7-1.4-1.1-2.3-1.1c-19.3,0-38.5,0-57.7,0c-0.8,0-2.2-0.5-2.3,1.1
		c0,2,1.5,1.3,2.4,1.3C45.8,150.9,55.3,150.9,64.8,150.9z M64.8,161.4c9.3,0,18.6,0,28,0c0.8,0,1.7,0,2.5-0.1c0.6-0.1,1-0.4,1-1.3
		c-0.1-0.6-0.4-0.9-0.8-1c-0.6-0.1-1.2-0.1-1.9-0.1c-19.1,0-38.1,0-57.1,0c-0.9,0-2.6-0.7-2.6,1.1c0,2.1,1.8,1.3,2.8,1.3
		C46,161.4,55.4,161.3,64.8,161.4z M65.2,143.7c-9.3,0-18.6,0-28,0c-0.7,0-1.5,0-2.2,0c-0.5,0.1-1.2-0.1-1.2,0.9
		c-0.1,1,0.6,1.3,1.2,1.5c0.5,0.1,1,0.1,1.5,0.1c18.9,0,37.9,0,56.8,0c1,0,2.6,0.3,2.6-1.3c0-1.9-1.7-1.1-2.5-1.1
		C84.1,143.6,74.6,143.7,65.2,143.7z M65.2,154c-9.7,0-19.4,0-29.2,0c-0.7,0-2-0.5-2,0.9c-0.1,1.7,1.2,1.5,2.1,1.5
		c19.3,0,38.5,0,57.8,0c0.9,0,2.2,0.1,2.2-1.3c-0.1-1.7-1.5-1-2.2-1C84.3,154,74.7,154,65.2,154z"/>
	<path class="st3" d="M64.8,140.5c-9.5,0-19,0-28.5,0c-0.9,0-2.4,0.7-2.4-1.3c0-1.7,1.5-1.1,2.3-1.1c19.3-0.1,38.4-0.1,57.7,0
		c0.8,0,2.3-0.5,2.2,1.1c0,2-1.5,1.3-2.4,1.3C84,140.5,74.4,140.5,64.8,140.5z"/>
	<path class="st4" d="M64.8,150.9c-9.5,0-19.1,0-28.5-0.1c-0.9,0-2.4,0.7-2.4-1.3c0-1.6,1.5-1.1,2.3-1.1c19.3,0,38.5,0,57.7,0
		c0.8,0,2.2-0.5,2.3,1.1c0,2-1.5,1.3-2.4,1.3C84.1,150.9,74.4,150.9,64.8,150.9z"/>
	<path class="st4" d="M64.8,161.3c-9.4,0-18.8,0-28.3-0.1c-1,0-2.8,0.9-2.8-1.3c0-1.8,1.7-1.1,2.6-1.1c19.1-0.1,38.1,0,57.1,0
		c0.6,0,1.2,0.1,1.9,0.1c0.4,0.1,0.8,0.4,0.8,1c0.1,0.8-0.4,1.2-1,1.3c-0.8,0.1-1.7,0.1-2.5,0.1C83.4,161.4,74.2,161.4,64.8,161.3z"
		/>
	<path class="st4" d="M65.2,143.7c9.4,0,18.9,0,28.3,0.1c0.9,0,2.5-0.8,2.5,1.1c0,1.6-1.5,1.3-2.6,1.3c-18.9,0-37.9,0-56.8,0
		c-0.5,0-1,0-1.5-0.1c-0.6-0.1-1.3-0.5-1.2-1.5c0.1-0.9,0.7-0.8,1.2-0.9c0.7-0.1,1.5,0,2.2,0C46.6,143.7,55.9,143.7,65.2,143.7z"/>
	<path class="st4" d="M65.2,154c9.5,0,19.1,0,28.6,0c0.8,0,2.2-0.7,2.2,1c0,1.5-1.3,1.3-2.2,1.3c-19.3,0-38.5,0-57.8,0
		c-0.9,0-2.2,0.2-2.1-1.5c0.1-1.5,1.3-0.9,2-0.9C45.8,154,55.5,154,65.2,154z"/>
</g>
<g>
	<path class="st2" d="M399.5,49.3c-10.7,0-21.5,0-32.2,0c-4,0-4.9-1.2-4.9-6.3c0-8.8,0.1-17.6-0.1-26.3c-0.1-3.5,0.6-4.9,3.6-4.9
		c20.8,0.1,41.6,0.1,62.4,0.1c2,0,4.1,0.5,6.1,0.7c1.5,0.2,1.9,1.4,1.9,3.1c0,10,0,19.9,0,29.9c0,3.3-1.7,3.7-3.8,3.7
		C421.4,49.3,410.4,49.3,399.5,49.3z M399,21.3c9.6,0,19.3,0,28.8-0.1c0.9,0,2.4,0.7,2.4-1.3c0-1.7-1.4-1.1-2.2-1.1
		c-19.3,0-38.4,0-57.7,0c-0.8,0-2.2-0.6-2.3,1.1c-0.1,2,1.5,1.3,2.4,1.3C380,21.3,389.6,21.3,399,21.3z M399.1,31.7
		c9.6,0,19.3,0,28.8-0.1c0.9,0,2.4,0.7,2.4-1.3c0-1.7-1.4-1.1-2.3-1.1c-19.3,0-38.5,0-57.7,0c-0.8,0-2.2-0.5-2.3,1.1
		c0,2,1.5,1.3,2.4,1.3C380,31.7,389.6,31.7,399.1,31.7z M399.1,42.2c9.3,0,18.6,0,28,0c0.8,0,1.7,0,2.5-0.1c0.6-0.1,1-0.4,1-1.3
		c-0.1-0.6-0.4-0.9-0.8-1c-0.6-0.1-1.2-0.1-1.9-0.1c-19.1,0-38.1,0-57.1,0c-0.9,0-2.6-0.7-2.6,1.1c0,2.1,1.8,1.3,2.8,1.3
		C380.3,42.2,389.7,42.2,399.1,42.2z M399.5,24.5c-9.3,0-18.6,0-28,0c-0.7,0-1.5,0-2.2,0c-0.5,0.1-1.2-0.1-1.2,0.9
		c-0.1,1,0.6,1.3,1.2,1.5c0.5,0.1,1,0.1,1.5,0.1c18.9,0,37.9,0,56.8,0c1,0,2.6,0.3,2.6-1.3c0-1.9-1.7-1.1-2.5-1.1
		C418.3,24.4,408.9,24.5,399.5,24.5z M399.4,34.8c-9.7,0-19.4,0-29.2,0c-0.7,0-2-0.5-2,0.9c-0.1,1.7,1.2,1.5,2.1,1.5
		c19.3,0,38.5,0,57.8,0c0.9,0,2.2,0.1,2.2-1.3c-0.1-1.7-1.5-1-2.2-1C418.5,34.8,408.9,34.8,399.4,34.8z"/>
	<path class="st3" d="M399,21.3c-9.5,0-19,0-28.5,0c-0.9,0-2.4,0.7-2.4-1.3c0-1.7,1.5-1.1,2.3-1.1c19.3-0.1,38.4-0.1,57.7,0
		c0.8,0,2.3-0.5,2.2,1.1c0,2-1.5,1.3-2.4,1.3C418.3,21.3,408.7,21.3,399,21.3z"/>
	<path class="st4" d="M399.1,31.7c-9.5,0-19.1,0-28.5-0.1c-0.9,0-2.4,0.7-2.4-1.3c0-1.6,1.5-1.1,2.3-1.1c19.3,0,38.5,0,57.7,0
		c0.8,0,2.2-0.5,2.3,1.1c0,2-1.5,1.3-2.4,1.3C418.3,31.7,408.7,31.7,399.1,31.7z"/>
	<path class="st4" d="M399.1,42.2c-9.4,0-18.8,0-28.3-0.1c-1,0-2.8,0.9-2.8-1.3c0-1.8,1.7-1.1,2.6-1.1c19.1-0.1,38.1,0,57.1,0
		c0.6,0,1.2,0.1,1.9,0.1c0.4,0.1,0.8,0.4,0.8,1c0.1,0.8-0.4,1.2-1,1.3c-0.8,0.1-1.7,0.1-2.5,0.1C417.7,42.2,408.4,42.2,399.1,42.2z"
		/>
	<path class="st4" d="M399.5,24.5c9.4,0,18.9,0,28.3,0.1c0.9,0,2.5-0.8,2.5,1.1c0,1.6-1.5,1.3-2.6,1.3c-18.9,0-37.9,0-56.8,0
		c-0.5,0-1,0-1.5-0.1c-0.6-0.1-1.3-0.5-1.2-1.5c0.1-0.9,0.7-0.8,1.2-0.9c0.7-0.1,1.5,0,2.2,0C380.9,24.5,390.1,24.5,399.5,24.5z"/>
	<path class="st4" d="M399.4,34.8c9.5,0,19.1,0,28.6,0c0.8,0,2.2-0.7,2.2,1c0,1.5-1.3,1.3-2.2,1.3c-19.3,0-38.5,0-57.8,0
		c-0.9,0-2.2,0.2-2.1-1.5c0.1-1.5,1.3-0.9,2-0.9C380,34.8,389.7,34.8,399.4,34.8z"/>
</g>
<g>
	<path class="st5" d="M401.6,326.1c8.5,0,17,0.1,25.5-0.1c2.3-0.1,3.1,0.7,3,3.1c-0.2,3.2-0.1,6.5-0.1,9.8c0,2.3-1,3.4-3.1,3.4
		c-17.4,0-34.7,0-52.1,0c-2.2,0-3.1-1.2-3.1-3.5c0.1-2.7,0-5.4,0-8.2c0-4,0.6-4.6,4.5-4.6C384.7,326.1,393.1,326.1,401.6,326.1z
		 M401.1,333.1c6.7,0,13.4,0,20.1,0c0.5,0,1,0.1,1.5,0c1.2-0.1,3.1,0.5,3.1-1.2c0-2-2-1.1-3.2-1.4c-0.1,0-0.2,0-0.3,0
		c-14.4,0-28.8,0-43.2,0c-0.6,0-1.2,0-1.9,0s-1.3,0.2-1.3,1.1c0,0.7,0.5,1.3,1.1,1.3c0.8,0.1,1.7,0.1,2.5,0.1
		C386.9,333.1,394,333.1,401.1,333.1z M393.8,335.1c-5.1,0-10.1,0-15.2,0c-0.9,0-2.5-0.6-2.4,1c0.1,1.5,1.7,0.9,2.6,0.9
		c4.7,0.1,9.5,0,14.2,0c5.1,0,10.1,0,15.2,0c1,0,2.8,0.5,2.8-1.1c0-1.5-1.7-0.7-2.6-0.8C403.5,335.1,398.7,335.1,393.8,335.1z"/>
	<path class="st6" d="M401.1,333.1c-7.2,0-14.3,0-21.4,0c-0.8,0-1.7,0-2.5-0.1c-0.6-0.1-1.1-0.6-1.1-1.3c0-0.9,0.6-1.1,1.3-1.1
		c0.6,0,1.2,0,1.9,0c14.4,0,28.8,0,43.2,0c0.1,0,0.2,0,0.3,0c1.2,0.2,3.2-0.7,3.2,1.4c0,1.7-1.9,1.1-3.1,1.2c-0.5,0.1-1,0-1.5,0
		C414.5,333.1,407.8,333.1,401.1,333.1z"/>
	<path class="st6" d="M393.8,335.1c4.9,0,9.7-0.1,14.5,0.1c0.9,0,2.6-0.7,2.6,0.8c0,1.5-1.7,1.1-2.8,1.1c-5.1,0.1-10.1,0-15.2,0
		c-4.7,0-9.5,0-14.2,0c-0.9,0-2.5,0.6-2.6-0.9c-0.1-1.6,1.5-1,2.4-1C383.7,335.1,388.8,335.1,393.8,335.1z"/>
</g>
<g>
	<path class="st2" d="M423.6,233.4c-10.7,0-21.5,0-32.2,0c-4,0-4.9-1.2-4.9-6.3c0-8.8,0.1-17.6-0.1-26.3c-0.1-3.5,0.6-4.9,3.6-4.9
		c20.8,0.1,41.6,0.1,62.4,0.1c2,0,4.1,0.5,6.1,0.7c1.5,0.2,1.9,1.4,1.9,3.1c0,10,0,19.9,0,29.9c0,3.3-1.7,3.7-3.8,3.7
		C445.5,233.4,434.6,233.4,423.6,233.4z M423.2,205.5c9.6,0,19.3,0,28.8-0.1c0.9,0,2.4,0.7,2.4-1.3c0-1.7-1.4-1.1-2.2-1.1
		c-19.3,0-38.4,0-57.7,0c-0.8,0-2.2-0.6-2.3,1.1c-0.1,2,1.5,1.3,2.4,1.3C404.1,205.5,413.7,205.5,423.2,205.5z M423.2,215.9
		c9.6,0,19.3,0,28.8-0.1c0.9,0,2.4,0.7,2.4-1.3c0-1.7-1.4-1.1-2.3-1.1c-19.3,0-38.5,0-57.7,0c-0.8,0-2.2-0.5-2.3,1.1
		c0,2,1.5,1.3,2.4,1.3C404.1,215.9,413.7,215.9,423.2,215.9z M423.2,226.4c9.3,0,18.6,0,28,0c0.8,0,1.7,0,2.5-0.1
		c0.6-0.1,1-0.4,1-1.3c-0.1-0.6-0.4-0.9-0.8-1c-0.6-0.1-1.2-0.1-1.9-0.1c-19.1,0-38.1,0-57.1,0c-0.9,0-2.6-0.7-2.6,1.1
		c0,2.1,1.8,1.3,2.8,1.3C404.4,226.4,413.8,226.3,423.2,226.4z M423.6,208.7c-9.3,0-18.6,0-28,0c-0.7,0-1.5,0-2.2,0
		c-0.5,0.1-1.2-0.1-1.2,0.9c-0.1,1,0.6,1.3,1.2,1.5c0.5,0.1,1,0.1,1.5,0.1c18.9,0,37.9,0,56.8,0c1,0,2.6,0.3,2.6-1.3
		c0-1.9-1.7-1.1-2.5-1.1C442.4,208.6,433,208.7,423.6,208.7z M423.6,219c-9.7,0-19.4,0-29.2,0c-0.7,0-2-0.5-2,0.9
		c-0.1,1.7,1.2,1.5,2.1,1.5c19.3,0,38.5,0,57.8,0c0.9,0,2.2,0.1,2.2-1.3c-0.1-1.7-1.5-1-2.2-1C442.6,219,433.1,219,423.6,219z"/>
	<path class="st3" d="M423.2,205.5c-9.5,0-19,0-28.5,0c-0.9,0-2.4,0.7-2.4-1.3c0-1.7,1.5-1.1,2.3-1.1c19.3-0.1,38.4-0.1,57.7,0
		c0.8,0,2.3-0.5,2.2,1.1c0,2-1.5,1.3-2.4,1.3C442.4,205.5,432.8,205.5,423.2,205.5z"/>
	<path class="st4" d="M423.2,215.9c-9.5,0-19.1,0-28.5-0.1c-0.9,0-2.4,0.7-2.4-1.3c0-1.6,1.5-1.1,2.3-1.1c19.3,0,38.5,0,57.7,0
		c0.8,0,2.2-0.5,2.3,1.1c0,2-1.5,1.3-2.4,1.3C442.4,215.9,432.8,215.9,423.2,215.9z"/>
	<path class="st4" d="M423.2,226.3c-9.4,0-18.8,0-28.3-0.1c-1,0-2.8,0.9-2.8-1.3c0-1.8,1.7-1.1,2.6-1.1c19.1-0.1,38.1,0,57.1,0
		c0.6,0,1.2,0.1,1.9,0.1c0.4,0.1,0.8,0.4,0.8,1c0.1,0.8-0.4,1.2-1,1.3c-0.8,0.1-1.7,0.1-2.5,0.1
		C441.8,226.4,432.5,226.4,423.2,226.3z"/>
	<path class="st4" d="M423.6,208.7c9.4,0,18.9,0,28.3,0.1c0.9,0,2.5-0.8,2.5,1.1c0,1.6-1.5,1.3-2.6,1.3c-18.9,0-37.9,0-56.8,0
		c-0.5,0-1,0-1.5-0.1c-0.6-0.1-1.3-0.5-1.2-1.5c0.1-0.9,0.7-0.8,1.2-0.9c0.7-0.1,1.5,0,2.2,0C405,208.7,414.3,208.7,423.6,208.7z"/>
	<path class="st4" d="M423.6,219c9.5,0,19.1,0,28.6,0c0.8,0,2.2-0.7,2.2,1c0,1.5-1.3,1.3-2.2,1.3c-19.3,0-38.5,0-57.8,0
		c-0.9,0-2.2,0.2-2.1-1.5c0.1-1.5,1.3-0.9,2-0.9C404.1,219,413.9,219,423.6,219z"/>
</g>
<g>
	<path class="st2" d="M423.6,233.4c-10.7,0-21.5,0-32.2,0c-4,0-4.9-1.2-4.9-6.3c0-8.8,0.1-17.6-0.1-26.3c-0.1-3.5,0.6-4.9,3.6-4.9
		c20.8,0.1,41.6,0.1,62.4,0.1c2,0,4.1,0.5,6.1,0.7c1.5,0.2,1.9,1.4,1.9,3.1c0,10,0,19.9,0,29.9c0,3.3-1.7,3.7-3.8,3.7
		C445.5,233.4,434.6,233.4,423.6,233.4z M423.2,205.5c9.6,0,19.3,0,28.8-0.1c0.9,0,2.4,0.7,2.4-1.3c0-1.7-1.4-1.1-2.2-1.1
		c-19.3,0-38.4,0-57.7,0c-0.8,0-2.2-0.6-2.3,1.1c-0.1,2,1.5,1.3,2.4,1.3C404.1,205.5,413.7,205.5,423.2,205.5z M423.2,215.9
		c9.6,0,19.3,0,28.8-0.1c0.9,0,2.4,0.7,2.4-1.3c0-1.7-1.4-1.1-2.3-1.1c-19.3,0-38.5,0-57.7,0c-0.8,0-2.2-0.5-2.3,1.1
		c0,2,1.5,1.3,2.4,1.3C404.1,215.9,413.7,215.9,423.2,215.9z M423.2,226.4c9.3,0,18.6,0,28,0c0.8,0,1.7,0,2.5-0.1
		c0.6-0.1,1-0.4,1-1.3c-0.1-0.6-0.4-0.9-0.8-1c-0.6-0.1-1.2-0.1-1.9-0.1c-19.1,0-38.1,0-57.1,0c-0.9,0-2.6-0.7-2.6,1.1
		c0,2.1,1.8,1.3,2.8,1.3C404.4,226.4,413.8,226.3,423.2,226.4z M423.6,208.7c-9.3,0-18.6,0-28,0c-0.7,0-1.5,0-2.2,0
		c-0.5,0.1-1.2-0.1-1.2,0.9c-0.1,1,0.6,1.3,1.2,1.5c0.5,0.1,1,0.1,1.5,0.1c18.9,0,37.9,0,56.8,0c1,0,2.6,0.3,2.6-1.3
		c0-1.9-1.7-1.1-2.5-1.1C442.4,208.6,433,208.7,423.6,208.7z M423.6,219c-9.7,0-19.4,0-29.2,0c-0.7,0-2-0.5-2,0.9
		c-0.1,1.7,1.2,1.5,2.1,1.5c19.3,0,38.5,0,57.8,0c0.9,0,2.2,0.1,2.2-1.3c-0.1-1.7-1.5-1-2.2-1C442.6,219,433.1,219,423.6,219z"/>
	<path class="st3" d="M423.2,205.5c-9.5,0-19,0-28.5,0c-0.9,0-2.4,0.7-2.4-1.3c0-1.7,1.5-1.1,2.3-1.1c19.3-0.1,38.4-0.1,57.7,0
		c0.8,0,2.3-0.5,2.2,1.1c0,2-1.5,1.3-2.4,1.3C442.4,205.5,432.8,205.5,423.2,205.5z"/>
	<path class="st4" d="M423.2,215.9c-9.5,0-19.1,0-28.5-0.1c-0.9,0-2.4,0.7-2.4-1.3c0-1.6,1.5-1.1,2.3-1.1c19.3,0,38.5,0,57.7,0
		c0.8,0,2.2-0.5,2.3,1.1c0,2-1.5,1.3-2.4,1.3C442.4,215.9,432.8,215.9,423.2,215.9z"/>
	<path class="st4" d="M423.2,226.3c-9.4,0-18.8,0-28.3-0.1c-1,0-2.8,0.9-2.8-1.3c0-1.8,1.7-1.1,2.6-1.1c19.1-0.1,38.1,0,57.1,0
		c0.6,0,1.2,0.1,1.9,0.1c0.4,0.1,0.8,0.4,0.8,1c0.1,0.8-0.4,1.2-1,1.3c-0.8,0.1-1.7,0.1-2.5,0.1
		C441.8,226.4,432.5,226.4,423.2,226.3z"/>
	<path class="st4" d="M423.6,208.7c9.4,0,18.9,0,28.3,0.1c0.9,0,2.5-0.8,2.5,1.1c0,1.6-1.5,1.3-2.6,1.3c-18.9,0-37.9,0-56.8,0
		c-0.5,0-1,0-1.5-0.1c-0.6-0.1-1.3-0.5-1.2-1.5c0.1-0.9,0.7-0.8,1.2-0.9c0.7-0.1,1.5,0,2.2,0C405,208.7,414.3,208.7,423.6,208.7z"/>
	<path class="st4" d="M423.6,219c9.5,0,19.1,0,28.6,0c0.8,0,2.2-0.7,2.2,1c0,1.5-1.3,1.3-2.2,1.3c-19.3,0-38.5,0-57.8,0
		c-0.9,0-2.2,0.2-2.1-1.5c0.1-1.5,1.3-0.9,2-0.9C404.1,219,413.9,219,423.6,219z"/>
</g>
<g>
	<path class="st2" d="M86.6,359.7c-10.7,0-21.5,0-32.2,0c-4,0-4.9-1.2-4.9-6.3c0-8.8,0.1-17.6-0.1-26.3c-0.1-3.5,0.6-4.9,3.6-4.9
		c20.8,0.1,41.6,0.1,62.4,0.1c2,0,4.1,0.5,6.1,0.7c1.5,0.2,1.9,1.4,1.9,3.1c0,10,0,19.9,0,29.9c0,3.3-1.7,3.7-3.8,3.7
		C108.5,359.7,97.5,359.7,86.6,359.7z M86.1,331.8c9.6,0,19.3,0,28.8-0.1c0.9,0,2.4,0.7,2.4-1.3c0-1.7-1.4-1.1-2.2-1.1
		c-19.3,0-38.4,0-57.7,0c-0.8,0-2.2-0.6-2.3,1.1c-0.1,2,1.5,1.3,2.4,1.3C67.1,331.8,76.7,331.8,86.1,331.8z M86.2,342.2
		c9.6,0,19.3,0,28.8-0.1c0.9,0,2.4,0.7,2.4-1.3c0-1.7-1.4-1.1-2.3-1.1c-19.3,0-38.5,0-57.7,0c-0.8,0-2.2-0.5-2.3,1.1
		c0,2,1.5,1.3,2.4,1.3C67.1,342.2,76.7,342.2,86.2,342.2z M86.2,352.6c9.3,0,18.6,0,28,0c0.8,0,1.7,0,2.5-0.1c0.6-0.1,1-0.4,1-1.3
		c-0.1-0.6-0.4-0.9-0.8-1c-0.6-0.1-1.2-0.1-1.9-0.1c-19.1,0-38.1,0-57.1,0c-0.9,0-2.6-0.7-2.6,1.1c0,2.1,1.8,1.3,2.8,1.3
		C67.4,352.6,76.8,352.6,86.2,352.6z M86.6,334.9c-9.3,0-18.6,0-28,0c-0.7,0-1.5,0-2.2,0c-0.5,0.1-1.2-0.1-1.2,0.9
		c-0.1,1,0.6,1.3,1.2,1.5c0.5,0.1,1,0.1,1.5,0.1c18.9,0,37.9,0,56.8,0c1,0,2.6,0.3,2.6-1.3c0-1.9-1.7-1.1-2.5-1.1
		C105.4,334.9,96,334.9,86.6,334.9z M86.5,345.3c-9.7,0-19.4,0-29.2,0c-0.7,0-2-0.5-2,0.9c-0.1,1.7,1.2,1.5,2.1,1.5
		c19.3,0,38.5,0,57.8,0c0.9,0,2.2,0.1,2.2-1.3c-0.1-1.7-1.5-1-2.2-1C105.6,345.3,96.1,345.3,86.5,345.3z"/>
	<path class="st3" d="M86.1,331.8c-9.5,0-19,0-28.5,0c-0.9,0-2.4,0.7-2.4-1.3c0-1.7,1.5-1.1,2.3-1.1c19.3-0.1,38.4-0.1,57.7,0
		c0.8,0,2.3-0.5,2.2,1.1c0,2-1.5,1.3-2.4,1.3C105.4,331.8,95.8,331.8,86.1,331.8z"/>
	<path class="st4" d="M86.2,342.2c-9.5,0-19.1,0-28.5-0.1c-0.9,0-2.4,0.7-2.4-1.3c0-1.6,1.5-1.1,2.3-1.1c19.3,0,38.5,0,57.7,0
		c0.8,0,2.2-0.5,2.3,1.1c0,2-1.5,1.3-2.4,1.3C105.4,342.2,95.8,342.2,86.2,342.2z"/>
	<path class="st4" d="M86.2,352.6c-9.4,0-18.8,0-28.3-0.1c-1,0-2.8,0.9-2.8-1.3c0-1.8,1.7-1.1,2.6-1.1c19.1-0.1,38.1,0,57.1,0
		c0.6,0,1.2,0.1,1.9,0.1c0.4,0.1,0.8,0.4,0.8,1c0.1,0.8-0.4,1.2-1,1.3c-0.8,0.1-1.7,0.1-2.5,0.1C104.8,352.6,95.5,352.6,86.2,352.6z
		"/>
	<path class="st4" d="M86.6,334.9c9.4,0,18.9,0,28.3,0.1c0.9,0,2.5-0.8,2.5,1.1c0,1.6-1.5,1.3-2.6,1.3c-18.9,0-37.9,0-56.8,0
		c-0.5,0-1,0-1.5-0.1c-0.6-0.1-1.3-0.5-1.2-1.5c0.1-0.9,0.7-0.8,1.2-0.9c0.7-0.1,1.5,0,2.2,0C68,334.9,77.2,334.9,86.6,334.9z"/>
	<path class="st4" d="M86.5,345.3c9.5,0,19.1,0,28.6,0c0.8,0,2.2-0.7,2.2,1c0,1.5-1.3,1.3-2.2,1.3c-19.3,0-38.5,0-57.8,0
		c-0.9,0-2.2,0.2-2.1-1.5c0.1-1.5,1.3-0.9,2-0.9C67.1,345.3,76.8,345.3,86.5,345.3z"/>
</g>
<g>
	<path class="st5" d="M97.3,34.2c8.5,0,17,0.1,25.5-0.1c2.3-0.1,3.1,0.7,3,3.1c-0.2,3.2-0.1,6.5-0.1,9.8c0,2.3-1,3.4-3.1,3.4
		c-17.4,0-34.7,0-52.1,0c-2.2,0-3.1-1.2-3.1-3.5c0.1-2.7,0-5.4,0-8.2c0-4,0.6-4.6,4.5-4.6C80.4,34.2,88.8,34.2,97.3,34.2z
		 M96.8,41.3c6.7,0,13.4,0,20.1,0c0.5,0,1,0.1,1.5,0c1.2-0.1,3.1,0.5,3.1-1.2c0-2-2-1.1-3.2-1.4c-0.1,0-0.2,0-0.3,0
		c-14.4,0-28.8,0-43.2,0c-0.6,0-1.2,0-1.9,0c-0.6,0-1.3,0.2-1.3,1.1c0,0.7,0.5,1.3,1.1,1.3c0.8,0.1,1.7,0.1,2.5,0.1
		C82.5,41.3,89.6,41.3,96.8,41.3z M89.5,43.2c-5.1,0-10.1,0-15.2,0c-0.9,0-2.5-0.6-2.4,1c0.1,1.5,1.7,0.9,2.6,0.9
		c4.7,0.1,9.5,0,14.2,0c5.1,0,10.1,0,15.2,0c1,0,2.8,0.5,2.8-1.1c0-1.5-1.7-0.7-2.6-0.8C99.2,43.2,94.4,43.2,89.5,43.2z"/>
	<path class="st6" d="M96.8,41.3c-7.2,0-14.3,0-21.4,0c-0.8,0-1.7,0-2.5-0.1c-0.6-0.1-1.1-0.6-1.1-1.3c0-0.9,0.6-1.1,1.3-1.1
		c0.6,0,1.2,0,1.9,0c14.4,0,28.8,0,43.2,0c0.1,0,0.2,0,0.3,0c1.2,0.2,3.2-0.7,3.2,1.4c0,1.7-1.9,1.1-3.1,1.2c-0.5,0.1-1,0-1.5,0
		C110.2,41.3,103.5,41.3,96.8,41.3z"/>
	<path class="st6" d="M89.5,43.2c4.9,0,9.7-0.1,14.5,0.1c0.9,0,2.6-0.7,2.6,0.8c0,1.5-1.7,1.1-2.8,1.1c-5.1,0.1-10.1,0-15.2,0
		c-4.7,0-9.5,0-14.2,0c-0.9,0-2.5,0.6-2.6-0.9c-0.1-1.6,1.5-1,2.4-1C79.4,43.2,84.5,43.2,89.5,43.2z"/>
</g>
<g>
	<path class="st2" d="M191.4,47.9c-10.7,0-21.5,0-32.2,0c-4,0-4.9-1.2-4.9-6.3c0-8.8,0.1-17.6-0.1-26.3c-0.1-3.5,0.6-4.9,3.6-4.9
		c20.8,0.1,41.6,0.1,62.4,0.1c2,0,4.1,0.5,6.1,0.7c1.5,0.2,1.9,1.4,1.9,3.1c0,10,0,19.9,0,29.9c0,3.3-1.7,3.7-3.8,3.7
		C213.3,47.9,202.4,47.9,191.4,47.9z M191,20c9.6,0,19.3,0,28.8-0.1c0.9,0,2.4,0.7,2.4-1.3c0-1.7-1.4-1.1-2.2-1.1
		c-19.3,0-38.4,0-57.7,0c-0.8,0-2.2-0.6-2.3,1.1c-0.1,2,1.5,1.3,2.4,1.3C171.9,20,181.5,20,191,20z M191,30.4c9.6,0,19.3,0,28.8-0.1
		c0.9,0,2.4,0.7,2.4-1.3c0-1.7-1.4-1.1-2.3-1.1c-19.3,0-38.5,0-57.7,0c-0.8,0-2.2-0.5-2.3,1.1c0,2,1.5,1.3,2.4,1.3
		C171.9,30.4,181.5,30.4,191,30.4z M191,40.9c9.3,0,18.6,0,28,0c0.8,0,1.7,0,2.5-0.1c0.6-0.1,1-0.4,1-1.3c-0.1-0.6-0.4-0.9-0.8-1
		c-0.6-0.1-1.2-0.1-1.9-0.1c-19.1,0-38.1,0-57.1,0c-0.9,0-2.6-0.7-2.6,1.1c0,2.1,1.8,1.3,2.8,1.3C172.2,40.9,181.6,40.8,191,40.9z
		 M191.4,23.1c-9.3,0-18.6,0-28,0c-0.7,0-1.5,0-2.2,0c-0.5,0.1-1.2-0.1-1.2,0.9c-0.1,1,0.6,1.3,1.2,1.5c0.5,0.1,1,0.1,1.5,0.1
		c18.9,0,37.9,0,56.8,0c1,0,2.6,0.3,2.6-1.3c0-1.9-1.7-1.1-2.5-1.1C210.3,23.1,200.8,23.1,191.4,23.1z M191.4,33.5
		c-9.7,0-19.4,0-29.2,0c-0.7,0-2-0.5-2,0.9c-0.1,1.7,1.2,1.5,2.1,1.5c19.3,0,38.5,0,57.8,0c0.9,0,2.2,0.1,2.2-1.3
		c-0.1-1.7-1.5-1-2.2-1C210.5,33.5,200.9,33.5,191.4,33.5z"/>
	<path class="st3" d="M191,20c-9.5,0-19,0-28.5,0c-0.9,0-2.4,0.7-2.4-1.3c0-1.7,1.5-1.1,2.3-1.1c19.3-0.1,38.4-0.1,57.7,0
		c0.8,0,2.3-0.5,2.2,1.1c0,2-1.5,1.3-2.4,1.3C210.2,20,200.6,20,191,20z"/>
	<path class="st4" d="M191,30.4c-9.5,0-19.1,0-28.5-0.1c-0.9,0-2.4,0.7-2.4-1.3c0-1.6,1.5-1.1,2.3-1.1c19.3,0,38.5,0,57.7,0
		c0.8,0,2.2-0.5,2.3,1.1c0,2-1.5,1.3-2.4,1.3C210.3,30.4,200.6,30.4,191,30.4z"/>
	<path class="st4" d="M191,40.8c-9.4,0-18.8,0-28.3-0.1c-1,0-2.8,0.9-2.8-1.3c0-1.8,1.7-1.1,2.6-1.1c19.1-0.1,38.1,0,57.1,0
		c0.6,0,1.2,0.1,1.9,0.1c0.4,0.1,0.8,0.4,0.8,1c0.1,0.8-0.4,1.2-1,1.3c-0.8,0.1-1.7,0.1-2.5,0.1C209.6,40.9,200.3,40.9,191,40.8z"/>
	<path class="st4" d="M191.4,23.1c9.4,0,18.9,0,28.3,0.1c0.9,0,2.5-0.8,2.5,1.1c0,1.6-1.5,1.3-2.6,1.3c-18.9,0-37.9,0-56.8,0
		c-0.5,0-1,0-1.5-0.1c-0.6-0.1-1.3-0.5-1.2-1.5c0.1-0.9,0.7-0.8,1.2-0.9c0.7-0.1,1.5,0,2.2,0C172.8,23.1,182.1,23.1,191.4,23.1z"/>
	<path class="st4" d="M191.4,33.5c9.5,0,19.1,0,28.6,0c0.8,0,2.2-0.7,2.2,1c0,1.5-1.3,1.3-2.2,1.3c-19.3,0-38.5,0-57.8,0
		c-0.9,0-2.2,0.2-2.1-1.5c0.1-1.5,1.3-0.9,2-0.9C171.9,33.5,181.7,33.5,191.4,33.5z"/>
</g>
<g>
	<path class="st5" d="M295.6,55.7c8.5,0,17,0.1,25.5-0.1c2.3-0.1,3.1,0.7,3,3.1c-0.2,3.2-0.1,6.5-0.1,9.8c0,2.3-1,3.4-3.1,3.4
		c-17.4,0-34.7,0-52.1,0c-2.2,0-3.1-1.2-3.1-3.5c0.1-2.7,0-5.4,0-8.2c0-4,0.6-4.6,4.5-4.6C278.6,55.7,287,55.7,295.6,55.7z
		 M295,62.8c6.7,0,13.4,0,20.1,0c0.5,0,1,0.1,1.5,0c1.2-0.1,3.1,0.5,3.1-1.2c0-2-2-1.1-3.2-1.4c-0.1,0-0.2,0-0.3,0
		c-14.4,0-28.8,0-43.2,0c-0.6,0-1.2,0-1.9,0c-0.6,0-1.3,0.2-1.3,1.1c0,0.7,0.5,1.3,1.1,1.3c0.8,0.1,1.7,0.1,2.5,0.1
		C280.8,62.8,287.9,62.8,295,62.8z M287.7,64.7c-5.1,0-10.1,0-15.2,0c-0.9,0-2.5-0.6-2.4,1c0.1,1.5,1.7,0.9,2.6,0.9
		c4.7,0.1,9.5,0,14.2,0c5.1,0,10.1,0,15.2,0c1,0,2.8,0.5,2.8-1.1c0-1.5-1.7-0.7-2.6-0.8C297.5,64.7,292.6,64.7,287.7,64.7z"/>
	<path class="st6" d="M295,62.8c-7.2,0-14.3,0-21.4,0c-0.8,0-1.7,0-2.5-0.1c-0.6-0.1-1.1-0.6-1.1-1.3c0-0.9,0.6-1.1,1.3-1.1
		c0.6,0,1.2,0,1.9,0c14.4,0,28.8,0,43.2,0c0.1,0,0.2,0,0.3,0c1.2,0.2,3.2-0.7,3.2,1.4c0,1.7-1.9,1.1-3.1,1.2c-0.5,0.1-1,0-1.5,0
		C308.5,62.8,301.8,62.8,295,62.8z"/>
	<path class="st6" d="M287.7,64.7c4.9,0,9.7-0.1,14.5,0.1c0.9,0,2.6-0.7,2.6,0.8c0,1.5-1.7,1.1-2.8,1.1c-5.1,0.1-10.1,0-15.2,0
		c-4.7,0-9.5,0-14.2,0c-0.9,0-2.5,0.6-2.6-0.9c-0.1-1.6,1.5-1,2.4-1C277.6,64.7,282.7,64.7,287.7,64.7z"/>
</g>
<g>
	<path class="st5" d="M202.8,338.5c8.5,0,17,0.1,25.5-0.1c2.3-0.1,3.1,0.7,3,3.1c-0.2,3.2-0.1,6.5-0.1,9.8c0,2.3-1,3.4-3.1,3.4
		c-17.4,0-34.7,0-52.1,0c-2.2,0-3.1-1.2-3.1-3.5c0.1-2.7,0-5.4,0-8.2c0-4,0.6-4.6,4.5-4.6C185.8,338.5,194.2,338.5,202.8,338.5z
		 M202.2,345.6c6.7,0,13.4,0,20.1,0c0.5,0,1,0.1,1.5,0c1.2-0.1,3.1,0.5,3.1-1.2c0-2-2-1.1-3.2-1.4c-0.1,0-0.2,0-0.3,0
		c-14.4,0-28.8,0-43.2,0c-0.6,0-1.2,0-1.9,0c-0.6,0-1.3,0.2-1.3,1.1c0,0.7,0.5,1.3,1.1,1.3c0.8,0.1,1.7,0.1,2.5,0.1
		C188,345.6,195.1,345.6,202.2,345.6z M195,347.5c-5.1,0-10.1,0-15.2,0c-0.9,0-2.5-0.6-2.4,1c0.1,1.5,1.7,0.9,2.6,0.9
		c4.7,0.1,9.5,0,14.2,0c5.1,0,10.1,0,15.2,0c1,0,2.8,0.5,2.8-1.1c0-1.5-1.7-0.7-2.6-0.8C204.7,347.5,199.8,347.5,195,347.5z"/>
	<path class="st6" d="M202.2,345.6c-7.2,0-14.3,0-21.4,0c-0.8,0-1.7,0-2.5-0.1c-0.6-0.1-1.1-0.6-1.1-1.3c0-0.9,0.6-1.1,1.3-1.1
		c0.6,0,1.2,0,1.9,0c14.4,0,28.8,0,43.2,0c0.1,0,0.2,0,0.3,0c1.2,0.2,3.2-0.7,3.2,1.4c0,1.7-1.9,1.1-3.1,1.2c-0.5,0.1-1,0-1.5,0
		C215.7,345.6,209,345.6,202.2,345.6z"/>
	<path class="st6" d="M195,347.5c4.9,0,9.7-0.1,14.5,0.1c0.9,0,2.6-0.7,2.6,0.8c0,1.5-1.7,1.1-2.8,1.1c-5.1,0.1-10.1,0-15.2,0
		c-4.7,0-9.5,0-14.2,0c-0.9,0-2.5,0.6-2.6-0.9c-0.1-1.6,1.5-1,2.4-1C184.8,347.5,189.9,347.5,195,347.5z"/>
</g>
<g>
	<path class="st2" d="M300.4,358.1c-10.7-0.2-21.5-0.5-32.2-0.7c-4-0.1-4.9-0.9-4.8-4.3c0.1-5.8,0.4-11.6,0.3-17.4
		c0-2.3,0.7-3.3,3.7-3.1c20.8,0.5,41.6,1,62.3,1.5c2,0,4.1,0.4,6.1,0.6c1.5,0.2,1.8,1,1.8,2.1c-0.1,6.6-0.3,13.2-0.4,19.8
		c0,2.2-1.8,2.4-3.9,2.4C322.4,358.5,311.4,358.3,300.4,358.1z M300.4,339.6c9.6,0.2,19.2,0.4,28.8,0.6c0.9,0,2.4,0.5,2.4-0.8
		c0-1.1-1.4-0.8-2.2-0.8c-19.2-0.4-38.4-0.8-57.7-1.3c-0.8,0-2.2-0.4-2.3,0.7c-0.1,1.3,1.5,0.9,2.4,0.9
		C281.4,339.2,290.9,339.4,300.4,339.6z M300.3,346.5c9.6,0.2,19.2,0.4,28.8,0.6c0.9,0,2.4,0.5,2.4-0.8c0-1.1-1.4-0.8-2.3-0.8
		c-19.2-0.4-38.5-0.8-57.7-1.3c-0.8,0-2.2-0.4-2.3,0.7c0,1.3,1.5,0.9,2.4,0.9C281.3,346.1,290.8,346.3,300.3,346.5z M300.2,353.4
		c9.3,0.2,18.6,0.4,27.9,0.6c0.8,0,1.7,0,2.5,0c0.6,0,1-0.2,1-0.8c-0.1-0.4-0.4-0.6-0.8-0.7c-0.6-0.1-1.2-0.1-1.9-0.1
		c-19.1-0.4-38.1-0.8-57.1-1.2c-0.9,0-2.5-0.5-2.6,0.7c0,1.4,1.8,0.9,2.7,0.9C281.4,353,290.8,353.2,300.2,353.4z M300.8,341.7
		c-9.3-0.2-18.6-0.4-27.9-0.6c-0.7,0-1.5,0-2.2,0c-0.5,0-1.2-0.1-1.2,0.5c-0.1,0.7,0.6,0.9,1.2,1c0.5,0.1,1,0.1,1.5,0.1
		c18.9,0.4,37.9,0.8,56.8,1.2c1,0,2.6,0.3,2.6-0.8c0-1.2-1.6-0.7-2.5-0.8C319.6,342.1,310.2,341.9,300.8,341.7z M300.6,348.5
		c-9.7-0.2-19.4-0.4-29.2-0.6c-0.7,0-2-0.4-2.1,0.5c-0.1,1.1,1.2,1,2.1,1c19.2,0.4,38.5,0.8,57.7,1.3c0.9,0,2.2,0.1,2.3-0.8
		c0-1.1-1.5-0.7-2.2-0.7C319.6,348.9,310.1,348.7,300.6,348.5z"/>
	<path class="st3" d="M300.4,339.6c-9.5-0.2-19-0.4-28.5-0.6c-0.9,0-2.4,0.4-2.4-0.9c0-1.1,1.5-0.7,2.3-0.7
		c19.2,0.4,38.4,0.8,57.7,1.3c0.8,0,2.3-0.3,2.2,0.8c0,1.3-1.6,0.8-2.4,0.8C319.6,340,310.1,339.8,300.4,339.6z"/>
	<path class="st4" d="M300.3,346.5c-9.5-0.2-19.1-0.4-28.5-0.7c-0.9,0-2.4,0.4-2.4-0.9c0-1.1,1.5-0.7,2.3-0.7
		c19.2,0.4,38.5,0.8,57.7,1.3c0.8,0,2.2-0.3,2.3,0.8c0,1.3-1.6,0.8-2.4,0.8C319.5,346.9,309.9,346.7,300.3,346.5z"/>
	<path class="st4" d="M300.2,353.4c-9.4-0.2-18.8-0.4-28.3-0.7c-1,0-2.8,0.6-2.7-0.9c0-1.2,1.7-0.7,2.6-0.7
		c19.1,0.4,38.1,0.8,57.1,1.2c0.6,0,1.2,0.1,1.9,0.1c0.4,0.1,0.8,0.3,0.8,0.7c0.1,0.5-0.4,0.8-1,0.8c-0.8,0-1.7,0-2.5,0
		C318.8,353.8,309.4,353.6,300.2,353.4z"/>
	<path class="st4" d="M300.8,341.7c9.4,0.2,18.9,0.4,28.3,0.7c0.9,0,2.5-0.5,2.5,0.8c0,1.1-1.6,0.8-2.6,0.8
		c-18.9-0.4-37.9-0.8-56.8-1.2c-0.5,0-1,0-1.5-0.1c-0.6-0.1-1.3-0.3-1.2-1c0.1-0.6,0.7-0.5,1.2-0.5c0.7,0,1.5,0,2.2,0
		C282.2,341.3,291.5,341.5,300.8,341.7z"/>
	<path class="st4" d="M300.6,348.5c9.5,0.2,19.1,0.4,28.6,0.6c0.8,0,2.2-0.4,2.2,0.7c0,1-1.3,0.9-2.3,0.8
		c-19.2-0.4-38.5-0.8-57.7-1.3c-0.9,0-2.2,0.1-2.1-1c0.1-1,1.4-0.5,2.1-0.5C281.1,348.1,290.9,348.3,300.6,348.5z"/>
</g>
</svg>
