<?xml version="1.0" encoding="utf-8"?>
<!-- Generator: Adobe Illustrator 28.4.1, SVG Export Plug-In . SVG Version: 6.00 Build 0)  -->
<svg version="1.1" id="Layer_1" xmlns="http://www.w3.org/2000/svg" xmlns:xlink="http://www.w3.org/1999/xlink" x="0px" y="0px"
	 viewBox="0 0 490 375" style="enable-background:new 0 0 490 375;" xml:space="preserve">
<style type="text/css">
	.st0{fill:#EAE6FE;}
	.st1{fill:#5E46F8;}
	.st2{fill-rule:evenodd;clip-rule:evenodd;fill:#5E46F8;}
	.st3{fill-rule:evenodd;clip-rule:evenodd;fill:#D9F0FF;}
	.st4{fill:#D9F0FF;}
	.st5{fill:#FFFFFF;}
	.st6{fill:#1A1A1A;}
	.st7{font-family:'ArialMTBlack-Regular';}
	.st8{font-size:9.0287px;}
	.st9{fill-rule:evenodd;clip-rule:evenodd;fill:#FBCFD0;}
	.st10{fill-rule:evenodd;clip-rule:evenodd;fill:#DFFACD;}
	.st11{fill:#6850F9;}
</style>
<circle class="st0" cx="243.4" cy="186" r="82.5"/>
<path class="st1" d="M233.8,134.5c3.6,0,5.7,3.6,5.7,7.3v22.3h-4.6c-1.5-3.8-5.2-6.4-9.6-6.4c-5.7,0-10.3,4.6-10.3,10.3
	s4.6,10.3,10.3,10.3c4.3,0,8-2.7,9.6-6.4h4.6V228c0,3.1-1.3,6.1-4,7.5c-2.3,1.2-5,2-8,2c-7.8,0-13.6-3.9-17.3-8.6
	c-2.7-3.4-4.5-7.4-5.3-11c-2.1-0.6-4.4-1.7-6.5-3.6c-3.7-3.1-6.5-8.2-6.5-15.6c0-3.9,0.3-7.3,1-10.1h21.7c3.5,0,6.4,2.6,6.9,5.9
	c-3.7,1.5-6.4,5.2-6.4,9.5c0,5.7,4.6,10.3,10.3,10.3c5.7,0,10.3-4.6,10.3-10.3c0-4.3-2.7-8.1-6.5-9.6c-0.5-7.6-6.9-13.6-14.7-13.6
	h-17.3c0.7-0.6,1.4-1,2.2-1.4c0.1-0.1,0.2-0.1,0.3-0.2c-0.5-1.9-0.8-3.9-0.9-5.8c-0.2-3.8,0.4-7.7,1.5-11.2c1.1-3.5,2.9-6.8,5.4-9.1
	c1.6-1.5,3.5-2.6,5.6-2.9c1-4.3,3.6-7.9,7-10.5C222.6,136.3,228.3,134.5,233.8,134.5z M247.3,211.8h8.5c8.1,0,14.7-6.6,14.7-14.7
	v-9.3c3.8-1.5,6.4-5.2,6.4-9.6c0-5.7-4.6-10.3-10.3-10.3c-5.7,0-10.3,4.6-10.3,10.3c0,4.3,2.7,8,6.4,9.6v9.3c0,3.8-3.1,7-7,7h-8.5
	V168c0,0,0,0,0,0c0,0,0,0,0,0v-26.2c0-3.6,2.1-7.3,5.7-7.3c5.6,0,11.2,1.8,15.5,5.2c3.3,2.6,6,6.2,7,10.5c2.2,0.4,4.1,1.5,5.6,2.9
	c2.5,2.3,4.2,5.7,5.4,9.1c1.1,3.5,1.7,7.5,1.5,11.2c-0.1,1.9-0.4,3.9-0.9,5.8c0.1,0,0.2,0.1,0.3,0.2c1.9,0.9,3.5,2.3,4.6,4.2
	c2.2,3.5,3,8.6,3,15.1c0,7.4-2.8,12.5-6.5,15.6c-2.1,1.8-4.5,3-6.5,3.6c-0.7,3.6-2.5,7.6-5.3,11c-3.7,4.7-9.5,8.6-17.3,8.6
	c-3,0-5.7-0.8-8-2c-2.7-1.4-4-4.5-4-7.5V211.8z M222.8,167.9c0-1.4,1.2-2.6,2.6-2.6c1.4,0,2.6,1.2,2.6,2.6s-1.2,2.6-2.6,2.6
	C223.9,170.5,222.8,169.4,222.8,167.9z M225.4,201.5c-1.4,0-2.6,1.2-2.6,2.6s1.2,2.6,2.6,2.6c1.4,0,2.6-1.2,2.6-2.6
	S226.8,201.5,225.4,201.5z M264,178.3c0,1.4,1.2,2.6,2.6,2.6s2.6-1.2,2.6-2.6s-1.2-2.6-2.6-2.6S264,176.8,264,178.3z"/>
<g>
	<path class="st0" d="M243.1,283.1h-1c-0.6,0-1-0.4-1-1v-9.3c0-0.6,0.4-1,1-1h1c0.6,0,1,0.4,1,1v9.3
		C244.1,282.7,243.7,283.1,243.1,283.1z"/>
	<circle class="st0" cx="242.6" cy="295.2" r="10"/>
	<circle class="st1" cx="242.6" cy="295.2" r="6"/>
</g>
<g>
	<circle class="st0" cx="51.7" cy="198" r="36.5"/>
	<g>
		<path class="st2" d="M41.4,173.5h18l11.4,13.1v30.4c0,3-2.3,5.5-5.2,5.5H41.4c-2.8,0-5.2-2.5-5.2-5.5V179
			C36.2,176,38.5,173.5,41.4,173.5z"/>
		<path class="st2" d="M63.5,186.3L63.5,186.3l7.2,5.3v-5h-4.9C65,186.6,64.2,186.5,63.5,186.3L63.5,186.3z"/>
		<path class="st3" d="M59.4,174.4l11.4,13.1v0h-4.9c-4.1-0.1-6.3-2.2-6.5-5.9V174.4z"/>
		<path class="st1" d="M32.8,214.8v-17.1l0-0.1c0.1-1.6,1.3-2.8,2.8-2.8h0.7v4.8h32c1.2,0,2.1,1,2.1,2.2v13c0,1.2-1,2.2-2.1,2.2
			H34.9C33.7,217.1,32.8,216,32.8,214.8z"/>
		<path class="st4" d="M45.7,196.5c-0.4,0-0.8-0.4-0.8-0.8c0,0,0,0,0,0c0-0.4,0.3-0.8,0.8-0.8c0,0,0,0,0,0h14.7
			c0.4,0,0.8,0.4,0.8,0.8c0,0,0,0,0,0c0,0.4-0.3,0.8-0.8,0.8c0,0,0,0,0,0H45.7z M45.7,190.9c-0.4,0-0.8-0.4-0.8-0.8
			c0-0.4,0.3-0.8,0.8-0.8h15.5c0.4,0,0.8,0.4,0.8,0.8c0,0.4-0.3,0.8-0.8,0.8H45.7z"/>
		<path class="st5" d="M33.8,199.9v14.8c0,0.7,0.6,1.4,1.3,1.4h33c0.7,0,1.3-0.6,1.3-1.4V202c0-0.7-0.6-1.4-1.3-1.4H36.2
			C35,200.6,34.4,200.5,33.8,199.9z"/>
		<path class="st6" d="M37.6,211.9v-7.8h3.3c1.3,0,2.2,0.3,2.7,0.9c0.5,0.6,0.7,1.6,0.7,3c0,1.4-0.2,2.4-0.7,3
			c-0.5,0.6-1.4,0.9-2.7,0.9H37.6L37.6,211.9z M41,206.1h-1v3.8h1c0.3,0,0.6,0,0.7-0.1c0.1-0.1,0.2-0.3,0.2-0.5v-2.5
			c0-0.3-0.1-0.5-0.2-0.5C41.5,206.1,41.3,206.1,41,206.1z M45.1,208c0-1.4,0.3-2.5,0.8-3.1c0.5-0.7,1.4-1,2.7-1
			c1.3,0,2.2,0.3,2.7,1c0.5,0.7,0.8,1.7,0.8,3.1c0,0.7-0.1,1.3-0.2,1.8c-0.1,0.5-0.3,0.9-0.5,1.3c-0.3,0.4-0.6,0.6-1.1,0.8
			c-0.5,0.2-1,0.3-1.7,0.3c-0.7,0-1.2-0.1-1.7-0.3c-0.5-0.2-0.8-0.4-1.1-0.8c-0.3-0.4-0.4-0.8-0.5-1.3
			C45.1,209.3,45.1,208.7,45.1,208z M47.6,206.7v3.3h1c0.3,0,0.6,0,0.7-0.1c0.1-0.1,0.2-0.3,0.2-0.5V206h-1c-0.3,0-0.5,0-0.7,0.1
			C47.7,206.2,47.6,206.4,47.6,206.7L47.6,206.7z M57.9,209.7l0.2,2.1c-0.5,0.2-1.1,0.3-1.9,0.3c-0.7,0-1.3-0.1-1.8-0.3
			c-0.5-0.2-0.8-0.4-1.1-0.8c-0.3-0.4-0.4-0.8-0.5-1.3c-0.1-0.5-0.2-1.1-0.2-1.8c0-0.7,0.1-1.3,0.2-1.8c0.1-0.5,0.3-0.9,0.5-1.3
			c0.5-0.7,1.4-1,2.8-1c0.3,0,0.7,0,1.1,0.1c0.4,0.1,0.7,0.1,0.9,0.2l-0.4,1.9c-0.5-0.1-1-0.2-1.4-0.2c-0.4,0-0.7,0-0.9,0.1
			c-0.2,0.1-0.2,0.3-0.2,0.5v3.3c0.3,0.1,0.6,0.1,0.9,0.1C56.8,210,57.4,209.9,57.9,209.7L57.9,209.7z M61.2,204.1l0.8,2.1h0.1
			l0.8-2.1h2.6l-1.6,3.8l1.6,4h-2.6l-0.9-2.3h-0.1l-0.9,2.3h-2.5l1.6-4l-1.6-3.9H61.2L61.2,204.1z"/>
	</g>
</g>
<g>
	<circle class="st0" cx="60.7" cy="332.4" r="32"/>
	<g>
		<path class="st1" d="M77.2,338.2c0.6-1.8,1-3.7,1-5.7c0-2-0.3-3.9-1-5.7c0-0.1,0-0.1-0.1-0.2c-2.4-6.7-8.9-11.6-16.4-11.6
			c-7.6,0-14,4.8-16.4,11.6c0,0.1,0,0.1-0.1,0.2c-0.6,1.8-1,3.7-1,5.7c0,2,0.3,3.9,1,5.7c0,0.1,0,0.1,0.1,0.2
			c2.4,6.7,8.9,11.6,16.4,11.6c7.6,0,14-4.8,16.4-11.6C77.2,338.3,77.2,338.2,77.2,338.2L77.2,338.2z M60.7,347.4
			c-0.7,0-1.7-1.2-2.6-3.9c-0.4-1.3-0.8-2.8-1-4.4h7.3c-0.3,1.6-0.6,3.1-1,4.4C62.5,346.2,61.4,347.4,60.7,347.4L60.7,347.4z
			 M56.8,336.6c-0.1-1.3-0.2-2.7-0.2-4.2c0-1.4,0.1-2.8,0.2-4.2h7.9c0.1,1.3,0.2,2.7,0.2,4.2c0,1.4-0.1,2.8-0.2,4.2H56.8z
			 M45.8,332.4c0-1.4,0.2-2.8,0.6-4.2h7.9c-0.1,1.4-0.2,2.8-0.2,4.2c0,1.4,0.1,2.8,0.2,4.2h-7.9C46,335.3,45.8,333.9,45.8,332.4
			L45.8,332.4z M60.7,317.5c0.7,0,1.7,1.2,2.6,3.9c0.4,1.3,0.8,2.8,1,4.4h-7.3c0.3-1.6,0.6-3.1,1-4.4
			C59,318.7,60.1,317.5,60.7,317.5L60.7,317.5z M67.2,328.3h7.9c0.4,1.3,0.6,2.7,0.6,4.2c0,1.4-0.2,2.8-0.6,4.2h-7.9
			c0.1-1.4,0.2-2.8,0.2-4.2C67.4,331.1,67.3,329.7,67.2,328.3L67.2,328.3z M74.1,325.8h-7.2c-0.4-3.1-1.2-5.8-2.3-7.8
			C68.8,319.1,72.2,322,74.1,325.8L74.1,325.8z M56.8,318c-1.1,2-1.8,4.7-2.3,7.8h-7.2C49.2,322,52.7,319.1,56.8,318L56.8,318z
			 M47.3,339.1h7.2c0.4,3.1,1.2,5.8,2.3,7.8C52.7,345.8,49.2,342.9,47.3,339.1L47.3,339.1z M64.6,346.9c1.1-2,1.8-4.7,2.3-7.8h7.2
			C72.2,342.9,68.8,345.8,64.6,346.9L64.6,346.9z M64.6,346.9"/>
	</g>
</g>
<g>
	<circle class="st0" cx="444.5" cy="203.1" r="32.5"/>
	<g>
		<path class="st1" d="M460.2,225.1h-31.5c-1.5,0-2.7-1.2-2.7-2.7v-38.6c0-1.5,1.2-2.7,2.7-2.7h31.5c1.5,0,2.7,1.2,2.7,2.7v38.6
			C462.9,223.9,461.7,225.1,460.2,225.1z"/>
		<text transform="matrix(1.2897 0 0 1 430.8797 194.6527)" class="st0 st7 st8">ABC</text>
		<g>
			<path class="st0" d="M436.1,207.5c-0.5,0-0.8-0.3-0.8-0.7c0-0.4,0.4-0.7,0.8-0.7h16.6c0.5,0,0.8,0.3,0.8,0.7
				c0,0.4-0.4,0.7-0.8,0.7H436.1z"/>
			<path class="st0" d="M436.1,202.4c-0.5,0-0.8-0.3-0.8-0.7c0-0.4,0.4-0.7,0.8-0.7h16.6c0.5,0,0.8,0.3,0.8,0.7
				c0,0.4-0.4,0.7-0.8,0.7H436.1z"/>
			<path class="st0" d="M436.1,217.1c-0.5,0-0.8-0.3-0.8-0.7s0.4-0.7,0.8-0.7h16.6c0.5,0,0.8,0.3,0.8,0.7s-0.4,0.7-0.8,0.7H436.1z"
				/>
			<path class="st0" d="M436.1,212c-0.5,0-0.8-0.3-0.8-0.7c0-0.4,0.4-0.7,0.8-0.7h16.6c0.5,0,0.8,0.3,0.8,0.7c0,0.4-0.4,0.7-0.8,0.7
				H436.1z"/>
		</g>
	</g>
</g>
<g>
	<circle class="st0" cx="422.3" cy="321" r="37.5"/>
	<g>
		<path class="st2" d="M411.6,295.9h18.5l11.7,13.4v31.2c0,3.1-2.4,5.6-5.3,5.6h-24.8c-2.9,0-5.3-2.5-5.3-5.6v-38.9
			C406.3,298.4,408.7,295.9,411.6,295.9z"/>
		<path class="st2" d="M434.4,309L434.4,309l7.4,5.4v-5.1h-5C435.9,309.3,435.1,309.2,434.4,309L434.4,309z"/>
		<path class="st9" d="M430.1,295.9l11.7,13.4v0h-5c-4.2-0.1-6.4-2.3-6.7-6V295.9z"/>
		<path class="st1" d="M402.8,338.3v-17.5l0-0.1c0.1-1.6,1.3-2.9,2.9-2.9h0.7v5h31.8c1.2,0,2.2,1,2.2,2.3v13.3c0,1.3-1,2.3-2.2,2.3
			h-33.2C403.8,340.6,402.8,339.6,402.8,338.3z"/>
		<path class="st0" d="M416.1,319.5c-0.4,0-0.8-0.4-0.8-0.8c0,0,0,0,0,0c0-0.5,0.4-0.8,0.8-0.8c0,0,0,0,0,0h15.1
			c0.4,0,0.8,0.4,0.8,0.8c0,0,0,0,0,0c0,0.5-0.4,0.8-0.8,0.8c0,0,0,0,0,0H416.1z M416.1,313.7c-0.4,0-0.8-0.4-0.8-0.8
			c0-0.5,0.4-0.8,0.8-0.8h16c0.4,0,0.8,0.4,0.8,0.8c0,0.5-0.4,0.8-0.8,0.8H416.1z"/>
		<path class="st5" d="M403.8,323v15.2c0,0.8,0.6,1.4,1.3,1.4H438c0.7,0,1.3-0.6,1.3-1.4v-13.1c0-0.8-0.6-1.4-1.3-1.4h-31.7
			C405.1,323.7,404.5,323.6,403.8,323z"/>
		<path class="st6" d="M415.4,333.4h-1.6v1.9h-2.4v-8h3.8c1.7,0,2.6,1,2.6,3c0,1.1-0.2,1.9-0.7,2.4c-0.2,0.2-0.4,0.4-0.7,0.5
			C416.2,333.3,415.8,333.4,415.4,333.4z M413.8,329.4v2h0.6c0.3,0,0.5,0,0.6-0.1c0.1-0.1,0.2-0.2,0.2-0.4v-0.9
			c0-0.2-0.1-0.4-0.2-0.4c-0.1-0.1-0.3-0.1-0.6-0.1H413.8z M418.8,335.3v-8h3.4c1.4,0,2.3,0.3,2.8,0.9c0.5,0.6,0.8,1.6,0.8,3.1
			c0,1.4-0.3,2.5-0.8,3.1c-0.5,0.6-1.4,0.9-2.8,0.9H418.8z M422.2,329.4h-1v3.9h1c0.3,0,0.6,0,0.7-0.1c0.1-0.1,0.2-0.3,0.2-0.6V330
			c0-0.3-0.1-0.5-0.2-0.6C422.8,329.4,422.5,329.4,422.2,329.4z M431.3,332.4h-2.1v3h-2.4v-8h5l-0.3,2.1h-2.2v1.1h2.1V332.4
			L431.3,332.4z"/>
	</g>
</g>
<g>
	<circle class="st0" cx="72.5" cy="58.6" r="42.5"/>
	<g>
		<path class="st2" d="M60.5,30.2h20.9l13.3,15.2v35.3c0,3.5-2.7,6.4-6,6.4H60.5c-3.3,0-6-2.9-6-6.4V36.6
			C54.4,33.1,57.1,30.2,60.5,30.2z"/>
		<path class="st2" d="M86.2,45L86.2,45l8.4,6.2v-5.8h-5.7C87.9,45.4,87,45.2,86.2,45L86.2,45z"/>
		<path class="st10" d="M81.4,30.2l13.3,15.2v0h-5.7c-4.7-0.1-7.3-2.6-7.5-6.8V30.2z"/>
		<path class="st1" d="M50.4,78.2V58.4l0-0.1c0.1-1.8,1.5-3.3,3.2-3.3h0.8v5.6h36c1.4,0,2.5,1.2,2.5,2.6v15.1c0,1.4-1.1,2.6-2.5,2.6
			H52.9C51.5,80.8,50.4,79.7,50.4,78.2z"/>
		<path class="st0" d="M65.5,56.9c-0.5,0-0.9-0.4-0.9-0.9c0,0,0,0,0,0c0-0.5,0.4-0.9,0.9-0.9c0,0,0,0,0,0h17.1
			c0.5,0,0.9,0.4,0.9,0.9c0,0,0,0,0,0c0,0.5-0.4,0.9-0.9,0.9c0,0,0,0,0,0H65.5z M65.5,50.3c-0.5,0-0.9-0.4-0.9-0.9
			c0-0.5,0.4-0.9,0.9-0.9h18.1c0.5,0,0.9,0.4,0.9,0.9c0,0.5-0.4,0.9-0.9,0.9H65.5z"/>
		<path class="st5" d="M51.6,60.9v17.2c0,0.9,0.7,1.6,1.5,1.6h37.3c0.8,0,1.5-0.7,1.5-1.6V63.3c0-0.9-0.7-1.6-1.5-1.6h-36
			C53.1,61.7,52.3,61.5,51.6,60.9z"/>
		<path class="st6" d="M67.1,68.1h-2v6.8h-2.8v-6.8h-2v-2.3h6.7V68.1L67.1,68.1z M70.8,65.8l0.9,2.4h0.1l0.9-2.4h3l-1.9,4.4l1.9,4.7
			h-3.1l-1-2.6h-0.1l-1,2.6h-2.9l1.9-4.6l-1.9-4.5L70.8,65.8L70.8,65.8z M83.1,68.1h-2v6.8h-2.8v-6.8h-2v-2.3h6.7V68.1L83.1,68.1z"
			/>
	</g>
</g>
<g>
	<circle class="st0" cx="426" cy="52.6" r="35"/>
	<path class="st11" d="M442.1,49.2c0.9-2.6,0.6-5.4-0.8-7.7c-2-3.6-6.2-5.4-10.2-4.5c-1.8-2-4.4-3.2-7.1-3.1c-4.1,0-7.8,2.6-9,6.6
		c-2.6,0.5-4.9,2.2-6.3,4.5c-2.1,3.6-1.6,8,1.2,11.1c-0.9,2.6-0.6,5.4,0.8,7.7c2,3.6,6.2,5.4,10.2,4.5c1.8,2,4.4,3.2,7.1,3.1
		c4.1,0,7.8-2.6,9-6.6c2.6-0.5,4.9-2.2,6.3-4.5C445.4,56.7,444.9,52.3,442.1,49.2L442.1,49.2z M428,68.9c-1.6,0-3.2-0.6-4.5-1.6
		c0.1,0,0.2-0.1,0.2-0.1l7.5-4.3c0.4-0.2,0.6-0.6,0.6-1.1V51.3l3.2,1.8c0,0,0.1,0,0.1,0.1v8.7C435,65.8,431.9,68.9,428,68.9
		L428,68.9z M412.9,62.5c-0.8-1.4-1.1-3.1-0.8-4.7c0.1,0,0.2,0.1,0.2,0.1l7.5,4.3c0.4,0.2,0.8,0.2,1.2,0l9.1-5.3v3.7
		c0,0,0,0.1,0,0.1l-7.6,4.4C419.1,67,414.8,65.8,412.9,62.5L412.9,62.5z M410.9,46.2c0.8-1.4,2.1-2.5,3.7-3.1c0,0.1,0,0.2,0,0.3V52
		c0,0.4,0.2,0.8,0.6,1.1l9.1,5.3l-3.2,1.8c0,0-0.1,0-0.1,0l-7.6-4.4C410.1,53.8,409,49.5,410.9,46.2L410.9,46.2z M436.9,52.2
		l-9.1-5.3l3.2-1.8c0,0,0.1,0,0.1,0l7.6,4.4c3.4,1.9,4.5,6.3,2.6,9.6c-0.8,1.4-2.1,2.5-3.7,3.1v-8.9
		C437.5,52.8,437.3,52.4,436.9,52.2L436.9,52.2z M440,47.5c-0.1,0-0.2-0.1-0.2-0.1l-7.5-4.3c-0.4-0.2-0.8-0.2-1.2,0l-9.1,5.3v-3.7
		c0,0,0-0.1,0-0.1l7.6-4.4c3.4-1.9,7.7-0.8,9.6,2.6C440,44.2,440.3,45.8,440,47.5L440,47.5z M420.3,54l-3.2-1.8c0,0-0.1,0-0.1-0.1
		v-8.7c0-3.9,3.2-7,7-7c1.6,0,3.2,0.6,4.5,1.6c-0.1,0-0.2,0.1-0.2,0.1l-7.5,4.3c-0.4,0.2-0.6,0.6-0.6,1.1L420.3,54L420.3,54z
		 M422,50.3l4.1-2.3l4.1,2.3V55l-4.1,2.3L422,55V50.3z"/>
</g>
<g>
	<path class="st0" d="M132.5,101.4l0.6-0.8c0.3-0.4,1-0.5,1.4-0.2l7.5,5.5c0.4,0.3,0.5,1,0.2,1.4l-0.6,0.8c-0.3,0.4-1,0.5-1.4,0.2
		l-7.5-5.5C132.2,102.5,132.1,101.9,132.5,101.4z"/>
	<circle class="st0" cx="123" cy="93.9" r="10"/>
	<circle class="st1" cx="123" cy="93.9" r="6"/>
	<g>
		<path class="st0" d="M145,110.7l0.6-0.8c0.3-0.4,1-0.5,1.4-0.2l7.5,5.5c0.4,0.3,0.5,1,0.2,1.4l-0.6,0.8c-0.3,0.4-1,0.5-1.4,0.2
			l-7.5-5.5C144.7,111.7,144.6,111.1,145,110.7z"/>
		<path class="st0" d="M152.7,117.2l-0.4-0.9c-0.2-0.5,0-1.1,0.5-1.3l8.4-3.9c0.5-0.2,1.1,0,1.3,0.5l0.4,0.9c0.2,0.5,0,1.1-0.5,1.3
			l-8.4,3.9C153.5,117.9,152.9,117.7,152.7,117.2z"/>
	</g>
	<g>
		<path class="st0" d="M179.7,114.7l-0.9,0.4c-0.5,0.2-1.1,0-1.3-0.5l-3.9-8.4c-0.2-0.5,0-1.1,0.5-1.3l0.9-0.4
			c0.5-0.2,1.1,0,1.3,0.5l3.9,8.4C180.4,113.9,180.2,114.5,179.7,114.7z"/>
		<path class="st0" d="M176.1,105.1l0.4,0.9c0.2,0.5,0,1.1-0.5,1.3l-8.4,3.9c-0.5,0.2-1.1,0-1.3-0.5l-0.4-0.9
			c-0.2-0.5,0-1.1,0.5-1.3l8.4-3.9C175.3,104.4,175.9,104.6,176.1,105.1z"/>
	</g>
	<path class="st0" d="M180.3,118.4l0.9-0.4c0.5-0.2,1.1,0,1.3,0.5l1.3,2.8c0.2,0.5,0,1.1-0.5,1.3l-0.9,0.4c-0.5,0.2-1.1,0-1.3-0.5
		l-1.3-2.8C179.6,119.2,179.8,118.6,180.3,118.4z"/>
</g>
<g>
	<circle class="st0" cx="244.1" cy="27.4" r="21.5"/>
	<g>
		<path class="st1" d="M235.3,28.6c-0.5,0-0.9-0.4-0.9-0.9s0.4-0.9,0.9-0.9H253c0.5,0,0.9,0.4,0.9,0.9s-0.4,0.9-0.9,0.9H235.3z"/>
		<path class="st1" d="M235.3,22.6c-0.5,0-0.9-0.4-0.9-0.9s0.4-0.9,0.9-0.9H253c0.5,0,0.9,0.4,0.9,0.9s-0.4,0.9-0.9,0.9H235.3z"/>
		<path class="st1" d="M235.3,33.9c-0.5,0-0.9-0.4-0.9-0.9c0-0.5,0.4-0.9,0.9-0.9H253c0.5,0,0.9,0.4,0.9,0.9c0,0.5-0.4,0.9-0.9,0.9
			H235.3z"/>
	</g>
</g>
<g>
	<path class="st0" d="M313.7,128.2l0.5,0.9c0.3,0.5,0.1,1.1-0.3,1.4l-2.7,1.6c-0.5,0.3-1.1,0.1-1.4-0.3l-0.5-0.9
		c-0.3-0.5-0.1-1.1,0.3-1.4l2.7-1.6C312.8,127.6,313.4,127.7,313.7,128.2z"/>
	<path class="st0" d="M367.3,81.5l0.4,0.9c0.2,0.5,0,1.1-0.5,1.3l-8.4,4c-0.5,0.2-1.1,0-1.3-0.5l-0.4-0.9c-0.2-0.5,0-1.1,0.5-1.3
		l8.4-4C366.5,80.8,367.1,81,367.3,81.5z"/>
	<circle class="st0" cx="378.4" cy="76.8" r="10"/>
	<circle class="st1" cx="378.4" cy="76.8" r="6"/>
	<g>
		<path class="st0" d="M353.3,88.2l0.4,0.9c0.2,0.5,0,1.1-0.5,1.3l-8.4,4c-0.5,0.2-1.1,0-1.3-0.5l-0.4-0.9c-0.2-0.5,0-1.1,0.5-1.3
			l8.4-4C352.4,87.4,353,87.7,353.3,88.2z"/>
		<path class="st0" d="M343.8,91.8l1,0.1c0.6,0,1,0.5,0.9,1.1l-0.6,9.3c0,0.6-0.5,1-1.1,0.9l-1-0.1c-0.6,0-1-0.5-0.9-1.1l0.6-9.3
			C342.8,92.2,343.2,91.8,343.8,91.8z"/>
	</g>
	<g>
		<path class="st0" d="M333.3,116.5l0.1-1c0-0.6,0.5-1,1.1-0.9l9.3,0.5c0.6,0,1,0.5,0.9,1.1l-0.1,1c0,0.6-0.5,1-1.1,0.9l-9.3-0.5
			C333.7,117.5,333.2,117,333.3,116.5z"/>
		<path class="st0" d="M343.5,117.8l-1-0.1c-0.6,0-1-0.5-0.9-1.1l0.5-9.3c0-0.6,0.5-1,1.1-0.9l1,0.1c0.6,0,1,0.5,0.9,1.1l-0.5,9.3
			C344.5,117.4,344,117.8,343.5,117.8z"/>
	</g>
	<g>
		<path class="st0" d="M319.1,125.8l1,0c0.6,0,1-0.5,1-1l-0.1-9.3c0-0.6-0.5-1-1-1l-1,0c-0.6,0-1,0.5-1,1l0.1,9.3
			C318.1,125.3,318.5,125.8,319.1,125.8z"/>
		<path class="st0" d="M318.2,115.5l0,1c0,0.6,0.5,1,1,1l9.3-0.1c0.6,0,1-0.5,1-1l0-1c0-0.6-0.5-1-1-1l-9.3,0.1
			C318.7,114.5,318.2,115,318.2,115.5z"/>
	</g>
	<path class="st0" d="M320,123.6l0.6,0.8c0.3,0.4,0.2,1.1-0.2,1.4l-2.5,1.9c-0.4,0.3-1.1,0.2-1.4-0.2l-0.6-0.8
		c-0.3-0.4-0.2-1.1,0.2-1.4l2.5-1.9C319.1,123.1,319.7,123.2,320,123.6z"/>
</g>
<g>
	<g>
		<path class="st0" d="M244.6,76.7h-1c-0.6,0-1,0.4-1,1V87c0,0.6,0.4,1,1,1h1c0.6,0,1-0.4,1-1v-9.3
			C245.6,77.1,245.2,76.7,244.6,76.7z"/>
		<circle class="st0" cx="244.1" cy="64.6" r="10"/>
		<circle class="st1" cx="244.1" cy="64.6" r="6"/>
	</g>
	<path class="st0" d="M244.6,100.1h-1c-0.6,0-1-0.4-1-1v-6.6c0-0.6,0.4-1,1-1h1c0.6,0,1,0.4,1,1v6.6
		C245.6,99.6,245.2,100.1,244.6,100.1z"/>
</g>
<circle class="st0" cx="242" cy="339.4" r="27.5"/>
<g>
	<path class="st0" d="M364.7,283l-0.5,0.8c-0.3,0.5-0.9,0.6-1.4,0.3l-7.8-5.1c-0.5-0.3-0.6-0.9-0.3-1.4l0.5-0.8
		c0.3-0.5,0.9-0.6,1.4-0.3l7.8,5.1C364.9,281.9,365,282.6,364.7,283z"/>
	<circle class="st0" cx="374.5" cy="290" r="10"/>
	<circle class="st1" cx="374.5" cy="290" r="6"/>
	<g>
		<path class="st0" d="M351.7,274.6l-0.5,0.8c-0.3,0.5-0.9,0.6-1.4,0.3l-7.8-5.1c-0.5-0.3-0.6-0.9-0.3-1.4l0.5-0.8
			c0.3-0.5,0.9-0.6,1.4-0.3l7.8,5.1C351.8,273.5,352,274.1,351.7,274.6z"/>
		<path class="st0" d="M343.5,268.4l0.5,0.9c0.3,0.5,0.1,1.1-0.4,1.4l-8.2,4.4c-0.5,0.3-1.1,0.1-1.4-0.4l-0.5-0.9
			c-0.3-0.5-0.1-1.1,0.4-1.4l8.2-4.4C342.7,267.8,343.3,268,343.5,268.4z"/>
	</g>
	<g>
		<path class="st0" d="M316.8,272.5l0.9-0.5c0.5-0.3,1.1-0.1,1.4,0.4l4.4,8.2c0.3,0.5,0.1,1.1-0.4,1.4l-0.9,0.5
			c-0.5,0.3-1.1,0.1-1.4-0.4l-4.4-8.2C316.1,273.4,316.3,272.8,316.8,272.5z"/>
		<path class="st0" d="M320.9,281.9l-0.5-0.9c-0.3-0.5-0.1-1.1,0.4-1.4l8.2-4.4c0.5-0.3,1.1-0.1,1.4,0.4l0.5,0.9
			c0.3,0.5,0.1,1.1-0.4,1.4l-8.2,4.4C321.8,282.6,321.2,282.4,320.9,281.9z"/>
	</g>
	<g>
		<path class="st0" d="M301.7,265.2l0.5,0.8c0.3,0.5,0.9,0.6,1.4,0.3l7.9-4.9c0.5-0.3,0.6-0.9,0.3-1.4l-0.5-0.8
			c-0.3-0.5-0.9-0.6-1.4-0.3l-7.9,4.9C301.6,264.2,301.4,264.8,301.7,265.2z"/>
		<path class="st0" d="M310,259.1l-0.8,0.5c-0.5,0.3-0.6,0.9-0.3,1.4l4.9,7.9c0.3,0.5,0.9,0.6,1.4,0.3l0.8-0.5
			c0.5-0.3,0.6-0.9,0.3-1.4l-4.9-7.9C311,259,310.4,258.8,310,259.1z"/>
	</g>
	<path class="st0" d="M300.7,261.3l0.9-0.5c0.5-0.3,1.1-0.1,1.4,0.4l1.6,2.7c0.3,0.5,0.1,1.1-0.4,1.4l-0.9,0.5
		c-0.5,0.3-1.1,0.1-1.4-0.4l-1.6-2.7C300,262.1,300.2,261.5,300.7,261.3z"/>
	<path class="st0" d="M296.9,254.7l0.9-0.5c0.5-0.3,1.1-0.1,1.4,0.4l1.6,2.7c0.3,0.5,0.1,1.1-0.4,1.4l-0.9,0.5
		c-0.5,0.3-1.1,0.1-1.4-0.4l-1.6-2.7C296.2,255.5,296.4,254.9,296.9,254.7z"/>
</g>
<g>
	<path class="st0" d="M373.5,194.9h-1c-0.6,0-1-0.4-1-1v-9.3c0-0.6,0.4-1,1-1h1c0.6,0,1,0.4,1,1v9.3
		C374.5,194.5,374.1,194.9,373.5,194.9z"/>
	<g>
		<circle class="st0" cx="393.9" cy="203.1" r="10"/>
		<circle class="st1" cx="393.9" cy="203.1" r="6"/>
	</g>
	<g>
		<path class="st0" d="M374.4,184.8l-0.6,0.8c-0.3,0.4-1,0.5-1.4,0.2l-7.5-5.5c-0.4-0.3-0.5-1-0.2-1.4l0.6-0.8
			c0.3-0.4,1-0.5,1.4-0.2l7.5,5.5C374.6,183.7,374.7,184.3,374.4,184.8z"/>
		<path class="st0" d="M366.6,178.2l0.4,0.9c0.2,0.5,0,1.1-0.5,1.3l-8.4,3.9c-0.5,0.2-1.1,0-1.3-0.5l-0.4-0.9
			c-0.2-0.5,0-1.1,0.5-1.3l8.4-3.9C365.8,177.5,366.4,177.7,366.6,178.2z"/>
	</g>
	<g>
		<path class="st0" d="M339.6,180.7l0.9-0.4c0.5-0.2,1.1,0,1.3,0.5l3.9,8.4c0.2,0.5,0,1.1-0.5,1.3l-0.9,0.4c-0.5,0.2-1.1,0-1.3-0.5
			l-3.9-8.4C338.9,181.5,339.1,180.9,339.6,180.7z"/>
		<path class="st0" d="M343.2,190.3l-0.4-0.9c-0.2-0.5,0-1.1,0.5-1.3l8.4-3.9c0.5-0.2,1.1,0,1.3,0.5l0.4,0.9c0.2,0.5,0,1.1-0.5,1.3
			l-8.4,3.9C344.1,191,343.5,190.8,343.2,190.3z"/>
	</g>
	<path class="st0" d="M330.6,180.9v1c0,0.6,0.4,1,1,1h9.3c0.6,0,1-0.4,1-1v-1c0-0.6-0.4-1-1-1h-9.3
		C331,179.9,330.6,180.4,330.6,180.9z"/>
	<g>
		<path class="st0" d="M373.5,198h-1c-0.6,0-1,0.4-1,1v3.7c0,0.6,0.4,1,1,1h1c0.6,0,1-0.4,1-1V199C374.5,198.4,374.1,198,373.5,198z
			"/>
		<path class="st0" d="M371.5,202.6v1c0,0.6,0.4,1,1,1h5.5c0.6,0,1-0.4,1-1v-1c0-0.6-0.4-1-1-1h-5.5
			C371.9,201.6,371.5,202,371.5,202.6z"/>
	</g>
</g>
<g>
	<path class="st0" d="M127.7,299.4l0.9,0.4c0.5,0.2,1.1,0,1.3-0.5l3.8-8.5c0.2-0.5,0-1.1-0.5-1.3l-0.9-0.4c-0.5-0.2-1.1,0-1.3,0.5
		l-3.8,8.5C127,298.6,127.2,299.2,127.7,299.4z"/>
	<g>
		<circle class="st0" cx="106" cy="305.2" r="10"/>
		<circle class="st1" cx="106" cy="305.2" r="6"/>
	</g>
	<g>
		<path class="st0" d="M134,285.2l0.9,0.4c0.5,0.2,1.1,0,1.3-0.5l3.8-8.5c0.2-0.5,0-1.1-0.5-1.3l-0.9-0.4c-0.5-0.2-1.1,0-1.3,0.5
			l-3.8,8.5C133.3,284.4,133.5,285,134,285.2z"/>
		<path class="st0" d="M137.4,275.6l0.1,1c0,0.6,0.5,1,1.1,0.9l9.3-0.8c0.6,0,1-0.5,0.9-1.1l-0.1-1c0-0.6-0.5-1-1.1-0.9l-9.3,0.8
			C137.8,274.6,137.4,275.1,137.4,275.6z"/>
	</g>
	<g>
		<path class="st0" d="M162.1,264.4l-1,0.1c-0.6,0-1,0.5-0.9,1.1l0.8,9.3c0,0.6,0.5,1,1.1,0.9l1-0.1c0.6,0,1-0.5,0.9-1.1l-0.8-9.3
			C163.1,264.8,162.7,264.3,162.1,264.4z"/>
		<path class="st0" d="M163.8,274.5l-0.1-1c0-0.6-0.5-1-1.1-0.9l-9.3,0.8c-0.6,0-1,0.5-0.9,1.1l0.1,1c0,0.6,0.5,1,1.1,0.9l9.3-0.8
			C163.4,275.6,163.8,275.1,163.8,274.5z"/>
	</g>
	<g>
		<path class="st0" d="M170.7,250.1l0,1c0,0.6-0.4,1-1,1l-9.3,0.2c-0.6,0-1-0.4-1-1l0-1c0-0.6,0.4-1,1-1l9.3-0.2
			C170.2,249.1,170.7,249.5,170.7,250.1z"/>
		<path class="st0" d="M160.5,249.5l1,0c0.6,0,1,0.4,1,1l0.2,9.3c0,0.6-0.4,1-1,1l-1,0c-0.6,0-1-0.4-1-1l-0.2-9.3
			C159.5,249.9,159.9,249.5,160.5,249.5z"/>
	</g>
	<path class="st0" d="M169,250.9l0.6,0.8c0.4,0.4,1,0.5,1.4,0.1l6.5-5.5c0.4-0.4,0.5-1,0.1-1.4l-0.6-0.8c-0.4-0.4-1-0.5-1.4-0.1
		l-6.5,5.5C168.7,249.9,168.7,250.5,169,250.9z"/>
	<path class="st0" d="M120.2,300.6l0.3,1c0.2,0.5,0.7,0.8,1.2,0.7l7.5-2.1c0.5-0.2,0.8-0.7,0.7-1.2l-0.3-1c-0.2-0.5-0.7-0.8-1.2-0.7
		l-7.5,2.1C120.3,299.6,120,300.1,120.2,300.6z"/>
</g>
<g>
	<path class="st0" d="M118.6,198l0-1c0-0.6,0.4-1,1-1l9.3,0c0.6,0,1,0.4,1,1l0,1c0,0.6-0.4,1-1,1l-9.3,0
		C119.1,199,118.6,198.5,118.6,198z"/>
	<circle class="st0" cx="106.6" cy="197.5" r="10"/>
	<circle class="st1" cx="106.6" cy="197.5" r="6"/>
	<g>
		<path class="st0" d="M134.2,198l0-1c0-0.6,0.4-1,1-1l9.3,0c0.6,0,1,0.4,1,1l0,1c0,0.6-0.4,1-1,1l-9.3,0
			C134.6,199,134.2,198.5,134.2,198z"/>
		<path class="st0" d="M144.3,198.7l-0.9-0.5c-0.5-0.3-0.7-0.9-0.4-1.4l4.5-8.1c0.3-0.5,0.9-0.7,1.4-0.4l0.9,0.5
			c0.5,0.3,0.7,0.9,0.4,1.4l-4.5,8.1C145.4,198.7,144.8,198.9,144.3,198.7z"/>
	</g>
	<path class="st0" d="M147.8,190v-1c0-0.6,0.4-1,1-1h3.1c0.6,0,1,0.4,1,1v1c0,0.6-0.4,1-1,1h-3.1C148.3,191,147.8,190.6,147.8,190z"
		/>
	<path class="st0" d="M155.2,190v-1c0-0.6,0.4-1,1-1h1.4c0.6,0,1,0.4,1,1v1c0,0.6-0.4,1-1,1h-1.4C155.7,191,155.2,190.6,155.2,190z"
		/>
</g>
<g transform="translate(1.4065934065934016 1.4065934065934016) scale(2.81 2.81)">
	<path class="st1" d="M91.5,119.2h-0.9c-0.2,0-0.5-0.1-0.5-0.4l-0.3-0.7c-0.1-0.2,0-0.5,0.1-0.6l0.7-0.7c0.1-0.1,0.1-0.3,0-0.4
		l-1.1-1.1c-0.1-0.1-0.3-0.1-0.4,0l-0.7,0.7c-0.2,0.2-0.4,0.2-0.6,0.1l-0.7-0.3c-0.2-0.1-0.4-0.3-0.4-0.5v-0.9
		c0-0.2-0.1-0.3-0.3-0.3h-1.6c-0.2,0-0.3,0.1-0.3,0.3v0.9c0,0.2-0.1,0.5-0.4,0.5l-0.7,0.3c-0.2,0.1-0.5,0-0.6-0.1l-0.7-0.7
		c-0.1-0.1-0.3-0.1-0.4,0l-1.1,1.1c-0.1,0.1-0.1,0.3,0,0.4l0.7,0.7c0.2,0.2,0.2,0.4,0.1,0.6l-0.3,0.7c-0.1,0.2-0.3,0.4-0.5,0.4h-0.9
		c-0.2,0-0.3,0.1-0.3,0.3v1.6c0,0.2,0.1,0.3,0.3,0.3h0.9c0.2,0,0.5,0.1,0.5,0.4l0.3,0.7c0.1,0.2,0,0.5-0.1,0.6l-0.7,0.7
		c-0.1,0.1-0.1,0.3,0,0.4l1.1,1.1c0.1,0.1,0.3,0.1,0.4,0l0.7-0.7c0.2-0.2,0.4-0.2,0.6-0.1l0.7,0.3c0.2,0.1,0.4,0.3,0.4,0.5v0.9
		c0,0.2,0.1,0.3,0.3,0.3h1.6c0.2,0,0.3-0.1,0.3-0.3v-0.9c0-0.2,0.1-0.5,0.4-0.5l0.7-0.3c0.2-0.1,0.5,0,0.6,0.1l0.7,0.7
		c0.1,0.1,0.3,0.1,0.4,0l1.1-1.1c0.1-0.1,0.1-0.3,0-0.4l-0.7-0.7c-0.2-0.2-0.2-0.4-0.1-0.6l0.3-0.7c0.1-0.2,0.3-0.4,0.5-0.4h0.9
		c0.2,0,0.3-0.1,0.3-0.3v-1.6C91.8,119.3,91.7,119.2,91.5,119.2z M85.6,123.3c-1.7,0-3-1.4-3-3s1.4-3,3-3s3,1.4,3,3
		S87.3,123.3,85.6,123.3z"/>
	<path class="st1" d="M85.6,118c1.2,0,2.3,1,2.3,2.3c0,1.2-1,2.3-2.3,2.3c-1.2,0-2.3-1-2.3-2.3C83.3,119,84.4,118,85.6,118
		 M85.6,117c-1.8,0-3.3,1.5-3.3,3.3c0,1.8,1.5,3.3,3.3,3.3s3.3-1.5,3.3-3.3C88.9,118.5,87.4,117,85.6,117L85.6,117z"/>
</g>
</svg>
