<?xml version="1.0" encoding="utf-8"?>
<!-- Generator: Adobe Illustrator 28.4.1, SVG Export Plug-In . SVG Version: 6.00 Build 0)  -->
<svg version="1.1" id="Layer_1" xmlns="http://www.w3.org/2000/svg" xmlns:xlink="http://www.w3.org/1999/xlink" x="0px" y="0px"
	 viewBox="0 0 490 375" style="enable-background:new 0 0 490 375;" xml:space="preserve">
<style type="text/css">
	.st0{fill:#EAE6FE;}
	.st1{fill:#3EA9F5;}
	.st2{fill-rule:evenodd;clip-rule:evenodd;fill:#3EA9F5;}
	.st3{fill-rule:evenodd;clip-rule:evenodd;fill:#D9F0FF;}
	.st4{fill:#D9F0FF;}
	.st5{fill:#FFFFFF;}
	.st6{fill:#1A1A1A;}
	.st7{fill-rule:evenodd;clip-rule:evenodd;fill:#FBCFD0;}
	.st8{font-family:'Montserrat-SemiBold';}
	.st9{font-size:10.0302px;}
	.st10{font-family:'ArialMTBlack-Regular';}
	.st11{font-size:8.2789px;}
</style>
<ellipse class="st0" cx="244.7" cy="185.3" rx="118" ry="120"/>
<path class="st1" d="M231,110.4c5.2,0,8.2,5.3,8.2,10.6v32.5h-6.6c-2.2-5.5-7.5-9.4-13.7-9.4c-8.1,0-14.7,6.7-14.7,15
	s6.6,15,14.7,15c6.2,0,11.5-3.9,13.7-9.4h6.6v81.7c0,4.5-1.9,8.9-5.8,11c-3.3,1.7-7.2,2.9-11.5,2.9c-11.1,0-19.4-5.7-24.7-12.5
	c-3.9-5-6.5-10.8-7.5-16c-3-0.9-6.3-2.5-9.4-5.2c-5.2-4.6-9.3-11.9-9.3-22.8c0-5.7,0.4-10.6,1.4-14.7h31c5,0,9.1,3.7,9.8,8.6
	c-5.3,2.3-9.1,7.6-9.1,13.9c0,8.3,6.6,15,14.7,15c8.1,0,14.7-6.7,14.7-15c0-6.3-3.8-11.7-9.3-13.9c-0.8-11.1-9.9-19.8-21-19.8h-24.6
	c1-0.8,2-1.5,3.2-2c0.2-0.1,0.3-0.2,0.5-0.2c-0.8-2.8-1.2-5.6-1.3-8.4c-0.2-5.5,0.6-11.2,2.2-16.4c1.6-5,4.1-9.9,7.7-13.3
	c2.2-2.1,5-3.7,8.1-4.3c1.5-6.3,5.2-11.5,10-15.3C215,113.1,223,110.4,231,110.4z M250.2,222.8h12.2c11.6,0,21-9.6,21-21.4v-13.5
	c5.4-2.2,9.2-7.6,9.2-13.9c0-8.3-6.6-15-14.7-15s-14.7,6.7-14.7,15c0,6.3,3.8,11.7,9.2,13.9v13.5c0,5.6-4.5,10.1-10,10.1h-12.2
	v-52.4c0,0,0,0,0-0.1c0,0,0,0,0-0.1v-38.1c0-5.3,3-10.6,8.2-10.6c8,0,16,2.7,22.1,7.5c4.8,3.8,8.5,9,10,15.3
	c3.1,0.5,5.9,2.1,8.1,4.3c3.5,3.4,6.1,8.3,7.7,13.3c1.6,5.1,2.4,10.8,2.2,16.4c-0.1,2.8-0.5,5.7-1.3,8.4c0.2,0.1,0.3,0.1,0.5,0.2
	c2.7,1.3,4.9,3.4,6.6,6.1c3.1,5.1,4.2,12.5,4.2,22c0,10.8-4.1,18.2-9.3,22.8c-3,2.7-6.4,4.3-9.4,5.2c-1,5.2-3.6,11-7.5,16
	c-5.3,6.8-13.6,12.5-24.7,12.5c-4.3,0-8.1-1.2-11.5-2.9c-3.9-2-5.8-6.5-5.8-11v-23.5L250.2,222.8L250.2,222.8z M215.2,159.1
	c0-2.1,1.7-3.7,3.7-3.7s3.7,1.7,3.7,3.7c0,2.1-1.7,3.7-3.7,3.7S215.2,161.1,215.2,159.1z M218.9,207.8c-2,0-3.7,1.7-3.7,3.7
	s1.7,3.7,3.7,3.7s3.7-1.7,3.7-3.7S220.9,207.8,218.9,207.8z M274.2,174.1c0,2.1,1.7,3.7,3.7,3.7s3.7-1.7,3.7-3.7s-1.7-3.7-3.7-3.7
	C275.8,170.3,274.2,172,274.2,174.1z"/>
<g>
	<path class="st0" d="M244.7,330.9h-2.3c-0.6,0-1-0.4-1-1v-14.4c0-0.6,0.4-1,1-1h2.3c0.6,0,1,0.4,1,1v14.4
		C245.7,330.4,245.3,330.9,244.7,330.9z"/>
	<ellipse class="st0" cx="243.6" cy="348.4" rx="14.3" ry="14.5"/>
	<ellipse class="st1" cx="243.6" cy="348.4" rx="8.5" ry="8.7"/>
</g>
<g>
	<path class="st0" d="M244.7,43.1h-2.3c-0.6,0-1,0.4-1,1v14.4c0,0.6,0.4,1,1,1h2.3c0.6,0,1-0.4,1-1V44.1
		C245.7,43.5,245.3,43.1,244.7,43.1z"/>
	<ellipse class="st0" cx="243.6" cy="25.5" rx="14.3" ry="14.5"/>
	<ellipse class="st1" cx="243.6" cy="25.5" rx="8.5" ry="8.7"/>
</g>
<g>
	<path class="st0" d="M356.4,97l-1-1.1c-0.5-0.6-1.4-0.6-2-0.1l-9.8,9.1c-0.6,0.5-0.6,1.5-0.1,2.1l1,1.1c0.5,0.6,1.4,0.6,2,0.1
		l9.8-9.1C356.9,98.5,356.9,97.6,356.4,97z"/>
	<path class="st0" d="M378.3,95.3c5.8-5.4,6.2-14.6,0.8-20.5s-14.4-6.3-20.2-0.8c-5.8,5.4-6.2,14.6-0.8,20.5
		C363.4,100.4,372.5,100.7,378.3,95.3z"/>
	<path class="st1" d="M374.4,91c3.5-3.2,3.7-8.7,0.5-12.3c-3.2-3.5-8.6-3.7-12-0.5c-3.5,3.2-3.7,8.7-0.5,12.3
		C365.5,94,370.9,94.2,374.4,91z"/>
</g>
<g>
	<path class="st0" d="M129.1,274.7l-0.9-1.2c-0.5-0.6-0.4-1.5,0.3-2l10.5-8.3c0.6-0.5,1.5-0.4,2,0.3l0.9,1.2c0.5,0.6,0.4,1.5-0.3,2
		l-10.5,8.3C130.5,275.4,129.6,275.3,129.1,274.7z"/>
	<path class="st0" d="M123.7,296.3c-6.3,4.9-15.2,3.7-20.1-2.6c-4.8-6.4-3.7-15.5,2.6-20.4c6.3-4.9,15.2-3.7,20.1,2.6
		C131.1,282.3,130,291.4,123.7,296.3z"/>
	<path class="st1" d="M120.2,291.7c-3.7,2.9-9.1,2.2-12-1.6s-2.2-9.2,1.5-12.2c3.7-2.9,9.1-2.2,12,1.6S123.9,288.7,120.2,291.7z"/>
</g>
<g>
	<path class="st0" d="M391.2,186.5v-2.4c0-0.6-0.4-1-1-1h-14.1c-0.6,0-1,0.4-1,1v2.4c0,0.6,0.4,1,1,1h14.1
		C390.7,187.5,391.2,187.1,391.2,186.5z"/>
	<ellipse class="st0" cx="408.4" cy="185.3" rx="14.3" ry="14.5"/>
	<ellipse class="st1" cx="408.4" cy="185.3" rx="8.5" ry="8.7"/>
</g>
<g>
	<path class="st0" d="M98,187.5h14.1c0.6,0,1-0.4,1-1v-2.4c0-0.6-0.4-1-1-1H98c-0.6,0-1,0.4-1,1v2.4C97,187.1,97.5,187.5,98,187.5z"
		/>
	<ellipse class="st0" cx="79.8" cy="185.3" rx="14.3" ry="14.5"/>
	<ellipse class="st1" cx="79.8" cy="185.3" rx="8.5" ry="8.7"/>
</g>
<g>
	<path class="st0" d="M353.3,272.5l-0.9,1.1c-0.5,0.6-1.4,0.8-2,0.3l-10.5-8.3c-0.6-0.5-0.7-1.4-0.3-2l0.9-1.1
		c0.5-0.6,1.4-0.8,2-0.3l10.5,8.3C353.7,271,353.8,271.9,353.3,272.5z"/>
	<path class="st0" d="M375.3,272.3c6.2,4.9,7.4,14.1,2.5,20.4c-4.8,6.3-13.8,7.5-20.1,2.6c-6.2-4.9-7.4-14.1-2.5-20.4
		C360,268.6,369,267.4,375.3,272.3z"/>
	<path class="st1" d="M371.7,277c3.7,2.9,4.4,8.4,1.5,12.2c-2.9,3.8-8.2,4.5-12,1.5c-3.7-2.9-4.4-8.4-1.5-12.2S368,274,371.7,277z"
		/>
</g>
<g>
	<path class="st0" d="M128.7,97.9l0.9-1.1c0.5-0.6,1.4-0.8,2-0.3l10.5,8.3c0.6,0.5,0.7,1.4,0.3,2l-0.9,1.1c-0.5,0.6-1.4,0.8-2,0.3
		L129,99.9C128.4,99.4,128.3,98.5,128.7,97.9z"/>
	<path class="st0" d="M106.8,98c-6.2-4.9-7.4-14.1-2.5-20.4c4.8-6.3,13.8-7.5,20.1-2.6c6.2,4.9,7.4,14.1,2.5,20.4
		C122,101.8,113,103,106.8,98z"/>
	<path class="st1" d="M110.3,93.4c-3.7-2.9-4.4-8.4-1.5-12.2c2.9-3.8,8.2-4.5,12-1.5c3.7,2.9,4.4,8.4,1.5,12.2
		C119.4,95.6,114,96.3,110.3,93.4z"/>
</g>
<g>
	<circle class="st0" cx="64.6" cy="46" r="32.5"/>
	<g>
		<path class="st2" d="M55.4,24.3h16L81.5,36v27c0,2.7-2.1,4.9-4.6,4.9H55.4c-2.5,0-4.6-2.3-4.6-4.9V29.2
			C50.8,26.4,52.9,24.3,55.4,24.3z"/>
		<path class="st2" d="M75,35.6L75,35.6l6.4,4.7v-4.4h-4.3C76.4,35.9,75.7,35.8,75,35.6L75,35.6z"/>
		<path class="st3" d="M71.4,25l10.1,11.7l0,0h-4.3c-3.6-0.1-5.6-2-5.8-5.3C71.4,31.4,71.4,25,71.4,25z"/>
		<path class="st1" d="M47.7,61V45.8v-0.1c0.1-1.4,1.1-2.5,2.5-2.5h0.6v4.2h28.5c1,0,1.9,0.9,1.9,2V61c0,1-0.9,2-1.9,2H49.6
			C48.5,63.1,47.7,62,47.7,61z"/>
		<path class="st4" d="M59.3,44.7c-0.3,0-0.7-0.3-0.7-0.7l0,0c0-0.3,0.3-0.7,0.7-0.7l0,0h13.1c0.3,0,0.7,0.3,0.7,0.7l0,0
			c0,0.3-0.3,0.7-0.7,0.7l0,0H59.3z M59.3,39.7c-0.3,0-0.7-0.3-0.7-0.7c0-0.3,0.3-0.7,0.7-0.7H73c0.3,0,0.7,0.3,0.7,0.7
			c0,0.3-0.3,0.7-0.7,0.7H59.3z"/>
		<path class="st5" d="M48.6,47.7v13.2c0,0.6,0.5,1.2,1.1,1.2h29.4c0.6,0,1.1-0.5,1.1-1.2V49.7c0-0.6-0.5-1.2-1.1-1.2H50.8
			C49.7,48.4,49.1,48.3,48.6,47.7z"/>
		<path class="st6" d="M52,58.4v-6.9h2.9c1.1,0,2,0.3,2.4,0.8s0.6,1.4,0.6,2.7s-0.2,2.2-0.6,2.7c-0.4,0.5-1.2,0.8-2.4,0.8L52,58.4
			L52,58.4z M55,53.3h-0.9v3.4H55c0.3,0,0.5,0,0.6-0.1s0.2-0.3,0.2-0.4v-2.3c0-0.3-0.1-0.4-0.2-0.4C55.5,53.3,55.3,53.3,55,53.3z
			 M58.7,54.9c0-1.2,0.3-2.3,0.7-2.8c0.4-0.6,1.2-0.9,2.4-0.9c1.1,0,2,0.3,2.4,0.9c0.4,0.6,0.7,1.5,0.7,2.8c0,0.6-0.1,1.1-0.2,1.6
			s-0.3,0.8-0.4,1.1c-0.3,0.3-0.5,0.5-1,0.7c-0.4,0.2-0.9,0.3-1.5,0.3s-1-0.1-1.5-0.3c-0.4-0.2-0.7-0.3-1-0.7
			c-0.3-0.3-0.3-0.7-0.4-1.1C58.7,56.2,58.7,55.5,58.7,54.9z M60.9,53.8v2.9h0.9c0.3,0,0.5,0,0.6-0.1s0.2-0.3,0.2-0.4v-3h-0.9
			c-0.3,0-0.4,0-0.6,0.1C61,53.4,60.9,53.6,60.9,53.8L60.9,53.8z M70.1,56.5l0.2,1.9c-0.4,0.2-1,0.3-1.7,0.3c-0.6,0-1.1-0.1-1.6-0.3
			c-0.4-0.2-0.7-0.3-1-0.7c-0.3-0.3-0.3-0.7-0.4-1.1c-0.1-0.4-0.2-1-0.2-1.6s0.1-1.1,0.2-1.6c0.1-0.4,0.3-0.8,0.4-1.1
			c0.4-0.6,1.2-0.9,2.5-0.9c0.3,0,0.6,0,1,0.1c0.3,0.1,0.6,0.1,0.8,0.2L70,53.4c-0.4-0.1-0.9-0.2-1.2-0.2c-0.3,0-0.6,0-0.8,0.1
			s-0.2,0.3-0.2,0.4v2.9c0.3,0.1,0.5,0.1,0.8,0.1C69.1,56.8,69.7,56.7,70.1,56.5L70.1,56.5z M73,51.5l0.7,1.9h0.1l0.7-1.9h2.3
			l-1.4,3.4l1.4,3.6h-2.3l-0.8-2h-0.1l-0.8,2.1h-2.3l1.4-3.6l-1.4-3.5H73L73,51.5z"/>
	</g>
</g>
<g>
	<circle class="st0" cx="425.4" cy="331.5" r="32.5"/>
	<g>
		<path class="st2" d="M416.2,309.7h16l10.1,11.6v27c0,2.7-2.1,4.9-4.6,4.9h-21.5c-2.5,0-4.6-2.2-4.6-4.9v-33.7
			C411.6,311.9,413.7,309.7,416.2,309.7z"/>
		<path class="st2" d="M435.9,321.1L435.9,321.1l6.4,4.7v-4.4H438C437.2,321.3,436.5,321.2,435.9,321.1L435.9,321.1z"/>
		<path class="st7" d="M432.2,309.7l10.1,11.6l0,0H438c-3.6-0.1-5.5-2-5.8-5.2V309.7z"/>
		<path class="st1" d="M408.5,346.5v-15.2v-0.1c0.1-1.4,1.1-2.5,2.5-2.5h0.6v4.3h27.6c1,0,1.9,0.9,1.9,2v11.5c0,1.1-0.9,2-1.9,2
			h-28.8C409.4,348.5,408.5,347.6,408.5,346.5z"/>
		<path class="st0" d="M420.1,330.2c-0.3,0-0.7-0.3-0.7-0.7l0,0c0-0.4,0.3-0.7,0.7-0.7l0,0h13.1c0.3,0,0.7,0.3,0.7,0.7l0,0
			c0,0.4-0.3,0.7-0.7,0.7l0,0H420.1z M420.1,325.1c-0.3,0-0.7-0.3-0.7-0.7c0-0.4,0.3-0.7,0.7-0.7H434c0.3,0,0.7,0.3,0.7,0.7
			c0,0.4-0.3,0.7-0.7,0.7H420.1z"/>
		<path class="st5" d="M409.4,333.2v13.2c0,0.7,0.5,1.2,1.1,1.2H439c0.6,0,1.1-0.5,1.1-1.2V335c0-0.7-0.5-1.2-1.1-1.2h-27.5
			C410.5,333.8,410,333.7,409.4,333.2z"/>
		<path class="st6" d="M419.5,342.2h-1.4v1.6H416v-6.9h3.3c1.5,0,2.3,0.9,2.3,2.6c0,1-0.2,1.6-0.6,2.1c-0.2,0.2-0.3,0.3-0.6,0.4
			C420.2,342.1,419.8,342.2,419.5,342.2z M418.1,338.7v1.7h0.5c0.3,0,0.4,0,0.5-0.1s0.2-0.2,0.2-0.3v-0.8c0-0.2-0.1-0.3-0.2-0.3
			c-0.1-0.1-0.3-0.1-0.5-0.1L418.1,338.7L418.1,338.7z M422.4,343.9V337h2.9c1.2,0,2,0.3,2.4,0.8s0.7,1.4,0.7,2.7
			c0,1.2-0.3,2.2-0.7,2.7c-0.4,0.5-1.2,0.8-2.4,0.8h-2.9V343.9z M425.4,338.7h-0.9v3.4h0.9c0.3,0,0.5,0,0.6-0.1s0.2-0.3,0.2-0.5
			v-2.3c0-0.3-0.1-0.4-0.2-0.5C425.9,338.7,425.6,338.7,425.4,338.7z M433.2,341.3h-1.8v2.6h-2.1V337h4.3l-0.3,1.8h-1.9v1h1.8V341.3
			L433.2,341.3z"/>
	</g>
</g>
<g>
	<circle class="st0" cx="65" cy="330.6" r="32.5"/>
	<g>
		<g>
			<path class="st1" d="M85.1,337.6c0.8-2.2,1.2-4.5,1.2-7c0-2.4-0.4-4.8-1.2-7c0-0.1,0-0.1-0.1-0.2c-2.9-8.1-10.8-14-20-14
				s-17.1,5.9-20,14c0,0.1-0.1,0.1-0.1,0.2c-0.8,2.2-1.2,4.5-1.2,7c0,2.4,0.4,4.8,1.2,7c0,0.1,0,0.1,0.1,0.2c2.9,8.1,10.8,14,20,14
				s17.1-5.9,20-14C85,337.7,85,337.7,85.1,337.6L85.1,337.6z M65,348.7c-0.8,0-2.1-1.5-3.2-4.8c-0.5-1.6-1-3.4-1.2-5.4h8.9
				c-0.3,2-0.7,3.8-1.2,5.4C67.2,347.4,65.9,348.7,65,348.7L65,348.7z M65,312.4c0.8,0,2.1,1.5,3.2,4.8c0.5,1.6,1,3.4,1.2,5.4h-8.8
				c0.3-2,0.7-3.8,1.2-5.4C62.9,313.9,64.2,312.4,65,312.4L65,312.4z M81.3,322.5h-8.8c-0.5-3.7-1.5-7.1-2.8-9.4
				C74.8,314.4,79.1,317.9,81.3,322.5L81.3,322.5z M60.2,313c-1.3,2.3-2.3,5.7-2.8,9.4h-8.8C51.1,317.9,55.2,314.4,60.2,313
				L60.2,313z M48.7,338.7h8.8c0.5,3.7,1.5,7.1,2.8,9.4C55.2,346.8,51.1,343.3,48.7,338.7L48.7,338.7z M69.8,348.1
				c1.3-2.3,2.3-5.7,2.8-9.4h8.8C79.1,343.3,74.8,346.8,69.8,348.1L69.8,348.1z"/>
		</g>
		<g>
			<path class="st0" d="M79,336.5H51.1c-2.6,0-4.7-2.1-4.7-4.7v-2.4c0-2.6,2.1-4.7,4.7-4.7H79c2.6,0,4.7,2.1,4.7,4.7v2.4
				C83.6,334.4,81.6,336.5,79,336.5z"/>
			<text transform="matrix(1 0 0 1 51.3034 333.528)" class="st1 st8 st9">www</text>
		</g>
	</g>
</g>
<g>
	<circle class="st0" cx="425.4" cy="46" r="32.5"/>
	<g>
		<path class="st1" d="M439.3,66.2h-28.9c-1.4,0-2.5-1.1-2.5-2.5V28.3c0-1.4,1.1-2.5,2.5-2.5h28.9c1.4,0,2.5,1.1,2.5,2.5v35.4
			C441.8,65.1,440.7,66.2,439.3,66.2z"/>
		<text transform="matrix(1.2897 0 0 1 413.3379 38.3058)" class="st0 st10 st11">FAQ</text>
		<g>
			<path class="st0" d="M417.6,50.1c-0.4,0-0.7-0.3-0.7-0.6s0.3-0.6,0.7-0.6h15.3c0.4,0,0.7,0.3,0.7,0.6s-0.3,0.6-0.7,0.6H417.6z"/>
			<path class="st0" d="M417.6,45.4c-0.4,0-0.7-0.3-0.7-0.6s0.3-0.6,0.7-0.6h15.3c0.4,0,0.7,0.3,0.7,0.6s-0.3,0.6-0.7,0.6H417.6z"/>
			<path class="st0" d="M417.6,58.9c-0.4,0-0.7-0.3-0.7-0.6s0.3-0.6,0.7-0.6h15.3c0.4,0,0.7,0.3,0.7,0.6s-0.3,0.6-0.7,0.6H417.6z"/>
			<path class="st0" d="M417.6,54.2c-0.4,0-0.7-0.3-0.7-0.6s0.3-0.6,0.7-0.6h15.3c0.4,0,0.7,0.3,0.7,0.6s-0.3,0.6-0.7,0.6H417.6z"/>
		</g>
	</g>
</g>
</svg>
