<?xml version="1.0" encoding="utf-8"?>
<!-- Generator: Adobe Illustrator 22.1.0, SVG Export Plug-In . SVG Version: 6.00 Build 0)  -->
<svg version="1.1" id="Livello_1" xmlns="http://www.w3.org/2000/svg" xmlns:xlink="http://www.w3.org/1999/xlink" x="0px" y="0px"
	 viewBox="0 0 1200 1200" style="enable-background:new 0 0 1200 1200;" xml:space="preserve">
<style type="text/css">
	.st0{fill:none;}
	.st1{fill:#ffffff;stroke:#ffffff;}
	.st2{fill:#ffffff;stroke:#FFFFFF;}
	.st3{fill:#ffffff;}
</style>
<rect id="backgroundrect" y="0" class="st0" width="1200" height="1200"/>
<title>Layer 1</title>
<path class="st1" d="M1072.5,220.7V154l-18.4-1.2c-2.8-0.2-70.1-4.3-161.6,19.2c-44.1,11.3-98.5,30.5-154.8,63
	c0.6,5.7,0.9,11.5,0.9,17.4c0,10.1-0.9,20-2.6,29.6c59.7-38,118.4-59.5,164.9-71.5c58.6-15.2,107.2-18.3,132.3-18.7v617.6
	c-224.9,9.2-356.1,90.4-413.5,137.1V574l-39.3-25.5v398.1c-57.4-46.7-188.7-127.9-413.5-137.1V191.8c25.1,0.4,73.7,3.5,132.3,18.7
	c28.4,7.4,61.4,18.3,96.5,34.3c0.6-13.8,2.9-27.3,6.8-40c-34.3-15-66.7-25.5-94.9-32.7c-91.5-23.5-158.8-19.4-161.6-19.2l-18.4,1.2
	v66.7H50v790.1h494.8c0,20.3,16.4,36.7,36.7,36.7h36.9c20.3,0,36.7-16.4,36.7-36.7H1150V220.7H1072.5z M143.6,927.1l279.2,44.5H89.3
	V260.1h38.2v587.7l19.2,0.4c176.3,3.8,294.6,54.8,363.4,97.5l-360.4-57.4c-10.7-1.7-20.8,5.6-22.5,16.3
	C125.6,915.3,132.9,925.4,143.6,927.1z M777.1,971.5l279.2-44.5c10.7-1.7,18-11.8,16.3-22.5c-1.7-10.7-11.8-18.1-22.5-16.3
	l-360.3,57.4c68.8-42.7,187.1-93.6,363.4-97.5l19.2-0.4V260.1h38.2v711.5H777.1z"/>
<rect id="backgroundrect_1_" x="656" y="1263.7" class="st0" width="1200" height="1200"/>
<rect x="656" y="1263.7" class="st2" width="1200" height="1192.1"/>
<g>
	<title>Layer 1</title>
	<path id="svg_1_1_" class="st1" d="M1728.5,1484.4v-66.7l-18.4-1.2c-2.8-0.2-70.1-4.3-161.6,19.2
		c-80.3,20.6-194.5,67.3-292.5,172.4c-98-105.1-212.2-151.7-292.5-172.4c-91.5-23.5-158.8-19.4-161.6-19.2l-18.4,1.2v66.7H706v790.1
		h494.8c0,20.3,16.4,36.7,36.7,36.7h36.9c20.3,0,36.7-16.4,36.7-36.7H1806v-790.1H1728.5z M745.3,1523.8h38.2v587.7l19.2,0.4
		c176.3,3.8,294.6,54.8,363.4,97.5L805.8,2152c-10.7-1.7-20.8,5.6-22.5,16.3c-1.7,10.7,5.6,20.8,16.3,22.5l279.2,44.5H745.3V1523.8z
		 M1236.3,2210.2c-57.4-46.7-188.7-127.9-413.5-137.1v-617.6c25.1,0.4,73.7,3.5,132.3,18.7c77.2,20,188.1,65.9,281.2,170.7V2210.2z
		 M1275.7,1644.9c93.1-104.8,204-150.6,281.2-170.7c58.6-15.2,107.2-18.3,132.3-18.7v617.6c-224.9,9.2-356.1,90.4-413.5,137.1
		V1644.9z M1766.7,2235.2h-333.6l279.2-44.5c10.7-1.7,18-11.8,16.3-22.5c-1.7-10.7-11.8-18.1-22.5-16.3l-360.3,57.4
		c68.8-42.7,187.1-93.6,363.4-97.5l19.2-0.4v-587.7h38.2L1766.7,2235.2L1766.7,2235.2z"/>
</g>
<g>
	<path class="st3" d="M685.3,367.4l-68,11.1c-13.5,4.5-28,7.1-43.1,7.1v0.4c-91.5,3.9-164.4,77.9-164.4,168.8c0,2.5,0.3,4.9,0.4,7.4
		h-44.8c-0.1-2.5-0.4-4.9-0.4-7.4c0-87.2,53.3-162.1,129.5-195.2c-33.2-24.1-54.8-62.7-54.8-106.4c0-73.1,60.2-132.4,134.6-132.4
		s134.6,59.3,134.6,132.4c0,41.3-19.2,78.2-49.3,102.4C668.3,359,677,362.9,685.3,367.4L685.3,367.4z M484.5,253.2
		c0,48.8,40.2,88.2,89.7,88.2s89.7-39.5,89.7-88.2S623.7,165,574.2,165C524.6,165,484.5,204.5,484.5,253.2L484.5,253.2z"/>
	<path class="st3" d="M823.9,269.1c-10.7-6.1-24.4-2.5-30.6,8.1l-141,199.3l-60.4-39.2c-10.7-6.1-24.4-2.5-30.6,8.1
		c-6.2,10.5-2.5,24,8.2,30.1l76.5,49.7c10.7,6.1,24.4,2.5,30.6-8.1c0.2-0.4,0.4-0.9,0.6-1.3c2.6-1.8,4.9-4.1,6.6-7l148.2-209.5
		C838.3,288.7,834.6,275.2,823.9,269.1L823.9,269.1z"/>
</g>
</svg>
