<?xml version="1.0" encoding="utf-8"?>
<!-- Generator: Adobe Illustrator 22.1.0, SVG Export Plug-In . SVG Version: 6.00 Build 0)  -->
<svg version="1.1" id="Livello_1" xmlns="http://www.w3.org/2000/svg" xmlns:xlink="http://www.w3.org/1999/xlink" x="0px" y="0px"
	 viewBox="0 0 1200 1200" style="enable-background:new 0 0 1200 1200;" xml:space="preserve">
<style type="text/css">
	.st0{fill:#ffffff;stroke:#ffffff;}
	.st1{fill:none;}
	.st2{fill:#ffffff;stroke:#ffffff;}
	.st3{fill:#ffffff;}
</style>
<rect x="1517.1" y="426.7" class="st0" width="1200" height="1192.1"/>
<title>Layer 1</title>
<rect id="backgroundrect_1_" x="656" y="1263.7" class="st1" width="1200" height="1200"/>
<rect x="1232" y="1103.7" class="st0" width="1200" height="1192.1"/>
<title>Layer 1</title>
<g>
	<title>Layer 1</title>
	<path id="svg_1_2_" class="st2" d="M1371.3,1495.2v-66.7l-18.4-1.2c-2.8-0.2-70.1-4.3-161.6,19.2
		c-80.3,20.6-194.5,67.3-292.5,172.4c-98-105.1-212.2-151.7-292.5-172.4c-91.5-23.5-158.8-19.4-161.6-19.2l-18.4,1.2v66.7h-77.5
		v790.1h494.8c0,20.3,16.4,36.7,36.7,36.7h36.9c20.3,0,36.7-16.4,36.7-36.7h494.8v-790.1H1371.3z M388.1,1534.5h38.2v587.7l19.2,0.4
		c176.3,3.8,294.6,54.8,363.4,97.5l-360.4-57.4c-10.7-1.7-20.8,5.6-22.5,16.3c-1.7,10.7,5.6,20.8,16.3,22.5l279.2,44.5H388.1V1534.5
		z M879.2,2221c-57.4-46.7-188.7-127.9-413.5-137.1v-617.6c25.1,0.4,73.7,3.5,132.3,18.7c77.2,20,188.1,65.9,281.2,170.7V2221z
		 M918.5,1655.6c93.1-104.8,204-150.6,281.2-170.7c58.6-15.2,107.2-18.3,132.3-18.7v617.6c-224.9,9.2-356.1,90.4-413.5,137.1V1655.6
		z M1409.5,2246h-333.6l279.2-44.5c10.7-1.7,18-11.8,16.3-22.5c-1.7-10.7-11.8-18.1-22.5-16.3L988.6,2220
		c68.8-42.7,187.1-93.6,363.4-97.5l19.2-0.4v-587.7h38.2L1409.5,2246L1409.5,2246z"/>
</g>
<g>
	<rect id="backgroundrect" y="0" class="st1" width="1200" height="1200"/>
	<path class="st2" d="M1071,221.5v-66.7l-18.4-1.2c-2.8-0.2-70.1-4.3-161.6,19.2c-33.1,8.5-71.9,21.4-113,41
		c0.2,0.3,0.5,0.6,0.7,0.9l24.2,30.8c35-16,68-26.9,96.5-34.3c58.6-15.2,107.2-18.3,132.3-18.7v617.6
		c-224.9,9.2-356.1,90.4-413.5,137.1V542c-20.6-21.6-27.9-27.9-31.5-27.7c-1.5,0-4,1.3-7.8,4v429
		c-57.4-46.7-188.7-127.9-413.5-137.1V192.6c25.1,0.4,73.7,3.5,132.3,18.7c37.1,9.6,82.1,25.3,129.1,50.5c-0.6-1.2-1.3-2.5-2-3.8
		c-16.3-30.6-16.5-31-13-35.2c0.9-1,3.8-4.2,7.8-8.7c-41.3-19.8-80.3-32.8-113.6-41.3c-91.5-23.5-158.8-19.4-161.6-19.2l-18.4,1.2
		v66.7H48.6v790.1h494.8c0,20.3,16.4,36.7,36.7,36.7H617c20.3,0,36.7-16.4,36.7-36.7h494.8V221.5H1071z M142.2,927.9l279.2,44.5
		H87.9V260.9h38.2v587.7l19.2,0.4c176.3,3.8,294.6,54.8,363.4,97.5l-360.4-57.4c-10.7-1.7-20.8,5.6-22.5,16.3
		C124.2,916.1,131.5,926.2,142.2,927.9z M775.7,972.3l279.2-44.5c10.7-1.7,18-11.8,16.3-22.5c-1.7-10.7-11.8-18.1-22.5-16.3
		l-360.3,57.4c68.8-42.7,187.1-93.6,363.4-97.5l19.2-0.4V260.9h38.2v711.5H775.7z"/>
	<path class="st3" d="M554.3,168c-5.3,15-10.3,28.2-11,29.3c-0.9,1.4-9.6-1.4-28.6-9.1c-15-6.2-28.9-11.7-31-12.2
		c-3.1-0.7-7.7,3.6-26.9,24.6c-12.7,14.1-24.5,27.2-26.4,29.3c-3.1,3.8-2.9,4.1,11.7,31.7c10.7,20.3,14.5,29.1,13.8,32
		c-0.9,2.8-8.3,7.9-28.3,19.5c-14.8,8.6-28.4,16.5-30,17.7c-2.8,2.1-2.6,4.7,3.8,40.5c3.6,21,7.1,38.6,7.4,38.9
		c0.3,0.5,14.6,3.3,31.5,6.2c30.1,5.3,35.3,7.2,35.3,12.9c0,0.9-2.1,16.5-4.7,34.6l-4.8,33.1l34.1,18.3c18.8,10,35,18.3,35.8,18.3
		s11.9-9.3,24.5-20.7c16-14.5,24.1-20.7,27.2-20.7c3.3-0.2,9.8,5.5,28.4,25l24.1,25.1l35.3-15.8c19.5-8.6,35.8-16.2,36.3-16.9
		c0.7-0.5,0.2-15-1.2-32c-3.1-40.5-6.2-37,38.1-41.3l33.6-3.3l1.7-6c5.3-19.5,17.2-69.8,16.9-71.1c-0.3-1-12.2-9.6-26.4-19.1
		c-18.8-12.7-26-18.6-26.4-21.5c-0.3-2.6,5.5-13.6,17.7-33.1l18.4-29.1l-23.8-30.3c-12.9-16.7-24.3-30.7-25-31.2
		c-0.9-0.5-15,3.4-31.7,8.8c-22.9,7.4-30.8,9.3-33.2,7.9c-2.2-1.2-7.2-12.7-15.2-34.6l-11.9-32.7H604h-40L554.3,168z M617.7,257
		c33.6,7.1,60.6,35.3,66.8,69.9c4.5,25.1-3.8,53-21.2,71.5c-18.4,19.6-37.7,28.3-63.2,28.3c-39.8,0-71.6-23.4-83.2-60.8
		c-2.9-9.8-3.4-15-2.8-29.6c0.7-15.8,1.4-18.9,7.1-30.8C539.1,267.7,577.6,248.4,617.7,257z"/>
</g>
</svg>
