<?xml version="1.0" encoding="utf-8"?>
<!-- Generator: Adobe Illustrator 22.1.0, SVG Export Plug-In . SVG Version: 6.00 Build 0)  -->
<svg version="1.1" id="Livello_1" xmlns="http://www.w3.org/2000/svg" xmlns:xlink="http://www.w3.org/1999/xlink" x="0px" y="0px"
	 viewBox="0 0 500 500" style="enable-background:new 0 0 500 500;" xml:space="preserve">
<style type="text/css">
	.st0{clip-path:url(#SVGID_2_);}
	.st1{fill:none;stroke:#FFFFFF;stroke-width:0.7542;stroke-linecap:round;stroke-linejoin:round;stroke-miterlimit:10;}
</style>
<g>
	<defs>
		<rect id="SVGID_1_" x="2.3" y="1.6" width="500" height="500"/>
	</defs>
	<clipPath id="SVGID_2_">
		<use xlink:href="#SVGID_1_"  style="overflow:visible;"/>
	</clipPath>
	<g class="st0">
		<g>
			<line class="st1" x1="21.9" y1="-0.9" x2="21.9" y2="501.9"/>
			<line class="st1" x1="53.1" y1="-0.9" x2="53.1" y2="501.9"/>
			<line class="st1" x1="82.2" y1="-0.9" x2="82.2" y2="501.9"/>
			<line class="st1" x1="113.4" y1="-0.9" x2="113.4" y2="501.9"/>
			<line class="st1" x1="144.6" y1="-0.9" x2="144.6" y2="501.9"/>
			<line class="st1" x1="173.7" y1="-0.9" x2="173.7" y2="501.9"/>
			<line class="st1" x1="204.9" y1="-0.9" x2="204.9" y2="501.9"/>
			<line class="st1" x1="236.1" y1="-0.9" x2="236.1" y2="501.9"/>
			<line class="st1" x1="265.2" y1="-0.9" x2="265.2" y2="501.9"/>
			<line class="st1" x1="296.4" y1="-0.9" x2="296.4" y2="501.9"/>
			<line class="st1" x1="327.6" y1="-0.9" x2="327.6" y2="501.9"/>
			<line class="st1" x1="356.7" y1="-0.9" x2="356.7" y2="501.9"/>
			<line class="st1" x1="387.9" y1="-0.9" x2="387.9" y2="501.9"/>
			<line class="st1" x1="387.9" y1="-0.9" x2="387.9" y2="501.9"/>
			<line class="st1" x1="417.1" y1="-0.9" x2="417.1" y2="501.9"/>
			<line class="st1" x1="448.3" y1="-0.9" x2="448.3" y2="501.9"/>
			<line class="st1" x1="479.4" y1="-0.9" x2="479.4" y2="501.9"/>
		</g>
		<g>
			<line class="st1" x1="502.1" y1="21.7" x2="-0.8" y2="21.7"/>
			<line class="st1" x1="502.1" y1="52.9" x2="-0.8" y2="52.9"/>
			<line class="st1" x1="502.1" y1="82.1" x2="-0.8" y2="82.1"/>
			<line class="st1" x1="502.1" y1="113.2" x2="-0.8" y2="113.2"/>
			<line class="st1" x1="502.1" y1="144.4" x2="-0.8" y2="144.4"/>
			<line class="st1" x1="502.1" y1="173.6" x2="-0.8" y2="173.6"/>
			<line class="st1" x1="502.1" y1="204.7" x2="-0.8" y2="204.7"/>
			<line class="st1" x1="502.1" y1="235.9" x2="-0.8" y2="235.9"/>
			<line class="st1" x1="502.1" y1="265.1" x2="-0.8" y2="265.1"/>
			<line class="st1" x1="502.1" y1="296.3" x2="-0.8" y2="296.3"/>
			<line class="st1" x1="502.1" y1="327.4" x2="-0.8" y2="327.4"/>
			<line class="st1" x1="502.1" y1="356.6" x2="-0.8" y2="356.6"/>
			<line class="st1" x1="502.1" y1="387.8" x2="-0.8" y2="387.8"/>
			<line class="st1" x1="502.1" y1="387.8" x2="-0.8" y2="387.8"/>
			<line class="st1" x1="502.1" y1="416.9" x2="-0.8" y2="416.9"/>
			<line class="st1" x1="502.1" y1="448.1" x2="-0.8" y2="448.1"/>
			<line class="st1" x1="502.1" y1="479.3" x2="-0.8" y2="479.3"/>
		</g>
	</g>
</g>
</svg>
