<?xml version="1.0" encoding="utf-8"?>
<!-- Generator: Adobe Illustrator 22.1.0, SVG Export Plug-In . SVG Version: 6.00 Build 0)  -->
<svg version="1.1" id="Livello_1" xmlns="http://www.w3.org/2000/svg" xmlns:xlink="http://www.w3.org/1999/xlink" x="0px" y="0px"
	 viewBox="0 0 452.7 368.8" style="enable-background:new 0 0 452.7 368.8;" xml:space="preserve">
<style type="text/css">
	.st0{fill:none;stroke:#BCBBBB;stroke-width:8;stroke-miterlimit:10;}
	.st1{fill:#BCBBBB;stroke:#BCBBBB;stroke-miterlimit:10;}
</style>
<g>
	<path class="st0" d="M385.6,14.2H73.3c-27.5,0-59.1,24.4-59.1,47.9v189.3c0,21.7,26.8,37.3,52.5,39.7L50,354.6l107.2-63h228.5
		c27.5,0,52.8-16.7,52.8-40.2V98.3V62.1C438.5,38.6,413.1,14.2,385.6,14.2z"/>
	<g>
		<path class="st0" d="M226.3,256.7c14.5,0,26.2-11.7,26.2-26.2h-52.4C200.1,244.9,211.9,256.7,226.3,256.7z"/>
		<path class="st0" d="M249.9,71.6c-3.4-1.3-6.9-2.3-10.5-3.1V60c0-7.2-5.9-13.1-13.1-13.1c-7.2,0-13.1,5.9-13.1,13.1v8.5
			c-30.1,6.3-52.4,31.7-52.4,63.6c0,41.9-14.8,54.7-22.7,63.2c-2.5,2.6-3.5,5.8-3.5,8.9c0,6.7,5.3,13.1,13.1,13.1h157.2
			c7.8,0,13.1-6.4,13.1-13.1c0-3.1-1.1-6.3-3.5-8.9c-7.9-8.5-22.7-21.3-22.7-63.2"/>
	</g>
	<g>
		<circle class="st0" cx="275.6" cy="99" r="28.3"/>
		<g>
			<path class="st1" d="M284.1,108.1v4h-14.9v-4h5V94.9c0-0.3,0-0.7,0-1c0-0.3,0-0.7,0.1-1l-3,2.5c-0.3,0.2-0.5,0.3-0.8,0.4
				c-0.3,0-0.5,0-0.7,0s-0.4-0.1-0.6-0.2c-0.2-0.1-0.3-0.2-0.4-0.4l-1.8-2.3l8.2-6.9h4.6v22.2H284.1z"/>
		</g>
	</g>
</g>
</svg>
