<svg width="16" height="16" xmlns="http://www.w3.org/2000/svg" viewBox="0 0 16 16" aria-hidden="true" focusable="false" class="LRgi LRgj LRgk LRap"><g fill="none" fill-rule="evenodd"><path d="M0 0h16v16H0z"></path><path d="M4.854 10.146a.5.5 0 0 1 .057.638l-.057.07a.5.5 0 0 1-.638.057l-.07-.057-4-4-.037-.042-.042-.062-.03-.06-.02-.062-.012-.054-.003-.031L0 6.489c0-.02.002-.042.005-.063L0 6.5l.003-.053.014-.075.02-.063.052-.093.046-.057 4.011-4.013a.5.5 0 0 1 .765.638l-.057.07L1.707 6H8.5a7.5 7.5 0 0 1 7.5 7.5.5.5 0 1 1-1 0 6.5 6.5 0 0 0-6.267-6.496L8.5 7H1.707l3.147 3.146z" fill="#68737D"></path></g></svg>