<?xml version="1.0" encoding="utf-8"?>
<!-- Generator: Adobe Illustrator 22.1.0, SVG Export Plug-In . SVG Version: 6.00 Build 0)  -->
<svg version="1.1" id="Livello_1" xmlns="http://www.w3.org/2000/svg" xmlns:xlink="http://www.w3.org/1999/xlink" x="0px" y="0px"
	 viewBox="0 0 667.7 429.7" style="enable-background:new 0 0 667.7 429.7;" xml:space="preserve">
<style type="text/css">
	.st0{fill:#FFFFFF;}
	.st1{fill:#F7F7F8;}
	.st2{fill:url(#SVGID_1_);}
	.st3{fill:url(#SVGID_2_);}
	.st4{fill:url(#SVGID_3_);}
	.st5{fill:url(#SVGID_4_);}
	.st6{fill:#27251F;}
	.st7{fill:url(#SVGID_5_);}
	.st8{fill:url(#SVGID_6_);}
	.st9{fill:url(#SVGID_7_);}
	.st10{fill:url(#SVGID_8_);}
	.st11{fill:#575653;}
	.st12{fill:#C96331;}
	.st13{fill:#E5B449;}
</style>
<path class="st0" d="M72.6,44.1c0.2,0,21.6-3.6,53.3-3.6c46.3,0,114.2,7.4,174.8,42.7c71,41.3,162.8,144.1,163.7,145.1l0.1,0.2
	c0.3,0.6,5.5,12.7-3.7,32.8c-0.5-0.1-1,0-1.5,0.2c9-19.2,4.5-31.3,4-32.4C460.3,225.8,370,125,300,84.3
	c-60.4-35.2-128.1-42.6-174.2-42.6c-28.3,0-48.3,2.8-52.4,3.5c1.8,4.7,12.8,32.5,34.1,66c21.6,33.8,58.5,80.7,111.7,111.7
	c38.6,22.5,94.7,40.6,138.9,52.6h0.1c1.4-0.1,2.7,2.4,5.2,1.1c0,0-1.3,0-1.7-0.2h0.1c35.9,9.7,63.1,15.2,64.7,15.5
	c0.9,0,11.8-0.9,23.3-15.4c0.2,0.3,0.6,0.6,1,0.8c-12.3,15.6-23.8,15.9-24.4,15.9h-0.1h-0.1c-0.6-0.1-28.7-5.8-66-15.9h-0.1
	c-0.6,0.5-0.6-0.7-1.2-0.3h-0.1c-44.4-12.1-101.3-30.4-140.3-53.1C165,192.8,128,145.7,106.4,111.8C83.2,75.1,72.2,45.3,72.1,45
	l-0.3-0.7L72.6,44.1z"/>
<path class="st0" d="M307.4,262.2c-16.5-5.4-31.7-11.1-45.4-16.7l-0.9-0.4l0.8-0.7c0.3-0.3,30.9-26.7,50.4-60.1
	c19.4-33.4,27-72.5,27.1-72.9l0.2-1l0.8,0.6c11.6,9,24,19.4,37.1,31l0.2,0.2v0.3c0,0.3-3.2,32.1-23.1,66.3s-46.2,53-46.5,53.2
	l-0.3,0.2L307.4,262.2z M340.3,112.6c-1.3,6.3-9.2,41.7-27,72.3s-45,55.4-49.9,59.8c13.3,5.5,28.1,10.9,44.1,16.2
	c2.7-2,27.1-20.5,45.8-52.6c18.7-32.1,22.5-62.1,22.9-65.5C363.7,131.5,351.6,121.4,340.3,112.6z"/>
<path class="st0" d="M256.2,243c-14.3-6.1-26.9-12.4-37.6-18.6c-1.9-1.1-4-2.4-6.5-4l-0.7-0.5l0.7-0.6c0.3-0.3,30.5-26,52.2-63.2
	s28.8-75.6,28.8-75.9l0.2-0.9l0.8,0.4c2.6,1.4,4.7,2.6,6.7,3.7c10.6,6.2,22.3,14.1,34.7,23.5l0.3,0.2l-0.1,0.4
	c-0.1,0.4-6.9,38.3-27.6,74c-20.8,35.7-50.8,60.9-51.1,61.1l-0.3,0.2L256.2,243z M299.9,84.7c-1.7-1-3.6-2.1-5.9-3.3
	c-1.2,5.9-8.9,41.2-28.8,75.5c-20,34.4-47.3,59-51.8,62.9c2.2,1.4,4.1,2.5,5.8,3.5c10.5,6.1,23,12.3,37.1,18.4
	c3.1-2.7,30.9-27,50.5-60.6s26.7-69.2,27.4-73.2C321.9,98.7,310.4,90.9,299.9,84.7z"/>
<path class="st0" d="M148,166.1C103.5,117.5,80.1,64.7,73.8,49.3L8.7,11.4C7.8,11.8,6.9,12,6,12l0,0c-1.1,0-2.1-0.3-3-0.8
	C0.1,9.5-0.8,5.8,0.8,3C1.9,1.1,3.9,0,6,0c1.1,0,2.1,0.3,3,0.8c1.7,1,2.9,2.8,3,4.8l65,37.8c8.4-1.1,25.8-2.9,48.9-2.9
	c31.1,0,61.2,3.3,89.5,9.8l0.4,0.1v0.4c0.1,0.9,1.9,22.8-23,65.5c-24.9,42.8-43.4,49.6-44.2,49.9l-0.4,0.1L148,166.1z M125.9,41.8
	c-23.3,0-40.7,1.9-49,3h-0.2L11.1,6.6l-0.3-0.2V6c0-1.7-0.9-3.3-2.4-4.1C7.7,1.5,6.9,1.2,6,1.2c-1.7,0-3.3,0.9-4.1,2.4
	c-1.3,2.3-0.6,5.2,1.7,6.5c0.7,0.4,1.6,0.6,2.4,0.6l0,0c0.8,0,1.7-0.2,2.4-0.6L8.7,10l66.1,38.5l0.1,0.2
	c6.1,15,29.3,67.7,73.7,116.3c2.8-1.2,20.5-10.2,43.2-49.2c22.8-39.1,23-61,22.9-64.3C186.6,45,156.8,41.8,125.9,41.8z"/>
<g>
	<path class="st0" d="M570.3,210.7c-26.6-7.4-49.3-8.9-66.1-4.5c-28.9,7.6-36.8,15.2-38.9,19c-1.1,2.1-0.8,3.3-0.8,3.4l1,2.7
		l-67.8-70.1l0.8-0.4c0.4-0.2,37.7-18.9,69.7-18.9c4.6,0,8.9,0.4,12.8,1.1c-2-2.7-2.6-4.5-1.9-5.6c0.4-0.6,1.2-0.9,2.3-0.9
		c8.2,0,38.6,16.6,72.2,39.4c18.3,12.4,34.9,24.9,46.8,35.2c18.9,16.3,17,19,16.4,19.9c-0.4,0.6-1.2,0.9-2.3,0.9
		C608.8,232,592.3,224,570.3,210.7z M480.2,138.2c-0.2,0.3-0.5,1.4,2.9,5.5l1.2,1.4l-1.8-0.4c-4.3-1-9.1-1.5-14.3-1.5
		c-29.2,0-62.9,15.7-68.4,18.4l63.5,65.6c0.1-0.7,0.3-1.5,0.8-2.5c2.6-4.9,11.6-12.4,39.7-19.8c17.1-4.5,40-3,66.9,4.5l0.2,0.1
		c21.5,13.1,38.2,21.2,43.6,21.2c0.7,0,1.1-0.1,1.3-0.4c0.2-0.3,1.4-3.2-16.2-18.3c-11.9-10.2-28.5-22.7-46.7-35.1
		c-32.9-22.3-63.6-39.2-71.5-39.2C480.8,137.8,480.3,138,480.2,138.2z"/>
	<path class="st1" d="M393.6,160.6l3.7-1.9c0.4-0.2,38.2-19.1,70.8-19.1c2.9,0,5.7,0.1,8.4,0.4c-0.3-1.3-0.3-2.6,0.6-3.9
		c0.6-0.9,1.9-2,4.4-2c10.3,0,45.3,20.6,73.5,39.8c18.3,12.5,35.1,25,47,35.3c19,16.3,18.7,20.4,16.8,23.2c-0.6,0.9-1.9,2-4.4,2
		c-8.7,0-34.3-14.9-45.2-21.6c-16.3-4.5-31.1-6.8-44-6.8c-7.6,0-14.5,0.8-20.6,2.4c-29.1,7.7-35.8,15-37.3,17.9
		c-0.5,0.9-0.5,1.4-0.5,1.6l4.8,13.3L393.6,160.6z M485,142.1l5.8,7l-8.9-2c-4.1-0.9-8.8-1.4-13.7-1.4c-25.2,0-53.7,11.9-64.2,16.7
		l58.5,60.4c4.6-7.5,18.3-14.3,40.8-20.2c6.6-1.7,14-2.6,22.1-2.6c13.5,0,29,2.4,46,7.1l0.8,0.3c20.4,12.4,34,18.9,40,20.5
		c-1.7-2.3-5.5-6.5-14.1-14c-11.8-10.2-28.3-22.6-46.5-34.9c-32.4-22-58.5-36-67.8-38.4C484.1,141.1,484.5,141.6,485,142.1z"/>
</g>
<g>
	<path class="st0" d="M427.4,398.1c-19.8-9.8-38-19.8-51.3-28.3c-21-13.5-19.5-16.5-19-17.5c0.6-1.2,2.5-1.6,5.8-1.1
		c-22.5-26.4-25.3-80-25.3-80.5v-0.8l91.6,23.7l2.6,0.7l-2.6,0.5c-0.1,0-1.3,0.3-2.6,2.3c-2.3,3.7-5,14.3,2.6,43.2
		c4.5,17,16.8,35.6,36.5,55.3c10.4,5.8,43.5,24.8,40.8,30.4c-0.4,0.9-1.6,1.3-3.4,1.3l0,0C493.3,427.2,462.2,415.3,427.4,398.1z
		 M339,271.4c0.5,7.1,4.4,56.4,26.1,80.2l1.2,1.4l-1.8-0.3c-1.6-0.3-2.9-0.4-3.9-0.4c-1.8,0-2.2,0.4-2.3,0.6
		c-0.2,0.3-0.9,3.4,18.5,15.9c13.2,8.5,31.4,18.5,51.1,28.3c34.1,16.8,65.7,29,75.2,29c1.8,0,2.2-0.4,2.3-0.6
		c1-2-8.9-11.3-40.3-28.8l-0.1-0.1c-20-19.9-32.4-38.7-36.9-55.9c-7.4-28.1-5.4-39.6-2.4-44.3c0.6-0.9,1.2-1.5,1.7-1.9L339,271.4z"
		/>
	<path class="st1" d="M426.3,400.3c-19.9-9.8-38.2-19.9-51.5-28.5c-21-13.5-21.3-17.6-19.9-20.6c0.6-1.2,1.6-2,3.1-2.4
		c-20.2-28.1-22.8-77.6-22.8-78.1l-0.2-4.2l94.8,24.5l12.8,3.3l-12.8,2.6c-0.1,0.1-0.6,0.4-1.1,1.2c-1.7,2.7-4.8,12.2,2.9,41.3
		c4.4,16.5,16.4,34.6,35.7,53.9c45.5,25.3,42.7,31,41.5,33.5c-0.9,1.8-2.8,2.7-5.6,2.7l0,0C492.8,429.7,462,417.9,426.3,400.3z
		 M341.7,274.7c1.2,12.9,6.3,54.5,25.2,75.3l6.1,6.7l-8.9-1.6c-0.6-0.1-1.2-0.2-1.8-0.3c2,2,6.3,5.7,15.9,11.9
		c13.1,8.4,31.2,18.4,50.9,28.1c31.5,15.5,61.7,27.4,72.5,28.6c-3.6-3.6-13.8-11.5-37.6-24.7l-0.7-0.5c-20.3-20.2-32.9-39.4-37.6-57
		c-5.9-22.5-6.8-37.7-2.6-45.5L341.7,274.7z"/>
</g>
<path class="st0" d="M213.9,155.7c-5.5-3.2-9.5-8.4-11.1-14.6c-1.6-6.2-0.8-12.6,2.5-18.2c4.3-7.3,12.2-11.9,20.7-11.9
	c4.2,0,8.4,1.1,12,3.3c5.5,3.2,9.5,8.4,11.1,14.6s0.8,12.6-2.5,18.2c-4.3,7.3-12.2,11.9-20.7,11.9
	C221.7,159,217.5,157.9,213.9,155.7z M206.3,123.6c-3.1,5.2-3.9,11.4-2.3,17.2c1.5,5.9,5.3,10.8,10.5,13.8c3.5,2,7.4,3.1,11.4,3.1
	c8.1,0,15.6-4.3,19.7-11.3c3.1-5.2,3.9-11.4,2.3-17.2c-1.5-5.9-5.3-10.8-10.5-13.8c-3.5-2-7.4-3.1-11.4-3.1
	C217.9,112.3,210.4,116.6,206.3,123.6z"/>
<g>
	<path class="st0" d="M235,121.3c-0.5-0.3-1.1-0.6-1.8-0.9l-0.3-0.1l-0.1-0.3c-0.2-1.1-0.4-2-0.5-3l-0.1-1.1l1,0.5
		c0.5,0.2,1,0.5,1.6,0.8c4.8,2.8,8,7.5,9,12.9l-1.2,0.3C241.2,126.5,238.5,123.3,235,121.3z M234,119.3c0.6,0.3,1.1,0.5,1.6,0.8
		c1.6,0.9,3.1,2.1,4.3,3.5c-1.5-2.2-3.4-4.1-5.8-5.5c-0.1-0.1-0.3-0.2-0.4-0.2C233.8,118.4,233.9,118.9,234,119.3z"/>
	<path class="st0" d="M216.6,121.3c-0.7-0.8-1.3-1.6-1.9-2.4l-0.4-0.5l0.5-0.4c3.2-2.2,6.9-3.4,10.7-3.4c1.7,0,3.3,0.2,4.9,0.7
		l0.4,0.1v0.4c0.1,0.9,0.2,1.9,0.4,2.9l0.1,0.9l-0.9-0.2c-4.4-1.1-9.2-0.4-13.1,2l-0.5,0.3L216.6,121.3z M229.8,118
		c-0.1-0.6-0.1-1.1-0.2-1.6c-1.4-0.3-2.7-0.5-4.1-0.5c-3.4,0-6.6,1-9.5,2.8c0.4,0.5,0.8,0.9,1.2,1.4c2.8-1.6,5.9-2.4,9.1-2.4
		C227.5,117.7,228.7,117.8,229.8,118z"/>
	<path class="st0" d="M209.4,123.8c0.9-1.5,1.9-2.8,3.2-4.1l0.5-0.5l0.4,0.5c0.6,0.7,1.2,1.5,1.8,2.2l0.4,0.5l-0.5,0.4
		c-1.6,1.3-2.9,2.9-4,4.6c-2,3.5-2.8,7.6-2.1,11.6l-1.2,0.3C206.1,134.3,206.6,128.6,209.4,123.8z M213,121.1c-1,1-1.8,2.1-2.5,3.3
		c-1.4,2.4-2.2,5-2.3,7.6c0.4-1.8,1.1-3.6,2-5.2c1-1.7,2.3-3.2,3.8-4.6C213.6,121.9,213.3,121.5,213,121.1z"/>
</g>
<path class="st0" d="M275.3,177c-6.3-3.7-8.4-11.8-4.8-18c2.4-4,6.7-6.6,11.4-6.6c2.3,0,4.6,0.6,6.6,1.8c3,1.8,5.2,4.6,6.1,8
	s0.4,7-1.4,10c-2.4,4-6.7,6.6-11.4,6.6C279.6,178.7,277.3,178.1,275.3,177z M271.6,159.5c-3.3,5.7-1.4,13,4.3,16.3
	c1.8,1.1,3.9,1.6,6,1.6c4.2,0,8.2-2.3,10.3-5.9c1.6-2.8,2-6,1.2-9.1s-2.8-5.7-5.5-7.3c-1.8-1.1-3.9-1.6-6-1.6
	C277.7,153.6,273.8,155.9,271.6,159.5z"/>
<path class="st0" d="M330.4,209c-6.3-3.7-8.4-11.8-4.8-18c2.4-4,6.7-6.6,11.4-6.6c2.3,0,4.6,0.6,6.6,1.8c3,1.8,5.2,4.6,6.1,8
	s0.4,7-1.4,10c-2.4,4-6.7,6.6-11.4,6.6C334.7,210.8,332.4,210.2,330.4,209z M326.7,191.6c-3.3,5.7-1.4,13,4.3,16.3
	c1.8,1.1,3.9,1.6,6,1.6c4.2,0,8.2-2.3,10.3-5.9c1.6-2.8,2-6,1.2-9.1s-2.8-5.7-5.5-7.3c-1.8-1.1-3.9-1.6-6-1.6
	C332.8,185.6,328.8,187.9,326.7,191.6z"/>
<g>
	<path class="st0" d="M291.2,163.7l1.2-0.3c-0.5-3.1-2.4-5.9-5.2-7.4c-0.3-0.2-0.6-0.3-0.9-0.5l-1-0.5l0.1,1.1
		c0.1,0.6,0.2,1.1,0.3,1.7l0.1,0.3l0.3,0.1c0.3,0.2,0.7,0.3,1,0.5C289,159.9,290.5,161.6,291.2,163.7z"/>
	<path class="st0" d="M276.7,158.7c-0.4-0.4-0.7-0.9-1.1-1.3l-0.4-0.5l0.5-0.4c2.6-1.8,5.9-2.4,9-1.6l0.4,0.1v0.4
		c0,0.5,0.1,1.1,0.2,1.6l0.1,0.9l-0.9-0.2c-2.4-0.6-5-0.2-7.1,1.1l-0.5,0.3L276.7,158.7z M284,156.4c0-0.1,0-0.2,0-0.4
		c-2.4-0.5-4.9-0.1-7,1.1c0.1,0.1,0.2,0.2,0.3,0.4c1.6-0.8,3.3-1.3,5.1-1.3C282.9,156.2,283.4,156.3,284,156.4z"/>
	<path class="st0" d="M272.6,159.8c0.5-0.9,1.1-1.6,1.9-2.3l0.5-0.5l0.4,0.5c0.3,0.4,0.7,0.8,1,1.2l0.4,0.5l-0.5,0.4
		c-0.9,0.7-1.6,1.6-2.2,2.5c-1.1,1.9-1.5,4.2-1.1,6.4l-1.2,0.3C270.7,165.8,271,162.6,272.6,159.8z M274.9,158.9
		c-0.4,0.5-0.8,1-1.2,1.6c-0.1,0.2-0.2,0.4-0.3,0.6c0.5-0.7,1-1.4,1.7-2C275,159,274.9,158.9,274.9,158.9z"/>
</g>
<g>
	<path class="st0" d="M346.1,196.2l1.2-0.3c-0.5-3.1-2.4-5.8-5.2-7.4c-0.3-0.2-0.6-0.3-0.9-0.5l-1-0.5l0.1,1.1
		c0.1,0.6,0.2,1.1,0.3,1.7l0.1,0.3l0.3,0.1c0.3,0.1,0.7,0.3,1,0.5C343.9,192.3,345.3,194.1,346.1,196.2z"/>
	<path class="st0" d="M331.5,191.2c-0.4-0.4-0.7-0.9-1.1-1.3l-0.4-0.5l0.5-0.4c2.6-1.8,5.9-2.4,9-1.6l0.4,0.1v0.4
		c0,0.5,0.1,1.1,0.2,1.6l0.1,0.9l-0.9-0.2c-2.4-0.6-5-0.2-7.1,1.1l-0.5,0.3L331.5,191.2z M338.9,188.8c0-0.1,0-0.2,0-0.4
		c-2.4-0.5-4.9-0.1-7,1.1c0.1,0.1,0.2,0.2,0.3,0.4c1.6-0.8,3.3-1.3,5.1-1.3C337.8,188.7,338.3,188.8,338.9,188.8z"/>
	<path class="st0" d="M327.5,192.3c0.5-0.9,1.1-1.6,1.9-2.3l0.5-0.5l0.4,0.5c0.3,0.4,0.7,0.8,1,1.2l0.4,0.5l-0.5,0.4
		c-0.9,0.7-1.6,1.6-2.2,2.5c-1.1,1.9-1.5,4.2-1.1,6.3l-1.2,0.3C325.6,198.3,325.9,195,327.5,192.3z M329.7,191.3
		c-0.4,0.5-0.8,1-1.2,1.6c-0.1,0.2-0.2,0.4-0.3,0.6c0.5-0.7,1-1.4,1.7-2C329.9,191.5,329.8,191.4,329.7,191.3z"/>
</g>
<path class="st1" d="M459.8,316.4c4.6-3.4,11.4-9.9,19.5-22.5c0.3,0.3,0.7,0.5,1.1,0.5c-8,12.3-14.7,18.9-19.4,22.5
	c9.9,9.7,20.4,17.9,31.5,24.3c33.1,19.2,72.4,24.8,83.9,26.1c-9.5-4.9-35.4-19.2-32.3-27.2c0.3-0.8,1.3-1.3,2.8-1.3
	c13.6,0,81.7,33.9,109.2,47.8C629,369,564.6,325.8,568,315c0.3-1.1,1.3-2.3,3.8-2.3c12.4,0,53.5,32.3,65.7,42.1
	c-9.5-13.4-46.2-61.6-101.5-88.2c-13-6.3-24.8-11.7-36.7-15.3c-1,5.7-3.4,14.4-9.2,26c-0.4-0.2-0.8-0.4-1.2-0.3
	c6-12.1,8.4-20.9,9.3-26.5l0.1-0.7l0.7,0.2c12.2,3.6,24.2,9.2,37.5,15.6c64.7,31,104.1,91.6,104.5,92.2l2.1,3.3l-3.1-2.5
	c-0.5-0.4-54.4-44.5-68.2-44.5c-1.9,0-2.4,0.8-2.6,1.5c-3.2,10.1,69.9,59.1,98.4,77.1l-0.6,1.1c-1-0.5-103.6-53.6-120-53.6
	c-0.9,0-1.5,0.2-1.6,0.5c-2.7,6.9,24.1,21.9,34.7,27.1l2.9,1.4l-3.2-0.2c-0.5,0-48.5-3.8-87.8-26.6c-11.3-6.6-22.1-15-32.2-25
	l-0.5-0.5L459.8,316.4z"/>
<path class="st1" d="M462.8,314.2c4-3.5,9.9-9.7,16.9-20.4c0.1,0.5,0.3,0.9,0.7,1.2c-6.6,10-12.2,16.1-16.2,19.6
	c6.8,5.7,13.8,10.7,20.9,14.9c14.2,8.3,31.1,14.9,50.3,19.6c-7.3-6.3-9.8-12.1-7.7-17.5c0.2-0.4,0.3-0.8,0.5-1.1
	c1.6-2.8,4.3-4.2,8-4.2c5.1,0,12.3,2.4,21.6,6.1c5.7,2.2,12.7,5.2,20.6,8.7c-27.9-21.8-28.7-28.6-27-34.1c0.2-0.7,0.5-1.4,0.9-2
	c1.4-2.4,3.8-4.1,6.7-4.6c0.7-0.1,1.4-0.2,2.2-0.2c3.4,0,9.5,1.2,24.4,10.5c-20-19.1-41.1-34.1-63-44.6c-9.5-4.5-16.8-7.9-23.9-10.8
	c-1.2,5.1-3.7,12.7-8.5,22.5c-0.4-0.2-0.7-0.5-1-0.8c5-10,7.4-17.6,8.5-22.7l0.2-0.7l0.7,0.3c7.3,2.9,14.9,6.4,24.6,11.1
	c23.5,11.3,46.3,27.8,67.7,49.2l-0.8,1c-18.4-12.2-25.3-13.6-28.9-13.6c-0.7,0-1.3,0.1-2,0.2c-2.5,0.5-4.6,1.9-5.8,4
	c-0.3,0.5-0.6,1.1-0.8,1.7c-1.6,5.1-0.6,12.1,30.7,36l4.4,3.3l-5-2.3c-10-4.5-18.5-8.2-25.4-10.9c-9.2-3.6-16.2-6-21.1-6
	c-3.3,0-5.5,1.1-7,3.6c-0.2,0.3-0.3,0.6-0.4,0.9c-2.1,5.4,1,11.2,9.4,17.8l2.2,1.8l-2.7-0.7c-20.4-4.8-38.3-11.7-53.2-20.4
	c-7.4-4.3-14.7-9.5-21.7-15.5l-0.6-0.5L462.8,314.2z"/>
<g>
	<path class="st0" d="M539.6,309.7c-12.3-8.9-28.6-19.4-46-29.6c-1.3-0.7-2.6-1.5-3.8-2.2l-0.5-0.3l0.3-0.5
		c3.2-6.5,5.8-12.6,7.5-18.2l0.2-0.7l0.6,0.3c5.7,2.5,11.6,5.3,17.1,7.9c13,6.2,25.9,14.2,38.3,23.6l1.1,0.9l-1.6,0.3
		c-4.4,0.8-8,3.3-10.2,7c-0.5,0.9-1,1.9-1.3,3c-0.9,2.8-1,5.3-0.5,7.8l0.4,1.6L539.6,309.7z M514.3,267.6
		c-5.3-2.5-10.9-5.2-16.4-7.6c-1.7,5.3-4,11.1-7.1,17.2c1.1,0.6,2.2,1.3,3.3,1.9c16.9,9.8,32.7,20,44.9,28.7c-0.3-2.2,0-4.5,0.8-6.9
		c0.4-1.1,0.8-2.2,1.4-3.2c2.2-3.8,5.7-6.3,10-7.4C539.2,281.2,526.8,273.6,514.3,267.6z"/>
	<path class="st0" d="M516,335.8c-12.6-4.1-24-9.1-34-14.8c-5-2.9-9.9-6.2-14.8-10l-0.6-0.4l0.5-0.5c4.3-4.4,8.7-10,13-16.6l0.3-0.5
		l0.5,0.3c1.2,0.7,2.5,1.5,3.7,2.2c14,8.2,27.9,15.6,40.1,21.5l1.3,0.6l-1.3,0.5c-2.7,1.1-4.9,2.9-6.5,5.7c-0.3,0.6-0.6,1.2-0.9,1.8
		c-1.2,3.1-1.4,6.3-0.6,9.5l0.3,1.1L516,335.8z M484,296.5c-1.1-0.6-2.1-1.3-3.2-1.9c-4.1,6.2-8.2,11.5-12.3,15.8
		c4.7,3.5,9.4,6.7,14.1,9.5c9.6,5.6,20.6,10.4,32.7,14.4c-0.6-3.1-0.3-6.2,0.9-9.2c0.3-0.7,0.6-1.3,0.9-1.9c1.5-2.6,3.5-4.5,5.9-5.7
		C511.1,311.6,497.6,304.4,484,296.5z"/>
</g>
<g>
	<g>
		<path class="st0" d="M488.9,278.1c-10.1-5.8-20-11.1-29.3-15.8l-0.5-0.3l0.2-0.5c3.4-7.5,5.4-15.5,5.9-23.8v-0.6l0.6,0.1
			c11.7,1,23.1,2.8,34,5.3l0.4,0.1v0.4c0,0.5,1,12.1-10.7,34.9l-0.3,0.6L488.9,278.1z M466.4,238.4c-0.6,8-2.5,15.7-5.7,23
			c9,4.5,18.5,9.7,28.2,15.3c9.9-19.6,10.3-30.9,10.2-33.2C488.7,241.2,477.7,239.4,466.4,238.4z"/>
		<path class="st1" d="M487.7,280.2c-10.1-5.8-19.9-11.1-29.2-15.8l-2.6-1.3l1.2-2.7c3.2-7.3,5.2-15,5.7-22.9l0.2-3.1l3.1,0.3
			c11.8,1,23.4,2.8,34.3,5.4l2.2,0.5l0.2,2.2c0.1,1.3,0.9,13.3-10.9,36.2l-1.5,2.9L487.7,280.2z M468.6,241.1
			c-0.7,6.6-2.3,13-4.8,19.2c7.7,3.9,15.8,8.3,24.1,13c7-14.4,8.5-23.8,8.8-27.8C487.6,243.5,478.2,242.1,468.6,241.1z"/>
	</g>
	<g>
		<path class="st0" d="M455.6,318.6c-7.5-8.2-14.7-17.2-21.4-26.9l-0.4-0.5l0.5-0.4c6.2-4.1,11.8-9.3,16.4-15.2l0.4-0.5l0.5,0.3
			c8.7,5.8,18.3,11.8,28.4,17.8l0.6,0.3l-0.4,0.5c-13.8,20.9-23.6,24.5-24,24.6l-0.4,0.1L455.6,318.6z M451.4,276.9
			c-4.5,5.7-9.8,10.6-15.8,14.7c6.5,9.3,13.4,18,20.6,25.9c1.9-0.9,10.8-5.6,22.6-23.4C469,288.2,459.8,282.5,451.4,276.9z"/>
		<path class="st1" d="M453.7,320.3c-7.6-8.3-14.8-17.4-21.6-27.2l-1.8-2.6l2.6-1.7c6-4,11.3-8.9,15.8-14.7l1.8-2.2l2.4,1.6
			c8.7,5.8,18.2,11.7,28.3,17.7l2.8,1.6l-1.8,2.7c-14,21.2-24.1,25.2-25.3,25.6l-1.9,0.7L453.7,320.3z M451.9,280.2
			c-3.8,4.5-8.1,8.5-12.9,12c5.6,7.9,11.6,15.4,17.7,22.3c3.1-1.9,9.9-7,18.6-19.6C467,289.9,459.2,284.9,451.9,280.2z"/>
	</g>
</g>
<linearGradient id="SVGID_1_" gradientUnits="userSpaceOnUse" x1="109.8365" y1="-717.2693" x2="380.6884" y2="-714.3987" gradientTransform="matrix(-0.5032 0.8642 -0.8642 -0.5032 -258.1639 -404.3035)">
	<stop  offset="0" style="stop-color:#FFFFFF"/>
	<stop  offset="0.1509" style="stop-color:#F8F8F8"/>
	<stop  offset="0.3714" style="stop-color:#E4E4E4"/>
	<stop  offset="0.6348" style="stop-color:#C4C4C4"/>
	<stop  offset="0.9289" style="stop-color:#989898"/>
	<stop  offset="1" style="stop-color:#8C8C8C"/>
</linearGradient>
<path class="st2" d="M301.7,84.9c39.8,23.2,85.8,65.3,118.8,98.2c-0.8,1.7-1.5,3.4-2.1,5.1v0.1c-0.6,2-1.3,4.6-1.5,6.4
	c0.1,0.2,0.2,0.3,0.2,0.4c1.5,1.7,2.7,3,4,4.2c-1.2,1.2-1.2-2.5-2.3-1.6h0.1c0.8,0.5,1.5,0.9,2.3,1.4c0.1,0,0.1,0.1,0.2,0.1
	c2.2,1.3,4.7,2.6,7.2,3.8c-1.2-1.2-3.8-1.2-4.5-1.9l0.1,0.1c1.1,0.8,2.2,1.7,3.3,2.6c0.1,0,0.1,0.1,0.2,0.2c0.9,0.3,0.9,0.3,1.3,1.2
	l0.1,0.1c4.6,4.4,8.3,9.3,11.9,15.2c-3.5-5.6-7-10.9-11.4-15c-0.1-0.1-0.1-0.1-0.2-0.2c-0.9,1.4-0.9-2.3-1.8-1.6
	c-0.1-0.1-0.1-0.1-0.2-0.2c-1-0.8-2-1.5-3.1-2.2c-0.1,0-0.1-0.1-0.2-0.1c4.4-0.7,5.7,4.3,8.2,6.8c-2.5-3.8-6.2-7.5-11.3-8.5
	c-0.1,0-0.1-0.1-0.2-0.1c-1.1-0.5-2.2-0.9-3.3-1.3h-0.1c2.5,1.2,5,2.5,7.5,3.8c-2.5-2.5-6.2-3.8-7.3-7.2c-0.1-0.1-0.1-0.2-0.1-0.4
	c0.1-0.7,0.1-1.5,0.2-2.3c0,0,0,0.1,0,0.2v0.1v0.1c-0.1,0.6-0.2,1.2-0.2,1.7c0,0.1,0,0.1,0,0.2c2.3,3.7,6.1,6.2,9.8,7.5
	c-3.8,0-5-3.8-8.2-4.2c-0.1-0.1-0.1-0.1-0.1-0.1c0.6,0.6,1.3,1.1,2,1.6l0.1,0.1c2.4,0.1,4.9,2.6,7.4,2.6c-2.5,0-3.8,0-4.4-1
	c0,0,0.1,0.1,0.2,0.1c1.1,0.6,2.2,1.1,3.2,1.7c0.1,0,0.1,0.1,0.2,0.2c2,1.5,3.3,5.2,5.8,6.5c-2.5-1.2-3.7-5-5.8-6.6
	c-0.1-0.1-0.1-0.1-0.2-0.1c-1-0.7-2.1-1.2-3.2-1.7c-0.1,0-0.1-0.1-0.2-0.1c0.6,1,1.9,1,3.1,1c-2.5,0-3.8-1.2-6.3-2.7
	c-0.1,0-0.1-0.1-0.2-0.1c-0.6-0.4-1.2-0.8-1.7-1.3l-0.1-0.1c5.8,2.9,10.8,5.4,14.6,11.6c-3.7-5-10-7.5-15-11.4c0,0,0,0,0.1,0
	c0.8,0.4,1.4,1.1,2,1.6l0.1,0.1c4.1,3.5,9.1,4.7,12.9,9.7c-3.7-3.8-7.5-6.2-12.4-8.5c-0.2-0.1-0.3-0.1-0.5-0.3
	c-0.6-0.4-1.1-0.9-1.5-0.6l0.1,0.1c0.3,0.2,0.6,0.4,1,0.5c0.1,0,0.3,0.1,0.6,0.2c2.7,2.4,6.5,1.2,9,4.9c-1.2-2.5-3.8-3.8-5.8-4
	c0,0,0,0,0.1,0c0.5,0.2,0.9,0.3,1.4,0.5c0.1,0,0.1,0.1,0.2,0.1c0.6,0.1,1.2,0.3,1.8,0.5c0.1,0,0.2,0.1,0.2,0.1
	c2.2,1.5,2.2,5.2,4.7,5.2c1.2-1.2-2.5-2.5-1.5-3.2c0.1,0,0.1,0.1,0.2,0.2c4.2,3.9,5.4,10.6,10.1,14.3c-4.3-4.3-6.8-10.5-10.2-14.1
	c-0.1-0.1-0.2-0.2-0.3-0.3c0.5,1.9,1.8,3.1,3,4.4c-1.2-1.2-2.5-3.8-2.8-4.6c0,0.1,0.1,0.2,0.2,0.4c2.8,5.8,6.4,10.7,10.1,15.5
	c-3.7-4.9-6.1-11-9.9-15.7c-0.1-0.1-0.2-0.2-0.2-0.3c1.4,1,2.7,2.3,2.7,4.8c-2.5,0-1.2-2.5-2.9-4.3c-0.1-0.1,0.1,0,0.2,0.1
	c4.3,4.5,5.8,11,10.3,15.4c-4.8-3.9-5.2-11.5-9.9-15.5c-0.1-0.1-0.2-0.2-0.3-0.2c0.3,0.8,2.8,2,1.5,4.5c-2.5-1.2-2.5-5-4.4-6
	c-0.3-0.2-0.5-0.3-0.6-0.4c-0.5-0.2-1.1-0.3-1.7-0.4c-0.1,0-0.1,0-0.1,0c-0.7-0.2-1.4-0.3-2-0.5l0,0c-1.1-0.3-1.1-0.3-2.5-0.8
	c-0.2-0.1-0.3-0.1-0.4-0.2c-0.6-0.3-1.1-0.6-1.5-0.9c0,0-0.1-0.1,0-0.1c0.5,0.1,1,0.2,1.4,0.3c0.1,0,0.3,0.1,0.5,0.1
	c5.2,1.3,7.7,3.8,11.4,7.5c-2.5-2.5-5-6.2-8.3-6.6l0,0c0.2,0.1,0.5,0.2,0.8,0.4c-0.2-0.2-0.4-0.4-0.6-0.5c-0.1-0.1-0.1-0.1-0.1-0.1
	c2,0.7,5.7,1.9,7,4.4c-2.5-3.8-6.2-3.8-10.2-6.1c-0.1,0-0.1-0.1-0.2-0.1c-1-0.4-1.9-0.7-2.5-1.2c-0.1-0.1-0.2-0.1-0.2-0.1
	c4.4,2.5,9.4,3.8,13.1,7.5c-3.8-2.5-7.5-5-12.1-8c0.1,0,0.1,0.1,0.2,0.1c0.6,0.5,1.3,1,1.9,1.4l0.1,0.1c3.6,1.4,7.3,3.9,9.8,6.4
	c-2.5-1.2-3.8-5-7-4.2c0.1,0,0.1,0.1,0.2,0.1c1.1,0.8,2.2,1.7,3.2,2.5c0.1,0,0.1,0.1,0.2,0.1c0.9,0.1,0.9,0.1,1.2,1
	c0,0,0.1,0.1,0.2,0.1c4.9,4.2,9.2,8.9,12,15.2c-2.7-6.2-6.2-11.2-10.7-15.4c-0.1-0.1-0.1-0.1-0.1-0.1c2,0.5,0.8,1.7,0.8,3
	c0-2.5-1.2-3.8-3.4-5.2c-0.1-0.1-0.1-0.1-0.2-0.2c-1-0.8-2.1-1.6-3.2-2.3c-0.1,0-0.1-0.1-0.2-0.1c3.2-4.6-4.3,1.6-2.1-1.4
	c-0.1,0-0.1-0.1-0.2-0.1c-0.9-0.5-1.7-1-2.6-1.5c0,0.1,0,0.1,0.1,0.2c4.2,4.4,11.7,4.4,13,10.6c-2.5-6.2-10-6.2-13.6-10.2
	c0.1,0,0.1,0,0.2,0.1c0.8,0.3,1.4,0.7,2.2,1.2c0,0,0.1,0,0.2,0.1c2.3,1.3,4.8,2.6,7.3,2.6c-1.2,0-2.5,0-3.8,0c5,0,6.2,3.8,8.7,7.5
	c-3.7-3.8-7.5-7.5-13.1-8.9c-0.1,0-0.1,0-0.2,0c-0.5-0.1-0.9-0.3-1.2-0.6c-0.1,0,0,0,0,0.1c0.3,0.2,0.6,0.4,1,0.6
	c0.1,0.1,0.2,0.1,0.4,0.2c1.7,2.3,4.2,1.1,5.5,2.3c0-1.2-1.2-1.2-2.3-1.4c0.1,0,0.3,0.1,0.4,0.1c0.4,0.1,0.9,0.2,1.3,0.3h0.1
	c0.6,0.3,1.2,0.6,1.8,0.9c0.1,0,0.1,0.1,0.3,0.2c0.8,1,3.3,3.5,4.6,4.8c1.2-1.2-2.5-1.2-1.7-3.1c0.1,0,0.1,0.1,0.2,0.1
	c2.4,1.7,4.5,3.7,5.2,6.7c-1.8-2.7-3-5.4-4.6-7.1c-0.1-0.1-0.2-0.2-0.3-0.3c1.2,1.1,2.4,2.4,2.4,4.9c1.3-2.5-3.7-2.5-2.5-5
	c0,0,0,0,0.1,0.1c-0.1-0.1-0.1-0.1-0.1-0.1c-1.2,2.5,3.8,2.5,2.5,5c-1.2-1.2-2.5-1.2-2.9-4.1c-0.2-0.2-0.1-0.2,0-0.1
	c3.5,4.4,6,9.8,10.4,14.2c-4.9-2.9-5.2-10.5-10.1-14.5c-0.1-0.1-0.2-0.1,0,0.2c2.7,0.5,0.2,4.2,2.7,4.2c-1.2-2.5-3.7-3.8-5.4-5.8
	c-0.5-0.5-0.7-0.6-0.8-0.6c-0.5-0.2-1.1-0.3-1.7-0.4h-0.1c-0.7-0.1-1.3-0.2-2-0.4h-0.1c-1-0.3-1-0.3-2.7-0.8c-0.1,0-0.1-0.1-0.2-0.1
	c-0.5-0.2-1-0.4-1.4-0.7l-0.1-0.1c0.5,0,0.9,0.1,1.3,0.2c0.1,0,0.2,0.1,0.4,0.1c1.7,1,4.2,1,6.7,2.3c-1.2,0-2.5-2.5-3.4-1.4h0.1
	c1.2,0.5,2.4,1.1,3.4,1.8c0.1,0,0.1,0.1,0.2,0.2c-0.4,0.6,2.1,1.9,2.1,3.1c0,0,0-1.2-0.1-1.5l0.1,0.1c4.5,4,7.3,9.8,11.2,15.2
	c-3.8-4.5-6.6-10.9-11-15.2c-0.1-0.1-0.1-0.1-0.1-0.1c-0.1,0.3,7.4,1.6-0.1,1.6c0-2.5-1.2-2.5-2.3-3.6c-0.1,0-0.1-0.1-0.2-0.1
	c-1-0.7-2.2-1.3-3.4-1.7c0.1,0.1,0.2,0.1,0.4,0.2c4.2,0.3,5.5,4.1,8,6.6c-3.7-3.8-7.5-6.2-11.9-7.6c-0.1,0-0.2,0-0.3,0
	c-0.4,0-0.9-0.1-1.3-0.1l0,0c0.4,0.2,0.7,0.4,1.1,0.5c0.1,0,0.3,0.1,0.4,0.1c0.6,2,3.1,0.7,4.4,2c0-1.2,0-1.2-1-1.3
	c0.1,0,0.3,0,0.4,0.1c0.4,0.1,0.9,0.1,1.3,0.2c0,0,0.1,0,0.2,0c0.4,0.5,0.9,0.8,1.6,1.1c0.1,0,0.1,0.1,0.2,0.1c2.2,1,2.2,4.7,6,6
	c-1.2-1.2-2.5-2.5-2.6-4.9h0.1c0.7,0.5,1.2,1.1,1.2,2.3c0-1-0.4-1.6-1-2.1c-0.1-0.1-0.2-0.2-0.3-0.2c-1.2,2.3,3.8,2.3,2.5,4.8
	c1.3-2.5-3.7-2.5-2.5-5c0.1,0.1,0.2,0.2,0.3,0.4c3.6,4.9,6.1,9.8,9.8,14.7c-4.9-3.7-6.2-9.7-9.9-14.6c-0.1-0.1-0.2-0.2-0.2-0.2
	c0.1,2.3,1.3,2.3,2.6,3.6c-1.2-1.2-2.5-2.5-2.6-3.5c0,0,0.1,0.1,0.2,0.2c1.3,1.6,1.8,4,3.6,5.8c-0.7-2.8-2.1-4.4-4-5.6
	c-0.1-0.1-0.2-0.1-0.1,0.1c0.3,1.8,1.6,1.8,1.6,3c-1.2-1.2-3.7-2.5-4.3-4.6c-0.3-0.4-0.5-0.5-0.6-0.5c-0.5-0.3-1.1-0.6-1.7-0.9
	c-0.1,0-0.1,0-0.2-0.1c-0.5-0.1-1-0.2-1.4-0.3c-0.1,0-0.1,0-0.2,0c-0.3,0.2,1,0.2,1,0.2c-1.2-1.2-3.8,1.2-4.3-0.8
	c-0.1,0-0.1,0-0.2,0c-0.5-0.1-1-0.2-1.5-0.3c0,0.1,0.1,0.1,0.1,0.2c0.4,0.4,0.8,0.8,1.2,1.2c0.1,0,0.1,0,0.2,0.1c0.1,0,0.3,0,0.4,0
	s0.3,0,0.4,0c1.2-0.2,1.2-0.2,2.2,0.2c0.1,0,0.3,0,0.4,0.1c0.6,0.1,1.2,0.2,1.8,0.4c0.2,0.1,0.3,0.1,0.4,0.2
	c0.4,0.1,0.9,0.3,1.3,0.5c0.1,0,0.2,0.1,0.2,0.1c1.1,0.9,3.6,2.2,3.6,4.7c-1.2-1.2,1.2-2.5-0.8-2.9c0,0,0.1,0,0.1,0.1
	c4.7,4.1,5.7,11.1,10.7,14.1c-5.7-3.4-5.2-9.9-10.1-14.3c-0.1-0.1-0.3-0.2-0.3-0.1c-0.9,1.9,1.6,3.2,2.9,4.4c0-2.5-2.5-2.5-2.5-5
	c0,1.2,0,2.5,1.2,3.8c-2.5,0-3.7-1.2-4-3.5c-0.5-0.4-0.7-0.4-0.8-0.4c-0.8,0.2-1.4,0.4-1.4-0.6c-0.1,0-0.2-0.1-0.5-0.2
	c-0.8-0.1-1.7,0.1-2.6,0.8l0.1,0.1c1.9,1.4,3.9,2.8,5.4,4.9c-1.8-1.8-3.6-3.3-5.4-4.9c-0.1,0-0.1-0.1-0.1-0.1
	c0.9-0.5,1.7-0.8,2.5-0.8c0.2,0.1,0.3,0.1,0.4,0.1c2.6,2,6.4,3.3,7.6,7c0-2.8-1.4-4.2-3-5.3c-0.1-0.1-0.2-0.2-0.2-0.3
	c0,0,0.1,0,0.1,0.1c0,0,0.1,0.1,0.2,0.2c4.1,5.3,5.4,11.6,10.4,15.3c-2.4-6.1-7.3-9.8-10.1-15.5c-0.1-0.1-0.1-0.3-0.2-0.4
	c0.2,2.2,1.5,3.4,2.7,4.7c-1.2-1.2-2.5-2.5-2.8-4.5c0-0.1,0-0.1,0.2,0c2.3,2.1,4.1,5.1,5.1,8.2c-0.8-3.9-2.5-6.3-4.8-8.1
	c-0.1-0.1-0.2-0.2-0.3-0.3c0.2,2.1,1.4,3.3,2.7,4.6c-3.7-1.2-3.7-3.8-5.4-5.9c-0.4-0.4-0.6-0.5-0.7-0.6c-0.4-0.2-0.8-0.4-1.3-0.6
	c-0.2-0.1-0.3-0.1-0.4-0.2c-0.6-0.2-1.2-0.3-1.8-0.4H424c0.9-1.1,0.9,2.7,2.1,1.4c-2.5,1.2-2.5-2.5-5.3-1.3c-0.1,0-0.1,0-0.2,0.1
	c-0.1,0-0.1,0-0.2,0.1c-0.1,0-0.1,0-0.2-0.1c-0.4-0.4-0.8-0.8-1.2-1.2l-0.1-0.1c0.4,0.1,0.9,0.2,1.3,0.3c0.1,0,0.3,0.1,0.6,0.2
	c1.5,2,4,2,6.5,2c-1.2,1.2-2.5-2.5-3.4-1.4c0,0,0.1,0,0.3,0c0.4,0.1,0.9,0.2,1.3,0.3c0.1,0,0.1,0,0.2,0.1c0.6,0.3,1.1,0.6,1.7,0.9
	c0.1,0,0.1,0.1,0.2,0.1c2.2,1.3,3.5,3.8,4.7,6.3c1.2-2.5-1.2-3.8-1.6-4.5c0,0,0.1,0.1,0.2,0.1c1.8,1.3,3.3,2.9,4,5.6
	c-0.9-1.8-1.8-4.2-3.4-5.8c-0.1-0.1-0.2-0.2-0.3-0.3c0,1.1,1.2,2.4,2.5,3.6c-1.2-1.2-2.5-2.5-2.6-3.6c0,0,0.1,0.1,0.2,0.2
	c3.7,4.9,5,11,9.9,14.6c-4.9-3.7-6.2-9.7-9.9-14.6c-0.1-0.1-0.2-0.2-0.2-0.2c0.1,2.3,1.3,2.3,2.6,3.6c-1.2-1.2-2.5-2.5-2.6-3.5
	c0,0,0.1,0.1,0.2,0.2c1.3,1.6,1.8,4,3.6,5.8c0-2.8-1.5-4.4-3.6-5.7c-0.1-0.1-0.3-0.2-0.4-0.2c0.2,0.9,2.7,2.1,1.5,4.6
	c0-3.8-3.7-3.8-4.8-6.4c-0.1-0.1-0.3-0.1-0.4-0.2c-0.4-0.2-0.9-0.4-1.3-0.7c-0.1,0-0.1,0-0.2-0.1c-0.5-0.1-1-0.3-1.5-0.4h-0.1
	c0.9-1.1,2.1,2.7,3.4,1.4c-2.5-1.2-5,0-6.2-2c-0.2-0.1-0.3-0.1-0.6-0.2c-0.5-0.1-1.1-0.3-1.6-0.4c0.1,0.1,0.1,0.1,0.2,0.2
	c0.3,0.3,0.7,0.5,1,0.8c0.1,0,0.1,0.1,0.2,0.1s0.3-0.1,0.5-0.1c2.8,0.3,4,2.8,6.5,1.6c-1.2-1.2-2.5-1.2-3.2-1.7c0.1,0,0.3,0,0.4,0.1
	c0.4,0.1,0.9,0.2,1.4,0.3c0.1,0,0.2,0.1,0.4,0.2c0.4,0,0.8,0.3,1.2,0.7c0.1,0.1,0.1,0.1,0.2,0.2c2.1,1.5,3.3,5.3,5.8,6.5
	c0-2.5-1.2-3.8-2.5-5c0,1.2,2.5,2.5,1.2,5c1.2-1.2-2.5-2.5-1.5-4.3c-0.1-0.2,0.1-0.1,0.2,0c4.6,3.4,3.1,9.7,7.6,13.1
	c-3.7-3.7-5.3-9.4-8.7-12.5c-0.1-0.1-0.2-0.2-0.3-0.2c-1,1.5-1-2.2-2.1-1.4c-0.1-0.1-0.3-0.1-0.4-0.2c-0.5-0.2-1.1-0.4-1.7-0.5
	c-0.1,0-0.1,0-0.2,0c-0.7,0.1-1.4,0.4-2.1,1c0,0.1,0.1,0.1,0.1,0.2c1.6,1.7,3.3,3.5,5.4,4.9c-1.8-1.8-3.7-3.7-5.3-5.1l-0.1-0.1
	c0.8-0.6,1.6-1,2.3-1.1c0.2,0,0.3,0.1,0.5,0.1c0.4,0,0.7,0.1,1,0.2c0.2,0,0.3,0.1,0.5,0.1c2.4,0.9,2.4,4.7,4.9,4.7
	c0,0,0-2.5-1.8-2.9c-0.1-0.1,0.1-0.1,0.2,0c4.4,3.7,5.5,11.2,10.4,14.2c-5.5-2.2-5.2-11.3-9.9-14.5c-0.1-0.1-0.2-0.2-0.3-0.1
	c0.2,0.9,2.6,2.1,1.4,4.6c1.2-1.2-2.5-2.5-1.8-4.3c0.2,0.1,0.3,0.3,0.4,0.4c1.6,1.6,2.6,2.7,2.6,3.9c0-1.1-1-2.3-2.6-3.9
	c-0.1-0.1-0.3-0.3-0.3-0.3c-0.1-0.2,0-0.2,0.1-0.1c5.3,4.3,5.7,10.9,10.3,15.5c-3.9-4.9-5.6-11.4-10.5-15.2
	c-0.1-0.1-0.2-0.2-0.3-0.2c-0.5,0.4,0.8,1.6,0.8,1.6c-1.2-1.2-1.2-1.2-3.1-2.8c-0.3-0.3-0.5-0.4-0.7-0.5c-0.5-0.2-1-0.4-1.5-0.5
	c-0.1,0-0.3,0-0.4-0.1c-0.8,0.1-1.5,0.5-2.4,1.1c0,0,0,0.1-0.1,0.1c1.9,1.4,3.1,3.8,5.2,4.7l0.1,0.1c4.4,3.9,8.9,7.7,12.7,11.5
	c-4.8-3.4-8.8-7.5-13.1-11.3c-0.1-0.1-0.1-0.1-0.1-0.1c-0.6-1.1-1.8-2.4-3.1-2.4c1.2,0,1.2,0,1.2,1.2c-1.2-1.2-3.8-1.2-3.6-3.1
	l-0.1-0.1c-0.1-0.1-0.2-0.1-0.1-0.2c0.1-4.1-2.4-0.3-2-1.3c-0.4-0.1-0.6-0.1-0.7-0.2c-0.5-0.1-0.9-0.2-0.7-0.5c0,0-0.1,0-0.1-0.1
	c-0.2-0.1-0.5-0.3-0.7-0.4c-0.1,0-0.1-0.1-0.2-0.1c0.7,0.2,1.4,0.5,2.1,0.8c0.2,0,0.4,0,0.5,0c1.6,0.1,2.8,0.1,4.6,0.1
	c0.2,0,0.3,0,0.9,0.5c-0.3,0-0.5,0.1-0.6,0.2c-1,0.6-1.9,0.6-2.5,0.8l0.1,0.1c1.7,1.2,3.2,2.8,4.5,4.7c-1.8-1.8-3-3.6-4.5-4.9
	c0.1,0,0.1-0.1,0.2-0.1c0.9,0.6,1.7,0,2.4-0.6c0.1-0.1,0.1-0.1,0.2-0.2c0.5,0.1,1.1,0.3,1.5,0.4c0.2,0.1,0.3,0.1,0.5,0.2
	c1-1.1,1,2.7,2.1,1.2c0.1,0,0.2,0.1,0.3,0.2c5,3.7,6,11,11,15c-4.9-3.9-6-11-10.7-15c-0.1-0.1-0.2-0.2-0.4-0.3c-0.2-1-1.5-1-2.3-1.4
	c-0.2-0.2-0.4-0.2-0.5-0.3c-0.5-0.2-1-0.4-1.5-0.5c-0.1,0-0.2,0-0.3-0.1c-1.8,0-3.7,0-5.6-0.1c-0.1,0-0.1,0-0.2,0
	c-1-0.2-2.1-0.1-3.4,0.1c0,0,0,0.1-0.1,0.1c2.7,9.9,11.4,12.4,17.6,18.7c-6.2-5-13.7-10-19.5-16.7H414c-0.7,0.1-1.5,0.2-2.2,0.3
	c-0.1,0-0.2,0-0.2,0c8.3,3.9,13.3,12.6,22,16.4c-10-5-16.2-17.5-25.7-15.6h-0.1c-1.4,0.3-2.7,0.8-4.1,1.2h-0.1
	c6.2,8.1,14.9,10.6,21.2,18.1c-6.2-6.2-15-10-21.2-15c7.5,5,13.8,8.8,21.2,13.8c-9.5-2.4-14.5-15-25.7-14.2c0,0.1-0.1,0.1-0.1,0.1
	c2,9.1,9.5,12.8,15.8,17.8c-6.2-5-13.8-8.8-19.2-16.7c-0.1,0-0.1,0.1-0.2,0.1s-0.1,0.1-0.2,0.1s-0.1,0.1-0.2,0.1
	c6,5.1,12.2,11.3,19.7,16.3c-8.1-2.3-14.1-15.4-21.8-14.1c-0.1,0-0.1,0-0.2,0c-4.3,7.8,2,14,9.5,16.5c-6.2-2.5-15-6.2-12.7-14.6
	c-0.1,0-0.1,0.1-0.2,0.1c-0.2,0.2-0.5,0.4-0.7,0.6c-0.1,0.1-0.1,0.1-0.1,0.1c1.2,0,1.2,0,1.2-1.2c-1.2,8.8,5,11.2,11.2,15
	c-5-3.8-12.5-6.2-11.2-15c-1.2,1.2-2.5,2.5-3.8,3.9c-0.1,0.1-0.1,0.1-0.2,0.2c-4.2,4.7-7.4,10.3-9.5,16.3c0,0.1,0,0.1,0,0.2
	c1.5,5.6,6.1,8.5,10.5,11.4c0.1,0,0.1,0.1,0.2,0.1c1.5,0.3,2.8,2.8,4,1.6c0,0-1.2,0-1.6,0.1l0.1,0.1c0.4,0.3,0.8,0.6,1.2,1
	c0.1,0,0.1,0.1,0.1,0.2c1.3,2.3-1.2,3.6-1.2,6.1c-1.2-2.5,2.5-3.7,0.8-6c-0.1,0-0.1-0.1-0.2-0.1c-0.3-0.2-0.6-0.4-0.9-0.6
	c-0.1,0-0.1-0.1-0.2-0.1c2.9,0.6,0.4,3.1,1.7,4.3c1.2-3.7-2.5-5-4.6-6.4l-0.1-0.1c-4.2-3-8.4-6.5-12.5-10.2c-0.1,0-0.1,0-0.2,0
	s-0.1,0-0.2,0c4.3,3.7,9.1,6.6,13.3,10l0.1,0.1c1.7,0.4,2.9,2.9,4.2,1.6c0,7.5-1.2,7.5-1.6,0.6c0,0,0.1,0.1,0.2,0.1
	c0.3,0.3,0.6,0.6,1,1c0.1,0.1,0.1,0.1,0.1,0.2c2.9,1.8-3.3,3,0.4,4.3c0-1.2,0-2.5-0.6-4.1l-0.1-0.1c-0.4-0.3-0.7-0.6-1.1-0.9
	l-0.1-0.1c0.6,0.1,1.9,0.1,1.9,0.1c1.2,2.5-2.5,3.7-1.2,6.2c2.5-3.7,1.2-7.5-3.5-8.9c-0.1,0-0.1-0.1-0.2-0.2
	c-5.1-4.3-10.1-8.3-16.3-11c6.5,1.9,10.9,7.1,16.3,11.3l0.1,0.1c3.5,1.1,6,4.9,3.5,8.6c-1.2-2.5,3.8-3.7-0.6-6.6c0,0,0.1,0,0.1,0.1
	c0.4,0.2,0.8,0.5,1.2,0.7c0,0,0.1,0,0.1,0.1c1.6,2-2.1,3.2-0.9,5.7c-1.2-2.5,2.5-3.7,0.7-5.8c0,0-0.1,0-0.1-0.1
	c-0.4-0.2-0.8-0.4-1.1-0.6c-0.1,0-0.1-0.1-0.2-0.1c0.6,0.3,1.9,0.3,1.9,0.3c1.2,2.5-2.5,3.7-1.2,6.2c1.2-5,1.2-7.5-3.7-8.6
	c-0.1,0-0.1-0.1-0.2-0.1c-5.6-4.4-9.8-10.3-18.1-10.7c0,0.1-0.1,0.1-0.1,0.1c3.4,11.9,14.6,10.6,23.4,13.1c1.2,1.2-1.2,3.7-1.2,6.2
	c0-1.2,0-3.7,1.2-5c-10-2.5-21.2-3.7-27-14.3c-0.1,0-0.2,0-0.2,0c-0.2,0-0.3,0-0.5,0.1l0,0c6.5,9.2,16.5,10.4,26.5,12.9
	c3.8,1.2-1.2,3.7,0,6.2c-1.2-2.5,2.5-5,1.2-5c-11.9-1.2-19.3-9.2-29.9-12.8c-0.1,0-0.1,0.1-0.2,0.1c0,2.9,1.2,5.2,3,7.1
	c0.1,0.1,0.1,0.1,0.2,0.2c5.7,2,8,6.8,11,11.2c0,0.1,0.1,0.1,0.1,0.3c0.2,0.7,0.2,1.3,0.1,1.9c0,0.1-0.1,0.3-0.1,0.4
	c-0.4,1.6-0.4,1.6-1,1.9c-0.1,0.1-0.1,0.3-0.2,0.4c-0.2,0.5-0.4,1.1-0.4,1.8c0.6,0,1-0.2,1.2-0.5c0.1-0.1,0.2-0.2,0.2-0.3
	c2.3-1.7,3.5,2.1,4.8,0.8c1.2-1.2-1.3-2.5-2.1-3.2c0.1,0.1,0.2,0.2,0.3,0.3c0.6,0.6,1.2,1.2,1.8,1.7c-0.7-0.5-1.2-1-1.8-1.6
	c-0.1-0.1-0.2-0.2-0.3-0.3c-1.7,1.9,3.3,0.7,2,1.9c-1.3,0-3.8,0-5.1,0c-0.1,0.1-0.1,0.3-0.2,0.4c-0.3,0.5-0.5,0.8-0.9,0.8
	c-0.5-0.5-0.1-1.3,0.4-2.3c0.1-0.1,0.2-0.3,0.3-0.4c0.5,0.2,0.5-1.1,0.7-1.3c0.1-0.2,0.1-0.3,0.2-0.5c0.2-0.6,0.3-1.3,0.1-2
	c0-0.1,0-0.2-0.1-0.3c-2.1-3.3-4.2-6.9-8.4-8.7c0,0,0,0,0.1,0.1c1.6,1.1,3.3,2.1,5.1,3.1l0.1,0.1c0.2,1.7,2.5,2.9,3.5,5.1
	c0.1,0.1,0.1,0.3,0.1,0.7c0.1,0.7,0,1.2-0.2,1.7c0,0.1-0.1,0.3-0.1,0.4c6.9,0.5-0.6,1.7-0.9,1.8c-0.2,0.1-0.2,0.2-0.3,0.3
	c-0.3,0.6-0.6,1.3-0.6,2.1c0.2-0.5,0.4-0.9,0.6-1.4c0.1-0.2,0.1-0.3,0.2-0.4c0.5-0.7,0.5-0.7,0.8-2.1c0-0.2,0.1-0.3,0.1-0.4
	c0.4-0.8,0.8-1.4,1.6-1.9c0.1-0.3,0.1-0.5,0.1-0.6c-0.2-1.4-2-2.4-1.8-3.6c0,0,0.1,0,0.2,0.1c2.2,1.3,4.2,2.6,5.8,4.2
	c-2-1.1-4-2.3-5.9-3.5c-0.1,0-0.1-0.1-0.2-0.1c0.3,0.8,0.6,1.7,1,2.5c0.1,0.1,0.1,0.3,0.2,0.4c0,0.3,0,1.1,0,2c0,0.2,0,0.3,0,0.5
	c1.2,0.7,3.7,3.2,5,4.4c-1.2-1.2-3.8-1.2-3.9-3.9c0.1-0.1,0.3-0.1,0.5-0.2c0.1,0.1,0.2,0.3,0.3,0.4c1,1.4,2,2.7,3.1,3.7
	c-1.1-1.1-2.2-2.2-3.1-3.2c-0.1-0.1-0.2-0.2-0.3-0.3c-1.6,1,4.6,1,0.9,3.5c-1.2-1.2-2.5-1.2-3.5-0.8c-0.1,0.1-0.1,0.2-0.2,0.3
	c-0.3,0.3-0.6,0.5-1.2,0.5c-1.2-2.5,1.2-3.8,1.4-6.7c-0.1-0.1-0.2-0.2-0.3-0.4c-0.9-1.3-1.9-2.8-2.8-4.6c-0.1-0.1-0.1-0.1-0.2-0.2
	c-1.7-1.1-3.3-2.3-4.9-3.5c-0.1,0-0.1-0.1-0.1-0.1c4,1.7,6.1,5.3,8.3,8.8c0,0.1,0.1,0.2,0.1,0.3c1,2.6-2.8,3.8-1.5,6.3
	c0.3-0.3,0.6-0.6,0.9-0.9c0.1-0.1,0.2-0.2,0.4-0.3c2.4-0.1,3.6,2.4,6.1,1.2c-1.2-1.2-2.5-2.5-3.8-3.8c0,0,0,1.2,0.6,1
	c0,0.1,0.1,0.2,0.2,0.3c0.9,0.9,1.8,1.8,2.9,2.4c-1.1-0.7-2-1.5-2.9-2.4c-0.1-0.1-0.2-0.2-0.3-0.3c-0.6,0.2-0.6-1-0.6-1
	c1.2,1.2,1.2,1.2,2.5,2.5c-1.3,0-3.8,0-4.9-0.1c-0.2,0.1-0.3,0.2-0.4,0.3c-0.3,0.5-0.6,1-1,1c-0.5-0.5-0.1-1.3,0.4-2.3
	c0.1-0.1,0.2-0.3,0.2-0.4c0.6,0.2,0.6-1.1,0.7-1.3c0.1-0.2,0.1-0.3,0.2-0.5c0.2-0.6,0.2-1.3-0.1-2c0-0.1-0.1-0.2-0.1-0.2
	c-3.1-4.5-5.5-9.4-11-11.2l-0.1-0.1c-2.3-2.1-4.4-4.5-6.2-7.2c-0.1,0-0.2,0-0.2,0c-4,1.4-7.8,3.4-11.3,5.9v0.1
	c0.9,1.2,1.8,2.4,2.8,3.5l0.1,0.1l0.1,0.1c0.9,0.5,0.9,0.5,1.4,1.2c0,0,0,0,0.1,0.1c0.8,0.7,1.6,1.4,2.5,2.1c0.1,0,0.1,0.1,0.2,0.1
	c6.8,8.3,18,5.8,26.8,12c-7.5-5-16.2-3.8-24.2-9.1v0.1c0.9,2.4,1.5,4.4,0.5,6.5c0-1.4,0.4-2.8,0.3-4.2c0-0.1,0-0.3,0-0.4
	c-0.3-0.4-0.3-1.7-0.3-1.2c-0.1-0.2-0.2-0.3-0.3-0.5c-0.1-0.1-0.1-0.2-0.2-0.3s-0.1-0.2,0.2,0c7.7,5.4,17.7,5.4,25.2,9.1
	c-8.8-3.8-18.8-5-26.3-10c2.5,1.2,3.8,2.5,6.3,3.8c-2.5,0-3.8-2.5-6.1-2.6c0,0.2,0.1,0.3,0.1,0.5c1.1,5.4,1.6,9.8,7.3,12.1
	c-3.3-3.3-5.7-5.6-5.1-9.9c0-0.1,0-0.2,0-0.2c1.8,0.4,3.4,1,4.9,1.7c0.1,0.1,0.3,0.1,0.4,0.2c3.4,0.8,7.2,2,10.9,2
	c-2.5,0-5,0-7.6-0.4c0,0,0.1,0.1,0.2,0.2c2.2,1.1,4.5,2.2,7.3,2.7c-2.4-0.6-4.9-1.5-7.2-2.7c-0.1-0.1-0.3-0.1-0.4-0.2
	c2.6,0.4,5.1,0.4,7.6,0.4c-3.8-1.2-7.5,0-10.6-2.3c-0.3-0.1-0.4-0.2-0.5-0.3c-1-0.7-2-1.5-2.9-2.3c0,0,0.1,0,0.1,0.1
	c0.6,0.4,1.2,0.9,1.7,1.3c0.1,0,0.1,0.1,0.2,0.1c0.4,0.3,0.8,0.5,1.2,0.8c0.1,0,0.1,0.1,0.2,0.1c4.5,0,10.7,2.5,15.7,3.8
	c-3.7-1.2-8.7-1.2-12.5-1.8c0.1,0,0.1,0.1,0.2,0.1c2.1,1.2,4.5,2.2,7.3,2.9c-2.9,0-5.1-1.5-7.4-2.8c-0.1-0.1-0.3-0.1,0-0.2
	c2.4,0.5,4.9,0.5,7.4,0.5c-2.5,0-5,0-7.6-0.5c0.1,0,0.3,0.1,0.4,0.1c0.3,0.1,0.6,0.2,0.8,0.2c0.1,0,0.1,0,0.2,0
	c1.1-1.2,2.4,1.3,3.6,1.3c-1.2-1.2-2.5-1.2-3.4-1.5c-0.1,0-0.1,0-0.1,0c-0.4-0.1-0.8-0.2-1.2-0.3c-0.1,0-0.3-0.1-0.1,0
	c2.3,1.9,4.8,0.7,7.3,0.7c-3.8,1.2-7.5-1.2-10.9-1.6c-0.1-0.1-0.3-0.2-0.4-0.3c-0.4-0.3-0.8-0.6-1.3-0.7c-0.1,0-0.1-0.1-0.2-0.1
	c-0.6-0.5-1.1-1-1.5-1.8c0,0,0.1,0.1,0.2,0.1c0.5,0.3,1,0.6,1.5,0.9c0.1,0,0.1,0.1,0.2,0.1c0.4,0.3,0.7,0.6,1.1,0.9
	c0.1,0.1,0.3,0.2,0.4,0.3c3.4,2.2,7.1,1,10.9,2.2c-2.5,0-5,0-7.5-0.6c0.1,0.1,0.3,0.1,0.4,0.2c2.5,0.9,5,1.5,7.1,2.9
	c-3,0-5.2-1.6-7.4-3.1c0,0,0.1,0,0.2-0.1c4.7,0.7,9.7,1.9,14.7,3.2c-5-1.2-10-3.8-14.7-3.5c0,0,0,0,0,0.1c0.3,0.1,0.7,0.3,1,0.5
	c0.1,0,0.1,0.1,0.2,0.1c2.2,0.4,3.5,1.7,6,2.9c-1.2-1.2-2.5,1.2-2.8-0.8c-0.1,0,0,0,0.1,0.1c0.5,0.2,1,0.5,1.5,0.7
	c-0.5-0.2-1-0.3-1.5-0.5c-0.1,0-0.2-0.1-0.2-0.1c1.7,0.6,1.7,0.6,3,0.6c-2.5,0-5-1.2-6.4-2.1c-0.1,0-0.1-0.1-0.2-0.1
	c-0.3-0.1-0.5-0.3-0.8-0.4c-0.1-0.1-0.2-0.1-0.4-0.2c2.7,0.4,6.4,0.4,8.9,0.4c-2.5,0-6.2,0-8.7-0.5c0.1,0,0.1,0.1,0.2,0.1
	c1.7,1,2.9,1.9,4.8,2.8c-1.9-1.2-3.4-2.2-5-3c0,0,0,0,0.2-0.1c3.6,0.6,7.3,0.6,11.1,1.8c-5-2.5-8.8-2.5-14.1-3.4
	c-0.2,0-0.3-0.1-0.5-0.1c-0.5-0.2-1-0.5-1.5-0.8c-0.1,0-0.1-0.1-0.1-0.1c-0.6-0.4-1.1-0.7-1.7-1.1c-0.1,0-0.1-0.1-0.1-0.1
	c0.7,0.3,1.3,0.6,1.9,0.9c0.1,0,0.1,0.1,0.2,0.1c0.4,0.2,0.8,0.5,1.3,0.7c0.1,0,0.1,0.1,0.2,0.1c5.8,1.3,10.8,2.5,17,3.8
	c-5,0-8.8-2.5-13.3-2.3c-0.1,0-0.2,0-0.2,0c2.5,1,5.1,2.1,7.3,3.5c-2-1-4.8-2-7.3-3.1c-0.1,0-0.1-0.1-0.2-0.1
	c3.7,1.9,7.5-0.6,11.2,1.9c-3.8-1.2-7.5-1.2-11.4-1.7c0.1,0,0.1,0.1,0.2,0.1c0.4,0.3,0.7,0.5,1.1,0.7c0.1,0,0.1,0.1,0.2,0.1
	c1.2,2,3.7,0.7,5,2c-1.2-1.2-3.8,0-4.9-2.1c-0.1-0.1-0.2-0.1-0.2-0.2c-0.4-0.3-0.7-0.5-1.1-0.8c0,0,0-0.1,0.1-0.1
	c4.9-0.6,9.9,1.9,14.9,3.1c-5-2.5-10-3.8-14.7-3.7c0.1,0,0.1,0.1,0.2,0.1c1.5,0.6,2.7,1.5,4.5,2.4c-1.8-0.6-3.3-1.5-4.7-2.4
	c0.1,0,0.2,0,0.4,0c3.1-0.1,5.6-0.1,8.1,1.2c-3.8-2.5-7.5-2.5-11.7-3.1c-0.1,0-0.1-0.1-0.2-0.1c-0.4-0.2-0.9-0.5-1.4-0.6
	c0,0-0.1,0-0.1-0.1c-0.6-0.4-1.2-0.8-1.9-1.1c0,0-0.1,0-0.1-0.1c1,0.9,2,1.7,3.1,2.4c0.1,0,0.1,0.1,0.2,0.1c5.7,1.3,12,1.3,17,5.1
	c-3.8-2.5-8.8-2.5-13.4-3.3c-0.1,0-0.1,0-0.2,0c2.4,1.1,4.9,2,7.4,3.3c-2.8-0.6-5.1-1.6-7.3-2.7c-0.1-0.1-0.3-0.1-0.2-0.2
	c2.6,0.4,5.1,0.4,7.6,0.4c-3.8,0-7.5-1.2-10.9-2c-0.1-0.1-0.3-0.1-0.4-0.2c-1.5-0.7-3.1-1.3-4.9-1.7v0.1c-0.6,4.4,1.7,6.7,5.1,10.1
	c-5.7-1.1-6.2-7.6-7.5-12.4c0-0.1-0.1-0.3,0.2-0.2c2.3-1.1,3.5,2.7,6,2.7c-2.5-1.3-5-2.5-7.5-5c2.5,1.2,3.7,3.7,6.2,5
	c-2.5,0-2.5-2.5-4.7-2.6c-0.5-0.2-0.5-0.1-0.5,0.1c0.4,4.3,1.8,7.8,5.3,11.3c-2.2-2.2-2.5-5.5-2.4-9c0.1,0,0.1-0.1,0.2-0.1
	c2.2-0.9,3.4,1.6,4.7,1.6c-1.2,0-2.5-2.5-3.2-1.9c0.1,0,0.1,0.1,0.2,0.1c0.6,0.4,1.2,0.7,1.8,1c0.1,0,0.1,0.1,0.2,0.1
	c0.6,0.1,1.1,0.2,1.7,0.4c0.2,0,0.3,0.1,0.4,0.1c4,0.2,9,1.4,12.7,2.7c-3.8,0-6.2-2.5-9.5-1.2c-0.1,0-0.1,0-0.1,0.1
	c2.2,1.3,4.2,2.9,7.1,3.6c-3-1-5.2-2-7.4-3.1c0,0,0,0,0.1,0c3.5,1.9,7.3,0.6,11,1.9c-3.8-2.5-7.5,0-11-1.9c-0.1,0-0.1,0-0.2,0
	c0.4,0.2,0.8,0.4,1.2,0.6c-0.4-0.2-0.8-0.4-1.2-0.6c0,0,0,0,0-0.1c3.7,1.9,8.7,0.7,12.5,1.9c-3.7-2.5-8.7,0-12.3-2c0,0,0,0,0,0.1
	c2.5,1.2,5.3,2.1,7.3,3.1c-2.8-0.7-5.1-1.8-7.3-2.9c-0.1,0-0.1-0.1-0.2-0.1c3.7,0.5,8.7,0.5,12.5,1.8c-5-1.2-11.2-2.5-15.8-3.8
	c-0.1,0-0.1-0.1-0.2-0.1c-0.4-0.3-0.8-0.5-1.2-0.8l-0.1-0.1c-0.6-0.4-1.2-0.8-1.8-1.1c-0.1,0-0.1-0.1-0.2-0.1c0.9,1,1.9,2,3,2.8
	c0.1,0.1,0.2,0.2,0.4,0.3c1,0.4,3.5,0.4,4.8,1.6c-1.2,0-1.2,0-2,0c0,0,0.1,0.1,0.3,0.2c1.6,0.7,3.4,1.1,5.4,1.1
	c-1.6-0.4-3.1-1.1-4.6-1.8c-0.1,0-0.1-0.1-0.2-0.1c4.8,0.7,9.8,0.7,13.6,3.2c-5-5-11.3-2.5-16.3-4.8c-0.2,0-0.4-0.1-0.7-0.1
	c-1.7-0.8-3.4-1.5-5.3-1.7c-0.1,0-0.1,0-0.3-0.1c-0.8,4.5,1.6,6.9,5.1,10.4c-4.7-2.4-7.2-6.9-7.5-12.1c0-0.2,0-0.3,0-0.5
	c2.5,0.1,3.8,2.6,6.3,2.6c-2.5-1.3-6.3-2.5-8.4-4.8c-0.1-0.1-0.2-0.1-0.4-0.2c0.1,0.1,0.2,0.1,0.3,0.2c0.1,0.1,0.2,0.1,0.4,0.3
	c1.8,0.8,3.1,3.3,5.6,3.3c-1.3-1.2-2.5-1.2-4.2-1.4c0,0.2,0,0.3,0.1,0.5c0.4,3.2,0.7,6.3,2.9,8.4c0-2.1,0-4.1,0-6.3
	c0-0.2,0-0.3,0.2-0.3c1-0.9,2.3,1.6,3.5,0.4c-1.3,0-1.3,0-2.2-0.6c-0.1-0.1,0,0,0.1,0.1c0.7,0.4,1.3,0.8,2,1.2l0.1,0.1
	c0.4,0.3,0.9,0.5,1.3,0.8c0.1,0.1,0.3,0.1,0.7,0.2c3,1.9,8-0.6,10.5,1.9c-2.5,0-5,0-7.6-0.4c0.1,0.1,0.2,0.2,0.3,0.3
	c0.4,0.4,0.8,0.8,1.1,1.4c0-1-0.4-1.4-0.9-1.6c-0.1,0-0.3-0.1-0.4-0.1c1.3,0.4,3.8,0.4,5.1,0.4c-1.2,0-3.8,0-5.6-0.1
	c0,0.1,0.1,0.1,0.2,0.2c0.5,0.3,0.9,0.7,1.4,1c0,0,0.1,0,0,0c-0.1-0.1-0.1-0.1-0.2-0.2c-0.4-0.4-0.9-0.8-1.4-1.2c0.2,0,0.3,0,0.6,0
	c2.3,0.3,6.1,0.3,8.6,0.3c-2.5,0-6.2,0-8.3-0.7c-0.2,0-0.3,0-0.4,0c2.9,1.1,4.2,2.2,7.4,3.2c-2.2-1.5-4.8-2.5-7.3-3.5
	c0.1,0,0.1,0,0.3,0c4.4-0.2,9.4,1,14.4,3.5c-5-3.8-11.3-3.8-18-5.1c-0.1,0-0.2-0.1-0.3-0.1c-0.4-0.2-0.8-0.5-1.2-0.7
	c-0.1,0-0.1-0.1-0.2-0.1c-0.5-0.4-1.1-0.7-1.6-1.1c-0.1,0-0.1-0.1-0.2-0.1c0.9,1.1,1.9,1.9,2.9,2.6c0.1,0.1,0.3,0.2,0.7,0.3
	c3-0.6,6.7,1.9,9.2,1.9c-2.5,0-3.8,0-6.3-0.4c0.1,0.1,0.3,0.1,0.4,0.2c2.3,0.9,4.8,1.5,7.2,2.7c-2.7-0.5-5-1.8-7.1-3
	c-0.1,0-0.1-0.1-0.2-0.1c4.8,0.7,9.8,0.7,14.8,3.2c-6.3-2.5-12.5-5-18.3-5.1c-0.1,0-0.1-0.1-0.2-0.1c-1.5-0.7-3.1-1.2-4.9-1.3v0.1
	c-0.5,4.2-0.6,8.8,4.7,8.8c-6.7-1.1-6.4-6.2-7.3-11c0-0.1-0.1-0.3-0.1-0.4c3.7,0.2,4.9,2.7,7.4,3.9c-2.5-2.5-6.2-3.8-9.1-6
	c-0.4-0.2-0.5-0.3-0.6-0.4c-0.8-0.4-1.5-0.9-2.2-1.3h-0.1c0.9,0.2,1.6,0.5,2.2,0.9c0.1,0.1,0.2,0.2,0.4,0.3c2,1.6,4.5,4.1,7,5.4
	c-2.5,0-2.5-2.5-4.6-2.6c-0.4-0.2-0.4-0.1-0.4,0c1.9,4.6,1.3,11.7,7.5,12.5c-5.7-2.3-6.2-7.7-7.2-12.5c0-0.1-0.1-0.3,0.1-0.3
	c2.1,1.5,4.6,2.8,7.1,4c-2.5-2.5-6.2-3.8-9.3-6.6c-0.1-0.1-0.2-0.2-0.4-0.2c-0.7-0.4-1.5-0.8-2.4-0.9l0,0c0.8,0.5,1.6,1,2.4,1.5
	c0.1,0.1,0.3,0.2,0.8,0.5c2.6,2,5.1,3.2,7.6,4.5c-2.5,0-3.8-2.5-6.3-2.6c0,0.2,0.1,0.3,0.1,0.5c1.2,5.5,1.7,9.9,7.4,12.1
	c-3.3-3.3-5.7-5.6-5.1-10c0-0.1,0-0.2,0-0.2c2.2,0.1,3.9,0.6,5.5,1.4c0.1,0,0.2,0.1,0.4,0.1c5.4,1.2,10.4,1.2,14.2,3.7
	c-3.8-2.5-7.5,0-11.6-1.6c0,0.1,0.1,0.1,0.1,0.2c0.1,0.1,0.1,0.1,0.2,0.2c0-0.1-0.1-0.1-0.1-0.2s-0.1-0.1-0.1-0.2
	c2.7,0.4,6.5,0.4,9,0.4c-3.8-1.2-8.8,0-12.2-1.9c-0.1,0-0.2,0-0.2-0.1c-1.5-0.4-2.9-0.9-3.2-2.6c-0.1-0.1,0,0,0.1,0.1
	c0.5,0.3,1.1,0.7,1.6,1c0.1,0,0.1,0.1,0.2,0.1c0.4,0.3,0.8,0.6,1.1,0.9c0.1,0.1,0.3,0.2,0.4,0.3c3.4,2.2,7.1,0.9,10.9,2.2
	c-2.5,0-5,0-7.5-0.6c0.1,0.1,0.3,0.1,0.4,0.2c2.5,0.9,5,1.5,7.1,2.9c-3,0-5.2-1.6-7.5-3V260c2.5,0.5,6.3,0.5,8.8,0.5
	c-2.5,0-6.2,0-8.8-0.4c0,0,0,0,0,0.1c0.4,0.2,0.8,0.5,1.1,0.7c0.1,0,0.1,0.1,0.2,0.1c1.3,2,3.8,0.8,5,2c-2.5,0-3.8-1.2-5-2.3
	c-0.1-0.1-0.1-0.1-0.2-0.1c-0.3-0.2-0.6-0.4-0.9-0.6l-0.1-0.1c4.9,0.7,9.9,0.7,14.9,3.2c-5-2.5-10-3.8-14.8-3.7c0,0,0.1,0.1,0.2,0.1
	c2,0.9,3.9,2.4,5.8,2.4c-2.5,0-4.4-0.9-6-2c0,0,0-0.1,0.1-0.1c4.7,0.8,9.7-0.4,13.4,3.3c-5-5-11.3-3.8-16-5.2
	c-0.2,0-0.4-0.1-0.7-0.2c-0.5-0.3-1.1-0.6-1.7-0.8c0,0-0.1,0-0.1-0.1c-0.7-0.4-1.4-0.8-2-1.1c0.1,0,0.1,0.1,0.2,0.1
	c0.8,0.9,1.8,1.7,2.8,2.4c0.1,0.1,0.3,0.2,0.4,0.2c3.4,0.8,5.9,0.8,9.7,2c-2.5,0-3.8,0-6.3-0.5c0.1,0.1,0.3,0.1,0.4,0.2
	c1.6,0.6,3.2,1.1,4.6,1.5c-1.8,0-3.5-0.7-5.1-1.5c-0.1-0.1-0.2-0.1,0.3-0.1c2.3,0.4,4.8,0.4,7.3,0.4c-3.8-1.2-7.5,0-10.5-2.1
	c-0.4-0.1-0.5-0.2-0.7-0.3c-1.6-0.9-3.2-1.6-5-1.7c-0.1,0.1-0.1,0.1-0.1,0.2c-0.9,4.4,0.6,6.8,5.1,10.1c-5.9-2.4-6.2-7-7.6-12.4
	c0-0.2-0.1-0.3,0.2-0.3c1.1,1.5,2.4,1.5,3.7,1.5c-2.5,0-2.5-2.5-5.5-3c-0.3-0.2-0.4-0.3-0.5-0.3c-0.8-0.5-1.7-0.9-2.5-1.4l-0.1-0.1
	c1.2-0.2,2.4,1.1,2.4,2.3c-1.2-2.5-3.8-3.7-5.6-4.3c-0.1,0-0.1-0.1-0.2-0.1c-0.6-0.4-1.2-0.8-1.7-1.2c0,0-0.1,0-0.1-0.1
	c-0.1,0-0.1,0-0.2-0.1c-0.1,0-0.1-0.1-0.2-0.1c3.2,1,5.9,2.3,8.1,4.4c0.1,0.1,0.2,0.2,0.3,0.3c-0.4,2.4,3.3,1.2,3.3,3.7
	c0-1.2,0-1.2-1.2-1.4c-0.2-0.1-0.3,0-0.2,0.1c1.3,2,2.2,4.5,2.7,7.6c0,1.2,2.5,3.8,5,5c-1.2-1.2-3.7-3.7-6.2-3.7
	c0.9-3.6,0.3-6.5-1.1-8.8c-0.1-0.1-0.1-0.2,0.2,0c0.9,0.1,2.1,0.1,3.4,1.4c-2.5,0-3.8-2.5-5.2-3.4c-0.4-0.3-0.6-0.4-0.7-0.5
	c-2.9-2.4-7.1-3.7-11.3-3.8c-0.1,0-0.1,0-0.3,0c-1.3,1.3-2.6,2.6-3.8,4v0.1c0.4,0.8,0.9,1.6,1.4,2.3c0,0.1,0.1,0.1,0.1,0.2
	c2.2,1.8,4.5,3.7,6.8,5.6c0.1,0.1,0.1,0.1,0.1,0.1c4.1,1.7,5.3,5.4,9.1,4.2c-1.2-1.2-3.8,2.5-3.8-1.2c1.2,1.2,2.7,1.5,4.2,1.7
	c0.1,0,0.3,0,0.6,0.1c1.5,0.7,2.7,1.9,5.2,1.9c0-1.2-1.3-1.2-2-1.5c0.1,0,0.3,0.1,0.4,0.1s0.2,0.1,0.4,0.2c-0.3,0-0.6,0-0.9,0
	c-0.1,0-0.3,0-0.3,0.1c-1.3-0.1-1.3-0.1-2.8,0c-0.1,0-0.3,0-0.4,0c-1,0-2,0.1-3,0.2c0,0,0,0.1,0.1,0.1c1.6,1.5,3.2,3,4.9,4.6
	c-1.7-1.3-3.3-2.9-4.9-4.6c-0.1-0.1-0.1-0.1,0-0.2c1-0.1,2.1-0.2,3.4-0.1c0.2,0,0.3,0,0.5,0.1c1-0.2,1-0.2,1.9,0.2
	c0.1,0,0.2,0,0.4,0c0.9,0.2,1.8,0.4,2.5,0.8c-0.5-0.7-1-1.2-1.6-1.5c-0.1-0.1-0.2-0.1-0.4-0.2c0.7,0.4,2,0.4,2,1.7
	c-1.3-2.5-3.8,0-5.1-2.2c-0.4-0.1-0.6-0.2-0.7-0.2c-1.8-0.1-3.7-0.2-5.4-1.4c1.6,0.5,3.3,0.8,5.1,1.2c0.2,0,0.3,0.1,0.5,0.1
	c1.9-1.3,3.2,2.5,5.7,2.5c0-1.2-1.3-1.2-2.1-1.6c0.1,0,0.3,0.1,0.4,0.2c1,0.4,2,0.8,2.9,1.4c-0.9-0.6-1.8-1.1-2.8-1.4
	c-0.1,0-0.3-0.1-0.4-0.1c0.8,0.2,2,0.2,2,1.5c-2.5,0-2.5-1.2-4.9-1.8c-0.4-0.2-0.7-0.2-0.8-0.2c-3.9-0.4-7.9-0.8-9.7-5.2
	c-0.1,0-0.1-0.1-0.2-0.1c-0.9-0.7-1.9-1.3-3-1.8c0,0,0.1,0,0.1,0.1c0.4,0.3,0.9,0.6,1.3,0.9c0.1,0,0.1,0.1,0.2,0.1
	c0.6,0.2,1.2,0.4,1.7,0.7l0.1,0.1c2.4,3,5.8,4.1,9.2,4.9c0.1,0,0.3,0.1,0.4,0.1c1.8,1.1,3.1,2.4,5.6,2.4c0-1.2-1.3-1.2-2-1.7
	c0.1,0,0.2,0,0.4,0.1c0.6,0.1,1.1,0.2,1.7,0.4c-0.6,0-1.2-0.1-1.7-0.2c-0.1,0-0.3-0.1-0.4-0.1c0.8-0.9,2.1,1.6,3.3,1.6
	c-2.5,0-3.7-2.5-6.9-3c-0.1-0.1-0.3-0.1-0.4-0.2c-1.7-0.7-3.5-1.2-5.2-0.6c1.7,0,3.5,0.3,5.2,0.7c0.1,0,0.3,0.1,0.4,0.1
	c1.9,1.7,4.4,1.7,6.9,3c0-2.5-3.7,0-3.3-1.9c0,0,0.1,0,0.3,0.1c0.6,0.2,1.2,0.4,1.7,0.6c-0.5,0-1.1-0.1-1.7-0.1
	c-0.2,0-0.3,0-0.5-0.1c-1.6,0.2-1.6,0.2-3.3-0.4c-0.2,0-0.3,0-0.5,0c-0.9,0-1.7,0.1-2.4,0.5c0,0.1,0,0.1,0.1,0.2
	c1,1.3,2.1,2.5,3.2,3.7c-1-1.5-2.1-2.5-3.3-3.5c-0.1,0-0.1-0.1-0.1-0.1c1.1,0,2.1,0,3.1,0c0.1,0,0.3,0,0.5,0
	c1.2-0.1,1.2-0.1,2.1,0.2c0.1,0,0.2,0,0.3,0c1.1,0.2,2.3,0.5,3.7,0.9c-0.9-0.6-1.9-1.1-2.9-1.4c-0.1-0.1-0.3-0.1-0.4-0.2
	c0.8,0.3,2.1,0.3,2.1,1.6c-2.5,0-3.8-3.7-5.7-2.5c-0.2,0-0.3-0.1-0.5-0.1c-1.8-0.4-3.6-0.7-5.1-1.2c2,0.7,3.6,1,5.2,1.3
	c0.1,0,0.3,0.1,0.4,0.1c1.9-1.4,3.1,2.4,5.6,2.4c-1.3,1.3-1.3-2.5-2.1-1.5c0.1,0,0.2,0,0.4,0.1c0.2,0.1,0.3,0.1,0.5,0.2
	c-0.1-0.1-0.3-0.1-0.4-0.2s-0.3-0.1-0.4-0.2c0.8,0.3,2,0.3,2,1.6c-2.5,0-3.8-3.7-5.6-2.3c-0.2,0-0.3,0-0.5,0
	c-1.4-0.1-2.8-0.1-3.9-0.1c1.5,0.7,3,0.2,4.2,0.1c0.1,0,0.3,0,0.7,0.2c-1.2,2.3,3.8-0.2,2.6,2.3c0-2.5-1.3,0-2.2-1.2
	c-0.3-0.1-0.4-0.1-0.6-0.1c-1.2,0-2.6,0.1-3.4,0.3v0.1c1.6,1.4,3.3,2.9,5,4.5c-1.7-1.7-3.4-3.1-5-4.5c-0.1-0.1-0.1-0.1,0-0.1
	c0.8-1,2-0.4,3.2-0.4c0.1,0,0.3,0,0.4,0c2.7-1.2,3.9,1.3,6.4,1.3c-2.5,0-5-2.5-6.9-2.5c-0.1,0-0.3,0-0.4,0c-1.2,0-2.3,0-3.9,0
	c1.3-0.4,2.6-0.4,3.9-0.2c0.1,0,0.3,0.1,0.4,0.1c1.9-1.2,3.2,2.6,5.7,2.6c0-1.2-1.3-1.2-2.2-1.4c0.1,0.1,0.3,0.1,0.4,0.2
	c1,0.4,2,0.8,3,1.2c-1-0.3-2-0.8-3-1.2c-0.1-0.1-0.3-0.1-0.4-0.2c1,0.1,2.2,0.1,2.2,1.4c-2.5,0-3.8-3.7-5.7-2.6
	c-0.1,0-0.3-0.1-0.4-0.1c-1.3-0.3-2.6-0.3-3.9,0.2c1.3-0.4,2.6-0.4,3.9-0.2c0.1,0,0.3,0.1,0.4,0.1c1.9-1.2,3.2,2.6,5.7,2.6
	c0-1.2-1.3-1.2-2.2-1.4c0.1,0.1,0.3,0.1,0.4,0.2c1,0.4,2,0.8,3,1.2c-1.4,0-2.6-0.3-3.7-0.7c-0.1,0-0.3-0.1-0.4-0.1
	c-0.9-0.4-0.9-0.4-2.5-0.6c-0.1,0-0.3,0-0.4,0c-0.9-0.1-1.7,0-2.7,0.4c0,0,0,0,0.1,0.1c1.8,1.5,3.5,3,4.7,4.8
	c-1.2-1.8-3.3-3-5.3-4.4c-0.1,0-0.1-0.1-0.1-0.1c0.4-4.2-2.1-0.5-2.6-2c-0.1-0.1-0.1-0.1-0.2-0.2s-0.1-0.1-0.2-0.2
	c0-0.1-0.1-0.1-0.1-0.1c2.1,0.3,4.3,0.5,6.4,0.9c0.1,0,0.4,0.1,0.8,0.3c1.2,0.9,2.5,2.1,3.7,2.1c2.5-2.5-1.2,0-0.9-1.5
	c0-0.1,0.1,0,0.2,0c1.1,0.4,2.2,0.8,3.1,1.5c-0.9-0.6-1.9-1.1-2.9-1.4c-0.1-0.1-0.3-0.1-0.4-0.2c0.8,0.3,2.1,0.3,2.1,1.6
	c-2.5,0-3.8-3.7-5.7-2.5c-0.2,0-0.3-0.1-0.5-0.1c-1.8-0.4-3.6-0.7-5.1-1.2c1.6,0.5,3.3,1,5.1,1.6c0.2,0,0.3,0.1,0.5,0.1
	c0.7,0.8,1.9,2.1,4.4,2.1c0,0-1.2-1.2-1.3-1.2c0.1,0,0.3,0.1,0.4,0.1c1.2,0.3,2.3,0.7,3.3,1c-1-0.7-2.1-1.2-3.1-1.6
	c-0.1,0-0.2-0.1-0.2,0c0.8,0.3,2.1,0.3,2.1,1.6c-2.5,0-3.8-3.7-5.6-2.4c-0.1,0-0.3,0-0.4-0.1c-1.6-0.2-3.4-0.3-5.4-0.4
	c-0.1,0-0.1-0.1-0.1-0.1c-0.1-0.1-0.1-0.2-0.2-0.3c0.1,0.1,0.1,0.1,0.2,0.2c0,0.1,0.1,0.1,0.2,0.2c2.7,0.4,4,0.4,5.2,1.7
	c-1.2,0-1.2,0-3,0.6c0,0.1,0.1,0.2,0.2,0.3c1,1.1,1.9,2,2.8,2.8c0,0-1.2-1.2-1.9-1.8l0.1,0.1c3.4,3.4,7.1,6.4,11.7,7.9
	c-4.4-1.8-8.2-4.7-11.2-8c-0.1-0.1-0.1-0.1-0.2-0.2c0.2,1.9,3.9,0.7,2.7,3.2c-0.9-1.9-2.6-3-3.9-4.5c0-0.1,0-0.1,0-0.2
	c1.1-0.2,2.2-0.2,3.2-0.3c0.2,0,0.3,0,0.5,0c1.5-0.1,1.5-0.1,2.8,0c0-0.1,0.2-0.1,0.3-0.1c0.3,0,0.6,0,0.9,0
	c-0.2-0.1-0.3-0.1-0.5-0.2c-0.2,0-0.3-0.1-0.4-0.1c0.9,0.3,0.9,0.3,0.9,1.5c-1.2-1.2-2.5-2.5-4.4-2.4c-0.1,0-0.3-0.1-0.4-0.1
	c-1.6-0.3-3.2-0.6-5.2-1.3c1.6,0.5,3.3,0.8,5.1,1.2c0.2,0,0.3,0.1,0.5,0.1c1.9-1.3,3.2,2.5,5.7,2.5c0-1.2-1.3-1.2-2.1-1.6
	c0.1,0,0.3,0.1,0.4,0.2c1,0.4,2,0.8,2.9,1.4c-1.1,0-2.4-0.5-3.7-0.9c-0.2,0-0.3-0.1-0.2,0c-1-0.3-1-0.3-2.5-0.6
	c-0.2-0.1-0.4-0.1-0.6-0.1c-0.8-0.1-1.5,0-2.3,0.2c-0.1,0-0.2,0.1-0.3,0.1c1.5,1.6,2.7,4.1,4.6,5.1c-1.2-1.3-5,0-3.7-3.3
	c0,0,0.1,0.1,0.2,0.2c2.4,3.1,5.7,6,9.8,8.1c-3.2-2.1-7.3-5.1-9.9-8.2c-0.1-0.1-0.1-0.2-0.1-0.1c1.2,0.8,2.5,2,3.7,3.3
	c-1.9-1.9-3.1-3.1-4.8-4.6v-0.1c0.8-0.1,1.8-0.3,2.8-0.4c0.1,0,0.3,0,0.5,0c1.5-1,2.8,1.5,4,0.2c0,0-1.2,0-1.1,0c0,0,0.1,0,0.3,0
	c0.7,0.2,1.4,0.6,2.1,1.2c-0.5-0.5-1.1-0.9-1.7-1.3c-0.1-0.1-0.2-0.1-0.4-0.2c0.8,0.2,2.1,0.2,2.1,1.4c-1.3-2.5-3.8,0-5.2-2.2
	c-0.4-0.1-0.5-0.2-0.7-0.2c-1.3-0.1-2.7-0.1-4.2-0.1c1.1-0.6,2.5-0.4,3.9,0c0.2,0,0.3,0.1,0.5,0.1c0.6,1.1,3.1,1.1,5.6,2.3
	c-1.3,1.3-1.3-2.5-2.3-1.3c0,0,0.2,0,0.3,0c0.3,0,0.5,0.1,0.8,0.1c-0.3,0-0.6,0-0.9,0c-0.1,0-0.3,0-0.3,0.1c-1.3-0.1-1.3-0.1-2.8,0
	c-0.1,0-0.3,0-0.4,0c-1,0-2,0.1-3,0.2c-0.1,0-0.2,0.1-0.3,0.1c1.7,1.5,4.2,2.7,5.1,4.6c0-2.5-3.7-1.3-3.6-3.5l0.1,0.1
	c1.1,1.1,2.3,2.2,3.4,3.4c-1.4-0.9-2.6-2-3.8-3.2c-0.1-0.1-0.1-0.1-0.1-0.1c0.1,0.8,1.4,2,2.6,2c-1.7-0.9-2.8-1.7-3.9-2.8
	c-0.1-0.1-0.2-0.2-0.3-0.3c1.2-1.3,3.4,0.2,4.2-0.2c0.1,0,0.1-0.1,0.2-0.2c7.3-0.3-0.2-1.5-0.8-1.8c-0.1,0-0.3,0-0.4,0
	c-1.6-0.1-4.3,1.2-5.3-0.3c-0.1,0-0.2-0.1-0.2-0.1c-0.1,0-0.1-0.1-0.1-0.1c0,0.1,0.1,0.1,0.1,0.2s0.1,0.1,0.1,0.2
	c2-0.3,3.8-0.1,5.4,0.3c0.1,0,0.3,0.1,0.4,0.1c1.9-1.2,3.1,2.6,5.6,2.6c0-1.2-1.3-1.2-2.2-1.4c0.1,0,0.2,0.1,0.3,0.1
	c1.1,0.4,2.1,0.9,3.1,1.2c-1-0.3-2-0.8-3-1.2c-0.1-0.1-0.3-0.1-0.4-0.2c0.9,0.1,2.2,0.1,2.2,1.3c-1.3-1.2-3.8,0-5.2-2.3
	c-0.3-0.1-0.5-0.2-0.6-0.2c-1.7-0.4-3.7-0.5-5.9-0.1c-0.1,0-0.1,0-0.2,0c-0.3-0.1-0.7-0.2-1-0.4c-0.1,0-0.1-0.1,1-0.1l0.1,0.1
	c0,0.1,0.1,0.1,0.2,0.2c-0.1-0.1-0.1-0.1-0.2-0.2c-0.1,0-0.1-0.1-0.1-0.1c-0.6-0.6-1.8-0.6-1.6-0.3c0,0,0,0.1,0.1,0.1
	c0.3,0.4,0.8,0.5,1.8,0.1c0.1,0.1,0.1,0.1,0.2,0.2c1.1,2.2,3.9,0.4,5.4,0.4c0.1,0,0.3,0,0.4,0.1c0.7,0.2,0.7,0.2,0.8,1.5
	c-0.1,0.1-0.1,0.2-0.2,0.2c-0.6,0.5-3.7-1.3-3.9,0.4c0.1,0.1,0.2,0.2,0.3,0.3c1.3,1.2,2.8,2.3,3.7,4.1c0-2.5-2.5-1.3-2.8-3.2
	c0.1,0.1,0.1,0.1,0.2,0.2c3.2,3.3,6.5,6.6,11.4,8c-5-1.4-8.4-4.5-11.6-7.9c-0.1-0.1-0.1-0.1-0.2-0.2c0.5,0.5,1.7,8,1.7,0.5
	c-1.7,0-2.2-0.6-2.8-1.4c-0.1-0.1-0.2-0.2-0.2-0.3c0.6-2,3.1,0.5,3.1-0.7c0-2.5-3.8,0-5.3-1.8c-0.1,0-0.1-0.1-0.1-0.1
	c-0.1-0.1-0.1-0.1-0.1-0.1c0,0.1,0.1,0.1,0.1,0.2s0.1,0.1,0.1,0.2c2-0.3,3.8-0.1,5.4,0.3c0.2,0,0.3,0.1,0.4,0.1
	c1.9-1.2,3.2,2.6,5.7,2.6c0-1.2-1.3-1.2-2.3-1.4c0.1,0.1,0.3,0.1,0.4,0.2c1.1,0.4,2.1,0.9,3.1,1.2c-1-0.3-2.2-0.7-3.3-1
	c-0.1,0-0.3-0.1-0.4-0.1c0-0.1,7.5,2.4,0,1.2c-1.3-1.2-3.8,0-3.2-2.1c-0.2,0-0.3-0.1-0.5-0.1c-1.8-0.5-3.6-1-5.1-1.6
	c1.6,0.5,3.3,1,5.1,1.6c0.2,0,0.3,0.1,0.5,0.1c0.7,0.8,1.9,2.1,4.4,2.1c0,0-1.2-1.2-1.3-1.2c0.1,0,0.3,0.1,0.4,0.1
	c1.2,0.3,2.3,0.7,3.3,1c-0.9-0.6-1.9-1.1-2.9-1.4c-0.1-0.1-0.3-0.1-0.4-0.2c0.8,0.3,2.1,0.3,2.1,1.6c-2.5,0-3.8-3.7-5.7-2.5
	c-0.2,0-0.3-0.1-0.5-0.1c-1.8-0.4-3.6-0.7-5.1-1.2c1.6,0.5,3.3,1,5.1,1.6c0.2,0,0.3,0.1,0.5,0.1c0.7,0.8,1.9,2.1,4.4,2.1
	c0,0-1.2-1.2-1.3-1.2c0.1,0,0.3,0.1,0.4,0.1c1.2,0.3,2.3,0.7,3.3,1c-1-0.3-2.1-0.8-3.1-1.2c-0.1-0.1-0.3-0.1-0.3-0.1
	c1,0.1,2.2,0.1,2.2,1.3c-2.5,0-2.5-2.5-5.6-2.5c-0.1,0-0.3-0.1-0.4-0.1c-1.6-0.3-3.3-0.4-5.2,0.1c1.9-0.5,3.6-0.2,5.2,0.3
	c0.1,0,0.3,0.1,0.4,0.1c0.6,2.1,3.1,2.1,4.3,2.1c-1.2,0-1.2,0-1.4-1c0.1,0,0.2,0.1,0.4,0.1c1.2,0.5,2.4,0.8,3.5,0.8
	c-1-0.3-2.1-0.8-3.1-1.2c-0.1-0.1-0.3-0.1-0.3-0.1c1,0.1,2.2,0.1,2.2,1.3c-2.5,0-2.5-2.5-5.6-2.5c-0.1,0-0.3-0.1-0.4-0.1
	c-1.6-0.3-3.3-0.4-5.2,0.1c1.9-0.5,3.6-0.4,5.2-0.1c0.1,0,0.3,0.1,0.5,0.1c1.8,0,3,1.2,4.3,2.4c2.5-3.7-1.2,0-1-1.3
	c0.1,0,0.2,0.1,0.3,0.1c1.1,0.4,2.1,0.9,3.1,1.2c-1-0.3-2.1-0.8-3.1-1.2c-0.1-0.1-0.3-0.1-0.3-0.1c1,0.1,2.2,0.1,2.2,1.4
	c-2.5,0-3.8-3.7-5.7-2.6c-0.1,0-0.3-0.1-0.4-0.1c-1.7-0.4-3.4-0.6-5.4-0.3c0,0-0.1-0.1-0.1-0.2s-0.1-0.1-0.1-0.2l0.1,0.1l0.1,0.1
	c1.5,1.8,4-0.7,5.3,1.8c-1.2,0-2.5,0-3.5,0.6c-0.1,0.1,0,0.2,0.1,0.4c1.1,1.2,3.4,0.8,3.4,2.8c0,0-1.2-1.2-1.7-1.8
	c0.1,0.1,0.1,0.1,0.2,0.2c3.2,3.3,6.5,6.4,11.6,7.9c-4.6-1.7-8.2-4.8-11.5-7.9c-0.1-0.1-0.1-0.1-0.2-0.1c1.2-1.4-0.5-0.4-1.6-1
	c-0.1-0.1-0.3-0.2-0.3-0.3c1.1-0.6,2.4-0.6,3.6-0.6c-1.2,0-2.5-2.5-5-1.5c-0.3-0.1-0.4-0.2-0.5-0.3c-0.1-0.1-0.1-0.1-0.2-0.2
	c-0.5-0.6,0.7-0.6,0.2-0.1h0.1c0.1,0,0.1,0,0.2,0c1.9-0.3,3.7,0.9,5.6,1.1c0.1,0,0.3,0,0.5,0.1c1.6,0.8,4.1,0.8,6.6,2.1
	c-1.2-1.2-3.7-1.2-5-1.2c1.3-1.2,3.8,1.2,5,0c-1.2,1.2-2.5-1.2-3.1-0.9c0.1,0.1,0.2,0.2,0.4,0.2c0.8,0.6,1.7,1.4,2.8,1.9
	c-1-0.3-2-0.8-3-1.2c-0.1-0.1-0.3-0.1-0.4-0.2c0.9,0.1,2.2,0.1,2.2,1.3c-1.3-1.2-3.8,0-5.2-2.3c-0.3-0.1-0.5-0.2-0.6-0.2
	c-1.8-0.4-3.7-0.5-5.9,0c-0.1,0-0.1,0-0.2,0c-0.2,0-0.4,0-0.6,0c0,0-0.1-0.2-0.3-0.5c0-0.1-0.1-0.1-0.1-0.2c0.4-0.6-0.9-0.6-0.9-0.6
	c2.2,1.1,5.5,1.2,8,1.2c0.1,0,0.3,0,0.5,0.1c-0.3-0.1-0.5-0.1-0.6-0.1c-1.9,0-3.1-0.2-5.3-1.2c2.2,1.1,3.4,1.2,5.3,1.2
	c0.1,0,0.3,0,0.6,0.1c0.3-0.1-0.9-0.1-0.3-0.4c-0.1,0-0.2,0-0.4,0c-1.3,0-3,1-4-0.9c1,1.9,2.7,0.9,4,0.9c0.1,0,0.3,0,0.4,0
	c-0.6,0.3,0.7,0.3,0.4,0.5c-0.4-0.1-0.5-0.1-0.7-0.1c-3.5,0-6.9-0.3-9.8-3.6c-0.1,0-0.1-0.1-0.2-0.1c-0.6-0.3-1.1-0.7-1.6-1.2
	c-0.1,0-0.1-0.1-0.2-0.1c-0.6-0.3-1.2-0.7-1.8-0.9c0,0-0.1,0,0,0l0,0c0.6,0.3,1.2,0.6,1.8,0.9c0.1,0,0.1,0.1,0.2,0.1
	c0.7,0.2,1.3,0.5,2,0.8c0.1,0.1,0.1,0.1,0.2,0.1c2.9,2.3,6.2,3.2,9.4,4.1c0.1,0,0.3,0.1,0.7,0.3c1.4,2.1,5.1,0.9,5.1,2.1
	c-1.3,1.3-1.3-2.5-2.2-1.3c0,0,0.1,0,0.3,0.1c1.1,0.4,2.2,0.8,3.2,1.3c-1-0.3-2.1-0.8-3.1-1.2c-0.1-0.1-0.3-0.1-0.3-0.1
	c1,0.1,2.2,0.1,2.2,1.4c-2.5,0-2.5-2.5-5.5-2.7c-0.2-0.1-0.3-0.1-0.5-0.2c-1.6-0.5-3.3-0.9-5.2-0.9c1.6,0.5,3.3,1,5.1,1.6
	c0.2,0,0.3,0.1,0.5,0.1c0.7,0.8,1.9,2.1,4.4,2.1c0,0-1.2-1.2-1.3-1.2c0.1,0,0.3,0.1,0.4,0.1c1.2,0.3,2.3,0.7,3.3,1
	c-1.5,0-2.7-0.4-4-0.7c-0.1,0-0.3-0.1-0.3-0.1c-0.7-0.4-0.7-0.4-2.2-0.5c-0.1,0-0.3,0-0.4,0c-1-0.1-2.1,0-3.3,0.5c0,0.1,0,0.1,0,0.2
	c0.1,0.2,0.2,0.4,0.2,0.6c-0.1-0.2-0.2-0.4-0.3-0.6c0-0.1-0.1-0.1,0-0.2c1.2-0.2,2.4-0.3,3.6-0.4c0.1,0,0.3,0,0.4,0
	c1.3-0.1,1.3-0.1,2.6,0c0.1,0,0.2,0,0.3,0c0.3,0,0.6,0,0.8,0c-0.2-0.1-0.3-0.1-0.5-0.2c-0.2,0-0.3-0.1-0.4-0.1
	c0.9,0.3,0.9,0.3,0.9,1.5c-1.2-1.2-2.5-2.5-4.4-2.4c-0.1,0-0.3-0.1-0.4-0.1c-1.6-0.3-3.2-0.6-5.2-1.3c1.8,0,3.6,1.3,5.4,1.6
	c0.1,0,0.3,0,0.6,0.1c1.5,0.8,4,0.8,6.5,2.1c-2.5,0-3.7-3.7-6.6-2.4c-0.3-0.1-0.4-0.1-0.6-0.1c-3-0.1-6.1-0.5-9.1-2.5
	c1.2,0,2.5,1.2,2.6,1.9c0.1,0,0.1,0.1,0.2,0.1c0.2,0.1,0.3,0.2,0.5,0.3c0.1,0,0.1,0,0.2,0.1c0.3,0.1,0.3-1.2,0.1-0.8H350
	c0,0-0.1,0-0.2,0.1l0.1,0.1l0.1,0.1c2.2,0.5,4.3-0.3,5.7,0.8c0.1,0.1,0.2,0.2,0.3,0.3c0.5-0.5,0.5,0.8,0.6,0.8c-0.2,0-0.3,0-0.4,0
	c-1.1,0-2.3,0.1-3.8,0.6c0.1,0.1,0.2,0.2,0.3,0.3c1,1.1,2.2,2,3.9,2.8c-1.2,0-2.5-1.2-2.6-2l0.1,0.1c3.5,3.2,7.1,6.4,11.3,8.2
	c-4.7-1.6-8.1-4.7-11.4-8c-0.1-0.1-0.1-0.1-0.2-0.2c0.3,0.6,0.3,1.9,1.6,1.9c0-1.6-1.6-2.2-2.8-2.9c-0.1-0.1-0.3-0.2-0.4-0.2
	c1.7-0.5,2.9-0.6,4-0.6c0.1,0,0.3,0,0.4,0c0,0,0-1.3-0.6-0.8c-0.1-0.1-0.2-0.2-0.3-0.3c-1.4-1-3.4-0.3-5.7-0.8
	c-0.1,0-0.1-0.1-0.2-0.1c-0.1-0.1-0.1-0.1-0.1-0.1c0,0.1,0.1,0.1,0.1,0.2s0.1,0.1,0.1,0.2c2-0.3,3.8-0.1,5.4,0.3
	c0.1,0,0.3,0.1,0.4,0.1c1.9-1.2,3.2,2.6,5.7,2.6c0-1.2-1.3-1.2-2.2-1.4c0.1,0,0.2,0.1,0.3,0.1c1.1,0.4,2.1,0.9,3.1,1.2
	c-1-0.3-2.1-0.8-3.1-1.2c-0.1-0.1-0.3-0.1-0.4-0.2c1,0.1,2.3,0.1,2.3,1.4c-2.5,0-3.8-3.7-5.6-2.5c-0.1,0-0.3-0.1-0.4-0.1
	c-1.6-0.4-3.4-0.5-5.4-0.1c-0.1,0-0.1,0-0.2,0c-0.2-0.1-0.3-0.2-0.4-0.2l-0.1-0.1c-0.3,1.9,2.2-0.6,3.5,0.7c-1.2,0-1.2,0-2.5,0
	c1.8,0,3.5,0,5.3,0.4c0.1,0,0.3,0.1,0.4,0.1c0.5-0.6,0.5,0.7,0.8,0.8c-0.3-0.1-0.5-0.1-0.6-0.1c-1.2,0-2.6,0.1-3.6,0.4
	c0,0.1,0.1,0.1,0.1,0.2c1.6,1.6,3.1,3.1,5,4.4c-1.4-1.4-3.1-3.1-4.8-4.7l-0.1-0.1c1-0.1,2.1-0.2,3.3-0.1c0.2,0,0.3,0,0.5,0.1
	c1-0.2,1-0.2,1.8,0.2c0.1,0,0.2,0,0.4,0c0.9,0.2,1.8,0.4,2.5,0.8c-0.5-0.7-1-1.2-1.6-1.5c-0.1-0.1-0.2-0.1-0.4-0.2
	c0.7,0.4,2,0.4,2,1.7c-1.3-2.5-3.8,0-5.1-2.2c-0.4-0.1-0.6-0.2-0.7-0.2c-1.8-0.1-3.7-0.2-5.4-1.4c2.2,1.1,3.4,1.2,5.3,1.2
	c0.1,0,0.3,0,0.5,0.2c-0.3,0-0.5,0-0.6,0c-4.1,0.6-5.5-1.7-9.2-4.2l-0.1-0.1c-0.6-0.4-1.2-0.7-1.7-1.1c0,0-0.1,0-0.1-0.1
	c-0.5-0.3-1-0.6-1.5-0.9c-0.1,0-0.1-0.1-0.2-0.1c-0.9,1.2-2.2-1.3-3.4-1.4c0,0-0.1,0-0.1-0.1c-0.4-0.1-0.9-0.3-1.4-0.4
	c0,0-0.1,0-0.1-0.1c-0.8-0.4-1.5-0.7-2.3-1.1l-0.1,0.1c-2.7,3.7-4.8,7.8-6.2,11.9c-37.3-11.4-77.9-26.2-108-43.8
	C117,164.4,74,45.8,74,45.8S198.4,24.7,301.7,84.9z"/>
<linearGradient id="SVGID_2_" gradientUnits="userSpaceOnUse" x1="90.6212" y1="-923.6215" x2="167.7965" y2="-893.8339" gradientTransform="matrix(-0.5032 0.8642 -0.8642 -0.5032 -258.1639 -404.3035)">
	<stop  offset="0" style="stop-color:#777775"/>
	<stop  offset="0.1198" style="stop-color:#737371"/>
	<stop  offset="0.295" style="stop-color:#696865"/>
	<stop  offset="0.5042" style="stop-color:#585652"/>
	<stop  offset="0.7396" style="stop-color:#403F3A"/>
	<stop  offset="0.9942" style="stop-color:#23211B"/>
	<stop  offset="1" style="stop-color:#22201A"/>
</linearGradient>
<path class="st3" d="M474.2,159.1c-0.1,0-0.2,0-0.2-0.1c-0.1,0-0.2,0-0.7-0.2c-0.1,0-0.3-0.1-0.4-0.1c-1.5-0.3-3-0.6-4.6-0.8h-0.1
	c1.7,3.8,4.2,6.3,7.9,8.8c-3.7-2.5-7.5-5-11.5-9.1c-0.1,0-0.1,0-0.2,0c-0.7,0-1.3-0.1-2-0.1c-0.1,0-0.2,0-0.2,0
	c5.1-0.8,5.1,4.2,8.9,5.5c-3.2-3.2-6.4-5.5-10.5-5.5c-0.1,0-0.2,0-0.2,0c1.2,1.9,2.5,3.7,3.9,5.5c0.2,0.2,0.2,0.2,0.3,0.3
	c1.5,1,2.7,2.3,4,3.5c-1.2,1.2-1.2-2.5-2.3-1.5l0,0c1.2,1.3,2.4,2.7,3.7,3.9l0.1,0.1c3.5,1.2,6,6.2,8.5,8.7c-2.5-2.5-3.7-5-5.9-6.1
	c0.1,0.1,0.1,0.1,0.2,0.2c1.2,1.2,2.4,2.3,3.6,3.4l0.1,0.1c0.7,1.1,2,2.3,3.2,3.6c0-1.2,0-1.2-0.7-1.2c0.1,0.1,0.1,0.1,0.2,0.2
	c0.2,0.2,0.4,0.4,0.6,0.6l0.1,0.1c1.1,0.4,2.4,1.7,2.5,2.3l0.1,0.1c3.4,3.3,6.8,6.7,9.8,10.5c-3.6-3.2-6.9-6.5-10.2-9.8
	c-0.1-0.1-0.1-0.1-0.2-0.2c-0.9,0-2.1-1.3-2.6-2.6c-0.1-0.1-0.1-0.1-0.2-0.2c-0.1-0.1-0.2-0.2-0.3-0.3c-0.1-0.1-0.1-0.1-0.2-0.2
	c-0.1,0.8,1.1,2,2.4,2c-2.5-1.2-3.8-2.5-4.9-4.6l-0.1-0.1c-1.2-1.2-2.3-2.3-3.5-3.5c-0.1-0.1-0.1-0.1-0.2-0.2
	c2.4,3.4,4.9,5.9,8.7,8.4c-5-2.5-8.7-6.2-11.3-10.9l-0.1-0.1c-1.2-1.1-2.4-2.3-3.6-3.4c-0.1-0.1-0.1-0.1-0.2-0.2
	c5.2,4.5,10.2,9.5,15.2,14.5c-6.2-5-12.5-11.2-17.9-16.9c-0.1-0.1-0.1-0.1-0.2-0.1c-1.7-1.5-3.5-2.9-5.3-4.3c0,0-0.1,0-0.1-0.1
	c8.5,6.4,14.7,15.1,23.5,21.4c-8.7-6.2-15-15-23.5-21.4c0,0,0.1,0,0.1,0.1c1.8,1.4,3.6,2.8,5.3,4.3c0,0,0.1,0.1,0.2,0.1
	c5.4,5.6,11.7,11.9,17.9,16.9c-5-5-10-10-15.2-14.5c0.1,0.1,0.1,0.1,0.2,0.2c1.2,1.1,2.4,2.2,3.6,3.4l0.1,0.1
	c2.5,4.6,6.3,8.4,11.3,10.9c-3.8-2.5-6.2-5-8.7-8.4c0.1,0.1,0.1,0.1,0.2,0.2c1.2,1.2,2.3,2.3,3.5,3.5l0.1,0.1
	c1.2,2.1,2.4,3.3,4.9,4.6c-1.2,0-2.5-1.2-2.4-2c0.1,0.1,0.1,0.1,0.2,0.2c0.1,0.1,0.2,0.2,0.3,0.3c0.1,0.1,0.1,0.1,0.2,0.2
	c0.5,1.4,1.7,2.6,2.6,2.6c0,0,0.1,0.1,0.2,0.2c3.3,3.3,6.7,6.6,10.2,9.8c-3.4-3-6.7-6.5-10-10.1l-0.1-0.1c0.1-1.1-1.2-2.3-2.5-2.6
	l-0.1-0.1c-0.2-0.2-0.4-0.5-0.7-0.7l-0.1-0.1c0.8-0.1,0.8-0.1,0.8,1.2c-1.2-1.2-2.5-2.5-3.2-3.7l-0.1-0.1c-1.2-1.2-2.4-2.5-3.6-3.7
	l-0.1-0.1c0.8,1.3,2.1,2.6,3.3,3.8c-1.2-2.5-3.7-5-5.9-6.2l-0.1-0.1c-1.3-1.2-2.6-2.3-4-3.3c-0.1,0-0.1-0.1-0.1-0.1
	c3.8,6,10.1,8.5,13.8,14.7c-5-6.2-11.2-12.5-16.9-16.9c-0.1,0-0.1-0.1-0.2-0.1c-2.1-1.4-4.3-2.6-6.6-3.5c-0.1,0-0.1-0.1-0.2-0.1
	c0.1-0.6-1.1-0.6-1.1-0.4c-0.1,0-0.1-0.1-0.2-0.1c-0.2-0.1-0.4-0.2-0.6-0.2c-0.1,0-0.1,0-0.2-0.1c12.3,2.7,17.3,15.2,27.3,21.4
	c-11.2-6.2-15-21.2-30-21.2c15,0,18.7,15,30,21.2c-10-5-17.5-25-31.5-19.4c0,0,0,0.1,0.1,0.1c1.9,2.9,3.3,5.7,6.5,6.8
	c-5-1.2-7.5-5-11.1-7.3c-0.1,0-0.1,0-0.2,0c-0.7,0.3-1.4,0.5-2.1,0.8l-0.1,0.1c4.7,8.8,13.5,15.1,22.2,21.3
	c-8.8-5-15-12.5-22.6-19.2l0.1,0.1c0.2,0.2,0.4,0.5,0.6,0.7l0.1,0.1c5.6,7,14.3,12,21.8,18.2c-7.5-3.8-12.5-10-19.3-15.6l0.1,0.1
	l0.1,0.1l0.1,0.1c6.5,5.3,11.5,11.6,19,15.3c-6.2-2.5-11.3-8.8-16.4-12.7c0,0,0,0,0.1,0.1c0.3,0.3,0.7,0.7,1,1l0.1,0.1
	c5.2,5.3,11.5,7.8,15.2,12.8c-3.8-3.8-8.8-6.2-12.5-10.2l0.1,0.1c1,1,2.1,1.9,3.1,2.9l0.1,0.1c1.7,3.4,5.4,3.4,7.9,5.9
	c-1.2-1.2-3.8-2.5-5.2-3.5c0,0,0.1,0,0.1,0.1c1.2,1.1,2.4,2.1,3.6,3.1c0.1,0.1,0.1,0.1,0.2,0.2c0,1.4,1.3,1.4,2.1,1.8
	c0.1,0,0.1,0.1,0.2,0.1c6,5,12,9.7,17.7,14.4c-6.8-3.4-11.3-9.7-16.7-15c-0.1-0.1-0.1-0.1-0.2-0.1c-1.9,0.2-0.7-2.3-2.8-2.5
	c-0.1,0-0.1-0.1-0.2-0.1c-1.1-0.9-2.2-1.7-3.4-2.4c-0.1,0-0.1-0.1-0.2-0.1c2.1,0.3,3.4,2.8,5.9,4.1c-2.5,0-3.8-3.8-6-3.8l0.1,0.1
	c1.1,0.9,2.3,1.9,3.4,2.8c0.1,0,0.1,0.1,0.2,0.2c-0.2,0.7,1.1,1.9,2.5,2.1c0,0,0.1,0.1,0.2,0.1c4.8,4.2,9.4,8.5,13.4,13.4
	c-4.3-4.8-8.8-9.2-13.5-13.4c-0.1-0.1-0.1-0.1-0.2-0.1c-1.4-0.2-2.6-1.5-2.5-2.1c-0.1-0.1-0.1-0.1-0.2-0.2c-1.1-0.9-2.2-1.9-3.4-2.8
	c-0.1,0-0.1-0.1-0.2-0.1c2.3,1.2,3.6,3.8,6.1,3.8c-3.8-1.2-6.2-3.8-9-6c-0.1,0-0.1-0.1-0.1-0.1c-1.1-0.9-2.3-1.7-3.4-2.5
	c-0.1,0-0.1-0.1-0.2-0.1c0.2,2.5,2.7,2.5,3.9,2.5c-3.7,0-5-2.5-6.8-4.4c-0.1,0-0.1-0.1-0.2-0.1c-0.6-0.4-1.2-0.8-1.8-1.2
	c-0.1,0-0.1-0.1-0.2-0.1c-1.1,0.9-1.1-2.9-1.8-1.1c0,0-0.1,0-0.1-0.1c-3-1.9-6-3.7-9.2-5.4c0,0,0,1.2,0.1,0.8
	c-0.1,0-0.1,0.1-0.2,0.1c-0.9,0.6-1.7,1.2-2.6,1.8c-0.1,0-0.1,0.1-0.2,0.1c0.3,3.3,2.8,4.6,5.3,7.1c-2.5-1.2-5-2.5-8.1-4.6h-0.1
	c-0.9,0.8-1.7,1.6-2.5,2.5c-0.1,0.1-0.1,0.1-0.2,0.2c0.9,4.4,5.9,8.1,9.6,10.6c10,7.5,18.7,12.5,26.2,21.2
	c-11.2-11.2-25-20-38.3-28.9c0,0.1-0.1,0.1-0.1,0.2c-1.1,1.4-2,2.9-2.9,4.4c-0.7,1.2-1.3,2.3-1.8,3.6l-20.3-21
	c0,0,40.8-20.6,74-18.7c-0.2,1.3-0.3,2.7-0.4,4c0,0.1,0,0.1,0,0.2c2.6,15,21.3,23.7,31.3,33.7c-11.2-8.8-22.5-17.5-31.2-30
	c8.8,12.5,20,21.2,31.2,30c-11.2-7.5-20-17.5-30.3-27.1c0.1,0,0.1,0.1,0.2,0.1c1.4,1.1,3.5,1.8,5,3.1c0,0,0.1,0,0.1,0.1
	c6.3,10.1,17.5,16.4,25,25.1c-7.5-8.8-18.7-13.8-25.5-24.5c-0.1,0-0.1,0-0.2-0.1c-1.2-0.3-2.3-0.5-3.4-0.8c0,0-0.1,0,0,0
	c11.7,6.6,19.2,17.9,29.2,25.4c-10-7.5-17.5-20-30.5-24.2c-0.1,0-0.1,0.1-0.2,0.1C474.1,159,474.2,159,474.2,159.1z"/>
<linearGradient id="SVGID_3_" gradientUnits="userSpaceOnUse" x1="145.064" y1="-808.3415" x2="299.4389" y2="-808.3415" gradientTransform="matrix(-0.5032 0.8642 -0.8642 -0.5032 -258.1639 -404.3029)">
	<stop  offset="0" style="stop-color:#FFFFFF"/>
	<stop  offset="4.714208e-02" style="stop-color:#FDE8E0"/>
	<stop  offset="0.1278" style="stop-color:#F9CBBD"/>
	<stop  offset="0.2161" style="stop-color:#F6B2A2"/>
	<stop  offset="0.3124" style="stop-color:#F49F8D"/>
	<stop  offset="0.4198" style="stop-color:#F2917E"/>
	<stop  offset="0.5444" style="stop-color:#F08775"/>
	<stop  offset="0.7018" style="stop-color:#F08270"/>
	<stop  offset="1" style="stop-color:#EF806E"/>
</linearGradient>
<path class="st4" d="M308.8,262.6c-15.3-5-30.7-10.6-45.4-16.7c0,0,30.8-26.4,50.5-60.3s27.2-73.1,27.2-73.1c12.5,9.7,25,20.3,37,31
	c0,0-3,31.6-23,66C335.1,244.1,308.8,262.6,308.8,262.6z"/>
<linearGradient id="SVGID_4_" gradientUnits="userSpaceOnUse" x1="141.5708" y1="-753.7501" x2="303.1655" y2="-753.7501" gradientTransform="matrix(-0.5032 0.8642 -0.8642 -0.5032 -258.1639 -404.3029)">
	<stop  offset="0" style="stop-color:#FFFFFF"/>
	<stop  offset="4.714208e-02" style="stop-color:#FDE8E0"/>
	<stop  offset="0.1278" style="stop-color:#F9CBBD"/>
	<stop  offset="0.2161" style="stop-color:#F6B2A2"/>
	<stop  offset="0.3124" style="stop-color:#F49F8D"/>
	<stop  offset="0.4198" style="stop-color:#F2917E"/>
	<stop  offset="0.5444" style="stop-color:#F08775"/>
	<stop  offset="0.7018" style="stop-color:#F08270"/>
	<stop  offset="1" style="stop-color:#EF806E"/>
</linearGradient>
<path class="st5" d="M257.6,243.5c-13.5-5.8-26.2-12-37.5-18.5c-2.2-1.3-4.4-2.6-6.5-3.9c0,0,30.3-25.6,52.3-63.3
	s28.9-76.1,28.9-76.1c2.2,1.2,4.4,2.4,6.7,3.7c11.2,6.5,22.9,14.6,34.7,23.5c0,0-6.6,37.8-27.6,73.8
	C287.6,218.5,257.6,243.5,257.6,243.5z"/>
<path class="st6" d="M4.5,11.7C2,10.2,1.1,6.9,2.6,4.3C4.1,1.8,7.4,0.9,10,2.4c1.7,1,2.7,2.8,2.7,4.7l75.1,43.8l-2.7,4.7L9.9,11.7
	C8.3,12.6,6.3,12.7,4.5,11.7z"/>
<linearGradient id="SVGID_5_" gradientUnits="userSpaceOnUse" x1="155.4786" y1="-583.093" x2="288.2092" y2="-583.093" gradientTransform="matrix(-0.5032 0.8642 -0.8642 -0.5032 -258.1639 -404.3035)">
	<stop  offset="0" style="stop-color:#FFFFFF"/>
	<stop  offset="4.714208e-02" style="stop-color:#FDE8E0"/>
	<stop  offset="0.1278" style="stop-color:#F9CBBD"/>
	<stop  offset="0.2161" style="stop-color:#F6B2A2"/>
	<stop  offset="0.3124" style="stop-color:#F49F8D"/>
	<stop  offset="0.4198" style="stop-color:#F2917E"/>
	<stop  offset="0.5444" style="stop-color:#F08775"/>
	<stop  offset="0.7018" style="stop-color:#F08270"/>
	<stop  offset="1" style="stop-color:#EF806E"/>
</linearGradient>
<path class="st7" d="M149.7,166.7C97,109.1,74,45.8,74,45.8s66.4-11.3,142.5,6.2c0,0,2.1,22.1-23,65.1
	C168.4,160.2,149.7,166.7,149.7,166.7z"/>
<path class="st0" d="M117.2,46.4c18.7-0.8,43.7-0.7,71.7,2.9c-13.5,0.4-26.9,1.8-40,4c-9.2,1.6-18.3,3.7-27.3,6
	C118.7,55.1,116.5,50.1,117.2,46.4z"/>
<path class="st0" d="M91.4,49.2c4.7-0.6,11.7-1.3,20.5-1.8c-0.2,4.5,1.7,9.6,4.4,14.2c-1.5,0.4-3,0.8-4.5,1.1
	c-4.2,1-8.5,2.1-12.7,3.4C95.7,59,93.1,53.2,91.4,49.2z"/>
<linearGradient id="SVGID_6_" gradientUnits="userSpaceOnUse" x1="199.4264" y1="-691.278" x2="246.1265" y2="-691.278" gradientTransform="matrix(-0.5032 0.8642 -0.8642 -0.5032 -258.1639 -404.3029)">
	<stop  offset="0" style="stop-color:#B8D9F1"/>
	<stop  offset="0.116" style="stop-color:#B1D2EA"/>
	<stop  offset="0.2856" style="stop-color:#9EC1DC"/>
	<stop  offset="0.4881" style="stop-color:#81A9C7"/>
	<stop  offset="0.716" style="stop-color:#5B8CAF"/>
	<stop  offset="0.9624" style="stop-color:#1D6E96"/>
	<stop  offset="1" style="stop-color:#056A92"/>
</linearGradient>
<path class="st8" d="M215.4,156.2c11.1,6.5,25.4,2.7,31.9-8.4c6.5-11.1,2.7-25.4-8.4-31.9c-11.1-6.5-25.4-2.7-31.9,8.4
	S204.3,149.7,215.4,156.2z"/>
<g>
	<path class="st0" d="M234.7,120.8c-0.2-1-0.3-1.9-0.5-2.9c0.5,0.2,1,0.5,1.5,0.8c4.8,2.8,7.8,7.4,8.7,12.5
		c-1.4-3.8-4.1-7.2-7.8-9.4C235.9,121.4,235.3,121.1,234.7,120.8z"/>
	<path class="st0" d="M216.3,119.5c4.3-3,9.9-4.1,15.1-2.6c0.1,1,0.2,2,0.4,2.9c-4.6-1.1-9.5-0.4-13.5,2
		C217.6,121.1,217,120.3,216.3,119.5z"/>
	<path class="st0" d="M211.2,125.2c0.9-1.5,1.9-2.8,3.1-3.9c0.6,0.7,1.2,1.5,1.8,2.2c-1.6,1.3-3,2.9-4.1,4.8
		c-2.2,3.8-2.9,8.1-2.2,12.1C208.1,135.5,208.4,129.9,211.2,125.2z"/>
</g>
<linearGradient id="SVGID_7_" gradientUnits="userSpaceOnUse" x1="208.3654" y1="-755.1038" x2="233.5078" y2="-755.1038" gradientTransform="matrix(-0.5032 0.8642 -0.8642 -0.5032 -258.1639 -404.3029)">
	<stop  offset="0" style="stop-color:#B8D9F1"/>
	<stop  offset="0.116" style="stop-color:#B1D2EA"/>
	<stop  offset="0.2856" style="stop-color:#9EC1DC"/>
	<stop  offset="0.4881" style="stop-color:#81A9C7"/>
	<stop  offset="0.716" style="stop-color:#5B8CAF"/>
	<stop  offset="0.9624" style="stop-color:#1D6E96"/>
	<stop  offset="1" style="stop-color:#056A92"/>
</linearGradient>
<path class="st9" d="M276.9,177.4c6,3.5,13.7,1.5,17.2-4.5s1.5-13.7-4.5-17.2s-13.7-1.5-17.2,4.5
	C268.8,166.3,270.9,173.9,276.9,177.4z"/>
<linearGradient id="SVGID_8_" gradientUnits="userSpaceOnUse" x1="208.3737" y1="-818.7844" x2="233.5162" y2="-818.7844" gradientTransform="matrix(-0.5032 0.8642 -0.8642 -0.5032 -258.1639 -404.3029)">
	<stop  offset="0" style="stop-color:#B8D9F1"/>
	<stop  offset="0.116" style="stop-color:#B1D2EA"/>
	<stop  offset="0.2856" style="stop-color:#9EC1DC"/>
	<stop  offset="0.4881" style="stop-color:#81A9C7"/>
	<stop  offset="0.716" style="stop-color:#5B8CAF"/>
	<stop  offset="0.9624" style="stop-color:#1D6E96"/>
	<stop  offset="1" style="stop-color:#056A92"/>
</linearGradient>
<path class="st10" d="M331.9,209.5c6,3.5,13.7,1.5,17.2-4.5s1.5-13.7-4.5-17.2s-13.7-1.5-17.2,4.5S325.9,206,331.9,209.5z"/>
<g>
	<path class="st0" d="M287.6,158.7c-0.1-0.5-0.2-1.1-0.3-1.6c0.3,0.1,0.6,0.3,0.8,0.4c2.7,1.6,4.4,4.2,4.9,7
		c-0.8-2.2-2.3-4.1-4.4-5.3C288.3,159.1,287.9,158.9,287.6,158.7z"/>
	<path class="st0" d="M277.3,158c2.4-1.7,5.5-2.3,8.5-1.5c0,0.6,0.1,1.1,0.2,1.7c-2.6-0.6-5.3-0.2-7.6,1.1
		C278,158.9,277.6,158.5,277.3,158z"/>
	<path class="st0" d="M274.4,161.2c0.5-0.8,1.1-1.6,1.8-2.2c0.3,0.4,0.7,0.8,1,1.2c-0.9,0.7-1.7,1.6-2.3,2.7
		c-1.2,2.1-1.6,4.5-1.2,6.8C272.6,167,272.8,163.8,274.4,161.2z"/>
</g>
<g>
	<path class="st0" d="M342.5,191.2c-0.1-0.5-0.2-1.1-0.3-1.6c0.3,0.1,0.6,0.3,0.8,0.4c2.7,1.6,4.4,4.2,4.9,7
		c-0.8-2.2-2.3-4.1-4.4-5.3C343.2,191.5,342.8,191.4,342.5,191.2z"/>
	<path class="st0" d="M332.2,190.5c2.4-1.7,5.5-2.3,8.5-1.5c0,0.5,0.1,1.1,0.2,1.7c-2.6-0.6-5.3-0.2-7.6,1.1
		C332.9,191.4,332.5,190.9,332.2,190.5z"/>
	<path class="st0" d="M329.3,193.6c0.5-0.8,1.1-1.6,1.7-2.2c0.3,0.4,0.7,0.8,1,1.2c-0.9,0.7-1.7,1.6-2.3,2.7
		c-1.2,2.1-1.6,4.5-1.2,6.8C327.5,199.4,327.7,196.3,329.3,193.6z"/>
</g>
<path class="st11" d="M425.2,300.1c-1.2-1.2-2.4-2.4-3.7-3.6c-0.6-0.6-1.3-1.2-2-1.8c-0.3-0.2-0.5-0.4-0.8-0.7
	c-0.3-0.2-0.6-0.2,0-0.2c-0.9-0.1-1.6-1.1-0.3-0.9c1.5,0.2,2.8,1.6,3.8,2.6c1.6,1.5,3.2,3,4.7,4.6c0.3,0.3-0.3,0.5-0.5,0.5
	C426,300.6,425.5,300.4,425.2,300.1L425.2,300.1z"/>
<path class="st11" d="M422.7,304.4c-1.8-4.4-4.9-8-8.9-10.5c-1.1-0.7,0.5-1.4,1.3-0.9c4.2,2.6,7.5,6.6,9.4,11.2
	C424.9,305.2,423,305.2,422.7,304.4L422.7,304.4z"/>
<path class="st11" d="M420.1,304.1c-3.4-4.3-6.9-8.5-10.8-12.4c-0.4-0.4,1.4-0.2,1.7,0.2c3.9,4,7.4,8.3,10.9,12.6
	C422.1,304.6,420.5,304.5,420.1,304.1L420.1,304.1z"/>
<path class="st11" d="M420.2,308.5c-5.1-6.7-11.1-12.6-17.4-18.2c-0.8-0.7,1-0.8,1.5-0.4c6.4,5.6,12.4,11.7,17.6,18.5
	C422.5,309.1,420.6,309,420.2,308.5L420.2,308.5z"/>
<path class="st11" d="M415.2,309.3c-4.4-7.6-11.1-15.1-18.1-20.5c-1-0.8,0.5-1.3,1.2-0.8c7.2,5.6,14.1,13.2,18.6,21.1
	C417.5,310.1,415.6,310,415.2,309.3L415.2,309.3z"/>
<path class="st11" d="M408.5,307.7c-2.4-4.1-5.4-7.7-8.6-11.2c-2.4-2.5-5.5-6.4-9-7.5c-1.1-0.4-0.8-1.6,0.3-1.2
	c3.4,1.1,6.3,4.2,8.7,6.7c3.9,3.9,7.6,8.2,10.3,13C410.8,308.4,408.9,308.4,408.5,307.7L408.5,307.7z"/>
<path class="st11" d="M401.1,307c-5-6.9-10.4-13.4-15.8-20c-0.8-0.9,1-1.2,1.6-0.5c5.4,6.6,10.9,13.1,15.8,20
	C403.4,307.5,401.6,307.7,401.1,307L401.1,307z"/>
<path class="st11" d="M395.3,306.2c-3-4-6.5-7.6-10-11.1c-1.4-1.4-2.7-2.8-4.1-4.2c-0.4-0.4-1.2-1.1-1.3-1.7c0-0.4,0.3-0.5,0.6-0.6
	c0.3-0.1,0.6,0.1,0.9,0.2c1.2,0.5,0.1,1.4-0.8,1.1c0.2,0,0.4,0.1,0.6,0.1c0.2-0.2,0.4-0.4,0.6-0.6c0.1,0.5,1.6,1.8,2,2.2
	c1.4,1.4,2.7,2.8,4.1,4.2c3.1,3.2,6.2,6.4,8.9,10C397.6,306.6,395.8,306.9,395.3,306.2L395.3,306.2z"/>
<path class="st11" d="M389.4,305.1c-4.9-6.7-11.3-12.5-17.4-18.2c-0.8-0.8,1.1-0.8,1.5-0.3c6.1,5.8,12.6,11.7,17.6,18.5
	C391.6,305.8,389.7,305.6,389.4,305.1L389.4,305.1z"/>
<path class="st11" d="M384.3,307.7c-3.4-4.9-6.6-10-10-14.9c-1.8-2.5-3.6-5-5.6-7.3c-1.3-1.5-3.7-4.5-4.2-1c-0.1,0.8-2,0.3-1.9-0.5
	c0.7-5.9,6.3-0.4,8.1,1.6c5.9,6.7,10.3,14.6,15.4,21.9C386.7,308.3,384.8,308.3,384.3,307.7L384.3,307.7z"/>
<path class="st11" d="M378.5,306.7c-4.9-5.5-9.6-11.1-14.4-16.6c-3.5-4.1-7-9.2-11.3-12.4c-0.8-0.6,1.1-0.4,1.5-0.2
	c4.1,3.1,7.4,7.9,10.8,11.7c5.1,5.9,10,11.8,15.2,17.5C380.7,307.3,378.9,307.1,378.5,306.7L378.5,306.7z"/>
<path class="st11" d="M369.5,301.9c0.1,0.1,0.1,0.3,0.1,0.4c-0.1,0.3-0.5,0.3-0.8,0.3c-1.4-0.2-2.5-1.8-3.3-2.7
	c-2.6-2.8-5-5.6-7.5-8.5c-2.6-3-5.1-6-7.5-9c-0.4-0.5-3.3-3.4-2.9-4.2c0.1-0.3,0.5-0.3,0.8-0.3c0.3,0.1,0.6,0.1,0.9,0.3
	c1.1,0.6-0.6,0.9-1.2,0.6c1.7,1,1-0.5,2.2,1.1c0.6,0.9,1.3,1.7,2,2.5c2.1,2.6,4.3,5.2,6.4,7.7c2.2,2.6,4.5,5.2,6.8,7.8
	c0.8,0.9,1.7,1.9,2.6,2.8c0.3,0.3,0.5,0.5,0.8,0.8c0.8,0.8-0.9,0.7-1.1,0.2C367.4,301.1,369.3,301.3,369.5,301.9L369.5,301.9z"/>
<path class="st11" d="M360.1,299.9c-5-6.7-9.7-13.6-15-20c-0.1-0.1,1.5-0.1,1.9,0.4c5.3,6.4,10,13.3,15,20
	C362.1,300.4,360.5,300.4,360.1,299.9L360.1,299.9z"/>
<path class="st11" d="M354.4,297.6c-2.8-3.7-5.7-7.4-7.5-11.7c-0.4-0.9,1.5-0.7,1.8-0.1c1.8,4.3,4.7,8,7.5,11.7
	C356.7,298.3,354.8,298.2,354.4,297.6L354.4,297.6z"/>
<path class="st11" d="M357.6,305.8c-4.8-6.4-9.4-12.8-14.2-19.2c-0.1-0.1,1.5-0.1,1.9,0.3c4.8,6.4,9.4,12.8,14.2,19.2
	C359.6,306.3,358,306.2,357.6,305.8L357.6,305.8z"/>
<path class="st11" d="M505.4,424.5c-0.1,1.6-2.6-0.9-2.9-1.3c-2.2-3.3-4-6.8-6.4-9.9c-0.4-0.5,1.4-0.3,1.7,0.1
	c1.5,1.9,2.8,4,4.1,6.1c0.6,1,1.2,2,1.8,3c0.2,0.3,0.4,0.7,0.6,1c0.1,0.2,0.8,0.8,0.3,0.6c-0.4,0-0.7-0.1-1.1-0.1
	c-0.1,0.1-0.1,0.1-0.1-0.1C503.5,423.6,505.4,423.9,505.4,424.5L505.4,424.5z"/>
<path class="st11" d="M496,419.3c-2.7-3.6-5.9-6.7-9-9.9c-0.8-0.8,1.1-0.9,1.5-0.4c3.2,3.2,6.5,6.5,9.3,10.1
	C498.4,419.9,496.4,419.8,496,419.3L496,419.3z"/>
<path class="st11" d="M488.2,413.9c-2.8-1-5-3.2-7-5.3c-0.8-0.8,1-0.9,1.5-0.4c1.8,1.8,3.8,3.8,6.3,4.8
	C490.2,413.4,489.1,414.2,488.2,413.9L488.2,413.9z"/>
<path class="st11" d="M482.8,412.8c-2.5-3.3-5.7-5.7-9-8.2c-1-0.8,0.5-1.3,1.2-0.8c3.4,2.5,6.7,5.1,9.3,8.5
	C485.1,413.3,483.3,413.5,482.8,412.8L482.8,412.8z"/>
<path class="st11" d="M475.3,409.4c-3.1-3.1-6.1-6.1-9.2-9.2c-0.8-0.8,1.1-0.6,1.5-0.2c3.1,3.1,6.1,6.1,9.2,9.2
	C477.6,409.9,475.7,409.8,475.3,409.4L475.3,409.4z"/>
<path class="st11" d="M467.6,405.8c-3.1-3.8-6.4-7.2-10.6-9.8c-0.8-0.5,1.1-0.2,1.4,0c4.3,2.7,7.9,6.2,11,10.2
	C469.6,406.2,468,406.2,467.6,405.8L467.6,405.8z"/>
<path class="st11" d="M461.3,403c-4.5-3.6-8.6-7.7-12.7-11.8c-0.8-0.8,1-1,1.6-0.5c4,4,8,8,12.3,11.5C463.5,403,462,403.5,461.3,403
	L461.3,403z"/>
<path class="st11" d="M450.2,395.9c-3.2-3.9-7.1-7.1-11.4-9.7c-1.1-0.7,0.6-0.9,1.2-0.5c4.5,2.8,8.6,6.1,12,10.3
	C452.5,396.6,450.6,396.4,450.2,395.9L450.2,395.9z"/>
<path class="st11" d="M441.1,392.9c-2.8-3.7-5.8-7.4-9.8-9.8c-1.1-0.7,0.5-1.3,1.3-0.9c4.1,2.6,7.3,6.3,10.2,10.2
	C443.4,393.3,441.6,393.6,441.1,392.9L441.1,392.9z"/>
<path class="st11" d="M435.2,390c-4.6-4.6-9.2-9.2-14.2-13.3c-0.4-0.4,1.4-0.2,1.7,0.1c5,4.2,9.6,8.7,14.2,13.3
	C437.4,390.6,435.6,390.4,435.2,390L435.2,390z"/>
<path class="st11" d="M422.8,383.7c-3.4-3.4-6.9-6.8-10.7-9.8c-1-0.8,0.5-1.5,1.3-0.9c3.9,3.1,7.5,6.6,11,10.2
	C425.2,384,423.4,384.3,422.8,383.7L422.8,383.7z"/>
<path class="st11" d="M414.5,379.5c-4.1-4-8.4-7.7-12.5-11.7c-0.8-0.8,1-1,1.6-0.4c4.1,4,8.4,7.7,12.5,11.7
	C416.8,379.9,415,380,414.5,379.5L414.5,379.5z"/>
<path class="st11" d="M404.6,373c-4.8-3.8-9.9-7.4-15-10.8c-1.1-0.7,0.5-1.4,1.3-0.9c5.1,3.4,10.2,7,15,10.8
	C406.9,373,405.4,373.6,404.6,373L404.6,373z"/>
<path class="st11" d="M393,366.1c-4-2.1-7.5-4.9-11-7.6c-0.8-0.6,1.1-0.4,1.5-0.2c3.4,2.6,6.8,5.4,10.7,7.4
	C395.3,366.3,393.5,366.4,393,366.1L393,366.1z"/>
<path class="st11" d="M381.1,360.3c-1.9-1.9-4.2-3.4-6.5-4.9c-1.1-0.7,0.5-1.1,1.2-0.7c2.4,1.6,4.8,3.1,6.8,5.1
	C383.5,360.7,381.6,360.8,381.1,360.3L381.1,360.3z"/>
<path class="st11" d="M376.1,359.5c-2.8-2.7-5.9-5-9-7.4c-1-0.8,0.5-1.2,1.2-0.7c3.2,2.4,6.5,4.8,9.3,7.6
	C378.5,359.9,376.7,360,376.1,359.5L376.1,359.5z"/>
<path class="st11" d="M483.6,420.9c-2.1-2-4.1-4.1-6.5-5.7c-0.8-0.5,1.1-0.3,1.4,0c2.5,1.7,4.7,3.8,6.8,5.9
	C485.7,421.4,483.9,421.2,483.6,420.9L483.6,420.9z"/>
<path class="st11" d="M473.6,416.7c-1.2-1.1-2.6-1.9-3.4-3.4c-0.2-0.3,0.7-0.2,0.8-0.2c0.3,0.1,0.9,0.2,1.1,0.5
	c0.8,1.4,2.1,2.1,3.3,3.2c0.3,0.3-0.3,0.3-0.4,0.3C474.4,417.1,473.9,417,473.6,416.7L473.6,416.7z"/>
<path class="st11" d="M466.8,412.7c-0.9-1.7-2.7-2.7-4.1-4c-0.3-0.3-0.2-0.7,0.2-0.8c0.5-0.1,1,0,1.3,0.4c1.4,1.4,3.3,2.5,4.3,4.3
	C469.1,413.4,467.2,413.4,466.8,412.7L466.8,412.7z"/>
<path class="st11" d="M457.6,410.8c-2-2.9-5-5-7.4-7.4c-0.4-0.4,1.4-0.2,1.7,0.1c2.5,2.5,5.5,4.7,7.6,7.6
	C459.7,411.3,458,411.2,457.6,410.8L457.6,410.8z"/>
<path class="st11" d="M447,405.1c-3.2-2.1-6.2-4.5-9.3-6.8c-0.4-0.3,1.4-0.1,1.7,0.2c3,2.2,5.9,4.5,9,6.6
	C449.2,405.6,447.3,405.3,447,405.1L447,405.1z"/>
<path class="st11" d="M431.9,396.8c-1.8-2.5-4.4-4.4-6.5-6.5c-0.8-0.8,1.1-0.8,1.5-0.3c2.3,2.2,4.9,4.1,6.8,6.8
	C434.1,397.5,432.2,397.3,431.9,396.8L431.9,396.8z"/>
<path class="st11" d="M421.3,388.7c-3.2-2.1-6.3-4.5-9.3-6.8c-0.9-0.7,1-0.7,1.5-0.3c3,2.2,5.9,4.5,9,6.5
	C423.6,388.9,421.9,389.1,421.3,388.7L421.3,388.7z"/>
<path class="st11" d="M408.5,383.4c-1.7-1.7-3.3-3.3-5-5c-0.3-0.3,0.3-0.4,0.5-0.4c0.4,0,0.9,0.2,1.3,0.5c1.7,1.7,3.3,3.3,5,5
	c0.3,0.3-0.3,0.4-0.5,0.4C409.4,383.9,408.9,383.7,408.5,383.4L408.5,383.4z"/>
<path class="st11" d="M396.5,375.6c-2.3-1.2-4.4-2.6-6.2-4.4c-0.8-0.8,1-1,1.6-0.5c1.6,1.6,3.5,2.9,5.5,3.9
	C398.5,375.2,397.4,376.1,396.5,375.6L396.5,375.6z"/>
<path class="st11" d="M380.3,368.5c-2.7-1.8-4.5-4.5-6.8-6.8c-0.3-0.3,0.3-0.5,0.5-0.5c0.5,0,0.9,0.2,1.3,0.5c2.2,2.2,4,4.8,6.5,6.5
	c0.3,0.2,0.2,0.5-0.2,0.6C381.2,369,380.7,368.8,380.3,368.5L380.3,368.5z"/>
<path class="st11" d="M374.8,363.9c-1,0-2.1-0.3-2.9-0.9c-0.8-0.5-1.3-1.4-1.7-2.2c-0.2-0.3,0.7-0.3,0.8-0.2
	c0.4,0.1,0.9,0.2,1.1,0.6c0.4,0.8,0.9,1.9,2,1.9c0.4,0,1,0.2,1.3,0.5C375.6,363.8,375,363.9,374.8,363.9L374.8,363.9z"/>
<path class="st11" d="M368.5,360.9c-0.3-0.3-0.6-0.6-0.8-0.9c-0.2-0.3-0.1-0.7-0.1-1c0-0.5,1.9-0.1,1.9,0.5c0,0.2,0,0.5,0.1,0.7
	c0.1,0.3,0.5,0.5,0.7,0.7c0.3,0.3-0.3,0.4-0.5,0.4C369.4,361.4,368.9,361.2,368.5,360.9L368.5,360.9z"/>
<path class="st12" d="M614.3,333.3c-3.3-5.7-7.1-11.2-10.8-16.7c-0.2-0.3,1.6-0.2,1.9,0.3c3.7,5.5,7.5,10.9,10.8,16.7
	C616.4,333.9,614.6,333.8,614.3,333.3L614.3,333.3z"/>
<path class="st12" d="M607.7,330.2c-4.1-6.5-8.4-12.7-12.5-19.2c-0.6-0.9,1.4-0.9,1.8-0.2c4.1,6.5,8.4,12.7,12.5,19.2
	C610.1,330.9,608.1,330.9,607.7,330.2L607.7,330.2z"/>
<path class="st12" d="M601,325.8c-4.3-8.5-9.7-16.3-15-24.2c-0.2-0.3,1.6-0.2,1.9,0.3c5.3,7.9,10.7,15.7,15,24.2
	C603,326.4,601.2,326.3,601,325.8L601,325.8z"/>
<path class="st12" d="M586.1,305.4c-4.1-4.8-8.4-9.3-12.5-14.2c-0.8-0.9,1-1.2,1.6-0.5c4.1,4.8,8.4,9.3,12.5,14.2
	C588.5,305.8,586.7,306,586.1,305.4L586.1,305.4z"/>
<path class="st12" d="M586,316.9c-2-2.9-4.1-5.7-6.6-8.2c-0.8-0.8,1-1.1,1.6-0.5c2.5,2.6,4.8,5.5,6.8,8.5
	C588.4,317.5,586.4,317.5,586,316.9L586,316.9z"/>
<path class="st12" d="M577,314.5c-2.7-3.6-5.6-7.2-8.3-10.8c-0.7-1,1.1-1.2,1.6-0.5c2.7,3.6,5.6,7.2,8.3,10.8
	C579.3,315,577.5,315.2,577,314.5L577,314.5z"/>
<path class="st12" d="M571.8,316.1c-2.4-4.7-5.5-9.7-9.7-13c-1-0.8,0.5-1.5,1.3-0.9c4.5,3.5,7.7,8.7,10.3,13.7
	C574.2,316.8,572.2,316.8,571.8,316.1L571.8,316.1z"/>
<path class="st12" d="M570.1,320.8c-3.4-6.6-8.1-12.2-13.3-17.4c-0.4-0.4,1.4-0.1,1.7,0.2c5.2,5.3,10,11,13.4,17.6
	C572.1,321.3,570.4,321.2,570.1,320.8L570.1,320.8z"/>
<path class="st12" d="M577.7,336c-2.6-3.5-5.7-6.5-8.3-10c-0.5-0.7,1.4-0.6,1.8-0.1c2.6,3.5,5.7,6.5,8.3,10
	C580,336.6,578.1,336.5,577.7,336L577.7,336z"/>
<path class="st12" d="M597.7,352.7c-2.9-4.7-7.1-8.7-11.4-12.2c-1-0.8,0.5-1.5,1.3-0.9c4.5,3.7,8.9,7.9,11.9,12.8
	C600.1,353.4,598.1,353.5,597.7,352.7L597.7,352.7z"/>
<path class="st12" d="M589.9,354.7c-5.4-2.8-9.8-6.5-13.7-11.1c-0.7-0.9,1.1-0.9,1.5-0.4c3.7,4.3,7.9,8,12.9,10.6
	C591.8,354.4,590.7,355.1,589.9,354.7L589.9,354.7z"/>
<path class="st12" d="M572.8,345.3c-2.7-2.6-5.7-4.9-8.3-7.5c-0.8-0.8,1.1-0.8,1.5-0.4c2.7,2.6,5.7,4.9,8.3,7.5
	C575.2,345.7,573.3,345.7,572.8,345.3L572.8,345.3z"/>
<path class="st12" d="M562.7,340.9c-2.5-2.5-5-5-7.5-7.5c-0.5-0.5,1.4-0.3,1.7,0c2.5,2.5,5,5,7.5,7.5
	C565,341.5,563.1,341.3,562.7,340.9L562.7,340.9z"/>
<path class="st12" d="M554.4,341c-2.9-3.8-6.5-7.2-10.5-9.7c-1.1-0.7,0.5-1.1,1.2-0.7c4.3,2.7,8,6.3,11.1,10.3
	C556.7,341.6,554.8,341.5,554.4,341L554.4,341z"/>
<path class="st12" d="M546,340.9c-3-3.8-6.4-7.2-10.5-9.7c-1.1-0.7,0.6-0.9,1.2-0.5c4.4,2.7,7.9,6.3,11.1,10.3
	C548.3,341.6,546.4,341.4,546,340.9L546,340.9z"/>
<path class="st1" d="M545.2,348.5c-3.3-4.1-6.6-8.2-10.7-11.5c-0.9-0.7,1-0.8,1.5-0.4c4.2,3.4,7.6,7.6,11,11.8
	C547.5,349.1,545.6,349,545.2,348.5L545.2,348.5z"/>
<path class="st1" d="M559.4,360.1c-4.3-5.1-9-9.8-14-14.1c-0.8-0.7,1.1-0.5,1.5-0.2c5.2,4.3,9.9,9.1,14.3,14.3
	C561.6,360.7,559.7,360.5,559.4,360.1L559.4,360.1z"/>
<path class="st1" d="M555.2,363.4c-4-4.8-8.4-9.2-13.2-13.2c-0.8-0.7,1.1-0.6,1.5-0.3c4.9,4.1,9.4,8.6,13.5,13.5
	C557.5,364,555.6,363.9,555.2,363.4L555.2,363.4z"/>
<path class="st1" d="M545.2,358.4c-2.6-4-6.5-6.5-10.5-8.9c-1.1-0.7,0.6-0.8,1.2-0.5c4.2,2.5,8.4,5.2,11.1,9.4
	C547.4,359.1,545.5,358.9,545.2,358.4L545.2,358.4z"/>
<path class="st1" d="M536,355.9c-1.8-2.6-4.8-4-7.4-5.7c-0.8-0.5,1.1-0.4,1.5-0.1c2.7,1.8,5.7,3.3,7.6,5.9
	C538.2,356.6,536.3,356.3,536,355.9L536,355.9z"/>
<path class="st12" d="M527.9,354.7c-2.7-1.8-5.3-3.7-7.7-6c-0.9-0.8,1-1.2,1.6-0.6c2.2,2.2,4.8,4,7.3,5.7
	C530.3,354.5,528.7,355.2,527.9,354.7L527.9,354.7z"/>
<path class="st12" d="M520.3,352.8c-1.9-1.9-3.9-3.9-5.8-5.8c-0.8-0.8,1-1,1.6-0.4c1.9,1.9,3.9,3.9,5.8,5.8
	C522.7,353.2,520.8,353.4,520.3,352.8L520.3,352.8z"/>
<path class="st12" d="M509.4,346.8c-0.8-1.5-2.2-2.2-3.7-3c-0.2-0.1-0.8-0.4-0.5-0.8c0.3-0.3,0.9-0.2,1.3,0c1.8,0.9,3.7,1.9,4.7,3.7
	C511.6,347.5,509.7,347.3,509.4,346.8L509.4,346.8z"/>
<path class="st12" d="M503.2,343.9c-1.7-0.8-3.3-1.7-5-2.5c-1.2-0.6-0.1-1.5,0.8-1c1.7,0.8,3.3,1.7,5,2.5
	C505.1,343.5,504.1,344.4,503.2,343.9L503.2,343.9z"/>
<path class="st12" d="M495.7,341.4c-2-1-3.8-2-5.4-3.6c-0.3-0.3-0.2-0.6,0.2-0.7c0.4-0.1,1,0,1.3,0.4c1.4,1.3,2.9,2.2,4.6,3.1
	C497.6,341.1,496.6,341.8,495.7,341.4L495.7,341.4z"/>
<path class="st13" d="M564.3,300.2c-2.4-4.8-5.3-9.3-9.1-13.2c-0.8-0.9,1-1.2,1.6-0.6c3.9,4,6.8,8.6,9.3,13.5
	C566.6,301,564.7,301,564.3,300.2L564.3,300.2z"/>
<path class="st13" d="M559.4,297.7c-1.6-3.1-3.1-6.2-5-9.2c-0.5-0.8,1.4-0.7,1.8-0.1c1.9,2.9,3.4,6.1,5,9.2
	C561.6,298.4,559.7,298.3,559.4,297.7L559.4,297.7z"/>
<path class="st13" d="M555.1,300.8c-1-2.8-3.3-5-5-7.5c-0.2-0.3,1.5-0.2,1.9,0.3c1.7,2.5,3.9,4.7,5,7.5
	C557.2,301.5,555.3,301.3,555.1,300.8L555.1,300.8z"/>
<path class="st13" d="M551,306.9c-0.9-2.7-2.5-5-4.1-7.3c-0.7-1,1.1-1.4,1.6-0.6c1.6,2.4,3.3,4.9,4.3,7.7
	C553.2,307.7,551.3,307.7,551,306.9L551,306.9z"/>
<path class="st13" d="M550.1,311.7c-1-2.9-2.4-5.6-4.1-8.2c-0.5-0.8,1.4-0.7,1.8-0.1c1.7,2.7,3.2,5.5,4.2,8.5
	C552.3,312.6,550.4,312.4,550.1,311.7L550.1,311.7z"/>
<path class="st13" d="M548.6,312.9c-1.9-2.8-3.4-5.9-5.8-8.3c-0.8-0.9,1-1.3,1.6-0.6c2.4,2.5,4,5.5,5.8,8.3
	C550.9,313.3,549.1,313.7,548.6,312.9L548.6,312.9z"/>
<path class="st13" d="M530.3,329.4c-2.5-2.6-4.6-5.6-6.8-8.5c-0.5-0.7,1.4-0.5,1.8,0c2.1,2.8,4.1,5.7,6.5,8.2
	C532.6,329.9,530.7,329.8,530.3,329.4L530.3,329.4z"/>
<path class="st13" d="M527.7,337.7c-0.8-1.9-1.7-3.8-2.8-5.6c-1-1.7-2.3-4-4.2-4.8c-1.2-0.5-0.1-1.4,0.8-1c4.1,1.7,6.5,7.5,8,11.3
	C529.9,338.5,528,338.4,527.7,337.7L527.7,337.7z"/>
<path class="st13" d="M524.5,338.7c-1.9-2.8-4.3-5.1-6.7-7.5c-0.8-0.8,1-1.2,1.6-0.6c2.4,2.4,4.8,4.7,6.7,7.5
	C526.7,339.1,525,339.5,524.5,338.7L524.5,338.7z"/>
<path class="st13" d="M520.3,339.4c-2.3-1.6-4.4-3.4-6.7-5c-0.3-0.2-0.2-0.5,0.2-0.6c0.5-0.1,1,0.1,1.3,0.4c2.3,1.6,4.4,3.4,6.7,5
	c0.3,0.2,0.2,0.5-0.2,0.6C521.2,339.8,520.7,339.6,520.3,339.4L520.3,339.4z"/>
<path class="st13" d="M508.8,335.3c-1.8-0.9-3.6-1.9-4.5-3.7c-0.2-0.4,0.7-0.3,0.8-0.3c0.4,0.1,0.9,0.2,1.1,0.6
	c0.8,1.5,2.3,2.3,3.8,3c0.2,0.1,0.6,0.5,0.2,0.6C509.8,335.7,509.2,335.5,508.8,335.3L508.8,335.3z"/>
<path class="st0" d="M466,241.8c-2.6-5-5.9-10-9.9-14c-0.8-0.8,1-1,1.6-0.4c4,4.1,7.5,9.2,10.1,14.3
	C468.3,242.6,466.4,242.5,466,241.8L466,241.8z"/>
<path class="st0" d="M462.6,245.9c-0.9-4.1-3.7-8.7-7.2-11.2c-1-0.8,0.5-1.3,1.2-0.8c3.8,2.7,6.8,7.7,7.8,12.1
	C464.7,246.9,462.8,246.6,462.6,245.9L462.6,245.9z"/>
<path class="st0" d="M462.6,252.5c-0.6-1.6-1.2-3.1-2-4.6c-0.5-0.9-2.4-4.3-3.8-4c-0.5,0.1-2.2-0.7-1.5-0.8c5-1.2,8,6.2,9.2,9.7
	C464.7,253.3,462.8,253,462.6,252.5L462.6,252.5z"/>
<path class="st0" d="M459.3,255c-0.8-3.4-3-8.2-6.7-9.3c-1.1-0.3-0.8-1.6,0.3-1.2c4.5,1.4,7.3,6.4,8.3,10.7
	C461.4,256.1,459.5,255.8,459.3,255L459.3,255z"/>
<path class="st0" d="M457.6,255.8c-1.9-4.5-5.7-8.1-9.8-10.6c-0.8-0.5,1.1-0.3,1.5-0.1c4.3,2.7,8.2,6.3,10.2,11
	C459.7,256.5,457.9,256.3,457.6,255.8L457.6,255.8z"/>
<path class="st0" d="M450.1,251.7c-1.8-4.2-5-7.2-8.8-9.6c-1.1-0.7,0.6-1,1.2-0.6c4.1,2.5,7.6,5.9,9.5,10.4
	C452.3,252.5,450.4,252.3,450.1,251.7L450.1,251.7z"/>
<path class="st0" d="M445.3,249.4c-3.6-2.8-6.8-6-10-9.2c-0.8-0.8,1.1-0.8,1.5-0.3c3.2,3.2,6.4,6.4,10,9.2
	C447.7,249.8,445.8,249.8,445.3,249.4L445.3,249.4z"/>
<path class="st0" d="M438.5,248.4c-2.8-2.8-5.1-6-7.5-9.2c-0.5-0.6,1.4-0.4,1.7,0c2.4,3.2,4.7,6.3,7.5,9.2
	C440.8,249,438.9,248.8,438.5,248.4L438.5,248.4z"/>
<path class="st0" d="M444.4,283.5c-2.6-5.9-6.7-10.7-11.5-14.9c-0.9-0.7,1-0.8,1.5-0.4c5,4.2,9.1,9.2,11.8,15.1
	C446.5,284.3,444.6,284.1,444.4,283.5L444.4,283.5z"/>
<path class="st0" d="M439.4,284.3c-1.5-3.2-3.6-6.2-5.8-8.9c-1.6-2-3.4-4.5-5.6-5.8c-1.1-0.6,0.5-1.1,1.2-0.7
	c2.2,1.3,3.9,3.6,5.4,5.5c2.5,3,4.9,6.2,6.5,9.8C441.5,285.1,439.6,285,439.4,284.3L439.4,284.3z"/>
<path class="st0" d="M434.3,285.2c-2.3-4.5-5.5-10-9.7-13c-1-0.8,0.5-1.4,1.3-0.9c4.5,3.2,7.8,8.9,10.3,13.7
	C436.6,286,434.7,286,434.3,285.2L434.3,285.2z"/>
<path class="st0" d="M430.1,285.8c-0.2-1.8-2-3.8-3.1-5.2c-1.8-2.5-3.8-4.8-5.9-7c-0.8-0.8,1.1-0.7,1.5-0.3c2.1,2.1,4,4.4,5.8,6.8
	c1.2,1.6,3.4,3.9,3.6,6C432.1,286.8,430.2,286.4,430.1,285.8L430.1,285.8z"/>
<path class="st0" d="M426,285c-2.4-5.5-5.6-10.5-10.6-13.9c-0.8-0.6,1.1-0.5,1.5-0.2c5.2,3.6,8.5,8.7,11,14.4
	C428.1,285.7,426.2,285.5,426,285L426,285z"/>
<path class="st0" d="M422.6,286.6c-2.6-6.7-7.5-11.6-13.3-15.7c-0.4-0.3,1.4-0.1,1.7,0.2c5.8,4.2,10.7,9.2,13.4,15.9
	C424.6,287.2,422.8,287.1,422.6,286.6L422.6,286.6z"/>
<path class="st0" d="M414.5,282c-3.4-4.3-6.9-8.6-10.8-12.5c-0.8-0.8,1-1,1.6-0.5c3.9,3.9,7.4,8.2,10.8,12.5
	C416.8,282.5,415,282.6,414.5,282L414.5,282z"/>
<path class="st0" d="M408.5,282.7c-2.8-4.6-6.4-8.8-10.5-12.2c-1-0.8,0.6-1.3,1.2-0.7c4.4,3.6,8.1,8,11.1,12.8
	C410.8,283.4,408.9,283.3,408.5,282.7L408.5,282.7z"/>
<path class="st0" d="M401,279.2c-2.7-2.6-5.7-4.9-8.3-7.5c-0.5-0.5,1.4-0.3,1.7,0.1c2.7,2.6,5.7,4.9,8.3,7.5
	C403.3,279.8,401.4,279.6,401,279.2L401,279.2z"/>
<path class="st0" d="M394.4,277.5c-3.2-4-6-8.4-10-11.7c-0.4-0.4,1.4-0.2,1.7,0.1c4,3.3,6.8,7.6,10,11.7
	C396.5,278.2,394.7,277.9,394.4,277.5L394.4,277.5z"/>
<path class="st0" d="M387.6,277.5c-1.7-3.4-3.5-6.6-6.5-8.9c-0.8-0.6,1.1-0.6,1.5-0.2c3.2,2.5,5.1,5.9,6.9,9.4
	C389.8,278.2,387.9,278,387.6,277.5L387.6,277.5z"/>
<path class="st0" d="M379.5,273.5c-2.8-1.9-5.2-4.4-7.6-6.8c-0.4-0.4,1.4-0.2,1.7,0.1c2.3,2.3,4.6,4.7,7.4,6.6
	C381.8,273.9,379.9,273.7,379.5,273.5L379.5,273.5z"/>
<path class="st0" d="M373.6,275.1c-2.1-2.1-4.1-4.1-6.5-5.7c-0.8-0.6,1.1-0.4,1.5-0.1c2.5,1.7,4.7,3.8,6.8,5.9
	C375.7,275.6,373.9,275.4,373.6,275.1L373.6,275.1z"/>
</svg>
