<?xml version="1.0" encoding="utf-8"?>
<!-- Generator: Adobe Illustrator 22.1.0, SVG Export Plug-In . SVG Version: 6.00 Build 0)  -->
<svg version="1.1" id="Livello_1" xmlns="http://www.w3.org/2000/svg" xmlns:xlink="http://www.w3.org/1999/xlink" x="0px" y="0px"
	 viewBox="0 0 357.2 667.7" style="enable-background:new 0 0 357.2 667.7;" xml:space="preserve">
<style type="text/css">
	.st0{fill:#F7F7F8;stroke:#F7F7F8;stroke-miterlimit:10;}
	.st1{fill:#F7F7F8;}
	.st2{fill:#FFFFFF;}
	.st3{fill:none;stroke:#F7F7F8;stroke-miterlimit:10;}
	.st4{font-family:'Montserrat-Bold';}
	.st5{font-size:6.1842px;}
</style>
<g>
	<path class="st0" d="M184.8,104.5c0.1,0.2,12.9,16.1,27.5,42.2c21.3,38.1,46.5,97.5,45.5,163.6c-1.1,77.5-42.9,200.7-43.4,201.9
		l-0.1,0.2c-0.4,0.6-7.9,10.4-28.5,12.2c-0.2-0.5-0.5-0.8-0.8-1.1c19.8-1.5,27.7-10.8,28.4-11.7c1.3-4,42.2-125,43.3-201.4
		c1-66-24.1-125.1-45.3-163.1c-13-23.3-24.5-38.4-26.9-41.5c-3,3.7-20.7,25.6-38.3,58.6c-17.7,33.4-39.1,85.6-40,143.6
		c-0.7,42.2,10.4,96.7,20.9,138.6v0.1c0.8,1.1-0.8,3.3,1.5,4.8c0,0-0.6-1-0.7-1.5v0.1c8.6,34,16.6,58.9,17.1,60.4
		c0.4,0.8,6.2,9.3,23.3,12.1c-0.2,0.3-0.2,0.8-0.2,1.2c-18.4-2.9-23.9-12.2-24.2-12.7V511v0c-0.2-0.6-8.4-26.3-17.4-61.7v-0.1
		c-0.7-0.3,0.3-0.8-0.3-1.1V448c-10.5-42.1-21.8-97.5-21.1-140c0.8-58.5,22.3-110.7,40.1-144.2c19.3-36.1,38.7-58.9,38.9-59.2
		l0.5-0.6L184.8,104.5z"/>
	<path class="st1" d="M114.5,398.7c-3.2-16.1-5.5-31.3-7.2-45.1l-0.1-0.9l0.9,0.4c0.4,0.1,36,13,72.4,13.6
		c36.2,0.5,71.7-11.3,72.1-11.4l0.9-0.3l-0.1,0.9c-2.1,13.7-4.8,28.7-8.3,44.9L245,401l-0.3,0.1c-0.3,0.1-27.7,12.3-64.9,11.7
		c-37.2-0.6-64.6-13.5-65-13.6l-0.3-0.2L114.5,398.7z M252,356.5c-5.7,1.9-38.4,11.7-71.5,11.2s-66-11.3-71.9-13.4
		c1.6,13.5,4,28.1,7,43.8c2.9,1.3,29.3,12.8,64.1,13.3c34.8,0.6,61.2-10.2,64.1-11.5C247.3,384.5,250,369.9,252,356.5z"/>
	<path class="st2" d="M106.6,347.7c-1.6-14.6-2.3-27.9-2.1-39.6c0-2.1,0.1-4.4,0.3-7.2l0.1-0.8l0.8,0.3c0.4,0.1,35.3,13,75.8,13.7
		s75.1-11.3,75.4-11.4l0.8-0.3v0.8c0.1,2.8,0,5.1,0.1,7.3c-0.2,11.6-1.3,24.8-3.3,39.5v0.4l-0.4,0.1c-0.4,0.1-34.5,12.1-73.2,11.5
		c-38.8-0.6-73.2-13.6-73.5-13.8l-0.3-0.2L106.6,347.7z M256.2,310.3c0-1.9,0.1-4,0-6.4c-5.4,1.7-37.8,11.7-75,11.2
		c-37.4-0.6-70-11.6-75.3-13.5c-0.1,2.5-0.2,4.5-0.2,6.4c-0.2,11.4,0.6,24.6,2.1,39.1c3.7,1.3,36.3,12.9,72.8,13.5
		s68.9-10.1,72.5-11.3C254.9,335,255.9,321.8,256.2,310.3z"/>
	<path class="st2" d="M119.7,223.1C139,164,171.4,120.2,181.1,108l1-71.1c-0.8-0.6-1.3-1.2-1.7-2l0,0c-0.5-0.9-0.8-1.9-0.8-2.8
		c0.1-3.2,2.6-5.7,5.7-5.6c2.1,0,3.8,1.1,4.9,2.9c0.5,0.9,0.8,1.9,0.8,2.8c0,1.9-0.9,3.7-2.5,4.7l-1.1,70.8
		c4.8,6.4,14.3,19.9,24.9,38.9c14.4,25.6,25.4,51.9,33.2,78.2l0.1,0.4l-0.3,0.2c-0.7,0.5-17.7,12.1-64.2,11.4s-60.5-12.7-61.2-13.2
		l-0.3-0.3L119.7,223.1z M211.1,147.2c-10.7-19.2-20.3-32.6-25-38.9l-0.1-0.2l1-71.7V36l0.3-0.2c1.4-0.8,2.3-2.3,2.3-3.9
		c0-0.8-0.1-1.6-0.6-2.3c-0.8-1.4-2.3-2.3-3.8-2.3c-2.4,0-4.5,1.9-4.5,4.4c0,0.8,0.3,1.6,0.7,2.3l0,0c0.4,0.7,0.9,1.3,1.6,1.7
		l0.2,0.2l-1,72.2l-0.1,0.2c-9.5,12-41.9,55.4-61.2,114.5c2.3,1.8,17.7,12.2,60.2,12.7c42.5,0.7,60.5-9.3,63.2-11
		C236.5,198.7,225.4,172.7,211.1,147.2z"/>
	<g>
		<path class="st2" d="M276.7,591.3c-6.2-25.3-15.4-44.7-26.8-56.5c-19.5-20.3-29.4-23.2-33.4-23.2c-2.3,0.1-3.1,0.8-3.2,0.9
			l-1.8,2.1l26.1-88.3l0.7,0.5c0.4,0.3,32.9,22.3,47.6,48.6c2.2,3.8,3.8,7.6,5,11c1.3-2.9,2.4-4.2,3.7-4.2c0.7,0.1,1.3,0.6,1.8,1.5
			c3.8,6.7,4.2,39.5,1,77.6c-1.7,20.8-4.3,40.2-7.2,54.8c-4.6,23.1-7.7,22.8-8.7,22.8c-0.7-0.1-1.3-0.6-1.8-1.5
			C277,632.8,275.9,615.5,276.7,591.3z M294.5,483.5c-0.4,0-1.4,0.3-3.2,4.9l-0.6,1.6l-0.5-1.7c-1.1-4-3-8.2-5.4-12.5
			c-13.4-24-41.8-44.5-46.6-47.8L214,510.7c0.7-0.3,1.4-0.5,2.4-0.5c5.2-0.1,15.5,3.8,34.5,23.5c11.5,12,20.8,31.5,27.1,57.1v0.2
			c-0.8,23.8,0.3,41.3,2.7,45.7c0.3,0.6,0.6,0.8,0.9,0.8s3.3-0.3,7.5-21.8c2.9-14.5,5.4-34,7.2-54.7c3.1-37.4,2.8-70.5-0.8-77
			C295.1,483.8,294.7,483.5,294.5,483.5z"/>
		<path class="st1" d="M236.3,422.6l3.3,2.2c0.4,0.3,33.2,22.6,48.3,49.4c1.3,2.4,2.5,4.7,3.6,7.1c0.9-0.8,2-1.4,3.5-1.3
			c1,0.1,2.5,0.7,3.7,2.7c4.8,8.5,4,46.8,1.3,78.9c-1.8,20.9-4.3,40.4-7.2,55.1c-4.6,23.2-8.1,24.8-11.3,24.6
			c-1-0.1-2.5-0.7-3.7-2.7c-4-7.2-3.6-35.1-3.1-47.2c-3.8-15.5-8.7-28.7-14.7-39.4c-3.5-6.2-7.3-11.5-11.5-15.9
			c-19.7-20.4-28.7-22.5-31.8-22.4c-0.9,0-1.4,0.3-1.5,0.3l-8.6,10.1L236.3,422.6z M293.5,489.3l-3.1,8l-2.4-8.2
			c-1.1-3.8-2.9-7.9-5.2-11.9c-11.6-20.8-34.5-38.7-43.2-45.1l-22.4,76.1c8.3,0.3,20.1,8.4,35.3,24.3c4.4,4.6,8.5,10.3,12.3,17
			c6.2,11.1,11.4,25,15.4,41.2l0.1,0.8c-0.8,22.6,0.2,36.7,1.7,42.4c1.1-2.5,2.8-7.6,5-18.1c2.9-14.4,5.4-33.7,7.1-54.4
			c3.1-36.8,2.5-64.8,0.2-73.6C293.9,488,293.7,488.6,293.5,489.3z"/>
	</g>
	<g>
		<path class="st2" d="M58.5,559.4c-1.1-20.9-1.3-40.4-0.5-55.3c1.4-23.5,4.5-23.7,5.5-23.7c1.2-0.1,2.4,1.3,3.6,4.2
			c11.3-30.8,53.8-57.9,54.2-58.1l0.7-0.4l22.8,86.4l0.7,2.5l-1.6-1.9c0-0.1-0.8-0.9-3.1-1c-4.1-0.2-14,2.5-34.2,22.2
			c-11.8,11.6-21.4,30.3-28.4,55.6c0,11.2-0.3,47.3-6.1,47.7c-0.9,0.1-1.8-0.8-2.6-2.2l0,0C65.1,627.1,60.5,596.1,58.5,559.4z
			 M121.5,428.1c-5.5,3.7-44.1,29.7-53.6,58.6l-0.6,1.6l-0.6-1.6c-0.5-1.4-1-2.5-1.5-3.4c-0.8-1.5-1.3-1.6-1.6-1.6
			c-0.4,0-3.2,0.8-4.5,22.6c-0.8,14.8-0.7,34.4,0.4,55.1c2,35.9,6.5,67.5,10.9,75.4c0.8,1.5,1.3,1.6,1.6,1.6
			c2.1-0.1,5.2-12.6,5-46.5v-0.1c7-25.7,16.7-44.6,28.7-56.3c19.6-19.1,29.9-22.8,35.1-22.5c1,0.1,1.8,0.3,2.3,0.5L121.5,428.1z"/>
		<path class="st1" d="M56.2,559.6c-1.1-20.9-1.3-40.7-0.4-55.6c1.4-23.5,4.6-25.7,7.7-25.9c1.2-0.1,2.3,0.4,3.4,1.4
			c13.7-29.7,52.9-54.7,53.4-55l3.4-2.1l23.6,89.3l3.2,12.1l-8-9.3c-0.1,0-0.6-0.3-1.5-0.4c-3-0.2-12.2,1.7-32.5,21.5
			C97,547,87.7,565.3,80.8,590c0.3,49.2-5.7,49.5-8.3,49.7c-1.9,0.1-3.5-1-4.8-3.4l0,0C62.7,627.9,58.2,597.1,56.2,559.6z
			 M120,431.8c-10,7-41.7,30.4-50,55.6l-2.6,8.1l-2.8-8c-0.2-0.6-0.4-1-0.6-1.6c-0.8,2.5-1.8,7.8-2.4,18.6
			c-0.8,14.6-0.7,34.2,0.5,54.9c1.8,33.1,6,63.5,10,72.9c1.3-4.6,3.1-16.7,2.9-42.4l0.1-0.8c7.1-26.1,17.1-45.3,29.3-57.3
			c15.7-15.3,27.7-23,36-23.2L120,431.8z"/>
	</g>
	<path class="st2" d="M158.5,272.5c0.1-6,2.5-11.7,6.9-15.9c4.3-4.2,10-6.5,16.1-6.3c8,0.2,15.4,4.5,19.2,11.5c2,3.5,3,7.5,2.8,11.4
		c-0.1,6-2.5,11.7-6.9,15.9c-4.3,4.2-10,6.5-16.1,6.3c-8-0.2-15.4-4.5-19.2-11.5C159.4,280.4,158.4,276.4,158.5,272.5z M181.3,251.3
		c-5.7-0.2-11.1,2.1-15.1,6c-4.1,4-6.4,9.3-6.5,15c0,3.8,0.8,7.6,2.7,10.9c3.8,6.7,10.7,10.9,18.3,11c5.7,0.2,11.1-2.1,15.1-6
		c4.1-4,6.4-9.3,6.5-15c0-3.8-0.8-7.6-2.7-10.9C195.8,255.6,188.9,251.5,181.3,251.3z"/>
	<g>
		<path class="st2" d="M196.4,273.9c0-0.6,0-1.2-0.1-1.9l-0.1-0.3l0.2-0.2c0.8-0.7,1.4-1.2,2.3-1.8l0.8-0.6l0.1,1
			c0.1,0.5,0.1,1,0.1,1.7c-0.1,5.3-2.4,10.1-6.4,13.4l-0.8-0.8C195,281.4,196.3,277.7,196.4,273.9z M197.5,272.2
			c0,0.7,0.1,1.1,0.1,1.7c0,1.7-0.3,3.5-0.8,5.2c1.1-2.3,1.8-4.7,1.8-7.4c0-0.1,0-0.4,0-0.4C198.2,271.5,197.8,271.9,197.5,272.2z"
			/>
		<path class="st2" d="M187.9,258.8c0.4-0.9,0.8-1.8,1.1-2.6l0.2-0.6l0.6,0.2c3.3,1.6,5.9,4.1,7.7,7.3c0.8,1.4,1.3,2.8,1.7,4.3
			l0.1,0.4L199,268c-0.7,0.5-1.5,1-2.2,1.7l-0.7,0.5l-0.3-0.8c-1.1-4.2-3.9-7.7-7.7-9.8l-0.5-0.3L187.9,258.8z M196.7,268.1
			c0.5-0.4,0.8-0.6,1.2-0.9c-0.4-1.3-0.8-2.5-1.5-3.6c-1.6-2.8-3.8-5-6.7-6.5c-0.2,0.6-0.4,1-0.6,1.6c2.6,1.6,4.7,3.8,6.2,6.4
			C195.8,266,196.3,267.1,196.7,268.1z"/>
		<path class="st2" d="M182.5,253.9c1.6,0,3.2,0.3,4.8,0.8l0.7,0.2l-0.2,0.6c-0.3,0.8-0.7,1.7-0.9,2.5l-0.2,0.6l-0.6-0.2
			c-1.8-0.8-3.7-1-5.6-1.1c-3.8,0-7.5,1.2-10.4,3.7l-0.8-0.8C172.5,256.1,177.3,253.9,182.5,253.9z M186.5,255.6
			c-1.3-0.4-2.5-0.5-3.8-0.6c-2.6,0-5.1,0.5-7.3,1.6c1.7-0.5,3.5-0.8,5.2-0.8c1.9,0,3.7,0.4,5.5,1
			C186.1,256.6,186.3,256.1,186.5,255.6z"/>
	</g>
	<path class="st2" d="M169.4,332.9c0.1-6.9,5.8-12.4,12.5-12.3c4.4,0.1,8.4,2.5,10.6,6.3c1,1.9,1.6,4.1,1.6,6.2
		c-0.1,3.3-1.4,6.4-3.8,8.7c-2.3,2.3-5.5,3.6-8.8,3.5c-4.4-0.1-8.4-2.5-10.6-6.3C169.9,337.1,169.4,335,169.4,332.9z M181.9,321.7
		c-6.2-0.1-11.3,4.9-11.4,11c-0.1,2,0.5,4,1.4,5.7c2,3.5,5.6,5.7,9.6,5.8c3,0,5.8-1.1,8-3.2s3.4-4.9,3.5-7.9c0.1-2-0.5-4-1.4-5.7
		C189.6,324,185.9,321.8,181.9,321.7z"/>
	<path class="st2" d="M168.5,393c0.1-6.9,5.8-12.4,12.5-12.3c4.4,0.1,8.4,2.5,10.6,6.3c1,1.9,1.6,4.1,1.6,6.2
		c-0.1,3.3-1.4,6.4-3.8,8.7c-2.3,2.3-5.5,3.6-8.8,3.5c-4.4-0.1-8.4-2.5-10.6-6.3C169.1,397.4,168.5,395.2,168.5,393z M181.1,381.9
		c-6.2-0.1-11.3,4.9-11.4,11c-0.1,2,0.5,4,1.4,5.7c2,3.5,5.6,5.7,9.6,5.8c3,0,5.8-1.1,8-3.2s3.4-4.9,3.5-7.9c0.1-2-0.5-4-1.4-5.7
		C188.8,384.2,185,381.9,181.1,381.9z"/>
	<g>
		<path class="st2" d="M187.6,339.8l0.8,0.8c2.3-1.9,3.8-4.7,3.7-7.7c0-0.4,0-0.7,0-0.9l-0.1-1l-0.8,0.6c-0.5,0.4-0.8,0.7-1.2,1
			l-0.2,0.2l0.1,0.3c0,0.4,0.1,0.8,0.1,1C189.6,336.2,189,338.2,187.6,339.8z"/>
		<path class="st2" d="M185,325.5c0.2-0.5,0.4-1,0.6-1.5l0.2-0.6l0.6,0.2c2.6,1.3,4.7,3.8,5.4,6.7l0.1,0.4l-0.3,0.2
			c-0.4,0.2-0.8,0.6-1.2,0.9l-0.7,0.5l-0.3-0.8c-0.7-2.3-2.2-4.2-4.1-5.3l-0.5-0.3L185,325.5z M190.2,330.4c0.1,0,0.2-0.1,0.3-0.2
			c-0.7-2.2-2.2-4.1-4.1-5.3c0,0.1-0.1,0.3-0.2,0.5c1.4,0.9,2.6,2.1,3.4,3.6C189.8,329.5,190,330,190.2,330.4z"/>
		<path class="st2" d="M182.2,322.7c0.9,0,1.8,0.2,2.7,0.5l0.7,0.2l-0.2,0.6c-0.2,0.5-0.4,0.9-0.6,1.4l-0.2,0.6l-0.6-0.2
			c-1-0.4-2.1-0.6-3.1-0.7c-2.1,0-4.1,0.8-5.7,2.1l-0.8-0.8C176.4,323.9,179.1,322.6,182.2,322.7z M184,324.1
			c-0.6-0.1-1.2-0.2-1.9-0.3c-0.2,0-0.4,0-0.7,0c0.8,0.1,1.6,0.2,2.4,0.5C183.9,324.3,184,324.1,184,324.1z"/>
	</g>
	<g>
		<path class="st2" d="M186.3,400l0.8,0.8c2.3-1.9,3.7-4.6,3.7-7.7c0-0.4,0-0.7,0-0.9l-0.1-1l-0.8,0.6c-0.5,0.4-0.8,0.7-1.2,1
			l-0.2,0.2l0.1,0.3c0.1,0.3,0.1,0.8,0.1,1C188.4,396.4,187.6,398.3,186.3,400z"/>
		<path class="st2" d="M183.6,385.7c0.2-0.5,0.4-1,0.6-1.5l0.2-0.6l0.6,0.2c2.6,1.3,4.7,3.8,5.4,6.7l0.1,0.4l-0.3,0.2
			c-0.4,0.2-0.8,0.6-1.2,0.9l-0.7,0.5l-0.3-0.8c-0.7-2.3-2.2-4.2-4.1-5.3l-0.5-0.3L183.6,385.7z M189,390.7c0.1,0,0.2-0.1,0.3-0.2
			c-0.7-2.2-2.2-4.1-4.1-5.3c0,0.1-0.1,0.3-0.2,0.5c1.4,0.9,2.6,2.1,3.4,3.6C188.5,389.7,188.7,390.1,189,390.7z"/>
		<path class="st2" d="M180.9,382.8c0.9,0,1.8,0.2,2.7,0.5l0.7,0.2l-0.2,0.6c-0.2,0.5-0.4,0.9-0.6,1.4l-0.2,0.6l-0.7-0.2
			c-1-0.4-2.1-0.6-3.1-0.7c-2.1,0-4.1,0.8-5.6,2l-0.8-0.8C175.1,384.1,177.9,382.8,180.9,382.8z M182.7,384.3
			c-0.6-0.1-1.2-0.2-1.9-0.3c-0.2,0-0.4,0-0.7,0c0.8,0.1,1.6,0.2,2.4,0.5C182.6,384.5,182.7,384.4,182.7,384.3z"/>
	</g>
	<g>
		<g>
			<path class="st2" d="M185,555.5c0.1-11-0.1-21.6-0.6-31.4v-0.6l0.5-0.1c7.7-0.7,15.2-2.7,22.2-6.1l0.5-0.3l0.2,0.6
				c4.6,10.1,8.4,20.3,11.4,30.4l0.1,0.4l-0.3,0.2c-0.4,0.2-9.5,6.4-33.5,7.4h-0.7L185,555.5z M207.1,518.5
				c-6.9,3.2-14,5.2-21.4,5.9c0.5,9.5,0.6,19.7,0.5,30.3c20.6-0.9,30-5.9,31.8-7C215.1,538.2,211.5,528.3,207.1,518.5z"/>
			<path class="st1" d="M182.7,555.5c0.1-11-0.1-21.5-0.6-31.4l-0.1-2.7l2.7-0.3c7.4-0.8,14.6-2.6,21.4-5.9l2.6-1.2l1.2,2.6
				c4.6,10.2,8.4,20.6,11.4,30.7l0.6,2.1l-1.7,1.2c-1,0.7-10.4,6.9-34.6,7.8l-3.1,0.1L182.7,555.5z M205.9,521.6
				c-5.7,2.5-11.7,4.2-17.9,4.9c0.4,8.1,0.5,16.8,0.5,25.9c15-0.9,23.4-4.1,26.8-5.7C212.7,538.4,209.5,530,205.9,521.6z"/>
		</g>
		<g>
			<path class="st2" d="M136.5,546.8c3.3-10,7.3-20,12.1-30l0.2-0.6l0.6,0.2c6.2,3.2,13,5.4,20,6.4l0.6,0.1v0.6
				c-0.8,9.8-1.2,20.5-1.5,31.6v0.7l-0.6-0.1c-23.5-1.7-30.9-8.1-31.2-8.4l-0.3-0.3L136.5,546.8z M168.7,524
				c-6.8-1-13.1-3.1-19.3-6.2c-4.6,9.6-8.5,19.4-11.7,29c1.6,1.1,9.6,6.3,29.6,7.7C167.6,543.8,168,533.6,168.7,524z"/>
			<path class="st1" d="M134.3,546c3.3-10.1,7.4-20.2,12.3-30.4l1.3-2.6l2.6,1.3c6,3.1,12.5,5.2,19.3,6.2l2.6,0.5l-0.2,2.7
				c-0.8,9.8-1.2,20.4-1.4,31.4v3l-3-0.2c-23.8-1.7-31.7-8.1-32.6-9l-1.4-1.2L134.3,546z M166.3,526c-5.4-1-10.7-2.7-15.8-5.1
				c-3.8,8.3-7.2,16.7-10.1,24.9c3,1.7,10.3,4.9,24.6,6.2C165.2,542.9,165.7,534.1,166.3,526z"/>
		</g>
	</g>
	<path class="st3" d="M106.8,349c-1.5-13.8-2.3-27.1-2.2-39.5c0.1-2.5,0.1-4.8,0.2-7.2c0,0,34.9,13.1,75.9,13.7s75.6-11.4,75.6-11.4
		c0,2.4,0.1,4.7,0.1,7.3c-0.2,12.2-1.4,25.6-3.3,39.5c0,0-34,12.1-73.1,11.4C141.1,362.2,106.8,349,106.8,349z"/>
	<path class="st3" d="M179.9,33.5c0.1-2.7,2.3-5,5.2-5c2.7,0.1,5,2.4,5,5.2c0,1.9-1,3.5-2.6,4.4l-1.2,82.1h-5.1l1.3-82.2
		C180.9,36.9,180,35.3,179.9,33.5z"/>
	<path class="st0" d="M120,224.7c22.9-70.1,64-118.3,64-118.3s39.8,49.4,60.5,120.1c0,0-17.1,12-63.8,11.2
		C133.9,237.1,120,224.7,120,224.7z"/>
	<path class="st2" d="M203.4,142.2c9.3,15,20.7,35.6,30.6,60.3c-6.6-11-13.9-21.3-21.7-31.1c-5.5-6.8-11.5-13.3-17.5-19.6
		C197,147.5,200.1,143.4,203.4,142.2z"/>
	<path class="st2" d="M189.3,122.3c2.6,3.6,6.5,9.1,10.9,16.1c-3.8,1.9-7,5.9-9.6,10.2c-1-1-2.1-2.1-3-3.2c-2.7-3-5.6-6-8.6-8.9
		C183.2,130.4,186.7,125.6,189.3,122.3z"/>
	<path class="st0" d="M158.8,274c-0.2,12.2,9.5,22.2,21.6,22.4s22.1-9.5,22.2-21.7c0.2-12.2-9.5-22.2-21.6-22.4
		C169,252.1,159,261.8,158.8,274z"/>
	<g>
		<path class="st2" d="M196.7,273.4c0.8-0.7,1.4-1.1,2.2-1.8c0.1,0.5,0.1,1,0,1.6c-0.1,5.3-2.4,9.8-6.2,12.9c2.4-2.9,4-6.7,4.1-10.8
			C196.7,274.6,196.7,274.1,196.7,273.4z"/>
		<path class="st2" d="M189.3,257.6c4.4,2.2,7.9,6.2,9.1,11.2c-0.8,0.6-1.5,1.1-2.2,1.7c-1.2-4.2-4-8-7.9-10.2
			C188.5,259.5,188.9,258.6,189.3,257.6z"/>
		<path class="st2" d="M182.2,256.1c1.6,0,3.2,0.3,4.6,0.8c-0.3,0.8-0.7,1.7-0.9,2.5c-1.8-0.8-3.8-1.1-5.8-1.1
			c-4.1-0.1-8,1.3-10.9,3.8C172.4,258.3,177.1,256,182.2,256.1z"/>
	</g>
	<path class="st3" d="M169.7,334.3c-0.1,6.5,5.1,12,11.6,12.1c6.6,0.1,11.9-5.1,12-11.7c0.1-6.5-5.1-12-11.6-12.1
		C175.1,322.5,169.8,327.8,169.7,334.3z"/>
	<path class="st3" d="M168.8,394.5c-0.1,6.5,5.1,12,11.6,12.1c6.6,0.1,11.9-5.1,12-11.7c0.1-6.5-5.1-12-11.6-12.1
		C174.3,382.8,168.9,387.9,168.8,394.5z"/>
	<g>
		<path class="st2" d="M190,334.5c0.4-0.3,0.8-0.7,1.1-0.9c0.1,0.3,0,0.7,0,0.8c-0.1,2.9-1.4,5.6-3.5,7.3c1.4-1.7,2.3-3.8,2.3-6
			C190,335.3,189.9,334.9,190,334.5z"/>
		<path class="st2" d="M185.8,325.7c2.5,1.2,4.4,3.5,5.2,6.3c-0.5,0.3-0.8,0.6-1.3,0.9c-0.8-2.5-2.3-4.4-4.4-5.8
			C185.4,326.7,185.5,326.2,185.8,325.7z"/>
		<path class="st2" d="M181.9,324.8c0.8,0,1.8,0.2,2.6,0.5c-0.2,0.5-0.4,0.9-0.6,1.4c-1-0.4-2.1-0.7-3.3-0.7c-2.3,0-4.4,0.8-6.1,2.2
			C176.3,326,179,324.7,181.9,324.8z"/>
	</g>
	<g>
		<path class="st2" d="M188.7,394.7c0.4-0.3,0.8-0.7,1.1-0.9c0.1,0.3,0,0.7,0,0.8c-0.1,2.9-1.4,5.6-3.5,7.3c1.4-1.7,2.3-3.8,2.3-6
			C188.8,395.4,188.6,395,188.7,394.7z"/>
		<path class="st2" d="M184.5,386c2.5,1.2,4.4,3.5,5.2,6.3c-0.4,0.2-0.8,0.6-1.3,0.9c-0.8-2.5-2.3-4.4-4.4-5.8
			C184.1,386.9,184.3,386.3,184.5,386z"/>
		<path class="st2" d="M180.6,385c0.8,0,1.8,0.2,2.6,0.4c-0.2,0.5-0.4,0.9-0.6,1.4c-1-0.4-2.1-0.7-3.3-0.7c-2.3,0-4.4,0.8-6.1,2.2
			C175.1,386.2,177.7,384.9,180.6,385z"/>
	</g>
	<path class="st2" d="M186.1,500.2c1-3.6,2.5-7,4-10.4c0.3-0.7,0.9,0.9,0.8,1.4c-1.5,3.5-3,6.8-4,10.4
		C186.6,502.4,186,500.7,186.1,500.2L186.1,500.2z"/>
	<path class="st2" d="M154.1,513.8c2.6-4,5.6-9.2,6.2-14c0.2-1.2,1.4-0.3,1.3,0.7c-0.6,5.2-3.7,10.6-6.5,14.8
		C154.4,516.1,153.6,514.5,154.1,513.8L154.1,513.8z"/>
	<path class="st2" d="M151.6,510.6c1.4-1,2.2-3.4,2.8-5c1.2-2.6,2.2-5.4,3-8.1c0.3-1,1,0.6,0.9,1.1c-0.8,2.7-1.8,5.3-2.9,7.9
		c-0.8,1.7-1.6,4.6-3.3,5.8C151.7,512.8,151.2,511,151.6,510.6L151.6,510.6z"/>
	<path class="st2" d="M150.4,506.9c3.4-4.5,6-9.4,6.5-15.2c0.1-0.9,0.9,0.7,0.8,1.1c-0.6,5.9-3.2,11-6.8,15.7
		C150.8,508.9,150,507.3,150.4,506.9L150.4,506.9z"/>
	<path class="st2" d="M147.5,504.9c4.3-5.3,6-11.5,6.8-18.2c0.1-0.5,0.8,1.1,0.7,1.5c-0.8,6.7-2.6,13-6.9,18.4
		C148,506.7,147.2,505.2,147.5,504.9L147.5,504.9z"/>
	<path class="st2" d="M147.6,496.1c2-4.8,3.8-9.6,5.3-14.6c0.3-1,1.3,0.4,1.1,1c-1.4,5-3.3,9.9-5.3,14.6
		C148.2,498.1,147.3,496.7,147.6,496.1L147.6,496.1z"/>
	<path class="st2" d="M144.2,491.4c2.4-4.4,4.2-9.3,5.2-14.3c0.2-1.2,1.3-0.1,1.1,0.7c-0.9,5.3-2.8,10.4-5.4,15.1
		C144.7,493.6,143.9,492,144.2,491.4L144.2,491.4z"/>
	<path class="st2" d="M143.6,483.6c0.8-3.4,1.4-7,2.3-10.3c0.2-0.7,0.8,1,0.7,1.4c-0.8,3.4-1.4,7-2.3,10.3
		C144.2,485.8,143.5,484.2,143.6,483.6L143.6,483.6z"/>
	<path class="st2" d="M142,477.4c1.8-4.5,4.1-8.8,5-13.7c0.2-0.5,0.8,1,0.7,1.4c-0.8,4.8-3.1,9.2-5,13.7
		C142.3,479.5,141.8,477.8,142,477.4L142,477.4z"/>
	<path class="st2" d="M138.9,471.8c2-2.9,3.8-5.9,4.3-9.4c0.1-0.9,1,0.7,0.8,1.1c-0.6,3.8-2.4,6.9-4.5,10
		C139.3,474,138.6,472.3,138.9,471.8L138.9,471.8z"/>
	<path class="st2" d="M138.4,463.3c0.3-3.2,1.2-6.3,2.1-9.4c0.2-0.5,0.8,1,0.7,1.4c-0.8,2.9-1.7,5.9-2,9.2
		C139.1,465.4,138.4,463.7,138.4,463.3L138.4,463.3z"/>
	<path class="st2" d="M134.4,459.1c0.8-2.7,1.5-5.3,1.7-8c0.1-0.9,0.8,0.8,0.8,1.2c-0.3,2.8-0.9,5.7-1.7,8.3
		C134.9,461.1,134.3,459.5,134.4,459.1L134.4,459.1z"/>
</g>
<g>
	<g>
		<path class="st1" d="M61.4,181.6c-5.8,10.7-9.8,22.3-11.9,34.3c-2.1,12-2.6,24.2-1.9,36.4c0.7,12.2,2.8,24.2,5.8,36.1
			c2.9,11.8,6.8,23.4,11.2,34.8c4.5,11.3,9.7,22.4,15.4,33.1c5.7,10.8,12,21.2,18.7,31.4c3.3,5.1,6.8,10.1,10.3,15.1l5.4,7.4
			l5.6,7.2c1.8,2.4,3.8,4.8,5.7,7.2l2.9,3.6l3,3.5c2,2.3,3.9,4.7,5.9,7s4,4.6,6,6.9l-0.9,0.9c-17.3-17.4-32.8-36.5-46.3-57.1
			c-6.7-10.3-13-20.8-18.7-31.7c-5.7-10.9-10.7-22.1-15.1-33.6s-8.1-23.2-10.9-35.2c-2.8-12-4.7-24.1-5.4-36.4s-0.2-24.6,2-36.7
			c0.2-1.5,0.6-3,0.9-4.5c0.4-1.5,0.6-3,1-4.5c0.9-2.9,1.6-5.9,2.7-8.8c0.5-1.4,1-2.9,1.5-4.3l1.8-4.2l0.9-2.1l1-2.1l2.1-4.1
			L61.4,181.6z"/>
	</g>
	<g>
		<path class="st1" d="M131.4,452.2c2,0,4,0,5.9,0c2,0.1,4,0.1,5.9,0.3c2,0.2,3.9,0.4,5.9,0.7c2,0.3,3.9,0.6,5.9,1.1l-1.9,2.1
			c-0.8-1.6-1.5-3.2-2.1-4.8c-0.7-1.6-1.3-3.3-1.8-5c-0.6-1.7-1-3.4-1.4-5.1s-0.6-3.5-0.6-5.3l1.6-0.5c0.9,1.5,1.6,3.1,2.3,4.7
			s1.3,3.2,1.8,4.9l1.6,4.9l1.6,5l1,3.2l-3-1.1c-1.8-0.7-3.6-1.3-5.5-1.8s-3.7-0.9-5.7-1.2c-1.9-0.3-3.8-0.5-5.8-0.6
			c-1.9-0.1-3.9-0.1-5.8,0.1L131.4,452.2z"/>
	</g>
</g>
<text id="XMLID_322_" transform="matrix(0 -1 1 0 342.3301 241.9377)" class="st2 st4 st5">1500</text>
<g id="XMLID_361_">
	<line id="XMLID_369_" class="st3" x1="52.1" y1="650.7" x2="305.4" y2="650.7"/>
	<line id="XMLID_368_" class="st3" x1="52.1" y1="648.5" x2="52.1" y2="652.9"/>
	<line id="XMLID_367_" class="st3" x1="127.3" y1="648.5" x2="127.3" y2="652.9"/>
	<line id="XMLID_366_" class="st3" x1="305.4" y1="648.5" x2="305.4" y2="652.9"/>
	<line id="XMLID_363_" class="st3" x1="235.8" y1="648.5" x2="235.8" y2="652.9"/>
</g>
<g>
	<g id="XMLID_405_">
		<line id="XMLID_408_" class="st3" x1="327.7" y1="102.2" x2="327.7" y2="232.8"/>
		<line id="XMLID_407_" class="st3" x1="329.9" y1="102.2" x2="325.5" y2="102.2"/>
		<line id="XMLID_406_" class="st3" x1="329.9" y1="232.8" x2="325.5" y2="232.8"/>
	</g>
	<text id="XMLID_6_" transform="matrix(0 -1 1 0 335.893 173.5461)" class="st1 st4 st5">500</text>
</g>
<g>
	<g id="XMLID_2_">
		<line id="XMLID_7_" class="st3" x1="327.7" y1="241.5" x2="327.7" y2="422.2"/>
		<line id="XMLID_4_" class="st3" x1="329.9" y1="241.5" x2="325.5" y2="241.5"/>
		<line id="XMLID_3_" class="st3" x1="329.9" y1="422.2" x2="325.5" y2="422.2"/>
	</g>
	<text id="XMLID_1_" transform="matrix(0 -1 1 0 335.893 339.6877)" class="st1 st4 st5">2500</text>
</g>
<g id="XMLID_8_">
	<line id="XMLID_11_" class="st3" x1="327.7" y1="428.7" x2="327.7" y2="651.3"/>
	<line id="XMLID_10_" class="st3" x1="329.9" y1="428.7" x2="325.5" y2="428.7"/>
	<line id="XMLID_9_" class="st3" x1="329.9" y1="651.3" x2="325.5" y2="651.3"/>
</g>
<text id="XMLID_5_" transform="matrix(0 -1 1 0 335.8931 547.8713)" class="st1 st4 st5">2500</text>
</svg>
