<?xml version="1.0" encoding="utf-8"?>
<!-- Generator: Adobe Illustrator 22.1.0, SVG Export Plug-In . SVG Version: 6.00 Build 0)  -->
<svg version="1.1" id="Livello_2_1_" xmlns="http://www.w3.org/2000/svg" xmlns:xlink="http://www.w3.org/1999/xlink" x="0px"
	 y="0px" viewBox="0 0 377 255.1" style="enable-background:new 0 0 377 255.1;" xml:space="preserve">
<style type="text/css">
	.st0{fill:none;stroke:#FFFFFF;stroke-miterlimit:10;}
	.st1{fill:#FFFFFF;}
	.st2{fill:#AAB7C4;fill-opacity:0.1545;stroke:#FFFFFF;stroke-width:0.25;stroke-miterlimit:10;}
	.st3{fill:none;stroke:#FDFFFF;stroke-miterlimit:10;}
	.st4{fill:none;stroke:#FCFEFF;stroke-miterlimit:10;}
	.st5{fill:none;}
</style>
<g>
	<g>
		<path class="st0" d="M8.9,253.8c0,0.2,0.1,0.3,0.1,0.5"/>
		<path class="st0" d="M26.3,232.2c-10.7,1.3-18.5,10.9-17.4,21.7"/>
		<path class="st0" d="M77.1,231.3c0-0.5,0-1.1-0.1-1.6c-1.4-14-13.8-24.2-27.8-22.8c-12.8,1.3-22.5,11.9-22.9,24.4"/>
		<path class="st0" d="M51.3,207.5c6.3-13.1,18.5-22.6,33.3-24c8.3-0.8,16.2,1,23.2,4.8"/>
		<path class="st0" d="M103.6,206.2c-1.5-15.5,8.8-29.3,23.1-30.7c7.1-0.7,13.9,1.8,19.1,6.4"/>
		<g>
			<line class="st0" x1="181.7" y1="161.6" x2="181.7" y2="183.3"/>
			<path class="st0" d="M137.7,177.1c2.4-5.2,7.1-9.1,13-9.6c9-0.9,17,6.2,17.9,15.9"/>
			<path class="st0" d="M181.7,181.8c0,5.7-2.9,10.4-6.5,10.4s-6.5-4.6-6.5-10.4"/>
		</g>
		<g>
			<path class="st0" d="M174.3,26.4"/>
			<g>
				<path class="st0" d="M1.5,117.2"/>
				<path class="st0" d="M119.3,38.9"/>
			</g>
		</g>
		<path class="st0" d="M32.9,235.9c-1.1-10.9,6.9-20.7,17.8-21.7c1.2-0.1,2.3-0.1,3.4,0"/>
		<g>
			<path class="st0" d="M124.2,183.7c1.8-0.8,3.7-1.3,5.8-1.5c1.2-0.1,2.3-0.1,3.4,0"/>
			<path class="st0" d="M112.1,204c-0.7-6.8,2.2-13.2,7.1-17.3"/>
		</g>
		<path class="st0" d="M128.9,226.4c0-13.2,10.7-23.9,23.9-23.9s23.9,10.7,23.9,23.9"/>
		<path class="st0" d="M176.6,226.3c1.9-0.6,4-0.9,6.1-0.9c10.4,0,19.1,7.4,21.1,17.2"/>
		<path class="st0" d="M171.3,211.3c5.5-3.1,11.8-4.8,18.5-4.8c12.8,0,24,6.3,30.9,16"/>
		<path class="st0" d="M220.7,222.5c2.2-0.6,4.5-1,6.9-1c13.9,0,25.1,11.2,25.1,25.1"/>
		<path class="st0" d="M110.5,247.5c-1.1-10.9,6.9-20.7,17.8-21.7"/>
		<g>
			<path class="st0" d="M147.3,210.8c1.8-0.8,3.7-1.3,5.8-1.5c1.2-0.1,2.3-0.1,3.4,0"/>
			<path class="st0" d="M135.3,231.1c-0.7-6.8,2.2-13.2,7.1-17.3"/>
		</g>
		<path class="st0" d="M242.8,184.4c4.3-5.4,10.9-8.9,18.3-8.9c12.8,0,23.2,10.4,23.2,23.2"/>
		<path class="st0" d="M282.5,188.9c19.6-11.4,45.4-2.7,54.2,18.1"/>
		<path class="st0" d="M360.2,232.8c9.4,0,15.3,6.5,15.3,14.5"/>
		<path class="st0" d="M322.1,233.5c0-9.3,7.5-16.8,16.8-16.8"/>
		<line class="st0" x1="206.7" y1="161.6" x2="206.7" y2="183.3"/>
		<path class="st0" d="M250.6,177.1c-2.4-5.2-7.1-9.1-13-9.6c-9-0.9-17,6.2-17.9,15.9"/>
		<path class="st0" d="M206.7,181.8c0,5.7,2.9,10.4,6.5,10.4s6.5-4.6,6.5-10.4"/>
		<path class="st0" d="M311.8,232.8c0-13.7,11.1-24.9,24.9-24.9s24.9,11.1,24.9,24.9"/>
		<rect x="220" y="221.7" transform="matrix(0.8037 -0.595 0.595 0.8037 -89.036 175.0125)" class="st1" width="1.5" height="1.5"/>
		<path class="st2" d="M125.1,192.2c-0.5,0-0.9-0.4-0.9-0.9s0.4-0.9,0.9-0.9"/>
		<polyline class="st0" points="171.6,138 148.7,160.9 148.7,117.5 164,102.2 		"/>
		<polyline class="st0" points="223.5,102.2 238.8,117.5 238.8,160.9 215.9,138 		"/>
		<path class="st3" d="M216.1,139.3c-1.9,4.8-4.2,8.9-6.7,12.2c-9.9-4.5-21.3-4.5-31.3,0c-4.4-5.8-8-13.9-10.4-23.6
			c7-6.7,16.4-10.4,26-10.4c10.2,0,19.4,4,26,10.4C218.8,132,217.5,135.8,216.1,139.3"/>
		<path class="st4" d="M193.7,117.5c-10.2,0-19.4,4-26,10.4c1,4.1,2.2,7.9,3.6,11.4"/>
		<path class="st4" d="M171.4,139.3c1.9,4.8,4.2,8.9,6.7,12.2c4.7-2.1,10.1-3.3,15.6-3.3"/>
		<path class="st0" d="M174.9,61.3c7.6-13.9,16.8-22.8,18.8-22.8s11.3,8.9,18.8,22.8c-5.7-3.3-12.2-5-18.8-4.9
			C186.9,56.3,180.5,58.1,174.9,61.3z"/>
		<path class="st4" d="M174.9,61.3c7.6-13.9,16.8-22.8,18.8-22.8"/>
		<path class="st0" d="M223.1,99.7c0,10.2-1.2,19.8-3.3,28.2c-7-6.7-16.3-10.4-26-10.4c-10.2,0-19.4,4-26,10.4
			c-2.1-8.4-3.3-18-3.3-28.2c0-14.5,4.8-27.9,10.5-38.4c5.7-3.3,12.2-5,18.8-4.9c6.9,0,13.3,1.8,18.8,4.9
			C218.3,71.8,223.1,85.1,223.1,99.7"/>
		<path class="st4" d="M193.7,56.3c-6.9,0-13.3,1.8-18.8,4.9c-5.7,10.5-10.5,23.9-10.5,38.4"/>
		<path class="st4" d="M164.4,99.7c0,10.2,1.2,19.8,3.3,28.2"/>
		<g>
			<path class="st1" d="M182,98.2c0-2.3,2.4-3.3,4.7-3.3c2.4,0,5,0.9,5,3.5c0,2.7-2.3,3.3-4.9,3.3c-1,0-2.6,0.2-2.6,1.4v0.9l7.5,0.1
				v1.9l-9.8-0.1c0-1,0-1.9,0-2.8c0-2.5,2.6-3.2,4.9-3.2c0.9,0,2.6-0.1,2.6-1.4c0-1.2-1.2-1.7-2.7-1.7c-1.2,0-2.4,0.5-2.4,1.5
				L182,98.2z"/>
			<path class="st1" d="M195,99.6c0-6.4,10.6-6.4,10.6,0v1.6c0,6.4-10.6,6.4-10.6,0V99.6L195,99.6z M197.2,101.2
				c0,3.9,6.1,3.9,6.1,0v-1.6c0-3.9-6.1-3.9-6.1,0V101.2z"/>
			<ellipse class="st1" cx="194" cy="105.2" rx="0.9" ry="0.8"/>
		</g>
		<polygon class="st1" points="186.9,71.5 180.2,78.3 193.9,91.7 207.3,78 200.4,71.3 193.7,78.2 		"/>
	</g>
	<line class="st5" x1="38.5" y1="61.3" x2="51.3" y2="65.7"/>
	<g>
		<g>
			<line class="st0" x1="128" y1="73" x2="135" y2="78.7"/>
			<line class="st0" x1="127.9" y1="78.4" x2="134.8" y2="72.9"/>
		</g>
		<g>
			<line class="st0" x1="189.1" y1="0.9" x2="196.1" y2="6.7"/>
			<line class="st0" x1="189" y1="6.3" x2="195.9" y2="0.8"/>
		</g>
		<g>
			<line class="st0" x1="98.4" y1="16.6" x2="105.3" y2="22.4"/>
			<line class="st0" x1="98.2" y1="22" x2="105.1" y2="16.5"/>
		</g>
		<g>
			<line class="st0" x1="45.8" y1="61.9" x2="52.8" y2="67.7"/>
			<line class="st0" x1="45.7" y1="67.3" x2="52.6" y2="61.8"/>
		</g>
		<g>
			<line class="st0" x1="89.4" y1="134.8" x2="96.3" y2="140.6"/>
			<line class="st0" x1="89.2" y1="140.2" x2="96.1" y2="134.7"/>
		</g>
		<g>
			<line class="st0" x1="268.3" y1="99.9" x2="275.3" y2="105.7"/>
			<line class="st0" x1="268.2" y1="105.3" x2="275.1" y2="99.8"/>
		</g>
		<g>
			<line class="st0" x1="261.4" y1="13.5" x2="268.3" y2="19.3"/>
			<line class="st0" x1="261.2" y1="18.9" x2="268.1" y2="13.4"/>
		</g>
		<g>
			<line class="st0" x1="324.4" y1="59.7" x2="331.4" y2="65.5"/>
			<line class="st0" x1="324.3" y1="65.1" x2="331.2" y2="59.6"/>
		</g>
		<g>
			<line class="st0" x1="306.5" y1="147.6" x2="313.5" y2="153.4"/>
			<line class="st0" x1="306.4" y1="153" x2="313.3" y2="147.5"/>
		</g>
	</g>
</g>
</svg>
