<?xml version="1.0" encoding="utf-8"?>
<!-- Generator: Adobe Illustrator 22.1.0, SVG Export Plug-In . SVG Version: 6.00 Build 0)  -->
<svg version="1.1" id="Livello_1" focusable="false"
	 xmlns="http://www.w3.org/2000/svg" xmlns:xlink="http://www.w3.org/1999/xlink" x="0px" y="0px" viewBox="0 0 512 512"
	 style="enable-background:new 0 0 512 512;" xml:space="preserve">
<style type="text/css">
	.st0{fill:#FFFFFF;}
</style>
<path class="st0" d="M505.1,19.1c-1.2-5.5-6.7-11-12.2-12.2C460.7,0,435.5,0,410.4,0C307.2,0,245.3,55.2,199.1,128H94.8
	c-16.3,0-35.6,11.9-42.9,26.5L2.5,253.3c-1.5,3.4-2.4,7-2.5,10.7c0,13.3,10.8,24,24,24h103.8l-22.5,22.5c-11.4,11.4-13,32.3,0,45.2
	l50.9,50.9c11.2,11.2,32.2,13.2,45.3,0l22.5-22.5V488c0,13.3,10.8,24,24,24c3.7-0.1,7.3-1,10.7-2.5l98.7-49.4
	c14.6-7.3,26.5-26.5,26.5-42.9V312.8c72.6-46.3,128-108.4,128-211.1C512.1,76.5,512.1,51.3,505.1,19.1z M384,168
	c-22.1,0-40-17.9-40-40c0-22.1,17.9-40,40-40c22.1,0,40,17.9,40,40C424,150.1,406.1,168,384,168z"/>
</svg>
