<svg xmlns="http://www.w3.org/2000/svg" width="24" height="24"><rect id="backgroundrect" width="100%" height="100%" x="0" y="0" fill="none" stroke="none"/><g class="currentLayer" style=""><title>Layer 1</title><path fill="none" d="M0 0h24v24H0V0z" id="svg_1"/><path d="M8.7 15.9L4.8 12l3.9-3.9c.39-.39.39-1.01 0-1.4-.39-.39-1.01-.39-1.4 0l-4.59 4.59c-.39.39-.39 1.02 0 1.41l4.59 4.6c.39.39 1.01.39 1.4 0 .39-.39.39-1.01 0-1.4zm6.6 0l3.9-3.9-3.9-3.9c-.39-.39-.39-1.01 0-1.4.39-.39 1.01-.39 1.4 0l4.59 4.59c.39.39.39 1.02 0 1.41l-4.59 4.6c-.39.39-1.01.39-1.4 0-.39-.39-.39-1.01 0-1.4z" id="svg_2" class="selected" fill="#ffffff" fill-opacity="1"/></g></svg>