<?xml version="1.0" encoding="utf-8"?>
<!-- Generator: Adobe Illustrator 22.1.0, SVG Export Plug-In . SVG Version: 6.00 Build 0)  -->
<svg version="1.1" id="Livello_1" xmlns="http://www.w3.org/2000/svg" xmlns:xlink="http://www.w3.org/1999/xlink" x="0px" y="0px"
	 viewBox="0 0 16 16" style="enable-background:new 0 0 16 16;" xml:space="preserve">
<style type="text/css">
	.st0{fill:#A9AFBB;}
</style>
<path class="st0" d="M15.6,0.9c0-0.1-0.1-0.2-0.2-0.3h0l-0.2-0.1c-1.3-0.8-5.7-0.1-8.7,2.9C6,3.8,5.7,4.2,5.3,4.6L3.2,5.2
	c-0.8,0.2-1.5,0.6-2,1.2L0.4,7.2c-0.4,0.4-0.3,1,0.1,1.4c0.3,0.2,0.7,0.3,1,0.2l0.6-0.2c0.4-0.1,0.8-0.1,1.1,0.2l0.5,0.3l3.2,3.2
	l0.4,0.5c0.2,0.3,0.3,0.7,0.2,1.1l-0.2,0.6c-0.2,0.4,0,0.9,0.4,1.2c0.4,0.3,0.9,0.2,1.2-0.1l0.9-0.8c0.6-0.5,1-1.2,1.2-2l0.5-2.1
	c0.4-0.3,0.9-0.7,1.2-1.1c1.4-1.4,2.3-3.1,2.9-5C15.9,3,15.9,1.6,15.6,0.9z M1.9,7.5l0.3-0.3C2.5,6.8,3,6.5,3.5,6.3l0.9-0.2
	C4.1,6.6,3.9,7.2,3.7,7.7C3.2,7.4,2.5,7.3,1.9,7.5C1.9,7.5,1.9,7.5,1.9,7.5z M9.7,12.5c-0.1,0.5-0.4,1-0.8,1.4l-0.3,0.3
	c0.2-0.6,0.1-1.3-0.3-1.9c0.6-0.2,1.1-0.4,1.6-0.7C9.9,11.6,9.7,12.5,9.7,12.5z M11.7,8.7c-1.2,1.2-2.7,2.1-4.3,2.5L4.7,8.5
	c0.5-1.6,1.3-3.1,2.5-4.3c2.8-2.8,6.6-3.1,7.3-2.8C14.9,2.1,14.5,6,11.7,8.7z"/>
<path class="st0" d="M12.9,3.1c-0.7-0.7-1.9-0.7-2.6,0s-0.7,1.9,0,2.6s1.9,0.7,2.6,0C13.6,5,13.6,3.8,12.9,3.1z M12,4.8
	c-0.2,0.2-0.6,0.2-0.8,0c-0.2-0.2-0.2-0.6,0-0.8c0.2-0.2,0.6-0.2,0.8,0C12.2,4.2,12.2,4.6,12,4.8z"/>
</svg>
