<svg xmlns="http://www.w3.org/2000/svg" viewBox="0 0 412 132"><defs><style>.cls-1{fill:#3c3c3b;}.cls-2{fill:#ef806e;}.cls-3{fill:none;}</style></defs><title>tiledesk-logo</title><g id="Livello_2" data-name="Livello 2"><g id="Livello_1-2" data-name="Livello 1"><path class="cls-1" d="M88.09,58.83h11V41.69h7V58.83h10.93v6.52H106.14v37.59h-7V65.35h-11Z"/><path class="cls-1" d="M135,46.75a4.45,4.45,0,1,1-1.3-3.16A4.3,4.3,0,0,1,135,46.75Zm-7.92,56.19V58.83h7v44.11Z"/><path class="cls-1" d="M149.54,102.94V27.75h7v75.19Z"/><path class="cls-1" d="M214.71,83.59h-38.8a15,15,0,0,0,5.51,9.32,15.94,15.94,0,0,0,17.49,2A16.22,16.22,0,0,0,204.68,90h8a22.46,22.46,0,0,1-8.47,10,21,21,0,0,1-11.53,3.66,25.12,25.12,0,0,1-10-1.8,23.88,23.88,0,0,1-7.32-4.91,21.92,21.92,0,0,1-6.77-16.24,23.1,23.1,0,0,1,23.06-23.06,22.57,22.57,0,0,1,16.09,6.52,21,21,0,0,1,7,15.74ZM201.62,68.26a15.18,15.18,0,0,0-10-3.61q-8.57,0-13.53,7.77A15.58,15.58,0,0,0,176,77.58h31.28A16.21,16.21,0,0,0,201.62,68.26Z"/><path class="cls-1" d="M261.32,102.94V95.41q-.59.77-1.25,1.52a20.38,20.38,0,0,1-30.78,0,24.24,24.24,0,0,1,0-32.08,20.38,20.38,0,0,1,30.78,0q.66.74,1.25,1.52V27.75h7v75.19Zm-4.46-33.28a15.16,15.16,0,0,0-22.16,0,16.36,16.36,0,0,0,0,22.46,15.16,15.16,0,0,0,22.16,0,16.36,16.36,0,0,0,0-22.46Z"/><path class="cls-1" d="M326.49,83.59h-38.8a15,15,0,0,0,5.51,9.32,15.94,15.94,0,0,0,17.49,2A16.22,16.22,0,0,0,316.46,90h8A22.46,22.46,0,0,1,316,100a21,21,0,0,1-11.53,3.66,25.12,25.12,0,0,1-10-1.8,23.88,23.88,0,0,1-7.32-4.91,21.92,21.92,0,0,1-6.77-16.24,23.1,23.1,0,0,1,23.06-23.06,22.57,22.57,0,0,1,16.09,6.52,21,21,0,0,1,7,15.74ZM313.4,68.26a15.18,15.18,0,0,0-10-3.61q-8.58,0-13.53,7.77a15.58,15.58,0,0,0-2.11,5.16h31.28A16.21,16.21,0,0,0,313.4,68.26Z"/><path class="cls-1" d="M351.22,98.43q9.63,0,9.63-7.2,0-4.2-6.9-6.44-2.91-1-6.26-1.77a34,34,0,0,1-6.3-2.16,12.35,12.35,0,0,1-5.11-4,9.67,9.67,0,0,1-1.7-5.7q0-6.57,4.62-10a18.18,18.18,0,0,1,11-3.39,20,20,0,0,1,10.66,2.64q4.23,2.6,5.64,9.29H359q-1.12-3.69-3.42-4.9A11.72,11.72,0,0,0,350,63.64a10.66,10.66,0,0,0-5.63,1.42,4.8,4.8,0,0,0-2.4,4.42,5,5,0,0,0,2,4.36,17.61,17.61,0,0,0,4.87,2.28q2.91.91,6.26,1.66A29.59,29.59,0,0,1,361.46,80q6.81,3.25,6.81,10.37t-5.1,10.52a19.46,19.46,0,0,1-5.67,2.55,25.09,25.09,0,0,1-6.67.85q-15.34,0-17.62-13.63h7.42q1.12,4.29,3.78,6A12,12,0,0,0,351.22,98.43Z"/><path class="cls-1" d="M378.32,102.94V27.75h7V78.58l16.14-19.85h9.32L392.65,80.19,412,102.94h-9.32L385.33,81.78v21.17Z"/><polygon class="cls-2" points="38.24 27.75 0 27.75 0 104.25 76.49 104.25 76.49 66 38.24 66 38.24 27.75"/><rect class="cls-3" width="412" height="132"/></g></g></svg>