<svg id="Livello_1" data-name="Livello 1" xmlns="http://www.w3.org/2000/svg" viewBox="0 0 418 78"><defs><style>.cls-1{fill:#fff;}.cls-2{fill:none;}</style></defs><title>tiledesk-logo-white</title><path class="cls-1" d="M89.48,31.73h11.17V14.36h7.12V31.73h11.08v6.61H107.77V76.45h-7.12V38.34H89.48Z"/><path class="cls-1" d="M137,19.49a4.53,4.53,0,1,1-7.73-3.2,4.53,4.53,0,0,1,7.73,3.2Zm-8,57V31.73h7.11V76.45Z"/><path class="cls-1" d="M151.77,76.45V.23h7.11V76.45Z"/><path class="cls-1" d="M217.83,56.84H178.5a15.26,15.26,0,0,0,5.59,9.45,16.15,16.15,0,0,0,17.73,2,16.38,16.38,0,0,0,5.84-4.93h8.13a22.73,22.73,0,0,1-8.58,10.11,21.37,21.37,0,0,1-11.69,3.71,25.45,25.45,0,0,1-10.16-1.83,24.2,24.2,0,0,1-7.42-5,22.23,22.23,0,0,1-6.86-16.46,22.54,22.54,0,0,1,6.86-16.52,22.52,22.52,0,0,1,16.51-6.86,22.89,22.89,0,0,1,16.31,6.61,21.3,21.3,0,0,1,7.07,16ZM204.56,41.29a15.38,15.38,0,0,0-10.11-3.66q-8.69,0-13.72,7.87a16.07,16.07,0,0,0-2.13,5.24h31.71A16.44,16.44,0,0,0,204.56,41.29Z"/><path class="cls-1" d="M265.08,76.45V68.81c-.4.53-.82,1-1.27,1.54a20.67,20.67,0,0,1-31.2,0,23.64,23.64,0,0,1-6.15-16.26,23.64,23.64,0,0,1,6.15-16.26,20.67,20.67,0,0,1,31.2,0c.45.5.87,1,1.27,1.54V.23h7.12V76.45Zm-4.52-33.74a15.36,15.36,0,0,0-22.46,0,16.59,16.59,0,0,0,0,22.76,15.36,15.36,0,0,0,22.46,0,16.59,16.59,0,0,0,0-22.76Z"/><path class="cls-1" d="M331.14,56.84H291.81a15.31,15.31,0,0,0,5.59,9.45,16.15,16.15,0,0,0,17.73,2A16.5,16.5,0,0,0,321,63.34h8.13a22.75,22.75,0,0,1-8.59,10.11,21.34,21.34,0,0,1-11.69,3.71,25.45,25.45,0,0,1-10.16-1.83,24.2,24.2,0,0,1-7.42-5,22.23,22.23,0,0,1-6.86-16.46,22.54,22.54,0,0,1,6.86-16.52,22.52,22.52,0,0,1,16.51-6.86,22.93,22.93,0,0,1,16.32,6.61,21.32,21.32,0,0,1,7.06,16ZM317.88,41.29a15.41,15.41,0,0,0-10.12-3.66q-8.68,0-13.71,7.87a15.87,15.87,0,0,0-2.14,5.24h31.71A16.48,16.48,0,0,0,317.88,41.29Z"/><path class="cls-1" d="M356.21,71.88q9.77,0,9.77-7.31,0-4.24-7-6.53c-2-.65-4.08-1.24-6.35-1.79a34.35,34.35,0,0,1-6.39-2.19,12.52,12.52,0,0,1-5.18-4,9.84,9.84,0,0,1-1.72-5.78q0-6.66,4.69-10.09a18.42,18.42,0,0,1,11.18-3.43A20.22,20.22,0,0,1,366,33.4q4.28,2.64,5.72,9.41h-7.63q-1.12-3.73-3.47-5A11.86,11.86,0,0,0,355,36.61a10.75,10.75,0,0,0-5.71,1.45,4.87,4.87,0,0,0-2.44,4.48,5,5,0,0,0,2,4.42,17.58,17.58,0,0,0,4.94,2.31c2,.62,4.08,1.18,6.34,1.69a30.16,30.16,0,0,1,6.42,2.19q6.9,3.29,6.9,10.51t-5.18,10.67a19.52,19.52,0,0,1-5.74,2.58,25.56,25.56,0,0,1-6.77.86Q340.27,77.77,338,64h7.52q1.14,4.35,3.84,6.13A12.16,12.16,0,0,0,356.21,71.88Z"/><path class="cls-1" d="M383.68,76.45V.23h7.11V51.76l16.36-20.13h9.46l-18.4,21.75,19.62,23.07h-9.46L390.79,55V76.45Z"/><polygon class="cls-1" points="38.95 0.23 0.17 0.23 0.17 77.77 77.72 77.77 77.72 39 38.95 39 38.95 0.23"/><rect class="cls-2" width="418" height="78"/></svg>