<?xml version="1.0" encoding="utf-8"?>
<!-- Generator: Adobe Illustrator 22.1.0, SVG Export Plug-In . SVG Version: 6.00 Build 0)  -->
<svg version="1.1" id="Livello_1" xmlns="http://www.w3.org/2000/svg" xmlns:xlink="http://www.w3.org/1999/xlink" x="0px" y="0px"
	 viewBox="0 0 383.2 351.2" style="enable-background:new 0 0 383.2 351.2;" xml:space="preserve">
<style type="text/css">
	.st0{fill:#D8DDE1;}
	.st1{fill:#131418;}
	.st2{opacity:0.8;fill:#B6BECB;enable-background:new    ;}
	.st3{fill:#C8EFF9;}
</style>
<title>tiledesk ai chatbot for live chat</title>
<g>
	<path class="st0" d="M60,142.6h1.3v120.8H60c-17.4,0-31.5-14.1-31.5-31.5V174C28.6,156.6,42.7,142.6,60,142.6z"/>
	<path class="st0" d="M241.2,58.1c-14-6-29.1-9-44.4-9h-12.4C138.5,49.1,97.1,76.7,79.2,119c-6,14-9.1,29.1-9.1,44.3v108.4
		c0.1,31.5,25.7,57.1,57.2,57.2h126.6c31.5-0.1,57.1-25.7,57.2-57.2V163.3C311.1,117.3,283.5,75.9,241.2,58.1L241.2,58.1z"/>
	<path class="st1" d="M196.8,40.9h-12.4C117.1,40.9,62,96,62,163.3v108.4c0.1,36.1,29.2,65.3,65.3,65.4h126.6
		c36.1-0.1,65.3-29.3,65.4-65.4V163.3C319.3,96,264.2,40.9,196.8,40.9z M311.1,271.7c-0.1,31.5-25.7,57.1-57.2,57.2H127.3
		c-31.5-0.1-57.1-25.7-57.2-57.2V163.3c0-15.2,3.1-30.3,9.1-44.3c11.6-27.4,33.5-49.3,60.9-60.9c14-6,29.1-9,44.3-9h12.4
		c63.1,0.1,114.2,51.1,114.3,114.2V271.7z"/>
	<path class="st2" d="M55.1,151.4h-0.7c-10.1,0-18.4,12.1-18.4,26.9v49.4c0,14.8,8.3,26.8,18.4,26.8h0.7V151.4L55.1,151.4z"/>
	<path class="st0" d="M321.2,142.6h-1.3v120.8h1.3c17.4,0,31.5-14.1,31.5-31.5V174C352.7,156.6,338.6,142.6,321.2,142.6z"/>
	<path class="st1" d="M129.2,187.6c7-0.1,12.7,5.6,12.8,12.6c0.1,7-5.6,12.7-12.6,12.8c-7,0.1-12.7-5.6-12.8-12.6c0,0,0-0.1,0-0.1
		l0,0c0-7,5.6-12.6,12.6-12.6c0,0,0,0,0,0 M129.2,178.2c-12.3,0-22.2,9.9-22.2,22.2c0,12.3,9.9,22.2,22.2,22.2
		c12.3,0,22.2-9.9,22.2-22.2l0,0C151.4,188.1,141.5,178.2,129.2,178.2z"/>
	<path class="st1" d="M254.8,187.6c7,0,12.7,5.7,12.7,12.7s-5.7,12.7-12.7,12.7s-12.7-5.7-12.7-12.7l0,0c0.1-7,5.7-12.6,12.7-12.6
		 M254.8,178.2c-12.3,0-22.2,9.9-22.2,22.2c0,12.3,9.9,22.2,22.2,22.2c12.3,0,22.2-9.9,22.2-22.2c0-0.1,0-0.1,0-0.2l0,0
		c-0.1-12.2-10-22.1-22.2-22.2L254.8,178.2z"/>
	<path class="st1" d="M193.3,268.8c-22.4,0-35.8-10.8-35.8-29c-0.1-2.7,1.9-4.9,4.6-5c2.7-0.1,4.9,1.9,5,4.6v0.4
		c0,17,16.4,19.5,26.2,19.5s26.3-2.5,26.3-19.5c-0.1-2.6,2-4.8,4.6-4.9c2.6-0.2,4.8,1.8,5,4.4c0,0,0,0.1,0,0.1v0.4
		C229.2,258,215.8,268.8,193.3,268.8z"/>
	<path class="st2" d="M148.7,54.8C102,70.3,70.4,114,70.1,163.3v108.4c0.1,31.5,25.7,57.1,57.2,57.2H154
		C80.7,253.1,78.4,133.5,148.7,54.8L148.7,54.8z"/>
	<circle class="st0" cx="345.9" cy="36.4" r="14"/>
	<path class="st1" d="M345.9,14.3c-12.2-0.1-22.1,9.8-22.2,22c0,0.1,0,0.1,0,0.2c0,4.4,1.3,8.7,3.8,12.3L285.8,87l5.5,6l41.9-38.4
		c9.7,7.6,23.6,5.9,31.2-3.8c7.6-9.7,5.9-23.6-3.8-31.2c-0.7-0.5-1.3-1-2.1-1.4c-3.7-2.6-8.1-4-12.6-4V14.3z M345.9,50.4
		c-7.7,0-14-6.3-14-14s6.3-14,14-14s14,6.3,14,14l0,0C359.9,44.1,353.7,50.4,345.9,50.4L345.9,50.4z"/>
	<circle class="st3" cx="342.3" cy="32.5" r="7.7"/>
	<circle class="st0" cx="36.3" cy="36.4" r="14"/>
	<path class="st1" d="M14.1,36.4c0,12.3,9.9,22.2,22.2,22.2c4.5,0,8.9-1.4,12.7-3.9L90.9,93l5.5-6L54.7,48.8
		c6.5-10.4,3.4-24.1-7-30.6c-9.9-6.2-22.9-3.7-29.8,5.8C15.5,27.6,14.2,31.9,14.1,36.4z M22.3,36.4c0-7.7,6.3-14,14-14s14,6.3,14,14
		s-6.3,14-14,14l0,0C28.6,50.4,22.3,44.1,22.3,36.4z"/>
	<circle class="st3" cx="32.4" cy="33.2" r="7.7"/>
	<path class="st1" d="M321.2,134.4h-1.3c-1.4,0-2.7,0.3-3.9,1c-12.7-54-61.4-94.5-119.2-94.5h-12.4c-57.7,0-106.5,40.5-119.2,94.5
		c-1.2-0.7-2.5-1-3.9-1H60c-21.9,0.1-39.6,17.7-39.7,39.6v57.9c0.1,21.9,17.8,39.6,39.7,39.7h2c0.1,36.1,29.2,65.3,65.3,65.4h126.6
		c36.1-0.1,65.3-29.3,65.4-65.4h1.9c21.9-0.1,39.6-17.8,39.7-39.7V174C360.8,152.1,343.1,134.4,321.2,134.4z M61.3,263.4H60
		c-17.4,0-31.5-14.1-31.5-31.5V174c0.1-17.4,14.1-31.4,31.5-31.4h1.3V263.4z M311.1,263.3c-7.5,4.8-29.4,17.9-50.3,20.9
		c-2.8-6.1-10.1-8.8-16.2-5.9c-6.1,2.8-8.8,10.1-5.9,16.2c2.8,6.1,10.1,8.8,16.2,5.9c2.8-1.3,5.1-3.7,6.2-6.6
		c19.5-2.6,39.2-12.8,49.9-19.2c-1.6,30.4-26.7,54.2-57.1,54.3H127.3c-31.5-0.1-57.1-25.7-57.2-57.2V163.3c0-15.2,3.1-30.3,9.1-44.3
		c11.6-27.4,33.5-49.3,60.9-60.9c14-6,29.1-9,44.3-9h12.4c63.1,0.1,114.2,51.1,114.3,114.2V263.3z M352.7,231.9
		c0,17.4-14.1,31.5-31.5,31.5H320V142.6h1.3c17.4,0.1,31.4,14.1,31.4,31.5L352.7,231.9z"/>
</g>
</svg>
