<?xml version="1.0" encoding="utf-8"?>
<!-- Generator: Adobe Illustrator 22.1.0, SVG Export Plug-In . SVG Version: 6.00 Build 0)  -->
<svg version="1.1" id="Livello_1" focusable="false"
	 xmlns="http://www.w3.org/2000/svg" xmlns:xlink="http://www.w3.org/1999/xlink" x="0px" y="0px" viewBox="0 0 640 512"
	 style="enable-background:new 0 0 640 512;" xml:space="preserve">
<style type="text/css">
	.st0{fill:#7695A5;}
</style>
<path class="st0" d="M633.8,458.1L389.6,269.3C433.8,244.7,464,198.1,464,144C464,64.5,399.5,0,320,0c-67.1,0-123,46.1-139,108.2
	L45.5,3.4c-7-5.4-17-4.2-22.5,2.8L3.4,31.4c-5.4,7-4.2,17,2.8,22.4l588.4,454.7c7,5.4,17,4.2,22.5-2.8l19.6-25.3
	C642.1,473.6,640.8,463.5,633.8,458.1L633.8,458.1z M198.4,320C124.2,320,64,380.2,64,454.4v9.6c0,26.5,21.5,48,48,48h382.2
	L245.8,320H198.4z"/>
</svg>
