<?xml version="1.0" encoding="utf-8"?>
<!-- Generator: Adobe Illustrator 22.1.0, SVG Export Plug-In . SVG Version: 6.00 Build 0)  -->
<svg version="1.1" id="Livello_1" xmlns="http://www.w3.org/2000/svg" xmlns:xlink="http://www.w3.org/1999/xlink" x="0px" y="0px"
	 viewBox="0 0 271 151" style="enable-background:new 0 0 271 151;" xml:space="preserve">
<style type="text/css">
	.st0{fill:#E2EEF4;}
	.st1{fill:#FFFFFF;}
	.st2{fill:#B5D2E1;}
	.st3{fill:#E1EEF4;}
	.st4{fill:none;}
	.st5{fill:#FFFFFF;stroke:#B5D2E1;}
	.st6{fill:#F2F6F8;}
	.st7{opacity:0.5;enable-background:new    ;}
	.st8{fill:#ED7463;}
	.st9{fill:none;stroke:#B5D2E1;stroke-linecap:square;}
	.st10{opacity:0.5;fill:#ED7463;enable-background:new    ;}
</style>
<polygon id="Rectangle-10-Copy" class="st0" points="0,14 271,14 271,151 0,151 "/>
<path id="top" class="st1" d="M2.4,0C1.1,0,0,1.1,0,2.4v11.1h271V2.4c0-1.3-1.1-2.4-2.4-2.4H2.4z"/>
<g id="Rectangle-16">
</g>
<rect id="Rectangle-3" y="13" class="st2" width="271" height="1"/>
<path id="Rectangle-Copy-7" class="st3" d="M227.2,90.5c0-1.7,1.3-3,3-3h24.3c1.7,0,3,1.3,3,3v10c0,1.7-1.3,3-3,3h-24.3
	c-1.7,0-3-1.3-3-3V90.5z"/>
<circle id="Oval-3-Copy-4" class="st4" cx="204" cy="51.9" r="5.3"/>
<circle id="Oval-3-Copy-5" class="st4" cx="204" cy="75.9" r="5.3"/>
<circle id="Oval-3-Copy-7" class="st4" cx="204" cy="123.1" r="5.3"/>
<g>
	<g>
		<rect x="14.4" y="28.5" class="st5" width="72.7" height="101.9"/>
		<rect x="15.1" y="29.2" class="st6" width="71.4" height="17"/>
	</g>
	<g class="st7">
		<path class="st8" d="M36.1,35.9h-1.7v-0.8h4.3v0.8H37v4.6h-0.9L36.1,35.9L36.1,35.9z"/>
		<path class="st8" d="M39.4,35.9c-0.1-0.1-0.2-0.2-0.2-0.4s0.1-0.3,0.2-0.4c0.1-0.1,0.3-0.2,0.4-0.2c0.2,0,0.3,0.1,0.4,0.2
			c0.1,0.1,0.2,0.2,0.2,0.4s-0.1,0.3-0.2,0.4c-0.1,0.1-0.3,0.2-0.4,0.2C39.7,36.1,39.6,36,39.4,35.9z M39.4,36.7h0.9v3.9h-0.9V36.7z
			"/>
		<path class="st8" d="M41.5,35.1h0.9v5.4h-0.9V35.1z"/>
		<path class="st8" d="M44.3,40.4c-0.3-0.2-0.6-0.4-0.8-0.7s-0.3-0.7-0.3-1c0-0.4,0.1-0.7,0.3-1s0.4-0.6,0.8-0.8
			c0.3-0.2,0.7-0.3,1.1-0.3c0.4,0,0.8,0.1,1.1,0.3s0.6,0.4,0.7,0.7c0.2,0.3,0.2,0.6,0.2,1c0,0.1,0,0.2,0,0.3h-3.3
			c0,0.4,0.2,0.6,0.4,0.8S45,40,45.4,40c0.3,0,0.5-0.1,0.7-0.2c0.2-0.1,0.3-0.3,0.5-0.4l0.8,0.3c-0.2,0.3-0.5,0.6-0.8,0.8
			s-0.7,0.3-1.2,0.3C45,40.6,44.6,40.6,44.3,40.4z M46.5,38.1c0-0.1-0.1-0.3-0.1-0.4s-0.2-0.2-0.4-0.3s-0.4-0.1-0.6-0.1
			c-0.3,0-0.5,0.1-0.7,0.2s-0.3,0.4-0.4,0.6H46.5z"/>
		<path class="st8" d="M48.4,35.1h1.9c0.6,0,1.2,0.1,1.6,0.3c0.5,0.2,0.8,0.5,1.1,1c0.2,0.4,0.4,0.9,0.4,1.4s-0.1,1-0.4,1.4
			c-0.2,0.4-0.6,0.7-1.1,1c-0.5,0.2-1,0.3-1.6,0.3h-1.9V35.1z M50.3,39.7c0.7,0,1.2-0.2,1.6-0.5c0.4-0.3,0.6-0.8,0.6-1.4
			c0-0.6-0.2-1.1-0.6-1.4c-0.4-0.3-0.9-0.5-1.6-0.5h-1v3.8C49.3,39.7,50.3,39.7,50.3,39.7z"/>
		<path class="st8" d="M55,40.4c-0.3-0.2-0.6-0.4-0.8-0.7s-0.3-0.7-0.3-1c0-0.4,0.1-0.7,0.3-1s0.4-0.6,0.8-0.8
			c0.3-0.2,0.7-0.3,1.1-0.3c0.4,0,0.8,0.1,1.1,0.3s0.6,0.4,0.7,0.7c0.2,0.3,0.2,0.6,0.2,1c0,0.1,0,0.2,0,0.3h-3.3
			c0,0.4,0.2,0.6,0.4,0.8s0.5,0.3,0.9,0.3c0.3,0,0.5-0.1,0.7-0.2c0.2-0.1,0.3-0.3,0.5-0.4l0.8,0.3c-0.2,0.3-0.5,0.6-0.8,0.8
			s-0.7,0.3-1.2,0.3C55.7,40.6,55.3,40.6,55,40.4z M57.2,38.1c0-0.1-0.1-0.3-0.1-0.4s-0.2-0.2-0.4-0.3s-0.4-0.1-0.6-0.1
			c-0.3,0-0.5,0.1-0.7,0.2s-0.3,0.4-0.4,0.6H57.2z"/>
		<path class="st8" d="M59.3,40.4c-0.3-0.2-0.5-0.4-0.7-0.7l0.8-0.3c0.1,0.2,0.2,0.4,0.4,0.5s0.4,0.2,0.6,0.2c0.2,0,0.4,0,0.6-0.1
			c0.2-0.1,0.2-0.2,0.2-0.3s-0.1-0.3-0.2-0.3c-0.1-0.1-0.3-0.2-0.6-0.2l-0.5-0.1c-0.3-0.1-0.6-0.2-0.8-0.4s-0.3-0.4-0.3-0.7
			c0-0.2,0.1-0.4,0.2-0.6c0.1-0.2,0.3-0.3,0.6-0.4c0.2-0.1,0.5-0.1,0.8-0.1c0.4,0,0.7,0.1,1,0.2c0.3,0.1,0.5,0.4,0.7,0.6L61.3,38
			c-0.2-0.3-0.5-0.4-0.9-0.4c-0.2,0-0.4,0-0.5,0.1s-0.2,0.2-0.2,0.3s0.1,0.2,0.2,0.3s0.3,0.1,0.5,0.2l0.6,0.1
			c0.4,0.1,0.7,0.2,0.9,0.4s0.3,0.4,0.3,0.7c0,0.2-0.1,0.5-0.2,0.6c-0.2,0.2-0.4,0.3-0.6,0.4s-0.6,0.2-0.9,0.2
			C60,40.6,59.6,40.6,59.3,40.4z"/>
		<path class="st8" d="M63.1,35.1H64v3.2l0,0l1.7-1.6h1.2l0,0l-1.7,1.5l1.7,2.3l0,0h-1.1l-1.3-1.8l-0.6,0.6v1.2H63v-5.4H63.1z"/>
	</g>
	<path id="Shape_4_" class="st2" d="M80.6,37.8l1.8,1.8c0.1,0.1,0.1,0.2,0,0.3L82.3,40c0,0-0.1,0-0.1-0.1l-1.8-1.8l-1.8,1.8L78.5,40
		c0,0-0.1,0-0.1-0.1c-0.1-0.1-0.1-0.2,0-0.3l1.8-1.8L78.4,36c-0.1-0.1-0.1-0.2,0-0.3s0.2-0.1,0.3,0l1.8,1.8l1.8-1.8
		c0.1-0.1,0.2-0.1,0.3,0s0.1,0.2,0,0.3L80.6,37.8L80.6,37.8z"/>
	<path id="Rectangle-Copy-10_4_" class="st6" d="M52,51.7h24c2.7,0,4.9,2.2,4.9,4.9l0,0c0,2.7-2.2,4.9-4.9,4.9H52
		c-2.7,0-4.9-2.2-4.9-4.9l0,0C47.1,53.8,49.2,51.7,52,51.7z"/>
	<path id="Rectangle-Copy-7_2_" class="st3" d="M31.9,71.5c0-1.7,2.2-3,4.9-3H76c2.7,0,4.9,1.3,4.9,3v10c0,1.7-2.2,3-4.9,3H36.7
		c-2.7,0-4.9-1.3-4.9-3L31.9,71.5L31.9,71.5z"/>
	<circle id="Oval-3-Copy-5_4_" class="st3" cx="23.8" cy="73.5" r="5.3"/>
	<path id="Rectangle-Copy-10_3_" class="st6" d="M52,97.5h24c2.7,0,4.9,2.2,4.9,4.9l0,0c0,2.7-2.2,4.9-4.9,4.9H52
		c-2.7,0-4.9-2.2-4.9-4.9l0,0C47.1,99.7,49.2,97.5,52,97.5z"/>
	<path id="Line-2-Copy-3_2_" class="st9" d="M14.5,118.4h71.4"/>
	<g>
		<ellipse id="Oval-3-Copy-5_3_" class="st10" cx="21.5" cy="139.7" rx="7.1" ry="7.1"/>
		<path id="Shape_3_" class="st1" d="M21.7,139.7l1.8,1.8c0.1,0.1,0.1,0.2,0,0.3l-0.1,0.1c0,0-0.1,0-0.1-0.1l-1.8-1.8l-1.8,1.8
			l-0.1,0.1c0,0-0.1,0-0.1-0.1c-0.1-0.1-0.1-0.2,0-0.3l1.8-1.8l-1.8-1.8c-0.1-0.1-0.1-0.2,0-0.3s0.2-0.1,0.3,0l1.8,1.8l1.8-1.8
			c0.1-0.1,0.2-0.1,0.3,0s0.1,0.2,0,0.3L21.7,139.7L21.7,139.7z"/>
	</g>
</g>
</svg>
