<?xml version="1.0" encoding="utf-8"?>
<!-- Generator: Adobe Illustrator 22.1.0, SVG Export Plug-In . SVG Version: 6.00 Build 0)  -->
<svg version="1.1" xmlns="http://www.w3.org/2000/svg" xmlns:xlink="http://www.w3.org/1999/xlink" x="0px" y="0px"
	 viewBox="0 0 459.2 96.4" style="enable-background:new 0 0 459.2 96.4;" xml:space="preserve">
<g id="Layer_1">
	<g>
		<path d="M85.8,94.5c-25.3-0.2-46-21-46-46.3V27.7h13.9v20.5c0,17.9,14.5,32.4,32.4,32.4c8.6,0,16.8-3.4,22.9-9.5
			c6.1-6.1,9.5-14.3,9.5-22.9c0-17.7-13.9-31.9-31.7-32.4l-82.6,0v-14l82.4,0c12.3,0.1,23.9,5,32.6,13.8
			c8.7,8.8,13.4,20.5,13.3,32.9c-0.2,25.4-21,46-46.3,46L85.8,94.5L85.8,94.5z"/>
		<g>
			<g>
				<path d="M317.1,27.2v24.5c0,5.3,3,8.2,8.5,8.2c0.8,0,1.9-0.2,2.8-0.5V55c-0.6,0.1-1.1,0.2-1.6,0.2c-3.1,0-4.5-1.3-4.5-4.3V39.6
					h6.1v-4.7h-6.1v-7.7H317.1z"/>
			</g>
			<g>
				<path d="M337.3,59.6h5.3V47.1c0-4.5,2.4-7,6.7-7c0.2,0,0.9,0,1.4,0.1v-5.4c-0.3-0.1-0.9-0.1-1.2-0.1c-2.8,0-5.3,1.5-6.7,4.1
					l-0.3,0.5v-4.4h-5.1L337.3,59.6L337.3,59.6z"/>
			</g>
			<g>
				<path d="M368.4,34.4c-7,0-12.4,5.6-12.4,12.8c0,7.3,5.6,12.9,13,12.9c4.5,0,8.4-2.2,10.5-5.8l-3.8-2.5c-1.4,2.6-3.6,3.8-6.8,3.8
					c-3.5,0-7.4-2.5-7.5-6.7v-0.2h19c0-0.3,0.1-0.8,0.1-1.6C380.4,39.4,375.7,34.4,368.4,34.4z M375.1,44.8h-13.5l0-0.2
					c0.5-3.5,3.2-5.8,6.8-5.8c3.7,0,6.5,2.4,6.7,5.8V44.8z"/>
			</g>
			<g>
				<path d="M397,45.1c-3.8,0-10.2,1.6-10.2,7.5v0.3c0,4.2,3.5,7.2,8.3,7.2c1.5,0,5.2-0.4,7.2-3.8l0.3-0.5v3.8h5.2V43.9
					c0-1.8-0.3-3.2-0.8-4.4c-1.9-4.1-6.1-5-9.2-5c-6.2,0-9.1,3.3-10.4,6.1l4,2.3c1.3-2.5,3.5-3.9,6.3-3.9c3.5,0,5.1,2,5.1,3.9
					c0,1.5-0.9,2.3-2.5,2.3H397z M396.2,55.9c-2.5,0-4.1-1.4-4.1-3.6c0-2.5,2.9-3.6,5-3.6h5.5v1C402.6,53.4,400.1,55.9,396.2,55.9z"
					/>
			</g>
			<g>
				<path d="M449.7,59.6h5.3V44.3c0-6.3-3.2-10-8.9-10c-3.5,0-6,1.2-8.6,4.1l-0.1,0.2l-0.1-0.2c-1.5-2.7-4.1-4-7.6-4
					c-1.3,0-4.7,0.4-7.3,3.9l-0.3,0.4v-3.7h-5.1v24.7h5.3V45.9c0-4,2.2-6.5,5.6-6.5c3.5,0,5.5,2.3,5.5,6.4v13.9h5.2V45.8
					c0-4,2.2-6.5,5.7-6.5c3.5,0,5.5,2.2,5.5,6.3L449.7,59.6L449.7,59.6z"/>
			</g>
			<path d="M238.2,34.4c-0.1,0-0.2,0-0.2,0c-3.3,0-6.4,1.3-8.8,3.6c-2.4,2.4-3.8,5.5-3.8,8.9v22.3h5.3V46.9c0.1-4.1,3.4-7.3,7.4-7.3
				c2,0,3.9,0.8,5.3,2.2c1.4,1.4,2.2,3.3,2.2,5.3c0,4.1-3.3,7.4-7.4,7.4h-3.3v5.3h3.3c6.9,0,12.6-5.7,12.7-12.6V47
				C250.8,40.1,245.2,34.4,238.2,34.4z"/>
			<g>
				<path d="M270.1,34.4c-7,0-12.4,5.6-12.4,12.8c0,7.3,5.6,12.9,13,12.9c4.5,0,8.4-2.2,10.5-5.8l-3.8-2.5c-1.4,2.6-3.6,3.8-6.8,3.8
					c-3.5,0-7.4-2.5-7.5-6.7v-0.2h19c0-0.3,0.1-0.8,0.1-1.6C282.1,39.4,277.4,34.4,270.1,34.4z M276.7,44.8h-13.5l0-0.2
					c0.5-3.5,3.2-5.8,6.8-5.8c3.7,0,6.5,2.4,6.7,5.8V44.8z"/>
			</g>
			<g>
				<path d="M288.9,54c1.9,4.1,5.3,6.1,10.1,6.1c5.5,0,9.3-3.1,9.3-7.6c0-2.4-1.4-4.1-2.2-4.8c-1.5-1.3-3.6-2.3-6.4-2.9
					c-2.8-0.6-4.8-1.4-4.8-3.3c0-1.5,1.9-2.6,3.7-2.6c2.4,0,4.1,1.1,5.3,3.3l4-2.3c-1.8-3.7-4.7-5.4-9.2-5.4c-4.4,0-8.9,2.8-8.9,7.5
					c0,1.8,0.6,3.2,1.7,4.4c1.7,1.7,4.3,2.6,6.1,3c3.6,0.8,5.3,1.9,5.3,3.4c0,1.9-2.1,2.9-4.1,2.9c-2.7,0-4.7-1.3-6.1-4L288.9,54z"
					/>
			</g>
			<g>
				<path d="M199.4,69.1h5.6l15.7-34.2H215l-7.3,16.6l-7.9-16.6h-6l11.1,22l0,0.1L199.4,69.1z"/>
			</g>
			<path d="M177.3,34.4c-0.1,0-0.2,0-0.2,0c-3.3,0-6.4,1.3-8.8,3.6c-2.4,2.4-3.8,5.5-3.8,8.9v22.3h5.3V46.9c0.1-4.1,3.4-7.3,7.4-7.3
				c2,0,3.9,0.8,5.3,2.2c1.4,1.4,2.2,3.3,2.2,5.3c0,4.1-3.3,7.4-7.4,7.4h-3.3v5.3h3.3c6.9,0,12.6-5.7,12.7-12.6V47
				C189.9,40.1,184.3,34.4,177.3,34.4z"/>
		</g>
	</g>
</g>
<g id="Livello_2">
</g>
</svg>
