<?xml version="1.0" encoding="utf-8"?>
<!-- Generator: Adobe Illustrator 22.1.0, SVG Export Plug-In . SVG Version: 6.00 Build 0)  -->
<svg version="1.1" id="Livello_1" xmlns="http://www.w3.org/2000/svg" xmlns:xlink="http://www.w3.org/1999/xlink" x="0px" y="0px"
	 viewBox="0 0 16 16" style="enable-background:new 0 0 16 16;" xml:space="preserve">
<style type="text/css">
	.st0{fill:#B30013;}
</style>
<g>
	<path class="st0" d="M3.5,5.7C3,6,2.4,5.8,2.1,5.3S2,4.3,2.5,4l5-3c0.3-0.2,0.7-0.2,1,0l5,3c0.5,0.3,0.6,0.9,0.3,1.4
		C13.6,5.8,13,6,12.5,5.7L8,3L3.5,5.7z"/>
	<path class="st0" d="M8.1,15.2H7.9c-0.5,0-0.9-0.7-0.9-1.5v-7c0-0.8,0.4-1.5,0.9-1.5h0.2C8.6,5,9,5.7,9,6.5v7
		C9,14.5,8.6,15.2,8.1,15.2z"/>
</g>
</svg>
