<?xml version="1.0" encoding="utf-8"?>
<!-- Generator: Adobe Illustrator 22.1.0, SVG Export Plug-In . SVG Version: 6.00 Build 0)  -->
<svg version="1.1" id="Livello_1" xmlns="http://www.w3.org/2000/svg" xmlns:xlink="http://www.w3.org/1999/xlink" x="0px" y="0px"
	 viewBox="0 0 16 16" style="enable-background:new 0 0 16 16;" xml:space="preserve">
<style type="text/css">
	.st0{fill:#3C8562;}
</style>
<g>
	<path class="st0" d="M8,13.1l4.5-2.7c0.5-0.3,1.1-0.1,1.3,0.3c0.3,0.5,0.2,1.1-0.3,1.4l-5,3c-0.3,0.2-0.7,0.2-1,0l-5-3
		c-0.5-0.3-0.7-0.8-0.4-1.3s0.9-0.7,1.4-0.4L8,13.1z"/>
	<path class="st0" d="M9,2.6v7c0,0.8-0.4,1.5-0.9,1.3H7.9C7.4,10.9,7,10.2,7,9.4v-7c0-0.8,0.4-1.5,0.9-1.5h0.2C8.6,0.9,9,1.6,9,2.6z
		"/>
</g>
</svg>
