<?xml version="1.0" encoding="utf-8"?>
<!-- Generator: Adobe Illustrator 26.4.1, SVG Export Plug-In . SVG Version: 6.00 Build 0)  -->
<svg version="1.1" id="Livello_1" xmlns="http://www.w3.org/2000/svg" xmlns:xlink="http://www.w3.org/1999/xlink" x="0px" y="0px"
	 viewBox="0 0 52.4 52.4" style="enable-background:new 0 0 52.4 52.4;" xml:space="preserve">
<style type="text/css">
	.st0{fill:#143448;}
	.st1{fill:#506A7B;}
</style>
<path class="st0" d="M51.2,26.3c0,13.8-11.2,25-25,25s-25-11.2-25-25s11.2-25,25-25S51.2,12.5,51.2,26.3"/>
<g>
	<path class="st1" d="M38.1,24.8H27.8c-0.9,0-1.6-0.7-1.6-1.5v-9.6c0-0.8-0.7-1.5-1.6-1.5H14.3c-0.9,0-1.6,0.7-1.6,1.5v11.2v11.2
		c0,0.8,0.7,1.5,1.6,1.5h-0.7h1.9c0.4,0,0.7,0.1,1,0.4l1.2,1.1l1.1,1c0.4,0.3,0.9,0.3,1.3,0l1.1-1l1.2-1.1c0.3-0.2,0.6-0.4,1-0.4
		h14.7c0.9,0,1.6-0.7,1.6-1.5v-9.6C39.7,25.5,38.9,24.8,38.1,24.8"/>
	<path class="st1" d="M38.7,22.8h-9.3c-0.5,0-1-0.4-1-0.9v-8.8c0-0.5,0.4-0.9,1-0.9h9.3c0.5,0,1,0.4,1,0.9v8.8
		C39.7,22.3,39.2,22.8,38.7,22.8"/>
</g>
</svg>
