<?xml version="1.0" encoding="utf-8"?>
<!-- Generator: Adobe Illustrator 26.4.1, SVG Export Plug-In . SVG Version: 6.00 Build 0)  -->
<svg version="1.1" id="Livello_1" xmlns="http://www.w3.org/2000/svg" xmlns:xlink="http://www.w3.org/1999/xlink" x="0px" y="0px"
	 viewBox="0 0 60 60" style="enable-background:new 0 0 60 60;" xml:space="preserve">
<style type="text/css">
	.st0{fill:#F18876;}
	.st1{fill:#E5BBAD;}
</style>
<g>
	<path class="st0" d="M53.4,26.7H33c-1.8,0-3.2-1.4-3.2-3.2V3.3c0-1.8-1.4-3.2-3.2-3.2H6.4c-1.8,0-3.2,1.4-3.2,3.2v23.6v23.6
		c0,1.8,1.4,3.2,3.2,3.2H5h3.6c0.9,0,1.4,0.2,2,0.9l2.5,2.5l2.3,2.3c0.9,0.9,1.8,0.9,2.6,0l2.3-2.3l2.5-2.5c0.6-0.6,1.2-0.9,2-0.9
		h28.9c1.8,0,3.2-1.4,3.2-3.2V29.9C56.6,28.1,55.2,26.7,53.4,26.7"/>
	<path class="st1" d="M53.6,22.4H37.3c-1.6,0-3-1.4-3-3V3.1c0-1.6,1.4-3,3-3h16.3c1.6,0,3,1.4,3,3v16.3C56.6,21,55.2,22.4,53.6,22.4
		"/>
</g>
</svg>
