<?xml version="1.0" encoding="utf-8"?>
<!-- Generator: Adobe Illustrator 25.4.1, SVG Export Plug-In . SVG Version: 6.00 Build 0)  -->
<svg version="1.1" id="Livello_1" xmlns="http://www.w3.org/2000/svg" xmlns:xlink="http://www.w3.org/1999/xlink" x="0px" y="0px"
	 viewBox="0 0 412 132" style="enable-background:new 0 0 412 132;" xml:space="preserve">
<style type="text/css">
	.st0{fill:#FFFFFF;}
</style>
<g>
	<path class="st0" d="M84,53.1H54.7c-2.6,0-4.6-2.1-4.6-4.6V19.2c0-2.6-2.1-4.6-4.6-4.6H16.1c-2.6,0-4.6,2.1-4.6,4.6v33.9V87
		c0,2.6,2.1,4.6,4.6,4.6h-2h5.3c1.1,0,2.1,0.4,2.8,1.2l3.4,3.4l3.2,3.2c1,1,2.7,1,3.7,0l3.2-3.2l3.4-3.4c0.8-0.8,1.8-1.2,2.8-1.2h42
		c2.6,0,4.6-2.1,4.6-4.6V57.8C88.6,55.2,86.6,53.1,84,53.1"/>
	<path class="st0" d="M85.8,46.9H59.1c-1.5,0-2.8-1.3-2.8-2.8V17.4c0-1.5,1.3-2.8,2.8-2.8h26.8c1.5,0,2.8,1.3,2.8,2.8v26.8
		C88.6,45.7,87.4,46.9,85.8,46.9"/>
	<path class="st0" d="M262.4,26.5h-0.2c-1.3,0-2.3,1-2.3,2.3c0,0.1,0,9,0,15.5c-3.7-2.7-8.3-4.2-13.4-3.7c-9,0.9-16.3,8.1-17.3,17.1
		c-1.2,11.6,7.8,21.5,19.2,21.5c4.5,0,8.7-1.6,12-4.2c0.1,2.4,2.1,4.3,4.5,4.3c2.5,0,4.5-2,4.5-4.5V33.6
		C269.5,29.7,266.3,26.5,262.4,26.5 M251.8,71.2c-8.3,1.8-15.5-5.4-13.7-13.7c0.9-4.2,4.3-7.6,8.5-8.5c8.3-1.8,15.5,5.4,13.7,13.7
		C259.4,66.9,256,70.3,251.8,71.2"/>
	<path class="st0" d="M147.4,75l-1.4-3.7c-0.4-1.1-1.7-1.7-2.8-1.3c-4,1.3-7.5-0.5-7.2-5.4V52.2c0-0.8,0.7-1.5,1.5-1.5h5.7
		c1.3,0,2.3-1,2.3-2.3v-5.5c0-1.3-1-2.3-2.3-2.3h-5.7c-0.8,0-1.5-0.7-1.5-1.5V28.8c0-1.3-1-2.3-2.3-2.3c-4.9,0-8.9,4-8.9,8.9v3.7
		c0,0.8-0.7,1.5-1.5,1.5h-2.1c-1.3,0-2.3,1-2.3,2.3v5.5c0,1.3,1,2.3,2.3,2.3h2.1c0.8,0,1.5,0.7,1.5,1.5v12.7
		c-0.1,9.9,5,14.3,14.3,14.4C141.7,79.1,148.5,79,147.4,75"/>
	<path class="st0" d="M168.5,76.5V29.3c0-1.6,1.3-2.8,2.8-2.8h5.4c1.6,0,2.8,1.3,2.8,2.8v47.2c0,1.6-1.3,2.8-2.8,2.8h-5.4
		C169.7,79.3,168.5,78.1,168.5,76.5"/>
	<path class="st0" d="M222.2,49.7c-7.1-12.5-28.2-12.2-35.1,0.3c-5.4,9.2-2.3,22.6,7.7,27.3c7.4,3.8,21.4,3.1,25.6-2
		c0.9-1.1,1.2-3.8-0.6-5.4c-2-1.8-6-0.4-7.8,0.2c-5,1.9-12.4,1.1-15.2-3.9c-0.5-0.9-1-2.8-0.3-2.8c0.9,0,24,0,24,0
		C224.3,63.3,225.7,56.3,222.2,49.7 M213.2,56.8c-2,0-17.3,0-17.4,0c-0.7,0,0-2,0.7-3.3c1.4-2.9,4.6-4.5,7.8-4.7
		c2-0.1,4.4,0.1,6.2,1.3C214.3,52.7,214.1,56.8,213.2,56.8"/>
	<path class="st0" d="M312.1,49.7C305,37.2,283.9,37.5,277,50c-5.4,9.2-2.3,22.6,7.7,27.3c7.4,3.8,21.4,3.1,25.6-2
		c0.9-1.1,1.2-3.8-0.6-5.4c-2-1.8-6-0.4-7.8,0.2c-5,1.9-12.4,1.1-15.2-3.9c-0.5-0.9-1-2.8-0.3-2.8c0.9,0,24,0,24,0
		C314.3,63.3,315.6,56.3,312.1,49.7 M303.1,56.8c-2,0-17.3,0-17.4,0c-0.7,0,0-2,0.7-3.3c1.4-2.9,4.6-4.5,7.8-4.7
		c2-0.1,4.4,0.1,6.2,1.3C304.2,52.7,304,56.8,303.1,56.8"/>
	<path class="st0" d="M334.7,79.8c-5-0.2-10.3-1.6-14.5-3.8c-1.1-0.6-1.4-2-0.9-3.1l1.9-3.7c0.6-1.1,2-1.6,3.1-1
		c3.7,2.2,17.5,6.2,18.4,0.1c0-0.9-0.3-1.6-1.1-2.1c-2.1-1.2-5-1.5-7.7-2.2c-3.2-0.7-6.6-1.5-9.3-3.3c-5.1-2.9-5.4-10.8-1.7-15.1
		c3.8-4.3,9.6-5.4,15.8-5.1c2.6,0.1,5.4,0.6,8.1,1.4c3.6,1,5.2,5.1,3.5,8.4c-1.6,2.7-4.4-0.1-6.5-0.4c-3.2-1-8.5-1.5-10.9-0.2
		c-2.1,0.9-2.6,3.5-0.7,4.7c0.8,0.5,1.9,1,3.3,1.3c4.5,1,9.8,1.7,13.8,4.3c4.7,2.7,5.3,9.6,2.4,14C348,78.9,341.4,80.2,334.7,79.8"
		/>
	<path class="st0" d="M396.4,75.6l-13.6-17.2c-0.5-0.6-0.5-1.5,0.1-2.1L394,45c1.4-1.5,0.4-3.9-1.6-3.9h-6.8c-0.6,0-1.2,0.2-1.6,0.6
		l-13.1,12.4c-0.9,0.9-2.5,0.2-2.5-1.1V34.1c0-4.2-3.4-7.6-7.6-7.6h-0.9c-0.9,0-1.6,0.7-1.6,1.6v49.6c0,0.9,0.7,1.6,1.6,1.6h6.2
		c1.3,0,2.3-1,2.3-2.3v-6.3c0-0.7,0.3-1.3,0.8-1.8l3.6-3.5c0.6-0.6,1.6-0.5,2.1,0.1c2.7,3.4,10.3,12.9,10.3,12.9
		c0.4,0.5,1.1,0.9,1.8,0.9h7.6C396.5,79.3,397.6,77.1,396.4,75.6"/>
	<path class="st0" d="M152.4,76.5V43.3c0-1.6,1.3-2.8,2.8-2.8h5.4c1.6,0,2.8,1.3,2.8,2.8v33.2c0,1.6-1.3,2.8-2.8,2.8h-5.4
		C153.7,79.3,152.4,78.1,152.4,76.5"/>
	<path class="st0" d="M163.4,32.1c-0.2,7.3-10.8,7.3-11,0C152.6,24.8,163.3,24.8,163.4,32.1"/>
</g>
</svg>
