<?xml version="1.0" encoding="utf-8"?>
<!-- Generator: Adobe Illustrator 26.4.1, SVG Export Plug-In . SVG Version: 6.00 Build 0)  -->
<svg version="1.1" id="Layer_1" xmlns="http://www.w3.org/2000/svg" xmlns:xlink="http://www.w3.org/1999/xlink" x="0px" y="0px"
	 viewBox="0 0 2753 2000" style="enable-background:new 0 0 2753 2000;" xml:space="preserve">
<style type="text/css">
	.st0{fill:#6A97CE;}
	.st1{fill:#F7A491;}
	.st2{fill:#F47458;}
	.st3{fill:#13375B;}
	.st4{fill:#FFFFFF;}
	.st5{fill:#9BC1F9;}
	.st6{fill:#F8A492;}
	.st7{fill:#355389;}
	.st8{fill:#FE875E;}
	.st9{fill:#F7CC7F;}
	.st10{fill:#F48C7F;}
	.st11{fill:#F18876;}
	.st12{fill:#F6B3A8;}
	.st13{fill:#466EB6;}
	.st14{fill:#DD513A;}
	.st15{fill:#E0973F;}
	.st16{fill:#0E2E35;}
	.st17{fill:#184655;}
	.st18{fill:#256653;}
	.st19{fill:#327F6B;}
	.st20{fill:#50BFA5;}
	.st21{opacity:0.1;fill:#9BC1F9;}
</style>
<path class="st0" d="M952.7,249c-19.1,6.5-29.9,58.3-29.9,58.3s29.9,8.4,37.6,4c0,0,8.7-38.6,11.8-37.2L952.7,249z"/>
<path class="st1" d="M992.2,230.2c0,0-3.4,17.6-2.7,24.5c0.7,6.9-2.6,29.3-17.3,29.3c-14.7,0.1-2.8-28.4-1.4-35.2
	c1.4-6.8,1.7-27.8,1.7-27.8L992.2,230.2z"/>
<path class="st2" d="M972.2,231.5c0.2-5.8,0.3-10.6,0.3-10.6l19.7,9.2c0,0-0.7,3.6-1.4,8.2C982.2,240.1,975.9,236.9,972.2,231.5z"/>
<path class="st1" d="M999.4,181.7c0,0,7.6,4.2,10.4,13.3c2.8,9.1-0.4,32.6-20,38.3c-19.6,5.7-28.1-13-24-27.5
	C969.8,191.2,978.5,172.8,999.4,181.7z"/>
<path class="st1" d="M963.3,200.1c0.4,3.9,2.5,6.9,4.8,6.7c2.3-0.2,3.8-3.6,3.4-7.5c-0.4-3.9-2.5-6.9-4.8-6.7
	C964.4,192.9,962.9,196.2,963.3,200.1z"/>
<path class="st3" d="M997.1,180.5c0,0,3.6,26.2,12,31c8.5,4.7,4.9,16.4,4.9,16.4s7.7-27,1-35.7
	C1008.3,183.4,997.1,180.5,997.1,180.5z"/>
<path class="st1" d="M1004.1,215.2c-2.3,3.4-2.3,7.5,0,9c2.3,1.6,6,0,8.4-3.4c2.3-3.4,2.3-7.5,0-9
	C1010.1,210.3,1006.4,211.8,1004.1,215.2z"/>
<path class="st4" d="M975.5,216.7l13.8,3.5c0,0-1.7,5.2-7.8,3.9C974.1,222.4,975.5,216.7,975.5,216.7z"/>
<path class="st5" d="M1019.4,249.5c13.5-2.4,24.6,57.8,24.6,57.8s-29.9,8.4-37.6,4c0,0-8.7-38.6-11.8-37.2L1019.4,249.5z"/>
<g>
	<g>
		<path class="st6" d="M1955.8,1403.6c10.9,1.8,10.3,3.6,11.7,3.7c1.7,0.2,21.4-9.7,21.4-9.7s58.3-28.8,61.4-30.5l42.1-53l32.4,15
			c0,0-47.3,56.3-50.3,58.8c-3,2.5-86.6,31.8-93.9,34.6c0,0-7.3,6.7-12.1,10.8c-4.7,4-11.1,5.7-12.6,6.6c-0.2,0.1-5.5,2.9-12.9,4.5
			c-6.4,1.4-1.1-2.9-1.1-2.9s11.3-4.8,10.7-5.6c-0.4-0.7-6.4,2.3-13.5,3.9c-1.8,0.4-3.6,0.8-5.2,1.2c-4.3,0.9-6.2-1.5-1.9-3.3
			c1.5-0.6,4.1-1.6,6-2c2.1-0.4,3.8-1.5,5.5-2.2c3.4-1.3,5.8-2.2,5.7-2.3c-0.2-0.2,0.3-0.9-1.6-0.5c-2.3,0.5-7,2.5-10.5,2.9
			c-2,0.2-6.1,0.9-6.1,0.9s-7.2,0.7-7.3-0.3c-0.1-2.2,4.3-3.5,7.1-3.4c1.7-0.9,6.1-1.5,6.1-1.5s8.4-3.3,7.9-4.6
			c-0.2-0.5-5.3,0.3-10.7,0.6c-5.7,0.4-9.8,0.4-10.1-0.7c-0.5-1.8,4.1-2.4,4.1-2.4s4-0.6,5.3-0.9c1.5-0.3,6-1.8,6-1.8
			s15.4-5.7,14.9-6.8c-0.6-1.1-3.1-3.5-4.2-3.5c-1.1,0-3,1.1-4.1,1.1c-1.1,0-3.4-0.2-3.6-1.6c-0.2-1.4,5.9-4.2,5.9-4.2
			S1952.7,1403.1,1955.8,1403.6z"/>
		<path class="st7" d="M2063.1,1347.1c0,0,10.5,9.5,14.9,12.7c3.6,2.6,21.3,11.1,21.3,11.1s17.6-27,25.3-40.5
			c9.3-16.4,15.8-40.8,13.6-41.5c-6.2-1.9-14.7-3-22.6,0.6C2088.4,1302.1,2063.1,1347.1,2063.1,1347.1z"/>
		<path class="st8" d="M1966,1417.7c-4.7,0.7-9.5-0.2-11.5-4.4C1954.1,1418.4,1961.7,1420.9,1966,1417.7z"/>
	</g>
	<path class="st3" d="M660.6,1228.6c0.6-15.7-1.7-31.2-8.6-45.8c-6-12.6-20.9-19.7-34.5-19.7c-43.1-0.1-48.6,57.2-76.1,79.2
		c-8.4,6.7-17.8,12.2-25.7,19.5c-29.3,26.9-16.1,76.6,10.8,100.1c18.7,16.3,48,25.6,71,12.8c12-6.7,21.1-17.7,27.6-29.9
		c9.2-17.2,15.2-37.1,21.7-55.5C653.9,1269.8,659.8,1249.5,660.6,1228.6z"/>
	<path class="st9" d="M667.7,1304.6c-13.5-40.9-31.2-40.2-31.2-40.2l14.4,87c8.3-2.3,19.1-7.3,27.5-9.7
		C675.5,1328.8,671,1314.7,667.7,1304.6z"/>
	<path class="st10" d="M735.7,1444l-49.2-37.6c0,0-5-35-11.6-66.1c-8.3,2.3-15.8,8.9-24.1,11.1l12.5,69.6l64.5,33.3l18.2,23.4
		l4.1-24L735.7,1444z"/>
	<path class="st11" d="M1620.6,1273.7c0.7-15.3,5.4-29.4,13-41.5c1-1.5,1.9-3.2,2.7-5c17.3-37.1-9.5-79.8-50.4-81.7l-201-9.4
		l-9.4,201c-1.9,40.9-44.6,67.7-81.7,50.4c-1.8-0.8-3.4-1.7-5-2.7c-12.1-7.6-26.2-12.3-41.5-13c-48.4-2.3-89.3,36.3-89.3,85.3
		c0,44.3,34.7,81.7,78.9,85c15.7,1.2,30.7-2,43.9-8.4c1.6-0.8,3.4-1.5,5.3-2.2c39.1-13.6,79.5,17.6,77.5,58.9l-9.3,199.2l457.9,21.4
		c108,5,199.7-78.4,204.7-186.4l21.4-457.9l-200.3-9.4c-41.1-1.9-71.9,38.2-58.2,77c0.7,1.9,1.4,3.6,2.2,5.2
		c7,13.9,10.2,29.9,8.6,46.7c-4.3,43.3-41.2,76.7-84.7,76.7C1656.9,1363,1618.3,1322.1,1620.6,1273.7z"/>
	<path class="st11" d="M1060.6,957.3c0.8,15.3-2.5,29.8-9,42.5c-0.8,1.6-1.5,3.4-2.2,5.2c-13.6,38.6,17.2,78.5,58.1,76.4l200.9-10.1
		l-10.1-200.9c-2.1-40.9,37.9-71.7,76.4-58.1c1.8,0.7,3.6,1.4,5.2,2.2c12.7,6.4,27.3,9.7,42.5,9c48.4-2.4,85.3-44.7,80.6-93.5
		c-4.3-44.1-42.4-77.9-86.7-76.9c-15.8,0.4-30.4,4.9-42.8,12.6c-1.6,1-3.2,1.8-5,2.7c-37.6,17.3-80.8-9.8-82.9-51.2l-10-199.2
		l-457.8,23c-108,5.4-191.1,97.4-185.7,205.4l23,457.8l200.3-10.1c41.1-2.1,67.9-45,50.5-82.3c-0.8-1.8-1.7-3.4-2.7-5
		c-8.3-13.2-13.1-28.8-13-45.7c0.1-43.5,33.6-80.3,76.9-84.5C1015.9,871.9,1058.2,908.9,1060.6,957.3z"/>
	<path class="st12" d="M1471.9,846.4c-15.3,0-29.6-4-42-11.1c-1.6-0.9-3.3-1.7-5.1-2.4c-37.8-15.5-79.2,13.2-79.2,54.1v201.2h201.2
		c40.9,0,69.7,41.4,54.1,79.2c-0.7,1.8-1.6,3.5-2.5,5.1c-7,12.4-11.1,26.8-11.1,42c0,48.5,40.4,87.5,89.4,85.2
		c44.3-2.1,80-38.4,81.2-82.8c0.4-15.8-3.4-30.6-10.5-43.4c-0.9-1.6-1.7-3.3-2.4-5.2c-15.4-38.5,13.8-80.2,55.3-80.2h199.4V629.8
		c0-108.1-87.7-195.8-195.8-195.8h-458.4v200.5c0,41.1,41.5,70.1,79.6,54.6c1.8-0.7,3.5-1.5,5.1-2.4c13.6-7.6,29.4-11.6,46.3-10.7
		c43.4,2.3,78.5,37.6,80.6,81C1559.4,806,1520.4,846.4,1471.9,846.4z"/>
	<path class="st1" d="M525.8,1734.1c0,0-3,21.1-8.3,27.9c-1.8,2.3-5,5.2-7.1,9.3c-3.3,6.4-1.5,16,1,21.3c1.2,2.7-0.1,2.7,2.7,3.6
		c8.4,2.6,17.3-1.8,20.8-9.8c2-4.5,3.7-10.5,4.1-18c0.9-19.2,6.8-28.9,6.8-28.9L525.8,1734.1z"/>
	<path class="st1" d="M617.3,1743.7c0,0,1.9,23.8,0.4,31.6c-0.8,4.1-5.4,12.7-3.3,16.6c2.1,3.9,4.5,4.9,4.5,4.9l54,0.9
		c2.9,0,1-1.8-1.4-3.6c-3.9-2.9-7-4.8-19.4-10.8c-0.8-0.4-3.8-2.3-4.8-2.9c-2.7-1.6-5.4-4.2-7.7-6.8c-3.9-4.3-4.2-25.3-4.2-25.3
		L617.3,1743.7z"/>
	<path class="st7" d="M659.4,1427.2c0,0,6.8,38.7,2.3,64s-25.9,260.3-25.9,260.3l-23.8,1.3c0,0-5-98.2-4.1-111.8
		c0.9-13.7,8-36.5,8-36.5l-2.4-79.2l30-104.1L659.4,1427.2z"/>
	<path class="st13" d="M589.5,1419.1c0,0-18.7,28.3-23.2,51.7c-4.5,23.4,3.3,95.3-5.3,126c-4.6,16.6-22.3,42.2-24.9,63.7
		c-2.7,21.5-13.2,77.6-13.2,77.6l23.8,4.7l55.3-140.3l43.4-126.8l11.1-65.3L589.5,1419.1z"/>
	<path class="st9" d="M604.7,1258.2c0,0-24.8-1.6-34.6,9.1c-9.8,10.7,21.8,95.6,23.6,109.2c1.8,13.6-9.1,49.9-9.1,49.9
		s58.3,11.8,75,0.7c0,0,1.8-98.2,0-107.9c-1.8-9.8-16.7-49.4-20.2-53.3C635.6,1262.1,604.7,1258.2,604.7,1258.2z"/>
	<path class="st1" d="M612.9,1224.9c0,0-0.1,0.7-0.4,2c-1.1,6-5.4,25.8-8.2,31.3c-3.5,6.6,11.9,27.6,26.7,25
		c4.4-0.8-3.7-19.3-3.3-21.3c0.7-3.8,1.8-8.9,2.8-14.2c0.6-3,1.2-6,1.7-8.8c1.6-8,2.9-14.6,2.9-14.6L612.9,1224.9z"/>
	<path class="st2" d="M612.6,1226.9c0.2-1.2,0.4-2,0.4-2l22.2-0.6c0,0-1.3,6.6-2.9,14.6c-0.6,2.8-1.1,5.8-1.7,8.8
		c-3.4-0.5-7-2.2-10.6-5.3c-3.9-3.4-6.5-7.6-8-12C612.2,1229.1,612.4,1227.9,612.6,1226.9z"/>
	<path class="st1" d="M627.9,1174.4c0,0-10.5-1.2-17,7.3c-6.6,8.5-13.6,34.8,2.7,49.1c16.3,14.3,32.4-1.9,34.8-19
		C650.7,1194.6,651.6,1173.8,627.9,1174.4z"/>
	<path class="st1" d="M653.1,1211.5c-1.9,3.8-5.2,5.9-7.3,4.7c-2.1-1.2-2.2-5.2-0.2-9c1.9-3.8,5.2-5.9,7.3-4.7
		C654.9,1203.6,655,1207.7,653.1,1211.5z"/>
	<path class="st3" d="M629,1171.6c0,0-14,25-24,26.2c-10,1.2-11.3,14.4-11.3,14.4s3.6-30.6,13.5-36.5
		C617.1,1169.8,629,1171.6,629,1171.6z"/>
	<path class="st2" d="M536.6,1782.2c-13,2.4-21.6-5.2-26.1-10.9c-3.3,6.4-4.9,16.1-2.5,21.4c2.1,4.7,8.4,4.5,13.3,4.7
		c5.2,0.2,9.2-2.7,11.8-7.2C534.3,1788,535.6,1785.4,536.6,1782.2z"/>
	<path class="st2" d="M647.2,1780.3c-14.3,3.7-24.8,1.2-30.7-1.2c-1.5,4.3-3.5,9.7-2.5,12.9c1.3,3.8,3.2,4.7,4.8,4.7
		c13,0.3,47.8,0.8,57.7,0.9c1.4,0,2.2-1.6,1.3-2.7C675.3,1792.1,648.2,1781,647.2,1780.3z"/>
	<path class="st1" d="M607.7,1204c0.8,4.4-0.8,8.5-3.7,9.1c-2.8,0.6-5.8-2.5-6.6-7c-0.8-4.4,0.8-8.5,3.7-9.1
		C603.9,1196.4,606.9,1199.6,607.7,1204z"/>
	<path class="st4" d="M624,1219.4l12.6,0.6c0,0-0.5,4.8-6.1,4.7C623.8,1224.5,624,1219.4,624,1219.4z"/>
	<g>
		<path class="st14" d="M1700,213.3c1.6,0.1,5.9,1.5,12.2,13.4c8,15.2,19.8,61.1,19.8,61.1l-35.1,13.1l-4.5-9.6l-7.4-73.8
			C1684.9,217.5,1699.5,213.2,1700,213.3z"/>
		<path class="st2" d="M1653.6,206.6c10,0,34.8,2.9,46.4,6.6c0,0,8.5,72.7-7.6,128c-3.6,12.4,3,51.3,3,51.3l-103.9-1.4
			c0,0,12.3-94.1,7.7-109.3c-4.6-15.2-4.7-68.2-4.7-68.2s0.7-0.1,23.4-4C1628.2,207.9,1642.9,206.6,1653.6,206.6z"/>
		<path class="st1" d="M1641.5,527.5c0,0,2.3,26.5,6.5,33.9c4.2,7.3-0.2,19.8-0.4,21.6c-0.2,1.7-8.9,4.2-22.7,2.7
			c-13.8-1.5-13.6-4.7-12.5-9.8c1.1-5.1,8.5-11.8,8.9-16.7c0.4-4.9-4.2-22.5-4.2-22.5L1641.5,527.5z"/>
		<path class="st15" d="M1683.6,370.6c0,0,71.8-4,87.8,5.7c16,9.7-11.4,57.3-11.4,57.3s-49.9-2.3-147.7,3.3
			c-23.2,1.3-25.2-60.4-20.8-65.5C1595.8,366.4,1683.6,370.6,1683.6,370.6z"/>
		<path class="st14" d="M1623.1,587.7c-14.2-1.5-12.4-8.5-11.3-13.8c0.7-3.3,4.8-7.2,7.2-10.9c1.3,1,3.3,2.8,9.5,4.6
			c6.4,1.9,15.2-1.9,20.8-4.2c2,7.4,2.1,16.9,1.9,18.3C1651,583.5,1637.4,589.3,1623.1,587.7z"/>
		<path class="st9" d="M1631,422c2.9,21.7,17.1,129.7,17.1,129.7l-32.9,4.1c0,0-40.5-140.9-38.4-162.5c2.1-21.6,17.2-23.4,17.2-23.4
			S1623.4,364.5,1631,422z"/>
		<path class="st1" d="M1593.2,221.8c9.7-3.6,14.5,83.9,15.8,120c17.2,1.7,47.2,0,54.7-0.5c3.5-0.3,11.6-3.2,15.1-3.7
			c3.6-0.5,6.8-0.7,8.6-0.4c0.6,0.1,18.6,7.4,20.1,9.1c1.9,2,7,7,6.2,9.2c-0.9,2.2-9.9-6.1-9.9-6.1l-4.4-2.5
			c5.5,5.4,16,12.4,14.5,15c-1.5,2.5-10.9-4.7-17.7-9.5c5.8,5.2,13,14.6,11.3,16c-1.5,1.3-9.6-9.5-18.4-12.6c-3.2-1.2-6.5,2-9,2.4
			c-1.9,0.3-4.8,0.9-6.6,0.4l-9.4-2.7c-3.2,0.3-3.3,2.2-6.5,2.9c-3.8,0.8-10,1.6-14.8,2.8c-27.7,6.8-36.9,9.9-45.4,9.9
			C1571.7,371.4,1570.2,230.4,1593.2,221.8z"/>
		<path class="st14" d="M1574.7,304c-1.8-36.9-1.6-82.4,19.1-90.2c8.2-3.1,22.6,15.4,20,90.9C1602.8,305.7,1586.6,306.4,1574.7,304z
			"/>
		<path class="st1" d="M1737.8,550.2c0,0-2.9,9.2,2.3,15.3c5.1,6.1,26.5,12.1,29.3,15.4c2.8,3.3,2.6,6.1,2.6,6.1l-60-1.7l0.7-18.1
			l2.8-13L1737.8,550.2z"/>
		<path class="st14" d="M1743.8,568.6c0,0-15.4,6.2-22.9,2.5c-7.4-3.7-7.2-4.7-9.4-3.3s-2.9,18.4-2.9,18.4l67.5,2
			c4.7-0.1,7.1-3.6,3.3-6.5c-2.6-2-5.6-3.4-7.4-4.4C1766.7,574.2,1743.8,568.6,1743.8,568.6z"/>
		<path class="st9" d="M1735.5,387.6c4.6-9.8,15.2-22.5,33.7-14.8c17.7,7.3,22.5,25.2,16.9,43.6c-5.6,18.4-42.4,126.4-43.6,141.2
			l-29.4,0.2c0,0,5.3-85.5,6.6-106.2C1721,431.8,1727.5,404.5,1735.5,387.6z"/>
		<path d="M1783.2,288.2H1685c-2.6,0-4.9,1.6-5.9,4l-30.2,73.9h-54.1c-1.5,0-2.7,1.2-2.7,2.7l0,0c0,1.5,1.2,2.7,2.7,2.7h154
			c4.2,0,8.1-2.5,9.8-6.4l30.4-68C1790.9,293,1787.8,288.2,1783.2,288.2z"/>
		<path class="st4" d="M1730.3,331.2c-0.7,3.3-3.5,5.5-6.4,5c-2.9-0.6-4.7-3.7-4-7.1c0.7-3.3,3.6-5.5,6.5-5
			C1729.2,324.8,1731,327.9,1730.3,331.2z"/>
		<g>
			<path class="st16" d="M1676.9,117.8c-3-1-5.9-2.1-8.7-3.5c-3.2-1.5-7.3-3.3-9.9-3.7c-5.5-0.8-14.9-0.3-20.1,5.4
				c-6.5,7-18,1.3-15.7,38c2.6,41.6,25.8,37.1,26.3,36.4c0.6-0.7,20.6-26.6,20.6-26.6s7,15.4,7,14.8
				C1676.6,178,1712.4,129.8,1676.9,117.8z"/>
			<path class="st1" d="M1659.3,193.4l2,14.9c0,0,4.5,21.4-1.3,25.6c-5.8,4.1-24.5-26.2-24.5-26.2l2-37.7L1659.3,193.4z"/>
			<path class="st2" d="M1636.9,182.2c4.8,12.9,16.1,20.8,24.1,23.8l-1.7-12.6l-21.8-23.4L1636.9,182.2z"/>
			<path class="st1" d="M1658.2,129c12.2-2,23.1,7.8,22.8,20.1c-0.1,5.3-0.6,11.9-1.7,19.1c-2.7,17.2-14.4,32.3-22.1,30.9
				s-27.2-16.2-23.8-40.6C1635.5,143.4,1645.4,131.1,1658.2,129z"/>
			<path class="st1" d="M1638.8,161.4c-0.7,3.8-3.7,6.4-6.8,5.9c-3.1-0.5-5-4-4.4-7.8c0.7-3.8,3.7-6.4,6.8-5.9
				C1637.5,154.1,1639.4,157.6,1638.8,161.4z"/>
			<path class="st16" d="M1634.4,153.6c0,0,9.4,2.3,12.8-3.7c3.5-6,15.9-19,31.7-13.6c15.8,5.4-13.9-13.1-15.2-13.1
				c-1.3,0-16.4-0.1-16.4-0.1s-11.7,9.6-12.1,10.7c-0.4,1.1-3.8,12.6-3.8,12.6L1634.4,153.6z"/>
		</g>
		<path class="st4" d="M1651.5,178.7l17,3.3c0,0-1.6,6.4-9.2,5.2C1650.2,185.7,1651.5,178.7,1651.5,178.7z"/>
	</g>
	<g>
		<path class="st6" d="M1363.3,1365.2c0.7,2.2,1,3,1.9,4.5c5.3,9.7,17.7,23.6,17.7,23.6l9.6-21.6c0,0-1.6-6.8-4.3-16.5
			C1378.9,1357.6,1370.1,1359,1363.3,1365.2z"/>
		<path class="st3" d="M1418.3,1346.4c0,0-53.5,23-55.2,22.6c-1.1-0.3-21.9-35.1-22.2-67.9c-0.1-15.1,15.6-33.4,33.2-29.8
			c8.8,1.8,8.7,4.3,21.8,23.3S1418.3,1346.4,1418.3,1346.4z"/>
		<path class="st1" d="M1463.9,1759.5c0,0-1.3,21-1.3,21.1c-0.5,2.7-2.3,9.3-2.3,11.7c0,9.1,43.3-7.7,33.6-11.8
			c-0.9-0.4-5.5-3.1-5.8-6.2c-0.4-4.8-1.6-14.4-1.6-14.4L1463.9,1759.5z"/>
		<path class="st14" d="M1493.8,1780.3c0,0-10.2,2.8-15.4,3.5c-5.2,0.7-12.1-5.2-15.7-3.6c-4,1.7-3.9,17.4-3.9,17.4
			s54.5,4.5,69.8-0.2C1534.7,1795.7,1514.6,1786.8,1493.8,1780.3z"/>
		<path class="st1" d="M1375.4,1759.5c0,0-1.3,21-1.3,21.1c-0.5,2.7-2.3,9.3-2.3,11.7c0,9.1,43.3-7.7,33.6-11.8
			c-0.9-0.4-6.8-5.2-7.1-8.3c-0.4-4.8-0.2-12.4-0.2-12.4L1375.4,1759.5z"/>
		<path class="st14" d="M1405.3,1780.3c0,0-10.2,2.8-15.4,3.5c-5.2,0.7-12.1-5.2-15.7-3.6c-4,1.7-4.2,17.4-4.2,17.4
			s54.7,5.2,70.1-0.2C1446.1,1795.5,1426.1,1786.8,1405.3,1780.3z"/>
		<g>
			<path class="st1" d="M1388.7,1376.8l38.1-53.4c0.2-0.5,0.5-1.4,1-2.9c1.9-5.3,5.9-16.3,9.4-27.3l0-0.1c1.1-3.8,3.4-10.5,5.6-17
				c2.5-7.2,5.6-16.1,5.7-17.6c-0.1-0.3-0.3-0.7-0.5-1.3c-1.4-3.6-3.3-12.3-4-16c-0.4-2.4-0.8-8.2,2-8.2c4.5,0,2.3,5.8,4.4,9.4
				c0.8-2.4,2.3-7.2,3.1-12.1l0.7-11.3c0.1-0.9-0.8-7.1,2.4-7.1l0.1,0c2.8,0.2,2.8,6.9,3.9,18.1c0.4-1.3,0.7-2.9,1-4.3
				c0-0.8,0.5-4.2,1-5.9c-0.6-3.1-0.2-8.1,3.1-7.6c1.7,0.2,1.5,7.1,1.5,7.1c0,0.9-0.1,8.2-0.1,9.7c0.3-2.4,1.7-12.9,4.3-12.9
				c2.2,0,2.3,2.8,2.3,5c0,1.3-1.4,12.6-1.5,14c1-1.7,2.2-11.7,3.2-11.7c4.2,0,2.7,14.2,1.1,17.9c-0.1,0.4-0.3,1.1-0.5,2
				c-0.5,2.5-1.4,6.8-3.6,10.6c-2.7,4.6-6.3,11.8-6.9,12.9c-0.4,2.3-1.7,10.4-3.3,20.6c-0.7,4.4-1.4,9.2-2.2,14.1l0,0
				c-0.1,1.1-0.9,4.5-4,17.3c-4.1,17.6-4.6,18.3-4.7,18.6c-1.8,3.2-42.9,59-44.6,61.3l-1,1.4L1388.7,1376.8z"/>
			<path class="st2" d="M1459.5,1252.3c0,0-3.1-7.9-8.6-7.9c0,0,3.1-1.1,5.7,1S1459.5,1252.3,1459.5,1252.3z"/>
		</g>
		<g>
			<path class="st1" d="M1379.4,1237.1l-4.9,31c0,0,18.7,15,29.6,11.8c9.1-2.7,2.9-14.6,2.9-14.6s-4.9-16.6-3.4-25.2
				C1405.1,1231.4,1379.4,1237.1,1379.4,1237.1z"/>
			<path class="st8" d="M1383,1246.4c4.7,2.2,13.9,5.2,21.2,6c-0.7-4.3-1.1-8.9-0.5-12.3c0.7-4-4.4-5-10.1-4.8
				c-7.4,0.6-14.1,1.8-14.1,1.8l-0.9,6C1379.9,1244.5,1381.4,1245.7,1383,1246.4z"/>
			<path class="st1" d="M1355.9,1201.3c-0.8,0,7.4,34.7,20,40.6s31.5,2.9,35-6.5c3.9-10.3-10.3-45.7-28.1-50.2
				C1365,1180.8,1355.9,1201.3,1355.9,1201.3z"/>
			<path class="st3" d="M1370.5,1169.5c-10.1,5.8-14.7,14.4-16.3,18c-4.7,2.2-10.5,7.1-13.2,20.2c-3.4,16.1,8.6,28.5,21.4,32.2
				c12.7,3.7,14.7,12.2,14.7,12.2l1.4-9.1c0,0-2.8-7.9-7.1-11.9c-4.3-4,2-9.7,2.6-14.4c0.4-3.6-2.2-10.6-1.7-16.6
				c0,0,7.1-10.7,14.1-13.4C1398.3,1182.2,1383.4,1162,1370.5,1169.5z"/>
			<path class="st1" d="M1375.8,1222.7c1.6,4,1,8-1.5,8.9c-2.5,0.9-5.8-1.6-7.5-5.6c-1.6-4-1-8,1.5-8.9
				C1370.8,1216.2,1374.2,1218.7,1375.8,1222.7z"/>
		</g>
		<path class="st6" d="M1422.9,1377.7l73.5-12c0,0-8.4-21.1-11.3-21.1s-55.6,23-55.6,23l-4.2,8.4L1422.9,1377.7z"/>
		<path class="st17" d="M1385.2,1428.1c0,0-7.3,35.4-4.3,62.3c3,26.9,3.2,122.3,3.2,122.3l-11.4,152.7l27.1,0.6
			c0,0,32.1-152.7,31.5-148.7s10.8-107.5,10.8-107.5l-38.2-85.1L1385.2,1428.1z"/>
		<path class="st3" d="M1392.4,1426.4c0,0-4.8,31.9,1.2,45.9c6,14,51.2,151.3,51.8,162.5s15.7,135,15.7,135l31.5-0.9l6.8-137.6
			l-14.2-172.9l-13.8-43.7L1392.4,1426.4z"/>
		<path class="st1" d="M1374.5,1268.1c0,0,7.8,5.1,15,4.5c7.2-0.6,17.5-7.3,17.5-7.3l-1.4-4.8c0,0-18.7-2.7-19.2-2.4
			C1385.9,1258.4,1374.5,1268.1,1374.5,1268.1z"/>
		<path class="st6" d="M1457.2,1343.6c0,0,27.8,26.2,40.3,21.8c12.5-4.5,17.7-19.8-12.9-42.2
			C1457.3,1303.1,1457.2,1343.6,1457.2,1343.6z"/>
		<path class="st7" d="M1476,1376c-4.1-22.5-34.1-92.4-36.4-105.3c-1.2-6.3-17.3-6.4-32.7-5.6c-16.2,0.9-32.4,2.9-32.4,2.9
			s-14.4,2.4-20.7,8.3s-8,22.3,1.1,53.4c7.2,24.6,16.1,38.1,20.5,55.9c0.9,6,1.7,11.9,2.7,18.8c1.6,26.8,0,62.1,0,62.1
			s78.3,16.2,107.6-8.4C1485.6,1458.3,1480.3,1399,1476,1376z"/>
		<path class="st13" d="M1496,1327.7c0,0-30.7,25.4-32.5,25.4c-1.2,0-43.8-31.4-53.7-57.2c-5.4-14.3,6-30.2,19-30.2
			c9,0,13.1,2.4,31,17.5S1496,1327.7,1496,1327.7z"/>
	</g>
	<path class="st3" d="M955.7,196c5-12.1,10.2-24.2,23.2-30.4c10.6-5,21.6-3.1,31,4c26.6,20,3.4,42.1,33.7,80
		c9.4,11.8,20.8,21.3,26.4,35.1c7.9,19.3-1.5,28.6-16.6,37.9c-72.1,44.3-109.9-46.7-108.5-67.5C946,239.7,952.5,203.8,955.7,196z"/>
	<path class="st1" d="M880.9,431.8c3-0.5,10.4-5.8,13-6.2c2-0.4,6.4-1,8.2-1.3c2.3-8.5,13.9-54.9,15.2-68.5
		c1.4-14.7,11.8-78.5,11.8-78.5l27,4.9c0,0-11.2,49.1-14.3,72.8c-2.7,20.4-25.1,66.4-27.9,71.2c0,0.1,0,0.2,0,0.4
		c-0.4,7.2-3.9,4.8-3.9,4.8l-5.6,1.4c0,0-20,1.9-21.3,2.4C881.8,435.7,877.9,432.3,880.9,431.8z"/>
	<path class="st1" d="M805.1,521.5c-5.8,15.4-8.9,30.2-9.1,32c-0.1,0.9,1.1,5,1,5.9c-11.7,16-28.6,19.5-43,20.5
		c7.4-7.2,18.2-14,18.7-16.3c0.8-3.6,5.3-19.7,7.5-42.1C789.1,525.7,795.1,522.4,805.1,521.5z"/>
	<path class="st18" d="M971.2,349.2l25.8,72.6c0,0-41.4,7.8-56.9,10.6c-15.5,2.8-102,6.6-104.2,8.2c-1.6,1.1-19.5,59-27.5,90.9
		c-9.1,2-24.6-0.4-32.8-3.2c4.5-45.6,20.6-117.9,25.7-125.8C809.6,389.7,971.2,349.2,971.2,349.2z"/>
	<path class="st1" d="M870.4,553.3c-2.9,16.2-3,31.4-3,33.2c0,0.9,2,4.8,2.1,5.7c-8.5,17.9-24.4,24.5-38.4,28.2
		c5.9-8.4,15.2-17.1,15.3-19.5c0.1-3.7,1.5-20.4-0.6-42.7C855.5,560.5,860.8,556.1,870.4,553.3z"/>
	<path class="st19" d="M1001.3,353l10,17.1c15.2,26,3.6,59.5-24.5,70.4c-0.2,0.1-0.3,0.1-0.4,0.2c-14.7,5.7-99,25.6-100.9,27.5
		c-1.4,1.4-8.1,61.6-10,94.4c-8.5,3.7-24.2,4.2-32.8,3c-4.2-45.7-1.9-119.7,1.7-128.4C850.1,423,1001.3,353,1001.3,353z"/>
	<path class="st3" d="M866.2,587c2.2-2.5,10.5,11.2,12.5,14.1c2.3,3.3,1.7,5.7,1.4,6.3c-0.7,1.4-44.2,26.9-54.8,28.7
		c-1,0.2-2.7-0.5-3.2-0.8c-4.1-3.7,14.9-30.7,23.5-34.3C851.1,598.6,856.1,598.1,866.2,587z"/>
	<path class="st3" d="M794.6,554c2.7-2,8.2,12.9,9.7,16.2c1.7,3.7,0.6,6,0.2,6.4c-1,1.2-48.5,18.2-59.2,18c-1,0-2.6-1-3-1.4
		c-3.4-4.4,20.4-27.4,29.5-29.3C777.6,562.6,782.6,563,794.6,554z"/>
	<path class="st5" d="M970.8,239.8L970.8,239.8L970.8,239.8c-0.5,0-1.2-0.2-1.9-0.4c-3.5-0.6-11.3-1.6-17.3,1
		c-7.3,3.1-18.7,32-18,61.7c0.3,4.5,0.5,8.6,0.8,11.4c1.9,22.4,8.3,64.5,8.6,64.7c8.7,5.6,61.5-16.2,65.1-21
		c3.6-4.8,5.8-63,7.5-65.9l3.5-50.7C1013,238.8,980.2,239.8,970.8,239.8z"/>
	<path class="st20" d="M1044.1,429.7c0.7,0,59.5-3,59.5-3s-24.4,17.5-24.9,17.5s-19.4-7.5-20.3-7.5S1044.1,429.7,1044.1,429.7z"/>
	<path class="st1" d="M2235.5,1760.3c0,0,1.2,20.6,1.2,20.7c0.4,2.6,2.1,9.1,2.1,11.5c0,9-39.7-7.6-30.8-11.6c0.8-0.4,5-3.1,5.3-6.1
		c0.4-4.7,1.4-14.2,1.4-14.2L2235.5,1760.3z"/>
	<path class="st9" d="M2207.6,1781c0,0,9.3,2.7,14.1,3.4c4.8,0.7,11.1-5.1,14.4-3.5c3.7,1.7,3.6,17.1,3.6,17.1s-50,4.4-64.1-0.2
		C2170.1,1796.1,2188.6,1787.4,2207.6,1781z"/>
	<path class="st1" d="M2301.7,1759.3c0,0,1.2,20.6,1.2,20.7c0.4,2.6,2.1,9.1,2.1,11.5c0,9-39.7-7.6-30.8-11.6
		c0.8-0.4,6.3-5.1,6.5-8.1c0.4-4.7,0.2-12.2,0.2-12.2L2301.7,1759.3z"/>
	<path class="st9" d="M2274.2,1779.8c0,0,9.3,2.7,14.1,3.4c4.8,0.7,11.1-5.1,14.4-3.5c3.7,1.7,3.9,17.1,3.9,17.1s-49.6,2-64.3-0.2
		C2236.5,1795.8,2255.2,1786.1,2274.2,1779.8z"/>
	<path class="st7" d="M2289.9,1431.4c0,0,6.7,34.8,4,61.2c-2.7,26.4-3,120.2-3,120.2l12.6,150l-27,0.6c0,0-29.4-150-28.9-146.1
		c0.5,3.9-9.9-105.6-9.9-105.6l35.1-83.6L2289.9,1431.4z"/>
	<path class="st13" d="M2280.5,1408.9c0,0,30.5,32.1,19.1,67.2c-4.6,14.1-47,148.7-47.6,159.7c-0.5,11-14.4,132.6-14.4,132.6
		l-28.9-0.9l-6.2-135.2l8.3-182.1l17.5-30.7L2280.5,1408.9z"/>
	<path class="st2" d="M2095.4,1304.4c10-11.1,31.7-27,31.7-27s12.9-11.1,18.2-12.9c7.8-2.7,21.1-9.8,40.3,19.3
		c13.8,20.9,100.7,128.9,114.9,132.6l-93.1,44.6c-2.6-21.3-48.6-61.5-55.2-69C2137.4,1375.2,2085.9,1314.9,2095.4,1304.4z"/>
	<path class="st1" d="M2099.7,1259.1l29,17c0,0,0.8,24.8-8.7,31.2c-8,5.4-14-7.6-14-7.6s-10.8-15-19-19.6
		C2078.9,1275.5,2099.7,1259.1,2099.7,1259.1z"/>
	<path class="st2" d="M2104.6,1270c-1.1,5.2-3.6,12.6-7.5,18.8c-3.2-3.5-6.8-6.9-10-8.7c-3.8-2.1-1.4-6.8,2.3-11.2
		c5.2-5.4,10.3-9.9,10.3-9.9l5.6,3.3C2105.7,1264.5,2104.9,1268.3,2104.6,1270z"/>
	<path class="st1" d="M2084.6,1216.6c0.5-0.6,24.3,29.1,21.4,43c-2.9,13.9-17.4,26.6-27.4,23.1c-11.1-3.9-31.7-38.8-24.3-55.8
		S2084.6,1216.6,2084.6,1216.6z"/>
	<path class="st3" d="M2058.5,1207.2c10.4-5.8,27.4-7.4,40-0.8c15.6,8.2,19.1,28.7,14.3,41.2c-4.9,12.5,0.7,19.6,0.7,19.6l-8.3-4.8
		c0,0-4.8-7.5-5.5-13.5c-0.6-6-9.4-4.9-13.7-7.7c-3.3-2.1-7.5-8.9-12.8-12.4c0,0-13.4-1.6-20,2.1
		C2042,1237.1,2043.6,1215.5,2058.5,1207.2z"/>
	<path class="st1" d="M2092.8,1246.2c-0.1,4.5,2,8.1,4.7,8.1s4.9-3.5,5-8c0.1-4.5-2-8.1-4.7-8.1S2092.9,1241.7,2092.8,1246.2z"/>
	<path class="st4" d="M2068.4,1269.8l12.6-9.4c0,0,3.3,5.1-2.1,9.4C2072.3,1275,2068.4,1269.8,2068.4,1269.8z"/>
	<path class="st6" d="M2036.6,1457.6c3.2-4.6,4.5-11.3,8.9-16.4c1.5-1.7,3.8-3.6,6.5-5.6c21-12.3,75.8-44,78-46.5
		c2.5-2.9,39.9-65.1,39.9-65.1l-33.6-7.6l-32.8,58c-2.7,2.2-54.9,40.7-54.9,40.7s-10.4,8.1-16,11.9c-2.9,1.7-5.6,2.8-8.1,3.6
		c-3.1,1.1-8.9,4-10.1,5c-1.4,1.2-4.1,3.8-5.7,5.4c-1.6,1.6-3.6,3.3-4.4,4.3c-0.5,0.6-1.9,1.4-3,1.9c-1.6,0.8-1.4,3.1,0.3,3.6
		c1.6,0.5,3.8-0.5,5.1-1.2c3.8-1.8,8.4-6.6,8.6-6s-4.4,10.8-4.9,12c-0.5,1.2-5.8,13.2-6.1,15.8c-0.3,2.7,1.3,3.3,2.5,2.3
		c1-0.8,9.7-16.8,9.7-16.8s1.1-2,1.5-0.9c0.4,1.2-7.4,15.7-8.2,18c-0.8,2.4-0.2,4.3,2,3.5c2.7-1,10.1-17,10.1-17s1-2,1.6-1.3
		c0.7,0.7-6.2,12.9-6.3,14.3c-0.1,1.4,1.2,2.8,3,1.6c2.2-1.4,8.7-15.7,8.7-15.7s0.8-0.9,1.1-0.3c0.3,0.7-4.9,11.5-4.5,13.1
		c0.3,1.3,1.5,1.1,1.5,1.1C2030,1473.5,2033.5,1462.2,2036.6,1457.6z"/>
	<path class="st7" d="M2160.7,1356.9c0,0-10.9-3.5-18-6.7c-4.7-2.2-25.2-12.4-25.2-12.4s8.8-37.3,14.8-50.7
		c21.9-49.2,46.8-15.3,50.2-7.4C2190.2,1297.5,2160.7,1356.9,2160.7,1356.9z"/>
	<path class="st4" d="M1396.6,1228.1l10.4-7.8c0,0,2.8,4.2-1.7,7.8C1399.8,1232.4,1396.6,1228.1,1396.6,1228.1z"/>
	<path class="st1" d="M1104.9,426.6c-0.2-0.6-0.8-0.6-1.4-0.7c-5.5-0.2-10.9-0.4-16.3-1.2c-0.9-0.1-1.8-0.3-2.6-0.7
		c-1.5-0.6-3-0.6-4.5-0.2c-0.8,0.2-1.7,0.3-2.5,0.3c-2.7,0-10.6-2.7-14.6-3.4c-0.9-0.2-1.6-0.9-1.9-1.8c-4-15.7-12.5-50.8-13.6-62.3
		c-1.4-14.8-11.6-81.4-11.6-81.4l-27.3,7.6c0,0,11.2,49.2,14.3,73c2.4,18.4,20.8,57.5,26.6,68.7c2.8,8.4,9.1,8.6,10.6,8.8
		c0.8,0.1,1.6,0.5,2.2,1.2c1,1.2,2.1,2.2,3.4,3c1,0.6,1.7,1.4,2.4,2.3c1.2,1.7,2.2,3.5,3.2,5.2c0.7,1.2,1.4,1.5,2.4,1.3
		c1.1-0.3,1.6-1.1,1.6-2.4c0-1.9-0.7-3.7-1.6-5.4c-0.9-1.6-0.9-2.5,0.2-3.9c0.6-0.8,1.2-1.6,2.1-2.3c0.8-0.7,1.7-1.2,2.8-1
		c2,0.5,3.9,0.9,6,1.1l1.7,0.3c0.1,0,0.9,0.2,0.9,0.2c0.1,0,3,0.4,4,0.4c0.8,0,2.1,0.1,3.2,0.1c1,0,3.1-0.5,3.2-0.5
		c1,0,1.8-0.4,2.5-1c0.3-0.3,0.6-0.6,0.4-1c-0.1-0.4-0.5-0.6-0.9-0.7c-0.7-0.1-4-0.5-4-0.7c1,0,4.2-0.1,5.2-0.1
		c1.4,0,2.5-0.5,3.5-1.5C1104.8,427.6,1105.2,427.2,1104.9,426.6z"/>
	<path class="st1" d="M693.6,1324c0.9-2.6-11.5-4.6-12.2-7.2c-0.7-2.6,15.7-2.8,16.3-5.1c1.1-4.2-17.9-0.9-17.5-2.8
		c0.4-2,19.8-6.3,17.7-9.7s-19.7,6.6-20.2,4.4c-0.5-2.3,17.2-7.8,16.9-12.8c-0.2-2.7-29.1,13.3-32.4,11.9c-3.4-1.5,3.6-14,0.9-15.9
		c-2.7-1.9-10.3,25.5-12.2,26.4c-1.8,0.9-40.9,23.2-54.8,26.7c-1.7-4.7-5.3-10.9-6.8-15.3c-7.8,5.5-13.6,8.3-21.6,13.4
		c5.8,14.6,14.1,30.6,18.2,32.4c12.4,5.6,60.2-34.1,69.7-40.8c9.6-6.8,15-4.6,21.5-6.7C683.5,1320.7,692.7,1326.6,693.6,1324z"/>
	<path class="st9" d="M566,1345c0,0-10.7-47.3-8.8-61c1.9-13.7,18.1-26.5,29.4-21.7c11.3,4.7,16.4,70.7,16.4,70.7L566,1345z"/>
	<g>
		<path class="st11" d="M1184.6,1385.3c15.3,0,29.6,4,42,11.1c1.6,0.9,3.3,1.7,5.1,2.4c37.8,15.5,79.2-13.2,79.2-54.1v-201.2h-201.2
			c-40.9,0-69.7-41.4-54.1-79.2c0.7-1.8,1.6-3.5,2.4-5.1c7-12.4,11.1-26.8,11.1-42c0-48.5-40.4-87.5-89.4-85.2
			c-44.3,2.1-80,38.4-81.2,82.8c-0.4,15.8,3.4,30.6,10.5,43.4c0.9,1.6,1.7,3.3,2.4,5.2c15.4,38.5-13.8,80.2-55.3,80.2H656.8v458.4
			c0,108.1,87.7,195.8,195.8,195.8h458.4v-200.5c0-41.1-41.5-70.1-79.6-54.6c-1.8,0.7-3.5,1.5-5.1,2.4
			c-13.6,7.6-29.4,11.6-46.3,10.7c-43.4-2.3-78.5-37.6-80.6-81C1097.1,1425.8,1136.1,1385.3,1184.6,1385.3z"/>
		<polygon class="st11" points="904.4,1855.4 796,1773.9 1004.2,1763.6 		"/>
	</g>
</g>
<path class="st21" d="M818,1979l311.5-19.1c144.5,27.1,292.5,25.3,436.4-5.3l383.1,22.9c15.6,0.9,31.2-0.1,46.5-3
	c82.5-15.7,293-53.3,324.5-96.6c156.8-215,142.5-784.7,25.6-861.8c-144.5-95.3,84.9-424.9-137.6-531.9
	c-145.3-69.9-376.4,6.3-345.3-180.6C1905.8,44.5,1402-21.9,1030.8,48C629.5,123.5,954.3,414.2,513,489
	c-226.9,38.5-141.4,448.2-120.2,516.3c18.4,59.2,140.3,153.2-29.1,282.6C170.8,1435.2,402.2,1793.2,559,1911
	C606.9,1947,760.6,1968.2,818,1979z"/>
</svg>
