<?xml version="1.0" encoding="utf-8"?>
<!-- Generator: Adobe Illustrator 22.1.0, SVG Export Plug-In . SVG Version: 6.00 Build 0)  -->
<svg version="1.1" id="Livello_1" xmlns="http://www.w3.org/2000/svg" xmlns:xlink="http://www.w3.org/1999/xlink" x="0px" y="0px"
	 viewBox="0 0 510.2 78" style="enable-background:new 0 0 510.2 78;" xml:space="preserve">
<style type="text/css">
	.st0{display:none;}
	.st1{display:inline;fill:#FFFFFF;}
	.st2{display:inline;fill:none;}
	.st3{display:inline;stroke:#FFFFFF;stroke-miterlimit:10;}
	.st4{fill:#3A3A3C;}
	.st5{fill:#F4816F;}
	.st6{fill:none;}
</style>
<g id="Livello_1_1_" class="st0">
	<title>tiledesk-logo-white</title>
	<path class="st1" d="M135.6,31.7h11.2V14.4h7.1v17.4H165v6.6h-11.1v38.1h-7.1V38.3h-11.2V31.7z"/>
	<path class="st1" d="M183.1,19.5c0,2.5-2,4.5-4.5,4.5s-4.5-2-4.5-4.5c0-1.2,0.5-2.4,1.3-3.2c1.8-1.8,4.6-1.8,6.4,0
		C182.6,17.1,183.1,18.3,183.1,19.5z M175.1,76.5V31.7h7.1v44.7L175.1,76.5z"/>
	<path class="st1" d="M197.9,76.5V0.2h7.1v76.2h-7.1V76.5z"/>
	<path class="st1" d="M263.9,56.8h-39.3c0.6,3.7,2.6,7.1,5.6,9.5c5,4.2,12,5,17.7,2c2.3-1.2,4.3-2.8,5.8-4.9h8.1
		c-1.8,4.1-4.8,7.7-8.6,10.1c-3.5,2.4-7.5,3.6-11.7,3.7c-3.5,0.1-6.9-0.5-10.2-1.8c-2.8-1.2-5.3-2.9-7.4-5c-4.5-4.3-7-10.3-6.9-16.5
		c-0.1-6.2,2.4-12.2,6.9-16.5c4.3-4.5,10.3-6.9,16.5-6.9c6.1-0.1,12,2.3,16.3,6.6c4.5,4.1,7.1,9.9,7.1,16L263.9,56.8z M250.7,41.3
		c-2.8-2.4-6.4-3.7-10.1-3.7c-5.8,0-10.4,2.6-13.7,7.9c-1,1.6-1.7,3.4-2.1,5.2h31.7C255.6,47,253.6,43.7,250.7,41.3z"/>
	<path class="st1" d="M311.2,76.5v-7.6c-0.4,0.5-0.8,1-1.3,1.5c-7.5,8.6-20.5,9.5-29.2,2c-0.7-0.6-1.4-1.3-2-2
		c-4-4.4-6.2-10.3-6.1-16.3c-0.1-6,2.1-11.8,6.1-16.3c7.5-8.6,20.5-9.5,29.2-2c0.7,0.6,1.4,1.3,2,2c0.5,0.5,0.9,1,1.3,1.5V0.2h7.1
		v76.2h-7.1V76.5z M306.7,42.7c-5.8-6.2-15.5-6.5-21.7-0.8c-0.3,0.2-0.5,0.5-0.8,0.8c-6,6.4-6,16.4,0,22.8
		c5.8,6.2,15.5,6.5,21.7,0.8c0.3-0.2,0.5-0.5,0.8-0.8C312.7,59.1,312.7,49.1,306.7,42.7z"/>
	<path class="st1" d="M377.2,56.8h-39.3c0.6,3.7,2.6,7.1,5.6,9.5c5,4.2,12,5,17.7,2c2.3-1.2,4.3-2.9,5.9-5h8.1
		c-1.8,4.1-4.8,7.7-8.6,10.1c-3.4,2.4-7.5,3.6-11.7,3.7c-3.5,0.1-6.9-0.5-10.2-1.8c-2.8-1.2-5.3-2.9-7.4-5c-4.5-4.3-7-10.3-6.9-16.5
		c-0.1-6.2,2.4-12.2,6.9-16.5c4.3-4.5,10.3-6.9,16.5-6.9c6.1-0.1,12,2.3,16.3,6.6c4.5,4.1,7.1,9.9,7.1,16V56.8z M364,41.3
		c-2.8-2.4-6.4-3.7-10.1-3.7c-5.8,0-10.4,2.6-13.7,7.9c-1,1.6-1.7,3.4-2.1,5.2h31.7C369,47,366.9,43.7,364,41.3z"/>
	<path class="st1" d="M402.3,71.9c6.5,0,9.8-2.4,9.8-7.3c0-2.8-2.3-5-7-6.5c-2-0.7-4.1-1.2-6.4-1.8c-2.2-0.5-4.3-1.3-6.4-2.2
		s-3.8-2.2-5.2-4c-1.2-1.7-1.8-3.7-1.7-5.8c0-4.4,1.6-7.8,4.7-10.1c3.3-2.3,7.2-3.5,11.2-3.4c3.8-0.1,7.5,0.8,10.8,2.6
		c2.9,1.8,4.8,4.9,5.7,9.4h-7.6c-0.7-2.5-1.9-4.2-3.5-5c-1.7-0.9-3.7-1.3-5.6-1.2c-2-0.1-4,0.4-5.7,1.5c-1.6,0.9-2.5,2.6-2.4,4.5
		c-0.1,1.7,0.6,3.4,2,4.4c1.5,1,3.2,1.8,4.9,2.3c2,0.6,4.1,1.2,6.3,1.7c2.2,0.5,4.4,1.2,6.4,2.2c4.6,2.2,6.9,5.7,6.9,10.5
		s-1.7,8.4-5.2,10.7c-1.8,1.2-3.7,2-5.7,2.6c-2.2,0.6-4.5,0.9-6.8,0.9c-10.3,0-16.2-4.6-17.8-13.8h7.5c0.8,2.9,2,4.9,3.8,6.1
		C397.5,71.4,399.9,72,402.3,71.9z"/>
	<path class="st1" d="M429.8,76.5V0.2h7.1v51.5l16.4-20.1h9.5l-18.4,21.7L464,76.4h-9.5L436.9,55v21.4L429.8,76.5L429.8,76.5z"/>
	<polygon class="st1" points="85.1,0.2 46.3,0.2 46.3,77.8 123.8,77.8 123.8,39 85.1,39 	"/>
	<rect x="46.1" y="0" class="st2" width="418" height="78"/>
	<rect x="-30.8" y="-33.8" class="st3" width="606.7" height="169"/>
</g>
<title>tiledesk-logo-white</title>
<path class="st4" d="M93.8,31.7H105V14.4h7.1v17.4h11.1v6.6h-11.1v38.1H105V38.3H93.8V31.7z"/>
<path class="st4" d="M141.3,19.5c0,2.5-2,4.5-4.5,4.5s-4.5-2-4.5-4.5c0-1.2,0.5-2.4,1.3-3.2c1.8-1.8,4.6-1.8,6.4,0
	C140.8,17.1,141.3,18.3,141.3,19.5z M133.3,76.5V31.7h7.1v44.7L133.3,76.5z"/>
<path class="st4" d="M156.1,76.5V0.2h7.1v76.2h-7.1V76.5z"/>
<path class="st4" d="M222.1,56.8h-39.3c0.6,3.7,2.6,7.1,5.6,9.5c5,4.2,12,5,17.7,2c2.3-1.2,4.3-2.8,5.8-4.9h8.1
	c-1.8,4.1-4.8,7.7-8.6,10.1c-3.5,2.4-7.5,3.6-11.7,3.7c-3.5,0.1-6.9-0.5-10.2-1.8c-2.8-1.2-5.3-2.9-7.4-5c-4.5-4.3-7-10.3-6.9-16.5
	c-0.1-6.2,2.4-12.2,6.9-16.5c4.3-4.5,10.3-6.9,16.5-6.9c6.1-0.1,12,2.3,16.3,6.6c4.5,4.1,7.1,9.9,7.1,16L222.1,56.8z M208.9,41.3
	c-2.8-2.4-6.4-3.7-10.1-3.7c-5.8,0-10.4,2.6-13.7,7.9c-1,1.6-1.7,3.4-2.1,5.2h31.7C213.8,47,211.8,43.7,208.9,41.3z"/>
<path class="st4" d="M269.4,76.5v-7.6c-0.4,0.5-0.8,1-1.3,1.5c-7.5,8.6-20.5,9.5-29.2,2c-0.7-0.6-1.4-1.3-2-2
	c-4-4.4-6.2-10.3-6.1-16.3c-0.1-6,2.1-11.8,6.1-16.3c7.5-8.6,20.5-9.5,29.2-2c0.7,0.6,1.4,1.3,2,2c0.5,0.5,0.9,1,1.3,1.5V0.2h7.1
	v76.2h-7.1V76.5z M264.9,42.7c-5.8-6.2-15.5-6.5-21.7-0.8c-0.3,0.2-0.5,0.5-0.8,0.8c-6,6.4-6,16.4,0,22.8c5.8,6.2,15.5,6.5,21.7,0.8
	c0.3-0.2,0.5-0.5,0.8-0.8C270.9,59.1,270.9,49.1,264.9,42.7z"/>
<path class="st4" d="M335.4,56.8h-39.3c0.6,3.7,2.6,7.1,5.6,9.5c5,4.2,12,5,17.7,2c2.3-1.2,4.3-2.9,5.9-5h8.1
	c-1.8,4.1-4.8,7.7-8.6,10.1c-3.4,2.4-7.5,3.6-11.7,3.7c-3.5,0.1-6.9-0.5-10.2-1.8c-2.8-1.2-5.3-2.9-7.4-5c-4.5-4.3-7-10.3-6.9-16.5
	c-0.1-6.2,2.4-12.2,6.9-16.5c4.3-4.5,10.3-6.9,16.5-6.9c6.1-0.1,12,2.3,16.3,6.6c4.5,4.1,7.1,9.9,7.1,16V56.8z M322.2,41.3
	c-2.8-2.4-6.4-3.7-10.1-3.7c-5.8,0-10.4,2.6-13.7,7.9c-1,1.6-1.7,3.4-2.1,5.2H328C327.2,47,325.1,43.7,322.2,41.3z"/>
<path class="st4" d="M360.5,71.9c6.5,0,9.8-2.4,9.8-7.3c0-2.8-2.3-5-7-6.5c-2-0.7-4.1-1.2-6.4-1.8c-2.2-0.5-4.3-1.3-6.4-2.2
	s-3.8-2.2-5.2-4c-1.2-1.7-1.8-3.7-1.7-5.8c0-4.4,1.6-7.8,4.7-10.1c3.3-2.3,7.2-3.5,11.2-3.4c3.8-0.1,7.5,0.8,10.8,2.6
	c2.9,1.8,4.8,4.9,5.7,9.4h-7.6c-0.7-2.5-1.9-4.2-3.5-5c-1.7-0.9-3.7-1.3-5.6-1.2c-2-0.1-4,0.4-5.7,1.5c-1.6,0.9-2.5,2.6-2.4,4.5
	c-0.1,1.7,0.6,3.4,2,4.4c1.5,1,3.2,1.8,4.9,2.3c2,0.6,4.1,1.2,6.3,1.7c2.2,0.5,4.4,1.2,6.4,2.2c4.6,2.2,6.9,5.7,6.9,10.5
	s-1.7,8.4-5.2,10.7c-1.8,1.2-3.7,2-5.7,2.6c-2.2,0.6-4.5,0.9-6.8,0.9c-10.3,0-16.2-4.6-17.8-13.8h7.5c0.8,2.9,2,4.9,3.8,6.1
	C355.7,71.4,358.1,72,360.5,71.9z"/>
<path class="st4" d="M388,76.5V0.2h7.1v51.5l16.4-20.1h9.5l-18.4,21.7l19.6,23.1h-9.5L395.1,55v21.4L388,76.5L388,76.5z"/>
<polygon class="st5" points="43.3,0.2 4.5,0.2 4.5,77.8 82,77.8 82,39 43.3,39 "/>
<rect x="4.3" y="0" class="st6" width="418" height="78"/>
<g>
	<path class="st5" d="M441.5,52c0.1-7.2,6.7-10.2,12.8-10.2c6.5,0.1,13.6,2.9,13.6,11c-0.1,8.6-6.4,10.2-13.4,10.2
		c-2.8,0-7.1,0.6-7.2,4.3v2.9l20.5,0.3v6l-26.7-0.3c0-3,0-5.9,0.1-8.9c0.1-7.7,7-10,13.5-10c2.5,0,7.1-0.3,7.1-4.3
		c0-3.7-3.2-5.4-7.4-5.4c-3.2,0-6.5,1.6-6.7,4.7L441.5,52z"/>
	<path class="st5" d="M477,56.5c0-20.2,28.9-20.2,28.9,0v4.9c0,20.2-28.9,20.2-28.9,0L477,56.5L477,56.5z M483.1,61.4
		c0,12.3,16.6,12.3,16.6,0v-4.9c0-12.2-16.6-12.3-16.6,0V61.4z"/>
	<ellipse class="st5" cx="474.3" cy="73.9" rx="2.5" ry="2.6"/>
</g>
</svg>
