<?xml version="1.0" encoding="utf-8"?>
<!-- Generator: Adobe Illustrator 22.1.0, SVG Export Plug-In . SVG Version: 6.00 Build 0)  -->
<svg version="1.1" id="Livello_1" xmlns="http://www.w3.org/2000/svg" xmlns:xlink="http://www.w3.org/1999/xlink" x="0px" y="0px"
	 viewBox="0 0 62.4 62.4" style="enable-background:new 0 0 62.4 62.4;" xml:space="preserve">
<style type="text/css">
	.st0{fill:#FFFFFF;}
</style>
<g>
	<path class="st0" d="M53.5,28.4H34.2c-1.7,0-3-1.4-3-3V6.1c0-1.7-1.4-3-3-3H8.9c-1.7,0-3,1.4-3,3v22.3v22.3c0,1.7,1.4,3,3,3H7.5H11
		c0.7,0,1.4,0.3,1.9,0.8l2.2,2.2l2.1,2.1c0.7,0.7,1.8,0.7,2.5,0l2.1-2.1l2.2-2.2c0.5-0.5,1.2-0.8,1.9-0.8h27.6c1.7,0,3-1.4,3-3V31.4
		C56.5,29.7,55.2,28.4,53.5,28.4"/>
	<path class="st0" d="M54.7,24.3H37.1c-1,0-1.8-0.8-1.8-1.8V4.9c0-1,0.8-1.8,1.8-1.8h17.6c1,0,1.8,0.8,1.8,1.8v17.6
		C56.5,23.5,55.7,24.3,54.7,24.3"/>
</g>
</svg>
