<?xml version="1.0" encoding="utf-8"?>
<!-- Generator: Adobe Illustrator 22.1.0, SVG Export Plug-In . SVG Version: 6.00 Build 0)  -->
<svg version="1.1" id="Livello_1" xmlns="http://www.w3.org/2000/svg" xmlns:xlink="http://www.w3.org/1999/xlink" x="0px" y="0px"
	 viewBox="0 0 412 132" style="enable-background:new 0 0 412 132;" xml:space="preserve">
<style type="text/css">
	.st0{fill:#F28779;}
	.st1{fill:#F6B0A1;}
	.st2{fill:#454848;}
</style>
<title>tiledesk-logo</title>
<g>
	<path class="st0" d="M85.8,61.7H56.5c-2.6,0-4.6-2.1-4.6-4.6V27.8c0-2.6-2.1-4.6-4.6-4.6H17.9c-2.6,0-4.6,2.1-4.6,4.6v33.9v33.9
		c0,2.6,2.1,4.6,4.6,4.6h-2h5.3c1.1,0,2.1,0.4,2.8,1.2l3.4,3.4l3.2,3.2c1,1,2.7,1,3.7,0l3.2-3.2l3.4-3.4c0.8-0.8,1.8-1.2,2.8-1.2h42
		c2.6,0,4.6-2.1,4.6-4.6V66.4C90.4,63.8,88.4,61.7,85.8,61.7"/>
	<path class="st1" d="M87.6,55.5H60.9c-1.5,0-2.8-1.3-2.8-2.8V26c0-1.5,1.3-2.8,2.8-2.8h26.8c1.5,0,2.8,1.3,2.8,2.8v26.8
		C90.4,54.3,89.2,55.5,87.6,55.5"/>
	<path class="st2" d="M264.2,35.1H264c-1.3,0-2.3,1-2.3,2.3c0,0.1,0,9,0,15.5c-3.7-2.7-8.3-4.2-13.4-3.7c-9,0.9-16.3,8.1-17.3,17.1
		c-1.2,11.6,7.8,21.5,19.2,21.5c4.5,0,8.7-1.6,12-4.2c0.1,2.4,2.1,4.3,4.5,4.3c2.5,0,4.5-2,4.5-4.5V42.2
		C271.3,38.3,268.1,35.1,264.2,35.1 M253.6,79.8c-8.3,1.8-15.5-5.4-13.7-13.7c0.9-4.2,4.3-7.6,8.5-8.5c8.3-1.8,15.5,5.4,13.7,13.7
		C261.2,75.5,257.8,78.9,253.6,79.8"/>
	<path class="st2" d="M149.2,83.6l-1.4-3.7c-0.4-1.1-1.7-1.7-2.8-1.3c-4,1.3-7.5-0.5-7.2-5.4V60.8c0-0.8,0.7-1.5,1.5-1.5h5.7
		c1.3,0,2.3-1,2.3-2.3v-5.5c0-1.3-1-2.3-2.3-2.3h-5.7c-0.8,0-1.5-0.7-1.5-1.5V37.4c0-1.3-1-2.3-2.3-2.3c-4.9,0-8.9,4-8.9,8.9v3.7
		c0,0.8-0.7,1.5-1.5,1.5H123c-1.3,0-2.3,1-2.3,2.3V57c0,1.3,1,2.3,2.3,2.3h2.1c0.8,0,1.5,0.7,1.5,1.5v12.7
		c-0.1,9.9,5,14.3,14.3,14.4C143.5,87.7,150.3,87.6,149.2,83.6"/>
	<path class="st2" d="M170.3,85.1V37.9c0-1.6,1.3-2.8,2.8-2.8h5.4c1.6,0,2.8,1.3,2.8,2.8v47.2c0,1.6-1.3,2.8-2.8,2.8h-5.4
		C171.5,87.9,170.3,86.7,170.3,85.1"/>
	<path class="st2" d="M224,58.3c-7.1-12.5-28.2-12.2-35.1,0.3c-5.4,9.2-2.3,22.6,7.7,27.3c7.4,3.8,21.4,3.1,25.6-2
		c0.9-1.1,1.2-3.8-0.6-5.4c-2-1.8-6-0.4-7.8,0.2c-5,1.9-12.4,1.1-15.2-3.9c-0.5-0.9-1-2.8-0.3-2.8c0.9,0,24,0,24,0
		C226.1,71.9,227.5,64.9,224,58.3 M215,65.4c-2,0-17.3,0-17.4,0c-0.7,0,0-2,0.7-3.3c1.4-2.9,4.6-4.5,7.8-4.7c2-0.1,4.4,0.1,6.2,1.3
		C216.1,61.3,215.9,65.4,215,65.4"/>
	<path class="st2" d="M313.9,58.3c-7.1-12.5-28.2-12.2-35.1,0.3c-5.4,9.2-2.3,22.6,7.7,27.3c7.4,3.8,21.4,3.1,25.6-2
		c0.9-1.1,1.2-3.8-0.6-5.4c-2-1.8-6-0.4-7.8,0.2c-5,1.9-12.4,1.1-15.2-3.9c-0.5-0.9-1-2.8-0.3-2.8c0.9,0,24,0,24,0
		C316.1,71.9,317.4,64.9,313.9,58.3 M304.9,65.4c-2,0-17.3,0-17.4,0c-0.7,0,0-2,0.7-3.3c1.4-2.9,4.6-4.5,7.8-4.7
		c2-0.1,4.4,0.1,6.2,1.3C306,61.3,305.8,65.4,304.9,65.4"/>
	<path class="st2" d="M336.5,88.4c-5-0.2-10.3-1.6-14.5-3.8c-1.1-0.6-1.4-2-0.9-3.1l1.9-3.7c0.6-1.1,2-1.6,3.1-1
		c3.7,2.2,17.5,6.2,18.4,0.1c0-0.9-0.3-1.6-1.1-2.1c-2.1-1.2-5-1.5-7.7-2.2c-3.2-0.7-6.6-1.5-9.3-3.3c-5.1-2.9-5.4-10.8-1.7-15.1
		c3.8-4.3,9.6-5.4,15.8-5.1c2.6,0.1,5.4,0.6,8.1,1.4c3.6,1,5.2,5.1,3.5,8.4c-1.6,2.7-4.4-0.1-6.5-0.4c-3.2-1-8.5-1.5-10.9-0.2
		c-2.1,0.9-2.6,3.5-0.7,4.7c0.8,0.5,1.9,1,3.3,1.3c4.5,1,9.8,1.7,13.8,4.3c4.7,2.7,5.3,9.6,2.4,14C349.8,87.5,343.2,88.8,336.5,88.4
		"/>
	<path class="st2" d="M398.2,84.2L384.6,67c-0.5-0.6-0.5-1.5,0.1-2.1l11.1-11.3c1.4-1.5,0.4-3.9-1.6-3.9h-6.8
		c-0.6,0-1.2,0.2-1.6,0.6l-13.1,12.4c-0.9,0.9-2.5,0.2-2.5-1.1V42.7c0-4.2-3.4-7.6-7.6-7.6h-0.9c-0.9,0-1.6,0.7-1.6,1.6v49.6
		c0,0.9,0.7,1.6,1.6,1.6h6.2c1.3,0,2.3-1,2.3-2.3v-6.3c0-0.7,0.3-1.3,0.8-1.8l3.6-3.5c0.6-0.6,1.6-0.5,2.1,0.1
		c2.7,3.4,10.3,12.9,10.3,12.9c0.4,0.5,1.1,0.9,1.8,0.9h7.6C398.3,87.9,399.4,85.7,398.2,84.2"/>
	<path class="st2" d="M154.2,85.1V51.9c0-1.6,1.3-2.8,2.8-2.8h5.4c1.6,0,2.8,1.3,2.8,2.8v33.2c0,1.6-1.3,2.8-2.8,2.8h-5.4
		C155.5,87.9,154.2,86.7,154.2,85.1"/>
	<path class="st2" d="M165.2,40.7c-0.2,7.3-10.8,7.3-11,0C154.4,33.4,165.1,33.4,165.2,40.7"/>
</g>
</svg>
