<?xml version="1.0" encoding="utf-8"?>
<!-- Generator: Adobe Illustrator 22.1.0, SVG Export Plug-In . SVG Version: 6.00 Build 0)  -->
<svg version="1.1" id="Livello_1" xmlns="http://www.w3.org/2000/svg" xmlns:xlink="http://www.w3.org/1999/xlink" x="0px" y="0px"
	 viewBox="0 0 311.8 73.7" style="enable-background:new 0 0 311.8 73.7;" xml:space="preserve">
<style type="text/css">
	.st0{display:none;}
	.st1{display:inline;fill:#FFFFFF;}
	.st2{display:inline;fill:none;}
	.st3{display:inline;stroke:#FFFFFF;stroke-miterlimit:10;}
	.st4{fill:#F28779;}
	.st5{fill:#F6B0A1;}
	.st6{fill:#454848;}
	.st7{fill:#808184;}
</style>
<g id="Livello_1_1_" class="st0">
	<title>tiledesk-logo-white</title>
	<path class="st1" d="M36.4,29.6h11.2V12.3h7.1v17.4h11.1v6.6H54.7v38.1h-7.1V36.2H36.4V29.6L36.4,29.6z"/>
	<path class="st1" d="M83.9,17.4c0,2.5-2,4.5-4.5,4.5s-4.5-2-4.5-4.5c0-1.2,0.5-2.4,1.3-3.2c1.8-1.8,4.6-1.8,6.4,0
		C83.4,15,83.9,16.2,83.9,17.4z M75.9,74.4V29.6H83v44.7L75.9,74.4z"/>
	<path class="st1" d="M98.7,74.4V-1.9h7.1v76.2h-7.1V74.4z"/>
	<path class="st1" d="M164.7,54.7h-39.3c0.6,3.7,2.6,7.1,5.6,9.5c5,4.2,12,5,17.7,2c2.3-1.2,4.3-2.8,5.8-4.9h8.1
		c-1.8,4.1-4.8,7.7-8.6,10.1c-3.5,2.4-7.5,3.6-11.7,3.7c-3.5,0.1-6.9-0.5-10.2-1.8c-2.8-1.2-5.3-2.9-7.4-5c-4.5-4.3-7-10.3-6.9-16.5
		c-0.1-6.2,2.4-12.2,6.9-16.5c4.3-4.5,10.3-6.9,16.5-6.9c6.1-0.1,12,2.3,16.3,6.6c4.5,4.1,7.1,9.9,7.1,16L164.7,54.7z M151.5,39.2
		c-2.8-2.4-6.4-3.7-10.1-3.7c-5.8,0-10.4,2.6-13.7,7.9c-1,1.6-1.7,3.4-2.1,5.2h31.7C156.4,44.9,154.4,41.6,151.5,39.2z"/>
	<path class="st1" d="M212,74.4v-7.6c-0.4,0.5-0.8,1-1.3,1.5c-7.5,8.6-20.5,9.5-29.2,2c-0.7-0.6-1.4-1.3-2-2
		c-4-4.4-6.2-10.3-6.1-16.3c-0.1-6,2.1-11.8,6.1-16.3c7.5-8.6,20.5-9.5,29.2-2c0.7,0.6,1.4,1.3,2,2c0.5,0.5,0.9,1,1.3,1.5V-1.9h7.1
		v76.2H212V74.4z M207.5,40.6c-5.8-6.2-15.5-6.5-21.7-0.8c-0.3,0.2-0.5,0.5-0.8,0.8c-6,6.4-6,16.4,0,22.8c5.8,6.2,15.5,6.5,21.7,0.8
		c0.3-0.2,0.5-0.5,0.8-0.8C213.5,57,213.5,47,207.5,40.6z"/>
	<path class="st1" d="M278,54.7h-39.3c0.6,3.7,2.6,7.1,5.6,9.5c5,4.2,12,5,17.7,2c2.3-1.2,4.3-2.9,5.9-5h8.1
		c-1.8,4.1-4.8,7.7-8.6,10.1c-3.4,2.4-7.5,3.6-11.7,3.7c-3.5,0.1-6.9-0.5-10.2-1.8c-2.8-1.2-5.3-2.9-7.4-5c-4.5-4.3-7-10.3-6.9-16.5
		c-0.1-6.2,2.4-12.2,6.9-16.5c4.3-4.5,10.3-6.9,16.5-6.9c6.1-0.1,12,2.3,16.3,6.6c4.5,4.1,7.1,9.9,7.1,16V54.7z M264.8,39.2
		c-2.8-2.4-6.4-3.7-10.1-3.7c-5.8,0-10.4,2.6-13.7,7.9c-1,1.6-1.7,3.4-2.1,5.2h31.7C269.8,44.9,267.7,41.6,264.8,39.2z"/>
	<path class="st1" d="M303.1,69.8c6.5,0,9.8-2.4,9.8-7.3c0-2.8-2.3-5-7-6.5c-2-0.7-4.1-1.2-6.4-1.8c-2.2-0.5-4.3-1.3-6.4-2.2
		s-3.8-2.2-5.2-4c-1.2-1.7-1.8-3.7-1.7-5.8c0-4.4,1.6-7.8,4.7-10.1c3.3-2.3,7.2-3.5,11.2-3.4c3.8-0.1,7.5,0.8,10.8,2.6
		c2.9,1.8,4.8,4.9,5.7,9.4H311c-0.7-2.5-1.9-4.2-3.5-5c-1.7-0.9-3.7-1.3-5.6-1.2c-2-0.1-4,0.4-5.7,1.5c-1.6,0.9-2.5,2.6-2.4,4.5
		c-0.1,1.7,0.6,3.4,2,4.4c1.5,1,3.2,1.8,4.9,2.3c2,0.6,4.1,1.2,6.3,1.7c2.2,0.5,4.4,1.2,6.4,2.2c4.6,2.2,6.9,5.7,6.9,10.5
		s-1.7,8.4-5.2,10.7c-1.8,1.2-3.7,2-5.7,2.6c-2.2,0.6-4.5,0.9-6.8,0.9c-10.3,0-16.2-4.6-17.8-13.8h7.5c0.8,2.9,2,4.9,3.8,6.1
		C298.3,69.3,300.7,69.9,303.1,69.8z"/>
	<path class="st1" d="M330.6,74.4V-1.9h7.1v51.5l16.4-20.1h9.5l-18.4,21.7l19.6,23.1h-9.5l-17.6-21.4v21.4L330.6,74.4L330.6,74.4z"
		/>
	<polygon class="st1" points="-14.1,-1.9 -52.9,-1.9 -52.9,75.7 24.6,75.7 24.6,36.9 -14.1,36.9 	"/>
	<rect x="-53.1" y="-2.1" class="st2" width="418" height="78"/>
	<rect x="-130" y="-35.9" class="st3" width="606.7" height="169"/>
</g>
<title>tiledesk-logo-white</title>
<g>
	<path class="st4" d="M61.1,33.5H37.9c-2,0-3.7-1.6-3.7-3.7V6.7c0-2-1.6-3.7-3.7-3.7H7.5c-2,0-3.7,1.6-3.7,3.7v26.8v26.8
		c0,2,1.6,3.7,3.7,3.7H5.9h4.2c0.8,0,1.6,0.3,2.2,0.9l2.7,2.7l2.5,2.5c0.8,0.8,2.1,0.8,3,0l2.5-2.5l2.7-2.7c0.6-0.6,1.4-0.9,2.2-0.9
		h33.2c2,0,3.7-1.6,3.7-3.7V37.1C64.7,35.1,63.1,33.5,61.1,33.5"/>
	<path class="st5" d="M62.5,28.6H41.4c-1.2,0-2.2-1-2.2-2.2V5.3c0-1.2,1-2.2,2.2-2.2h21.1c1.2,0,2.2,1,2.2,2.2v21.1
		C64.7,27.6,63.7,28.6,62.5,28.6"/>
	<path class="st6" d="M201.8,3h-0.1c-1,0-1.8,0.8-1.8,1.8c0,0.1,0,7.1,0,12.2c-2.9-2.1-6.6-3.3-10.5-2.9
		c-7.1,0.7-12.9,6.4-13.7,13.5c-1,9.2,6.2,17,15.2,17c3.6,0,6.8-1.2,9.4-3.3c0.1,1.9,1.6,3.4,3.6,3.4c2,0,3.6-1.6,3.6-3.6V8.6
		C207.4,5.6,204.9,3,201.8,3 M193.5,38.3c-6.6,1.5-12.3-4.3-10.8-10.8c0.7-3.3,3.4-6,6.7-6.7c6.6-1.5,12.3,4.3,10.8,10.8
		C199.4,34.9,196.8,37.6,193.5,38.3"/>
	<path class="st6" d="M111.1,41.4l-1.1-2.9c-0.3-0.9-1.3-1.3-2.2-1c-3.2,1-5.9-0.4-5.7-4.3v-9.8c0-0.6,0.5-1.2,1.2-1.2h4.5
		c1,0,1.8-0.8,1.8-1.8V16c0-1-0.8-1.8-1.8-1.8h-4.5c-0.6,0-1.2-0.5-1.2-1.2V4.9c0-1-0.8-1.8-1.8-1.8c-3.9,0-7,3.1-7,7V13
		c0,0.6-0.5,1.2-1.2,1.2h-1.7c-1,0-1.8,0.8-1.8,1.8v4.4c0,1,0.8,1.8,1.8,1.8h1.7c0.6,0,1.2,0.5,1.2,1.2v10
		c-0.1,7.8,3.9,11.3,11.3,11.4C106.6,44.6,112,44.5,111.1,41.4"/>
	<path class="st6" d="M127.7,42.5V5.3c0-1.2,1-2.2,2.2-2.2h4.3c1.2,0,2.2,1,2.2,2.2v37.2c0,1.2-1,2.2-2.2,2.2h-4.3
		C128.7,44.8,127.7,43.7,127.7,42.5"/>
	<path class="st6" d="M170.1,21.4c-5.6-9.9-22.2-9.6-27.7,0.2c-4.3,7.2-1.8,17.9,6.1,21.6c5.8,3,16.9,2.5,20.2-1.6
		c0.7-0.8,1-3-0.5-4.3c-1.6-1.4-4.7-0.3-6.2,0.1c-4,1.5-9.8,0.8-12-3.1c-0.4-0.7-0.8-2.2-0.2-2.2c0.7,0,18.9,0,18.9,0
		C171.8,32.1,172.9,26.5,170.1,21.4 M163,27c-1.6,0-13.6,0-13.7,0c-0.5,0,0-1.6,0.5-2.6c1.1-2.3,3.6-3.6,6.1-3.7
		c1.6-0.1,3.5,0.1,4.9,1.1C163.9,23.8,163.7,27,163,27"/>
	<path class="st6" d="M241.1,21.4c-5.6-9.9-22.2-9.6-27.7,0.2c-4.3,7.2-1.8,17.9,6.1,21.6c5.8,3,16.9,2.5,20.2-1.6
		c0.7-0.8,1-3-0.5-4.3c-1.6-1.4-4.7-0.3-6.2,0.1c-4,1.5-9.8,0.8-12-3.1c-0.4-0.7-0.8-2.2-0.2-2.2c0.7,0,18.9,0,18.9,0
		C242.8,32.1,243.8,26.5,241.1,21.4 M234,27c-1.6,0-13.6,0-13.7,0c-0.5,0,0-1.6,0.5-2.6c1.1-2.3,3.6-3.6,6.1-3.7
		c1.6-0.1,3.5,0.1,4.9,1.1C234.8,23.8,234.7,27,234,27"/>
	<path class="st6" d="M258.9,45.1c-4-0.2-8.1-1.2-11.4-3c-0.9-0.5-1.1-1.6-0.7-2.4l1.5-2.9c0.5-0.9,1.5-1.2,2.4-0.8
		c2.9,1.7,13.8,4.9,14.5,0.1c0-0.7-0.3-1.3-0.9-1.7c-1.7-1-3.9-1.2-6.1-1.7c-2.5-0.5-5.2-1.2-7.4-2.6c-4-2.3-4.3-8.6-1.3-11.9
		c3-3.4,7.6-4.3,12.5-4c2,0.1,4.3,0.5,6.4,1.1c2.8,0.8,4.1,4.1,2.7,6.6c-1.3,2.1-3.5-0.1-5.1-0.3c-2.6-0.8-6.7-1.2-8.6-0.2
		c-1.6,0.7-2,2.8-0.5,3.7c0.7,0.4,1.5,0.8,2.6,1c3.5,0.8,7.7,1.3,10.9,3.4c3.7,2.2,4.2,7.6,1.9,11C269.4,44.4,264.2,45.4,258.9,45.1
		"/>
	<path class="st6" d="M307.6,41.8l-10.7-13.6c-0.4-0.5-0.4-1.2,0.1-1.7l8.8-8.9c1.1-1.1,0.3-3.1-1.3-3.1h-5.4
		c-0.5,0-0.9,0.2-1.2,0.5l-10.3,9.8c-0.7,0.7-2,0.2-2-0.8V9c0-3.3-2.7-6-6-6h-0.7c-0.7,0-1.3,0.6-1.3,1.3v39.2
		c0,0.7,0.6,1.3,1.3,1.3h4.9c1,0,1.8-0.8,1.8-1.8v-5c0-0.5,0.2-1.1,0.6-1.4l2.8-2.8c0.5-0.5,1.2-0.4,1.7,0.1
		c2.2,2.7,8.2,10.2,8.2,10.2c0.3,0.4,0.9,0.7,1.4,0.7h6C307.7,44.8,308.5,43,307.6,41.8"/>
	<path class="st6" d="M115.1,42.5V16.3c0-1.2,1-2.2,2.2-2.2h4.3c1.2,0,2.2,1,2.2,2.2v26.2c0,1.2-1,2.2-2.2,2.2h-4.3
		C116.1,44.8,115.1,43.7,115.1,42.5"/>
	<path class="st6" d="M123.7,7.4c-0.1,5.7-8.5,5.7-8.7,0C115.2,1.7,123.6,1.7,123.7,7.4"/>
	<path class="st7" d="M98.2,61.5l0.6,0.6c-1,1.2-2.6,1.9-4.3,1.9c-3.4,0-5.8-2.7-5.8-6.1c0-3.4,2.4-6.1,5.8-6.1
		c1.7,0,3.1,0.7,4.2,1.8l-0.6,0.6c-0.9-0.9-2.1-1.5-3.5-1.5c-2.9,0-4.9,2.3-4.9,5.2c0,2.9,2,5.2,4.9,5.2
		C96.1,63.2,97.4,62.5,98.2,61.5"/>
	<path class="st7" d="M107.4,56c1.4,0,2.9,0.9,2.9,3v4.9h-0.9v-4.7c0-1.6-0.9-2.2-2.2-2.2c-1.7,0-2.4,1.7-2.4,1.7v5.3h-0.9V51.2h0.9
		v6.3C104.9,57.5,105.7,56,107.4,56"/>
	<path class="st7" d="M122.1,58.9v5h-0.8v-1.3c0,0-1,1.5-2.9,1.5c-1.3,0-2.8-0.9-2.8-2.6c0-1.7,1.5-2.6,3-2.6c1.6,0,2.5,0.7,2.5,0.7
		v-0.6c0-1.9-1.4-2.2-2.2-2.2c-1.4,0-2.5,0.7-2.5,0.7l-0.4-0.8c0,0,1.3-0.8,2.9-0.8C121.1,56,122.1,57.3,122.1,58.9 M121.2,61.7
		v-1.3c0,0-0.9-0.6-2.4-0.6c-1,0-2.2,0.5-2.2,1.7c0,1.2,1.1,1.7,2.1,1.7C120.3,63.2,121.2,61.7,121.2,61.7"/>
	<path class="st7" d="M127.1,56.2h1.7v-2.5h0.9v2.5h2.6v0.8h-2.6v4.6c0,0.9,0.3,1.6,1.3,1.6c0.6,0,1.1-0.4,1.1-0.4l0.3,0.8
		c0,0-0.7,0.5-1.5,0.5c-1.5,0-2.2-1-2.2-2.3v-4.8h-1.7V56.2z"/>
	<path class="st7" d="M137.8,63.9V51.2h0.9v6.2c0.2-0.3,1-1.4,2.8-1.4c2.1,0,3.8,1.6,3.8,4s-1.7,4-3.8,4c-2,0-2.8-1.5-2.8-1.5v1.3
		H137.8z M138.6,61.6c0,0,0.8,1.6,2.7,1.6c1.7,0,2.9-1.4,2.9-3.2s-1.2-3.2-2.9-3.2c-2,0-2.7,1.6-2.7,1.6V61.6z"/>
	<path class="st7" d="M157.5,60.1c0,2.2-1.6,4-3.9,4c-2.3,0-3.9-1.8-3.9-4c0-2.2,1.6-4,3.9-4C155.9,56,157.5,57.9,157.5,60.1
		 M156.6,60.1c0-1.7-1.1-3.2-3-3.2s-3,1.4-3,3.2c0,1.7,1.1,3.2,3,3.2S156.6,61.8,156.6,60.1"/>
	<path class="st7" d="M161.9,56.2h1.7v-2.5h0.9v2.5h2.6v0.8h-2.6v4.6c0,0.9,0.3,1.6,1.3,1.6c0.6,0,1.1-0.4,1.1-0.4l0.3,0.8
		c0,0-0.7,0.5-1.5,0.5c-1.5,0-2.2-1-2.2-2.3v-4.8h-1.7V56.2z"/>
	<path class="st7" d="M172.4,61.9c0,0,0.8,1.4,2.6,1.4c0.8,0,2-0.3,2-1.3c0-0.9-0.9-1.1-2.1-1.4c-1.7-0.4-2.7-1-2.7-2.3
		c0-1.1,1-2.2,2.7-2.2c1.8,0,2.7,1.1,2.7,1.1l-0.6,0.6c0,0-0.8-0.9-2.2-0.9c-1,0-1.8,0.5-1.8,1.3c0,0.9,1,1.2,2.3,1.5
		c1.4,0.3,2.6,0.8,2.6,2.2c0,1.5-1.5,2.2-2.9,2.2c-2.3,0-3.3-1.6-3.3-1.6L172.4,61.9z"/>
	<path class="st7" d="M197,58.9v5h-0.8v-1.3c0,0-1,1.5-2.9,1.5c-1.3,0-2.8-0.9-2.8-2.6c0-1.7,1.5-2.6,3-2.6c1.6,0,2.5,0.7,2.5,0.7
		v-0.6c0-1.9-1.4-2.2-2.2-2.2c-1.4,0-2.5,0.7-2.5,0.7l-0.4-0.8c0,0,1.3-0.8,2.9-0.8C196,56,197,57.3,197,58.9 M196.1,61.7v-1.3
		c0,0-0.9-0.6-2.4-0.6c-1,0-2.2,0.5-2.2,1.7c0,1.2,1.1,1.7,2.1,1.7C195.2,63.2,196.1,61.7,196.1,61.7"/>
	<path class="st7" d="M209,59v4.9h-0.9v-4.7c0-1.6-0.9-2.2-2.2-2.2c-1.7,0-2.4,1.7-2.4,1.7v5.3h-0.9v-7.6h0.8v1.4
		c0,0,0.7-1.6,2.6-1.6C207.6,56,209,56.9,209,59"/>
	<path class="st7" d="M220.8,63.9v-1.4c0,0-0.9,1.6-2.8,1.6c-2.1,0-3.8-1.6-3.8-4s1.7-4,3.8-4c1.7,0,2.6,1.2,2.8,1.5v-6.3h0.9v12.6
		H220.8z M220.7,58.7c0,0-0.8-1.8-2.7-1.8c-1.7,0-2.9,1.4-2.9,3.2s1.2,3.2,2.9,3.2c1.9,0,2.7-1.8,2.7-1.8V58.7z"/>
	<polygon class="st7" points="243.4,52.2 244.2,52.2 244.2,63.9 243.4,63.9 243.4,58.3 236.6,58.3 236.6,63.9 235.7,63.9 
		235.7,52.2 236.6,52.2 236.6,57.5 243.4,57.5 	"/>
	<path class="st7" d="M250.2,61.1v-4.9h0.9V61c0,1.6,0.9,2.2,2.2,2.2c1.7,0,2.4-1.7,2.4-1.7v-5.3h0.9v7.6h-0.8v-1.4
		c0,0-0.7,1.6-2.6,1.6C251.6,64.1,250.2,63.2,250.2,61.1"/>
	<path class="st7" d="M267.9,63.9h-0.9v-4.7c0-1.6-0.7-2.2-1.9-2.2c-1.4,0-2.1,1.5-2.1,1.5v5.5h-0.9v-7.6h0.8v1.3
		c0,0,0.7-1.5,2.4-1.5c0.9,0,1.9,0.4,2.3,1.5c0.1-0.1,0.8-1.5,2.4-1.5c1.2,0,2.5,0.7,2.5,2.8v5h-0.9v-4.7c0-1.6-0.7-2.2-1.9-2.2
		c-1.4,0-2,1.5-2,1.5V63.9z"/>
	<path class="st7" d="M284.5,58.9v5h-0.8v-1.3c0,0-1,1.5-2.9,1.5c-1.3,0-2.8-0.9-2.8-2.6c0-1.7,1.5-2.6,3-2.6c1.6,0,2.5,0.7,2.5,0.7
		v-0.6c0-1.9-1.4-2.2-2.2-2.2c-1.4,0-2.5,0.7-2.5,0.7l-0.4-0.8c0,0,1.3-0.8,2.9-0.8C283.5,56,284.5,57.3,284.5,58.9 M283.6,61.7
		v-1.3c0,0-0.9-0.6-2.4-0.6c-1,0-2.2,0.5-2.2,1.7c0,1.2,1.1,1.7,2.1,1.7C282.7,63.2,283.6,61.7,283.6,61.7"/>
	<path class="st7" d="M296.5,59v4.9h-0.9v-4.7c0-1.6-0.9-2.2-2.2-2.2c-1.7,0-2.4,1.7-2.4,1.7v5.3h-0.9v-7.6h0.8v1.4
		c0,0,0.7-1.6,2.6-1.6C295,56,296.5,56.9,296.5,59"/>
	<path class="st7" d="M302.3,61.9c0,0,0.8,1.4,2.6,1.4c0.8,0,2-0.3,2-1.3c0-0.9-0.9-1.1-2.1-1.4c-1.7-0.4-2.7-1-2.7-2.3
		c0-1.1,1-2.2,2.7-2.2c1.8,0,2.7,1.1,2.7,1.1l-0.6,0.6c0,0-0.8-0.9-2.2-0.9c-1,0-1.8,0.5-1.8,1.3c0,0.9,1,1.2,2.3,1.5
		c1.4,0.3,2.6,0.8,2.6,2.2c0,1.5-1.5,2.2-2.9,2.2c-2.3,0-3.3-1.6-3.3-1.6L302.3,61.9z"/>
</g>
</svg>
