<?xml version="1.0" encoding="utf-8"?>
<!-- Generator: Adobe Illustrator 22.1.0, SVG Export Plug-In . SVG Version: 6.00 Build 0)  -->
<svg version="1.1" id="Livello_1" xmlns="http://www.w3.org/2000/svg" xmlns:xlink="http://www.w3.org/1999/xlink" x="0px" y="0px"
	 viewBox="0 0 374.2 90.7" style="enable-background:new 0 0 374.2 90.7;" xml:space="preserve">
<style type="text/css">
	.st0{display:none;}
	.st1{display:inline;fill:#FFFFFF;}
	.st2{display:inline;fill:none;}
	.st3{display:inline;stroke:#FFFFFF;stroke-miterlimit:10;}
	.st4{fill:#FCFCFC;}
	.st5{fill:#FFFFFF;}
</style>
<g id="Livello_1_1_" class="st0">
	<title>tiledesk-logo-white</title>
	<path class="st1" d="M67.6,38.1h11.2V20.8h7.1v17.4H97v6.6H85.9v38.1h-7.1V44.7H67.6V38.1z"/>
	<path class="st1" d="M115.1,25.9c0,2.5-2,4.5-4.5,4.5s-4.5-2-4.5-4.5c0-1.2,0.5-2.4,1.3-3.2c1.8-1.8,4.6-1.8,6.4,0
		C114.6,23.5,115.1,24.7,115.1,25.9z M107.1,82.9V38.1h7.1v44.7L107.1,82.9z"/>
	<path class="st1" d="M129.9,82.9V6.6h7.1v76.2h-7.1V82.9z"/>
	<path class="st1" d="M195.9,63.2h-39.3c0.6,3.7,2.6,7.1,5.6,9.5c5,4.2,12,5,17.7,2c2.3-1.2,4.3-2.8,5.8-4.9h8.1
		c-1.8,4.1-4.8,7.7-8.6,10.1c-3.5,2.4-7.5,3.6-11.7,3.7c-3.5,0.1-6.9-0.5-10.2-1.8c-2.8-1.2-5.3-2.9-7.4-5c-4.5-4.3-7-10.3-6.9-16.5
		c-0.1-6.2,2.4-12.2,6.9-16.5c4.3-4.5,10.3-6.9,16.5-6.9c6.1-0.1,12,2.3,16.3,6.6c4.5,4.1,7.1,9.9,7.1,16L195.9,63.2z M182.7,47.7
		c-2.8-2.4-6.4-3.7-10.1-3.7c-5.8,0-10.4,2.6-13.7,7.9c-1,1.6-1.7,3.4-2.1,5.2h31.7C187.6,53.4,185.6,50.1,182.7,47.7z"/>
	<path class="st1" d="M243.2,82.9v-7.6c-0.4,0.5-0.8,1-1.3,1.5c-7.5,8.6-20.5,9.5-29.2,2c-0.7-0.6-1.4-1.3-2-2
		c-4-4.4-6.2-10.3-6.1-16.3c-0.1-6,2.1-11.8,6.1-16.3c7.5-8.6,20.5-9.5,29.2-2c0.7,0.6,1.4,1.3,2,2c0.5,0.5,0.9,1,1.3,1.5V6.6h7.1
		v76.2h-7.1V82.9z M238.7,49.1c-5.8-6.2-15.5-6.5-21.7-0.8c-0.3,0.2-0.5,0.5-0.8,0.8c-6,6.4-6,16.4,0,22.8
		c5.8,6.2,15.5,6.5,21.7,0.8c0.3-0.2,0.5-0.5,0.8-0.8C244.7,65.5,244.7,55.5,238.7,49.1z"/>
	<path class="st1" d="M309.2,63.2h-39.3c0.6,3.7,2.6,7.1,5.6,9.5c5,4.2,12,5,17.7,2c2.3-1.2,4.3-2.9,5.9-5h8.1
		c-1.8,4.1-4.8,7.7-8.6,10.1c-3.4,2.4-7.5,3.6-11.7,3.7c-3.5,0.1-6.9-0.5-10.2-1.8c-2.8-1.2-5.3-2.9-7.4-5c-4.5-4.3-7-10.3-6.9-16.5
		c-0.1-6.2,2.4-12.2,6.9-16.5c4.3-4.5,10.3-6.9,16.5-6.9c6.1-0.1,12,2.3,16.3,6.6c4.5,4.1,7.1,9.9,7.1,16V63.2z M296,47.7
		c-2.8-2.4-6.4-3.7-10.1-3.7c-5.8,0-10.4,2.6-13.7,7.9c-1,1.6-1.7,3.4-2.1,5.2h31.7C301,53.4,298.9,50.1,296,47.7z"/>
	<path class="st1" d="M334.3,78.3c6.5,0,9.8-2.4,9.8-7.3c0-2.8-2.3-5-7-6.5c-2-0.7-4.1-1.2-6.4-1.8c-2.2-0.5-4.3-1.3-6.4-2.2
		s-3.8-2.2-5.2-4c-1.2-1.7-1.8-3.7-1.7-5.8c0-4.4,1.6-7.8,4.7-10.1c3.3-2.3,7.2-3.5,11.2-3.4c3.8-0.1,7.5,0.8,10.8,2.6
		c2.9,1.8,4.8,4.9,5.7,9.4h-7.6c-0.7-2.5-1.9-4.2-3.5-5c-1.7-0.9-3.7-1.3-5.6-1.2c-2-0.1-4,0.4-5.7,1.5c-1.6,0.9-2.5,2.6-2.4,4.5
		c-0.1,1.7,0.6,3.4,2,4.4c1.5,1,3.2,1.8,4.9,2.3c2,0.6,4.1,1.2,6.3,1.7c2.2,0.5,4.4,1.2,6.4,2.2c4.6,2.2,6.9,5.7,6.9,10.5
		c0,4.8-1.7,8.4-5.2,10.7c-1.8,1.2-3.7,2-5.7,2.6c-2.2,0.6-4.5,0.9-6.8,0.9c-10.3,0-16.2-4.6-17.8-13.8h7.5c0.8,2.9,2,4.9,3.8,6.1
		C329.5,77.8,331.9,78.4,334.3,78.3z"/>
	<path class="st1" d="M361.8,82.9V6.6h7.1v51.5L385.3,38h9.5l-18.4,21.7L396,82.8h-9.5l-17.6-21.4v21.4L361.8,82.9L361.8,82.9z"/>
	<polygon class="st1" points="17.1,6.6 -21.7,6.6 -21.7,84.2 55.8,84.2 55.8,45.4 17.1,45.4 	"/>
	<rect x="-21.9" y="6.4" class="st2" width="418" height="78"/>
	<rect x="-98.8" y="-27.4" class="st3" width="606.7" height="169"/>
</g>
<title>tiledesk-logo-white</title>
<g>
	<path class="st4" d="M73.3,41.3H45.5c-2.4,0-4.4-2-4.4-4.4V9.2c0-2.4-2-4.4-4.4-4.4H9c-2.4,0-4.4,2-4.4,4.4v32.1v32.1
		c0,2.4,2,4.4,4.4,4.4H7.1h5c1,0,2,0.4,2.7,1.1l3.2,3.2l3,3c1,1,2.6,1,3.5,0l3-3l3.2-3.2c0.7-0.7,1.7-1.1,2.7-1.1h39.8
		c2.4,0,4.4-2,4.4-4.4V45.7C77.6,43.3,75.7,41.3,73.3,41.3"/>
	<path class="st5" d="M75,35.4H49.7c-1.5,0-2.7-1.2-2.7-2.7V7.5c0-1.5,1.2-2.7,2.7-2.7H75c1.5,0,2.7,1.2,2.7,2.7v25.3
		C77.6,34.3,76.5,35.4,75,35.4"/>
	<path class="st5" d="M242.2,16.1H242c-1.2,0-2.2,1-2.2,2.2c0,0.1,0,8.5,0,14.6c-3.5-2.6-7.9-3.9-12.6-3.5
		c-8.5,0.8-15.5,7.7-16.4,16.2c-1.2,11,7.4,20.3,18.2,20.3c4.3,0,8.2-1.5,11.3-3.9c0.1,2.3,2,4.1,4.3,4.1c2.4,0,4.3-1.9,4.3-4.3v-39
		C248.9,19.1,245.9,16.1,242.2,16.1 M232.2,58.4c-7.9,1.7-14.7-5.1-13-13c0.9-4,4.1-7.2,8-8c7.9-1.7,14.7,5.1,13,13
		C239.3,54.4,236.1,57.5,232.2,58.4"/>
	<path class="st5" d="M133.3,62.1l-1.3-3.5c-0.4-1.1-1.6-1.6-2.7-1.2c-3.8,1.2-7.1-0.4-6.8-5.1V40.4c0-0.8,0.6-1.4,1.4-1.4h5.4
		c1.2,0,2.2-1,2.2-2.2v-5.2c0-1.2-1-2.2-2.2-2.2h-5.4c-0.8,0-1.4-0.6-1.4-1.4v-9.7c0-1.2-1-2.2-2.2-2.2c-4.6,0-8.4,3.8-8.4,8.4V28
		c0,0.8-0.6,1.4-1.4,1.4h-2c-1.2,0-2.2,1-2.2,2.2v5.2c0,1.2,1,2.2,2.2,2.2h2c0.8,0,1.4,0.6,1.4,1.4v12c-0.1,9.4,4.7,13.5,13.6,13.7
		C127.9,65.9,134.4,65.8,133.3,62.1"/>
	<path class="st5" d="M153.2,63.4V18.8c0-1.5,1.2-2.7,2.7-2.7h5.1c1.5,0,2.7,1.2,2.7,2.7v44.7c0,1.5-1.2,2.7-2.7,2.7h-5.1
		C154.4,66.1,153.2,64.9,153.2,63.4"/>
	<path class="st5" d="M204.1,38.1c-6.7-11.9-26.7-11.6-33.2,0.3c-5.1,8.7-2.2,21.4,7.3,25.9c7,3.6,20.2,3,24.2-1.9
		c0.8-1,1.2-3.6-0.6-5.1c-1.9-1.7-5.7-0.4-7.4,0.1c-4.8,1.8-11.7,1-14.4-3.7c-0.5-0.8-1-2.7-0.3-2.7c0.9,0,22.7,0,22.7,0
		C206.2,51,207.4,44.3,204.1,38.1 M195.6,44.8c-1.9,0-16.3,0-16.4,0c-0.6,0,0-1.9,0.6-3.1c1.4-2.8,4.3-4.3,7.4-4.5
		c1.9-0.1,4.1,0.1,5.9,1.3C196.7,40.9,196.4,44.8,195.6,44.8"/>
	<path class="st5" d="M289.3,38.1c-6.7-11.9-26.7-11.6-33.2,0.3c-5.1,8.7-2.2,21.4,7.3,25.9c7,3.6,20.2,3,24.2-1.9
		c0.8-1,1.2-3.6-0.6-5.1c-1.9-1.7-5.7-0.4-7.4,0.1c-4.8,1.8-11.7,1-14.4-3.7c-0.5-0.8-1-2.7-0.3-2.7c0.9,0,22.7,0,22.7,0
		C291.3,51,292.6,44.3,289.3,38.1 M280.8,44.8c-1.9,0-16.3,0-16.4,0c-0.6,0,0-1.9,0.6-3.1c1.4-2.8,4.3-4.3,7.4-4.5
		c1.9-0.1,4.1,0.1,5.9,1.3C281.8,40.9,281.6,44.8,280.8,44.8"/>
	<path class="st5" d="M310.6,66.6c-4.7-0.2-9.8-1.5-13.7-3.6c-1-0.6-1.4-1.9-0.8-2.9l1.8-3.5c0.6-1.1,1.9-1.5,2.9-0.9
		c3.5,2.1,16.6,5.8,17.5,0.1c0-0.9-0.3-1.5-1.1-2c-2-1.2-4.7-1.5-7.3-2c-3-0.6-6.3-1.5-8.8-3.1c-4.8-2.8-5.1-10.3-1.6-14.3
		c3.6-4.1,9.1-5.1,15-4.8c2.5,0.1,5.1,0.6,7.7,1.3c3.4,1,5,4.9,3.3,8c-1.5,2.5-4.2-0.1-6.2-0.4c-3.1-0.9-8-1.4-10.4-0.2
		c-2,0.9-2.4,3.3-0.6,4.5c0.8,0.5,1.8,0.9,3.1,1.2c4.2,1,9.3,1.6,13.1,4c4.4,2.6,5.1,9.1,2.3,13.2C323.3,65.7,317,66.9,310.6,66.6"
		/>
	<path class="st5" d="M369.1,62.6l-12.9-16.3c-0.5-0.6-0.4-1.5,0.1-2l10.5-10.7c1.4-1.4,0.4-3.7-1.6-3.7h-6.5
		c-0.6,0-1.1,0.2-1.5,0.6L345,42.1c-0.9,0.8-2.3,0.2-2.3-1V23.3c0-4-3.2-7.2-7.2-7.2h-0.8c-0.8,0-1.5,0.7-1.5,1.5v47
		c0,0.8,0.7,1.5,1.5,1.5h5.8c1.2,0,2.2-1,2.2-2.2V58c0-0.6,0.3-1.3,0.7-1.7l3.4-3.3c0.6-0.6,1.5-0.5,2,0.1
		c2.6,3.3,9.8,12.2,9.8,12.2c0.4,0.5,1,0.8,1.7,0.8h7.2C369.2,66.1,370.2,64,369.1,62.6"/>
	<path class="st5" d="M138.1,63.4V32c0-1.5,1.2-2.7,2.7-2.7h5.1c1.5,0,2.7,1.2,2.7,2.7v31.4c0,1.5-1.2,2.7-2.7,2.7h-5.1
		C139.3,66.1,138.1,64.9,138.1,63.4"/>
	<path class="st5" d="M148.5,21.4c-0.2,6.9-10.3,6.9-10.4,0C138.2,14.5,148.3,14.5,148.5,21.4"/>
</g>
</svg>
