<?xml version="1.0" encoding="utf-8"?>
<!-- Generator: Adobe Illustrator 22.1.0, SVG Export Plug-In . SVG Version: 6.00 Build 0)  -->
<svg version="1.1" id="Livello_1" xmlns="http://www.w3.org/2000/svg" xmlns:xlink="http://www.w3.org/1999/xlink" x="0px" y="0px"
	 viewBox="0 0 491.8 78" style="enable-background:new 0 0 491.8 78;" xml:space="preserve">
<style type="text/css">
	.st0{display:none;}
	.st1{display:inline;fill:#FFFFFF;}
	.st2{display:inline;fill:none;}
	.st3{display:inline;stroke:#FFFFFF;stroke-miterlimit:10;}
	.st4{fill:#FFFFFF;}
	.st5{fill:#FFFDFD;}
	.st6{fill:none;}
	.st7{clip-path:url(#SVGID_2_);}
	.st8{fill:#F4816F;}
</style>
<g id="Livello_1_1_" class="st0">
	<title>tiledesk-logo-white</title>
	<path class="st1" d="M126.4,31.7h11.2V14.4h7.1v17.4h11.1v6.6h-11.1v38.1h-7.1V38.3h-11.2C126.4,38.3,126.4,31.7,126.4,31.7z"/>
	<path class="st1" d="M173.9,19.5c0,2.5-2,4.5-4.5,4.5s-4.5-2-4.5-4.5c0-1.2,0.5-2.4,1.3-3.2c1.8-1.8,4.6-1.8,6.4,0
		C173.4,17.1,173.9,18.3,173.9,19.5z M165.9,76.5V31.7h7.1v44.7L165.9,76.5z"/>
	<path class="st1" d="M188.7,76.5V0.2h7.1v76.2h-7.1V76.5z"/>
	<path class="st1" d="M254.7,56.8h-39.3c0.6,3.7,2.6,7.1,5.6,9.5c5,4.2,12,5,17.7,2c2.3-1.2,4.3-2.8,5.8-4.9h8.1
		c-1.8,4.1-4.8,7.7-8.6,10.1c-3.5,2.4-7.5,3.6-11.7,3.7c-3.5,0.1-6.9-0.5-10.2-1.8c-2.8-1.2-5.3-2.9-7.4-5c-4.5-4.3-7-10.3-6.9-16.5
		c-0.1-6.2,2.4-12.2,6.9-16.5c4.3-4.5,10.3-6.9,16.5-6.9c6.1-0.1,12,2.3,16.3,6.6c4.5,4.1,7.1,9.9,7.1,16L254.7,56.8z M241.5,41.3
		c-2.8-2.4-6.4-3.7-10.1-3.7c-5.8,0-10.4,2.6-13.7,7.9c-1,1.6-1.7,3.4-2.1,5.2h31.7C246.4,47,244.4,43.7,241.5,41.3z"/>
	<path class="st1" d="M302,76.5v-7.6c-0.4,0.5-0.8,1-1.3,1.5c-7.5,8.6-20.5,9.5-29.2,2c-0.7-0.6-1.4-1.3-2-2
		c-4-4.4-6.2-10.3-6.1-16.3c-0.1-6,2.1-11.8,6.1-16.3c7.5-8.6,20.5-9.5,29.2-2c0.7,0.6,1.4,1.3,2,2c0.5,0.5,0.9,1,1.3,1.5V0.2h7.1
		v76.2H302V76.5z M297.5,42.7c-5.8-6.2-15.5-6.5-21.7-0.8c-0.3,0.2-0.5,0.5-0.8,0.8c-6,6.4-6,16.4,0,22.8c5.8,6.2,15.5,6.5,21.7,0.8
		c0.3-0.2,0.5-0.5,0.8-0.8C303.5,59.1,303.5,49.1,297.5,42.7z"/>
	<path class="st1" d="M368,56.8h-39.3c0.6,3.7,2.6,7.1,5.6,9.5c5,4.2,12,5,17.7,2c2.3-1.2,4.3-2.9,5.9-5h8.1
		c-1.8,4.1-4.8,7.7-8.6,10.1c-3.4,2.4-7.5,3.6-11.7,3.7c-3.5,0.1-6.9-0.5-10.2-1.8c-2.8-1.2-5.3-2.9-7.4-5c-4.5-4.3-7-10.3-6.9-16.5
		c-0.1-6.2,2.4-12.2,6.9-16.5c4.3-4.5,10.3-6.9,16.5-6.9c6.1-0.1,12,2.3,16.3,6.6c4.5,4.1,7.1,9.9,7.1,16V56.8z M354.8,41.3
		c-2.8-2.4-6.4-3.7-10.1-3.7c-5.8,0-10.4,2.6-13.7,7.9c-1,1.6-1.7,3.4-2.1,5.2h31.7C359.8,47,357.7,43.7,354.8,41.3z"/>
	<path class="st1" d="M393.1,71.9c6.5,0,9.8-2.4,9.8-7.3c0-2.8-2.3-5-7-6.5c-2-0.7-4.1-1.2-6.4-1.8c-2.2-0.5-4.3-1.3-6.4-2.2
		s-3.8-2.2-5.2-4c-1.2-1.7-1.8-3.7-1.7-5.8c0-4.4,1.6-7.8,4.7-10.1c3.3-2.3,7.2-3.5,11.2-3.4c3.8-0.1,7.5,0.8,10.8,2.6
		c2.9,1.8,4.8,4.9,5.7,9.4H401c-0.7-2.5-1.9-4.2-3.5-5c-1.7-0.9-3.7-1.3-5.6-1.2c-2-0.1-4,0.4-5.7,1.5c-1.6,0.9-2.5,2.6-2.4,4.5
		c-0.1,1.7,0.6,3.4,2,4.4c1.5,1,3.2,1.8,4.9,2.3c2,0.6,4.1,1.2,6.3,1.7c2.2,0.5,4.4,1.2,6.4,2.2c4.6,2.2,6.9,5.7,6.9,10.5
		s-1.7,8.4-5.2,10.7c-1.8,1.2-3.7,2-5.7,2.6c-2.2,0.6-4.5,0.9-6.8,0.9c-10.3,0-16.2-4.6-17.8-13.8h7.5c0.8,2.9,2,4.9,3.8,6.1
		C388.3,71.4,390.7,72,393.1,71.9z"/>
	<path class="st1" d="M420.6,76.5V0.2h7.1v51.5l16.4-20.1h9.5l-18.4,21.7l19.6,23.1h-9.5L427.7,55v21.4L420.6,76.5L420.6,76.5z"/>
	<polygon class="st1" points="75.9,0.2 37.1,0.2 37.1,77.8 114.6,77.8 114.6,39 75.9,39 	"/>
	<rect x="36.9" y="0" class="st2" width="418" height="78"/>
	<rect x="-40" y="-33.8" class="st3" width="606.7" height="169"/>
</g>
<title>tiledesk-logo-white</title>
<path class="st4" d="M90.2,31.7h11.2V14.4h7.1v17.4h11.1v6.6h-11.1v38.1h-7.1V38.3H90.2V31.7z"/>
<path class="st4" d="M137.7,19.5c0,2.5-2,4.5-4.5,4.5s-4.5-2-4.5-4.5c0-1.2,0.5-2.4,1.3-3.2c1.8-1.8,4.6-1.8,6.4,0
	C137.2,17.1,137.7,18.3,137.7,19.5z M129.7,76.5V31.7h7.1v44.7L129.7,76.5z"/>
<path class="st4" d="M152.5,76.5V0.2h7.1v76.2h-7.1V76.5z"/>
<path class="st4" d="M218.5,56.8h-39.3c0.6,3.7,2.6,7.1,5.6,9.5c5,4.2,12,5,17.7,2c2.3-1.2,4.3-2.8,5.8-4.9h8.1
	c-1.8,4.1-4.8,7.7-8.6,10.1c-3.5,2.4-7.5,3.6-11.7,3.7c-3.5,0.1-6.9-0.5-10.2-1.8c-2.8-1.2-5.3-2.9-7.4-5c-4.5-4.3-7-10.3-6.9-16.5
	c-0.1-6.2,2.4-12.2,6.9-16.5c4.3-4.5,10.3-6.9,16.5-6.9c6.1-0.1,12,2.3,16.3,6.6c4.5,4.1,7.1,9.9,7.1,16L218.5,56.8z M205.3,41.3
	c-2.8-2.4-6.4-3.7-10.1-3.7c-5.8,0-10.4,2.6-13.7,7.9c-1,1.6-1.7,3.4-2.1,5.2h31.7C210.2,47,208.2,43.7,205.3,41.3z"/>
<path class="st4" d="M265.8,76.5v-7.6c-0.4,0.5-0.8,1-1.3,1.5c-7.5,8.6-20.5,9.5-29.2,2c-0.7-0.6-1.4-1.3-2-2
	c-4-4.4-6.2-10.3-6.1-16.3c-0.1-6,2.1-11.8,6.1-16.3c7.5-8.6,20.5-9.5,29.2-2c0.7,0.6,1.4,1.3,2,2c0.5,0.5,0.9,1,1.3,1.5V0.2h7.1
	v76.2h-7.1V76.5z M261.3,42.7c-5.8-6.2-15.5-6.5-21.7-0.8c-0.3,0.2-0.5,0.5-0.8,0.8c-6,6.4-6,16.4,0,22.8c5.8,6.2,15.5,6.5,21.7,0.8
	c0.3-0.2,0.5-0.5,0.8-0.8C267.3,59.1,267.3,49.1,261.3,42.7z"/>
<path class="st4" d="M331.8,56.8h-39.3c0.6,3.7,2.6,7.1,5.6,9.5c5,4.2,12,5,17.7,2c2.3-1.2,4.3-2.9,5.9-5h8.1
	c-1.8,4.1-4.8,7.7-8.6,10.1c-3.4,2.4-7.5,3.6-11.7,3.7c-3.5,0.1-6.9-0.5-10.2-1.8c-2.8-1.2-5.3-2.9-7.4-5c-4.5-4.3-7-10.3-6.9-16.5
	c-0.1-6.2,2.4-12.2,6.9-16.5c4.3-4.5,10.3-6.9,16.5-6.9c6.1-0.1,12,2.3,16.3,6.6c4.5,4.1,7.1,9.9,7.1,16V56.8z M318.6,41.3
	c-2.8-2.4-6.4-3.7-10.1-3.7c-5.8,0-10.4,2.6-13.7,7.9c-1,1.6-1.7,3.4-2.1,5.2h31.7C323.6,47,321.5,43.7,318.6,41.3z"/>
<path class="st4" d="M356.9,71.9c6.5,0,9.8-2.4,9.8-7.3c0-2.8-2.3-5-7-6.5c-2-0.7-4.1-1.2-6.4-1.8c-2.2-0.5-4.3-1.3-6.4-2.2
	s-3.8-2.2-5.2-4c-1.2-1.7-1.8-3.7-1.7-5.8c0-4.4,1.6-7.8,4.7-10.1c3.3-2.3,7.2-3.5,11.2-3.4c3.8-0.1,7.5,0.8,10.8,2.6
	c2.9,1.8,4.8,4.9,5.7,9.4h-7.6c-0.7-2.5-1.9-4.2-3.5-5c-1.7-0.9-3.7-1.3-5.6-1.2c-2-0.1-4,0.4-5.7,1.5c-1.6,0.9-2.5,2.6-2.4,4.5
	c-0.1,1.7,0.6,3.4,2,4.4c1.5,1,3.2,1.8,4.9,2.3c2,0.6,4.1,1.2,6.3,1.7c2.2,0.5,4.4,1.2,6.4,2.2c4.6,2.2,6.9,5.7,6.9,10.5
	s-1.7,8.4-5.2,10.7c-1.8,1.2-3.7,2-5.7,2.6c-2.2,0.6-4.5,0.9-6.8,0.9c-10.3,0-16.2-4.6-17.8-13.8h7.5c0.8,2.9,2,4.9,3.8,6.1
	C352.1,71.4,354.5,72,356.9,71.9z"/>
<path class="st5" d="M384.4,76.5V0.2h7.1v51.5l16.4-20.1h9.5L399,53.3l19.6,23.1h-9.5L391.5,55v21.4L384.4,76.5L384.4,76.5z"/>
<polygon class="st4" points="39.7,0.2 0.9,0.2 0.9,77.8 78.4,77.8 78.4,39 39.7,39 "/>
<rect x="0.7" y="0" class="st6" width="418" height="78"/>
<g>
	<defs>
		<circle id="SVGID_1_" cx="452.3" cy="53.2" r="24.8"/>
	</defs>
	<clipPath id="SVGID_2_">
		<use xlink:href="#SVGID_1_"  style="overflow:visible;"/>
	</clipPath>
	<g class="st7">
		<circle class="st4" cx="452.3" cy="53.2" r="24.8"/>
		<path class="st8" d="M448.1,43.3c0,0-6.1-2.5-11.5-0.4c-3.6,1.5-5.5,5-5.5,5l6.6,6.6c-2.5,0.4-4.3,1.2-4.8,2.4
			c-0.9,2.6-2,7.7-2,7.7l31.5,31.5l19.8-18.7L448.1,43.3z"/>
		<path class="st8" d="M470.6,43.6c0,0-6.5-2-10.1-0.9c-3.7,1.1-6.2,5.2-6.2,7.1c0,2-0.1,6.5-0.1,7.7c0,1.3,1.9,5.1,1.9,5.1l35,35
			L507,80L470.6,43.6z"/>
		<g>
			<path class="st4" d="M431.2,48.2c0.1-5,4.8-7.1,9.2-7.1c4.7,0.1,9.8,2,9.8,7.7c-0.1,6-4.6,7.1-9.6,7.1c-2,0-5.1,0.4-5.2,3l0,2
				l14.7,0.2l0,4.2l-19.2-0.2c0-2.1,0-4.1,0.1-6.2c0.1-5.4,5-7,9.7-7c1.8,0,5.1-0.2,5.1-3c0-2.6-2.3-3.8-5.3-3.8
				c-2.3,0-4.7,1.1-4.8,3.3L431.2,48.2z"/>
			<path class="st4" d="M452.8,51.2c0-14.1,20.8-14.1,20.8,0v3.4c0,14.1-20.8,14.1-20.8,0V51.2z M457.2,54.6c0,8.6,11.9,8.6,11.9,0
				v-3.4c0-8.5-11.9-8.6-11.9,0V54.6z"/>
			<circle class="st4" cx="452.8" cy="63.4" r="1.8"/>
		</g>
	</g>
</g>
</svg>
