<?xml version="1.0" encoding="utf-8"?>
<!-- Generator: Adobe Illustrator 26.4.1, SVG Export Plug-In . SVG Version: 6.00 Build 0)  -->
<svg version="1.1" id="Livello_1" xmlns="http://www.w3.org/2000/svg" xmlns:xlink="http://www.w3.org/1999/xlink" x="0px" y="0px"
	 viewBox="0 0 311.8 73.7" style="enable-background:new 0 0 311.8 73.7;" xml:space="preserve">
<style type="text/css">
	.st0{fill:#F28779;}
	.st1{fill:#F6B0A1;}
	.st2{fill:#454848;}
</style>
<g>
	<path class="st0" d="M61.1,33.5H37.9c-2,0-3.7-1.6-3.7-3.7V6.7c0-2-1.6-3.7-3.7-3.7h-23c-2,0-3.7,1.6-3.7,3.7v26.8v26.8
		c0,2,1.6,3.7,3.7,3.7H5.9h4.2c0.8,0,1.6,0.3,2.2,0.9l2.7,2.7l2.5,2.5c0.8,0.8,2.1,0.8,3,0l2.5-2.5l2.7-2.7c0.6-0.6,1.4-0.9,2.2-0.9
		h33.2c2,0,3.7-1.6,3.7-3.7V37.1C64.7,35.1,63.1,33.5,61.1,33.5"/>
	<path class="st1" d="M62.5,28.6H41.4c-1.2,0-2.2-1-2.2-2.2V5.3c0-1.2,1-2.2,2.2-2.2h21.1c1.2,0,2.2,1,2.2,2.2v21.1
		C64.7,27.6,63.7,28.6,62.5,28.6"/>
</g>
<g>
	<g>
		<path class="st2" d="M196,14.7h-0.1c-1,0-1.9,0.8-1.9,1.9c0,0.1,0,7.5,0,12.8c-3-2.2-6.9-3.5-11-3c-7.5,0.7-13.5,6.7-14.4,14.2
			c-1.1,9.7,6.5,17.8,16,17.8c3.8,0,7.1-1.3,9.9-3.5c0.1,2,1.7,3.6,3.8,3.6c2.1,0,3.8-1.7,3.8-3.8V20.6
			C201.9,17.5,199.2,14.7,196,14.7 M187.3,51.8c-6.9,1.6-12.9-4.5-11.3-11.3c0.7-3.5,3.6-6.3,7-7c6.9-1.6,12.9,4.5,11.3,11.3
			C193.5,48.2,190.7,51.1,187.3,51.8"/>
		<path class="st2" d="M100.7,55l-1.2-3c-0.3-0.9-1.4-1.4-2.3-1.1c-3.4,1.1-6.2-0.4-6-4.5V36.1c0-0.6,0.5-1.3,1.3-1.3h4.7
			c1,0,1.9-0.8,1.9-1.9v-4.6c0-1-0.8-1.9-1.9-1.9h-4.7c-0.6,0-1.3-0.5-1.3-1.3v-8.5c0-1.1-0.8-1.9-1.9-1.9c-4.1,0-7.4,3.3-7.4,7.3v3
			c0,0.6-0.5,1.3-1.3,1.3H79c-1.1,0-1.9,0.8-1.9,1.9V33c0,1,0.8,1.9,1.9,1.9h1.8c0.6,0,1.3,0.5,1.3,1.3v10.5
			c-0.1,8.2,4.1,11.9,11.9,12C96,58.4,101.7,58.3,100.7,55"/>
		<path class="st2" d="M118.2,56.2V17.1c0-1.3,1.1-2.3,2.3-2.3h4.5c1.3,0,2.3,1.1,2.3,2.3v39.1c0,1.3-1.1,2.3-2.3,2.3h-4.5
			C119.2,58.6,118.2,57.5,118.2,56.2"/>
		<path class="st2" d="M162.7,34c-5.9-10.4-23.3-10.1-29.1,0.2c-4.5,7.6-1.9,18.8,6.4,22.7c6.1,3.2,17.7,2.6,21.2-1.7
			c0.7-0.8,1.1-3.2-0.5-4.5c-1.7-1.5-4.9-0.3-6.5,0.1c-4.2,1.6-10.3,0.8-12.6-3.3c-0.4-0.7-0.8-2.3-0.2-2.3c0.7,0,19.8,0,19.8,0
			C164.5,45.3,165.6,39.4,162.7,34 M155.2,39.9c-1.7,0-14.3,0-14.4,0c-0.5,0,0-1.7,0.5-2.7c1.2-2.4,3.8-3.8,6.4-3.9
			c1.7-0.1,3.7,0.1,5.1,1.2C156.2,36.6,156,39.9,155.2,39.9"/>
		<path class="st2" d="M237.2,34c-5.9-10.4-23.3-10.1-29.1,0.2c-4.5,7.6-1.9,18.8,6.4,22.7c6.1,3.2,17.7,2.6,21.2-1.7
			c0.7-0.8,1.1-3.2-0.5-4.5c-1.7-1.5-4.9-0.3-6.5,0.1c-4.2,1.6-10.3,0.8-12.6-3.3c-0.4-0.7-0.8-2.3-0.2-2.3c0.7,0,19.8,0,19.8,0
			C239,45.3,240.1,39.4,237.2,34 M229.8,39.9c-1.7,0-14.3,0-14.4,0c-0.5,0,0-1.7,0.5-2.7c1.2-2.4,3.8-3.8,6.4-3.9
			c1.7-0.1,3.7,0.1,5.1,1.2C230.6,36.6,230.5,39.9,229.8,39.9"/>
		<path class="st2" d="M255.9,58.9c-4.2-0.2-8.5-1.3-12-3.1c-0.9-0.5-1.2-1.7-0.7-2.5l1.6-3c0.5-0.9,1.6-1.3,2.5-0.8
			c3,1.8,14.5,5.1,15.2,0.1c0-0.7-0.3-1.4-0.9-1.8c-1.8-1-4.1-1.3-6.4-1.8c-2.6-0.5-5.5-1.3-7.8-2.7c-4.2-2.4-4.5-9-1.4-12.5
			c3.2-3.6,8-4.5,13.1-4.2c2.1,0.1,4.5,0.5,6.7,1.2c2.9,0.8,4.3,4.3,2.8,6.9c-1.4,2.2-3.7-0.1-5.4-0.3c-2.7-0.8-7-1.3-9-0.2
			c-1.7,0.7-2.1,2.9-0.5,3.9c0.7,0.4,1.6,0.8,2.7,1c3.7,0.8,8.1,1.4,11.4,3.6c3.9,2.3,4.4,8,2,11.5C267,58.2,261.5,59.2,255.9,58.9"
			/>
		<path class="st2" d="M307.1,55.5l-11.2-14.3c-0.4-0.5-0.4-1.3,0.1-1.8l9.2-9.3c1.2-1.2,0.3-3.3-1.4-3.3h-5.7
			c-0.5,0-0.9,0.2-1.3,0.5l-10.8,10.3c-0.7,0.7-2.1,0.2-2.1-0.8V21c0-3.5-2.8-6.3-6.3-6.3h-0.7c-0.7,0-1.4,0.6-1.4,1.4v41.2
			c0,0.7,0.6,1.4,1.4,1.4h5.1c1,0,1.9-0.8,1.9-1.9v-5.2c0-0.5,0.2-1.2,0.6-1.5l2.9-2.9c0.5-0.5,1.3-0.4,1.8,0.1
			c2.3,2.8,8.6,10.7,8.6,10.7c0.3,0.4,0.9,0.7,1.5,0.7h6.3C307.2,58.6,308,56.7,307.1,55.5"/>
		<path class="st2" d="M104.9,56.2V28.7c0-1.3,1-2.3,2.3-2.3h4.5c1.3,0,2.3,1.1,2.3,2.3v27.5c0,1.3-1,2.3-2.3,2.3h-4.5
			C106,58.6,104.9,57.5,104.9,56.2"/>
	</g>
	<path class="st2" d="M114,19.3c-0.1,6-8.9,6-9.1,0C105,13.4,113.9,13.4,114,19.3"/>
</g>
</svg>
