<?xml version="1.0" encoding="utf-8"?>
<!-- Generator: Adobe Illustrator 28.4.1, SVG Export Plug-In . SVG Version: 6.00 Build 0)  -->
<svg version="1.1" id="Outline" xmlns="http://www.w3.org/2000/svg" xmlns:xlink="http://www.w3.org/1999/xlink" x="0px" y="0px"
	 viewBox="0 0 24 24" style="enable-background:new 0 0 24 24;" xml:space="preserve">
<style type="text/css">
	.st0{fill:#1F6BB4;}
</style>
<path class="st0" d="M12,20c4.4,0,8-3.6,8-8V8c0-4.4-3.6-8-8-8S4,3.6,4,8v4C4,16.4,7.6,20,12,20z M12,2c2.9,0,5.4,2.1,5.9,5H15
	c-0.6,0-1,0.4-1,1s0.4,1,1,1h3v2h-3c-0.6,0-1,0.4-1,1s0.4,1,1,1h2.9c-0.5,3.3-3.6,5.5-6.9,4.9c-2.5-0.4-4.5-2.4-4.9-4.9H9
	c0.6,0,1-0.4,1-1s-0.4-1-1-1H6V9h3c0.6,0,1-0.4,1-1S9.6,7,9,7H6.1C6.6,4.1,9.1,2,12,2z"/>
<path class="st0" d="M23,12c-0.6,0-1,0.4-1,1c0,5-4,9-9,9h-2c-5,0-9-4-9-9c0-0.6-0.4-1-1-1s-1,0.4-1,1c0,6.1,4.9,11,11,11h2
	c6.1,0,11-4.9,11-11C24,12.4,23.6,12,23,12z"/>
</svg>
