<?xml version="1.0" encoding="utf-8"?>
<!-- Generator: Adobe Illustrator 28.4.1, SVG Export Plug-In . SVG Version: 6.00 Build 0)  -->
<svg version="1.1" id="webhooks" xmlns="http://www.w3.org/2000/svg" xmlns:xlink="http://www.w3.org/1999/xlink" x="0px" y="0px"
	 viewBox="0 0 60 60" style="enable-background:new 0 0 60 60;" xml:space="preserve">
<style type="text/css">
	.st0{fill:#C73A63;}
	.st1{fill:#4B4B4B;}
	.st2{fill:#4A4A4A;}
</style>
<g>
	<path class="st0" d="M28.2,25.2c-2.5,4.5-4.8,8.7-7.2,13c-0.6,1.1-1,2-0.4,3.4c1.4,3.8-0.5,7.6-4.2,8.6c-3.4,1-6.7-1.5-7.4-5.3
		c-0.6-3.4,1.9-6.8,5.4-7.4c0.3,0,0.6,0,1.1-0.1l5.4-9.7c-3.4-3.6-5.4-7.9-5-13.1c0.3-3.7,1.7-6.9,4.2-9.6c4.8-5.2,12-6,17.7-2.1
		c5.4,3.7,7.9,11,5.8,17.2c-1.6-0.4-3.2-1-4.9-1.5c0.6-3.4,0.2-6.5-2-9.2c-1.4-1.7-3.3-2.7-5.3-3C27.2,5.8,23,8.7,21.8,13
		C20.3,18.1,22.5,22.1,28.2,25.2L28.2,25.2z"/>
	<path class="st1" d="M35.2,20c1.7,3.3,3.5,6.6,5.2,9.9c8.8-2.9,15.5,2.3,17.8,7.9c2.9,6.7,1,14.8-4.7,19
		c-5.8,4.3-13.1,3.5-18.2-1.9c1.3-1.2,2.7-2.3,4.1-3.6c5.1,3.5,9.5,3.4,12.8-0.9c2.8-3.5,2.8-8.8-0.1-12.4
		c-3.3-4.1-7.8-4.2-13.2-0.3c-2.2-4.3-4.5-8.5-6.7-12.8c-0.7-1.5-1.5-2.2-3.2-2.6c-2.8-0.5-4.5-3.1-4.6-5.9
		c-0.1-2.8,1.4-5.3,3.8-6.4c2.3-1,5.2-0.2,6.8,2c1.3,1.8,1.7,3.8,1.1,6C35.7,18.7,35.5,19.2,35.2,20L35.2,20z"/>
	<path class="st2" d="M39.3,46.7H28.8c-1.1,4.5-3.2,8.1-7,10.4c-3,1.8-6.1,2.3-9.5,1.8C6.1,57.9,0.9,52,0.5,45.1
		c-0.5-7.7,4.4-14.5,10.9-16c0.4,1.7,1,3.5,1.4,5.3c-6,3.3-8.1,7.5-6.4,12.6c1.5,4.6,5.7,7,10.2,6.1c4.7-1,7-5.1,6.7-11.8
		c4.4,0,8.8,0,13.2,0c1.7,0,3.1-0.2,4.4-1.8c2.1-2.7,6.1-2.5,8.3,0.1c2.3,2.6,2.2,6.7-0.2,9.3c-2.3,2.3-6.2,2.2-8.4-0.3
		C40.2,48,39.8,47.5,39.3,46.7L39.3,46.7z"/>
</g>
</svg>
