<?xml version="1.0" encoding="UTF-8" standalone="no"?>
<!-- Created with Inkscape (http://www.inkscape.org/) -->

<svg
   width="207.61578mm"
   height="66.321342mm"
   viewBox="0 0 207.61578 66.321342"
   version="1.1"
   id="svg1"
   xml:space="preserve"
   xmlns="http://www.w3.org/2000/svg"
   xmlns:svg="http://www.w3.org/2000/svg"><defs
     id="defs1" /><g
     id="layer1"
     transform="translate(-1.5078132,-2.4242912)"><g
       id="g8"
       transform="matrix(1.5245084,0,0,1.4791153,-51.566556,-46.46508)"><path
         d="m 84.283876,67.051819 q 0,1.875601 0.07874,2.442826 H 79.40689 V 46.700892 h 4.876926 v 1.678919 q 1.691659,-2.115442 3.55184,-2.115442 1.861262,0 2.935786,0.502483 l -0.357809,5.866635 -0.07985,0.06595 Q 89.636761,51.3467 87.448327,51.3467 q -0.835979,0 -1.702595,0.621214 -0.865527,0.622401 -1.46188,1.647739 z m 21.423674,1.090088 q -2.82637,1.680122 -5.11547,1.680122 -2.289088,0 -3.920564,-0.468898 -1.632566,-0.468898 -2.766179,-1.385104 -2.308801,-1.854004 -2.308801,-5.366556 0,-3.14078 2.826368,-5.234633 3.064901,-2.267742 8.318216,-2.267742 l 0.79659,0.02157 q 0.23854,0.02165 0.53726,0.03236 0.29873,0.01079 0.53727,0.05409 -0.15866,-3.489768 -2.74649,-4.078583 -0.85568,-0.19547 -1.82077,-0.19547 -0.965094,0 -1.890808,0.184676 -0.925684,0.185886 -1.80107,0.490487 -1.930198,0.676364 -2.766179,1.549401 l -0.06015,-0.04447 -0.596351,-4.8197 q 3.522298,-2.029102 7.701098,-2.029102 6.4887,0 8.29964,5.12551 0.57772,1.636944 0.57772,3.686426 v 7.896931 q 0,2.529181 1.6315,3.445397 l -3.60216,3.621665 Q 106.4035,69.385501 105.7076,68.141893 Z M 104.63192,59.1333 q -0.53726,-0.109123 -1.1139,-0.109123 h -0.79659 q -4.397648,0 -5.592532,2.138217 -0.357806,0.631993 -0.357806,1.329947 0,0.697946 0.228696,1.232813 0.2287,0.534842 0.765947,0.883823 1.035124,0.653581 3.074735,0.653581 2.04071,0 3.81224,-1.068506 -0.0208,-0.239843 -0.0208,-0.50129 z m 14.8157,9.903233 v 6.41228 q 0,1.876794 0.0799,2.442826 h -4.95571 V 46.700892 h 4.87583 v 1.417496 q 2.40838,-1.854019 4.6176,-1.854019 2.20923,0 3.92059,0.676356 1.71135,0.676374 3.00471,2.093862 2.84606,3.076021 2.84606,8.768774 0,3.772765 -1.61179,6.739664 -1.37323,2.508794 -3.80129,4.013824 -2.14905,1.329947 -4.657,1.329947 -2.50795,0 -4.31888,-0.850263 z m 0,-5.497266 q 1.51222,1.397102 3.92058,1.397102 3.94029,0 5.09469,-4.166118 0.39829,-1.41869 0.39829,-3.043646 0,-1.624947 -0.27903,-2.595126 -0.27794,-0.971381 -0.72546,-1.680121 -0.44864,-0.708749 -1.00558,-1.177655 -0.55696,-0.468881 -1.13472,-0.75191 -1.01434,-0.502484 -2.08995,-0.502484 -1.07452,0 -2.22891,0.545654 -1.1544,0.545645 -1.94991,1.461869 z m 17.08402,-15.813029 -0.0394,-1.025346 h 16.81703 l -10.14996,18.430955 h 7.82146 q 1.75075,0 2.36789,-0.545645 l -1.31307,5.235827 q -0.87646,-0.06595 -2.10964,-0.109122 l -2.46856,-0.13072 q -2.288,-0.08764 -4.31778,-0.08764 -4.49833,0 -8.37951,0.327401 l 10.40929,-18.845882 h -4.93602 q -2.30879,0 -3.7816,0.567235 0.0799,-1.701719 0.0799,-2.639507 z m 19.2232,-7.525167 q 1.59319,-2.727049 3.32424,-4.799313 l 4.27839,3.686425 q -0.85568,1.156066 -1.5921,2.268937 0,0 -1.5319,2.376882 z m 5.23473,26.850748 q 0,1.875601 0.0799,2.442826 H 156.0142 V 46.700892 h 4.97539 z m 9.93002,0 q 0,1.875601 0.0799,2.442826 h -5.05527 V 36.994338 h 4.9754 z"
         style="fill:#4d4d4d;stroke-width:0.114553"
         id="path14-4" /><g
         id="g2"
         transform="matrix(0.34197903,0,0,0.36222328,-68.002055,18.054185)"
         style="fill:#4d4d4d"><path
           style="fill:#4d4d4d;stroke-width:1.62219"
           d="m 393.15303,45.792055 c 0,0 8.28092,-8.592801 15.97042,-1.718558 7.68925,6.874244 -3.38929,16.84552 -3.38929,16.84552 L 344.37884,137.3591 c 0,0 -5.94946,7.28396 -13.92374,6.39095 -8.09863,-0.90693 -11.1295,-10.63368 -11.1295,-10.63368 L 300.88055,77.871882 c 0,0 -2.39694,-9.460152 8.28093,-12.029935 8.99097,-2.163807 14.19573,5.728537 14.19573,5.728537 l 5.32339,6.301398 c 0,0 6.13264,9.523804 17.74468,4.009979 8.79612,-4.176723 46.72775,-36.089806 46.72775,-36.089806 z"
           id="path1" /><path
           style="fill:#4d4d4d;stroke-width:1.56334"
           d="M 372.32632,122.91941 408.8949,72.797337 c 0,0 6.47613,-9.466245 12.31997,-5.789981 6.58521,4.142647 3.25389,12.888209 3.25389,12.888209 l -12.72687,47.529985 c 0,0 -4.02486,11.28931 -9.85499,14.86935 -8.16676,5.01488 -17.05779,-5.4263 -17.05779,-5.4263 z"
           id="path2" /></g></g></g><style
     type="text/css"
     id="style1">
	.st0{fill:#0D6EFD;}
	.st1{fill:#FFFFFF;}
</style><style
     type="text/css"
     id="style1-0">
	.st0{fill:#FFFFFF;}
	.st1{fill:#0D6EFD;}
</style><style
     type="text/css"
     id="style1-9">
	.st0{fill:#0D6EFD;}
	.st1{fill:#FFFFFF;}
</style></svg>
