<?xml version="1.0" encoding="utf-8"?>
<!-- Generator: Adobe Illustrator 26.4.1, SVG Export Plug-In . SVG Version: 6.00 Build 0)  -->
<svg version="1.1" id="Livello_1" xmlns="http://www.w3.org/2000/svg" xmlns:xlink="http://www.w3.org/1999/xlink" x="0px" y="0px"
	 viewBox="0 0 200 70" style="enable-background:new 0 0 200 70;" xml:space="preserve">
<style type="text/css">
	.st0{fill:#6A6B6C;}
	.st1{fill:#08A6DE;}
</style>
<g id="Livello_1-2">
	<path class="st0" d="M200,27.6c0-5-3.7-9.8-9.4-9.8c-5.6,0-10.1,4.6-10.1,10.3c0,0.1,0,0.1,0,0.2c0,5.8,3.9,10.4,10.1,10.4
		c4.4,0,9-1.8,9-4.7c0-1.3-1-2.4-2.3-2.5c0,0-0.1,0-0.1,0c-1.3,0-3.1,1.8-5.9,1.8c-3.7,0-4.6-2-4.6-3.2h10.4
		C199,30.1,199.9,29.6,200,27.6 M194.2,26.1h-7.5c0.2-2.1,2-3.6,4.1-3.4C192.6,22.9,194,24.3,194.2,26.1 M178.6,35.3V12.6
		c0-1.6-1.3-2.9-2.9-2.9s-2.9,1.3-2.9,2.9c0,0,0,0,0,0v22.7c0,1.6,1.3,2.9,2.9,2.9S178.6,36.9,178.6,35.3
		C178.6,35.3,178.6,35.3,178.6,35.3 M160.4,28.2c0-2.7,1.4-4.9,4.3-4.9c2.3,0,2.7,1,4.1,1c1.4-0.1,2.4-1.2,2.4-2.6c0,0,0-0.1,0-0.1
		c0-3.1-4.2-3.8-6.8-3.8c-5.8,0-9.7,4.6-9.7,10.4s3.9,10.4,9.7,10.4c2.3,0,6.8-1.1,6.8-4c0-1.3-1-2.4-2.4-2.5c-0.9,0-2,1-4.5,1
		S160.4,30.9,160.4,28.2 M153.3,12.8c0-1.9-1.5-3.4-3.4-3.4s-3.4,1.5-3.4,3.4s1.5,3.4,3.4,3.4C151.8,16.2,153.3,14.7,153.3,12.8
		C153.3,12.8,153.3,12.8,153.3,12.8 M144.2,36.2V20.8c0.1-1.6-1.1-2.9-2.7-3c-0.1,0-0.1,0-0.2,0c-1.3,0-2.4,0.9-2.7,2.2
		c-1.2-1.5-3.1-2.4-5-2.2c-5,0-8.9,4.6-8.9,10.4c0,5.2,2.8,10.1,8.4,10.1c2,0.2,4-0.7,5.3-2.2c0,3.2-1.2,5.1-4.8,5.1
		c-3.4,0-4.4-1.7-6.1-1.7c-1.3,0.2-2.3,1.2-2.3,2.6c0,3.1,5.6,4.3,8.6,4.3C139.4,46.3,144.2,43.5,144.2,36.2 M138.4,28.2
		c0,2.8-1.4,5-3.9,5s-4-2.1-4-5c0-2.7,1.4-4.9,4-4.9S138.4,25.6,138.4,28.2 M122.8,35.3V20.8c0.1-1.6-1.2-2.9-2.7-3
		c-0.1,0-0.1,0-0.2,0c-1.3,0-2.4,0.9-2.7,2.2c-1.2-1.5-3.1-2.4-5-2.2c-5,0-8.9,4.6-8.9,10.4s3.9,10.4,8.9,10.4
		c1.9,0.2,3.8-0.7,5-2.2c0.5,1.1,1.5,1.8,2.7,1.8c1.6,0,2.9-1.3,2.9-2.8C122.8,35.4,122.8,35.3,122.8,35.3 M117,28.2
		c0,2.7-1.4,4.9-4,4.9s-4-2.2-4-4.9s1.4-4.9,4-4.9S117,25.6,117,28.2 M101.3,35.3V24.6c0-4.7-3.2-6.8-7.2-6.8c-2.1,0.1-4,1-5.6,2.4
		c-1.4-1.5-3.3-2.4-5.4-2.4c-1.9-0.1-3.8,0.7-5,2.2c-0.3-1.3-1.5-2.2-2.9-2.2c-1.6,0-2.9,1.3-2.9,2.8c0,0.1,0,0.1,0,0.2v14.5
		c0,1.6,1.3,2.9,2.9,2.9c1.6,0,2.9-1.3,2.9-2.9v-9.1c0-1.8,1-3.5,2.9-3.5s2.9,1.7,2.9,3.5v9.1c-0.1,1.6,1.1,3,2.7,3.1s3-1.1,3.1-2.7
		c0-0.1,0-0.2,0-0.3v-9.1c0-1.8,1-3.5,2.9-3.5s2.9,1.7,2.9,3.5v9.1c0,1.6,1.3,2.9,2.9,2.9C100,38.2,101.3,36.9,101.3,35.3
		 M70.3,12.8c0-1.9-1.5-3.4-3.4-3.4c-1.9,0-3.4,1.5-3.4,3.4s1.5,3.4,3.4,3.4C68.7,16.2,70.3,14.7,70.3,12.8
		C70.3,12.8,70.3,12.8,70.3,12.8 M64,20.8v14.5c0,1.6,1.3,2.9,2.9,2.9c1.6,0,2.9-1.3,2.9-2.9V20.8c0-1.6-1.3-2.9-2.9-2.9
		C65.2,17.9,64,19.2,64,20.8 M147,20.8v14.5c-0.1,1.6,1.1,3,2.7,3.1c1.6,0.1,3-1.1,3.1-2.7c0-0.1,0-0.2,0-0.3V20.8
		c0.1-1.6-1.1-3-2.7-3.1c-1.6-0.1-3,1.1-3.1,2.7C147,20.6,147,20.7,147,20.8"/>
	<path class="st1" d="M18,31.6c0,3.2,2.6,5.9,5.9,5.9c3.2,0,5.9-2.6,5.9-5.9s-2.6-5.9-5.9-5.9c0,0,0,0,0,0
		C20.6,25.7,18,28.3,18,31.6 M0,23.9C0,10.7,10.7,0,23.9,0s23.9,10.7,23.9,23.9C47.8,33.6,42,42.3,33,46c0.2-0.8,0.3-1.6,0.4-2.5
		c0-2.3-1.9-4.2-4.2-4.2c0,0,0,0,0,0H18.6c-2.3,0-4.2,1.9-4.2,4.2l0,0c0,0.8,0.2,1.7,0.4,2.5C5.9,42.3,0,33.6,0,23.9"/>
	<path class="st0" d="M94.2,69.7l4.4-8.5h-4c-0.1-0.3-0.1-0.6-0.1-0.9c0-0.3,0-0.6,0.1-0.9h7l0.1,0.2L97.4,68h4.2
		c0.1,0.3,0.1,0.6,0.1,0.9c0,0.3,0,0.6-0.1,0.9h-7.2L94.2,69.7z"/>
	<path class="st0" d="M103.4,59.3c0.2,0,0.4,0,0.5,0h0.5h0.5c0.2,0,0.4,0,0.5,0v5.4c0,0.5,0,1,0.1,1.5c0,0.3,0.1,0.7,0.3,1
		c0.1,0.3,0.3,0.5,0.6,0.6c0.3,0.1,0.6,0.2,0.9,0.2c0.3,0,0.6-0.1,0.9-0.2c0.2-0.1,0.4-0.4,0.6-0.6c0.1-0.3,0.2-0.7,0.3-1
		c0-0.4,0.1-0.9,0.1-1.5v-5.4c0.2,0,0.4,0,0.6,0h0.5h0.5c0.2,0,0.4,0,0.6,0v5.9c0,0.7-0.1,1.3-0.2,2c-0.1,0.5-0.3,1.1-0.6,1.5
		c-0.3,0.4-0.7,0.8-1.2,1c-1.2,0.5-2.6,0.5-3.9,0c-0.5-0.2-0.9-0.6-1.2-1c-0.3-0.5-0.5-1-0.6-1.5c-0.1-0.7-0.2-1.3-0.2-2L103.4,59.3
		z"/>
	<path class="st0" d="M120.5,67.8c0.1,0.3,0.2,0.6,0.3,0.8c0.1,0.3,0.2,0.6,0.2,0.9c-0.4,0.2-0.9,0.3-1.4,0.4
		c-0.4,0.1-0.9,0.1-1.3,0.1c-0.7,0-1.5-0.1-2.2-0.4c-0.6-0.3-1.1-0.6-1.6-1.1c-0.4-0.5-0.8-1.1-1-1.7c-0.2-0.7-0.3-1.4-0.3-2.2
		c0-0.7,0.1-1.5,0.3-2.2c0.2-0.6,0.6-1.2,1-1.7c0.4-0.5,1-0.9,1.6-1.1c0.7-0.3,1.4-0.4,2.1-0.4c0.4,0,0.9,0,1.3,0.1
		c0.4,0.1,0.9,0.2,1.3,0.4c0,0.3-0.1,0.6-0.2,0.8c-0.1,0.3-0.2,0.6-0.3,0.8c-0.3-0.1-0.6-0.2-0.9-0.2c-0.3-0.1-0.6-0.1-0.9-0.1
		c-0.8,0-1.6,0.3-2.2,0.9c-0.6,0.8-0.8,1.7-0.8,2.7c0,2.4,1,3.6,3,3.6c0.3,0,0.7,0,1-0.1C119.9,68,120.2,67.9,120.5,67.8"/>
	<path class="st0" d="M129.4,67.8c0.1,0.3,0.2,0.6,0.3,0.8c0.1,0.3,0.1,0.6,0.2,0.9c-0.4,0.2-0.9,0.3-1.4,0.4
		c-0.4,0.1-0.9,0.1-1.3,0.1c-0.7,0-1.5-0.1-2.2-0.4c-0.6-0.3-1.1-0.6-1.6-1.1c-0.5-0.5-0.8-1.1-1-1.7c-0.2-0.7-0.3-1.4-0.3-2.2
		c0-0.7,0.1-1.5,0.3-2.2c0.2-0.6,0.6-1.2,1-1.7c0.4-0.5,1-0.9,1.5-1.1c0.7-0.3,1.4-0.4,2.1-0.4c0.4,0,0.9,0,1.3,0.1
		c0.4,0.1,0.9,0.2,1.3,0.4c0,0.3-0.1,0.6-0.2,0.8c-0.1,0.3-0.2,0.6-0.3,0.8c-0.3-0.1-0.6-0.2-0.9-0.2c-0.3-0.1-0.6-0.1-0.9-0.1
		c-0.8,0-1.6,0.3-2.2,0.9c-0.6,0.8-0.8,1.7-0.8,2.7c0,2.4,1,3.6,3,3.6c0.3,0,0.7,0,1-0.1C128.7,68,129.1,67.9,129.4,67.8"/>
	<path class="st0" d="M131.7,59.3c0.4-0.1,0.7-0.1,1.1-0.1c0.4,0,0.7,0,1.1,0.1v4.1h3.5v-4.1c0.4-0.1,0.7-0.1,1.1-0.1
		c0.4,0,0.7,0,1.1,0.1v10.5c-0.4,0.1-0.7,0.1-1.1,0.1c-0.4,0-0.7,0-1.1-0.1v-4.5h-3.5v4.5c-0.4,0.1-0.7,0.1-1.1,0.1
		c-0.4,0-0.7,0-1.1-0.1V59.3z"/>
	<path class="st0" d="M141.9,59.3h5.9c0.1,0.6,0.1,1.2,0,1.8H144v2.3h3c0.1,0.3,0.1,0.6,0.1,0.9c0,0.3,0,0.6-0.1,0.9h-3V68h3.9
		c0.1,0.3,0.1,0.6,0.1,0.9c0,0.3,0,0.6-0.1,0.9h-6.1V59.3z"/>
	<path class="st0" d="M152,61.1h-2.6c-0.1-0.6-0.1-1.2,0-1.8h7.4c0.1,0.6,0.1,1.2,0,1.8h-2.7v8.7l-0.5,0.1h-0.5h-0.5l-0.6-0.1
		L152,61.1z"/>
	<path class="st0" d="M160.5,61.1h-2.6c-0.1-0.6-0.1-1.2,0-1.8h7.4c0.1,0.6,0.1,1.2,0,1.8h-2.6v8.7l-0.5,0.1h-0.5h-0.5
		c-0.2,0-0.4,0-0.6-0.1V61.1z"/>
	<path class="st0" d="M167,59.3c0.4-0.1,0.7-0.1,1.1-0.1c0.4,0,0.7,0,1.1,0.1v10.5c-0.4,0.1-0.7,0.1-1.1,0.1c-0.4,0-0.7,0-1.1-0.1
		V59.3z"/>
	<rect x="63.4" y="50.5" class="st0" width="136.6" height="0.8"/>
</g>
</svg>
