<svg xmlns="http://www.w3.org/2000/svg" viewBox="0 0 200 70" class="svg logo replaced-svg"><defs><style>.cls-1{fill:#fff;}</style></defs><g id="Livello_2" data-name="Livello 2"><g id="Livello_1-2" data-name="Livello 1"><path class="cls-1" d="M200,27.59c0-5-3.66-9.79-9.35-9.79a10.18,10.18,0,0,0-10.1,10.42c0,5.81,3.89,10.43,10.1,10.43,4.36,0,9-1.85,9-4.66a2.39,2.39,0,0,0-2.4-2.48c-1.33,0-3.07,1.82-5.91,1.82-3.7,0-4.63-2-4.63-3.22h10.43c1.85,0,2.81-.48,2.81-2.52m-5.77-1.44h-7.47a3.75,3.75,0,0,1,7.47,0m-15.6,9.14V12.59a2.88,2.88,0,1,0-5.76,0v22.7a2.88,2.88,0,1,0,5.76,0M160.4,28.22c0-2.66,1.37-4.88,4.29-4.88,2.26,0,2.66,1,4.14,1a2.49,2.49,0,0,0,2.37-2.69c0-3.07-4.25-3.81-6.84-3.81-5.84,0-9.72,4.62-9.72,10.42s3.88,10.43,9.72,10.43c2.29,0,6.84-1.11,6.84-4a2.58,2.58,0,0,0-2.37-2.55c-.85,0-2,1-4.47,1s-4-2.21-4-4.88m-7.06-15.46a3.44,3.44,0,1,0-3.44,3.44,3.43,3.43,0,0,0,3.44-3.44m-9.13,23.38V20.79a2.86,2.86,0,0,0-2.88-3,2.76,2.76,0,0,0-2.7,2.22,5.76,5.76,0,0,0-5-2.22c-5,0-8.91,4.62-8.91,10.42,0,5.22,2.78,10.06,8.36,10.06a6.27,6.27,0,0,0,5.32-2.22c0,3.22-1.21,5.1-4.8,5.1-3.37,0-4.44-1.7-6.1-1.7A2.67,2.67,0,0,0,125.13,42c0,3.14,5.62,4.29,8.62,4.29,5.66,0,10.46-2.78,10.46-10.13m-5.77-7.92c0,2.81-1.4,5-3.95,5s-4-2.15-4-5c0-2.66,1.41-4.88,4-4.88s3.95,2.22,3.95,4.88m-15.63,7.07V20.79a2.87,2.87,0,0,0-2.89-3,2.77,2.77,0,0,0-2.7,2.22,5.74,5.74,0,0,0-5-2.22c-5,0-8.91,4.62-8.91,10.42s3.88,10.43,8.91,10.43a5.74,5.74,0,0,0,5-2.22,3,3,0,0,0,2.7,1.85,2.87,2.87,0,0,0,2.89-3M117,28.22c0,2.67-1.41,4.88-4,4.88s-4-2.21-4-4.88,1.4-4.88,4-4.88,4,2.22,4,4.88m-15.68,7.07V24.6c0-4.73-3.18-6.8-7.17-6.8a9.07,9.07,0,0,0-5.58,2.36,6.94,6.94,0,0,0-5.36-2.36,5.82,5.82,0,0,0-5,2.22,2.94,2.94,0,0,0-2.88-2.22,2.86,2.86,0,0,0-2.88,3v14.5a2.88,2.88,0,1,0,5.76,0V26.15c0-1.81,1-3.47,2.89-3.47s2.88,1.66,2.88,3.47v9.14a2.89,2.89,0,1,0,5.77,0V26.15c0-1.81,1-3.47,2.88-3.47s2.89,1.66,2.89,3.47v9.14a2.88,2.88,0,1,0,5.76,0m-31-22.53a3.44,3.44,0,1,0-3.44,3.44,3.43,3.43,0,0,0,3.44-3.44m-6.32,8v14.5a2.88,2.88,0,1,0,5.76,0V20.79a2.88,2.88,0,1,0-5.76,0m83,0v14.5a2.89,2.89,0,1,0,5.77,0V20.79a2.89,2.89,0,1,0-5.77,0"></path><path class="cls-1" d="M18,31.57a5.88,5.88,0,1,0,5.87-5.88A5.88,5.88,0,0,0,18,31.57M0,23.91A23.91,23.91,0,1,1,33,46a12.69,12.69,0,0,0,.39-2.47,4.22,4.22,0,0,0-4.22-4.22H18.65a4.22,4.22,0,0,0-4.22,4.22A12.58,12.58,0,0,0,14.82,46,23.9,23.9,0,0,1,0,23.91"></path><path class="cls-1" d="M94.25,69.68l4.4-8.54h-4a4.41,4.41,0,0,1-.09-.89,4.63,4.63,0,0,1,.09-.92h7l.12.18L97.41,68h4.15a4.34,4.34,0,0,1,.08.89,4.47,4.47,0,0,1-.08.91H94.35Z"></path><path class="cls-1" d="M103.41,59.33a4.93,4.93,0,0,1,.54,0l.54,0,.51,0a4.93,4.93,0,0,1,.54,0v5.45a13.28,13.28,0,0,0,.07,1.52,3.23,3.23,0,0,0,.26,1,1.27,1.27,0,0,0,.55.61,1.83,1.83,0,0,0,.93.2,1.77,1.77,0,0,0,.92-.2,1.37,1.37,0,0,0,.55-.61,3.5,3.5,0,0,0,.26-1c0-.42.06-.93.06-1.52V59.33c.2,0,.38,0,.56,0l.51,0,.53,0a5.35,5.35,0,0,1,.55,0v5.9a9.8,9.8,0,0,1-.18,2,3.74,3.74,0,0,1-.62,1.51,3.05,3.05,0,0,1-1.21,1,5.65,5.65,0,0,1-3.86,0,3,3,0,0,1-1.21-1,3.74,3.74,0,0,1-.62-1.51,9.8,9.8,0,0,1-.18-2Z"></path><path class="cls-1" d="M120.48,67.84a5,5,0,0,1,.31.84,5.42,5.42,0,0,1,.19.87,7.36,7.36,0,0,1-1.37.36,8.85,8.85,0,0,1-1.3.09,5.47,5.47,0,0,1-2.18-.4,4.46,4.46,0,0,1-1.57-1.12,4.89,4.89,0,0,1-1-1.72,6.8,6.8,0,0,1-.32-2.16,6.9,6.9,0,0,1,.33-2.17,5.16,5.16,0,0,1,1-1.72,4.39,4.39,0,0,1,1.57-1.14,5.18,5.18,0,0,1,2.1-.41,8.52,8.52,0,0,1,1.29.09,5.42,5.42,0,0,1,1.28.36,3.47,3.47,0,0,1-.17.85c-.1.28-.21.56-.32.84a6.56,6.56,0,0,0-.91-.24,5,5,0,0,0-.93-.08,2.67,2.67,0,0,0-2.16.91,4.19,4.19,0,0,0-.75,2.71q0,3.56,3,3.56a5.34,5.34,0,0,0,1-.07,6.14,6.14,0,0,0,.92-.25"></path><path class="cls-1" d="M129.35,67.84a6.06,6.06,0,0,1,.32.84,6.72,6.72,0,0,1,.18.87,7.36,7.36,0,0,1-1.37.36,8.75,8.75,0,0,1-1.3.09,5.47,5.47,0,0,1-2.18-.4,4.33,4.33,0,0,1-1.56-1.12,4.75,4.75,0,0,1-1-1.72,7.09,7.09,0,0,1-.32-2.16,6.9,6.9,0,0,1,.33-2.17,5.16,5.16,0,0,1,1-1.72A4.39,4.39,0,0,1,125,59.57a5.18,5.18,0,0,1,2.1-.41,8.75,8.75,0,0,1,1.3.09,5.35,5.35,0,0,1,1.27.36,3.47,3.47,0,0,1-.17.85c-.1.28-.21.56-.32.84a6.22,6.22,0,0,0-.91-.24,5,5,0,0,0-.93-.08,2.64,2.64,0,0,0-2.15.91,4.13,4.13,0,0,0-.76,2.71q0,3.56,3,3.56a5.34,5.34,0,0,0,1-.07,5.84,5.84,0,0,0,.92-.25"></path><path class="cls-1" d="M131.73,59.33a7.82,7.82,0,0,1,1.07-.08,8.09,8.09,0,0,1,1.08.08v4.12h3.51V59.33a7.82,7.82,0,0,1,1.07-.08,8.09,8.09,0,0,1,1.08.08V69.82a6.72,6.72,0,0,1-1.07.09,6.56,6.56,0,0,1-1.08-.09V65.29h-3.51v4.53a6.72,6.72,0,0,1-1.07.09,6.56,6.56,0,0,1-1.08-.09Z"></path><path class="cls-1" d="M141.87,59.33h5.95a4.59,4.59,0,0,1,0,1.81H144v2.28h3a5.67,5.67,0,0,1,.08.9,5.52,5.52,0,0,1-.08.92h-3V68h3.93a5.17,5.17,0,0,1,.08.89,5.31,5.31,0,0,1-.08.91h-6.06Z"></path><path class="cls-1" d="M152,61.14h-2.61a4.59,4.59,0,0,1,0-1.81h7.37a4.59,4.59,0,0,1,0,1.81H154.1v8.68l-.53.06-.51,0-.53,0-.58-.06Z"></path><path class="cls-1" d="M160.52,61.14h-2.61a4.59,4.59,0,0,1,0-1.81h7.36a4.59,4.59,0,0,1,0,1.81h-2.61v8.68l-.52.06-.51,0-.54,0a5.51,5.51,0,0,1-.57-.06Z"></path><path class="cls-1" d="M167,59.33a7.82,7.82,0,0,1,1.07-.08,8.09,8.09,0,0,1,1.08.08V69.82a6.72,6.72,0,0,1-1.07.09,6.56,6.56,0,0,1-1.08-.09Z"></path><rect class="cls-1" x="63.43" y="50.46" width="136.57" height="0.83"></rect></g></g></svg>