<svg xmlns="http://www.w3.org/2000/svg" viewBox="0 0 24 24" height="18px" width="18px" fill="#fff">
  <g>
    <path d="M22.5,9.18c-.54,0-.99-.63-.99-1.4v-2.81c0-2.32-1.34-4.21-2.97-4.21h-2.97V3.56h2.97c.54,0,.99,.63,.99,1.4v2.81c0,1.83,.83,3.4,1.98,3.97v.48c-1.15,.58-1.98,2.13-1.98,3.97v2.81c0,.77-.45,1.4-.99,1.4h-2.97v2.81h2.97c1.63,0,2.97-1.9,2.97-4.21v-2.81c0-.77,.45-1.4,.99-1.4h.99v-5.62h-.99Z"/>
    <path d="M1.58,9.18c.54,0,.99-.63,.99-1.4v-2.81C2.57,2.65,3.91,.75,5.54,.75h2.97V3.56h-2.97c-.54,0-.99,.63-.99,1.4v2.81c0,1.83-.83,3.4-1.98,3.97v.48c1.15,.58,1.98,2.13,1.98,3.97v2.81c0,.77,.45,1.4,.99,1.4h2.97v2.81h-2.97c-1.63,0-2.97-1.9-2.97-4.21v-2.81c0-.77-.45-1.4-.99-1.4H.59v-5.62h.99Z"/>
  </g>
  <circle cx="12" cy="17.47" r="1.72"/>
  <circle cx="7.98" cy="17.47" r="1.72"/>
  <circle cx="16.02" cy="17.47" r="1.72"/>
</svg>