<svg xmlns="http://www.w3.org/2000/svg" width="16" height="16" fill="#fff">
    <path d="M1.5 2.75c0-.69.56-1.25 1.25-1.25h.5a.75.75 0 0 0 0-1.5h-.5A2.75 2.75 0 0 0 0 2.75v.5a.75.75 0 0 0 1.5 0v-.5ZM12.75 0a.75.75 0 0 0 0 1.5h.5c.69 0 1.25.56 1.25 1.25v.5a.75.75 0 0 0 1.5 0v-.5A2.75 2.75 0 0 0 13.25 0h-.5ZM1.5 12.75a.75.75 0 0 0-1.5 0v.5A2.75 2.75 0 0 0 2.75 16h.5a.75.75 0 0 0 0-1.5h-.5c-.69 0-1.25-.56-1.25-1.25v-.5Zm14.5 0a.75.75 0 0 0-1.5 0v.5c0 .69-.56 1.25-1.25 1.25h-.5a.75.75 0 0 0 0 1.5h.5A2.75 2.75 0 0 0 16 13.25v-.5ZM7.071 3.431a.75.75 0 0 1 .998-.36C9.826 3.896 11 5.823 11 8c0 2.177-1.174 4.104-2.931 4.929a.75.75 0 0 1-.638-1.358C8.608 11.019 9.5 9.659 9.5 8c0-1.659-.892-3.019-2.069-3.571a.75.75 0 0 1-.36-.998ZM5.05 5.481a.75.75 0 0 1 .968-.431C7.191 5.499 8 6.663 8 8c0 1.337-.81 2.501-1.982 2.95a.75.75 0 0 1-.536-1.4C6.06 9.328 6.5 8.73 6.5 8c0-.73-.44-1.328-1.018-1.55a.75.75 0 0 1-.432-.968Z">
    </path>
</svg>