<svg xmlns="http://www.w3.org/2000/svg" viewBox="0 0 24 24" height="18px" width="18px" fill="#fff">
  <circle cx="11.99" cy="17.48" r="1.72"/>
  <path d="M7.97,15.76c-.95,0-1.72,.77-1.72,1.72s.77,1.72,1.72,1.72,1.72-.77,1.72-1.72-.77-1.72-1.72-1.72Z"/>
  <path d="M15.61,18.66l5.07,5.07,1.57-1.57L1.84,1.75,.26,3.31"/>
  <g>
    <path d="M6.63,3.58h1.86V.77h-2.97c-.46,0-.89,.16-1.27,.43l2.38,2.38Z"/>
    <path d="M4.54,19.02v-2.81c0-1.84-.83-3.4-1.98-3.97v-.48c1.15-.58,1.98-2.15,1.98-3.97v-2.81c0-.11,.01-.22,.03-.33l-1.64-1.64c-.22,.59-.36,1.26-.36,1.97v2.81c0,.77-.45,1.4-.99,1.4H.58v5.62h.99c.54,0,.99,.63,.99,1.4v2.81c0,2.32,1.34,4.21,2.97,4.21h2.97v-2.81h-2.97c-.54,0-.99-.63-.99-1.4Z"/>
  </g>
  <g>
    <path d="M19.52,4.98v2.81c0,1.83,.83,3.4,1.98,3.97v.48c-1.15,.58-1.98,2.13-1.98,3.97v.26l1.98,1.98v-2.24c0-.77,.45-1.4,.99-1.4h.99v-5.62h-.99c-.54,0-.99-.63-.99-1.4v-2.81c0-2.32-1.34-4.21-2.97-4.21h-2.97V3.58h2.97c.54,0,.99,.63,.99,1.4Z"/>
    <path d="M19.45,19.53c-.15,.52-.5,.89-.92,.89h-2.97v2.81h2.97c1.08,0,2.02-.84,2.54-2.08l-1.62-1.62Z"/>
  </g>
  <path d="M17.09,17.18l-1.39-1.39c-.8,.15-1.41,.85-1.41,1.69,0,.95,.77,1.72,1.72,1.72,.84,0,1.54-.61,1.69-1.41l-.61-.61Z"/>
</svg>