<?xml version="1.0" encoding="utf-8"?>
<!-- Generator: Adobe Illustrator 22.1.0, SVG Export Plug-In . SVG Version: 6.00 Build 0)  -->
<svg version="1.1" id="Capa_1" xmlns="http://www.w3.org/2000/svg" xmlns:xlink="http://www.w3.org/1999/xlink" x="0px" y="0px"
	 viewBox="0 0 255.1 198.4" style="enable-background:new 0 0 255.1 198.4;" xml:space="preserve">
<style type="text/css">
	.st0{fill-rule:evenodd;clip-rule:evenodd;}
</style>
<g>
	<g>
		<path class="st0" d="M127.6,198.4c-37,0-74,0-111,0c-9.9,0-16.6-7.9-16.6-19.7c0-39.5,0-79,0-118.6c0-10.1,0.6-10.5,8-5.8
			C42.7,76.2,77.5,98,112.1,120.1c10.4,6.6,20.4,6.7,30.9,0c34.5-21.9,69.1-43.7,103.7-65.5c1.1-0.7,2.2-1.5,3.4-2.1
			c3.7-1.9,5-1,5,3.6c0,41.9,0.1,83.7,0,125.5c0,8.7-7.7,16.7-15.6,16.7C202.2,198.4,164.9,198.4,127.6,198.4z"/>
		<path class="st0" d="M127.5,0c39.4,0,78.8,0,118.2,0c3.2,0,7-0.8,8.4,3.7c1.5,4.5-1.1,7.9-3.4,11.1c-1.6,2.2-3.6,3.6-5.8,5
			c-34.3,22.2-68.5,44.4-102.8,66.6c-9.8,6.3-19.6,6.4-29.4,0C78.6,64.2,44.4,42,10.1,19.8c-3.8-2.5-7.1-5.5-8.9-10.3
			c-2-5.2-0.2-8.8,4.7-9.4C7.3,0,8.7,0,10.2,0C49.3,0,88.4,0,127.5,0z"/>
	</g>
</g>
</svg>
