<?xml version="1.0" encoding="utf-8"?>
<!-- Generator: Adobe Illustrator 22.1.0, SVG Export Plug-In . SVG Version: 6.00 Build 0)  -->
<svg version="1.1" id="Livello_1" focusable="false"
	 xmlns="http://www.w3.org/2000/svg" xmlns:xlink="http://www.w3.org/1999/xlink" x="0px" y="0px" viewBox="0 0 448 512"
	 style="enable-background:new 0 0 448 512;" xml:space="preserve">
<style type="text/css">
	.st0{fill:#2C3E48;}
	.st1{fill:#FFFFFF;}
</style>
<path class="st0" d="M450,432V80c0-26.5-21.5-48-48-48H50C23.5,32,2,53.5,2,80v352c0,26.5,21.5,48,48,48h352
	C428.5,480,450,458.5,450,432z M114,192c-8.8,0-16-7.2-16-16v-32c0-8.8,7.2-16,16-16h226c8.8,0,16,7.2,16,16l1,32
	c0,8.8-8.2,16-17,16H114z M114,288c-8.8,0-16-7.2-16-16v-32c0-8.8,7.2-16,16-16h155c8.8,0,16,7.2,16,16v32c0,8.8-7.2,16-16,16H114z
	 M114,384c-8.8,0-16-7.2-16-16v-32c0-8.8,7.2-16,16-16h111c8.8,0,16,7.2,16,16v32c0,8.8-7.2,16-16,16H114z"/>
<g>
	<polygon class="st1" points="405.1,237.6 365,204.1 262.4,336.1 262.3,378.6 302.4,369.6 	"/>
	<path class="st1" d="M427.8,197L398,172.1c-2.8-2.4-7-1.9-9.2,1L371.8,195l40.1,33.5l17.1-21.9C431.1,203.7,430.7,199.4,427.8,197z
		"/>
</g>
</svg>
