<?xml version="1.0" encoding="utf-8"?>
<!-- Generator: Adobe Illustrator 22.1.0, SVG Export Plug-In . SVG Version: 6.00 Build 0)  -->
<svg version="1.1" id="Livello_1" xmlns="http://www.w3.org/2000/svg" xmlns:xlink="http://www.w3.org/1999/xlink" x="0px" y="0px"
	 viewBox="0 0 224 226" style="enable-background:new 0 0 224 226;" xml:space="preserve">
<style type="text/css">
	.st0{fill:url(#SVGID_1_);}
	.st1{fill:#FFFFFF;}
</style>
<linearGradient id="SVGID_1_" gradientUnits="userSpaceOnUse" x1="-306.125" y1="410.3928" x2="-306.125" y2="409.5044" gradientTransform="matrix(224 0 0 -225.72 68684 92649.125)">
	<stop  offset="0" style="stop-color:#231F20"/>
	<stop  offset="1" style="stop-color:#231F20"/>
</linearGradient>
<path class="st0" d="M41.3,185.5v40.2l37.6-21.4c10.5,3,21.6,4.6,33.2,4.6c61.9,0,112-46.8,112-104.5C224,46.8,173.9,0,112,0
	C50.1,0,0,46.8,0,104.5C0,137.2,16.1,166.4,41.3,185.5L41.3,185.5z"/>
<path class="st1" d="M100,75.9l-60.4,64l55-30.2l28.7,30.2l60.1-64L129,105.5C129,105.5,100,75.9,100,75.9z"/>
</svg>
