<?xml version="1.0" encoding="utf-8"?>
<!-- Generator: Adobe Illustrator 22.1.0, SVG Export Plug-In . SVG Version: 6.00 Build 0)  -->
<svg version="1.1" id="Livello_1" focusable="false"
	 xmlns="http://www.w3.org/2000/svg" xmlns:xlink="http://www.w3.org/1999/xlink" x="0px" y="0px" viewBox="0 0 512 512"
	 style="enable-background:new 0 0 512 512;" xml:space="preserve">
<style type="text/css">
	.st0{fill:#2C3E48;}
</style>
<path class="st0" d="M256.5,8C116.5,8,8,110.3,8,248.6c0,72.3,29.7,134.8,78.1,177.9c8.3,7.5,6.6,11.9,8.1,58.2
	c0.4,11,9.6,19.6,20.6,19.2c2.5-0.1,5-0.6,7.3-1.7c52.9-23.3,53.6-25.1,62.6-22.7c153.3,42.2,319.4-55.9,319.4-231
	C504,110.3,396.6,8,256.5,8z M405.8,193.1l-73,115.6c-11.1,17.4-34.1,22.6-51.6,11.5c-0.8-0.5-1.6-1-2.3-1.6l-58.1-43.5
	c-5.3-4-12.7-4-18,0l-78.4,59.4c-10.5,7.9-24.2-4.6-17.1-15.7l73-115.6c11-17.4,34.1-22.6,51.6-11.6c0.8,0.5,1.6,1.1,2.4,1.6
	l58.1,43.5c5.3,4,12.7,4,18,0l78.4-59.4C399.1,169.5,412.8,182,405.8,193.1L405.8,193.1z"/>
</svg>
