<?xml version="1.0" encoding="utf-8"?>
<!-- Generator: Adobe Illustrator 28.4.1, SVG Export Plug-In . SVG Version: 6.00 Build 0)  -->
<svg version="1.1" id="Layer_1" xmlns="http://www.w3.org/2000/svg" xmlns:xlink="http://www.w3.org/1999/xlink" x="0px" y="0px"
	 viewBox="0 0 800 800" style="enable-background:new 0 0 800 800;" xml:space="preserve">
<style type="text/css">
	.st0{fill:#4296FF;}
</style>
<path class="st0" d="M400,1C179.6,1,1,179.6,1,400c0,64.9,15.5,126.1,43,180.2L2.2,746.8c-3.5,14.4,0.6,29.5,11.1,39.9
	c10.5,10.5,25.6,14.6,39.9,11.1l166.6-41.6C274,783.6,335.2,799,400,799c220.4,0,399-178.7,399-399S620.4,1,400,1z M218.8,499
	l-42.2,0.2c-13.7,0-24.8-11.2-24.8-24.8c0-13.7,11.2-24.8,24.8-24.8h42.2c4.2,0,7.4-3.4,7.4-7.4c0-2.5-1.2-4.8-3.4-6.2l-45.6-30.4
	c-15.8-10.7-25.4-28.5-25.4-47.8c0-31.5,25.6-57.1,57.1-57.1h29.8c13.7,0,24.8,11.2,24.8,24.8s-11.2,24.8-24.8,24.8h-29.8
	c-4.2,0-7.4,3.4-7.4,7.4c0,2.5,1.2,4.8,3.4,6.2l45.6,30.4c16,10.5,25.4,28.4,25.4,47.6C275.9,473.4,250.3,499,218.8,499z
	 M499.3,474.5c0,13.7-11.2,24.8-24.8,24.8c-13.7,0-24.8-11.2-24.8-24.8V400l-29.8,39.7c-4.7,6.2-12.1,9.9-19.9,9.9
	s-15.2-3.7-19.9-9.9L350.4,400v74.5c0,13.7-11.2,24.8-24.8,24.8s-24.8-11.2-24.8-24.8V325.6c0-10.7,6.8-20.2,16.9-23.6
	c10.1-3.4,21.2,0.1,27.7,8.7l54.6,72.8l54.6-72.8c6.4-8.5,17.5-12.1,27.8-8.7c10.2,3.4,16.9,12.9,16.9,23.6V474.5z M591.1,499
	l-42.2,0.2c-13.7,0-24.8-11.2-24.8-24.8c0-13.7,11.2-24.8,24.8-24.8h42.2c4.2,0,7.4-3.4,7.4-7.4c0-2.5-1.2-4.8-3.4-6.2l-45.6-30.4
	c-15.8-10.5-25.4-28.4-25.4-47.6c0-31.5,25.6-57.1,57.1-57.1v-0.2H611c13.7,0,24.8,11.2,24.8,24.8s-11.2,24.8-24.8,24.8h-29.8
	c-4.2,0-7.4,3.4-7.4,7.4c0,2.5,1.2,4.8,3.4,6.2l45.6,30.4c15.8,10.5,25.4,28.4,25.4,47.6C648.2,473.4,622.6,499,591.1,499z"/>
</svg>
