<?xml version="1.0" encoding="utf-8"?>
<!-- Generator: Adobe Illustrator 22.1.0, SVG Export Plug-In . SVG Version: 6.00 Build 0)  -->
<svg version="1.1" id="Layer_1" xmlns="http://www.w3.org/2000/svg" xmlns:xlink="http://www.w3.org/1999/xlink" x="0px" y="0px"
	 viewBox="0 0 309 269.3" style="enable-background:new 0 0 309 269.3;" xml:space="preserve">
<style type="text/css">
	.st0{stroke:#FFFFFF;stroke-miterlimit:10;}
	.st1{fill:#FEFFFF;stroke:#000000;stroke-width:4;stroke-miterlimit:10;}
</style>
<g>
	<path class="st0" d="M305.2,13.7L257.5,254c0,0-6.7,16.7-25,8.7l-110-84.3l-40-19.3l-67.3-22.7c0,0-10.3-3.7-11.3-11.7
		c-1-8,11.7-12.3,11.7-12.3l267.7-105C283.2,7.3,305.2-2.3,305.2,13.7z"/>
	<path class="st1" d="M114.1,251.3c0,0-3.2-0.3-7.2-13c-4-12.7-24.3-79.3-24.3-79.3L244.2,56.3c0,0,9.3-5.7,9,0c0,0,1.7,1-3.3,5.7
		c-5,4.7-127,114.3-127,114.3"/>
	<path class="st1" d="M164.7,210.7l-43.5,39.7c0,0-3.4,2.6-7.1,1l8.3-73.7"/>
</g>
</svg>
