<?xml version="1.0" encoding="utf-8"?>
<!-- Generator: Adobe Illustrator 22.1.0, SVG Export Plug-In . SVG Version: 6.00 Build 0)  -->
<svg version="1.1" id="Livello_1" focusable="false"
	 xmlns="http://www.w3.org/2000/svg" xmlns:xlink="http://www.w3.org/1999/xlink" x="0px" y="0px" viewBox="0 0 448 512"
	 style="enable-background:new 0 0 448 512;" xml:space="preserve">
<style type="text/css">
	.st0{fill:#25D366;}
</style>
<path class="st0" d="M380.9,97.1C339,55.1,283.2,32,223.9,32c-122.4,0-222,99.6-222,222c0,39.1,10.2,77.3,29.6,111L0,480l117.7-30.9
	c32.4,17.7,68.9,27,106.1,27h0.1c122.3,0,224.1-99.6,224.1-222C448,194.8,422.8,139.1,380.9,97.1z M223.9,438.7
	c-33.2,0-65.7-8.9-94-25.7l-6.7-4l-69.8,18.3L72,359.2l-4.4-7c-18.5-29.4-28.2-63.3-28.2-98.2c0-101.7,82.8-184.5,184.6-184.5
	c49.3,0,95.6,19.2,130.4,54.1s56.2,81.2,56.1,130.5C410.5,355.9,325.6,438.7,223.9,438.7z M325.1,300.5c-5.5-2.8-32.8-16.2-37.9-18
	c-5.1-1.9-8.8-2.8-12.5,2.8c-3.7,5.6-14.3,18-17.6,21.8c-3.2,3.7-6.5,4.2-12,1.4c-32.6-16.3-54-29.1-75.5-66
	c-5.7-9.8,5.7-9.1,16.3-30.3c1.8-3.7,0.9-6.9-0.5-9.7s-12.5-30.1-17.1-41.2c-4.5-10.8-9.1-9.3-12.5-9.5c-3.2-0.2-6.9-0.2-10.6-0.2
	c-3.7,0-9.7,1.4-14.8,6.9c-5.1,5.6-19.4,19-19.4,46.3s19.9,53.7,22.6,57.4c2.8,3.7,39.1,59.7,94.8,83.8c35.2,15.2,49,16.5,66.6,13.9
	c10.7-1.6,32.8-13.4,37.4-26.4s4.6-24.1,3.2-26.4C334.3,304.6,330.6,303.2,325.1,300.5z"/>
</svg>
