<?xml version="1.0" encoding="utf-8"?>
<!-- Generator: Adobe Illustrator 22.1.0, SVG Export Plug-In . SVG Version: 6.00 Build 0)  -->
<svg version="1.1" id="Livello_1" xmlns="http://www.w3.org/2000/svg" xmlns:xlink="http://www.w3.org/1999/xlink" x="0px" y="0px"
	 viewBox="0 0 58.1 53.9" style="enable-background:new 0 0 58.1 53.9;" xml:space="preserve">
<style type="text/css">
	.status200_joined0{fill:none;stroke:#4DAF4F;stroke-width:2;stroke-miterlimit:10;}
	.status200_joined1{fill:#4DAF4F;}
</style>
<path class="status200_joined0" d="M29.8,3.7c-13.8,0-25,10-25,22.4c0,4.6,1.5,8.8,4.1,12.3c-0.3,4.1-1.3,9.9-4.1,12.7c0,0,8.6-1.2,14.4-4.7
	c3.2,1.4,6.8,2.1,10.6,2.1c13.8,0,25-10,25-22.4S43.6,3.7,29.8,3.7z"/>
<g id="XMLID_146_">
	<path id="XMLID_158_" class="status200_joined1" d="M25.8,36.5l-8.4-7.4c-1.1-0.9-1.1-2.4,0-3.3s2.8-0.9,3.8,0l4.6,4.1L38.4,19
		c1.1-0.9,2.8-0.9,3.8,0s1,2.4,0,3.3L25.8,36.5z"/>
</g>
</svg>