<?xml version="1.0" encoding="utf-8"?>
<!-- Generator: Adobe Illustrator 28.4.1, SVG Export Plug-In . SVG Version: 6.00 Build 0)  -->
<svg version="1.1" id="Livello_1" xmlns="http://www.w3.org/2000/svg" xmlns:xlink="http://www.w3.org/1999/xlink" x="0px" y="0px"
	 viewBox="0 0 58.1 53.9" style="enable-background:new 0 0 58.1 53.9;" xml:space="preserve">
<style type="text/css">
	.st0{fill:none;stroke:#05BDD4;stroke-miterlimit:10;}
	.st1{fill:#0EBDD4;}
</style>
<path class="st0" d="M29,3.2c-13.8,0-25,10-25,22.4c0,4.6,1.5,8.8,4.1,12.3C7.8,42,6.8,47.9,4,50.7c0,0,8.6-1.2,14.4-4.7
	c3.2,1.4,6.8,2,10.6,2c13.8,0,25-10,25-22.4S42.8,3.2,29,3.2z"/>
<path class="st1" d="M17.6,16.8c-0.4-0.3-1-0.3-1.4,0.2c-0.3,0.4-0.3,1,0.2,1.4l24,18.8c0.4,0.3,1,0.3,1.4-0.2
	c0.3-0.4,0.3-1-0.2-1.4l-11.3-8.8c2.2-0.6,3.8-2.6,3.8-5c0-2.9-2.3-5.2-5.2-5.2c-2.8,0-5.1,2.3-5.2,5.1L17.6,16.8z M26.8,28.9
	c-3.8,0.2-6.8,3.4-6.8,7.2c0,0.7,0.5,1.2,1.2,1.2h15.8c0.2,0,0.3,0,0.4-0.1L26.8,28.9z"/>
</svg>
