<?xml version="1.0" encoding="utf-8"?>
<!-- Generator: Adobe Illustrator 22.1.0, SVG Export Plug-In . SVG Version: 6.00 Build 0)  -->
<svg version="1.1" id="Livello_1" xmlns="http://www.w3.org/2000/svg" xmlns:xlink="http://www.w3.org/1999/xlink" x="0px" y="0px"
	 viewBox="0 0 58.1 53.9" style="enable-background:new 0 0 58.1 53.9;" xml:space="preserve">
<style type="text/css">
	.st0{fill:none;stroke:#999999;stroke-width:2;stroke-miterlimit:10;}
	.st1{fill:#999999;}
</style>
<path class="st0" d="M30.1,2.6c-13.8,0-25,10-25,22.4c0,4.6,1.5,8.8,4.1,12.3C8.9,41.4,7.9,47.2,5.1,50c0,0,8.6-1.2,14.4-4.7
	c3.2,1.4,6.8,2.1,10.6,2.1c13.8,0,25-10,25-22.4S43.9,2.6,30.1,2.6z"/>
<path class="st1" d="M30.4,13.8c-6.3,0-11.4,5-11.4,11.2h-3.8l4.9,4.9l0.1,0.2l5.1-5h-3.8c0-4.8,4-8.7,8.9-8.7s8.9,3.9,8.9,8.7
	s-4,8.7-8.9,8.7c-2.5,0-4.7-1-6.3-2.6L22.3,33c2.1,2,4.9,3.3,8.1,3.3c6.3,0,11.4-5,11.4-11.2S36.7,13.8,30.4,13.8z M29.1,20v6.2
	l5.4,3.2l0.9-1.5L31,25.3V20H29.1z"/>
</svg>
