<svg xmlns="http://www.w3.org/2000/svg" width="80" height="80" viewBox="0 0 80 80">
  <defs>
    <linearGradient id="googel-tag-manager-a" x1="24.691%" x2="74.734%" y1="26.425%" y2="80.127%">
      <stop offset="0%" stop-color="#1A237E" stop-opacity=".2"/>
      <stop offset="100%" stop-color="#1A237E" stop-opacity=".02"/>
    </linearGradient>
    <linearGradient id="googel-tag-manager-b" x1="41.172%" x2="58.444%" y1="30.969%" y2="47.661%">
      <stop offset="0%" stop-opacity=".2"/>
      <stop offset="100%" stop-color="#D8D8D8" stop-opacity="0"/>
    </linearGradient>
    <linearGradient id="googel-tag-manager-c" x1="41.172%" x2="63.155%" y1="30.969%" y2="52.181%">
      <stop offset="0%" stop-opacity=".2"/>
      <stop offset="100%" stop-color="#D8D8D8" stop-opacity="0"/>
    </linearGradient>
  </defs>
  <g fill="none" fill-rule="evenodd">
    <path d="M78.3981822,36.1374609 L43.8625391,1.60181767 C41.7267822,-0.533939222 38.2732178,-0.533939222 36.1374609,1.60181767 L1.60181767,36.1374609 C-0.533939222,38.2732178 -0.533939222,41.7267822 1.60181767,43.8625391 L36.1374609,78.3981822 C38.2732178,80.5339394 41.7267822,80.5339394 43.8625391,78.3981822 L78.3981822,43.8625391 C80.5339394,41.7267822 80.5339394,38.2732178 78.3981822,36.1374609 Z M40,49.0883272 L30.9116728,40 L40,30.9116728 L49.0883272,40 L40,49.0883272 Z"/>
    <path fill="#4285F4" fill-rule="nonzero" d="M78.3060912,36.1816828 L65.6227328,23.4983246 L56.5631912,14.4387828 L40.0295275,30.9724465 L49.0890694,40.0319881 L40.0295275,49.09153 L23.4958639,65.6251934 L36.1792222,78.3085519 C38.3082147,80.4375444 41.7508406,80.4375444 43.8798328,78.3085519 L56.5631912,65.6251934 L65.6227328,56.5656519 L78.3060912,43.8822934 C80.4350837,41.7533012 80.4350837,38.3106753 78.3060912,36.1816828 Z"/>
    <path fill="#4FC3F7" fill-rule="nonzero" d="M56.5631912,14.4387828 L43.8798328,1.75542444 C41.7508406,-0.373567859 38.3082147,-0.373567859 36.1792222,1.75542444 L23.4958639,14.4387828 L14.4363222,23.4983246 L1.75296382,36.1816828 C-0.376028488,38.3106753 -0.376028488,41.7533013 1.75296382,43.8822934 L14.4363222,56.5656519 L23.4958639,65.6251934 L40.0295275,49.09153 L30.9699858,40.0319881 L40.0295275,30.9724465 L56.5631912,14.4387828 Z"/>
    <path fill="#FFF" fill-rule="nonzero" d="M36.1792222,2.20840153 C38.3082147,0.0794092275 41.7508406,0.0794092275 43.8798328,2.20840153 L78.3060913,36.63466 C79.3026409,37.6312097 79.8462134,38.9448431 79.8915113,40.2584769 C79.9368088,38.80895 79.4385341,37.3141256 78.3060913,36.1816828 L43.8798328,1.75542444 C41.7508406,-0.373567859 38.3082147,-0.373567859 36.1792222,1.75542444 L1.75296382,36.1816828 C0.6205211,37.3141256 0.122246306,38.80895 0.167544015,40.2584769 C0.212841723,38.9448431 0.756414225,37.6312097 1.75296382,36.63466 L36.1792222,2.20840153 Z" opacity=".2"/>
    <path fill="url(#googel-tag-manager-a)" fill-rule="nonzero" d="M40.0295275,49.09153 L23.4958639,65.6251934 L36.1792222,78.3085519 C38.3082147,80.4375444 41.7508406,80.4375444 43.8798328,78.3085519 L56.5631912,65.6251934 L40.0295275,49.09153 Z"/>
    <polygon fill="url(#googel-tag-manager-b)" fill-opacity=".8" fill-rule="nonzero" points="40.182 49.166 47.137 56.111 29.993 72.041 23.652 65.699"/>
    <polygon fill="url(#googel-tag-manager-c)" fill-opacity=".8" fill-rule="nonzero" points="56.56 14.52 63.515 21.465 46.371 37.395 40.03 31.054"/>
  </g>
</svg>
