<?xml version="1.0" encoding="utf-8"?>
<!-- Generator: Adobe Illustrator 22.1.0, SVG Export Plug-In . SVG Version: 6.00 Build 0)  -->
<svg version="1.1" id="Livello_1" xmlns="http://www.w3.org/2000/svg" xmlns:xlink="http://www.w3.org/1999/xlink" x="0px" y="0px"
	 viewBox="0 0 80 58" style="enable-background:new 0 0 80 58;" xml:space="preserve">
<style type="text/css">
	.st0{fill:#00A1E0;}
</style>
<path class="st0" d="M33.3,7.1c2.6-2.7,6.2-4.4,10.1-4.4c5.3,0,9.9,2.9,12.3,7.3c2.2-1,4.6-1.5,7-1.5C72.3,8.6,80,16.4,80,26
	c0,9.6-7.7,17.4-17.2,17.4c-1.2,0-2.3-0.1-3.4-0.3c-2.2,3.9-6.3,6.5-11,6.5c-2,0-3.8-0.5-5.5-1.3c-2.2,5.2-7.3,8.8-13.2,8.8
	c-6.2,0-11.5-3.9-13.5-9.4c-0.9,0.2-1.8,0.3-2.7,0.3C6,47.9,0,41.8,0,34.4c0-5,2.7-9.4,6.7-11.7c-0.8-1.9-1.3-4-1.3-6.2
	C5.4,7.9,12.4,1,20.9,1C26,1,30.5,3.4,33.3,7.1z M11.6,30c-0.1,0.1,0,0.2,0,0.2c0.1,0.1,0.3,0.2,0.5,0.3c0.8,0.4,1.6,0.6,2.4,0.6
	c1.6,0,2.7-0.9,2.7-2.3v0c0-1.3-1.1-1.8-2.2-2.1l-0.1,0c-0.8-0.3-1.5-0.5-1.5-1v0c0-0.5,0.4-0.8,1-0.8c0.7,0,1.5,0.2,2.1,0.5
	c0,0,0.2,0.1,0.2-0.1c0-0.1,0.3-0.8,0.3-0.9c0-0.1,0-0.2-0.1-0.2c-0.6-0.4-1.5-0.6-2.4-0.6l-0.2,0c-1.5,0-2.6,0.9-2.6,2.2v0
	c0,1.4,1.2,1.8,2.2,2.1l0.2,0.1c0.8,0.2,1.5,0.5,1.5,1v0c0,0.5-0.4,0.9-1.2,0.9c-0.7,0-1.5-0.2-2.1-0.6c-0.1-0.1-0.2-0.1-0.3-0.2
	c0,0-0.2-0.1-0.2,0.1L11.6,30L11.6,30z M35.6,30c0,0.1,0,0.2,0,0.2c0.2,0.1,0.3,0.2,0.5,0.3c0.8,0.4,1.6,0.6,2.4,0.6
	c1.6,0,2.7-0.9,2.7-2.3v0c0-1.3-1.2-1.8-2.2-2.1l-0.1,0c-0.8-0.3-1.5-0.5-1.5-1v0c0-0.5,0.4-0.8,1-0.8c0.7,0,1.5,0.2,2.1,0.5
	c0,0,0.2,0.1,0.2-0.1c0-0.1,0.3-0.8,0.3-0.9c0-0.1,0-0.2-0.1-0.2c-0.6-0.4-1.5-0.6-2.3-0.6l-0.2,0c-1.5,0-2.5,0.9-2.5,2.2v0
	c0,1.4,1.2,1.8,2.2,2.1l0.2,0.1c0.8,0.2,1.5,0.5,1.5,1v0c0,0.5-0.4,0.9-1.2,0.9c-0.7,0-1.5-0.2-2.1-0.6c-0.1-0.1-0.2-0.1-0.3-0.2
	c0,0-0.2-0.1-0.2,0.1L35.6,30L35.6,30z M52,27.3c0,0.8-0.1,1.4-0.4,1.9c-0.3,0.4-0.7,0.7-1.3,0.7c-0.6,0-1-0.2-1.3-0.7
	c-0.3-0.4-0.4-1.1-0.4-1.9c0-0.8,0.1-1.4,0.4-1.9c0.3-0.4,0.7-0.6,1.3-0.6s1,0.2,1.3,0.6C51.9,25.9,52,26.5,52,27.3L52,27.3z
	 M53.4,25.8c-0.1-0.4-0.3-0.8-0.6-1.2c-0.3-0.3-0.6-0.6-1.1-0.8c-0.4-0.2-0.9-0.3-1.5-0.3c-0.6,0-1,0.1-1.5,0.3
	c-0.4,0.2-0.8,0.5-1.1,0.8c-0.3,0.4-0.5,0.8-0.6,1.2c-0.1,0.5-0.2,0.9-0.2,1.5c0,0.5,0.1,1,0.2,1.5c0.1,0.5,0.3,0.9,0.6,1.2
	c0.3,0.3,0.6,0.6,1.1,0.8c0.4,0.2,0.9,0.3,1.5,0.3c0.6,0,1-0.1,1.5-0.3c0.4-0.2,0.8-0.5,1.1-0.8c0.3-0.3,0.5-0.7,0.6-1.2
	c0.1-0.5,0.2-0.9,0.2-1.5C53.6,26.8,53.5,26.3,53.4,25.8z M64.6,29.6c0-0.1-0.2-0.1-0.2-0.1c-0.2,0.1-0.4,0.1-0.6,0.2
	c-0.2,0-0.5,0.1-0.8,0.1c-0.7,0-1.2-0.2-1.6-0.6c-0.4-0.4-0.6-1-0.6-1.9c0-0.8,0.2-1.4,0.5-1.8c0.3-0.4,0.8-0.7,1.5-0.7
	c0.6,0,1,0.1,1.4,0.2c0,0,0.1,0,0.2-0.1c0.1-0.3,0.2-0.6,0.3-0.9c0-0.1-0.1-0.1-0.1-0.2c-0.3-0.1-0.6-0.2-0.9-0.2
	c-0.3,0-0.7-0.1-1-0.1c-0.6,0-1.1,0.1-1.5,0.3c-0.4,0.2-0.8,0.5-1.1,0.8c-0.3,0.3-0.5,0.8-0.7,1.2c-0.1,0.5-0.2,1-0.2,1.5
	c0,1.1,0.3,2.1,0.9,2.7c0.6,0.7,1.5,1,2.7,1c0.7,0,1.4-0.1,1.9-0.3c0,0,0.1,0,0.1-0.2L64.6,29.6L64.6,29.6z M67,26.5
	c0.1-0.4,0.2-0.8,0.4-1.1c0.3-0.4,0.7-0.7,1.3-0.7c0.6,0,1,0.2,1.3,0.7c0.2,0.3,0.3,0.7,0.3,1.1H67z M71.6,25.6
	c-0.1-0.4-0.3-0.8-0.6-1.1c-0.3-0.3-0.6-0.5-0.9-0.7c-0.4-0.2-0.9-0.3-1.3-0.3c-0.6,0-1.1,0.1-1.5,0.3c-0.4,0.2-0.8,0.5-1.1,0.8
	c-0.3,0.4-0.5,0.8-0.6,1.2c-0.1,0.5-0.2,1-0.2,1.5c0,0.5,0.1,1,0.2,1.5c0.1,0.5,0.4,0.8,0.7,1.2c0.3,0.3,0.7,0.6,1.2,0.8
	c0.5,0.2,1,0.3,1.7,0.3c1.3,0,2-0.3,2.3-0.5c0.1,0,0.1-0.1,0-0.2l-0.3-0.8c0-0.1-0.2-0.1-0.2-0.1c-0.3,0.1-0.8,0.3-1.9,0.3
	c-0.7,0-1.3-0.2-1.6-0.5c-0.3-0.3-0.5-0.8-0.5-1.5l4.6,0c0,0,0.1,0,0.1-0.1C71.8,27.5,71.9,26.6,71.6,25.6z M29.9,26.5
	c0.1-0.4,0.2-0.8,0.4-1.1c0.3-0.4,0.7-0.7,1.3-0.7c0.6,0,1,0.2,1.3,0.7c0.2,0.3,0.3,0.7,0.3,1.1H29.9L29.9,26.5z M34.5,25.6
	c-0.1-0.4-0.3-0.8-0.6-1.1c-0.3-0.3-0.6-0.5-0.9-0.7c-0.4-0.2-0.9-0.3-1.3-0.3c-0.6,0-1.1,0.1-1.5,0.3c-0.4,0.2-0.8,0.5-1.1,0.8
	c-0.3,0.4-0.5,0.8-0.6,1.2c-0.1,0.5-0.2,1-0.2,1.5c0,0.5,0.1,1,0.2,1.5c0.1,0.5,0.4,0.8,0.7,1.2c0.3,0.3,0.7,0.6,1.2,0.8
	c0.5,0.2,1,0.3,1.7,0.3c1.3,0,2-0.3,2.3-0.5c0,0,0.1-0.1,0-0.2l-0.3-0.8c0-0.1-0.2-0.1-0.2-0.1c-0.3,0.1-0.8,0.3-1.9,0.3
	c-0.7,0-1.3-0.2-1.6-0.5c-0.3-0.3-0.5-0.8-0.5-1.5l4.6,0c0,0,0.1,0,0.1-0.1C34.6,27.5,34.8,26.6,34.5,25.6z M19.9,29.6
	c-0.2-0.1-0.2-0.2-0.3-0.3c-0.1-0.1-0.1-0.3-0.1-0.6c0-0.4,0.1-0.7,0.4-0.9c0,0,0.4-0.3,1.3-0.3c0.7,0,1.3,0.1,1.3,0.1v2.1
	c0,0-0.6,0.1-1.3,0.2C20.3,29.9,19.9,29.6,19.9,29.6L19.9,29.6z M21.7,26.3c-0.2,0-0.5,0-0.7,0c-0.4,0-0.8,0-1.1,0.1
	c-0.3,0.1-0.7,0.2-1,0.4c-0.3,0.2-0.5,0.5-0.7,0.8C18,28,18,28.3,18,28.7c0,0.4,0.1,0.8,0.2,1.1c0.1,0.3,0.3,0.5,0.6,0.7
	c0.3,0.2,0.6,0.3,0.9,0.4c0.4,0.1,0.8,0.1,1.2,0.1c0.5,0,1,0,1.4-0.1c0.4-0.1,0.8-0.1,1.2-0.2c0.2,0,0.3-0.1,0.3-0.1
	c0.1,0,0.1-0.2,0.1-0.2l0-4.2c0-0.9-0.2-1.6-0.7-2c-0.5-0.4-1.2-0.6-2.1-0.6c-0.4,0-0.8,0-1.2,0.1c0,0-1,0.2-1.4,0.5
	c0,0-0.1,0.1,0,0.2l0.3,0.9c0,0.1,0.2,0.1,0.2,0.1s0,0,0.1,0c0.9-0.5,2-0.5,2-0.5c0.5,0,0.9,0.1,1.1,0.3c0.3,0.2,0.4,0.5,0.4,1.1
	v0.2C22.1,26.3,21.7,26.3,21.7,26.3z M59.1,23.9c0-0.1,0-0.1-0.1-0.2c0,0,0,0,0,0c-0.3-0.1-0.5-0.1-0.8-0.1c-0.6,0-0.9,0.1-1.2,0.2
	c-0.3,0.1-0.6,0.3-0.8,0.6v-0.6c0-0.1-0.1-0.1-0.1-0.1H55c-0.1,0-0.1,0.1-0.1,0.1v6.9c0,0.1,0.1,0.1,0.1,0.1h1.2
	c0.1,0,0.1-0.1,0.1-0.1v-3.5c0-0.5,0.1-0.9,0.2-1.2c0.1-0.3,0.2-0.5,0.4-0.7c0.2-0.2,0.4-0.3,0.6-0.3c0.2-0.1,0.5-0.1,0.6-0.1
	c0.2,0,0.5,0.1,0.5,0.1c0.1,0,0.1,0,0.2-0.1C58.8,24.7,59.1,24,59.1,23.9z M47.7,20.7c-0.2,0-0.3-0.1-0.5-0.1c-0.2,0-0.4,0-0.6,0
	c-0.8,0-1.5,0.2-2,0.7c-0.5,0.5-0.8,1.2-0.9,2.1l-0.1,0.3h-1.1c0,0-0.1,0-0.2,0.1l-0.2,1c0,0.1,0,0.1,0.2,0.1h1l-1,5.8
	c-0.1,0.5-0.2,0.9-0.3,1.1c-0.1,0.3-0.2,0.5-0.3,0.7c-0.1,0.2-0.2,0.3-0.4,0.3c-0.2,0.1-0.3,0.1-0.5,0.1c-0.1,0-0.3,0-0.4,0
	c-0.1,0-0.2,0-0.2-0.1c0,0-0.1,0-0.2,0.1c0,0.1-0.3,0.8-0.3,0.9c0,0.1,0,0.2,0.1,0.2c0.1,0,0.2,0.1,0.4,0.1c0.3,0.1,0.5,0.1,0.7,0.1
	c0.4,0,0.8-0.1,1.1-0.2c0.3-0.1,0.6-0.3,0.9-0.6c0.3-0.3,0.4-0.6,0.6-1c0.2-0.5,0.3-1,0.4-1.6l1-5.9h1.5c0,0,0.1,0,0.2-0.1l0.2-1
	c0-0.1,0-0.1-0.2-0.1h-1.5c0,0,0.1-0.6,0.2-1c0.1-0.2,0.2-0.4,0.3-0.5c0.1-0.1,0.2-0.2,0.4-0.2c0.1,0,0.3-0.1,0.5-0.1
	c0.1,0,0.3,0,0.4,0c0.1,0,0.2,0,0.2,0.1c0.2,0,0.2,0,0.2-0.1l0.4-1C47.8,20.8,47.7,20.7,47.7,20.7z M27,30.7v-9.9
	c0-0.1-0.1-0.1-0.1-0.1h-1.2c-0.1,0-0.1,0.1-0.1,0.1v9.9c0,0.1,0.1,0.1,0.1,0.1h1.2C26.9,30.9,27,30.8,27,30.7L27,30.7z"/>
</svg>
