<svg xmlns="http://www.w3.org/2000/svg" width="80" height="80" viewBox="0 0 80 80">
  <path fill="#464342" fill-rule="evenodd" d="M40.0010841,5.60560654 C48.9733999,5.60560654 57.142835,9.04386882 63.2666589,14.6731715 C60.2651489,14.5926356 57.2698339,16.376815 57.1459326,20.4624618 C56.8934836,28.7220351 67.0224184,30.4814342 61.5645642,47.0950556 L57.049909,60.8372633 L44.7542494,24.6178031 C44.5637511,24.0571495 44.7852248,23.7381035 45.474426,23.7381035 L48.9506331,23.7381035 C49.1312967,23.7381035 49.2789871,23.5838464 49.2789871,23.3949278 L49.2789871,21.3359972 C49.2789871,21.1471561 49.130925,20.9850931 48.9506331,20.9928989 C42.3675998,21.2807682 35.8232857,21.2827196 29.3184652,20.9928989 C29.1372595,20.9851551 28.9901266,21.1477756 28.9901266,21.3367251 L28.9901266,23.3956557 C28.9901266,23.5843729 29.137879,23.7388315 29.3184807,23.7388315 L32.8137376,23.7388315 C33.591234,23.7388315 33.8089132,23.9979092 33.9922097,24.4990746 L39.044287,38.3156232 L31.4444883,61.2637008 L18.9521354,24.4680993 C18.7972587,24.0065668 18.9846595,23.7386301 19.4291555,23.7386301 L23.4118093,23.7386301 C23.592411,23.7386301 23.7401014,23.5843729 23.7401014,23.3954544 L23.7401014,21.3365238 C23.7401014,21.1476827 23.5918845,20.9839625 23.4118093,20.9934255 C19.2332365,21.2153793 15.0387114,21.2600147 11.1314826,21.3001278 C17.2628954,11.8551284 27.9015294,5.60492508 39.9989468,5.60492508 L39.9989019,5.60482905 L40.0010841,5.60560654 Z M70.2515972,23.6224107 C72.8945677,28.4918883 74.3953227,34.071011 74.3953227,39.9990707 C74.3953227,53.0094862 67.1664537,64.3332946 56.508615,70.1783405 L67.2353738,39.7961823 C68.8972006,35.0941263 70.4397723,28.7395361 70.2508228,23.6224107 L70.2507608,23.6224107 L70.2515972,23.6224107 Z M51.5161653,72.4147597 C47.9152825,73.6955899 44.0402679,74.3940837 40.0010841,74.3940837 C36.5210051,74.3940837 33.1632787,73.8752468 29.9975994,72.9150114 L40.5934874,42.5498897 L51.5160104,72.4163085 L51.5160104,72.416307 L51.5161653,72.4147597 Z M25.2831533,71.0921129 C13.6517598,65.5758702 5.60607117,53.7257908 5.60607117,40.0006195 C5.60607117,34.9126108 6.71289736,30.0826267 8.6966353,25.7370968 L25.2839741,71.0927324 L25.2839741,71.0927324 L25.2831533,71.0921129 Z M40,2.37797654 C60.773609,2.37797654 77.6210942,19.2254617 77.6210942,39.9990707 C77.6210942,60.7726798 60.773609,77.6201649 40,77.6201649 C19.226391,77.6201649 2.3789058,60.7726798 2.3789058,39.9990707 C2.3789058,19.2254617 19.226391,2.37797654 40,2.37797654 L40,2.37797654 Z M40,0 C62.0869633,0 80,17.9130367 80,40 C80,62.0869633 62.0869633,80 40,80 C17.9130367,80 0,62.0869633 0,40 C0,17.9130367 17.9130367,6.87790622e-15 40,0 Z"/>
</svg>
