<svg xmlns="http://www.w3.org/2000/svg" viewBox="0 0 172.41 172.41"><defs><style>.cls-1{fill:#ff4a00;}.cls-2{fill:#fff;}</style></defs><title>zapier</title><g id="Layer_2" data-name="Layer 2"><g id="Layer_1-2" data-name="Layer 1"><path class="cls-1" d="M171.21,71.83H120.89l35.58-35.57a86.54,86.54,0,0,0-20.32-20.32L100.57,51.52V1.2A85.87,85.87,0,0,0,86.25,0h-.09A86.66,86.66,0,0,0,71.84,1.2V51.52L36.25,15.94a86.44,86.44,0,0,0-11,9.3l0,0a85.55,85.55,0,0,0-9.29,11L51.52,71.83H1.2S0,81.29,0,86.17v.06a85.74,85.74,0,0,0,1.2,14.34H51.53l-35.6,35.57a86.58,86.58,0,0,0,20.33,20.32l35.58-35.57v50.32a87.51,87.51,0,0,0,14.3,1.2h.12a87.8,87.8,0,0,0,14.3-1.2V120.89l35.59,35.58a86.48,86.48,0,0,0,11-9.31h0a87.19,87.19,0,0,0,9.29-11l-35.57-35.59h50.32a86.51,86.51,0,0,0,1.2-14.3v-.13a85.72,85.72,0,0,0-1.2-14.3Z"/><path class="cls-2" d="M107.76,86.24a51.66,51.66,0,0,1-3.32,18.2,51.66,51.66,0,0,1-18.2,3.32h-.07A51.72,51.72,0,0,1,68,104.44a51.62,51.62,0,0,1-3.32-18.2v-.08A51.56,51.56,0,0,1,68,68a51.5,51.5,0,0,1,18.21-3.32h.07A51.34,51.34,0,0,1,104.43,68a51.43,51.43,0,0,1,3.31,18.2v.08h0Z"/></g></g></svg>