<svg xmlns="http://www.w3.org/2000/svg" width="52" height="52">
    <path data-name="Kształt 3468"  transform="translate(-160 -63)" style="fill:#d3d7e0;fill-rule:evenodd"
        d="M203.789 76.684v8.183s-5.446.027-5.473 0v-8.183h-8.211s.028-5.446 0-5.474h8.211V63h5.473v8.21H212v5.474h-8.211Zm-8.21 10.947v-8.21h-8.211v-8.21h-21.894A5.49 5.49 0 0 0 160 76.684v32.842a5.49 5.49 0 0 0 5.474 5.474h32.842a5.489 5.489 0 0 0 5.473-5.474V87.632h-8.21Zm-30.105 21.894 8.21-10.947 5.474 8.21 8.21-10.947 10.948 13.684h-32.842Z"/>
</svg>