<svg version="1.1" id="Layer_1" xmlns="http://www.w3.org/2000/svg"
    xmlns:xlink="http://www.w3.org/1999/xlink" x="0px" y="0px" viewBox="0 0 24 24"
    style="enable-background:new 0 0 24 24; width: 30px; height: auto; vertical-align: middle;" fill="#6c6859" xml:space="preserve">
    <path d="M10.1,2c0.7,0,1.1,0.7,1.1,1.4v4.3h-0.9c-0.3-0.7-1-1.2-1.9-1.2c-1.1,0-2,0.9-2,2s0.9,2,2,2
            c0.8,0,1.6-0.5,1.9-1.3h0.9v10.9c0,0.6-0.3,1.2-0.8,1.5C10,21.8,9.5,22,8.9,22c-1.5,0-2.6-0.8-3.4-1.7c-0.5-0.7-0.9-1.4-1-2.1
            c-0.4-0.1-0.9-0.3-1.3-0.7c-0.7-0.6-1.3-1.6-1.3-3c0-0.8,0.1-1.4,0.2-2h4.2c0.7,0,1.2,0.5,1.3,1.2c-0.7,0.3-1.2,1-1.2,1.8
            c0,1.1,0.9,2,2,2s2-0.9,2-2c0-0.8-0.5-1.6-1.3-1.9C9.1,12.2,7.9,11,6.4,11H3c0.1-0.1,0.3-0.2,0.4-0.3c0,0,0,0,0.1,0
            c-0.1-0.4-0.2-0.8-0.2-1.1c0-0.7,0.1-1.5,0.3-2.2c0.2-0.7,0.6-1.3,1-1.8C5,5.3,5.4,5.1,5.8,5C6,4.2,6.5,3.5,7.1,3
            C8,2.4,9.1,2,10.1,2z M12.8,17h1.6c1.6,0,2.9-1.3,2.9-2.9v-1.8c0.7-0.3,1.2-1,1.2-1.9c0-1.1-0.9-2-2-2s-2,0.9-2,2
            c0,0.8,0.5,1.6,1.2,1.9v1.8c0,0.7-0.6,1.4-1.4,1.4h-1.6v-7c0,0,0,0,0,0c0,0,0,0,0,0V3.4c0-0.7,0.4-1.4,1.1-1.4c1.1,0,2.2,0.4,3,1
            c0.6,0.5,1.2,1.2,1.4,2c0.4,0.1,0.8,0.3,1.1,0.6c0.5,0.5,0.8,1.1,1,1.8c0.2,0.7,0.3,1.4,0.3,2.2c0,0.4-0.1,0.8-0.2,1.1
            c0,0,0,0,0.1,0c0.4,0.2,0.7,0.4,0.9,0.8c0.4,0.7,0.6,1.7,0.6,2.9c0,1.4-0.6,2.4-1.3,3c-0.4,0.4-0.9,0.6-1.3,0.7
            c-0.1,0.7-0.5,1.5-1,2.1c-0.7,0.9-1.8,1.7-3.4,1.7c-0.6,0-1.1-0.2-1.6-0.4c-0.5-0.3-0.8-0.9-0.8-1.5V17z M8,8.5C8,8.2,8.2,8,8.5,8
            S9,8.2,9,8.5S8.8,9,8.5,9S8,8.8,8,8.5z M8.5,15C8.2,15,8,15.2,8,15.5S8.2,16,8.5,16S9,15.8,9,15.5S8.8,15,8.5,15z M16,10.5
            c0,0.3,0.2,0.5,0.5,0.5s0.5-0.2,0.5-0.5S16.8,10,16.5,10S16,10.2,16,10.5z" />
</svg>