<svg version="1.1" id="Layer_1" xmlns:x="ns_extend;" xmlns:i="ns_ai;" xmlns:graph="ns_graphs;" xmlns="http://www.w3.org/2000/svg" xmlns:xlink="http://www.w3.org/1999/xlink" x="0px" y="0px" viewBox="0 0 449.5 75" style="enable-background:new 0 0 449.5 75;" xml:space="preserve">
 <style type="text/css">
  .st0{fill:#39594D;}
	.st1{fill-rule:evenodd;clip-rule:evenodd;fill:#39594D;}
	.st2{fill-rule:evenodd;clip-rule:evenodd;fill:#D18EE2;}
	.st3{fill:#FF7759;}
 </style>
 <metadata>
  <sfw xmlns="ns_sfw;">
   <slices>
   </slices>
   <sliceSourceBounds bottomLeftOrigin="true" height="75" width="449.5" x="-347.6" y="0.5">
   </sliceSourceBounds>
  </sfw>
 </metadata>
 <g>
  <path class="st0" d="M126.6,75c11.1,0,20.9-5.6,24.7-16.8c0.7-2.3-0.3-3.7-2.5-3.7h-4.2c-1.9,0-3.2,0.9-4.1,2.7
		c-3.3,6.5-7.9,8.9-13.7,8.9c-10.3,0-16.6-7.2-16.6-19.2c0-12,6.5-19.2,16.4-19.2c6,0,10.9,2.6,14,8.7c1,1.8,2.1,2.7,4.1,2.7h4.2
		c2.1,0,3.2-1.4,2.5-3.4c-4.5-12.2-14.6-16.9-24.9-16.9c-15.5,0-27.1,11.5-27.1,28.2C99.5,63.5,110.6,75,126.6,75z M407,41.9
		c1.4-9.1,7.6-14.8,16.1-14.8c8.5,0,14.8,5.8,15.5,14.8H407z M423.5,75c9.9,0,19.7-4.6,24.5-15c1.2-2.5,0.1-4.2-2-4.2h-4
		c-1.9,0-3.1,0.9-4.1,2.6c-3.2,5.7-8.8,8-14.5,8c-9.7,0-16.1-6.6-16.8-17.5H446c2.1,0,3.5-1.2,3.5-3.4
		c-0.4-16.8-11.4-26.9-26.5-26.9C408,18.6,396,29.6,396,46.8C396,64.1,407.6,75,423.5,75L423.5,75z M361.1,48.2h3.5
		c2.1,0,3.3-1.2,3.6-3.4c2-14.5,10.5-16.4,19.5-16c1.9,0.1,3.5-1.4,3.5-3.3v-3.3c0-2.1-1.1-3.4-3.2-3.5c-8-0.3-15.1,2.4-19.2,10.2
		c-0.2,0.4-0.9,0.3-0.9-0.2l-0.7-5.8c-0.2-2.1-1.4-3.2-3.5-3.2h-16.2c-1.9,0-3.4,1.5-3.4,3.4v1.8c0,1.9,1.5,3.4,3.4,3.4h6.6
		c1.9,0,3.4,1.5,3.4,3.4v13.1C357.7,46.7,359.3,48.2,361.1,48.2L361.1,48.2z M346.7,73.9h33.5c2.1,0,3.4-1.3,3.4-3.4v-1.8
		c0-2.1-1.3-3.4-3.4-3.4h-8.6c-2.1,0-3.4-1.3-3.4-3.4v-5.9c0-2.1-1.3-3.4-3.4-3.4h-3.6c-2.1,0-3.4,1.3-3.4,3.4v5.9
		c0,2.1-1.3,3.4-3.4,3.4h-7.6c-2.1,0-3.4,1.3-3.4,3.4v1.8C343.2,72.6,344.5,73.9,346.7,73.9L346.7,73.9z M294.9,41.9
		c1.4-9.1,7.6-14.8,16.1-14.8c8.5,0,14.8,5.8,15.5,14.8H294.9z M311.4,75c9.9,0,19.7-4.6,24.5-15c1.2-2.5,0.1-4.2-2-4.2h-4
		c-1.9,0-3.1,0.9-4.1,2.6c-3.2,5.7-8.8,8-14.5,8c-9.8,0-16.1-6.6-16.8-17.5h39.3c2.1,0,3.5-1.2,3.5-3.4
		C337,28.7,326.1,18.6,311,18.6c-15.1,0-27.1,10.9-27.1,28.2C283.9,64.1,295.6,75,311.4,75L311.4,75z M187.5,75
		c16.1,0,27.5-11.9,27.5-28.2c0-16.3-11.5-28.2-27.5-28.2c-16.1,0-27.5,12.1-27.5,28.2c0,3.7,0.6,7.9,2.6,12.5
		c1,2.3,2.8,2.6,4.7,1.2l3.1-2.3c1.6-1.2,2-2.6,1.5-4.6c-0.9-2.7-1.1-5-1.1-7.1c0-11.2,6.7-19,16.7-19s16.7,7.6,16.7,19.2
		c0,11.6-6.6,19.2-16.5,19.2c-3.4,0-6.6-0.6-10.5-3.5c-1.6-1.3-3.1-1.5-4.8-0.2L170,64c-1.9,1.4-2.1,3.3-0.3,4.8
		C175.3,73.3,181.7,75,187.5,75L187.5,75z M228.6,73.9h3.5c1.9,0,3.4-1.5,3.4-3.4V44.9c0-10.8,5.8-17.2,14.8-17.2
		c8.1,0,12.9,5.4,12.9,15.2v27.6c0,1.9,1.5,3.4,3.4,3.4h3.6c1.9,0,3.4-1.5,3.4-3.4V41.1c0-14.5-7.4-22.5-19.9-22.5
		c-8.5,0-13.6,3.5-17.3,8.4c-0.3,0.4-0.9,0.2-0.9-0.3V3.4c0-1.9-1.6-3.4-3.4-3.4h-3.5c-1.9,0-3.4,1.5-3.4,3.4v67.1
		C225.2,72.4,226.7,73.9,228.6,73.9z">
  </path>
  <g>
   <g>
    <path class="st1" d="M24.3,44.7c2,0,6-0.1,11.6-2.4c6.5-2.7,19.3-7.5,28.6-12.5c6.5-3.5,9.3-8.1,9.3-14.3C73.8,7,66.9,0,58.3,0
				h-36C10,0,0,10,0,22.3S9.4,44.7,24.3,44.7z">
    </path>
    <path class="st2" d="M30.4,60c0-6,3.6-11.5,9.2-13.8l11.3-4.7C62.4,36.8,75,45.2,75,57.6C75,67.2,67.2,75,57.6,75l-12.3,0
				C37.1,75,30.4,68.3,30.4,60z">
    </path>
    <path class="st3" d="M12.9,47.6L12.9,47.6C5.8,47.6,0,53.4,0,60.5v1.7C0,69.2,5.8,75,12.9,75h0c7.1,0,12.9-5.8,12.9-12.9v-1.7
				C25.7,53.4,20,47.6,12.9,47.6z">
    </path>
   </g>
  </g>
 </g>
</svg>