<?xml version="1.0" encoding="utf-8"?>
<!-- Generator: Adobe Illustrator 26.4.1, SVG Export Plug-In . SVG Version: 6.00 Build 0)  -->
<svg version="1.1" id="Livello_1" xmlns="http://www.w3.org/2000/svg" xmlns:xlink="http://www.w3.org/1999/xlink" x="0px" y="0px"
	 viewBox="0 0 401.4 73.2" style="enable-background:new 0 0 401.4 73.2;" xml:space="preserve">
<g>
	<g>
		<path d="M90.1,27.6c3.6,0,6.7,2.1,7.6,5.6h8c-0.9-7.4-7.6-12.4-15.6-12.4c-9.2,0-16.9,6.8-16.9,16.7c0,10.4,7.4,17.1,16.8,17.1
			c7.6,0,14.5-4.6,15.7-12.4h-8c-1,3.7-4,5.7-7.6,5.7c-4.9,0-8.5-4.3-8.5-10.3C81.7,31.7,85.1,27.6,90.1,27.6z"/>
		<path d="M130.1,39.5c0,5.7-3.2,8.3-6.7,8.3c-3.9,0-6.4-2.6-6.4-7.2v-19h-8.2v20.3c0,8.4,4.9,12.7,11.9,12.7c4.1,0,7.5-1.5,9.5-4.5
			V54h7.9V21.6h-8.1V39.5z"/>
		<path d="M158.7,34.5l-4.3-0.9c-1.2-0.2-2.3-0.6-3.1-1.1c-0.8-0.5-1.2-1.2-1.2-2.1c0-1.5,1.6-3.2,4.8-3.2c1.9,0,5.5,0.8,5.9,4.1
			h7.8c-0.3-1.8-1.9-10.5-13.6-10.5c-3.9,0-6.9,1-9.2,2.9c-2.2,1.9-3.4,4.3-3.4,7.2c0,2,0.5,3.6,1.5,4.8c1,1.3,2.3,2.2,3.9,3
			c1.6,0.7,3.3,1.3,5.1,1.6l4.5,0.9c1.3,0.3,2.4,0.6,3,1.3c1.7,1.7,0.8,5.6-4.7,5.6c-5.8,0-6.7-4.2-6.8-5.4h-7.9c0,2.4,1.9,12,15,12
			c2.7,0,5.1-0.5,7-1.4c1.9-0.9,3.4-2.2,4.4-3.8c1-1.6,1.5-3.3,1.5-5.3C169.2,38.7,165.7,35.9,158.7,34.5z"/>
		<path d="M183.5,43.3V28.1h7.6v-6.5h-7.6v-9.9h-8v6l4,3.9H170v6.5h5.5v16.2c0,2.3,0.7,12.8,15.7,10v-6.7
			C187,48.8,183.5,47.5,183.5,43.3z"/>
		<path d="M209,20.9c-9.5,0-17.3,6.6-17.3,16.7c0,10.5,7.6,17.1,17.3,17.1c9.5,0,17.2-6.7,17.2-17.1C226.2,27.3,218.5,20.9,209,20.9
			z M209,47.9c-5.3,0-8.9-4.2-8.9-10.3c0-5.9,3.5-10,8.9-10c5.2,0,8.9,4.1,8.9,10C217.9,43.8,214.2,47.9,209,47.9z"/>
		<path d="M268,20.9c-4.6,0-8.5,1.9-10.7,5.4c-2.1-3.7-5.9-5.4-9.8-5.4c-4.3,0-7.6,1.6-9.6,4.6v-3.8h-7.9V54h8.1V36
			c0-5.5,3.2-8.2,6.7-8.2c3.5,0,6.1,2.3,6.1,7V54h8.1V36c0-5.4,3.2-8.2,6.7-8.2s6.1,2.3,6.1,7V54h8.2V33.4
			C280.1,24.3,274.4,20.9,268,20.9z"/>
		<path d="M300.2,20.9c-8.7,0-16.8,6.4-16.8,16.7c0,10.7,7.8,17.1,17.1,17.1c6.8,0,13.8-3.1,15.8-10.2h-8c-1.5,2.9-4.6,3.9-7.6,3.9
			c-4.7,0-8.5-3.2-9.1-8.3h25v-1.7C316.7,26.8,309.1,20.9,300.2,20.9z M291.6,34.3c0.6-4.6,4.2-7.2,8.5-7.2c4.6,0,7.8,2.9,8.2,7.2
			H291.6z"/>
		<path d="M339.9,29.1v-7.6c-0.6-0.1-1.4-0.2-2.3-0.2c-2.8,0-4.7,0.6-6.6,2.1c-1.1,0.9-1.9,1.9-2.6,3.1v-4.9h-7.9V54h8.1V36.5
			c0-6.3,4.6-7.6,8.1-7.6C337.6,29,338.3,29,339.9,29.1z"/>
		<path d="M345.1,45.5h-8.9V54h8.9V45.5z"/>
		<path d="M360.7,21.6h-8.1V54h8.1V21.6z"/>
		<path d="M360.7,9.5h-8.1v8h8.1V9.5z"/>
		<path d="M381.9,20.9c-9.5,0-17.3,6.6-17.3,16.7c0,10.5,7.6,17.1,17.3,17.1c9.5,0,17.2-6.7,17.2-17.1
			C399.1,27.3,391.5,20.9,381.9,20.9z M381.9,47.9c-5.3,0-8.9-4.2-8.9-10.3c0-5.9,3.5-10,8.9-10c5.2,0,8.9,4.1,8.9,10
			C390.8,43.8,387.2,47.9,381.9,47.9z"/>
	</g>
	<path d="M8.8,44.2l-6.5,6.5v13h13.1l6.6-6.5l6.5-6.5l-13.1-13L8.8,44.2z"/>
	<path d="M22,18.2l-6.6-6.5H2.3v13l6.5,6.5l6.6,6.5l13.1-13L22,18.2z"/>
	<path d="M41.7,11.7H28.5v13l13.2,13l-13.2,13v13h13.2l13.1-13v-26L41.7,11.7z"/>
</g>
</svg>
