<?xml version="1.0" encoding="utf-8"?>
<!-- Generator: Adobe Illustrator 28.4.1, SVG Export Plug-In . SVG Version: 6.00 Build 0)  -->
<svg version="1.1"
	 id="Layer_1" text-rendering="geometricPrecision" shape-rendering="geometricPrecision" image-rendering="optimizeQuality"
	 xmlns="http://www.w3.org/2000/svg" xmlns:xlink="http://www.w3.org/1999/xlink" x="0px" y="0px" viewBox="0 0 512 509.6"
	 style="enable-background:new 0 0 512 509.6;" xml:space="preserve">
<style type="text/css">
	.st0{fill:#4D6BFE;}
</style>
<path class="st0" d="M501.9,101c-5.3-2.6-7.6,2.4-10.7,4.9c-1.1,0.8-2,1.9-2.9,2.8c-7.8,8.3-16.9,13.8-28.7,13.1
	c-17.4-1-32.2,4.5-45.3,17.8c-2.8-16.4-12-26.1-26.1-32.4c-7.4-3.3-14.8-6.5-20-13.6c-3.6-5-4.6-10.7-6.4-16.2
	c-1.1-3.3-2.3-6.8-6.1-7.3c-4.2-0.7-5.8,2.8-7.4,5.8c-6.6,12-9.1,25.2-8.8,38.5c0.6,30.1,13.3,54,38.5,71c2.9,2,3.6,3.9,2.7,6.8
	c-1.7,5.9-3.8,11.6-5.6,17.4c-1.1,3.7-2.9,4.6-6.9,2.9c-13.8-5.8-25.8-14.3-36.4-24.7c-17.9-17.3-34.1-36.5-54.4-51.5
	c-4.7-3.5-9.5-6.7-14.4-9.9c-20.6-20,2.7-36.5,8.1-38.4c5.6-2,2-9-16.3-9c-18.3,0.1-35,6.2-56.2,14.3c-3.1,1.2-6.4,2.1-9.7,2.8
	c-19.3-3.7-39.4-4.5-60.3-2.1c-39.5,4.4-71,23-94.1,54.9C6.5,187.3,0,230.8,8,276.2c8.4,47.8,32.8,87.4,70.3,118.3
	c38.9,32.1,83.7,47.8,134.8,44.8c31-1.8,65.6-5.9,104.5-38.9c9.8,4.9,20.1,6.8,37.3,8.3c13.2,1.2,25.9-0.7,35.7-2.7
	c15.4-3.3,14.3-17.5,8.8-20.1c-45.1-21-35.2-12.5-44.2-19.4c22.9-27.1,57.5-55.3,71-146.6c1.1-7.2,0.2-11.8,0-17.7
	c-0.1-3.6,0.7-5,4.8-5.4c11.3-1.3,22.3-4.4,32.3-9.9c29.2-16,41-42.2,43.8-73.6C507.5,108.5,507,103.5,501.9,101L501.9,101
	L501.9,101z M247.2,383.9c-43.7-34.4-64.9-45.7-73.7-45.2c-8.2,0.5-6.7,9.9-4.9,16c1.9,6,4.3,10.2,7.8,15.5c2.4,3.5,4,8.7-2.4,12.6
	c-14.1,8.7-38.6-2.9-39.7-3.5c-28.5-16.8-52.3-38.9-69.1-69.2C49,280.9,39.6,249.6,38,216.2c-0.4-8.1,2-10.9,10-12.4
	c10.6-2,21.4-2.4,32-0.8c44.6,6.5,82.6,26.5,114.5,58.1c18.2,18,31.9,39.5,46.1,60.5c15.1,22.3,31.3,43.6,51.9,61
	c7.3,6.1,13.1,10.8,18.7,14.2C294.4,398.7,266.4,399.1,247.2,383.9L247.2,383.9z M268.4,247.6c0.7-2.8,3.2-4.9,6.3-4.9
	c0.8,0,1.5,0.1,2.2,0.4c0.9,0.3,1.7,0.8,2.4,1.5c1.1,1.1,1.8,2.8,1.8,4.5c0,3.6-2.9,6.4-6.5,6.4c-3.1,0-5.8-2.3-6.3-5.4
	c-0.7-28.3,21.6-51.8,49.9-52.5c28.3-0.7,51.8,21.6,52.5,49.9l0,0L268.4,247.6z M331.2,283.4c-3.5,1.3-6.9,2.4-10.3,2.5
	c-6.2,0.3-13-2.2-16.7-5.3c-5.7-4.8-9.8-7.5-11.5-15.9c-0.7-3.6-0.3-9.1,0.3-12.3c1.5-6.8-0.2-11.2-5-15.2
	c-3.9-3.3-8.9-4.2-14.4-4.2c-2,0-3.9-0.9-5.3-1.6c-2.3-1.1-4.2-4-2.4-7.5c0.6-1.1,3.4-3.9,4-4.4c7.4-4.2,16-2.9,24,0.3
	c7.4,3,12.9,8.6,21,16.4c8.2,9.4,9.7,12.1,14.3,19.1c3.7,5.5,7,11.2,9.3,17.8c1.2,3.4,0.1,6.3-3.1,8.3
	C334.1,282.3,332.6,282.8,331.2,283.4L331.2,283.4z"/>
</svg>
