<?xml version="1.0" encoding="UTF-8"?>
<svg id="Layer_1" xmlns="http://www.w3.org/2000/svg" xmlns:xlink="http://www.w3.org/1999/xlink" version="1.1" viewBox="0 0 195.0227 41.3595">
  <!-- Generator: Adobe Illustrator 29.2.1, SVG Export Plug-In . SVG Version: 2.1.0 Build 116)  -->
  <defs>
    <style>
      .st0 {
        fill: #4d6bfe;
      }
    </style>
  </defs>
  <path class="st0" d="M55.6128,3.4712c-.5953-.2917-.8517.2642-1.1998.5466-.1191.0911-.2198.2095-.3206.3188-.8701.9292-1.8867,1.5398-3.2148,1.4668-1.9417-.1094-3.5995.5012-5.065,1.9863-.3114-1.8313-1.3463-2.9248-2.9217-3.6262-.8242-.3645-1.6577-.729-2.2348-1.5217-.403-.5647-.5129-1.1934-.7144-1.813-.1283-.3735-.2565-.7563-.687-.8201-.4671-.0728-.6503.3188-.8335.647-.7327,1.3394-1.0166,2.8154-.9892,4.3096.0641,3.3621,1.4838,6.0406,4.3047,7.9449.3206.2187.403.4372.3023.7563-.1924.656-.4214,1.2937-.6228,1.9497-.1283.4192-.3207.5103-.7694.3279-1.5479-.6467-2.8852-1.6035-4.0667-2.7605-2.0058-1.9407-3.8193-4.0818-6.0815-5.7583-.5312-.3918-1.0625-.7561-1.6121-1.1025-2.3081-2.2412.3023-4.0818.9068-4.3003.6319-.2278.2198-1.0115-1.8227-1.0022-2.0425.009-3.9109.6924-6.2922,1.6035-.348.1367-.7145.2368-1.09.3188-2.1615-.4099-4.4055-.5012-6.7502-.2368-4.4147.4919-7.9408,2.5784-10.5328,6.1409C.1914,13.1289-.5413,17.9941.3563,23.0691c.9434,5.3481,3.6727,9.7761,7.8676,13.2385,4.3506,3.5896,9.3606,5.3481,15.0758,5.011,3.4713-.2004,7.3364-.665,11.6961-4.355,1.099.5467,2.2531.7652,4.1674.9292,1.4746.1367,2.8943-.0728,3.9933-.3005,1.7219-.3645,1.6029-1.959.9801-2.2505-5.0466-2.3506-3.9385-1.394-4.9459-2.1685,2.5645-3.0339,6.4297-6.1865,7.9409-16.4001.119-.8108.0183-1.3211,0-1.9771-.0092-.4008.0824-.5556.5404-.6013,1.2639-.1458,2.4912-.4919,3.6178-1.1115,3.2698-1.7857,4.5886-4.7195,4.9-8.2364.0459-.5376-.0091-1.0935-.577-1.3757ZM27.119,35.123c-4.8909-3.8447-7.263-5.1113-8.2431-5.0566-.9159.0547-.751,1.1025-.5496,1.7859.2107.6741.4855,1.1389.8701,1.731.2656.3918.4489.9748-.2655,1.4123-1.5754.9749-4.314-.3281-4.4423-.3918-3.1872-1.877-5.8525-4.3553-7.7302-7.7444-1.8135-3.262-2.8667-6.7605-3.0408-10.4961-.0458-.9019.2198-1.221,1.1174-1.3848,1.1815-.2187,2.3997-.2644,3.5812-.0913,4.9918.729,9.2415,2.9612,12.8043,6.4963,2.0333,2.0135,3.572,4.419,5.1566,6.7696,1.6852,2.4963,3.4987,4.8745,5.8068,6.8242.8151.6833,1.4654,1.2026,2.0882,1.5854-1.8775.2095-5.01.2552-7.1532-1.4397ZM29.4637,20.0442c0-.4009.3206-.7197.7237-.7197.0916,0,.174.018.2473.0453.1008.0366.1924.0913.2656.1731.1283.1277.2015.3098.2015.5012,0,.4009-.3205.7197-.7234.7197s-.7145-.3188-.7145-.7197ZM36.7452,23.7798c-.4671.1914-.9342.3552-1.383.3735-.6961.0364-1.4563-.2461-1.8684-.5923-.6411-.5376-1.0991-.8381-1.2914-1.7766-.0825-.4009-.0367-1.0205.0367-1.3757.1648-.7654-.0184-1.2573-.5587-1.7039-.4397-.3645-.9984-.4646-1.6121-.4646-.229,0-.4395-.1003-.5953-.1823-.2565-.1275-.467-.4464-.2656-.8382.0641-.1274.3756-.4373.4489-.4919.8335-.4739,1.7952-.3189,2.6836.0364.8244.3371,1.4472.9567,2.3447,1.8313.9159,1.0568,1.0807,1.3486,1.6028,2.1411.4123.6196.7878,1.2573,1.0442,1.9863.1557.4556-.0458.8291-.5862,1.0569Z"/>
  <path class="st0" d="M119.4592,14.8275c-1.2957,0-2.602.2844-3.45,1.085-.0737.0685-.1422.1422-.2107.216h-.6215v-1.301h-3.4079v20.479h3.4079v-12.7256c0-1.3115.2844-2.6283,1.0745-3.4869.7901-.8638,2.0015-1.1693,3.2077-1.1693,1.2009,0,2.4177.3055,3.2077,1.1693.7901.8586,1.0745,2.1754,1.0745,3.4869,0,1.3063-.2844,2.6231-1.0745,3.4816-.7901.8638-2.0068,1.1693-3.2077,1.1693h-1.9383v3.0971h1.9383c2.0068,0,4.0242-.5109,5.341-1.9436s1.7856-3.6238,1.7856-5.8045-.4688-4.3771-1.7856-5.8097c-1.3168-1.4327-3.3342-1.9436-5.341-1.9436ZM71.8541,23.1181c0,1.3115-.2844,2.6283-1.0745,3.4869-.7901.8586-2.0015,1.1693-3.2077,1.1693s-2.4177-.3108-3.2077-1.1693c-.7901-.8586-1.0745-2.1754-1.0745-3.4869,0-1.3063.2844-2.6283,1.0745-3.4869.7901-.8586,2.0015-1.1641,3.2077-1.1641h1.9383v-3.0971h-1.9383c-2.0068,0-4.0242.5109-5.341,1.9436-1.3168,1.4327-1.7856,3.6238-1.7856,5.8045s.4688,4.3771,1.7856,5.8097c1.3168,1.4327,3.3342,1.9436,5.341,1.9436,1.2957,0,2.5967-.2897,3.45-1.085.0737-.0685.1422-.1422.2054-.216h.6268v1.301h3.4079V10.3873h-3.4079v12.7309ZM84.9589,14.8275c-2.0858,0-4.1822.532-5.5517,2.0121-1.3642,1.4801-1.8541,3.7503-1.8541,6.0099,0,2.2544.4899,4.5298,1.8541,6.0099,1.3695,1.4801,3.4658,2.0121,5.5517,2.0121s4.1822-.532,5.5517-2.0121c.7005-.7637,1.1746-1.7329,1.4696-2.8074h-3.371c-.0948.1422-.2002.2792-.316.4056-.8217.8902-2.0806,1.2062-3.3341,1.2062-1.2483,0-2.5072-.316-3.3289-1.2062-.8217-.8902-1.1167-2.2544-1.1167-3.608s.295-2.7179,1.1167-3.608c.8217-.8902,2.0806-1.2062,3.3289-1.2062,1.2536,0,2.5125.316,3.3341,1.2062.5689.6163.8849,1.4538,1.0271,2.365h-6.0257v2.4861h9.0754v-1.2431c0-2.2596-.4899-4.5298-1.8593-6.0099-1.3642-1.4801-3.4658-2.0121-5.5517-2.0121ZM102.0668,14.8275c-2.0806,0-4.1822.532-5.5464,2.0121-1.3695,1.4801-1.8593,3.7503-1.8593,6.0099,0,2.2544.4899,4.5298,1.8593,6.0099,1.3642,1.4801,3.4658,2.0121,5.5464,2.0121,2.0858,0,4.1822-.532,5.5517-2.0121.7058-.7637,1.1746-1.7329,1.4696-2.8074h-3.371c-.0948.1422-.2002.2792-.316.4056-.8217.8902-2.0806,1.2062-3.3289,1.2062-1.2536,0-2.5125-.316-3.3342-1.2062-.8217-.8902-1.1166-2.2544-1.1166-3.608s.295-2.7179,1.1166-3.608c.8217-.8902,2.0806-1.2062,3.3342-1.2062,1.2483,0,2.5072.316,3.3289,1.2062.5689.6163.8849,1.4538,1.0271,2.365h-6.0257v2.4861h9.0754v-1.2431c0-2.2596-.4898-4.5298-1.8593-6.0099-1.3642-1.4801-3.4658-2.0121-5.5517-2.0121ZM141.8344,22.5861c-1.3642-.8744-3.4658-1.1851-5.5464-1.1851h.0737c-.8902,0-1.7856-.1211-2.3702-.4635-.5847-.3371-.7901-.8586-.7901-1.3747s.2054-1.0376.7901-1.3747c.5847-.3424,1.4801-.4635,2.3702-.4635s1.7856.1264,2.365.4635c.5847.3371.7954.8586.7954,1.3747h3.4711c0-1.3326-.4477-2.6705-1.6855-3.5448-1.2378-.8744-3.134-1.1904-5.0197-1.1904s-3.7819.316-5.0197,1.1904c-1.2378.8744-1.6802,2.2122-1.6802,3.5448s.4424,2.6757,1.6802,3.5448c1.2378.8744,3.134,1.1904,5.0197,1.1904.9797,0,2.0542.1211,2.6968.4582.6479.3424.8796.8638.8796,1.38s-.2318,1.0376-.8796,1.3747c-.6426.3371-1.6328.4582-2.6178.4582-.9797,0-1.9699-.1211-2.6178-.4582-.6426-.3424-.8744-.8586-.8744-1.3747h-3.9978c0,1.3273.4899,2.6705,1.8593,3.5448,1.3695.8744,3.4658,1.1851,5.5517,1.1851,2.0806,0,4.1822-.3108,5.5464-1.1851,1.3695-.8744,1.8593-2.2175,1.8593-3.5448,0-1.3326-.4899-2.6757-1.8593-3.5501ZM153.3959,14.8275c-2.0858,0-4.1822.532-5.5517,2.0121-1.3642,1.4801-1.8593,3.7503-1.8593,6.0099,0,2.2544.4951,4.5298,1.8593,6.0099,1.3695,1.4801,3.4658,2.0121,5.5517,2.0121s4.1822-.532,5.5516-2.0121c.7005-.7637,1.1746-1.7329,1.4643-2.8074h-3.3658c-.0948.1422-.2001.2792-.316.4056-.8217.8902-2.0806,1.2062-3.3342,1.2062-1.2483,0-2.5125-.316-3.3289-1.2062-.8217-.8902-1.1166-2.2544-1.1166-3.608s.295-2.7179,1.1166-3.608c.8164-.8902,2.0806-1.2062,3.3289-1.2062,1.2536,0,2.5125.316,3.3342,1.2062.5689.6163.8849,1.4538,1.0271,2.365h-6.031v2.4861h9.0807v-1.2431c0-2.2596-.4898-4.5298-1.8593-6.0099-1.3695-1.4801-3.4658-2.0121-5.5516-2.0121ZM170.5038,14.8275c-2.0858,0-4.1822.532-5.5516,2.0121-1.3642,1.4801-1.8593,3.7503-1.8593,6.0099,0,2.2544.4951,4.5298,1.8593,6.0099,1.3695,1.4801,3.4658,2.0121,5.5516,2.0121s4.1822-.532,5.5517-2.0121c.7005-.7637,1.1746-1.7329,1.4696-2.8074h-3.371c-.0948.1422-.2002.2792-.316.4056-.8217.8902-2.0806,1.2062-3.3342,1.2062-1.2483,0-2.5125-.316-3.3289-1.2062-.8217-.8902-1.1167-2.2544-1.1167-3.608s.295-2.7179,1.1167-3.608c.8164-.8902,2.0806-1.2062,3.3289-1.2062,1.2536,0,2.5125.316,3.3342,1.2062.5689.6163.8849,1.4538,1.0271,2.365h-6.0257v2.4861h9.0754v-1.2431c0-2.2596-.4899-4.5298-1.8593-6.0099-1.3695-1.4801-3.4658-2.0121-5.5517-2.0121ZM180.2008,9.6709h3.4079v21.2006h-3.4079V9.6709ZM190.7984,15.5386l-5.5938,6.8316,5.5938,8.5013h4.2243l-5.5938-8.5013,5.5938-6.8316h-4.2243Z"/>
</svg>