<?xml version="1.0" encoding="utf-8"?>
<!-- Generator: Adobe Illustrator 19.0.0, SVG Export Plug-In . SVG Version: 6.00 Build 0)  -->
<svg version="1.1" xmlns="http://www.w3.org/2000/svg" xmlns:xlink="http://www.w3.org/1999/xlink" x="0px" y="0px"
	 viewBox="0 0 1600 1200" style="enable-background:new 0 0 1600 1200;" xml:space="preserve">
<style type="text/css">
	.st0{fill:#E8E8E8;}
	.st1{fill:#161616;}
	.st2{fill:#EC615B;}
	.st3{fill:#5222D0;}
	.st4{fill:#FFFFFF;}
	.st5{opacity:0.15;fill:#494949;}
	.st6{opacity:0.11;fill:#494949;}
	.st7{opacity:8.000000e-002;fill:#494949;}
	.st8{fill:#161616;stroke:#161616;stroke-width:2;stroke-miterlimit:10;}
	.st9{opacity:9.000000e-002;fill:#494949;}
	.st10{opacity:0.13;fill:#494949;}
	.st11{opacity:0.1;fill:#494949;}
	.st12{opacity:0.17;fill:#494949;}
</style>
<g id="background">
	<g>
		<g>
			<path class="st0" d="M225.1,406.6C242.9,392.1,267,390,289,394c23.5,4.2,44.9,15.5,66.6,25c22.4,9.9,45.2,17,69.8,18.2
				c24.5,1.3,49-2.2,72.8-8.2c49.7-12.5,95.3-36.5,143-54.6c23.9-9.1,48.6-17,74-20.6c13.8-2,27.7-2.5,41.6-1
				c13.2,1.4,26.1,4.5,39,7.7c28.5,7.1,56.9,13.3,86.1,16.8c30.1,3.6,60.5,4.8,90.8,3.8c1.9-0.1,1.9-3.1,0-3
				c-55,2-110-3.9-163.4-17.2c-25.5-6.4-50.8-13-77.3-11.7c-25.7,1.3-51.1,8.1-75.3,16.4c-48.5,16.7-94.1,41.2-143.3,56.1
				c-25,7.5-50.9,12.7-77.1,12.8c-26.6,0.1-51.6-6.1-75.9-16.7c-24-10.4-47.5-23.3-73.6-27.3c-22.2-3.4-45.9-0.7-63.8,13.9
				C221.5,405.7,223.6,407.9,225.1,406.6L225.1,406.6z"/>
		</g>
	</g>
	<g>
		<g>
			<path class="st0" d="M763.7,315.2c69.3,29.9,148,24.9,218.9,3.2c38.4-11.8,76.6-27.6,117.5-27.5c41.2,0.1,80.3,14.5,120.6,20.9
				c36.6,5.8,76.9,5.1,108.3-16.9c1.6-1.1,0.1-3.7-1.5-2.6c-29,20.3-65.8,22.1-99.8,17.5c-38.5-5.2-75.5-18.6-114.4-21.4
				c-38.9-2.8-75.6,8.9-112.1,20.9c-36.4,11.9-73.2,21.2-111.5,23.4c-42.4,2.5-85.3-3.2-124.4-20.1
				C763.5,311.8,762,314.4,763.7,315.2L763.7,315.2z"/>
		</g>
	</g>
	<g>
		<g>
			<path class="st0" d="M186.9,564.5c21.9-15.6,47.8-25.2,74.6-27.8c13.4-1.3,26.9-0.8,40.1,1.5c13.7,2.4,26.9,7,40,11.6
				c24.3,8.4,48.4,14.8,74,8.9c22.1-5.1,42.1-16.6,61.7-27.5c23.1-12.9,47.1-26.1,73.9-28.5c1.9-0.2,1.9-3.2,0-3
				c-47.8,4.3-83.7,40.2-128.3,53.9c-11.3,3.5-23.1,5.3-34.9,4.6c-14.5-0.9-28.6-5.4-42.2-10.1c-13.7-4.7-27.4-9.8-41.8-12.5
				c-12.4-2.3-25.1-3-37.6-2.2c-29,1.8-57.3,11.7-81,28.6C183.8,563,185.3,565.6,186.9,564.5L186.9,564.5z"/>
		</g>
	</g>
	<g>
		<g>
			<path class="st0" d="M452,602.9c38.9-41.1,96.1-57.9,151.4-58.4c32.1-0.3,64.1,4.3,95.4,11c29.8,6.3,58.7,14.5,89.5,10.4
				c32.2-4.3,62.3-18.1,91.1-32.6c1.7-0.9,0.2-3.5-1.5-2.6c-27.4,13.8-55.9,26.9-86.4,31.7c-15.6,2.4-31.3,2.2-46.9-0.3
				c-15.8-2.5-31.2-6.7-46.9-10c-57.2-12-118.1-17.1-174.3,2.4c-27.7,9.6-53.3,24.9-73.5,46.2C448.6,602.2,450.7,604.3,452,602.9
				L452,602.9z"/>
		</g>
	</g>
	<g>
		<g>
			<path class="st0" d="M915.5,632.8c16.3,5.7,33,0.4,47.9-6.7c16.7-8,32.4-17.9,49.5-25c17.1-7.1,35.5-11.9,54.1-9.6
				c17,2.1,32.7,9.7,47.6,17.8c14.1,7.7,28,16.1,43,22c16.7,6.5,34.7,9.6,52.6,9.2c36.7-0.8,67.9-19.1,101.4-31.5
				c31.3-11.6,73-16.8,98.1,10.4c1.3,1.4,3.4-0.7,2.1-2.1c-19.7-21.3-51.1-23.7-78.1-18c-35.2,7.4-65.6,28.9-101,35.8
				c-18.9,3.7-38.7,3.2-57.4-1.3c-17.4-4.2-33-12.4-48.6-21.1c-14.1-7.9-28.4-16.1-43.9-20.8c-16.1-4.9-32.9-5-49.2-1
				c-19.9,4.9-38.2,14.6-56.1,24.4c-18.5,10-39.9,22.2-61.4,14.7C914.5,629.3,913.7,632.2,915.5,632.8L915.5,632.8z"/>
		</g>
	</g>
	<g>
		<g>
			<path class="st0" d="M1178.8,681c41.4,2.5,75.5-25.6,114.6-34.1c10.4-2.3,21.4-3.3,32-1.5c9.5,1.6,18.1,5.5,26.3,10.5
				c14.1,8.6,27.8,19.7,45,20.9c20.9,1.4,39.4-11.6,55-23.8c1.5-1.2-0.6-3.3-2.1-2.1c-15.2,11.8-33.4,24.7-53.8,22.8
				c-17.7-1.6-31.7-14.4-46.6-22.7c-34.3-19.2-71-4.1-103.9,10.4c-21.1,9.2-43,18.1-66.4,16.7C1176.9,677.9,1176.9,680.9,1178.8,681
				L1178.8,681z"/>
		</g>
	</g>
	<g>
		<g>
			<path class="st0" d="M234.9,872.2c14.5-13.8,36-19.2,55.3-13.9c20.2,5.5,33.2,22.9,49.4,34.9c32.3,23.9,76.3,20.1,111.8,6
				c41.9-16.6,76.8-46.6,118.6-63.5c20.4-8.3,42.5-13.6,64.7-12.1c21.6,1.5,40,10.8,57.1,23.4c17,12.5,33,27.3,52.9,35.2
				c21.3,8.4,45.3,6.6,65.3-4.5c1.7-0.9,0.2-3.5-1.5-2.6c-20.4,11.3-44.8,12.3-66.1,2.9c-17.8-7.9-32.4-21.1-47.9-32.7
				c-15.9-11.9-32.8-21.2-52.8-24c-20.6-2.8-41.6,0.7-61.1,7.2c-42.7,14.3-77.9,43.8-118.4,62.7c-37.4,17.5-85.5,25.7-121-0.6
				c-17.7-13.1-31.6-31.8-54.4-36.2c-19.3-3.7-39.8,2.1-54,15.7C231.4,871.4,233.5,873.6,234.9,872.2L234.9,872.2z"/>
		</g>
	</g>
	<g>
		<g>
			<path class="st0" d="M619.1,928c16.5-10.7,36.1-15.8,55.8-14.2c18,1.5,35,8.2,51.5,14.9c16,6.5,32.2,13.3,49.4,16.1
				c18,2.9,36.2,0.7,53.5-4.6c20.7-6.4,39.9-16.6,58.8-26.9c1.7-0.9,0.2-3.5-1.5-2.6c-34.6,18.7-72.6,38.4-113.2,30.6
				c-33.9-6.5-63.7-27.5-98.6-30.5c-20.2-1.7-40.4,3.6-57.3,14.6C616,926.5,617.5,929.1,619.1,928L619.1,928z"/>
		</g>
	</g>
	<g>
		<g>
			<path class="st0" d="M996.6,995.8c21.8-20.4,48.6-35.1,77.5-42.6c14.7-3.8,29.8-5.7,45-5.6c16.9,0.2,33.7,2.9,50.5,4.5
				c32.6,3.1,63.9-2.4,94.4-14.3c29.1-11.3,56.5-30.9,87.8-35.7c36.6-5.6,64.9,18.7,88.2,43.6c1.3,1.4,3.4-0.7,2.1-2.1
				c-19.2-20.5-41.8-41.7-71-45c-32-3.6-61.1,15.2-88.9,28.1c-32,14.9-66.5,25.1-102,23.1c-17.7-1-35.2-4.2-53-5.1
				c-15.1-0.8-30.3,0.3-45.1,3.4c-32.7,6.7-63.2,22.5-87.6,45.4C993.1,995,995.2,997.1,996.6,995.8L996.6,995.8z"/>
		</g>
	</g>
	<g>
		<g>
			<path class="st1" d="M411.1,363.9c28,21.7,64.5,12.1,95,2.1c37.8-12.5,76.1-20.4,116.1-21.2c1.9,0,1.9-3,0-3
				c-36.8,0.7-73.1,7-108.1,18.4c-31.7,10.3-71.1,24.8-100.9,1.6C411.7,360.6,409.6,362.7,411.1,363.9L411.1,363.9z"/>
		</g>
	</g>
	<g>
		<g>
			<path class="st1" d="M680.7,182.1c33.8-2.5,66.4-11.9,99.1-19.8c34-8.3,68.1-13.8,103.2-10c35.4,3.8,69.7,14.5,104.4,22.1
				c33.4,7.4,67.3,10.8,101.5,9.1c38.5-1.9,76.5-10,112.4-23.8c1.8-0.7,1-3.6-0.8-2.9c-65.3,25.1-136.6,30.4-205,16.2
				c-34.1-7.1-67.5-17.5-102-22.5c-33.3-4.8-65.8-2.1-98.6,5.1c-38,8.3-75.3,20.5-114.2,23.4C678.8,179.3,678.8,182.3,680.7,182.1
				L680.7,182.1z"/>
		</g>
	</g>
	<g>
		<g>
			<path class="st1" d="M1221.9,432.7c29.2-10.8,59.5,4.6,88.7,7.4c15.7,1.5,31.3,0,46.6-3.6c15-3.6,29.6-8.9,44.9-11.2
				c16.4-2.5,33.9-1.5,48.1,7.8c1.6,1.1,3.1-1.5,1.5-2.6c-25.2-16.4-56-7.6-82.6-0.2c-16.7,4.7-33.4,8.1-50.8,7.4
				c-16.6-0.6-32.5-5.2-48.7-8.6c-16.1-3.3-32.7-5.1-48.4,0.7C1219.3,430.4,1220.1,433.3,1221.9,432.7L1221.9,432.7z"/>
		</g>
	</g>
	<g>
		<g>
			<path class="st1" d="M202.6,736.1c25.4-22.6,61.2-2.6,89.4,1.7c32.6,5,65.2-4,96.3-12.7c1.9-0.5,1.1-3.4-0.8-2.9
				c-34.4,9.6-70,19.1-105.7,10.6c-26.1-6.2-58-19.4-81.4,1.2C199,735.2,201.1,737.3,202.6,736.1L202.6,736.1z"/>
		</g>
	</g>
	<g>
		<g>
			<path class="st1" d="M522.4,1016.9c8.1-9.6,20.6-14.8,33.2-13.2c7.2,0.9,13.8,4.2,20.4,7.1c5.5,2.4,11.1,4.4,16.8,6
				c24.5,6.8,50.8,5.8,74.7-2.6c1.8-0.6,1-3.5-0.8-2.9c-26.8,9.3-56.4,9.3-83.1-0.7c-11.6-4.3-22.4-11.2-35.3-10.2
				c-10.9,0.8-21,6-28.1,14.3C519,1016.3,521.2,1018.4,522.4,1016.9L522.4,1016.9z"/>
		</g>
	</g>
	<g>
		<g>
			<path class="st1" d="M692.6,1008.7c18.2-5.3,36.9-7.9,55.9-7.8c1.9,0,1.9-3,0-3c-19.2-0.1-38.2,2.6-56.7,7.9
				C690,1006.4,690.7,1009.3,692.6,1008.7L692.6,1008.7z"/>
		</g>
	</g>
	<g>
		<g>
			<path class="st1" d="M716.4,231.4c17.7,13.6,34.6,28.2,50.8,43.7c1.4,1.3,3.5-0.8,2.1-2.1c-16.3-15.6-33.5-30.3-51.4-44.1
				C716.4,227.6,714.9,230.2,716.4,231.4L716.4,231.4z"/>
		</g>
	</g>
	<g>
		<g>
			<path class="st1" d="M543,284.1c1.7-9.4,3.5-18.8,5.2-28.3c0.4-1.9-2.5-2.7-2.9-0.8c-1.7,9.4-3.5,18.8-5.2,28.3
				C539.8,285.2,542.7,286,543,284.1L543,284.1z"/>
		</g>
	</g>
</g>
<g id="details">
	<circle class="st2" cx="1119.6" cy="337.9" r="5.8"/>
	<circle class="st2" cx="361.8" cy="815.8" r="6.9"/>
	<circle class="st2" cx="328.4" cy="181.8" r="15.8"/>
	<circle class="st2" cx="360.1" cy="207.6" r="5.3"/>
	<circle class="st2" cx="662.9" cy="1090.6" r="11.8"/>
	<circle class="st2" cx="1211.3" cy="207.8" r="10.4"/>
	<circle class="st2" cx="1224.6" cy="188.9" r="6.4"/>
	<circle class="st3" cx="344.3" cy="165.2" r="15.8"/>
	<circle class="st3" cx="336.4" cy="824.1" r="7.9"/>
	<circle class="st3" cx="614.1" cy="1072.5" r="7"/>
	<circle class="st3" cx="1172.9" cy="165.9" r="16.6"/>
	<circle class="st3" cx="899.6" cy="430.3" r="3.6"/>
	<g>
		<g>
			<path class="st3" d="M862.7,219.6c-2.1,4.9-4.1,9.9-6.2,14.8c-0.7,1.8,2.2,2.6,2.9,0.8c2.1-4.9,4.1-9.9,6.2-14.8
				C866.3,218.6,863.4,217.8,862.7,219.6L862.7,219.6z"/>
		</g>
	</g>
	<g>
		<g>
			<path class="st3" d="M862.2,222c3.7,3.9,6.6,8.3,8.5,13.3c0.7,1.8,3.6,1,2.9-0.8c-2.2-5.5-5.3-10.3-9.3-14.6
				C863,218.5,860.8,220.6,862.2,222L862.2,222z"/>
		</g>
	</g>
	<g>
		<g>
			<path class="st3" d="M857.3,237c2.9,5.4,6.2,10.5,9.9,15.3c1.2,1.5,3.8,0,2.6-1.5c-3.7-4.9-7-10-9.9-15.3
				C858.9,233.8,856.4,235.3,857.3,237L857.3,237z"/>
		</g>
	</g>
	<g>
		<g>
			<path class="st3" d="M870.9,235.5c-1.2,5.6-2.3,11.2-3.5,16.8c-0.4,1.9,2.5,2.7,2.9,0.8c1.2-5.6,2.3-11.2,3.5-16.8
				C874.2,234.5,871.3,233.7,870.9,235.5L870.9,235.5z"/>
		</g>
	</g>
	<g>
		<g>
			<path class="st3" d="M1144.4,647.7c-2.4,4.4-4,9.1-4.7,14.1c-0.3,1.9,2.6,2.7,2.9,0.8c0.7-4.7,2.1-9.1,4.4-13.3
				C1147.9,647.5,1145.3,646,1144.4,647.7L1144.4,647.7z"/>
		</g>
	</g>
	<g>
		<g>
			<path class="st3" d="M1144.2,648.6c2,5.3,4.3,10.4,6.9,15.3c0.9,1.7,3.5,0.2,2.6-1.5c-2.5-4.7-4.7-9.6-6.6-14.6
				C1146.4,646,1143.5,646.8,1144.2,648.6L1144.2,648.6z"/>
		</g>
	</g>
	<g>
		<g>
			<path class="st3" d="M1139.1,663.9c2.6,3.7,5.1,7.4,7.7,11.1c1.1,1.6,3.7,0.1,2.6-1.5c-2.6-3.7-5.1-7.4-7.7-11.1
				C1140.6,660.8,1138,662.3,1139.1,663.9L1139.1,663.9z"/>
		</g>
	</g>
	<g>
		<g>
			<path class="st3" d="M1150,663.4c-2.1,2.9-3.1,6.2-3.1,9.7c0,1.9,3,1.9,3,0c0-3,0.9-5.8,2.7-8.2
				C1153.7,663.3,1151.1,661.8,1150,663.4L1150,663.4z"/>
		</g>
	</g>
	<g>
		<g>
			<path class="st3" d="M307.9,930.8c-2.7,5.9-5.4,11.7-8.1,17.6c-0.8,1.7,1.8,3.3,2.6,1.5c2.7-5.9,5.4-11.7,8.1-17.6
				C311.3,930.6,308.8,929.1,307.9,930.8L307.9,930.8z"/>
		</g>
	</g>
	<g>
		<g>
			<path class="st3" d="M308.4,931.6c2.6,6.2,5.2,12.4,7.8,18.6c0.7,1.8,3.6,1,2.9-0.8c-2.6-6.2-5.2-12.4-7.8-18.6
				C310.6,929,307.7,929.8,308.4,931.6L308.4,931.6z"/>
		</g>
	</g>
	<g>
		<g>
			<path class="st3" d="M299.1,951.1c2.7,5.3,5.3,10.7,8,16c0.5,0.9,1.7,0.9,2.4,0.3c2.1-1.7,3.1-4.6,4.2-6.9
				c1.6-3.2,3.2-6.4,4.8-9.6c0.9-1.7-1.7-3.2-2.6-1.5c-1.4,2.8-2.9,5.6-4.3,8.4c-1.2,2.4-2.3,5.7-4.4,7.4c0.8,0.1,1.6,0.2,2.4,0.3
				c-2.7-5.3-5.3-10.7-8-16C300.8,947.9,298.2,949.4,299.1,951.1L299.1,951.1z"/>
		</g>
	</g>
	<g>
		<g>
			<path class="st3" d="M1314.4,466c-3.1,5.9-5,12.1-5.9,18.7c-0.3,1.9,2.7,1.9,3,0c0.8-6.1,2.6-11.8,5.4-17.2
				C1317.9,465.8,1315.3,464.3,1314.4,466L1314.4,466z"/>
		</g>
	</g>
	<g>
		<g>
			<path class="st3" d="M1314,469.5c3.1,6,6.1,12,9.2,18c0.9,1.7,3.5,0.2,2.6-1.5c-3.1-6-6.1-12-9.2-18
				C1315.7,466.3,1313.1,467.8,1314,469.5L1314,469.5z"/>
		</g>
	</g>
	<g>
		<g>
			<path class="st3" d="M1308.7,485.1c2.5,6,5.5,11.6,9.1,16.9c1.1,1.6,3.7,0.1,2.6-1.5c-3.5-5.1-6.5-10.5-8.8-16.2
				C1310.9,482.6,1308,483.4,1308.7,485.1L1308.7,485.1z"/>
		</g>
	</g>
	<g>
		<g>
			<path class="st3" d="M1322.3,486.4c-1.8,5.6-3.3,11.3-4.3,17.2c-0.3,1.9,2.6,2.7,2.9,0.8c1-5.8,2.4-11.5,4.3-17.2
				C1325.8,485.4,1322.9,484.6,1322.3,486.4L1322.3,486.4z"/>
		</g>
	</g>
	<g>
		<g>
			<path class="st3" d="M1302.8,951.5c-1.2,4-2.3,7.9-3.5,11.9c-0.5,1.9,2.3,2.6,2.9,0.8c1.2-4,2.3-7.9,3.5-11.9
				C1306.3,950.4,1303.4,949.6,1302.8,951.5L1302.8,951.5z"/>
		</g>
	</g>
	<g>
		<g>
			<path class="st3" d="M1302.6,953.7c1.8,4,3.7,8,5.5,11.9c0.8,1.8,3.4,0.2,2.6-1.5c-1.8-4-3.7-8-5.5-11.9
				C1304.4,950.4,1301.8,951.9,1302.6,953.7L1302.6,953.7z"/>
		</g>
	</g>
	<g>
		<g>
			<path class="st3" d="M1300.1,965.3c0.9,4.7,3.1,8.9,6.2,12.5c1.3,1.5,3.4-0.7,2.1-2.1c-2.8-3.2-4.6-7-5.4-11.1
				C1302.6,962.6,1299.7,963.4,1300.1,965.3L1300.1,965.3z"/>
		</g>
	</g>
	<g>
		<g>
			<path class="st3" d="M1308,964.9c-1.3,4.2-1.9,8.5-1.8,12.8c0.1,1.9,3.1,1.9,3,0c-0.1-4.1,0.4-8.1,1.7-12
				C1311.5,963.9,1308.6,963.1,1308,964.9L1308,964.9z"/>
		</g>
	</g>
	<g>
		<g>
			<path class="st3" d="M270.2,423.9c-2.2,4.8-4.3,9.6-6.5,14.4c-0.8,1.7,1.8,3.3,2.6,1.5c2.2-4.8,4.3-9.6,6.5-14.4
				C273.6,423.7,271,422.1,270.2,423.9L270.2,423.9z"/>
		</g>
	</g>
	<g>
		<g>
			<path class="st3" d="M264.1,440.8c2.3,5.9,4.5,11.7,6.8,17.6c0.7,1.8,3.6,1,2.9-0.8c-2.3-5.9-4.5-11.7-6.8-17.6
				C266.3,438.2,263.4,439,264.1,440.8L264.1,440.8z"/>
		</g>
	</g>
	<g>
		<g>
			<path class="st3" d="M270.2,424.1c3.1,5.4,6.2,10.9,9.3,16.3c1,1.7,3.5,0.2,2.6-1.5c-3.1-5.4-6.2-10.9-9.3-16.3
				C271.8,420.9,269.2,422.4,270.2,424.1L270.2,424.1z"/>
		</g>
	</g>
	<g>
		<g>
			<path class="st3" d="M280.2,439.1c-3.2,6-6,12.2-8.4,18.5c-0.7,1.8,2.2,2.6,2.9,0.8c2.3-6.1,5-12.1,8.1-17.8
				C283.7,438.9,281.1,437.4,280.2,439.1L280.2,439.1z"/>
		</g>
	</g>
	<g>
		<g>
			<path class="st3" d="M1024,516.1c2-3.8,5.8-6.4,10.2-6.2c3.6,0.1,6.3,2.6,9.5,3.8c5.6,2,7.3-1.6,11.5-4.3
				c5.7-3.8,11.2,4.7,17.3,4.6c3.5-0.1,6.4-1.8,6.5-5.5c-0.8,0.4-1.5,0.9-2.3,1.3c3.1,1.6,6.2,3.2,9.2,4.9c1.7,0.9,3.2-1.7,1.5-2.6
				c-3.1-1.6-6.2-3.2-9.2-4.9c-1-0.5-2.2,0.1-2.3,1.3c-0.3,7.1-14.1-3-16.7-3.3c-5.9-0.8-8.2,6.5-13.3,5.7
				c-5.4-0.9-8.8-4.8-14.6-3.8c-4.4,0.8-8,3.5-10,7.5C1020.6,516.3,1023.1,517.8,1024,516.1L1024,516.1z"/>
		</g>
	</g>
	<g>
		<g>
			<path class="st3" d="M1062.3,495.8c4.5-5,11.6,1.3,16.7,1.9c5.9,0.7,10.5-5.6,16.2-2.4c4.7,2.7,13.3,9.1,16.7,0.9
				c0.7-1.8-2.2-2.6-2.9-0.8c-2.4,5.8-11-2.3-13.9-3.5c-3.9-1.7-6.5-0.3-10,1.4c-4.2,2-7.2,1.3-11.2-0.5c-1.8-0.8-3.6-1.5-5.6-1.8
				c-3.1-0.4-5.9,0.2-8.1,2.6C1058.9,495.1,1061,497.2,1062.3,495.8L1062.3,495.8z"/>
		</g>
	</g>
	<g>
		<g>
			<path class="st2" d="M981.1,259.9c1.4-2.6,3-3.3,4.8-2.1c0.8,0.3,1.6,0.7,2.4,1.2c0.9,0.4,1.8,1,2.7,1.3c1.6,0.5,3.2,0.7,4.8,0.3
				c4.3-1.2,6.5-6.6,11.1-6.5c4.3,0.1,7.4,4.2,11.9,2.1c1.9-0.9,3.2-2.5,5-3.5c4-2.2,8.9-1.4,12.3,1.4c1.5,1.2,3.6-0.9,2.1-2.1
				c-4.5-3.7-10.7-4.8-15.9-1.9c-2.3,1.3-4.2,4.1-7.2,3.7c-1.7-0.2-3.2-1.4-4.8-2c-2.4-0.9-4.6-1.2-7-0.1c-3,1.4-5,5.3-8.3,6
				c-4.2,0.9-7-3.4-10.9-3.5c-3.7-0.1-8,3.5-5.5,7.2C979.6,263,982.2,261.5,981.1,259.9L981.1,259.9z"/>
		</g>
	</g>
	<g>
		<g>
			<path class="st2" d="M1014.3,242.2c1.2-6.5,12.5-0.2,16.5-0.9c2.6-0.4,4.5-2.2,6.9-3.1c3.8-1.5,7.5-0.9,11,1.2
				c1.7,1,3.2-1.6,1.5-2.6c-3-1.8-6.2-2.7-9.6-2.4c-1.5,0.1-2.9,0.5-4.2,1c-4,1.7-5.6,3.6-10.6,2.4c-4.8-1.2-13-3.6-14.3,3.6
				C1011,243.3,1013.9,244.1,1014.3,242.2L1014.3,242.2z"/>
		</g>
	</g>
	<g>
		<g>
			<path class="st2" d="M257.2,603.6c1.3-6.3,10,2.3,11.7,3.4c1.9,1.3,4,2.2,6.3,1.7c3-0.5,5.3-3,8.4-3.7c5-1.1,10,0.5,13.6,4.1
				c1.4,1.4,3.5-0.8,2.1-2.1c-3.1-3.1-6.9-5-11.3-5.3c-2.2-0.2-4.4,0.1-6.5,0.8c-3.3,1.1-5.9,4.3-9.9,2.7c-4.2-1.7-5.8-6-10.6-6.5
				c-3.1-0.3-6,0.9-6.6,4.1C253.9,604.7,256.8,605.5,257.2,603.6L257.2,603.6z"/>
		</g>
	</g>
	<g>
		<g>
			<path class="st2" d="M290.5,596.4c2.2-3,12.3,3,15.2,3.7c4.7,1.1,9.5,1.1,14.3,0.5c1.9-0.3,1.1-3.2-0.8-2.9
				c-8.3,1.1-14.7-1.1-22.2-4.1c-3.4-1.3-6.8-1.8-9.1,1.3C286.8,596.4,289.4,597.9,290.5,596.4L290.5,596.4z"/>
		</g>
	</g>
	<g>
		<g>
			<path class="st2" d="M534.3,806c1.6-2.5,4.1-4.1,7.2-4.1c2.6,0,4.2,1.6,6.5,2.3c2.3,0.8,4.2,0.3,6.2-1c3.9-2.6,5.8-5.8,11.1-5.6
				c4.8,0.1,9.4,2.4,13.6,4.5c1.7,0.9,3.2-1.7,1.5-2.6c-7.9-4-17.5-7.8-25.1-1.3c-1.7,1.4-1.9,1.8-4.5,2.3c-2.9,0.6-2.6,0.2-4.8-0.7
				c-1.9-0.8-3.7-1.1-5.8-0.9c-3.7,0.4-6.6,2.5-8.5,5.5C530.7,806.1,533.3,807.6,534.3,806L534.3,806z"/>
		</g>
	</g>
	<g>
		<g>
			<path class="st2" d="M567.6,811.8c4.7-4.1,13.6,4.5,19.4,3.7c3.5-0.5,5.1-3.1,7.4-5.5c4.4-4.7,11-5.4,16.4-1.9
				c1.6,1,3.1-1.5,1.5-2.6c-3.9-2.5-8.5-3.3-13-2c-2,0.6-3.8,1.5-5.4,2.8c-2.4,2-3.9,5.6-7.3,6.2c-7.3,1.3-14.2-8.9-21.1-2.8
				C564.1,811,566.2,813.1,567.6,811.8L567.6,811.8z"/>
		</g>
	</g>
	<g>
		<g>
			<path class="st2" d="M431.2,170.4c0.8-3.3,2.7-5.9,5.9-7.3c2.8-1.2,5.1-0.4,8-0.5c3.2-0.2,5.6-1.8,7.5-4.2
				c2.9-3.6,4.8-7.3,8.9-9.7c4.7-2.7,10.1-3.2,15.3-1.6c1.9,0.6,2.6-2.3,0.8-2.9c-9.6-2.9-19.1,0.8-24.9,8.9c-2.3,3.2-4,6.4-8.4,6.5
				c-2.7,0.1-5-0.5-7.6,0.4c-4.4,1.5-7.4,5.2-8.4,9.6C427.8,171.5,430.7,172.3,431.2,170.4L431.2,170.4z"/>
		</g>
	</g>
	<g>
		<g>
			<path class="st2" d="M445.3,181.9c-4.3-11.4,16.3-10.8,22.5-13c7.7-2.7,14.3-7.5,20.8-12.3c1.5-1.1,0-3.7-1.5-2.6
				c-4.4,3.3-8.9,6.5-13.7,9.1c-6,3.2-11.7,4.2-18.2,5.2c-6.9,1.1-15.9,5.9-12.7,14.3C443.1,184.4,446,183.7,445.3,181.9
				L445.3,181.9z"/>
		</g>
	</g>
</g>
<g id="rocket_1_">
	<g id="fire">
		<path class="st2" d="M844.1,755.2c7.6-19.9,20.5-32.9,33.8-46.4c17.5-17.7,50-50.6,83.1-45.4c28.2,4.4,25.1,31.5,63.8,51.2
			c36.5,18.7,50.5,0.2,86.9,20.3c5.4,3,43.5,24.7,52.2,65.7c3.6,17,2.7,40.3-4.8,42.5c-8.5,2.5-11.4-46.5-45.4-65.7
			c-26-14.7-61.8-7.6-64.7,2.9c-3.1,11.1,32.8,18.4,53.1,57c8.9,16.8,10.8,32.1,13.5,53.1c2.5,19.8,5.3,60.4-3.9,62.8
			c-7.6,2-11.7-25.1-39.6-47.3c-14.7-11.7-30.4-16.5-61.8-26.1C982,871.2,967.7,867,960,874c-11.4,10.4-2.6,36.8-1,41.5
			c11.2,33.6,39.8,47.6,37.7,51.2c-2.8,4.5-55-8.5-97.6-50.2C862.7,880.8,822,812.9,844.1,755.2z"/>
		<path class="st2" d="M1170.6,871.1c-0.4,2.8-2.5,18.4,6.7,28.4c10.2,11,22.6,2.6,35.1,13.5c11.5,10,10,25,13.5,24.7
			c4-0.3,10.1-20.6,1.5-32.9c-2.7-3.9-9.3-7.4-22.4-14.2c-13.4-7-15.2-6.7-18.7-10.5c-8.7-9.4-7.4-21.7-10.5-21.7
			C1173.4,858.4,1171.3,865.8,1170.6,871.1z"/>
		<path class="st2" d="M1084.6,988.5c-5.6,8.4-5,17.4-4.5,26.9c0.6,9.7,1,17.6,6.7,24.7c6.5,8.1,17.3,11.5,18.7,9.7
			c1.1-1.4-3.8-5.2-8.2-13.5c-0.5-1-7-13.3-6.7-27.7c0.3-18,10.9-28.7,8.2-30.6C1096.8,976.5,1089.1,981.7,1084.6,988.5z"/>
		<g>
			<g>
				<path class="st2" d="M1124.7,822.7c16.8,11.1,7.6,36.8,18.6,51.8c1.1,1.5,3.7,0,2.6-1.5c-11.4-15.6-1.7-41-19.7-52.9
					C1124.6,819,1123.1,821.6,1124.7,822.7L1124.7,822.7z"/>
			</g>
		</g>
		<g>
			<g>
				<path class="st3" d="M1118.7,750.3c18,13.8,30.5,33.5,35.5,55.6c0.4,1.9,3.3,1.1,2.9-0.8c-5.2-22.9-18.2-43.1-36.8-57.3
					C1118.6,746.5,1117.1,749.1,1118.7,750.3L1118.7,750.3z"/>
			</g>
		</g>
		<g>
			<g>
				<path class="st3" d="M1060.7,805.7c14.4,11.8,25.7,26.9,32.7,44.2c0.7,1.8,3.6,1,2.9-0.8c-7.3-17.8-18.6-33.3-33.5-45.5
					C1061.4,802.4,1059.2,804.5,1060.7,805.7L1060.7,805.7z"/>
			</g>
		</g>
		<g>
			<g>
				<path class="st3" d="M1100.4,866.4c2.7,7.2,4.5,14.5,5.2,22.1c0.2,1.9,3.2,1.9,3,0c-0.8-7.9-2.6-15.5-5.4-22.9
					C1102.7,863.8,1099.8,864.6,1100.4,866.4L1100.4,866.4z"/>
			</g>
		</g>
		<g>
			<g>
				<path class="st3" d="M946.5,883c-2.5,15.1,0.4,30.2,8.6,43.2c1,1.6,3.6,0.1,2.6-1.5c-7.7-12.2-10.7-26.6-8.3-40.9
					C949.7,881.9,946.8,881.1,946.5,883L946.5,883z"/>
			</g>
		</g>
		<g>
			<g>
				<path class="st3" d="M959.1,934.4c3.6,6.6,8.2,12.5,13.7,17.6c1.4,1.3,3.5-0.8,2.1-2.1c-5.3-5-9.7-10.7-13.2-17
					C960.8,931.2,958.2,932.7,959.1,934.4L959.1,934.4z"/>
			</g>
		</g>
		<g>
			<g>
				<path class="st3" d="M844.3,782c-0.8,9.5,0.1,18.9,2.8,28.1c0.5,1.9,3.4,1.1,2.9-0.8c-2.6-9-3.5-18-2.7-27.3
					C847.5,780.1,844.5,780.1,844.3,782L844.3,782z"/>
			</g>
		</g>
		<g>
			<g>
				<path class="st3" d="M850.1,820.3c1.6,7.8,4.5,15,8.7,21.8c1,1.6,3.6,0.1,2.6-1.5c-4-6.6-6.8-13.5-8.4-21.1
					C852.6,817.7,849.7,818.5,850.1,820.3L850.1,820.3z"/>
			</g>
		</g>
	</g>
	<g id="rocket">
		<path class="st4" d="M589,195.2c-2.8,7.6-6.2,18-9.5,30.6c-3.4,13.1-11.4,47.6-10.6,93c0.8,43.8,9.4,76,17.3,104.7
			c12.3,44.8,27.3,77,36.2,95.7c0,0,28.3,59.9,75.2,124.1c8.3,11.3,18.9,25.6,18.9,25.6c7.7,10.3,14.3,18.9,18.9,25.1
			c3.7,4.2,8.4,8.9,14.5,13.4c11.4,8.5,22.7,12.8,30.6,15c13-11.1,26-22.3,39-33.4c5.9,5.6,11.9,11.1,17.8,16.7
			c8.2-8.4,15.5-15.1,21.2-20c24.8-21.5,45.3-32.5,50.1-35.1c4.1-2.2,7.6-3.9,10-5c-3.7-7.4-7.4-14.8-11.1-22.3
			c6-5.2,12.9-10.7,20.6-16.1c10.4-7.3,20.4-13.2,29.5-17.8c-0.1-8.4-1.2-21.1-6.7-35.1c-4.1-10.5-9-17.6-11.1-20.6
			c-23.1-33.3,45,58.5-44-68.5c-34.5-49.2-51.7-73.9-59.6-84.1c-24.7-32.3-44.1-54.4-57.9-70.1c-26.4-30.1-38.3-41.3-47.9-49.5
			c-13.1-11.4-27.6-23.7-49.5-35.1c-13.8-7.1-25.2-11-41.8-16.7C618.6,202.7,601.3,198.1,589,195.2z"/>
		<g>
			<g>
				<path d="M585.9,197c-21.7,66.9-21.7,139.1-6.1,207.3c3.9,17.1,8.8,34,14.6,50.5c2.9,8.4,6.4,16.6,9.5,24.9
					c1.1,2.9,1.3,5.8,2.6,8.7c1.9,4.5,3.9,9,5.9,13.5c3.7,8.4,7.6,16.7,11.7,25c4.1,8.2,9.1,16,12.8,24.3c1.4,3.1,2.6,6.4,4.2,9.4
					c2.1,3.8,5.2,6.7,7.4,10.4c4.6,7.7,9,15.6,13.8,23.2c21.9,35.3,46.8,68.6,72.3,101.3c1.2,1.5,3.3-0.6,2.1-2.1
					c-22.5-28.9-44.5-58.2-64.3-88.9c-4.9-7.6-9.6-15.2-14.2-23c-2.2-3.7-4.4-7.5-6.5-11.3c-2.1-3.7-4.9-6.3-7.1-9.9
					c-1.8-3-3.1-6.2-4.4-9.4c-1.8-4.3-4.2-8.2-6.4-12.3c-4.2-7.7-8.1-15.5-11.8-23.4c-3.9-8.3-7.6-16.7-11.3-25.1
					c-1.6-3.7-2.2-7.6-3.7-11.4c-1.6-4.1-3.3-8.2-4.9-12.4c-6.1-16.1-11.4-32.5-15.8-49.2c-8.8-33.8-13.9-68.5-14.4-103.5
					c-0.5-39.3,4.9-78.6,17.1-116.1C589.3,196,586.4,195.2,585.9,197L585.9,197z"/>
			</g>
		</g>
		<g>
			<g>
				<path d="M587.3,197c16.7,1.3,33.7,7.1,49.4,12.6c15.5,5.5,30.8,11.5,45,19.7c28.3,16.4,53.3,37.9,76.1,61.3
					c23.5,24.1,44.9,50.6,65.6,77.1c20.6,26.4,40.3,53.7,59.3,81.3c21,30.7,41.2,62,61,93.6c1,1.6,3.6,0.1,2.6-1.5
					c-36.3-57.7-73.8-114.7-115.5-168.7c-40.3-52.3-83.5-105.7-140.1-141.2c-15.4-9.7-31.9-16.7-48.9-23
					c-17.2-6.3-36-12.8-54.4-14.3C585.4,193.9,585.4,196.9,587.3,197L587.3,197z"/>
			</g>
		</g>
		<g>
			<g>
				<path d="M738.9,694.6c46.6-47.5,99-89.2,155.7-124c16-9.8,32.2-19,48.8-27.6c1.7-0.9,0.2-3.5-1.5-2.6
					c-58.9,30.8-114.1,68.7-163.8,112.8c-14.2,12.6-28,25.7-41.3,39.3C735.4,693.9,737.5,696,738.9,694.6L738.9,694.6z"/>
			</g>
		</g>
		<g>
			<g>
				<path d="M736,696.9c11.9,13.3,27.4,22.7,44.7,26.9c1.9,0.5,2.7-2.4,0.8-2.9c-16.9-4.2-31.8-13.2-43.4-26.2
					C736.8,693.3,734.7,695.5,736,696.9L736,696.9z"/>
			</g>
		</g>
		<g>
			<g>
				<path d="M942.9,543.8c7.8,13.7,12.3,28.8,13.3,44.5c0.1,1.9,3.1,1.9,3,0c-1-16.3-5.7-31.8-13.7-46
					C944.6,540.6,942,542.1,942.9,543.8L942.9,543.8z"/>
			</g>
		</g>
		<g>
			<g>
				<path d="M782.5,723c54.1-49.4,112.7-93.6,175.2-131.9c1.6-1,0.1-3.6-1.5-2.6c-62.6,38.4-121.5,82.8-175.8,132.4
					C779,722.2,781.1,724.3,782.5,723L782.5,723z"/>
			</g>
		</g>
		<g>
			<g>
				<path d="M820.2,690.8c5.5,5.4,11,10.8,16.5,16.3c0.6,0.6,1.6,0.6,2.1,0c16.2-17.2,34.4-32.4,54.3-45.1c4.8-3.1,9.7-6,14.7-8.8
					c3.2-1.8,9.3-3.5,11.2-6.9c2-3.4-1-8-2.6-10.9c-2.8-5.1-6.1-9.8-9.7-14.2c-1.2-1.5-3.3,0.6-2.1,2.1c3.5,4.3,6.6,8.8,9.2,13.6
					c0.6,1,1.9,2.7,2,3.9c-0.4,1.8-0.8,3.5-1.2,5.3c-0.5,0.3-1,0.5-1.5,0.8c-2,1.5-4.6,2.4-6.8,3.7c-8.7,4.9-17.2,10.2-25.4,15.9
					c-16,11.3-30.8,24.2-44.2,38.4c0.7,0,1.4,0,2.1,0c-5.5-5.4-11-10.8-16.5-16.3C820.9,687.3,818.8,689.4,820.2,690.8L820.2,690.8z
					"/>
			</g>
		</g>
		<g>
			<g>
				<path d="M593,444.3c24.6-29,53.4-54.1,82.9-78c29.6-23.9,60.6-46.3,95.3-62.2c1.8-0.8,0.2-3.4-1.5-2.6
					c-34.4,15.7-65.1,37.9-94.5,61.5c-30,24.2-59.3,49.7-84.3,79.1C589.6,443.7,591.7,445.8,593,444.3L593,444.3z"/>
			</g>
		</g>
		<g>
			<g>
				<path d="M771.8,318.1c-3.3,0.2-4.7-5.3-1-5.6c1.3-0.1,2.8,0.5,3.3,1.8c0.7,1.9-1.1,3.9-3,3.9c-1.4,0-1.5,2.3,0,2.3
					c3.1,0,5.8-2.9,5.3-6c-0.4-2.6-3.1-4.2-5.6-4.1c-2.7,0.2-4.8,2.4-4.5,5.1c0.3,2.7,2.7,5.2,5.5,5
					C773.3,320.3,773.3,318,771.8,318.1L771.8,318.1z"/>
			</g>
		</g>
		<g>
			<g>
				<path d="M924.5,539.3c0.1,0,0.1,0,0.2-0.1c-0.3,0-0.6-0.1-0.9-0.1c1.1,0.5,0.5-1.6,0.4-1.9c0-0.3,0.1-0.7,0.2-1
					c0.3-0.6,0.8-1.2,1.4-1.5c1.3-0.6,2.7,0.4,3.1,1.7c0.8,2.6-3,3.9-4,1.6c-0.6-1.3-2.5-0.2-1.9,1.1c1.2,2.8,5.3,3,7.3,0.9
					c2.3-2.5,0.6-6.7-2.5-7.6c-3.3-0.9-6.5,2.6-5.7,5.8c0.3,1.3,2,2.9,3.3,1.6c1-1,0-3.2-1.5-2.6
					C922.6,537.7,923.2,539.8,924.5,539.3L924.5,539.3z"/>
			</g>
		</g>
		<path class="st5" d="M589,195.8c15.8,10.2,37.2,25.2,60.6,45.3c14.5,12.5,52.1,46,99.1,111c51,70.5,76.5,105.7,81.6,145
			c2.6,20.5,6.2,78.9-45.3,150.7c21.3-16.2,42.7-32.5,64-48.7c9.3,15.3,18.5,30.6,27.8,45.9c-10,7.4-20,14.7-30,22.1
			c4.9,5.9,9.8,11.7,14.7,17.6c6-5.8,13.2-12,21.5-18.1c12.8-9.4,25.1-16.1,35.7-21c-4-7.7-7.9-15.5-11.9-23.2
			c17.2-11.3,34.4-22.7,51.6-34c-0.9-8.5-3-20.8-8.5-34.6c-6.4-16.2-14.5-27-17.6-31.2c-22.4-30.3-11.5-23-58.4-88.9
			c-33.7-47.4-52.3-73.9-82.1-108.2c-19.1-22-31.8-36.5-52.1-54.4c-21.6-19.1-47.8-41.8-87.8-58.4C626.4,202.3,604,197.9,589,195.8z
			"/>
		<path class="st6" d="M910.1,486.3c-0.9,6.4-2.7,16.2-7.2,27.3c-10.4,25.7-26.4,36.9-59.8,70.7c-15.8,16-39.3,39.7-37.1,42.3
			c2.1,2.5,27.8-17.3,72.7-46.9c26.3-17.4,48.4-30.9,62.9-39.7C931.1,522.1,920.6,504.2,910.1,486.3z"/>
		<path class="st7" d="M943.7,543c-1.4,0.3,2,11.2-2.1,24.8c-3,10-8.1,14.8-20.6,29.9c-5.4,6.5-13.3,16.3-22.7,28.9
			c19.6-13.4,39.2-26.8,58.8-40.2C948.2,551,944.9,542.8,943.7,543z"/>
	</g>
</g>
<g id="guy">
	<g id="leg_right">
		<path class="st8" d="M774.8,870.3c0.3,2.9,1.4,5.2,3.1,8c7.2,11.6,19.1,18.7,27.7,22.8c-3.4,10.7-7.5,26.1-10.5,44.9
			c-2.8,18.1-6.1,39.2-1.8,40.6c1.5,0.5,5.9-0.9,46.8-81.9c5.7-11.3,10.4-20.7,13.5-27.1c-21.8-9.8-43.5-19.7-65.3-29.5
			C786.2,849.7,773.7,858.8,774.8,870.3z"/>
		<path class="st4" d="M729.2,649.1c-18.4,12.8-30.3,25.2-40.9,36.4c-4.3,4.5-24.9,26.4-46.6,60.8c-9.6,15.2-16.7,28.6-21.6,38.7
			c0.6,4.1,2,10,5.7,15.9c4.1,6.6,8.7,9.5,15.9,15.9c8.8,7.8,12,12.4,17.1,17.6c9.9,10.2,23.8,17.9,51.2,33
			c34.4,18.9,52.9,25.8,58.6,27.9c7,2.5,12.9,4.4,17.1,5.7c2-9.3,4.4-19.2,7.4-29.6c2.7-9.3,5.6-18,8.5-26.1
			c-21.3-15.6-43.2-33.1-65.4-52.9c-7.7-6.8-15.1-13.7-22.2-20.5c7.2-8.7,17.3-20.1,30.1-32.4c3.7-3.6,11.5-11,21-18.8
			c12-9.7,30.1-22.7,55.1-34.7c4.3-28.7-0.8-55.5-16.5-64.2C784.1,611,754.3,631.7,729.2,649.1z"/>
		<g>
			<g>
				<path d="M709,664c-35.4,30-64.7,67.1-85.5,108.6c-2.1,4.3-5.1,9.1-5.5,13.9c-0.4,5.1,2.7,9,5.5,12.9
					c6.7,9.1,14.3,17.6,22.4,25.5c17.2,16.5,37,30.1,57.8,41.6c25.6,14.2,52.7,25.5,79.7,36.7c1.8,0.7,2.6-2.2,0.8-2.9
					c-44.2-18.4-89.3-37.2-126.2-68.5c-8.3-7.1-16.2-14.7-23.3-23c-3.7-4.4-7.4-8.9-10.6-13.6c-2-2.9-3.5-5.6-3-9.3
					c0.5-3.6,2.6-7,4.2-10.3c9.6-19.5,21.1-38,34.3-55.3c15.1-19.9,32.4-38,51.5-54.1C712.6,664.9,710.5,662.8,709,664L709,664z"/>
			</g>
		</g>
		<g>
			<g>
				<path d="M793.8,698.5c-34.3,22.2-64.3,50.3-88.6,83.1c-1.1,1.6,1.5,3.1,2.6,1.5c24-32.4,53.7-60.2,87.5-82.1
					C796.9,700.1,795.4,697.5,793.8,698.5L793.8,698.5z"/>
			</g>
		</g>
		<g>
			<g>
				<path d="M712.3,773.4c28.1,25.4,57,49.8,86.8,73.1c1.5,1.2,3.6-0.9,2.1-2.1c-29.8-23.3-58.8-47.7-86.8-73.1
					C713,770,710.9,772.1,712.3,773.4L712.3,773.4z"/>
			</g>
		</g>
		<g>
			<g>
				<path d="M799.2,846.1c-6.3,17.8-11.2,36-14.8,54.5c-0.4,1.9,2.5,2.7,2.9,0.8c3.6-18.5,8.6-36.7,14.8-54.5
					C802.7,845.1,799.8,844.3,799.2,846.1L799.2,846.1z"/>
			</g>
		</g>
		<path class="st6" d="M767.9,687.3c-13.8,1.2-24.2,11.3-56.3,55.9c-12.3,17.1-22.6,32-30.5,43.8c11.4,8,20.4,14.6,26.1,18.9
			c31.9,23.9,45.3,37.3,72.4,51.9c5.9,3.2,10.8,5.5,13.7,6.8c2.3-6.3,4.6-12.6,6.8-18.9c-7.6-6.6-15.2-13.1-22.9-19.7
			c-21.2-18-42.2-35.4-63.1-52.3c8.7-12.2,16.9-21.4,22.9-27.7c17.7-18.5,35.3-31,49-40.6c4.7-3.3,8.7-5.9,11.3-7.6
			C784.4,687.9,774.3,686.7,767.9,687.3z"/>
		<path class="st7" d="M771.9,713.4c-8.6,2-20.1,5.9-31.8,13.7c-28.6,19.1-38.2,48.3-41,58.3c15.4,12,31.3,24.1,47.8,36.2
			c16,11.8,31.9,23,47.4,33.8c2.3-3.3,4.6-6.7,6.8-10c-21.3-15.5-43.4-33.4-65.5-53.9c-7-6.4-13.7-12.9-20.1-19.3
			c3.5-4.6,7.3-9.3,11.3-14.1C741.8,740.3,757.2,725.6,771.9,713.4z"/>
	</g>
	<g id="leg_left">
		<path class="st8" d="M961.2,837.6c10.6,10,21.3,20.1,31.9,30.1c-2.8,63.8,2.5,78.8,8.1,79.9c8.7,1.7,23.6-28.4,30.1-52.1
			c4.9-18,5.4-33.8,4.9-44.5c-16.6-14.8-33.2-29.6-49.8-44.5C978,816.9,969.6,827.3,961.2,837.6z"/>
		<path class="st4" d="M753.1,657.7c0.9,16.6,12.5,26.7,12.5,26.7c7.2,6.3,15.3,8,19.3,8.5c3.2,1.3,6.4,2.7,9.7,4
			c5,7.2,12.4,17.4,22.2,29c13,15.6,30.5,34.2,73.3,69.4c21.1,17.3,48.3,38.6,81.2,62c4.7-2.3,10.3-5.7,15.9-10.7
			c12.3-10.9,18-23.6,20.6-30.8c-5.8-5.6-14.4-14-24.4-24.4c-44.4-45.9-74-85.2-96.6-115.4c-14.9-19.9-34-46.4-55.1-78.4
			C783.4,610.8,751.9,636.4,753.1,657.7z"/>
		<g>
			<g>
				<path d="M768.6,688.2c8,2.8,15.9,5.5,23.9,8.3c1.8,0.6,2.6-2.3,0.8-2.9c-8-2.8-15.9-5.5-23.9-8.3
					C767.6,684.7,766.8,687.6,768.6,688.2L768.6,688.2z"/>
			</g>
		</g>
		<g>
			<g>
				<path d="M789.2,693.5c37.6,51.7,86.3,93.5,136.8,132.2c14.5,11.1,29.2,22.1,43.9,33c1.6,1.2,3-1.5,1.5-2.6
					c-50.6-37.5-101.5-75.5-144.5-121.7c-12.5-13.4-24.2-27.6-35-42.4C790.7,690.5,788.1,692,789.2,693.5L789.2,693.5z"/>
			</g>
		</g>
		<g>
			<g>
				<path d="M848.2,623.8c35.4,54.3,75.3,105.5,119.3,153.1c12.7,13.8,25.8,27.2,39.1,40.3c1.4,1.4,3.5-0.8,2.1-2.1
					C962.4,769.7,920,720.4,882,667.9c-10.8-14.9-21.2-30.1-31.3-45.6C849.7,620.7,847.1,622.2,848.2,623.8L848.2,623.8z"/>
			</g>
		</g>
		<g>
			<g>
				<path d="M1004.9,815.3c-5.8,17.2-17,33.2-33.9,40.8c-1.8,0.8-0.2,3.4,1.5,2.6c17.6-7.9,29.2-24.7,35.2-42.6
					C1008.4,814.3,1005.5,813.5,1004.9,815.3L1004.9,815.3z"/>
			</g>
		</g>
		<path class="st9" d="M848.3,622.2c-5.7-7.7-10.5-14-13.7-18.1c-3.2,5.9-7.6,15.8-8,28.1c-0.9,27.8,19.5,39.7,78,104.5
			c25.5,28.2,39,45.2,71.9,78.8c7.7,7.8,14.2,14.3,18.9,18.9c3.6-6.3,7.2-12.6,10.9-18.9c-31.7-31.8-56.8-60.5-75.6-83.2
			c-18.1-21.9-34.3-41.5-51-65.9C875.4,660.3,864.5,644,848.3,622.2z"/>
		<path class="st9" d="M866,650.3c1.4,6.9,4.3,18.6,10,32.2c16.5,38.8,40.9,55.2,84.8,103.7c8.4,9.3,21.4,24,36.6,43
			c3.5-5,7-9.9,10.5-14.9c-3.2-3-8.3-7.7-14.5-13.7c-11.4-11-42.3-41.7-101.3-116.6C885.7,676,876.7,664.4,866,650.3z"/>
	</g>
	<g id="cat_body">
		<path class="st1" d="M541.4,561.9c-2,0.8-5,2.5-13.9,16.8c-9.6,15.4-16.1,25.9-20.9,42.5c-4.2,14.8-5.2,28.3-4.9,39.3
			c0.7,3.2,1.2,7.9-0.4,13.1c-2.1,6.6-5.9,8.2-13.1,17.2c-2.9,3.6-7.7,9.7-11.5,18c-4.2,9.3-2.1,10.5-6.1,19.6
			c-4.8,10.9-11.9,18.4-13.1,19.6c-6.6,6.9-9.8,7.1-12.7,13.1c-3.3,6.8-2.3,13.2-2,15.1c0.2,1.4,2.3,13.6,9.4,15.1
			c1.9,0.4,4.9,0.2,6.1-1.6c1.9-2.8-2.5-6.7-3.3-13.5c-0.7-6.2,2-11.2,3.7-14.3c5.1-9.5,11-8.1,16.4-16c5.2-7.8,0.3-10.2,5.3-24.9
			c2.8-8.2,5.6-16.4,13.1-22.5c3.4-2.8,6.7-4.3,9.8-9c2.7-4.1,3.7-8.2,4.1-11c5.5,8.8,11.3,14.5,15.5,18c5.6,4.6,12,10,17.4,8
			c2.9-1.1,5.5-4.4,5-6.7c-0.3-1.3-1.5-1.7-4.6-4.5c0,0-1.2-1.1-3.9-4c-1.8-1.9-4.4-5.4-6.7-12c0.9-1,3.2-3.2,6.3-3.4
			c3.4-0.1,6,2.3,8.6,4.9c4.9,4.8,4.7,7.7,7.8,10.6c2.4,2.3,6.8,4.7,15.5,4.1c-0.4-1.1-1.1-2.9-2-4.9c-3.1-6.7-4.7-7.4-4.9-10.2
			c-0.1-2.2,0.8-2.8,4.9-9.8c3.5-6,5.2-9,5.3-10.6c0.5-5.9-4.6-7.9-5.7-14.7c-1-5.7,1.5-10.3,3.3-13.9c10.4-21.1,17-34.5,15.1-44.6
			C581.4,569,556.2,555.7,541.4,561.9z"/>
		<g>
			<g>
				<path class="st1" d="M536.8,565.5c-14.5,14.8-23.8,33.6-30,53.2c-6,19.1-10.5,40.9-1,59.6c0.9,1.7,3.5,0.2,2.6-1.5
					c-9.4-18.4-4.3-40.2,1.8-58.9c6-18.6,14.9-36.2,28.7-50.3C540.2,566.2,538.1,564.1,536.8,565.5L536.8,565.5z"/>
			</g>
		</g>
		<g>
			<g>
				<path class="st1" d="M521.8,651.9c1.2-0.6,2.4-1.1,3.6-1.7c0.9,0.5,1.8,1.1,2.7,1.6c1.1,1,2.1,2.3,2.8,3.6
					c1.4,2.4,2.1,5.3,1.9,8.1c-0.4,5.4-4.3,9.6-5.3,14.8c-0.6,3.2,1.5,5.5,3.3,7.9c3.1,4.1,6.7,7.9,10.6,11.3
					c1.4,1.3,3.6-0.8,2.1-2.1c-2.5-2.3-5-4.6-7.2-7.2c-3.6-4.1-6.8-7.6-4.3-13.3c2.2-5,4.5-9.7,3.5-15.4c-0.8-4.4-3.3-8.9-7.2-11.3
					c-3.3-2-7.3-1.6-9.1,2.1C518.3,652.1,520.9,653.6,521.8,651.9L521.8,651.9z"/>
			</g>
		</g>
		<g>
			<g>
				<path class="st1" d="M506,678.7c5.8,9.3,13.8,17,23.5,22.1c2.9,1.5,8.4,5,11.9,3.5c3.3-1.4,2.7-5.4,1.8-8.1
					c-0.6-1.8-3.5-1-2.9,0.8c2.3,7.3-7.4,2.2-9.3,1.2c-3.1-1.6-6-3.5-8.8-5.7c-5.5-4.3-10-9.5-13.7-15.4
					C507.6,675.6,505,677.1,506,678.7L506,678.7z"/>
			</g>
		</g>
		<g>
			<g>
				<path class="st1" d="M574.9,586.9c-5.9,19.8-9.6,40.2-11.3,60.8c-0.1,0.6,0.5,1.3,1.1,1.4c6.3,1.7,5.4,9.5,3.1,13.9
					c-2.3,4.2-5.9,7.7-7.7,12.2c-3.2,8.1,6.3,10.7,6.1,17.8c0.5-0.5,1-1,1.5-1.5c-9-0.5-16.6-5.3-21.1-13.1
					c-3.2-5.6-6.9-6.8-13.3-6.4c-1.9,0.1-1.9,3.1,0,3c2.4-0.1,5.3-0.4,7.5,0.8c1.9,1.1,2.5,3,3.5,4.7c1.7,2.9,3.9,5.5,6.5,7.6
					c4.9,4,10.6,6,16.8,6.4c0.8,0,1.5-0.7,1.5-1.5c0.1-4.2-2.7-6.7-5-9.9c-4.8-6.7,3.1-12.9,6.2-18.6c3.4-6.2,3.3-16.2-4.9-18.3
					c0.4,0.5,0.7,1,1.1,1.4c1.6-20.4,5.4-40.4,11.2-60C578.3,585.9,575.4,585.1,574.9,586.9L574.9,586.9z"/>
			</g>
		</g>
		<g>
			<g>
				<path class="st1" d="M500.7,661.4c0.7,6-0.1,11.9-3,17.3c-2.7,5.1-7.1,8.8-11.4,12.7c-7.6,7.1-11.1,14.9-13.5,24.9
					c-2.6,10.6-5.7,19.1-13.4,27.1c-5.8,5.9-12.6,11.4-16.2,19.1c-3.5,7.5-3,16.2,1.5,23.2c2.6,4.1,11.5,12.3,14.9,4.5
					c1.4-3.2-0.2-7.2-1.3-10.3c-1-2.7-2.3-5.4-2.3-8.4c0-4.2,2.4-7.8,5.2-10.7c6.8-7.1,15.5-11.1,18.5-21.2
					c1.7-5.7,0.5-11.4,0.9-17.2c0.5-7.2,3.9-13.3,9.1-18.2c7.9-7.5,18.4-13.7,18.4-25.9c0-1.9-3-1.9-3,0
					c-0.1,11.7-11.5,17.5-18.7,24.9c-5.6,5.7-8.8,12.9-8.9,20.9c-0.1,5.3,0.8,10.3-1,15.4c-2,5.8-6.2,9.7-10.8,13.5
					c-5.9,4.7-12.7,10.2-12.7,18.5c0,4,2,7.6,3.2,11.4c0.3,1,1.4,3.7,0.9,4.5c-1,0.1-2.1,0.3-3.1,0.4c-1.8,1.1-3.2,0.9-4.2-0.6
					c-2.2-1.4-4.1-5.6-4.9-8c-3.2-9.4,1.2-17.8,7.5-24.6c5.3-5.8,11.5-10.7,15.9-17.3c4.7-7,6.1-15.3,8.1-23.3
					c1.5-5.8,3.5-11.4,7.5-16c3.5-4.1,7.9-7.2,11.5-11.2c6.4-7,9.3-16.1,8.2-25.4C503.5,659.5,500.5,659.5,500.7,661.4L500.7,661.4z
					"/>
			</g>
		</g>
	</g>
	<g id="hand_right">
		<path class="st4" d="M435.8,539.6c-2.1,1.2-6,3.3-6.8,7.7c-1,4.9,2.5,8.9,3,9.4c-0.6,0.7-2.4,2.8-2.6,6c-0.2,5.3,4.5,8.4,4.7,8.6
			c-0.2,0.2-3.1,3.2-2.1,7.3c0.8,3.5,3.9,5,4.3,5.1c-0.2,0.6-0.9,3.2,0.4,5.6c2,3.6,6.8,3.4,7.3,3.4c3.4-0.2,6.6-2.5,8.1-6
			c1.9,1.1,6.9,3.7,13.7,3c4.6-0.5,8-2.3,9.8-3.4c3.6,6.3,9.2,14.8,17.5,23.5c7.3,7.6,20.9,21.9,41.1,27.8
			c25.2,7.4,47.5-2.2,60.3-7.7c34.4-14.8,51.5-42,57.8-52.2c10.6-17.4,14.3-32.3,17.5-45.8c5.2-21.4,3.4-29.8,1.7-34.7
			c-1-3-6.9-20.2-20.5-22.2c-11.1-1.7-20.3,7.8-21.4,9c-3.8,4-5.8,9.3-9.8,19.7c-2,5.3-3.3,9.3-3.9,11.1
			c-6.5,21.1-9.8,31.6-10.7,33.8c-2.4,6-8.1,19.7-21.8,30.4c-13.1,10.2-26.8,12.4-32.9,13.3c-9.2,1.3-20.5,2.9-32.5-3
			c-13.4-6.6-19.4-18.6-21-21.8c-4.8-9.9-5.7-20.9-6.4-28.7c-0.9-10-0.2-17.8-6-24c-1.1-1.1-3.7-3.9-6.4-3.4
			c-3.9,0.8-6.1,8.3-8.1,15.4c-1.7,6-1.2,6.7-2.6,8.1c-2.9,2.9-6.6,1.4-19.3,2.1C440.8,537.5,438.2,538.3,435.8,539.6z"/>
		<g>
			<g>
				<path d="M456.5,535.3c-10.8-2-29.8,0.8-28.3,15.6c1.3,13.3,17.1,15.6,26.6,9.8c1.6-1,0.1-3.6-1.5-2.6
					c-7.9,4.8-22.2,3.5-22.2-8.5c0-11.6,16.3-12.9,24.6-11.4C457.6,538.6,458.4,535.7,456.5,535.3L456.5,535.3z"/>
			</g>
		</g>
		<g>
			<g>
				<path d="M430.8,555.8C420,569,446,585.6,453.7,569c0.8-1.7-1.8-3.3-2.6-1.5c-6,12.8-26,0-18.1-9.6
					C434.2,556.5,432.1,554.3,430.8,555.8L430.8,555.8z"/>
			</g>
		</g>
		<g>
			<g>
				<path d="M431.4,569.2c-2.3,5.2-0.7,11.8,4.6,14.5c5.2,2.7,11.7,0.2,14.4-4.8c0.9-1.7-1.7-3.2-2.6-1.5c-2,3.5-6.5,5.5-10.3,3.7
					c-3.8-1.8-5.2-6.7-3.5-10.4C434.8,569,432.2,567.5,431.4,569.2L431.4,569.2z"/>
			</g>
		</g>
		<g>
			<g>
				<path d="M433.8,582.6c-0.4,5.3,2.7,10.1,8.1,11.2c5,1,9.6-2.3,11.3-6.8c0.7-1.8-2.2-2.6-2.9-0.8c-1.3,3.4-4.9,5.6-8.5,4.5
					c-3.7-1.1-5.2-4.5-5-8.1C436.9,580.7,433.9,580.7,433.8,582.6L433.8,582.6z"/>
			</g>
		</g>
		<g>
			<g>
				<path d="M443.3,549.9c2.6-0.3,5.3-0.2,7.5,1.3c2.1,1.4,3.3,4.2,2.1,6.5c-0.9,1.7,1.7,3.2,2.6,1.5c1.6-3.1,0.9-6.7-1.5-9.2
					c-2.7-2.9-7-3.5-10.8-3.1C441.4,547.2,441.4,550.2,443.3,549.9L443.3,549.9z"/>
			</g>
		</g>
		<g>
			<g>
				<path d="M452.6,589c5.2-1.9,10.2,2.4,15.6,1.8c4.1-0.5,7.7-2.7,11.1-4.7c1.6-1,0.1-3.6-1.5-2.6c-5.1,3.1-9.5,5.3-15.6,3.5
					c-3.7-1.1-6.6-2.3-10.4-0.9C450,586.8,450.7,589.7,452.6,589L452.6,589z"/>
			</g>
		</g>
		<g>
			<g>
				<path d="M455.7,537.9c5.2,1.8,12.2,2.1,15.1-3.6c1.6-3.2,0.6-7.1,1.3-10.5c0.8-4.6,3.4-8.4,7-11.3c1.5-1.2-0.6-3.3-2.1-2.1
					c-3.9,3.2-6.7,7.6-7.7,12.6c-0.5,2.8,0.2,6.1-0.6,8.8c-1.8,5.4-7.8,4.7-12,3.2C454.7,534.4,453.9,537.3,455.7,537.9L455.7,537.9
					z"/>
			</g>
		</g>
		<g>
			<g>
				<path d="M476.9,512.7c8.5,1.1,9.6,15.4,11,21.9c1.7,8.5,2.6,17.1,4.2,25.6c2.6,13.6,10.5,24.4,23.1,30.5c13.2,6.3,28.2,6,42,2.2
					c14.2-4,28.9-11.2,38.1-23.1c1.2-1.5-0.9-3.6-2.1-2.1c-9.6,12.4-25.2,19.7-40.2,23.2c-15.1,3.5-31.6,2.2-44.2-7.6
					c-13.6-10.5-13.9-26.3-16.6-42c-1.3-7.4-2.4-15.4-5.1-22.4c-1.7-4.4-4.4-8.4-9.3-9.1C475.8,509.5,475,512.4,476.9,512.7
					L476.9,512.7z"/>
			</g>
		</g>
		<g>
			<g>
				<path d="M474.7,588.1c12.1,14.8,23.8,31.7,39.8,42.6c15.7,10.6,35.1,11.7,53.3,8.7c37-6.2,68.4-31.3,86.4-63.7
					c10.3-18.4,16.4-38.8,19.1-59.7c0.2-1.9-2.8-1.9-3,0c-4.6,35.7-20.2,70.7-48,94.3c-13.7,11.6-30,20.3-47.5,24.5
					c-18.1,4.4-39,5-55.5-4.7c-17.6-10.3-29.9-28.7-42.5-44.2C475.6,584.5,473.5,586.6,474.7,588.1L474.7,588.1z"/>
			</g>
		</g>
		<g>
			<g>
				<path d="M652.4,474.6c-8.3-3.3-17.1,1-22.9,7.1c-6.8,7-10.2,16.3-12.7,25.5c-2.9,10.7-5.5,21.3-9.6,31.6
					c-4.4,11.1-10,21.6-16.4,31.6c-1.1,1.6,1.5,3.1,2.6,1.5c10.3-15.9,18.2-33.2,23.1-51.5c2.6-9.6,4.3-19.6,9.1-28.3
					c4.8-8.8,15-19,26-14.6C653.4,478.2,654.2,475.3,652.4,474.6L652.4,474.6z"/>
			</g>
		</g>
		<g>
			<g>
				<path d="M447.8,581c2.8,0.2,2.2,4.9,1.7,6.6c-0.6,1.8,2.3,2.6,2.9,0.8c1.3-3.8,0.4-10-4.6-10.4
					C445.9,577.9,445.9,580.9,447.8,581L447.8,581z"/>
			</g>
		</g>
		<g>
			<g>
				<path d="M449.5,571.8c0.6,2.4-0.3,4.9-2.2,6.3c-1.6,1.1-0.1,3.7,1.5,2.6c3.1-2.2,4.6-6,3.6-9.7
					C452,569.1,449.1,569.9,449.5,571.8L449.5,571.8z"/>
			</g>
		</g>
		<g>
			<g>
				<path d="M451.2,561.4c2.7,1.3,0.9,5.6-0.4,7.3c-1.2,1.5,1.4,3,2.6,1.5c2.3-3,3.5-9.4-0.7-11.4C451,558,449.5,560.6,451.2,561.4
					L451.2,561.4z"/>
			</g>
		</g>
		<path class="st6" d="M430.6,561.8c1.6-0.9,4.2,4.7,10.9,7.5c2.5,1,5.6,1.7,19.8,0c4.6-0.6,10.6-1.4,17.8-2.7
			c1.4,5.7,4.3,14.3,10.2,23.2c2.5,3.7,12.6,18.1,32.1,26.6c20.9,9.2,39.8,6.1,47.1,4.8c6.2-1.1,23.5-4.4,38.9-17.8
			c10.3-8.9,16.9-19.7,26.6-47.8c6.6-19.1,14.6-45.6,20.5-78.5c4,4.1,10.2,11.5,13.7,22.5c1.7,5.3,3.3,13.1,2,25.3
			c-2.7,26.3-15.9,48.2-23.9,59.4c-8.3,11.7-23.1,31.9-50.5,44.4c-3.7,1.7-24.6,10.8-51.2,9.6c-6.1-0.3-11.7-0.6-18.6-3.1
			c-7.5-2.7-15-9.7-29.9-23.5c-6.2-5.7-12.3-11.7-18.5-20.4c-1.2-1.7-2.2-3.2-2.9-4.2c-2.1,1.4-5.2,3-8.7,2.6
			c-4.7-0.4-6.3-3.8-10.2-3.2c-3.4,0.5-3.4,3.3-7.5,4.8c-3.2,1.1-7.7,1-10.7-1.3c-2.2-1.7-2.5-3.6-5-14.4
			C430.2,565,429.5,562.4,430.6,561.8z"/>
	</g>
	<g id="cat_head">
		<path class="st1" d="M544.9,535.8c-1.9,0.4-2.6,4.2-3.8,10.1c-0.7,3.6-1,6.7-1.1,8.9c-4,4.7-4.4,9-4.5,10.7
			c-0.1,3.5,1.1,6.2,3.4,11.2c1.6,3.6,3.3,6.4,4.5,8.3c-4.3,1-7.3,3.8-7.5,6.8c-0.2,2.9,2.4,5.2,3.4,6c4.5,3.9,7.8,1,13.5,4.1
			c4.6,2.5,4.2,5.3,10.9,9c4.2,2.3,5.5,1.8,6,1.5c1.7-1.1,1.1-4.7,0.8-7.1c-0.4-2.9-1.6-7.3-4.9-12.4c3.9-1.4,7.8-2.8,11.6-4.1
			c-2.8,0.3-3.4,0.4-3.4,0.4c0-0.1,6.9-2.9,12.8-0.4c4.9,2.1,5.3,6.5,9.4,6.8c2.3,0.2,4.9-1.1,6-3c2.3-3.9-2-9.6-3-10.9
			c-4.1-5.4-10.1-7-12.8-7.5c0.9-2,1.9-5.2,2.1-9.2c0.2-6.8-2.6-11.8-3.9-13.9c-1.8-5.9-3.5-11.8-5.3-17.8c-2.8,6.5-5.9,8.5-8.3,9
			c-2.7,0.6-4.2-0.7-8.6,0c-4.2,0.7-4.4,2-6.8,1.9C549.8,543.6,547.9,535.2,544.9,535.8z"/>
		<g>
			<g>
				<path class="st4" d="M547.4,567.4c1.7,2,4.4,3.3,7.1,2.6c2.4-0.6,4-2.6,4.3-5c0.1-1-1.4-1-1.5,0c-0.2,2.1-2,3.6-4.1,3.7
					c-1.9,0.1-3.5-1-4.7-2.4C547.8,565.6,546.8,566.7,547.4,567.4L547.4,567.4z"/>
			</g>
		</g>
		<g>
			<g>
				<path class="st4" d="M568.8,564.1c2.5,3.6,10.6,3.9,10.3-1.8c-0.1-1-1.6-1-1.5,0c0.3,4.1-5.8,3.5-7.5,1
					C569.5,562.5,568.2,563.3,568.8,564.1L568.8,564.1z"/>
			</g>
		</g>
		<g>
			<g>
				<path class="st4" d="M564.9,575.2c0,0.1,0.1,0.2,0.1,0.3c0.3,0.1,0.7,0.2,1,0.3c-0.2-0.4-0.5-0.6-1-0.6c0.4-0.1,0.7-0.3,1.1-0.4
					c-0.1-0.1-0.2-0.3-0.3-0.4c-0.5,0.2-0.9,0.4-1.4,0.6c0.7,1.1,0.4,3.1,0,4.2c-0.5,1.5-2.6,3.5-3.9,1.5c-0.5-0.8-1.8-0.1-1.3,0.8
					c1.3,2,4,1.9,5.5,0.2c1.5-1.7,2.3-5.4,1-7.4c-0.4-0.7-1.6-0.3-1.4,0.6c0.2,0.6,0.5,1,1,1.3c0.4,0.3,1,0,1.1-0.4
					c0.2-0.9-0.1-3-1.5-2.4c-1.3,0.5-0.8,2.5-0.2,3.3c0.2,0.3,0.7,0.5,1,0.3c1.1-0.8,1.1-2.3-0.1-2.9
					C564.8,573.5,564.1,574.8,564.9,575.2L564.9,575.2z"/>
			</g>
		</g>
		<g>
			<g>
				<path class="st4" d="M565,575.5c0.4,2.3,1.2,5.1,3.9,5.5c2.7,0.4,3.5-2.2,3.5-4.3c0-1-1.5-1-1.5,0c0,1.5-0.5,3.6-2.5,2.6
					c-1.5-0.7-1.7-2.7-1.9-4.2C566.3,574.2,564.8,574.6,565,575.5L565,575.5z"/>
			</g>
		</g>
		<g>
			<g>
				<path class="st1" d="M537.4,567.9c1.9-10.4,9.4-19.3,19.6-22.3c10.2-3,22,1.1,26.7,10.9c0.8,1.7,3.4,0.2,2.6-1.5
					c-5.1-10.5-17.6-15.2-28.7-12.6c-11.8,2.8-20.9,12.9-23.1,24.7C534.2,569,537.1,569.8,537.4,567.9L537.4,567.9z"/>
			</g>
		</g>
		<g>
			<g>
				<path class="st1" d="M542.7,552.8c-0.1-5,0.8-10,2.9-14.5c0.2-0.4,0.4-0.7,0.5-1.1c0.7-1.2,0.8-1.4,0.2-0.6
					c-0.6,0.5-0.5,0.9,0.4,1.5c0.2,0.3,0.5,0.7,0.7,1c1.5,2.4,2.8,4.9,3.9,7.5c0.7,1.8,3.6,1,2.9-0.8c-1-2.4-5.6-14.6-9.5-11.9
					c-1.9,1.3-3.1,5.7-3.7,7.8c-1.1,3.6-1.5,7.4-1.4,11.2C539.8,554.7,542.8,554.7,542.7,552.8L542.7,552.8z"/>
			</g>
		</g>
		<g>
			<g>
				<path class="st1" d="M573.2,544.7c1-1.7,2-3.4,3.1-5.1c0.5-0.7,1.2-1.4,1.5-2.2c0.7-0.4,0.8-0.8,0.4-1.3
					c-0.4-0.7-0.3-0.5,0.2,0.6c1.7,4.3,2.9,8.5,3.4,13.2c0.2,1.9,3.2,1.9,3,0c-0.3-3.3-0.9-6.5-1.8-9.7c-0.6-1.8-1.5-5.9-3.2-7
					c-1.3-0.8-2.4-0.2-3.3,0.9c-2.3,2.7-4.1,6-5.9,9.1C569.6,544.8,572.2,546.3,573.2,544.7L573.2,544.7z"/>
			</g>
		</g>
		<g>
			<g>
				<path class="st1" d="M534.7,566.3c-0.7,16.8,14.5,31.2,31.4,27.7c7.8-1.6,15-6.7,18.7-13.8c3.9-7.5,6.1-19.4,1-26.8
					c-1.1-1.6-3.7-0.1-2.6,1.5c4.5,6.7,2.3,17.7-1.3,24.4c-3.3,6.1-9.8,10.4-16.6,11.8c-15.1,3-28.2-10-27.6-24.8
					C537.7,564.3,534.7,564.3,534.7,566.3L534.7,566.3z"/>
			</g>
		</g>
		<g>
			<g>
				<path class="st1" d="M536.8,592.7c2.4-8.9,14.4-8.4,20.7-4.5c6.7,4,10.1,11.8,10.8,19.3c0.2,2.1,1,4.2-2.5,2.9
					c-1.3-0.5-3-2.4-4-3.4c-1.8-1.8-3.4-3.7-5.4-5.2c-2.2-1.7-4.5-2.7-7.2-3.2c-4.2-0.8-11.8-0.3-12.2-6.3c-0.1-1.9-3.1-1.9-3,0
					c0.3,3.9,2.8,6.5,6.4,7.8c2.8,1,5.9,0.8,8.8,1.5c3.6,0.9,6,2.8,8.5,5.4c2.5,2.5,6.8,8.1,11.1,7.3c3.6-0.7,2.8-4.8,2.5-7.5
					c-1.1-9.6-6.2-19.1-15.6-22.8c-7.9-3.1-19.3-1.3-21.7,8C533.4,593.8,536.3,594.6,536.8,592.7L536.8,592.7z"/>
			</g>
		</g>
		<g>
			<g>
				<path class="st1" d="M576.7,579.7c4.1-5.5,13.4-3.3,17.7,0.4c2.5,2.1,4.2,5,5,8.2c0.2,1,0.7,3.1,0.4,4.2c-1,2.9-3.1,2-4.9,0.6
					c-2.5-1.9-4.4-4.6-7.5-5.8c-1.5-0.6-3-0.7-4.6-0.6c-1.5,0-2.9,0.4-4.4,0.2c-2.8-0.4-6.7-3-2-6.6c1.5-1.2-0.6-3.3-2.1-2.1
					c-2.3,1.8-3.5,4.5-2.5,7.4c1.4,3.8,5,4.6,8.7,4.4c3.7-0.2,6.1-0.1,9.1,2.4c1.4,1.2,2.6,2.6,4.2,3.7c2.1,1.5,5.2,2.9,7.5,0.8
					c5.3-4.9-0.8-15.8-5-19.2c-6-4.9-17-6.3-22,0.6C573,579.7,575.6,581.2,576.7,579.7L576.7,579.7z"/>
			</g>
		</g>
		<g>
			<g>
				<path class="st4" d="M542.6,584.4c6.5-2.1,16.4,2,20.4,7.3c0.3,0.4,0.9,0,0.6-0.4c-4.2-5.7-14.2-9.9-21.2-7.6
					C541.9,583.8,542.1,584.5,542.6,584.4L542.6,584.4z"/>
			</g>
		</g>
		<g>
			<g>
				<path class="st4" d="M577.4,580.1c2.9-3.4,7.1-4.9,11.5-4c0.5,0.1,0.7-0.6,0.2-0.7c-4.6-0.9-9.2,0.6-12.2,4.2
					C576.6,580,577.1,580.5,577.4,580.1L577.4,580.1z"/>
			</g>
		</g>
		<g>
			<g>
				<path class="st4" d="M546.3,537.5c1,2.6,1.7,5.2,2,7.9c0.2-0.1,0.4-0.2,0.6-0.3c-0.5-0.5-1-0.8-1.6-1.1c-0.3-0.1-0.6,0-0.6,0.3
					c0,0.9-0.1,1.7-0.1,2.6c0.2-0.1,0.4-0.2,0.6-0.3c-1.4-1.6-2.5,2-2.9,2.7c-0.2,0.4,0.4,0.8,0.6,0.4c0.1-0.2,1.4-3,1.7-2.6
					c0.2,0.3,0.6,0,0.6-0.3c0-0.9,0.1-1.7,0.1-2.6c-0.2,0.1-0.4,0.2-0.6,0.3c0.6,0.2,1,0.5,1.4,1c0.2,0.2,0.7,0.1,0.6-0.3
					c-0.4-2.8-1-5.5-2.1-8.1C546.8,536.9,546.1,537.1,546.3,537.5L546.3,537.5z"/>
			</g>
		</g>
		<g>
			<g>
				<path class="st4" d="M577.2,536.2c-1.1,2.1-1.7,4.2-1.9,6.6c0,0.2,0.3,0.4,0.5,0.4c1.4-0.4,1.6,0.7,1.7,1.9
					c0,0.3,0.4,0.5,0.6,0.3c0.5,0.8,0.9,1.5,1.4,2.3c-0.1,0.5,0.7,0.7,0.7,0.2c0.2-1.4-0.7-5-2.6-3c0.2,0.1,0.4,0.2,0.6,0.3
					c-0.1-0.9-0.3-1.7-0.5-2.6c0-0.2-0.2-0.3-0.4-0.3c-0.7,0-1.2,0.1-1.8,0.3c0.2,0.1,0.3,0.2,0.5,0.4c0.1-2.2,0.7-4.2,1.8-6.2
					C578.1,536.1,577.4,535.7,577.2,536.2L577.2,536.2z"/>
			</g>
		</g>
	</g>
	<g id="torso">
		<path class="st2" d="M639.9,476.9c1.4,9.6,4.1,24.8,9.7,42.8c11.8,37.6,25.7,53.7,44.1,97.3c4.6,10.9,11.1,27.3,17.5,48
			c11.9,3.9,34,9.2,61,4.5c44.4-7.7,70.5-37.1,77.8-46c-15.2-28-30.5-58.3-45.4-90.8c-14.8-32.2-27.7-63.2-38.9-92.7
			c-9.4-3.5-34-11.3-64.2-3.9C665.4,444.8,645.5,469.5,639.9,476.9z"/>
		<path class="st10" d="M727.7,432.7c3.8,8,8.6,18.9,13.7,32.1c16,42,21.8,76.5,23.9,88.8c4.5,25.4,8.4,64.8,2,115.4
			c13.9-0.4,24.2-3.6,30.7-6.1c18.6-7.4,32.1-20.3,45.1-32.8c3-2.8,5.3-5.3,6.8-6.8c-4.3-7.4-10.8-19-18.4-33.5
			c-22-41.8-36.4-76.5-48.5-105.9c-4.3-10.3-10.2-25.1-17.1-43c-5.5-2.3-12.4-4.6-20.5-6.1C738.8,433.5,732.8,432.9,727.7,432.7z"/>
		<path class="st11" d="M793.9,512c1.7,17.9,3.1,32.9,4.1,43.7c3.8,42.3,4.5,54,4.8,61.5c0.8,17.7,0.8,32.2,0.7,41.7
			c6.2-2.2,14.2-5.8,22.5-11.6c10.4-7.3,17.4-15.3,21.9-21.2C829.9,588,811.9,550,793.9,512z"/>
	</g>
	<g id="hand_left">
		<path class="st4" d="M722.9,415.1c-4.8,1.4-7.4,8.3-9,15.4c-3.2,14.5-1.5,26.9-0.9,31.2c2.9,19.1,8.1,33.4,9.8,38.1
			c4.4,11.6,10.4,27.1,23.5,43.6c7.5,9.4,13.9,17.5,25.7,23.5c6.9,3.6,21.2,10.9,35.9,5.1c0.7-0.3,15.1-6.2,18.8-18.8
			c0.8-2.8,1-5.6,1.3-11.1c0.2-3.3,0.3-9.1-0.4-16.3c-1-9.5-3.1-16.9-4.7-22.2c-7.1-23.5-10.6-35.2-18-45.4
			c-6.1-8.4-13-18-24.4-19.3c-1-0.1-12.5-1.2-19.3,6.8c-4.7,5.6-4.4,12.5-4.3,17.1c0.3,8.8,3.7,15.1,9,24.8
			c5.3,9.6,7.4,10.8,13.7,22.2c8.6,15.6,7.7,17.1,7.3,17.5c-1.7,1.5-8.5-3.2-10-4.3c-1.4-1-3.4-2.4-5.9-5.1
			c-7.8-8.7-12.4-21.8-12.4-21.8c-4.1-8.1-9.5-19.6-15-34.2c1.7-6.5,4.3-11.1,6.4-14.1c3.4-4.8,7.2-8.1,8.1-14.1
			c0.4-2.3,0.2-4.3,0-5.6c1.7-1.6,2.2-4,1.3-6c-1.1-2.3-3.8-3.4-6.4-2.6c0-0.3-0.3-2.9-2.6-4.3c-1.9-1.2-4.5-1-6.4,0.4
			c-3-2.3-5.5-2.9-7.3-3c-2.1-0.1-3.1,0.4-8.1,1.3C724.4,415,724.1,414.8,722.9,415.1z"/>
		<g>
			<g>
				<path d="M748,457.3c2.7-6.7,6.1-12.8,9.8-19c1.9-3.2,4.1-7.2,1.5-10.7c-5.9-7.6-13.9,2.1-16.4,7.1c-0.9,1.7,1.7,3.2,2.6,1.5
					c1.5-3,3.2-6.7,6.7-7.7c1-0.5,2-0.5,3.1-0.2c0.3,2.3,0.6,4.6,1,6.9c-0.3,1.3-2.1,3.4-2.8,4.6c-3.2,5.3-5.8,10.9-8.2,16.6
					C744.4,458.3,747.3,459,748,457.3L748,457.3z"/>
			</g>
		</g>
		<g>
			<g>
				<path d="M715.3,470.2c-1.5-10.7-1.7-21.6-0.5-32.3c1.1-9.8,3.2-24.7,16.8-21.9c1.9,0.4,2.7-2.5,0.8-2.9
					c-10.7-2.2-17.4,5.4-19.2,15.1c-2.7,14.1-2.8,28.5-0.8,42.8C712.7,472.9,715.6,472.1,715.3,470.2L715.3,470.2z"/>
			</g>
		</g>
		<g>
			<g>
				<path d="M727.8,424.1c1.1-2.6,2.3-5.3,4.4-7.3c3.6-3.5,8.2-1.6,12.1,0.3c1.7,0.9,3.2-1.7,1.5-2.6c-4.1-2.1-8.7-4.1-13.1-1.8
					c-3.8,2-5.8,6.1-7.4,9.8C724.5,424.4,727.1,425.9,727.8,424.1L727.8,424.1z"/>
			</g>
		</g>
		<g>
			<g>
				<path d="M736.7,425c3.7-4.8,8.6-9.8,15-6c1.7,1,3.2-1.6,1.5-2.6c-7.6-4.5-14,0.4-18.6,6.4C733.4,424.4,735.5,426.5,736.7,425
					L736.7,425z"/>
			</g>
		</g>
		<g>
			<g>
				<path d="M743.4,427.2c1.9-2,3.9-4.1,6.5-5.1c3.1-1.3,8.8-0.5,7.6,4.2c-0.4,1.9,2.4,2.7,2.9,0.8c1-4.1-1.7-7.9-5.8-8.6
					c-5.5-1-9.8,3-13.3,6.6C740,426.5,742.1,428.6,743.4,427.2L743.4,427.2z"/>
			</g>
		</g>
		<g>
			<g>
				<path d="M744.6,455.8c-3.5,7.5,0.8,15.1,3.8,22c4.2,9.7,8.6,19.4,14,28.4c7,11.8,22.2,33,38.1,20.9c1.5-1.2,0-3.8-1.5-2.6
					c-15.3,11.7-29.5-11.9-35.7-22.8c-3.6-6.4-6.8-13-9.8-19.7c-3-6.7-9.7-17.2-6.2-24.7C748,455.6,745.4,454,744.6,455.8
					L744.6,455.8z"/>
			</g>
		</g>
		<g>
			<g>
				<path d="M757.5,448.2c-8.8,29.9,18.2,53.1,28.1,78.7c0.7,1.8,3.6,1,2.9-0.8c-9.6-24.8-36.6-48.2-28.1-77.1
					C760.9,447.1,758,446.3,757.5,448.2L757.5,448.2z"/>
			</g>
		</g>
		<g>
			<g>
				<path d="M712.3,469.4c5.1,28,17,54.5,34.5,77c8.5,10.8,18.2,21.3,31.6,25.7c11.4,3.7,27.1,5.6,37.7-1.3
					c11.6-7.4,13.1-22.5,13.6-35c0.1-1.9-2.9-1.9-3,0c-0.6,16.1-4.2,33.9-23.3,36.2c-17.6,2.1-34-4.9-45.9-17.6
					c-22.1-23.5-36.6-54.2-42.4-85.8C714.9,466.7,712,467.5,712.3,469.4L712.3,469.4z"/>
			</g>
		</g>
		<g>
			<g>
				<path d="M759.5,452.2c3.2-12.8,18.6-13.7,28.2-8.1c9.8,5.7,16.5,16,21.4,25.9c5.1,10.4,8.8,21.6,12.4,32.6
					c4.1,12.6,7.2,25.8,5.1,39.1c-0.3,1.9,2.6,2.7,2.9,0.8c2.4-15.2-1.4-29.9-6.3-44.3c-4.5-13.1-8.9-26.6-16.4-38.4
					c-6.3-10-15.7-20.4-28.1-22.1c-9.6-1.3-19.8,3.9-22.2,13.7C756.1,453.3,759,454.1,759.5,452.2L759.5,452.2z"/>
			</g>
		</g>
		<path class="st11" d="M726.6,413.8c8-3.2,15.8,0.3,17.7,1.2c-5.6,7.4-17.5,25.3-18.5,50.6c-1.5,36,20,59.9,27.6,68.4
			c9.8,10.9,22.6,25.1,39.1,23.1c9.3-1.1,18.1-7.3,22.6-15.2c4.5-7.9,4.2-16.5-1.2-38.7c-8.3-33.6-17.4-53.3-16.1-53.9
			c1.3-0.6,12.1,16.3,20.2,37.5c0.8,2.2,7.5,20,9.9,44.5c1.5,15.1,0.2,21.3-2.9,26.8c-4.8,8.5-12.6,12.3-15.6,13.6
			c-12.1,5.1-23.7,1.5-29.2-0.4c-19.7-6.6-30.2-22.6-40.8-38.7c-16.3-24.9-20.8-46.2-25.1-66.7c-3-14.2-5-30.7,2.5-42.8
			C718.1,420.6,721,416.1,726.6,413.8z"/>
	</g>
	<g id="head">
		<path class="st4" d="M582.2,365.1c-0.3,4.7,1.4,10,5,20.6c4,11.9,8.3,24.6,19.1,37.1c6.9,8,15.3,17.8,29.6,20.6
			c11.3,2.2,20.8-1,25.6-3c1.1,3,2.6,6.2,4.5,9.5c5,8.8,11.2,15,16.1,19.1c3.7-0.4,10.9-1.9,17.1-7.5c4.8-4.4,7.1-9.6,8.5-13
			c1.7-4,2.6-7.5,3-10c-3-1.8-6.3-4.2-9.5-7.5c-10-10.2-12.7-22.3-13.5-28.1c1.3-11.5,2.7-23.1,4-34.6c1.5,0.2,4.7,0.4,7.5-1.5
			c3.1-2.1,3.7-5.6,4.5-9.5c0.8-3.9,1.7-8.9-0.5-14.6c-1-2.5-4.2-10.5-11-11c-4.6-0.4-9.3,2.7-12,7.5c-5.8-5.6-18.2-15.5-35.6-17.1
			C614.5,319.3,583.9,342.8,582.2,365.1z"/>
		<path d="M626.6,410.8c-0.8,2.1,1.5,5.1,3.2,6.6c4.7,4.1,13,3.9,19,1.1c8.4-3.9,11.1-12.3,12.3-16.1c1.4-4.2,3.2-9.7,0.3-14.6
			c-2.5-4.3-6.9-5.8-8.6-6.3c-1.7,3.5-3,6.1-4,7.8c-1.2,2.1-1.6,2.8-2.3,4.4c-1,2.1-1.1,2.9-2.5,4.8c-5.7,7.4-13.5,10.1-13.5,10.1
			C628.7,409,627.1,409.4,626.6,410.8z"/>
		<g>
			<g>
				<path d="M583.8,377.1c7.9,24.7,17.8,53.5,43.3,65.1c10.4,4.7,22.8,5.6,33.4,1c11.9-5.1,18.9-16.9,23.7-28.3
					c6.3-14.9,9-31.1,8-47.2c-0.1-1.9-3.1-1.9-3,0c1,16.8-2,33.7-9.1,49c-6.9,14.9-17.8,26.8-35.3,26.6
					c-35.2-0.4-49.5-39.2-58.3-66.9C586.1,374.4,583.3,375.2,583.8,377.1L583.8,377.1z"/>
			</g>
		</g>
		<g>
			<g>
				<path d="M681.3,342c0.1-6,6.3-9.6,11.8-7.9c5.1,1.7,8.3,6.7,9.4,11.7c1,4.8,0.6,10.4-0.9,15c-1.2,3.8-2.7,5.8-7.3,5.8
					c-1.6,0-3.2-0.6-4.9-0.6c-1.9,0-1.9,3,0,3c3.4,0,6.7,1.6,10-0.1c2.4-1.2,3.8-3.6,4.8-6.1c2.6-6.8,2.9-16-0.4-22.7
					c-2.7-5.5-8.5-10.2-14.9-9.5c-5.9,0.6-10.5,5.4-10.6,11.3C678.3,343.9,681.3,343.9,681.3,342L681.3,342z"/>
			</g>
		</g>
		<g>
			<g>
				<path d="M687.2,396.8c-0.3,16.5,7,32.3,20,42.6c1.5,1.2,3.6-0.9,2.1-2.1c-12.4-9.8-19.4-24.6-19.1-40.5
					C690.2,394.9,687.2,394.9,687.2,396.8L687.2,396.8z"/>
			</g>
		</g>
		<g>
			<g>
				<path d="M661.4,441.6c3.8,10.5,10,19.7,18.3,27.1c1.4,1.3,3.6-0.8,2.1-2.1c-8-7.1-13.9-15.8-17.6-25.8
					C663.6,439,660.7,439.8,661.4,441.6L661.4,441.6z"/>
			</g>
		</g>
		<g>
			<g>
				<path d="M680.4,469.7c8.6,3.1,17.2-4.2,22.5-10.3c5.6-6.4,10.5-14.7,8.1-23.4c-0.5-1.9-3.4-1.1-2.9,0.8c2,7.6-2.5,15-7.4,20.5
					c-4.6,5.2-12.1,12.2-19.6,9.5C679.4,466.1,678.6,469,680.4,469.7L680.4,469.7z"/>
			</g>
		</g>
		<g>
			<g>
				<path d="M595,366.6c-1.3-3.7,1.7-7.7,3.9-10.3c3.3-4.1,8.4-5.2,12.2-1c4.4,4.8,5.6,13.4,6.2,19.6c0.4,4.3-1.1,9.8,1.4,13.6
					c2.7,4.1,7.7,6.5,12.4,7.4c1.9,0.4,2.7-2.5,0.8-2.9c-2.5-0.5-4.7-1.3-6.9-2.7c-3.6-2.4-4.4-5-4.5-9.3c-0.1-3.7-0.2-7.3-0.8-11
					c-1-6.1-2.7-13.9-7.7-18c-4.2-3.5-9.4-3.4-13.5,0.1c-3.9,3.4-8.4,9.9-6.5,15.2C592.8,369.2,595.7,368.4,595,366.6L595,366.6z"/>
			</g>
		</g>
		<g>
			<g>
				<path d="M622.7,345c0.7-12.1,15.8-16.5,22.8-6.6c1.1,1.6,3.7,0.1,2.6-1.5c-8.7-12.4-27.5-7.1-28.4,8.1
					C619.6,346.9,622.6,346.9,622.7,345L622.7,345z"/>
			</g>
		</g>
		<g>
			<g>
				<path d="M609.1,374.6c-1.4-1.9-2.2-4-2.3-6.3c-0.8,0.4-1.5,0.9-2.3,1.3c2.3,1.5,3.5,3.9,3.4,6.6c0.6-0.5,1.3-1,1.9-1.4
					c-2.5-0.9-4.1-3.7-3.6-6.3c-0.7,0.3-1.5,0.6-2.2,0.9c1.2,0.7,2.2,1.7,2.9,3c0.3,0.6,0.5,1.2,0.6,1.9c0,0.5,0-0.1-0.1-0.3
					c-0.2-0.4-0.4-0.7-0.6-1.1c-0.8-1.8-3.4-0.2-2.6,1.5c0.6,1.4,1.6,2.9,3.4,3c1.5,0.1,2.8-0.9,3-2.4c0.3-3.3-2.3-6.6-5-8.1
					c-0.8-0.5-2-0.1-2.2,0.9c-0.8,4.3,1.6,8.5,5.7,10c1,0.3,1.9-0.5,1.9-1.4c0.1-3.8-1.7-7.2-4.9-9.2c-0.9-0.6-2.3,0.2-2.3,1.3
					c0.1,2.8,1,5.5,2.7,7.8C607.7,377.7,610.3,376.2,609.1,374.6L609.1,374.6z"/>
			</g>
		</g>
		<g>
			<g>
				<path d="M637.1,355.3c-0.5-0.6-0.9-1.3-1.1-2.1c0-0.2-0.2-1.4,0-1.5c0.2-0.1,0.7,1.5,0.8,1.6c0.2,0.8,0.1,1.7-0.3,2.4
					c0.7-0.2,1.4-0.4,2.1-0.5c-2.5-1.4-3.7-4-3.3-6.8c-0.8,0.4-1.5,0.9-2.3,1.3c2.8,1.2,4.4,4.1,3.7,7.1c0.6-0.3,1.2-0.7,1.8-1
					c-1.5-0.5-2.7-1.8-3-3.4c0-0.1,0-1-0.1-1c-0.2,0.1-0.4,0.2-0.7,0.3c0.1,0.2,0.3,0.5,0.4,0.7c0.4,1.1,0.4,2.2,0.3,3.4
					c0.9-0.4,1.7-0.7,2.6-1.1c-0.9-0.7-1.6-1.5-2.1-2.6c-0.9-1.7-3.5-0.2-2.6,1.5c0.6,1.2,1.5,2.3,2.6,3.2c1.1,0.9,2.4,0.3,2.6-1.1
					c0.2-2,0-4.7-1.5-6.2c-1.2-1.2-3.4-1.3-4.2,0.5c-1.6,3.5,1.8,7.6,4.9,8.7c0.8,0.3,1.7-0.3,1.8-1c1.1-4.2-1-8.8-5.1-10.5
					c-1.1-0.5-2.1,0.1-2.3,1.3c-0.5,3.8,1.5,7.5,4.8,9.4c0.6,0.4,1.7,0.2,2.1-0.5c0.8-1.9,1-3.8,0.3-5.7c-0.6-1.5-1.9-3.1-3.6-2.9
					c-4.4,0.5-2.5,6.8-0.7,8.8C636.3,358.9,638.4,356.7,637.1,355.3L637.1,355.3z"/>
			</g>
		</g>
		<g>
			<g>
				<path d="M663.2,441.3c0,0.1,0,0.1-0.1,0.2c0.6-0.3,1.2-0.7,1.8-1c-0.1,0-0.2-0.1-0.3-0.1c0.3,0.7,0.6,1.5,0.9,2.2
					c0.2-0.4,2.9-1.7,3.7-2.4c1.8-1.5,3.3-3.5,4.7-5.4c3.1-4.1,5.4-8.6,7.3-13.3c-1-0.3-1.9-0.5-2.9-0.8c-3,8.6-5.1,20.6-13.5,25.7
					c0.7,0.7,1.4,1.4,2.1,2.1c2-3,4-6.1,6-9.1c0.9-1.4-1.2-3.1-2.4-1.8c-1.6,1.7-3.3,3.5-4.9,5.2c0.7,0.7,1.4,1.4,2.1,2.1
					c1.5-1.8,2.9-3.7,4.2-5.6c1-1.4-1.2-3.1-2.4-1.8c-1.4,1.5-2.8,2.6-4.6,3.5c0.8,0.4,1.5,0.9,2.3,1.3c0-0.3-0.1-0.6-0.1-0.9
					c-0.2-1.9-3.2-1.9-3,0c0,0.3,0.1,0.6,0.1,0.9c0.1,1.1,1.2,1.9,2.3,1.3c2-1.1,3.6-2.3,5.2-4c-0.8-0.6-1.6-1.2-2.4-1.8
					c-1.2,1.7-2.4,3.4-3.7,5c-1.2,1.5,0.8,3.6,2.1,2.1c1.6-1.7,3.3-3.5,4.9-5.2c-0.8-0.6-1.6-1.2-2.4-1.8c-2,3-4,6.1-6,9.1
					c-0.8,1.3,0.8,2.8,2.1,2.1c9.2-5.6,11.6-18,14.9-27.5c0.6-1.9-2.2-2.5-2.9-0.8c-2.1,5.1-4.8,10.1-8.4,14.3c-1.7,2-4.4,3.1-6,4.9
					c-0.4,0.4-0.8,0.5-1,1c-0.5,0.9-0.1,1.8,0.9,2.2c0.1,0,0.2,0.1,0.3,0.1c0.8,0.3,1.6-0.3,1.8-1c0-0.1,0-0.1,0.1-0.2
					C666.8,440.3,663.9,439.5,663.2,441.3L663.2,441.3z"/>
			</g>
		</g>
		<g>
			<g>
				<path d="M674.3,438.3c0.9-1,1.5-2,1.8-3.2c0.5-1.8-1.8-2.4-2.7-1.2c-2.1,2.8-4.2,5.6-6.3,8.4c-1.2,1.5,1.4,3,2.6,1.5
					c2.1-2.8,4.2-5.6,6.3-8.4c-0.9-0.4-1.8-0.8-2.7-1.2c-0.2,0.7-0.5,1.3-1,1.9C670.9,437.7,673.1,439.8,674.3,438.3L674.3,438.3z"
					/>
			</g>
		</g>
		<g>
			<g>
				<path d="M628.1,413.5c-2.8-5.6,0.2-7.7,5.8-9.2c0.7-0.2,1.4-0.3,2-0.6c2.4-1.1,3.8-3.5,4.8-5.8c1.6-3.4,2.5-7.1,4.6-10.2
					c4.4-6.7,12.2-6.4,14.7,1.6c2.5,8-0.6,16.9-5.9,23c-2.6,3-5.8,5.8-9.6,7.1c-3.3,1.2-6.2,0.8-9.4-0.6c-2.3-1-6.5-3-7.1-5.6
					c-0.4-1.9-3.3-1.1-2.9,0.8c1.1,5.2,8.9,8.4,13.6,9.1c5.1,0.8,9.9-1.7,13.8-4.9c8.7-7.2,14.1-19.9,9.9-30.9
					c-4.5-11.9-16.7-7.5-21.2,1.9c-1.4,2.9-2.1,7.8-4.4,9.9c-2.9,2.7-6.6,1.7-9.6,3.8c-4.2,3-3.8,8.3-1.7,12.4
					C626.4,416.8,629,415.3,628.1,413.5L628.1,413.5z"/>
			</g>
		</g>
		<g>
			<g>
				<path d="M626.1,410.4c15.5-0.4,23-14.8,26.4-28c0.5-1.9-2.4-2.7-2.9-0.8c-3,11.8-9.5,25.4-23.5,25.8
					C624.2,407.5,624.2,410.5,626.1,410.4L626.1,410.4z"/>
			</g>
		</g>
		<path class="st3" d="M585,375.5c-1.8,1-12.7-10.9-17.3-26.8c-3.4-11.6-2.4-21.9-1.2-28.4c1.7-5.2,4.1-10.8,7.4-16.5
			c14.2-24.4,36.6-35.9,48.2-40.8c-2.4,2.3-5.2,5.3-7.8,9.1c-3.6,5-5.9,9.7-7.4,13.6c3.4-2.9,7.3-5.8,11.5-8.6
			c9.4-6.3,18.5-10.8,26.4-14c-1.2,5.1-2.5,10.2-3.7,15.2c2.8-1.6,6.7-3.9,11.5-6.2c5.3-2.5,16.2-7.7,17.9-5.4
			c0.5,0.7-0.1,1.5-1,4.4c-1.2,3.8-1.6,7-1.8,9.1c3.1-0.5,6.6-0.9,10.4-1c4.2-0.2,8,0,11.4,0.3c-1.2,4.6-2.4,9.1-3.6,13.7
			c2.4,0.9,5.8,2.6,9.3,5.4c9.4,7.7,12.1,18.1,12.8,22.2c1.5,9.8-0.9,18-2.7,22.5c-4.8-10.2-14.3-14.2-19.7-11.7
			c-3.3,1.5-7.1,6.3-6.7,11.2c0.1,1.1,0.4,2.1,0.7,2.8c-3.5-3.2-8.8-7.5-15.7-11.5c-6.9-4-14.6-8.5-24.8-9.8
			c-19.2-2.5-34.2,8-38.2,10.9c-6.2,4.4-16.3,11.5-18.1,22.8C581,367.5,586.4,374.8,585,375.5z"/>
		<path class="st6" d="M661.1,331.6c3.1,7,7.3,17.9,9.6,31.6c2.4,13.6,5.4,31.1-1.9,50.5c-2.5,6.6-8.4,19.3-22.4,31.2
			c3.3-0.1,9-0.7,15-3.9c9.8-5.1,14.1-13.6,15.4-16.6c4.7,4.6,11,11.8,15.8,22c2.7,5.7,4.4,11,5.4,15.4c2.7-2.4,7.7-7.6,10-15.8
			c0.9-3.2,1.2-6.1,1.2-8.5c-5.8-3.2-9.5-7.1-11.6-9.6c-0.9-1.1-9.8-12.3-9.3-27.8c0.2-5.6,1.4-5.7,2.3-14.3
			c0.8-7.7,0.4-14.2,0-18.5c5.1,2.1,7.7,1.1,8.9,0.4c2.3-1.4,2.9-3.9,5-16.6c1.1-6.8,1.7-10.2,1.9-12c1.2-9.7,1.8-14.6,1.2-18.5
			c-1.7-11.1-8.8-18.5-11.2-20.8c-4-3.9-8.1-6.1-10.8-7.3c1.2-4.2,2.3-8.5,3.5-12.7c-5.7,6.7-11,11.3-14.6,14.3
			c-9,7.2-14.2,8.9-20.4,15.8c-4.9,5.4-7.7,10.9-9.3,14.6C650.3,327,655.7,329.3,661.1,331.6z"/>
		<path class="st12" d="M619.9,264.1c-3.4,1.5-11.4,5.7-17,14.6c-1.4,2.2-4.5,7.7-5.4,15.4c-1,8.5,1.1,15.2,2.3,18.5
			c0.4-8.3,2.4-21.7,10.4-35.5C613.3,271.9,616.7,267.6,619.9,264.1z"/>
		<path class="st7" d="M690.6,367.8c-0.3-0.1-0.9,1-3.1,8.6c-3,10.3-4.6,17.9-5.5,21.7c-1.3,5.5-3.5,13.3-7.6,22.7
			c7.1,1.4,14.2,2.8,21.3,4.1c-2.6-5.7-5.7-13.9-6.9-24.1C686.9,383.3,691.6,368,690.6,367.8z"/>
	</g>
</g>
</svg>
