<svg xmlns="http://www.w3.org/2000/svg" width="1279.9991" height="314.9795" viewBox="0 0 1279.9991 314.9795"><defs><style>.a{fill:#0f0f0f;}</style></defs><path class="a" d="M756.49,122.5557v.1059c-.6388,0-1.2813.1058-1.92.1058s-1.2812-.1058-1.92-.1058c-38.0786,0-61.6515,23.7883-61.6515,61.9728v18.7729c0,36.7974,23.8941,59.6258,62.1845,59.6258a16.5519,16.5519,0,0,0,2.3471-.1059c.5329,0,.96.1059,1.4929.1059,25.7045,0,43.627-9.3846,55.0374-28.8l-22.7187-13.1225c-7.5742,11.1987-17.7071,19.6271-32.2129,19.6271-19.4116,0-31.0374-11.9471-31.0374-32.1071v-5.3329h90.0244V181.1119c0-35.6258-23.3574-58.56-59.6257-58.56Zm-1.92,21.8684c17.7071.8541,28.3729,12.5858,28.3729,31.8916v5.3329H725.9851v-3.0954c0-21.3317,10.1329-33.2788,28.5845-34.1329ZM614.7348,122.6616c-16.9587,0-31.57,7.0412-39.25,18.7729l-1.92,2.9858V125.859H541.3516V306.0176h33.8116V243.0885l1.92,2.88c7.253,10.7717,21.4413,17.17,37.9729,17.17h1.5987c27.84,0,55.8916-18.1341,55.8916-58.7716V181.5428c0-29.2271-17.28-58.7716-56.107-58.7716l-.2117-.1058h-.7446Zm-7.8916,25.387c19.627.3213,31.7858,13.6517,31.7858,34.9871V202.659c0,21.3316-12.2684,34.56-32.1071,34.987-18.4516-.3212-31.3587-14.4-31.3587-34.4541v-20.16c0-20.2658,13.0129-34.56,31.68-34.9871Zm438.1753-69.8645L979.954,259.9414H1016.54l12.48-38.9329h71.0362v.4271l12.48,38.6116h36.5857L1083.9514,78.29h-3.84l-.1059-.1058Zm19.4154,31.2529,27.1975,85.867h-54.6142Zm215.5652-5.6542V78.1841H1168.4275v25.5987h39.1446V234.1273h-39.1446V259.726h111.5716V234.1273h-39.1446V103.7828ZM912.86,122.6653h-1.493c-18.8787,0-32.3187,6.3988-38.9328,18.6671l-2.0258,3.7342v-19.2H838.1954v133.969H872.007V180.05c0-18.7729,10.1329-29.5445,27.6246-29.8658,16.747.3213,26.347,10.8813,26.347,29.1213v80.53H959.79V173.5415c0-31.8916-17.4916-50.88-46.8245-50.88ZM432.6562,74.45c-49.8141,0-80.8516,31.0412-80.8516,81.067v26.9858c0,50.0257,30.9316,81.0632,80.8516,81.0632h1.4929c49.8142,0,80.8516-31.0374,80.8516-81.0632V155.517c0-50.0258-31.0375-81.067-80.8516-81.067h-1.4929Zm.7483,27.0954c29.6542.3212,46.7187,19.3058,46.7187,52.1574v30.72c0,32.8516-17.0645,51.84-46.7187,52.1574-29.6541-.3213-46.7224-19.3058-46.7224-52.1574v-30.72C386.6821,120.8512,403.75,101.8628,433.4045,101.5454ZM138.904.0009A79.68,79.68,0,0,0,63.17,54.9325a79.5441,79.5441,0,0,0-42.6632,131.089,78.1645,78.1645,0,0,0,6.72,64.32,79.5419,79.5419,0,0,0,85.5457,38.1846,78.5389,78.5389,0,0,0,59.0929,26.4529,79.6806,79.6806,0,0,0,75.7341-54.9317,78.3078,78.3078,0,0,0,52.3729-38.0787,79.1666,79.1666,0,0,0-9.7059-93.01v-.1058a78.4629,78.4629,0,0,0-6.72-64.4258,79.5613,79.5613,0,0,0-85.4437-38.0824A78.8406,78.8406,0,0,0,138.904.0009Zm0,20.4812-.1058.1059a59.1269,59.1269,0,0,1,37.8671,13.6554c-.4271.2116-1.2813.7446-1.92,1.0658L112.0279,71.4679a10.2145,10.2145,0,0,0-5.1213,8.9613v84.9032L79.9208,149.7608V79.575A59.0739,59.0739,0,0,1,138.904,20.4784ZM214.4567,45.2a59.06,59.06,0,0,1,58.31,69.0406c-.4271-.3213-1.2774-.7446-1.8142-1.0658L208.2356,76.9067a10.507,10.507,0,0,0-10.3445,0l-73.4929,42.4516V88.2112L185.09,53.1183a58.7339,58.7339,0,0,1,29.3669-7.9218ZM59.3337,77.44v74.5586A10.3407,10.3407,0,0,0,64.455,160.96l73.3832,42.3458-27.0954,15.6774L50.157,183.9957a59.1014,59.1014,0,0,1,9.1767-106.56ZM199.9169,95.8912l60.6916,34.987a58.9651,58.9651,0,0,1,21.5433,80.64l.1058.1058a58.8754,58.8754,0,0,1-30.72,25.8141V162.8757a10.204,10.204,0,0,0-5.1212-8.9575l-73.4891-42.4554ZM155.33,121.6l30.9355,17.9188V175.25L155.33,193.1686,124.3982,175.25V139.5183Zm48.6387,28.1613,26.9858,15.5716v70.08a59.0646,59.0646,0,0,1-58.9832,59.0929v-.1059A58.86,58.86,0,0,1,134.21,280.7477c.427-.2116,1.387-.7483,1.92-1.07l62.7174-36.1587a9.9927,9.9927,0,0,0,5.1174-8.9612Zm-17.6012,45.8645v31.1433l-60.6916,34.987a59.1516,59.1516,0,0,1-80.64-21.547h.1058A58.5547,58.5547,0,0,1,38.1,200.7428c.4271.3212,1.2812.7445,1.8141,1.0658l62.7175,36.2683a10.507,10.507,0,0,0,10.3445,0Z"/></svg>